<svg width="24" height="24" viewBox="0 0 24 24" fill="none" xmlns="http://www.w3.org/2000/svg">
<g id="ai-scan">
<path id="Vector" d="M2.5 16.5C2.5 17.4293 2.5 17.894 2.57686 18.2804C2.89249 19.8671 4.13288 21.1075 5.71964 21.4231C6.10603 21.5 6.57069 21.5 7.5 21.5M21.5 16.5C21.5 17.4293 21.5 17.894 21.4231 18.2804C21.1075 19.8671 19.8671 21.1075 18.2804 21.4231C17.894 21.5 17.4293 21.5 16.5 21.5M21.5 7.5C21.5 6.57069 21.5 6.10603 21.4231 5.71964C21.1075 4.13288 19.8671 2.89249 18.2804 2.57686C17.894 2.5 17.4293 2.5 16.5 2.5M2.5 7.5C2.5 6.57069 2.5 6.10603 2.57686 5.71964C2.89249 4.13288 4.13288 2.89249 5.71964 2.57686C6.10603 2.5 6.57069 2.5 7.5 2.5" stroke="#FDEB56" stroke-width="1.5" stroke-linecap="round" stroke-linejoin="round"/>
<path id="Vector_2" d="M11.9652 5C8.33474 5 5.35 7.76207 5 11.3002L8.5609 13.123C8.92045 12.8207 9.38793 12.6364 9.89702 12.6364H9.91317C10.0373 12.4455 10.18 12.2065 10.3295 11.9584C10.6414 11.4461 10.9914 10.867 11.335 10.4215C11.4114 8.99925 12.592 7.86364 14.0334 7.86364C15.5257 7.86364 16.7379 9.07591 16.7379 10.5682C16.7379 12.0095 15.6023 13.1901 14.18 13.2665C13.7346 13.6101 13.1587 13.9603 12.6432 14.2689C12.395 14.4216 12.1561 14.5643 11.9652 14.6884V14.7045C11.9652 15.8468 11.0393 16.7727 9.89702 16.7727C8.75474 16.7727 7.82884 15.8468 7.82884 14.7045C7.82884 14.6505 7.83187 14.5995 7.83505 14.5455L5.05407 13.1199C5.59179 16.4544 8.48111 19 11.9652 19C15.8311 19 18.9652 15.8659 18.9652 12C18.9652 8.13409 15.8311 5 11.9652 5ZM14.0334 8.5C12.8943 8.5 11.9652 9.42909 11.9652 10.5682C11.9652 11.7073 12.8943 12.6364 14.0334 12.6364C15.1725 12.6364 16.1016 11.7073 16.1016 10.5682C16.1016 9.42909 15.1725 8.5 14.0334 8.5ZM14.0334 9.13636C14.8257 9.13636 15.4652 9.77591 15.4652 10.5682C15.4652 11.3605 14.8257 12 14.0334 12C13.2411 12 12.6016 11.3605 12.6016 10.5682C12.6016 9.77591 13.2411 9.13636 14.0334 9.13636ZM9.89702 13.2727C9.64565 13.2727 9.40712 13.3365 9.20348 13.4542L10.2599 13.9949C10.6513 14.1953 10.804 14.6761 10.6067 15.0675C10.4635 15.3411 10.1866 15.5 9.89702 15.5C9.77293 15.5 9.65182 15.4715 9.53409 15.4142L8.47452 14.8699C8.55725 15.5826 9.16202 16.1364 9.89702 16.1364C10.6893 16.1364 11.3288 15.4968 11.3288 14.7045C11.3288 13.9123 10.6893 13.2727 9.89702 13.2727Z" fill="#FDEB56"/>
</g>
</svg>
