<svg width="16" height="17" viewBox="0 0 16 17" fill="none" xmlns="http://www.w3.org/2000/svg">
<g id="link-01">
<path id="Vector" d="M6.09527 7.62732L6.23321 7.48939C7.55234 6.1702 9.69114 6.1702 11.0103 7.48939C12.3295 8.80852 12.3295 10.9473 11.0103 12.2665L9.09947 14.1773C7.78034 15.4965 5.64153 15.4965 4.32237 14.1773C3.00322 12.8581 3.00322 10.7193 4.32237 9.40019L4.63194 9.09066" stroke="#8EC9ED" stroke-opacity="0.8" stroke-width="1.2" stroke-linecap="round"/>
<path id="Vector_2" d="M11.3677 7.90949L11.6773 7.59996C12.9965 6.28079 12.9965 4.14202 11.6773 2.82286C10.3581 1.50371 8.21933 1.50371 6.9002 2.82286L4.98936 4.7337C3.67021 6.05285 3.67021 8.19163 4.98936 9.51076C6.30852 10.83 8.44733 10.83 9.76647 9.51076L9.9044 9.37283" stroke="#8EC9ED" stroke-opacity="0.8" stroke-width="1.2" stroke-linecap="round"/>
</g>
</svg>
