<svg width="48" height="48" viewBox="0 0 48 48" fill="none" xmlns="http://www.w3.org/2000/svg">
<rect width="48" height="48" rx="8" fill="white" fill-opacity="0.04"/>
<path d="M24.0004 13.4399C18.1684 13.4399 13.4404 18.1679 13.4404 23.9999C13.4404 29.2943 17.3404 33.6657 22.4222 34.4294V26.7988H19.8095V24.023H22.4222V22.1759C22.4222 19.1179 23.9121 17.7753 26.4537 17.7753C27.671 17.7753 28.3147 17.8655 28.6195 17.9068V20.3299H26.8857C25.8067 20.3299 25.4299 21.3527 25.4299 22.5057V24.023H28.5921L28.163 26.7988H25.4299V34.4519C30.5841 33.7526 34.5604 29.3457 34.5604 23.9999C34.5604 18.1679 29.8324 13.4399 24.0004 13.4399Z" fill="#948798"/>
</svg>
