<svg width="24" height="25" viewBox="0 0 24 25" fill="none" xmlns="http://www.w3.org/2000/svg">
<g id="game-controller-03">
<path id="Vector" d="M2.00825 16.2555C2.23114 12.7624 2.88737 10.2062 3.44345 8.7214C3.72419 7.97179 4.32818 7.41357 5.10145 7.2265C9.40147 6.18622 14.5986 6.18622 18.8986 7.2265C19.6719 7.41357 20.2759 7.97179 20.5566 8.7214C21.1127 10.2062 21.7689 12.7624 21.9918 16.2555C22.1251 18.3452 20.6148 19.4966 18.9429 20.3388C17.878 20.8752 17.0591 19.292 16.5155 18.0666C16.2185 17.3971 15.5667 16.9819 14.8281 16.9819H9.17196C8.43331 16.9819 7.78158 17.3971 7.48456 18.0666C6.94089 19.292 6.122 20.8752 5.05711 20.3388C3.40215 19.5051 1.87384 18.362 2.00825 16.2555Z" fill="#1FD031" stroke="#1FD031" stroke-width="1.5" stroke-linecap="round" stroke-linejoin="round"/>
<path id="Vector_2" d="M5 4.94629L6.96285 4.44629M19 4.94629L17 4.44629" stroke="#1FD031" stroke-width="1.5" stroke-linecap="round" stroke-linejoin="round"/>
<path id="Vector_3" d="M9 13.4463L7.5 11.9463M7.5 11.9463L6 10.4463M7.5 11.9463L6 13.4463M7.5 11.9463L9 10.4463" stroke="#16251B" stroke-width="1.5" stroke-linecap="round"/>
<path id="Vector_4" d="M15.988 10.4463H15.997" stroke="#16251B" stroke-width="2" stroke-linecap="round" stroke-linejoin="round"/>
<path id="Vector_5" d="M17.988 13.4463H17.997" stroke="#16251B" stroke-width="2" stroke-linecap="round" stroke-linejoin="round"/>
</g>
</svg>
