<svg width="24" height="25" viewBox="0 0 24 25" fill="none" xmlns="http://www.w3.org/2000/svg">
<g id="game-controller-03">
<path id="Vector" d="M2.00825 14.0323C2.23114 10.5392 2.88737 7.98304 3.44345 6.49825C3.72419 5.74864 4.32818 5.19042 5.10145 5.00335C9.40147 3.96307 14.5986 3.96307 18.8986 5.00335C19.6719 5.19042 20.2759 5.74864 20.5566 6.49825C21.1127 7.98304 21.7689 10.5392 21.9918 14.0323C22.1251 16.122 20.6148 17.2734 18.9429 18.1156C17.878 18.652 17.0591 17.0688 16.5155 15.8434C16.2185 15.1739 15.5667 14.7587 14.8281 14.7587H9.17196C8.43331 14.7587 7.78158 15.1739 7.48456 15.8434C6.94089 17.0688 6.122 18.652 5.05711 18.1156C3.40215 17.2819 1.87384 16.1388 2.00825 14.0323Z" fill="#1FD031" stroke="#1FD031" stroke-width="1.5" stroke-linecap="round" stroke-linejoin="round"/>
<path id="Vector_2" d="M3 2.72314L4.96285 2.22314M21 2.72314L19 2.22314" stroke="#1FD031" stroke-width="1.5" stroke-linecap="round" stroke-linejoin="round"/>
<path id="Vector_3" d="M10 12.2231L7.5 9.72314M7.5 9.72314L5 7.22314M7.5 9.72314L5 12.2231M7.5 9.72314L10 7.22314" stroke="#16251B" stroke-width="1.5" stroke-linecap="round"/>
<path id="Vector_4" d="M17 8.22314H17.009" stroke="#16251B" stroke-width="2" stroke-linecap="round" stroke-linejoin="round"/>
<path id="Vector_5" d="M19 11.2231H19.009" stroke="#16251B" stroke-width="2" stroke-linecap="round" stroke-linejoin="round"/>
</g>
</svg>
