<svg width="48" height="48" viewBox="0 0 48 48" fill="none" xmlns="http://www.w3.org/2000/svg">
<rect width="48" height="48" rx="8" fill="white" fill-opacity="0.04"/>
<path d="M29.0086 32.9951L19.0086 33.0046C16.8086 33.0066 15.0071 31.2086 15.0046 29.0086L14.9951 19.0086C14.9931 16.8086 16.7911 15.0071 18.9911 15.0046L28.9911 14.9951C31.1911 14.9931 32.9926 16.7911 32.9951 18.9911L33.0046 28.9911C33.0071 31.1916 31.2086 32.9931 29.0086 32.9951Z" fill="url(#paint0_radial_7780_5296)"/>
<path d="M29.0086 32.9951L19.0086 33.0046C16.8086 33.0066 15.0071 31.2086 15.0046 29.0086L14.9951 19.0086C14.9931 16.8086 16.7911 15.0071 18.9911 15.0046L28.9911 14.9951C31.1911 14.9931 32.9926 16.7911 32.9951 18.9911L33.0046 28.9911C33.0071 31.1916 31.2086 32.9931 29.0086 32.9951Z" fill="#948798"/>
<path d="M24 27.5C22.0705 27.5 20.5 25.93 20.5 24C20.5 22.07 22.0705 20.5 24 20.5C25.9295 20.5 27.5 22.07 27.5 24C27.5 25.93 25.9295 27.5 24 27.5ZM24 21.5C22.6215 21.5 21.5 22.6215 21.5 24C21.5 25.3785 22.6215 26.5 24 26.5C25.3785 26.5 26.5 25.3785 26.5 24C26.5 22.6215 25.3785 21.5 24 21.5Z" fill="#280E30"/>
<path d="M27.75 21C28.1642 21 28.5 20.6642 28.5 20.25C28.5 19.8358 28.1642 19.5 27.75 19.5C27.3358 19.5 27 19.8358 27 20.25C27 20.6642 27.3358 21 27.75 21Z" fill="#280E30"/>
<path d="M27 30.5H21C19.0705 30.5 17.5 28.93 17.5 27V21C17.5 19.07 19.0705 17.5 21 17.5H27C28.9295 17.5 30.5 19.07 30.5 21V27C30.5 28.93 28.9295 30.5 27 30.5ZM21 18.5C19.6215 18.5 18.5 19.6215 18.5 21V27C18.5 28.3785 19.6215 29.5 21 29.5H27C28.3785 29.5 29.5 28.3785 29.5 27V21C29.5 19.6215 28.3785 18.5 27 18.5H21Z" fill="#280E30"/>
<defs>
<radialGradient id="paint0_radial_7780_5296" cx="0" cy="0" r="1" gradientUnits="userSpaceOnUse" gradientTransform="translate(21.6901 33.0176) scale(22.4495)">
<stop stop-color="#FFDD55"/>
<stop offset="0.328" stop-color="#FF543F"/>
<stop offset="0.348" stop-color="#FC5245"/>
<stop offset="0.504" stop-color="#E64771"/>
<stop offset="0.643" stop-color="#D53E91"/>
<stop offset="0.761" stop-color="#CC39A4"/>
<stop offset="0.841" stop-color="#C837AB"/>
</radialGradient>
</defs>
</svg>
