<svg width="48" height="48" viewBox="0 0 48 48" fill="none" xmlns="http://www.w3.org/2000/svg">
<rect width="48" height="48" rx="8" fill="#34A853" fill-opacity="0.15"/>
<rect x="0.5" y="0.5" width="47" height="47" rx="7.5" stroke="#34A853" stroke-opacity="0.2"/>
<path d="M28.5384 18.3921L24.0481 21.8964L19.4551 18.3921V18.393L19.4606 18.3978V23.3048L23.9963 26.8848L28.5384 23.443V18.3921Z" fill="#EA4335"/>
<path d="M29.7173 17.5398L28.5381 18.3922V23.4431L32.2487 20.5942V18.8781C32.2487 18.8781 31.7983 16.4269 29.7173 17.5398Z" fill="#FBBC05"/>
<path d="M28.5381 23.4431V29.9943H31.3821C31.3821 29.9943 32.1914 29.911 32.2496 28.9885V20.5942L28.5381 23.4431Z" fill="#34A853"/>
<path d="M19.4608 30.0002V23.305L19.4551 23.3003L19.4608 30.0002Z" fill="#C5221F"/>
<path d="M19.4551 18.3929L18.2823 17.5452C16.2013 16.4324 15.75 18.8826 15.75 18.8826V20.5987L19.4551 23.2999V18.3929Z" fill="#C5221F"/>
<path d="M19.4551 18.3931V23.3001L19.4608 23.3048V18.3978L19.4551 18.3931Z" fill="#C5221F"/>
<path d="M15.75 20.6001V28.9943C15.8073 29.9178 16.6175 30.0002 16.6175 30.0002H19.4616L19.4551 23.3003L15.75 20.6001Z" fill="#4285F4"/>
</svg>
