<svg width="500" height="420" viewBox="0 0 500 420" fill="none" xmlns="http://www.w3.org/2000/svg">
<path d="M500 342.65H0V342.4H500V342.65Z" fill="#644D6B"/>
<path d="M416.8 358.5H449.9V358.75H416.8V358.5Z" fill="#644D6B"/>
<path d="M322.55 361.2H331.2V361.45H322.55V361.2Z" fill="#644D6B"/>
<path d="M396.6 349.2H415.8V349.45H396.6V349.2Z" fill="#644D6B"/>
<path d="M52.4502 350.9H95.6502V351.15H52.4502V350.9Z" fill="#644D6B"/>
<path d="M104.55 350.9H110.9V351.15H104.55V350.9Z" fill="#644D6B"/>
<path d="M131.45 355.1H225.15V355.35H131.45V355.1Z" fill="#644D6B"/>
<path fill-rule="evenodd" clip-rule="evenodd" d="M237 297.8H43.9C40.75 297.8 38.2 295.25 38.2 292.1V20.6502C38.2 17.5002 40.75 14.9502 43.9 14.9502H237C240.15 14.9502 242.7 17.5002 242.7 20.6502V292.1C242.7 295.25 240.15 297.8 237 297.8ZM43.9 15.2002C40.9 15.2002 38.45 17.6502 38.45 20.6502V292.1C38.45 295.1 40.9 297.55 43.9 297.55H237C240 297.55 242.45 295.1 242.45 292.1V20.6502C242.45 17.6502 240 15.2002 237 15.2002H43.9Z" fill="#644D6B"/>
<path fill-rule="evenodd" clip-rule="evenodd" d="M453.3 297.8H260.2C257.05 297.8 254.5 295.25 254.5 292.1V20.6502C254.5 17.5002 257.05 14.9502 260.2 14.9502H453.3C456.45 14.9502 459 17.5002 459 20.6502V292.1C459 295.25 456.45 297.8 453.3 297.8ZM260.2 15.2002C257.2 15.2002 254.75 17.6502 254.75 20.6502V292.1C254.75 295.1 257.2 297.55 260.2 297.55H453.3C456.3 297.55 458.75 295.1 458.75 292.1V20.6502C458.75 17.6502 456.3 15.2002 453.3 15.2002H260.2Z" fill="#644D6B"/>
<path d="M289.7 134.05H427.45V43.8501H289.7V134.05Z" fill="#45254F"/>
<path d="M285.5 134.05H425.5V43.8501H285.5V134.05Z" fill="#4F3657"/>
<path d="M289.7 134.05H427.45V151.75H289.7V134.05Z" fill="#45254F"/>
<path d="M278.5 134.05H418.5V151.75H278.5V134.05Z" fill="#4F3657"/>
<path d="M419.6 128.15V49.7002H291.35V128.15H419.6Z" fill="#301837"/>
<path d="M390.7 128.15L374.3 49.7002H348.75L365.15 128.15H390.7Z" fill="#381F40"/>
<path d="M416.9 122.3C417.15 122.3 417.3 122.15 417.3 121.9V53.5499C417.3 53.2999 417.15 53.1499 416.9 53.1499C416.65 53.1499 416.5 53.2999 416.5 53.5499V121.9C416.5 122.15 416.65 122.3 416.9 122.3Z" fill="#4F3657"/>
<path d="M359.65 128.15L343.25 49.7002H333.3L349.7 128.15H359.65Z" fill="#381F40"/>
<path d="M292.1 128.15V49.7002H291.35V128.15H292.1Z" fill="#45254F"/>
<path opacity="0.6" d="M284.1 58.6H421.9L422.4 52H284.65L284.1 58.6Z" fill="#644D6B"/>
<path opacity="0.6" d="M284.1 69.3998H421.9L422.4 62.7998H284.65L284.1 69.3998Z" fill="#644D6B"/>
<path opacity="0.6" d="M284.1 80.2001H421.9L422.4 73.6001H284.65L284.1 80.2001Z" fill="#644D6B"/>
<path opacity="0.6" d="M284.1 90.9999H421.9L422.4 84.3999H284.65L284.1 90.9999Z" fill="#644D6B"/>
<path opacity="0.6" d="M284.1 101.8H421.9L422.4 95.2002H284.65L284.1 101.8Z" fill="#644D6B"/>
<path opacity="0.6" d="M284.1 112.6H421.9L422.4 106H284.65L284.1 112.6Z" fill="#644D6B"/>
<path d="M407.7 282.5H378.8V276.8H407.7V282.5Z" fill="#45254F"/>
<path d="M324.3 342.4H329.65V211.35H324.3V342.4Z" fill="#45254F"/>
<path d="M305.85 282.5H378.8V276.8H305.85V282.5Z" fill="#452D4C"/>
<path d="M407.7 313.65H378.8V307.95H407.7V313.65Z" fill="#45254F"/>
<path d="M305.85 313.65H378.8V307.95H305.85V313.65Z" fill="#452D4C"/>
<path d="M407.7 220.15H378.8V214.45H407.7V220.15Z" fill="#45254F"/>
<path d="M305.85 220.15H378.8V214.45H305.85V220.15Z" fill="#452D4C"/>
<path d="M407.7 251.3H378.8V245.6H407.7V251.3Z" fill="#45254F"/>
<path d="M305.85 251.3H378.8V245.6H305.85V251.3Z" fill="#452D4C"/>
<path d="M397.25 342.4H402.6V211.35H397.25V342.4Z" fill="#45254F"/>
<path d="M373.45 342.4H378.8V211.35H373.45V342.4Z" fill="#452D4C"/>
<path d="M305.85 342.4H311.15V211.35H305.85V342.4Z" fill="#452D4C"/>
<path d="M65.3501 342.4H119.95V236.5H65.3501V342.4Z" fill="#45254F"/>
<path d="M79.9501 342.4H65.3501V327.8H95.2501L79.9501 342.4Z" fill="#301837"/>
<path d="M214.2 342.4H268.75V236.5H214.2V342.4Z" fill="#45254F"/>
<path d="M65.3501 337.35H226.9V236.5H65.3501V337.35Z" fill="#301837"/>
<path d="M212.35 342.4H226.9V327.8H197.05L212.35 342.4Z" fill="#301837"/>
<path d="M76.7002 299.35H215.6V274.1H76.7002V299.35Z" fill="#4F3657"/>
<path d="M76.7002 329.95H215.6V304.75H76.7002V329.95Z" fill="#4F3657"/>
<path d="M103.1 276.8H189.2C191.7 276.8 193.75 274.75 193.75 272.2V271.9H98.5V272.2C98.5 274.75 100.55 276.8 103.1 276.8Z" fill="#301837"/>
<path d="M76.7002 268.7H215.6V243.45H76.7002V268.7Z" fill="#4F3657"/>
<path d="M103.1 246.15H189.2C191.7 246.15 193.75 244.1 193.75 241.6V241.25H98.5V241.6C98.5 244.1 100.55 246.15 103.1 246.15Z" fill="#301837"/>
<path d="M103.1 307.45H189.2C191.7 307.45 193.75 305.4 193.75 302.85V302.55H98.5V302.85C98.5 305.4 100.55 307.45 103.1 307.45Z" fill="#301837"/>
<path d="M74.0498 134.05H211.85V43.8501H74.0498V134.05Z" fill="#45254F"/>
<path d="M69.8501 134.05H209.9V43.8501H69.8501V134.05Z" fill="#4F3657"/>
<path d="M74.0498 134.05H211.85V151.75H74.0498V134.05Z" fill="#45254F"/>
<path d="M62.8501 134.05H202.9V151.75H62.8501V134.05Z" fill="#4F3657"/>
<path d="M204 128.15V49.7002H75.75V128.15H204Z" fill="#301837"/>
<path d="M175.1 128.15L158.7 49.7002H133.15L149.5 128.15H175.1Z" fill="#381F40"/>
<path d="M201.25 122.3C201.5 122.3 201.7 122.15 201.7 121.9V53.5499C201.7 53.2999 201.5 53.1499 201.25 53.1499C201.05 53.1499 200.85 53.2999 200.85 53.5499V121.9C200.85 122.15 201.05 122.3 201.25 122.3Z" fill="#4F3657"/>
<path d="M144.05 128.15L127.65 49.7002H117.7L134.05 128.15H144.05Z" fill="#381F40"/>
<path d="M76.5 128.15V49.7002H75.75V128.15H76.5Z" fill="#45254F"/>
<path opacity="0.6" d="M68.4502 58.6H206.25L206.8 52H69.0002L68.4502 58.6Z" fill="#644D6B"/>
<path opacity="0.6" d="M68.4502 62.3002H206.25L206.8 55.7002H69.0002L68.4502 62.3002Z" fill="#644D6B"/>
<path opacity="0.6" d="M68.4502 66.0002H206.25L206.8 59.4502H69.0002L68.4502 66.0002Z" fill="#644D6B"/>
<path opacity="0.6" d="M68.4502 69.7499H206.25L206.8 63.1499H69.0002L68.4502 69.7499Z" fill="#644D6B"/>
<path opacity="0.6" d="M68.4502 73.4501H206.25L206.8 66.8501H69.0002L68.4502 73.4501Z" fill="#644D6B"/>
<path opacity="0.6" d="M68.4502 77.1501H206.25L206.8 70.6001H69.0002L68.4502 77.1501Z" fill="#644D6B"/>
<path d="M96 233.25H100.8V180.2H96V233.25Z" fill="#452D4C"/>
<path d="M96.6499 233.25H97.9499V180.15H96.6499V233.25Z" fill="#301837"/>
<path d="M98.5498 233.25H99.0498V180.15H98.5498V233.25Z" fill="#301837"/>
<path d="M80.75 236.5H116.05C116.05 234.05 114.05 232.05 111.6 232.05H85.2C82.75 232.05 80.75 234.05 80.75 236.5Z" fill="#4F3657"/>
<path d="M89.8502 213.15C90.6002 213.15 91.2002 212.5 91.2002 211.75V176.95C91.2002 176.2 90.6002 175.6 89.8502 175.6C89.1002 175.6 88.4502 176.2 88.4502 176.95V211.75C88.4502 212.5 89.1002 213.15 89.8502 213.15Z" fill="#4F3657"/>
<path d="M77.0498 192.8H119.7L114.8 163H81.9998L77.0498 192.8Z" fill="#3B2342"/>
<path d="M443.9 376.25C443.9 382.5 357.1 387.55 250 387.55C142.9 387.55 56.1001 382.5 56.1001 376.25C56.1001 370 142.9 364.9 250 364.9C357.1 364.9 443.9 370 443.9 376.25Z" fill="#452D4C"/>
<path d="M104.45 180.85L103.1 162.45L104.1 162.35L105.45 180.8L104.45 180.85Z" fill="#FDEB56"/>
<path d="M105.65 197.35L105.15 190.4L106.15 190.3L106.65 197.25L105.65 197.35Z" fill="#FDEB56"/>
<path d="M337.7 275.15H123.55C118.7 275.15 114.45 271.2 114.1 266.35L103.6 120.2C103.25 115.4 106.9 111.4 111.75 111.4H325.9C330.75 111.4 335 115.4 335.35 120.2L345.9 266.35C346.25 271.2 342.55 275.15 337.7 275.15Z" fill="#FDEB56"/>
<path d="M338.55 275.15H124.35C119.55 275.15 115.3 271.2 114.95 266.35L104.4 120.2C104.05 115.4 107.75 111.4 112.6 111.4H326.75C331.6 111.4 335.85 115.4 336.2 120.2L346.7 266.35C347.05 271.2 343.4 275.15 338.55 275.15Z" fill="#FDEB56"/>
<path opacity="0.2" d="M338.55 275.15H124.35C119.55 275.15 115.3 271.2 114.95 266.35L104.4 120.2C104.05 115.4 107.75 111.4 112.6 111.4H326.75C331.6 111.4 335.85 115.4 336.2 120.2L346.7 266.35C347.05 271.2 343.4 275.15 338.55 275.15Z" fill="#381F40"/>
<path d="M327.05 115.8H112.9C112.667 115.8 112.434 115.816 112.2 115.85C106.7 116.3 107.85 124.65 113.35 124.65H327.85C333.4 124.65 333.3 116.3 327.8 115.85C327.534 115.816 327.284 115.8 327.05 115.8Z" fill="#FDEB56"/>
<path d="M118.5 120.2C118.55 121.35 117.7 122.25 116.6 122.25C115.5 122.25 114.5 121.35 114.45 120.2C114.35 119.1 115.2 118.2 116.3 118.2C117.45 118.2 118.4 119.1 118.5 120.2Z" fill="#301837"/>
<path d="M125.35 120.2C125.45 121.35 124.6 122.25 123.45 122.25C122.35 122.25 121.4 121.35 121.3 120.2C121.25 119.1 122.05 118.2 123.2 118.2C124.3 118.2 125.25 119.1 125.35 120.2Z" fill="#301837"/>
<path d="M132.2 120.2C132.3 121.35 131.45 122.25 130.35 122.25C129.25 122.25 128.25 121.35 128.2 120.2C128.1 119.1 128.95 118.2 130.05 118.2C131.15 118.2 132.15 119.1 132.2 120.2Z" fill="#301837"/>
<path d="M332.85 260.6H127.95C126.2 260.6 124.65 259.15 124.55 257.4L115.9 137.2C115.75 135.45 117.05 134 118.85 134H323.75C325.5 134 327.05 135.45 327.15 137.2L335.8 257.4C335.95 259.15 334.6 260.6 332.85 260.6Z" fill="#381F40"/>
<path d="M246.55 214.8L243.2 168.5L233.1 162.4H205.3L209.05 214.8H246.55Z" fill="#381F40"/>
<path fill-rule="evenodd" clip-rule="evenodd" d="M246.55 215.3H209.05C208.8 215.3 208.6 215.1 208.55 214.85L204.8 162.45C204.8 162.3 204.85 162.15 204.95 162.05C205 161.95 205.15 161.9 205.3 161.9H233.1C233.166 161.9 233.25 161.933 233.35 162L243.45 168.05C243.6 168.15 243.65 168.3 243.7 168.45L247 214.75C247 214.9 247 215.05 246.9 215.15C246.8 215.25 246.65 215.3 246.55 215.3ZM209.5 214.3H246L242.75 168.75L232.95 162.9H205.8L209.5 214.3Z" fill="#FDEB56"/>
<path d="M243.2 168.5L233.1 162.4L236.8 170.45L243.2 168.5Z" fill="#644D6B"/>
<path fill-rule="evenodd" clip-rule="evenodd" d="M236.8 170.95C236.6 170.95 236.45 170.85 236.35 170.65L232.65 162.6C232.55 162.4 232.6 162.2 232.75 162.05C232.9 161.9 233.15 161.85 233.35 162L243.45 168.05C243.6 168.15 243.7 168.35 243.7 168.55C243.65 168.75 243.5 168.9 243.35 168.95L236.95 170.9C236.884 170.933 236.834 170.95 236.8 170.95ZM234.2 163.6L237.05 169.85L242 168.35L234.2 163.6Z" fill="#FDEB56"/>
<path d="M220.95 186C221.05 187.15 220.15 188.1 219 188.1C217.85 188.1 216.8 187.15 216.75 186C216.65 184.85 217.55 183.9 218.7 183.9C219.85 183.9 220.9 184.85 220.95 186Z" fill="#FDEB56"/>
<path d="M234.7 186C234.8 187.15 233.9 188.1 232.75 188.1C231.55 188.1 230.55 187.15 230.45 186C230.4 184.85 231.25 183.9 232.45 183.9C233.6 183.9 234.6 184.85 234.7 186Z" fill="#FDEB56"/>
<path d="M238.6 199.75C238.35 199.75 238.1 199.55 238.1 199.3C237.85 195.9 232.5 193.1 226.2 193.1C222 193.1 218.25 194.35 216.4 196.35C215.567 197.25 215.183 198.2 215.25 199.2C215.25 199.5 215.05 199.7 214.8 199.75C214.55 199.75 214.3 199.55 214.3 199.3C214.2 198 214.7 196.8 215.7 195.7C217.7 193.5 221.75 192.15 226.2 192.15C233.15 192.15 238.8 195.25 239.05 199.2C239.1 199.5 238.9 199.7 238.6 199.75Z" fill="#FDEB56"/>
<path d="M213.15 181.7C213.05 181.7 212.95 181.667 212.85 181.6C212.65 181.4 212.65 181.1 212.8 180.9L214.95 178.6C215.1 178.4 215.4 178.4 215.6 178.6C215.8 178.75 215.85 179.1 215.65 179.25L213.5 181.55C213.45 181.65 213.3 181.7 213.15 181.7Z" fill="#FDEB56"/>
<path d="M237.6 181.7C237.467 181.7 237.35 181.667 237.25 181.6L234.8 179.3C234.6 179.1 234.6 178.8 234.8 178.6C234.95 178.4 235.25 178.4 235.45 178.6L237.9 180.9C238.1 181.05 238.1 181.35 237.95 181.55C237.85 181.65 237.7 181.7 237.6 181.7Z" fill="#FDEB56"/>
<path d="M202.25 225.15H204.5L207.8 229.5L207.45 225.15H209.75L210.3 233H208.05L204.8 228.7L205.1 233H202.8L202.25 225.15Z" fill="#FDEB56"/>
<path fill-rule="evenodd" clip-rule="evenodd" d="M211.35 229.05C211.25 227.783 211.533 226.8 212.2 226.1C212.867 225.367 213.833 225 215.1 225C216.4 225 217.433 225.35 218.2 226.05C218.933 226.75 219.35 227.733 219.45 229C219.517 229.933 219.417 230.683 219.15 231.25C218.883 231.85 218.467 232.317 217.9 232.65C217.333 232.95 216.617 233.1 215.75 233.1C214.883 233.1 214.15 232.967 213.55 232.7C212.95 232.4 212.45 231.95 212.05 231.35C211.65 230.75 211.417 229.983 211.35 229.05ZM213.75 229.1C213.817 229.867 214 230.433 214.3 230.8C214.633 231.133 215.05 231.3 215.55 231.3C216.083 231.3 216.483 231.133 216.75 230.8C216.983 230.467 217.067 229.867 217 229C216.967 228.233 216.783 227.683 216.45 227.35C216.15 227.017 215.733 226.85 215.2 226.85C214.733 226.85 214.35 227.017 214.05 227.35C213.783 227.717 213.683 228.3 213.75 229.1Z" fill="#FDEB56"/>
<path fill-rule="evenodd" clip-rule="evenodd" d="M224.15 225.15H227.75C228.45 225.15 229.033 225.25 229.5 225.45C229.933 225.65 230.317 225.917 230.65 226.25C230.95 226.617 231.183 227.033 231.35 227.5C231.517 228 231.617 228.517 231.65 229.05C231.717 229.883 231.667 230.533 231.5 231C231.333 231.467 231.1 231.85 230.8 232.15C230.467 232.45 230.117 232.65 229.75 232.75C229.217 232.917 228.733 233 228.3 233H224.7L224.15 225.15ZM226.7 226.9L227 231.2H227.6C228.1 231.2 228.467 231.133 228.7 231C228.9 230.9 229.05 230.717 229.15 230.45C229.25 230.15 229.283 229.683 229.25 229.05C229.183 228.25 229 227.683 228.7 227.35C228.4 227.05 227.933 226.9 227.3 226.9H226.7Z" fill="#FDEB56"/>
<path fill-rule="evenodd" clip-rule="evenodd" d="M237.45 231.7H234.7L234.4 233H231.95L234.3 225.15H236.95L240.45 233H237.95L237.45 231.7ZM236.8 230L235.75 227.2L235.1 230H236.8Z" fill="#FDEB56"/>
<path d="M239.35 225.15H246.75L246.85 227.1H244.4L244.8 233H242.4L242 227.1H239.5L239.35 225.15Z" fill="#FDEB56"/>
<path fill-rule="evenodd" clip-rule="evenodd" d="M252.35 231.7H249.6L249.35 233H246.85L249.25 225.15H251.9L255.4 233H252.85L252.35 231.7ZM251.75 230L250.65 227.2L250 230H251.75Z" fill="#FDEB56"/>
<path d="M324.45 101.65L322.8 101.35C322.8 101.35 323.75 102.55 324.45 101.65Z" fill="#2C2424"/>
<path opacity="0.3" d="M336.05 205.5C340.05 223.05 336.85 250.7 334.7 262.85C332.35 244.4 331.2 220.45 330.6 202.9C332.7 199.5 334.65 199.3 336.05 205.5Z" fill="#4A2954"/>
</svg>
