<svg width="280" height="280" viewBox="0 0 280 280" fill="none" xmlns="http://www.w3.org/2000/svg">
<circle cx="140" cy="140" r="59.5" stroke="white" stroke-opacity="0.15"/>
<circle cx="140" cy="140" r="79.5" stroke="white" stroke-opacity="0.1"/>
<circle cx="140" cy="140" r="99.5" stroke="white" stroke-opacity="0.05"/>
<circle cx="140" cy="140" r="119.5" stroke="white" stroke-opacity="0.02"/>
<circle cx="140" cy="140" r="140" fill="url(#paint0_angular_7343_49416)"/>
<line x1="141.5" y1="140" x2="141.5" y2="280" stroke="url(#paint1_linear_7343_49416)" stroke-width="3"/>
<g opacity="0.2">
<circle cx="92.5" cy="109.5" r="1.5" fill="#FDEB56"/>
<circle cx="71.5" cy="94.5" r="1.5" fill="#FDEB56"/>
<circle cx="163" cy="75" r="3" fill="#FDEB56"/>
<circle cx="92" cy="197" r="3" fill="#FDEB56"/>
<circle cx="130.5" cy="188.5" r="1.5" fill="#FDEB56"/>
<circle cx="146.5" cy="218.5" r="1.5" fill="#FDEB56"/>
<circle cx="101.5" cy="155.5" r="1.5" fill="#FDEB56"/>
<circle cx="192.5" cy="124.5" r="1.5" fill="#FDEB56"/>
<circle cx="227" cy="152" r="2" fill="#FDEB56"/>
<circle cx="193" cy="202" r="2" fill="#FDEB56"/>
<circle cx="143" cy="109" r="2" fill="#FDEB56"/>
<circle cx="53" cy="184" r="1" fill="#FDEB56"/>
<circle cx="56" cy="127" r="1" fill="#FDEB56"/>
<circle cx="167" cy="167" r="1" fill="#FDEB56"/>
<circle cx="140" cy="149" r="1" fill="#FDEB56"/>
<circle cx="109" cy="61" r="1" fill="#FDEB56"/>
</g>
<defs>
<radialGradient id="paint0_angular_7343_49416" cx="0" cy="0" r="1" gradientUnits="userSpaceOnUse" gradientTransform="translate(140 140) rotate(90) scale(140)">
<stop stop-color="#FDEB56" stop-opacity="0.6"/>
<stop offset="0.08" stop-color="#FDEB56" stop-opacity="0.4"/>
<stop offset="0.335" stop-color="#FDEB56" stop-opacity="0.1"/>
<stop offset="0.72" stop-color="#FDEB56" stop-opacity="0"/>
<stop offset="1" stop-color="#FDEB56" stop-opacity="0"/>
</radialGradient>
<linearGradient id="paint1_linear_7343_49416" x1="139.5" y1="280" x2="139.5" y2="140" gradientUnits="userSpaceOnUse">
<stop offset="0.605" stop-color="#FDEB56"/>
<stop offset="0.845" stop-color="#FDEB56" stop-opacity="0.6"/>
</linearGradient>
</defs>
</svg>
