<svg width="18" height="18" viewBox="0 0 18 18" fill="none" xmlns="http://www.w3.org/2000/svg">
<g id="share-01">
<path id="Vector" d="M15.2945 6.02376L13.9843 4.88596C13.0403 4.06615 12.6703 3.62514 12.1591 3.78104C11.5216 3.97544 11.7315 5.20207 11.7315 5.61618C10.7405 5.61618 9.7101 5.53996 8.73323 5.69877C5.5084 6.22307 4.5 8.51745 4.5 10.9894C5.41273 10.4299 6.32456 9.80595 7.42155 9.54668C8.7909 9.22298 10.3202 9.3774 11.7315 9.3774C11.7315 9.79155 11.5216 11.0182 12.1591 11.2126C12.7383 11.3892 13.0403 10.9274 13.9843 10.1077L15.2945 8.96985C16.0982 8.27198 16.5 7.923 16.5 7.49681C16.5 7.07063 16.0982 6.72167 15.2945 6.02376Z" stroke="#D4CFD6" stroke-width="1.2" stroke-linecap="round" stroke-linejoin="round"/>
<path id="Vector_2" d="M7.9257 2.25C5.03051 2.25521 3.51445 2.32614 2.54558 3.29305C1.5 4.33651 1.5 6.01594 1.5 9.37477C1.5 12.7336 1.5 14.413 2.54557 15.4565C3.59116 16.5 5.27398 16.5 8.63962 16.5C12.0053 16.5 13.6882 16.5 14.7338 15.4565C15.4617 14.73 15.6828 13.6952 15.75 12" stroke="#D4CFD6" stroke-width="1.2" stroke-linecap="round" stroke-linejoin="round"/>
</g>
</svg>
