<svg width="60" height="60" viewBox="0 0 60 60" fill="none" xmlns="http://www.w3.org/2000/svg">
<g id="icons8-steam">
<path id="Vector" d="M30.0012 3.59961C16.3092 3.59961 5.05242 14.0165 3.73242 27.3605L17.1621 34.2348C18.5181 33.0948 20.2812 32.3996 22.2012 32.3996H22.2621C22.7301 31.6796 23.2684 30.7786 23.8324 29.8426C25.0084 27.9106 26.3286 25.7265 27.6246 24.0465C27.9126 18.6825 32.3652 14.3996 37.8012 14.3996C43.4292 14.3996 48.0012 18.9716 48.0012 24.5996C48.0012 30.0356 43.7183 34.4882 38.3543 34.7762C36.6743 36.0722 34.5022 37.3926 32.5582 38.5566C31.6222 39.1326 30.7212 39.6707 30.0012 40.1387V40.1996C30.0012 44.5076 26.5092 47.9996 22.2012 47.9996C17.8932 47.9996 14.4012 44.5076 14.4012 40.1996C14.4012 39.9956 14.4126 39.8036 14.4246 39.5996L3.93633 34.223C5.96433 46.799 16.8612 56.3996 30.0012 56.3996C44.5812 56.3996 56.4012 44.5796 56.4012 29.9996C56.4012 15.4196 44.5812 3.59961 30.0012 3.59961ZM37.8012 16.7996C33.5052 16.7996 30.0012 20.3036 30.0012 24.5996C30.0012 28.8956 33.5052 32.3996 37.8012 32.3996C42.0972 32.3996 45.6012 28.8956 45.6012 24.5996C45.6012 20.3036 42.0972 16.7996 37.8012 16.7996ZM37.8012 19.1996C40.7892 19.1996 43.2012 21.6116 43.2012 24.5996C43.2012 27.5876 40.7892 29.9996 37.8012 29.9996C34.8132 29.9996 32.4012 27.5876 32.4012 24.5996C32.4012 21.6116 34.8132 19.1996 37.8012 19.1996ZM22.2012 34.7996C21.2532 34.7996 20.3535 35.04 19.5855 35.484L23.5699 37.523C25.0459 38.279 25.6217 40.0924 24.8777 41.5684C24.3377 42.6004 23.2932 43.1996 22.2012 43.1996C21.7332 43.1996 21.2764 43.0922 20.8324 42.8762L16.8363 40.823C17.1483 43.511 19.4292 45.5996 22.2012 45.5996C25.1892 45.5996 27.6012 43.1876 27.6012 40.1996C27.6012 37.2116 25.1892 34.7996 22.2012 34.7996Z" fill="white"/>
</g>
</svg>
