<svg width="48" height="48" viewBox="0 0 48 48" fill="none" xmlns="http://www.w3.org/2000/svg">
<rect width="48" height="48" rx="8" fill="white" fill-opacity="0.04"/>
<path d="M34.1456 15.1448C33.7856 14.8395 33.2202 14.7958 32.6355 15.0306H32.6346C32.0197 15.2773 15.2293 22.4792 14.5458 22.7734C14.4214 22.8166 13.3357 23.2218 13.4475 24.1242C13.5474 24.9378 14.42 25.2747 14.5266 25.3136L18.7952 26.7752C19.0784 27.7179 20.1224 31.196 20.3533 31.939C20.4973 32.4022 20.732 33.0109 21.1434 33.1362C21.5043 33.2754 21.8634 33.1482 22.0957 32.9658L24.7054 30.5451L28.9184 33.8307L29.0187 33.8907C29.3048 34.0174 29.5789 34.0808 29.8405 34.0808C30.0426 34.0808 30.2365 34.0429 30.4218 33.967C31.053 33.7078 31.3054 33.1064 31.3318 33.0382L34.4787 16.6813C34.6707 15.8077 34.4038 15.3632 34.1456 15.1448ZM22.5598 27.3598L21.1198 31.1998L19.6798 26.3998L30.7198 18.2398L22.5598 27.3598Z" fill="#948798"/>
</svg>
