<svg width="48" height="48" viewBox="0 0 48 48" fill="none" xmlns="http://www.w3.org/2000/svg">
<rect width="48" height="48" rx="8" fill="#EE1D52" fill-opacity="0.15"/>
<rect x="0.5" y="0.5" width="47" height="47" rx="7.5" stroke="#EE1D52" stroke-opacity="0.2"/>
<path d="M15.6843 31.118L15.7483 31.3021C15.7403 31.2821 15.7163 31.218 15.6843 31.118ZM18.2812 26.9205C18.3972 25.9242 18.7894 25.368 19.5256 24.7958C20.582 24.0235 21.8984 24.4597 21.8984 24.4597V21.8628C22.2186 21.8548 22.5387 21.8748 22.8548 21.9228V25.2639C22.8548 25.2639 21.5383 24.8278 20.4819 25.6001C19.7457 26.1723 19.3535 26.7285 19.2375 27.7248C19.2335 28.265 19.3295 28.9732 19.7777 29.5815C19.6657 29.5214 19.5536 29.4534 19.4376 29.3774C18.4572 28.6891 18.2772 27.6528 18.2812 26.9205ZM28.3007 17.0611C27.5764 16.2328 27.3003 15.3925 27.2003 14.8043H28.1126C28.1126 14.8043 27.9326 16.3488 29.257 17.8654L29.277 17.8854C28.9169 17.6533 28.5888 17.3732 28.3007 17.0611ZM32.6982 19.4139V22.687C32.6982 22.687 31.5338 22.639 30.6695 22.4109C29.4651 22.0908 28.6928 21.5987 28.6928 21.5987C28.6928 21.5987 28.1566 21.2465 28.1166 21.2225V27.9849C28.1166 28.361 28.0166 29.3014 27.7165 30.0856C27.3243 31.11 26.7161 31.7862 26.6041 31.9223C26.6041 31.9223 25.8638 32.8346 24.5634 33.4468C23.391 33.999 22.3586 33.987 22.0505 33.999C22.0505 33.999 20.2699 34.071 18.6653 32.9867C18.3172 32.7466 17.9931 32.4745 17.697 32.1744L17.705 32.1824C19.3095 33.2708 21.0902 33.1947 21.0902 33.1947C21.3983 33.1827 22.4306 33.1947 23.603 32.6425C24.9035 32.0303 25.6438 31.118 25.6438 31.118C25.7558 30.982 26.364 30.3057 26.7561 29.2814C27.0563 28.4971 27.1563 27.5568 27.1563 27.1806V20.4223C27.2003 20.4463 27.7325 20.7984 27.7325 20.7984C27.7325 20.7984 28.5048 21.2906 29.7092 21.6107C30.5735 21.8387 31.7379 21.8868 31.7379 21.8868V19.3219C32.138 19.4139 32.4782 19.4379 32.6982 19.4139Z" fill="#EE1D52"/>
<path d="M31.7379 19.3179V21.8828C31.7379 21.8828 30.5735 21.8347 29.7092 21.6067C28.5048 21.2866 27.7325 20.7944 27.7325 20.7944C27.7325 20.7944 27.1963 20.4423 27.1563 20.4182L27.1563 27.1806C27.1563 27.5568 27.0563 28.4971 26.7561 29.2814C26.364 30.3057 25.7558 30.982 25.6438 31.118C25.6438 31.118 24.9035 32.0303 23.603 32.6425C22.4306 33.1947 21.3983 33.1827 21.0902 33.1947C21.0902 33.1947 19.3095 33.2668 17.705 32.1824L17.697 32.1744C17.5289 32.0023 17.3689 31.8222 17.2208 31.6342C16.7086 30.982 16.3965 30.2137 16.3165 29.9936V29.9896C16.1884 29.6095 15.9243 28.6891 15.9604 27.8048C16.0244 26.2403 16.5526 25.276 16.6926 25.0359C17.0607 24.3796 17.5449 23.7914 18.1131 23.2993C18.6173 22.8751 19.1895 22.535 19.8017 22.2989C20.4659 22.0188 21.1782 21.8708 21.8984 21.8588V24.4557C21.8984 24.4557 20.582 24.0195 19.5256 24.7918C18.7893 25.364 18.3972 25.9202 18.2812 26.9165C18.2772 27.6488 18.4572 28.6851 19.4416 29.3774C19.5576 29.4534 19.6697 29.5214 19.7817 29.5815C19.9538 29.8135 20.1618 30.0176 20.4019 30.1857C21.3663 30.8219 22.1705 30.8659 23.2029 30.4538C23.8911 30.1777 24.4073 29.5575 24.6474 28.8652C24.7995 28.4331 24.7955 28.0009 24.7955 27.5528V14.8043H27.1963C27.2963 15.3925 27.5684 16.2328 28.2967 17.0611C28.5888 17.3732 28.9169 17.6533 29.273 17.8854C29.3771 18.0014 29.9172 18.5616 30.6135 18.9097C30.9696 19.0898 31.3498 19.2258 31.7379 19.3179Z" fill="white"/>
<path d="M15.3602 29.2013L15.4202 29.3734C15.4122 29.3534 15.3882 29.2934 15.3602 29.2013Z" fill="#69C9D0"/>
<path d="M19.8017 22.3029C19.1855 22.539 18.6173 22.8791 18.1131 23.3033C17.5409 23.7954 17.0608 24.3876 16.6926 25.0439C16.5526 25.284 16.0244 26.2443 15.9604 27.8128C15.9244 28.7012 16.1924 29.6175 16.3165 29.9976V30.0016C16.3965 30.2177 16.7086 30.99 17.2208 31.6422C17.3689 31.8302 17.5289 32.0103 17.697 32.1824C17.1528 31.8062 16.6726 31.3541 16.2605 30.8379C15.7523 30.1937 15.4402 29.4294 15.3602 29.2053V29.1973C15.2321 28.8172 14.964 27.8969 15.004 27.0086C15.0681 25.444 15.5962 24.4797 15.7363 24.2396C16.1044 23.5834 16.5846 22.9912 17.1568 22.499C17.661 22.0748 18.2332 21.7347 18.8454 21.4986C19.2295 21.3386 19.6297 21.2225 20.0378 21.1465C20.654 21.0385 21.2822 21.0305 21.9024 21.1185V21.8628C21.1782 21.8748 20.4659 22.0228 19.8017 22.3029Z" fill="#69C9D0"/>
<path d="M27.2003 14.8043L24.7995 14.8043V27.5528C24.7995 28.0009 24.7995 28.4331 24.6514 28.8652C24.4073 29.5535 23.8911 30.1777 23.2069 30.4538C22.1745 30.8699 21.3663 30.8219 20.4059 30.1857C20.1658 30.0216 19.9578 29.8175 19.7857 29.5855C20.606 30.0216 21.3383 30.0136 22.2466 29.6495C22.9348 29.3734 23.451 28.7492 23.6911 28.0609C23.8431 27.6288 23.8391 27.1966 23.8391 26.7485V14H27.1563C27.1523 14 27.1163 14.3161 27.2003 14.8043ZM31.7379 18.6096L31.7379 19.3179C31.3498 19.2258 30.9696 19.0898 30.6135 18.9097C29.9213 18.5656 29.3811 18.0014 29.273 17.8854C29.3971 17.9654 29.5211 18.0374 29.6532 18.1054C30.5015 18.5256 31.3298 18.6536 31.7379 18.6096Z" fill="#69C9D0"/>
</svg>
