<svg width="20" height="20" viewBox="0 0 20 20" fill="none" xmlns="http://www.w3.org/2000/svg">
<g id="icons8-twitterx">
<g id="Group 1171275569">
<path id="Vector" d="M16.8056 18.75H3.19444C2.12062 18.75 1.25 17.8794 1.25 16.8056V3.19444C1.25 2.12062 2.12062 1.25 3.19444 1.25H16.8056C17.8794 1.25 18.75 2.12062 18.75 3.19444V16.8056C18.75 17.8794 17.8794 18.75 16.8056 18.75Z" fill="white"/>
<path id="Vector_2" d="M14.985 14.8614H11.8559L5.05469 5.13916H8.18378L14.985 14.8614ZM12.2287 14.0369H13.4746L7.81094 5.9636H6.56503L12.2287 14.0369Z" fill="#3D2644"/>
<path id="Vector_3" d="M6.04586 14.861L9.54732 10.8049L9.0894 10.1978L5.05273 14.861H6.04586Z" fill="#3D2644"/>
<path id="Vector_4" d="M10.2197 8.89194L10.6597 9.51853L14.4421 5.13867H13.4699L10.2197 8.89194Z" fill="#3D2644"/>
</g>
</g>
</svg>
