<svg width="48" height="48" viewBox="0 0 48 48" fill="none" xmlns="http://www.w3.org/2000/svg">
<rect width="48" height="48" rx="8" fill="white" fill-opacity="0.04"/>
<path d="M31.8889 33H17.1111C15.9452 33 15 32.0548 15 30.8889V16.1111C15 14.9452 15.9452 14 17.1111 14H31.8889C33.0548 14 34 14.9452 34 16.1111V30.8889C34 32.0548 33.0548 33 31.8889 33Z" fill="#948798"/>
<path d="M29.9123 28.7777H26.515L19.1309 18.2222H22.5282L29.9123 28.7777ZM26.9198 27.8826H28.2725L22.1234 19.1173H20.7707L26.9198 27.8826Z" fill="white"/>
<path d="M20.2072 28.7778L24.0087 24.374L23.5116 23.7148L19.1289 28.7778H20.2072Z" fill="white"/>
<path d="M24.7383 22.2971L25.2159 22.9774L29.3226 18.2222H28.267L24.7383 22.2971Z" fill="white"/>
</svg>
