<svg width="20" height="20" viewBox="0 0 20 20" fill="none" xmlns="http://www.w3.org/2000/svg">
<path d="M8.33333 5.83325L7.90346 6.99496C7.33978 8.51825 7.05794 9.27992 6.50232 9.83559C5.94669 10.3912 5.18503 10.673 3.66171 11.2368L2.5 11.6666L3.66171 12.0964C5.18503 12.6602 5.94669 12.942 6.50232 13.4976C7.05794 14.0533 7.33978 14.8149 7.90346 16.3382L8.33333 17.4999L8.76317 16.3382C9.32692 14.8149 9.60875 14.0533 10.1643 13.4976C10.72 12.942 11.4817 12.6602 13.0049 12.0964L14.1667 11.6666L13.0049 11.2368C11.4817 10.673 10.72 10.3912 10.1643 9.83559C9.60875 9.27992 9.32692 8.51825 8.76317 6.99496L8.33333 5.83325Z" stroke="#8EC9ED" stroke-width="1.5" stroke-linejoin="round"/>
<path d="M15 2.5L14.8158 2.99788C14.5742 3.65073 14.4534 3.97716 14.2152 4.21528C13.9772 4.4534 13.6507 4.57419 12.9979 4.81577L12.5 5L12.9979 5.18423C13.6507 5.42581 13.9772 5.5466 14.2152 5.78472C14.4534 6.02284 14.5742 6.34927 14.8158 7.00212L15 7.5L15.1842 7.00212C15.4258 6.34927 15.5466 6.02284 15.7847 5.78472C16.0228 5.5466 16.3493 5.42581 17.0021 5.18423L17.5 5L17.0021 4.81577C16.3493 4.57419 16.0228 4.4534 15.7847 4.21528C15.5466 3.97716 15.4258 3.65073 15.1842 2.99788L15 2.5Z" stroke="#8EC9ED" stroke-width="1.5" stroke-linejoin="round"/>
</svg>
