<svg width="24" height="24" viewBox="0 0 24 24" fill="none" xmlns="http://www.w3.org/2000/svg">
<rect width="24" height="24" rx="4" fill="url(#paint0_linear_2399_1900)"/>
<path d="M9.44999 17.5499C9.34999 17.5499 9.25832 17.5332 9.17499 17.4999C9.09165 17.4666 9.00832 17.4082 8.92499 17.3249L4.39999 12.7999C4.24999 12.6499 4.17499 12.4666 4.17499 12.2499C4.17499 12.0332 4.24999 11.8499 4.39999 11.6999C4.54999 11.5499 4.72499 11.4749 4.92499 11.4749C5.12499 11.4749 5.29999 11.5499 5.44999 11.6999L9.44999 15.6999L18.525 6.6249C18.675 6.4749 18.8542 6.3999 19.0625 6.3999C19.2708 6.3999 19.45 6.4749 19.6 6.6249C19.75 6.7749 19.825 6.95407 19.825 7.1624C19.825 7.37074 19.75 7.5499 19.6 7.6999L9.97499 17.3249C9.89165 17.4082 9.80832 17.4666 9.72499 17.4999C9.64165 17.5332 9.54999 17.5499 9.44999 17.5499Z" fill="#2A0D32"/>
<defs>
<linearGradient id="paint0_linear_2399_1900" x1="0" y1="0" x2="25.928" y2="2.3041" gradientUnits="userSpaceOnUse">
<stop stop-color="#F71756"/>
<stop offset="1" stop-color="#FDEB56"/>
</linearGradient>
</defs>
</svg>
