<svg width="140" height="140" viewBox="0 0 140 140" fill="none" xmlns="http://www.w3.org/2000/svg">
<path d="M61.8239 80.4971L49.2822 67.9555C48.2128 66.886 46.8517 66.3513 45.1989 66.3513C43.5461 66.3513 42.185 66.886 41.1156 67.9555C40.0461 69.0249 39.5114 70.386 39.5114 72.0388C39.5114 73.6916 40.0461 75.0527 41.1156 76.1221L57.7406 92.7471C58.9072 93.9138 60.2683 94.4971 61.8239 94.4971C63.3794 94.4971 64.7406 93.9138 65.9072 92.7471L98.8656 59.7888C99.935 58.7194 100.47 57.3583 100.47 55.7055C100.47 54.0527 99.935 52.6916 98.8656 51.6222C97.7961 50.5527 96.435 50.018 94.7822 50.018C93.1294 50.018 91.7683 50.5527 90.6989 51.6222L61.8239 80.4971ZM69.9906 128.33C61.9211 128.33 54.3378 126.799 47.2406 123.737C40.1433 120.674 33.9697 116.518 28.7197 111.268C23.4697 106.018 19.3135 99.8444 16.251 92.7471C13.1885 85.6499 11.6572 78.0666 11.6572 69.9972C11.6572 61.9277 13.1885 54.3444 16.251 47.2472C19.3135 40.1499 23.4697 33.9763 28.7197 28.7263C33.9697 23.4763 40.1433 19.3201 47.2406 16.2576C54.3378 13.1951 61.9211 11.6638 69.9906 11.6638C78.06 11.6638 85.6433 13.1951 92.7406 16.2576C99.8378 19.3201 106.011 23.4763 111.261 28.7263C116.511 33.9763 120.668 40.1499 123.73 47.2472C126.793 54.3444 128.324 61.9277 128.324 69.9972C128.324 78.0666 126.793 85.6499 123.73 92.7471C120.668 99.8444 116.511 106.018 111.261 111.268C106.011 116.518 99.8378 120.674 92.7406 123.737C85.6433 126.799 78.06 128.33 69.9906 128.33Z" fill="#1FD031"/>
</svg>
