<svg width="470" height="140" viewBox="0 0 470 140" fill="none" xmlns="http://www.w3.org/2000/svg">
<rect width="470" height="140" rx="10" fill="white" fill-opacity="0.1"/>
<rect x="0.5" y="0.5" width="469" height="139" rx="9.5" stroke="white" stroke-opacity="0.1"/>
<path d="M185.5 71.3333L185.656 71.775C186.263 73.4941 186.566 74.3537 187.258 74.8435C187.951 75.3333 188.862 75.3333 190.685 75.3333H192.315C194.138 75.3333 195.049 75.3333 195.742 74.8435C196.434 74.3537 196.737 73.4941 197.344 71.775L197.5 71.3333" stroke="white" stroke-opacity="0.3" stroke-width="1.5" stroke-linecap="round"/>
<path d="M191.501 64.6667V71.3334M191.501 64.6667C191.034 64.6667 190.162 65.9963 189.834 66.3334M191.501 64.6667C191.967 64.6667 192.84 65.9963 193.167 66.3334" stroke="white" stroke-opacity="0.3" stroke-width="1.5" stroke-linecap="round" stroke-linejoin="round"/>
<path d="M213.302 73.682C211.827 73.682 210.604 73.1967 209.634 72.226C208.663 71.246 208.178 70.0373 208.178 68.6C208.178 67.1627 208.663 65.9587 209.634 64.988C210.604 64.008 211.827 63.518 213.302 63.518C214.188 63.518 215.005 63.728 215.752 64.148C216.508 64.568 217.096 65.1373 217.516 65.856L216.116 66.668C215.854 66.1827 215.472 65.8 214.968 65.52C214.473 65.2307 213.918 65.086 213.302 65.086C212.256 65.086 211.407 65.4173 210.754 66.08C210.11 66.7427 209.788 67.5827 209.788 68.6C209.788 69.6173 210.11 70.4573 210.754 71.12C211.407 71.7827 212.256 72.114 213.302 72.114C213.918 72.114 214.478 71.974 214.982 71.694C215.486 71.4047 215.864 71.0173 216.116 70.532L217.516 71.33C217.105 72.0487 216.522 72.6227 215.766 73.052C215.019 73.472 214.198 73.682 213.302 73.682ZM222.045 73.682C221.019 73.682 220.146 73.3273 219.427 72.618C218.709 71.9087 218.349 71.036 218.349 70C218.349 68.964 218.709 68.0913 219.427 67.382C220.146 66.6727 221.019 66.318 222.045 66.318C223.081 66.318 223.954 66.6727 224.663 67.382C225.382 68.0913 225.741 68.964 225.741 70C225.741 71.036 225.382 71.9087 224.663 72.618C223.954 73.3273 223.081 73.682 222.045 73.682ZM220.491 71.582C220.911 72.002 221.429 72.212 222.045 72.212C222.661 72.212 223.179 72.002 223.599 71.582C224.019 71.162 224.229 70.6347 224.229 70C224.229 69.3653 224.019 68.838 223.599 68.418C223.179 67.998 222.661 67.788 222.045 67.788C221.429 67.788 220.911 67.998 220.491 68.418C220.071 68.838 219.861 69.3653 219.861 70C219.861 70.6347 220.071 71.162 220.491 71.582ZM231.581 66.5H233.233L230.503 73.5H228.753L226.023 66.5H227.675L229.635 71.82L231.581 66.5ZM235.107 70.644C235.219 71.176 235.476 71.5867 235.877 71.876C236.278 72.156 236.768 72.296 237.347 72.296C238.15 72.296 238.752 72.0067 239.153 71.428L240.399 72.156C239.708 73.1733 238.686 73.682 237.333 73.682C236.194 73.682 235.275 73.3367 234.575 72.646C233.875 71.946 233.525 71.064 233.525 70C233.525 68.9547 233.87 68.082 234.561 67.382C235.252 66.6727 236.138 66.318 237.221 66.318C238.248 66.318 239.088 66.6773 239.741 67.396C240.404 68.1147 240.735 68.9873 240.735 70.014C240.735 70.1727 240.716 70.3827 240.679 70.644H235.107ZM235.093 69.412H239.209C239.106 68.8427 238.868 68.4133 238.495 68.124C238.131 67.8347 237.702 67.69 237.207 67.69C236.647 67.69 236.18 67.844 235.807 68.152C235.434 68.46 235.196 68.88 235.093 69.412ZM243.578 67.676C243.96 66.808 244.679 66.374 245.734 66.374V68.012C245.155 67.9747 244.651 68.1147 244.222 68.432C243.792 68.74 243.578 69.2533 243.578 69.972V73.5H242.066V66.5H243.578V67.676ZM254.061 63.7C254.985 63.7 255.755 64.008 256.371 64.624C256.996 65.24 257.309 66.0053 257.309 66.92C257.309 67.8253 256.996 68.5907 256.371 69.216C255.755 69.832 254.985 70.14 254.061 70.14H252.059V73.5H250.449V63.7H254.061ZM254.061 68.628C254.537 68.628 254.929 68.4693 255.237 68.152C255.545 67.8253 255.699 67.4147 255.699 66.92C255.699 66.4253 255.545 66.0193 255.237 65.702C254.929 65.3753 254.537 65.212 254.061 65.212H252.059V68.628H254.061ZM262.291 66.318C263.093 66.318 263.742 66.5747 264.237 67.088C264.731 67.6013 264.979 68.306 264.979 69.202V73.5H263.467V69.356C263.467 68.8333 263.327 68.432 263.047 68.152C262.767 67.872 262.384 67.732 261.899 67.732C261.367 67.732 260.937 67.9 260.611 68.236C260.284 68.5627 260.121 69.0667 260.121 69.748V73.5H258.609V63.7H260.121V67.396C260.578 66.6773 261.301 66.318 262.291 66.318ZM269.911 73.682C268.884 73.682 268.011 73.3273 267.293 72.618C266.574 71.9087 266.215 71.036 266.215 70C266.215 68.964 266.574 68.0913 267.293 67.382C268.011 66.6727 268.884 66.318 269.911 66.318C270.947 66.318 271.819 66.6727 272.529 67.382C273.247 68.0913 273.607 68.964 273.607 70C273.607 71.036 273.247 71.9087 272.529 72.618C271.819 73.3273 270.947 73.682 269.911 73.682ZM268.357 71.582C268.777 72.002 269.295 72.212 269.911 72.212C270.527 72.212 271.045 72.002 271.465 71.582C271.885 71.162 272.095 70.6347 272.095 70C272.095 69.3653 271.885 68.838 271.465 68.418C271.045 67.998 270.527 67.788 269.911 67.788C269.295 67.788 268.777 67.998 268.357 68.418C267.937 68.838 267.727 69.3653 267.727 70C267.727 70.6347 267.937 71.162 268.357 71.582ZM278.743 67.956H277.007V71.316C277.007 71.6053 277.072 71.8153 277.203 71.946C277.334 72.0673 277.525 72.1373 277.777 72.156C278.038 72.1653 278.36 72.1607 278.743 72.142V73.5C277.586 73.64 276.755 73.542 276.251 73.206C275.747 72.8607 275.495 72.2307 275.495 71.316V67.956H274.207V66.5H275.495V64.988L277.007 64.54V66.5H278.743V67.956ZM283.131 73.682C282.105 73.682 281.232 73.3273 280.513 72.618C279.795 71.9087 279.435 71.036 279.435 70C279.435 68.964 279.795 68.0913 280.513 67.382C281.232 66.6727 282.105 66.318 283.131 66.318C284.167 66.318 285.04 66.6727 285.749 67.382C286.468 68.0913 286.827 68.964 286.827 70C286.827 71.036 286.468 71.9087 285.749 72.618C285.04 73.3273 284.167 73.682 283.131 73.682ZM281.577 71.582C281.997 72.002 282.515 72.212 283.131 72.212C283.747 72.212 284.265 72.002 284.685 71.582C285.105 71.162 285.315 70.6347 285.315 70C285.315 69.3653 285.105 68.838 284.685 68.418C284.265 67.998 283.747 67.788 283.131 67.788C282.515 67.788 281.997 67.998 281.577 68.418C281.157 68.838 280.947 69.3653 280.947 70C280.947 70.6347 281.157 71.162 281.577 71.582Z" fill="white" fill-opacity="0.3"/>
</svg>
