<svg width="29" height="26" viewBox="0 0 29 26" fill="none" xmlns="http://www.w3.org/2000/svg">
<g clip-path="url(#clip0_5381_6046)">
<path d="M27.0806 0.0275879L16.1763 8.12605L18.1932 3.34791L27.0806 0.0275879Z" fill="#E2761B" stroke="#E2761B" stroke-width="0.0551366" stroke-linecap="round" stroke-linejoin="round"/>
<path d="M1.9082 0.0275879L12.7249 8.20269L10.8067 3.34791L1.9082 0.0275879Z" fill="#E4761B" stroke="#E4761B" stroke-width="0.0551366" stroke-linecap="round" stroke-linejoin="round"/>
<path d="M23.1575 18.7998L20.2534 23.2493L26.4673 24.9586L28.2537 18.8985L23.1575 18.7998Z" fill="#E4761B" stroke="#E4761B" stroke-width="0.0551366" stroke-linecap="round" stroke-linejoin="round"/>
<path d="M0.757324 18.8985L2.53272 24.9586L8.74661 23.2493L5.84257 18.7998L0.757324 18.8985Z" fill="#E4761B" stroke="#E4761B" stroke-width="0.0551366" stroke-linecap="round" stroke-linejoin="round"/>
<path d="M8.3959 11.282L6.66406 13.9016L12.8338 14.1756L12.615 7.54541L8.3959 11.282Z" fill="#E4761B" stroke="#E4761B" stroke-width="0.0551366" stroke-linecap="round" stroke-linejoin="round"/>
<path d="M20.5927 11.282L16.3191 7.46875L16.1763 14.1756L22.3356 13.9015L20.5927 11.282Z" fill="#E4761B" stroke="#E4761B" stroke-width="0.0551366" stroke-linecap="round" stroke-linejoin="round"/>
<path d="M8.74658 23.2494L12.4507 21.4409L9.25053 18.9421L8.74658 23.2494Z" fill="#E4761B" stroke="#E4761B" stroke-width="0.0551366" stroke-linecap="round" stroke-linejoin="round"/>
<path d="M16.5381 21.4409L20.2532 23.2494L19.7382 18.9421L16.5381 21.4409Z" fill="#E4761B" stroke="#E4761B" stroke-width="0.0551366" stroke-linecap="round" stroke-linejoin="round"/>
<path d="M20.2532 23.2494L16.5381 21.4409L16.8342 23.8631L16.8011 24.882L20.2532 23.2494Z" fill="#D7C1B3" stroke="#D7C1B3" stroke-width="0.0551366" stroke-linecap="round" stroke-linejoin="round"/>
<path d="M8.74658 23.2494L12.1987 24.882L12.1766 23.8631L12.4507 21.4409L8.74658 23.2494Z" fill="#D7C1B3" stroke="#D7C1B3" stroke-width="0.0551366" stroke-linecap="round" stroke-linejoin="round"/>
<path d="M12.2535 17.3427L9.16309 16.433L11.3437 15.4355L12.2535 17.3427Z" fill="#233447" stroke="#233447" stroke-width="0.0551366" stroke-linecap="round" stroke-linejoin="round"/>
<path d="M16.7354 17.3427L17.6451 15.4355L19.8368 16.433L16.7354 17.3427Z" fill="#233447" stroke="#233447" stroke-width="0.0551366" stroke-linecap="round" stroke-linejoin="round"/>
<path d="M8.74682 23.2493L9.27282 18.7998L5.84277 18.8985L8.74682 23.2493Z" fill="#CD6116" stroke="#CD6116" stroke-width="0.0551366" stroke-linecap="round" stroke-linejoin="round"/>
<path d="M19.7271 18.7998L20.2531 23.2493L23.1571 18.8985L19.7271 18.7998Z" fill="#CD6116" stroke="#CD6116" stroke-width="0.0551366" stroke-linecap="round" stroke-linejoin="round"/>
<path d="M22.3356 13.9016L16.1763 14.1756L16.7464 17.3427L17.6561 15.4355L19.8478 16.4329L22.3356 13.9016Z" fill="#CD6116" stroke="#CD6116" stroke-width="0.0551366" stroke-linecap="round" stroke-linejoin="round"/>
<path d="M9.16285 16.4329L11.3545 15.4355L12.2533 17.3427L12.8338 14.1756L6.66406 13.9016L9.16285 16.4329Z" fill="#CD6116" stroke="#CD6116" stroke-width="0.0551366" stroke-linecap="round" stroke-linejoin="round"/>
<path d="M6.66406 13.9016L9.25052 18.9422L9.16285 16.4329L6.66406 13.9016Z" fill="#E4751F" stroke="#E4751F" stroke-width="0.0551366" stroke-linecap="round" stroke-linejoin="round"/>
<path d="M19.848 16.4329L19.7383 18.9422L22.3358 13.9016L19.848 16.4329Z" fill="#E4751F" stroke="#E4751F" stroke-width="0.0551366" stroke-linecap="round" stroke-linejoin="round"/>
<path d="M12.834 14.1755L12.2534 17.3426L12.9768 21.0792L13.1411 16.1588L12.834 14.1755Z" fill="#E4751F" stroke="#E4751F" stroke-width="0.0551366" stroke-linecap="round" stroke-linejoin="round"/>
<path d="M16.1764 14.1755L15.8809 16.1478L16.0121 21.0792L16.7465 17.3426L16.1764 14.1755Z" fill="#E4751F" stroke="#E4751F" stroke-width="0.0551366" stroke-linecap="round" stroke-linejoin="round"/>
<path d="M16.7466 17.3426L16.0122 21.0792L16.5382 21.4409L19.7383 18.9421L19.8481 16.4329L16.7466 17.3426Z" fill="#F6851B" stroke="#F6851B" stroke-width="0.0551366" stroke-linecap="round" stroke-linejoin="round"/>
<path d="M9.16309 16.4329L9.25075 18.9421L12.4509 21.4409L12.9769 21.0792L12.2535 17.3426L9.16309 16.4329Z" fill="#F6851B" stroke="#F6851B" stroke-width="0.0551366" stroke-linecap="round" stroke-linejoin="round"/>
<path d="M16.8009 24.8821L16.834 23.8632L16.56 23.6217H12.4286L12.1766 23.8632L12.1987 24.8821L8.74658 23.2495L9.95187 24.2354L12.3955 25.9341H16.5931L19.0477 24.2354L20.253 23.2495L16.8009 24.8821Z" fill="#C0AD9E" stroke="#C0AD9E" stroke-width="0.0551366" stroke-linecap="round" stroke-linejoin="round"/>
<path d="M16.5381 21.441L16.0121 21.0793H12.9768L12.4508 21.441L12.1768 23.8632L12.4287 23.6217H16.5601L16.8341 23.8632L16.5381 21.441Z" fill="#161616" stroke="#161616" stroke-width="0.0551366" stroke-linecap="round" stroke-linejoin="round"/>
<path d="M27.5411 8.65205L28.4724 4.18103L27.0807 0.0275879L16.5381 7.85202L20.5928 11.2821L26.3243 12.9588L27.5957 11.4795L27.0477 11.0852L27.9243 10.2852L27.2451 9.75919L28.1217 9.09038L27.5411 8.65205Z" fill="#763D16" stroke="#763D16" stroke-width="0.0551366" stroke-linecap="round" stroke-linejoin="round"/>
<path d="M0.527344 4.18103L1.4586 8.65205L0.866985 9.09038L1.74366 9.75919L1.0754 10.2852L1.95207 11.0852L1.40402 11.4795L2.66444 12.9588L8.39588 11.2821L12.4506 7.85202L1.90796 0.0275879L0.527344 4.18103Z" fill="#763D16" stroke="#763D16" stroke-width="0.0551366" stroke-linecap="round" stroke-linejoin="round"/>
<path d="M26.3243 12.9587L20.5929 11.282L22.3358 13.9015L19.7383 18.9421L23.1573 18.8985H28.2536L26.3243 12.9587Z" fill="#F6851B" stroke="#F6851B" stroke-width="0.0551366" stroke-linecap="round" stroke-linejoin="round"/>
<path d="M8.39594 11.282L2.6645 12.9587L0.757324 18.8985H5.84257L9.25056 18.9421L6.6641 13.9015L8.39594 11.282Z" fill="#F6851B" stroke="#F6851B" stroke-width="0.0551366" stroke-linecap="round" stroke-linejoin="round"/>
<path d="M16.1764 14.1756L16.5381 7.85201L18.2043 3.3479H10.8066L12.4508 7.85201L12.834 14.1756L12.9658 16.1699L12.9768 21.0793H16.0121L16.0341 16.1699L16.1764 14.1756Z" fill="#F6851B" stroke="#F6851B" stroke-width="0.0551366" stroke-linecap="round" stroke-linejoin="round"/>
</g>
<defs>
<clipPath id="clip0_5381_6046">
<rect width="28" height="25.9616" fill="white" transform="translate(0.5)"/>
</clipPath>
</defs>
</svg>
