<svg width="20" height="20" viewBox="0 0 20 20" fill="none" xmlns="http://www.w3.org/2000/svg">
<path d="M10.0013 15.8327C9.78029 15.8327 9.56833 15.7449 9.41205 15.5886C9.25577 15.4323 9.16797 15.2204 9.16797 14.9993V4.99935C9.16797 4.77834 9.25577 4.56637 9.41205 4.41009C9.56833 4.25381 9.78029 4.16602 10.0013 4.16602C10.2223 4.16602 10.4343 4.25381 10.5906 4.41009C10.7468 4.56637 10.8346 4.77834 10.8346 4.99935V14.9993C10.8346 15.2204 10.7468 15.4323 10.5906 15.5886C10.4343 15.7449 10.2223 15.8327 10.0013 15.8327Z" fill="white" fill-opacity="0.4"/>
<path d="M5.0013 10.8327C4.78029 10.8327 4.56833 10.7449 4.41205 10.5886C4.25577 10.4323 4.16797 10.2204 4.16797 9.99935C4.16797 9.77834 4.25577 9.56637 4.41205 9.41009C4.56833 9.25381 4.78029 9.16602 5.0013 9.16602H15.0013C15.2223 9.16602 15.4343 9.25381 15.5906 9.41009C15.7468 9.56637 15.8346 9.77834 15.8346 9.99935C15.8346 10.2204 15.7468 10.4323 15.5906 10.5886C15.4343 10.7449 15.2223 10.8327 15.0013 10.8327H5.0013Z" fill="white" fill-opacity="0.4"/>
</svg>
