<svg width="29" height="28" viewBox="0 0 29 28" fill="none" xmlns="http://www.w3.org/2000/svg">
<path d="M6.66023 2.23999C4.49527 2.23999 2.74023 3.99503 2.74023 6.15999V21.84C2.74023 24.0049 4.49527 25.76 6.66023 25.76H22.3402C24.5052 25.76 26.2602 24.0049 26.2602 21.84V6.15999C26.2602 3.99503 24.5052 2.23999 22.3402 2.23999H6.66023ZM7.82836 7.27999H12.2734L15.4299 11.7655L19.2602 7.27999H20.6602L16.0621 12.6634L21.7321 20.72H17.2882L13.6252 15.5159L9.18023 20.72H7.78023L12.993 14.618L7.82836 7.27999ZM9.97211 8.39999L17.8723 19.6H19.5884L11.6882 8.39999H9.97211Z" fill="white"/>
</svg>
