<svg width="40" height="40" viewBox="0 0 40 40" fill="none" xmlns="http://www.w3.org/2000/svg">
<g clip-path="url(#clip0_5729_10996)">
<path fill-rule="evenodd" clip-rule="evenodd" d="M0 0H40V40H0V0Z" fill="white"/>
<path fill-rule="evenodd" clip-rule="evenodd" d="M3.14453 33.1744H8.56812L9.99479 29.8912L15.5607 30.0342L17.1296 33.3159H22.554L12.8496 6.34253L3.14453 33.1744ZM11.4229 24.8974C11.4229 24.8974 12.5658 19.9008 12.7058 20.3299C12.8489 20.7575 13.991 24.7522 13.991 24.7522L11.4229 24.8974ZM25.9802 23.8977C25.9802 16.9036 33.688 20.3306 33.688 20.3306L36.8274 16.7613C34.1156 14.1911 29.9764 14.3356 29.9764 14.3356C27.836 14.3356 21.6987 15.0486 20.842 24.4683C24.2689 39.4547 36.9704 31.4631 36.9704 31.4631L33.8303 27.8953C33.8303 27.8938 25.9802 30.8902 25.9802 23.8977Z" fill="black"/>
<path fill-rule="evenodd" clip-rule="evenodd" d="M92.777 12.9081L90.4928 8.33981H65.3737L60.2362 21.9003L54.3843 8.19751H28.8368L26.125 12.9081H37.6844V33.1743H43.108V12.9081H50.5296L60.0932 37.1697L69.5129 12.9081H92.777Z" fill="black"/>
</g>
<defs>
<clipPath id="clip0_5729_10996">
<rect width="40" height="40" rx="20" fill="white"/>
</clipPath>
</defs>
</svg>
