<svg width="32" height="32" viewBox="0 0 32 32" fill="none" xmlns="http://www.w3.org/2000/svg">
<rect width="32" height="32" rx="16" fill="#36233A"/>
<rect x="1" y="1" width="30" height="30" rx="15" stroke="white" stroke-opacity="0.05" stroke-width="2"/>
<path d="M20.9997 20.9301C20.8123 21.1163 20.5589 21.2209 20.2947 21.2209C20.0305 21.2209 19.7771 21.1163 19.5897 20.9301L11.0497 12.4901C10.956 12.3971 10.8816 12.2865 10.8308 12.1647C10.78 12.0428 10.7539 11.9121 10.7539 11.7801C10.7539 11.6481 10.78 11.5174 10.8308 11.3955C10.8816 11.2737 10.956 11.1631 11.0497 11.0701C11.2371 10.8838 11.4905 10.7793 11.7547 10.7793C12.0189 10.7793 12.2723 10.8838 12.4597 11.0701L20.9997 19.5101C21.0934 19.6031 21.1678 19.7137 21.2186 19.8355C21.2694 19.9574 21.2955 20.0881 21.2955 20.2201C21.2955 20.3521 21.2694 20.4828 21.2186 20.6047C21.1678 20.7265 21.0934 20.8371 20.9997 20.9301Z" fill="white" fill-opacity="0.5"/>
<path d="M12.4604 21.0002C12.2695 21.1938 12.0094 21.3036 11.7375 21.3055C11.4656 21.3073 11.204 21.2011 11.0104 21.0102C10.8168 20.8192 10.707 20.5592 10.7051 20.2872C10.7032 20.0153 10.8095 19.7538 11.0004 19.5602L19.5404 11.0002C19.7314 10.8065 19.9914 10.6967 20.2633 10.6948C20.5353 10.693 20.7968 10.7992 20.9904 10.9902C21.184 11.1811 21.2938 11.4412 21.2957 11.7131C21.2976 11.985 21.1914 12.2465 21.0004 12.4402L12.4604 21.0002Z" fill="white" fill-opacity="0.5"/>
</svg>
