<svg width="40" height="40" viewBox="0 0 40 40" fill="none" xmlns="http://www.w3.org/2000/svg">
<rect width="40" height="40" rx="4" fill="#331A3B"/>
<rect x="0.5" y="0.5" width="39" height="39" rx="3.5" stroke="white" stroke-opacity="0.05"/>
<path d="M20.0002 21.46C20.7402 21.46 21.3402 20.8601 21.3402 20.12C21.3402 19.38 20.7402 18.78 20.0002 18.78C19.2601 18.78 18.6602 19.38 18.6602 20.12C18.6602 20.8601 19.2601 21.46 20.0002 21.46Z" fill="white" fill-opacity="0.9"/>
<path d="M20.0002 16.44C20.7402 16.44 21.3402 15.8401 21.3402 15.1C21.3402 14.3599 20.7402 13.76 20.0002 13.76C19.2601 13.76 18.6602 14.3599 18.6602 15.1C18.6602 15.8401 19.2601 16.44 20.0002 16.44Z" fill="white" fill-opacity="0.9"/>
<path d="M20.0002 26.47C20.7402 26.47 21.3402 25.8701 21.3402 25.13C21.3402 24.39 20.7402 23.79 20.0002 23.79C19.2601 23.79 18.6602 24.39 18.6602 25.13C18.6602 25.8701 19.2601 26.47 20.0002 26.47Z" fill="white" fill-opacity="0.9"/>
</svg>
