<svg width="40" height="40" viewBox="0 0 40 40" fill="none" xmlns="http://www.w3.org/2000/svg">
<path d="M33.3346 10.0001C33.3346 10.0001 29.5138 7.01008 25.0013 6.66675L24.5946 7.48008C28.6746 8.47841 30.5463 9.90925 32.5013 11.6667C29.1305 9.94591 25.8021 8.33341 20.0013 8.33341C14.2005 8.33341 10.8721 9.94591 7.5013 11.6667C9.4563 9.90925 11.683 8.32091 15.408 7.48008L15.0013 6.66675C10.2671 7.11425 6.66797 10.0001 6.66797 10.0001C6.66797 10.0001 2.40047 16.1876 1.66797 28.3334C5.96964 33.2942 12.5013 33.3334 12.5013 33.3334L13.8671 31.5126C11.5488 30.7067 8.93047 29.2676 6.66797 26.6667C9.3663 28.7084 13.4388 30.8334 20.0013 30.8334C26.5638 30.8334 30.6363 28.7084 33.3346 26.6667C31.0721 29.2676 28.4538 30.7067 26.1355 31.5126L27.5013 33.3334C27.5013 33.3334 34.033 33.2942 38.3346 28.3334C37.6021 16.1876 33.3346 10.0001 33.3346 10.0001ZM14.5846 25.0001C12.9738 25.0001 11.668 23.5076 11.668 21.6667C11.668 19.8259 12.9738 18.3334 14.5846 18.3334C16.1955 18.3334 17.5013 19.8259 17.5013 21.6667C17.5013 23.5076 16.1955 25.0001 14.5846 25.0001ZM25.418 25.0001C23.8071 25.0001 22.5013 23.5076 22.5013 21.6667C22.5013 19.8259 23.8071 18.3334 25.418 18.3334C27.0288 18.3334 28.3346 19.8259 28.3346 21.6667C28.3346 23.5076 27.0288 25.0001 25.418 25.0001Z" fill="#8C9EFF"/>
</svg>
