<svg width="40" height="40" viewBox="0 0 40 40" fill="none" xmlns="http://www.w3.org/2000/svg">
<g clip-path="url(#clip0_5729_21929)">
<path d="M20.0009 0C8.9716 0 0 8.97112 0 20.0017C0 31.0269 8.9716 40 20.0009 40C31.0265 40 40 31.0269 40 20.0017C40 8.97112 31.0265 0 20.0009 0ZM20.0021 2.77557C29.5164 2.77557 37.2278 10.4868 37.2278 20.0007C37.2278 29.5146 29.5164 37.2258 20.0021 37.2258C10.4878 37.2258 2.77622 29.5146 2.77622 20.0007C2.77622 10.4868 10.4878 2.77557 20.0021 2.77557Z" fill="white"/>
<path d="M18.5214 19.2596H11.5309L13.1333 16.7541H17.4762L19.0622 14.2578H9.37312L7.79439 16.7541H10.1197L6.95312 21.7578H19.969L24.9128 13.9082L26.7009 16.7505H25.1586L23.5817 19.2596H28.2851L29.8675 21.7578H32.8684L24.9128 9.16309L18.5214 19.2596ZM12.5269 9.25595L10.9537 11.7523L21.2309 11.7487L22.806 9.25594L12.5269 9.25595Z" fill="white"/>
<path d="M33.1523 23.2175V23.3068H33.3581V23.7437H33.4601V23.3068H33.6658V23.2175H33.1523Z" fill="white"/>
<path d="M34.2823 23.2175L34.0801 23.5307L33.8744 23.2175H33.7852V23.7419H33.8744V23.4178L33.8653 23.3614L33.8962 23.4142L34.0638 23.6782H34.082L34.2495 23.4178L34.2732 23.3614V23.4178V23.7419H34.3642V23.2175H34.2823Z" fill="white"/>
<path d="M10.4416 27.2913C10.4416 27.61 10.3305 27.8867 10.1102 28.1089C9.8862 28.331 9.61306 28.4439 9.29623 28.4439H7.94693C7.62281 28.4439 7.35149 28.3347 7.1348 28.1198C6.92175 27.905 6.8125 27.6391 6.8125 27.3114V26.776H7.64466L7.77212 27.2713C7.82675 27.4789 7.96696 27.5827 8.19457 27.5827H9.11231C9.22885 27.5827 9.3199 27.539 9.39273 27.4588C9.46193 27.3733 9.49653 27.264 9.49653 27.1384V26.5484C9.49653 26.2607 9.37088 26.1114 9.11231 26.1114H7.95785C7.64466 26.1114 7.37516 26.0022 7.14755 25.7819C6.92722 25.5524 6.8125 25.2793 6.8125 24.9588V24.1832C6.8125 23.8718 6.92722 23.6023 7.14755 23.3765C7.37516 23.1508 7.64466 23.0415 7.95785 23.0415H9.29623C9.61306 23.0415 9.88256 23.1489 10.1011 23.3602C10.3214 23.575 10.4252 23.8445 10.4252 24.1686V24.6529H9.5985L9.47467 24.2141C9.40912 24.0029 9.26527 23.9009 9.05404 23.9009H8.15087C8.03069 23.9009 7.93782 23.9446 7.86681 24.0302C7.79397 24.1122 7.7612 24.2178 7.7612 24.3489V24.8041C7.7612 25.0863 7.89048 25.2283 8.15087 25.2283H9.29623C9.60942 25.2283 9.88256 25.3412 10.1029 25.5706C10.3305 25.7982 10.4416 26.0641 10.4416 26.3773V27.2913Z" fill="white"/>
<path d="M15.1585 25.3144C15.1585 25.6294 15.042 25.9007 14.818 26.1247C14.5904 26.3504 14.3155 26.4633 14.0004 26.4633H12.5146V28.4444H11.5586V23.042H14.0004C14.3155 23.042 14.5904 23.1549 14.818 23.377C15.042 23.5992 15.1585 23.8687 15.1585 24.18V25.3144ZM13.8129 23.9142H12.5146V25.5893H13.8129L14.0897 25.4637C14.1607 25.3799 14.1953 25.2762 14.1953 25.1432V24.3566C14.1953 24.2255 14.1607 24.1254 14.0897 24.0398L13.8129 23.9142Z" fill="white"/>
<path d="M23.6368 28.4447L22.7591 26.3325H21.8523V28.4447H20.8945V23.0422H23.2854C23.6059 23.0422 23.8754 23.1551 24.0975 23.3754C24.3197 23.6012 24.4344 23.8725 24.4344 24.1803V25.1216C24.4344 25.3674 24.3652 25.5896 24.2323 25.7844C24.0921 25.9811 23.9172 26.1213 23.7024 26.2105L24.6529 28.4447H23.6368ZM23.1051 23.9144H21.8523V25.4585H23.1051L23.3692 25.3383C23.442 25.2564 23.4748 25.1526 23.4748 25.0215V24.3551C23.4748 24.2294 23.442 24.1256 23.3692 24.0382L23.1051 23.9144Z" fill="white"/>
<path d="M28.7516 23.9133H27.3659V28.4436H26.4118V23.9133H25.0352V23.043H28.7516V23.9133Z" fill="white"/>
<path d="M33.0799 27.2913C33.0799 27.61 32.967 27.8867 32.7484 28.1089C32.5208 28.331 32.2495 28.4439 31.929 28.4439H30.5797C30.2593 28.4439 29.9898 28.3347 29.7694 28.1198C29.5564 27.905 29.4453 27.6391 29.4453 27.3114V26.776H30.2793L30.4031 27.2713C30.4614 27.4789 30.6034 27.5827 30.8292 27.5827H31.7469C31.8617 27.5827 31.9564 27.539 32.0292 27.4588C32.0984 27.3733 32.1275 27.264 32.1275 27.1384V26.5484C32.1275 26.2607 32.0037 26.1114 31.7469 26.1114H30.5961C30.2793 26.1114 30.0062 26.0022 29.784 25.7819C29.5618 25.5524 29.4453 25.2793 29.4453 24.9588V24.1832C29.4453 23.8718 29.5618 23.6023 29.784 23.3765C30.0062 23.1508 30.2793 23.0415 30.5961 23.0415H31.929C32.2495 23.0415 32.5172 23.1489 32.7357 23.3602C32.9524 23.575 33.0635 23.8445 33.0635 24.1686V24.6529H32.2349L32.1075 24.2141C32.0419 24.0029 31.9017 23.9009 31.6887 23.9009H30.7819C30.6653 23.9009 30.567 23.9446 30.5014 24.0302C30.4286 24.1122 30.3958 24.2178 30.3958 24.3489V24.8041C30.3958 25.0863 30.5251 25.2283 30.7819 25.2283H31.929C32.2459 25.2283 32.5135 25.3412 32.7357 25.5706C32.967 25.7982 33.0799 26.0641 33.0799 26.3773V27.2913Z" fill="white"/>
<path d="M18.3944 23.9133H17.4766L17.1962 24.039C17.1307 24.1245 17.0943 24.2283 17.0943 24.3576V27.1253C17.0943 27.2527 17.1307 27.3547 17.1962 27.4403L17.4766 27.575H18.3944L18.6712 27.4403C18.744 27.3547 18.7804 27.2527 18.7804 27.1253V24.3576C18.7804 24.2283 18.744 24.1245 18.6712 24.039L18.3944 23.9133ZM19.7328 27.2837C19.7328 27.6114 19.6217 27.8846 19.3977 28.1085C19.1683 28.3288 18.9024 28.4436 18.5783 28.4436H17.2873C16.9686 28.4436 16.6918 28.3288 16.4715 28.1085C16.2494 27.8846 16.1328 27.6114 16.1328 27.2837V24.1773C16.1328 23.8714 16.2494 23.5983 16.4715 23.3762C16.6918 23.1522 16.9686 23.043 17.2873 23.043H18.5783C18.9024 23.043 19.1683 23.1522 19.3977 23.3725C19.6217 23.591 19.7328 23.866 19.7328 24.1773V27.2837Z" fill="white"/>
</g>
<defs>
<clipPath id="clip0_5729_21929">
<rect width="40" height="40" fill="white"/>
</clipPath>
</defs>
</svg>
