<svg width="27" height="40" viewBox="0 0 27 40" fill="none" xmlns="http://www.w3.org/2000/svg">
<g clip-path="url(#clip0_5729_9742)">
<mask id="mask0_5729_9742" style="mask-type:luminance" maskUnits="userSpaceOnUse" x="-1" y="9" width="28" height="31">
<path d="M-0.00107574 39.9993H26.2266L26.2266 9.56454L-0.00107574 9.56454L-0.00107574 39.9993Z" fill="white"/>
</mask>
<g mask="url(#mask0_5729_9742)">
<path fill-rule="evenodd" clip-rule="evenodd" d="M2.38179 39.9992H23.8458C25.5856 39.9992 26.2276 39.3572 26.2276 37.6166V16.6142C26.2276 16.4172 26.2197 16.2342 26.2023 16.0648C26.1627 15.6848 26.1552 15.3167 25.8019 14.8975C25.7674 14.8564 25.4066 14.588 25.4066 14.588C25.2126 14.4928 25.0801 14.4228 24.8612 14.3347L14.292 9.90653C13.7434 9.65502 13.5139 9.55699 13.1154 9.56489V9.56481C13.1149 9.56481 13.1144 9.56481 13.1138 9.56481C13.1133 9.56481 13.1128 9.56481 13.1123 9.56481V9.56489C12.7137 9.55699 12.4843 9.65502 11.9356 9.90653L1.36646 14.3347C1.14756 14.4228 1.01512 14.4928 0.821019 14.588C0.821019 14.588 0.460277 14.8564 0.425801 14.8975C0.0724622 15.3167 0.0650053 15.6848 0.0253969 16.0648C0.00799736 16.2342 0 16.4172 0 16.6142V37.6166C0 39.3572 0.642109 39.9992 2.38179 39.9992Z" fill="#666666"/>
<path d="M3.82127 18.8841L3.82613 18.8356L3.83094 18.7824L3.84067 18.7339L3.85515 18.6855L3.86455 18.6419L3.87914 18.5934L3.89849 18.5498L3.91789 18.511L3.93696 18.4675L3.96116 18.4287L3.98538 18.3899L4.01418 18.3512L4.03844 18.3124L4.06718 18.2785L4.1011 18.2446L4.12992 18.2156L4.16862 18.1816L4.20226 18.1525L4.241 18.1235L4.2795 18.0996L4.31796 18.0705L4.36157 18.0463L4.40489 18.0269L4.44818 18.0027L4.49665 17.9833L4.54479 17.9639L4.59294 17.9494L4.64108 17.9348L4.68469 17.9204L4.73284 17.9106L4.7762 17.9009L4.81948 17.8913L4.86795 17.8815L4.91614 17.8768L4.95942 17.8719L5.00789 17.867L5.06086 17.8622L5.10905 17.8573H5.15719H5.2102H5.26349H5.31164L5.35983 17.8622H5.4128L5.46098 17.867L5.50941 17.8719L5.56242 17.8768L5.61057 17.8864L5.65871 17.8913L5.70718 17.9009L5.75537 17.9106L5.80351 17.9204L5.85166 17.93L5.90009 17.9445L5.94341 17.9542L5.99156 17.9688L6.03975 17.9833L6.08331 18.0027L6.13146 18.0172L6.17478 18.0317L6.22301 18.0511L6.26653 18.0705L6.3099 18.0899L6.35322 18.1138L6.39679 18.1332L6.44011 18.1574L6.47857 18.1816L6.52218 18.2059L6.56068 18.2301L6.59942 18.2543L6.63788 18.2834L6.67634 18.3124L6.71509 18.3415L6.75363 18.3706L6.78751 18.3996L6.82597 18.4335L6.79691 18.4723L6.76331 18.5062L6.73421 18.545L6.70058 18.5837L6.67148 18.6176L6.64275 18.6564L6.60882 18.6952L6.58005 18.729L6.54613 18.7678L6.51731 18.8017L6.48343 18.8405L6.45466 18.8793L6.42556 18.9131L6.39196 18.9519L6.36291 18.9907L6.32927 19.0246L6.30021 19.0633L6.26175 19.0342L6.21839 19.0052L6.17964 18.9761L6.13632 18.947L6.09758 18.9228L6.05425 18.8938L6.01583 18.8695L5.97215 18.8502L5.93373 18.8259L5.8904 18.8065L5.8468 18.7872L5.80351 18.7678L5.76011 18.7533L5.71658 18.7339L5.66844 18.7194L5.62021 18.7048L5.57693 18.6903L5.52846 18.6806L5.48031 18.6709L5.43217 18.6612L5.37916 18.6564L5.33077 18.6467H5.28254L5.22961 18.6419H5.18139H5.1236L5.07059 18.6467L5.02212 18.6564L4.97883 18.6661L4.93547 18.6758L4.89673 18.6903L4.86309 18.7097L4.82435 18.7387L4.79557 18.7726L4.7762 18.8115L4.76161 18.855L4.75683 18.9035V18.9131L4.76161 18.9713L4.78098 19.0198L4.80526 19.0537L4.83885 19.0827L4.87768 19.1118L4.91614 19.1311L4.95942 19.1505L5.00789 19.1699L5.06572 19.1941L5.09936 19.2038L5.13778 19.2135L5.18139 19.2281L5.22475 19.2377L5.2729 19.2523L5.32137 19.262L5.37429 19.2765L5.42252 19.2862L5.47553 19.3007L5.52368 19.3104L5.57215 19.3249L5.62021 19.3346L5.66844 19.3492L5.71205 19.3636L5.76011 19.3734L5.80351 19.3879L5.8468 19.4024L5.8904 19.417L5.94341 19.4364L5.99156 19.4558L6.03975 19.4751L6.08818 19.4945L6.13146 19.5187L6.17964 19.5429L6.21839 19.5671L6.26175 19.5914L6.30021 19.6204L6.33896 19.6446L6.37255 19.6738L6.40643 19.7076L6.44011 19.7416L6.46917 19.7755L6.49794 19.8094L6.52218 19.8433L6.54613 19.8821L6.57032 19.9256L6.58974 19.9592L6.60429 19.998L6.61847 20.0416L6.63302 20.0804L6.64275 20.1288L6.65243 20.1724L6.65729 20.2209L6.66208 20.2693L6.66694 20.3225V20.3759V20.3856V20.434L6.66208 20.4825L6.65729 20.5261L6.65243 20.5745L6.64275 20.6181L6.63302 20.6617L6.61847 20.7054L6.60882 20.7489L6.58974 20.7925L6.57032 20.8361L6.55099 20.8797L6.527 20.9233L6.50285 20.9669L6.47403 21.0057L6.44493 21.0444L6.4113 21.0832L6.37742 21.117L6.34378 21.1559L6.30503 21.1898L6.2714 21.214L6.23265 21.2431L6.19415 21.2721L6.15573 21.2963L6.11213 21.3206L6.06876 21.3399L6.02548 21.3641L5.98187 21.3835L5.93373 21.3981L5.88558 21.4174L5.84197 21.432L5.80351 21.4417L5.76011 21.4514L5.71658 21.461L5.66844 21.4707L5.62507 21.4804L5.57693 21.4853L5.52846 21.4901L5.48031 21.495L5.43217 21.4998H5.38402H5.33077H5.27768H5.22475L5.17174 21.495L5.11873 21.4901H5.07059L5.01729 21.4853L4.96915 21.4756L4.91614 21.4707L4.86795 21.461L4.82435 21.4514L4.7762 21.4417L4.72805 21.432L4.68469 21.4223L4.6363 21.4078L4.59294 21.3932L4.54961 21.3835L4.50118 21.3641L4.45786 21.3496L4.41458 21.3303L4.37126 21.3109L4.32283 21.2915L4.2795 21.2673L4.241 21.2479L4.1974 21.2237L4.15407 21.1995L4.11561 21.1752L4.07205 21.1461L4.03352 21.122L3.99478 21.0928L3.95631 21.0638L3.91789 21.0348L3.94663 20.9959L3.97084 20.9572L3.99964 20.9185L4.02871 20.8797L4.05746 20.8361L4.08173 20.7974L4.11079 20.7586L4.1396 20.7198L4.16376 20.6811L4.19261 20.6423L4.22163 20.6036L4.24587 20.5648L4.27464 20.5212L4.30374 20.4825L4.33251 20.4437L4.35671 20.405L4.38552 20.3662L4.42426 20.3953L4.46755 20.4195L4.50605 20.4437L4.54479 20.4728L4.58807 20.4921L4.6269 20.5164L4.67018 20.5358L4.70864 20.5551L4.75225 20.5745L4.79071 20.5939L4.83399 20.6084L4.87273 20.6278L4.92582 20.6423L4.97397 20.6569L5.02212 20.6714L5.07059 20.6811L5.11873 20.6908L5.16688 20.7005L5.21502 20.7054L5.26349 20.7101L5.30678 20.715H5.35496H5.4128L5.4658 20.7054L5.51427 20.6956L5.55756 20.686L5.59602 20.6665L5.62994 20.6472L5.6733 20.6084L5.70236 20.5648L5.72137 20.5212L5.72631 20.4728V20.4631L5.72137 20.4001L5.6975 20.3468L5.67808 20.3178L5.64449 20.2838L5.60088 20.2596L5.56242 20.2354L5.51427 20.216L5.46098 20.1966L5.40311 20.1773L5.36465 20.1676L5.32615 20.1531L5.28254 20.1434L5.23926 20.1288L5.19111 20.1191L5.13778 20.1046L5.08477 20.0901L5.03176 20.0755L4.97883 20.0659L4.93069 20.0513L4.87768 20.0368L4.82921 20.0271L4.78098 20.0126L4.73284 19.998L4.68955 19.9835L4.64108 19.969L4.59776 19.9544L4.55448 19.9399L4.50118 19.9208L4.45304 19.8965L4.40489 19.8772L4.35671 19.853L4.3131 19.8287L4.26978 19.8045L4.23136 19.7803L4.19261 19.7512L4.15407 19.727L4.11561 19.6931L4.07687 19.6592L4.04325 19.6204L4.00937 19.5865L3.98056 19.5478L3.95149 19.5042L3.92756 19.4654L3.9033 19.4218L3.88395 19.3831L3.86942 19.3395L3.85515 19.2959L3.84548 19.2523L3.8358 19.2038L3.82613 19.1553L3.82127 19.1069L3.81641 19.0537V19.0004V18.9907V18.9373L3.82127 18.8841ZM7.2036 17.9154H7.25198H7.30013H7.34828H7.39642H7.44489H7.49312H7.54118H7.58941H7.64266H7.69081H7.73896H7.7871H7.83565H7.88372H7.93194H7.98009H8.02856H8.07671H8.12485H8.173H8.22118H8.26961H8.31776H8.36591H8.41409H8.46256H8.51071H8.55885H8.61186H8.66029H8.70848H8.75663H8.80477H8.8532H8.90139H8.94953H8.99772H9.04615H9.0943H9.14244H9.19063H9.2391H9.2872H9.33539H9.38354H9.43196H9.48015H9.53316H9.58131H9.62945H9.67792H9.72607H9.77429H9.82236H9.87079H9.91898H9.96712V17.9639V18.0124V18.0608V18.109V18.1574V18.2059V18.2543V18.3027V18.3512V18.3996V18.4481V18.4965V18.545V18.5934V18.6419V18.6903V18.7387V18.7872V18.8308V18.8793V18.9277V18.9761V19.0246V19.073V19.1215V19.1699V19.2184V19.2668V19.3152V19.3636V19.4121V19.4606V19.509V19.5575V19.606V19.6543V19.7028V19.7512V19.7997V19.8481V19.8965V19.9448V19.9931V20.0416V20.0901V20.1385V20.1869V20.2354V20.2838V20.3323V20.3807V20.4292V20.4776V20.5261V20.5697V20.6181V20.6665V20.715V20.7634V20.8119V20.8603V20.9088V20.9572V21.0057V21.0541V21.1026V21.151V21.1995V21.2479V21.2963V21.3448V21.3932V21.4417H9.91898H9.87079H9.82236H9.77429H9.72607H9.67792H9.62945H9.58131H9.53316H9.48497H9.43654H9.38836H9.34025H9.29207H9.2485H9.20031H9.15217H9.10398H9.05555H9.00741H8.95926H8.91107H8.86264H8.8145H8.76635H8.71817H8.6697H8.62155H8.5734H8.52526H8.47679H8.42856H8.3805H8.33235H8.28412H8.23565H8.18751H8.13936H8.09122H8.04275H7.9946H7.94645H7.89831H7.85466H7.80651H7.75837H7.71018H7.66175H7.61361H7.56546H7.51731H7.46884H7.4207H7.37255H7.32437H7.27594H7.22775H7.1796V21.3932V21.3496V21.3012V21.2527V21.2043V21.1607V21.1123V21.0638V21.0202V20.9717V20.9233V20.8797V20.8312V20.7829V20.7344V20.6908V20.6423H7.22775H7.27594H7.32437H7.37255H7.4207H7.46884H7.51245H7.5606H7.60874H7.65693H7.70536H7.7535H7.80169H7.84984H7.89831H7.94645H7.9946H8.04275H8.09122H8.1345H8.18272H8.23087H8.27934H8.32741H8.37563H8.42378H8.47225H8.52039H8.56854H8.61669H8.66516H8.71334H8.75663H8.80477H8.8532H8.90139H8.94953H8.99772H9.04615V20.5939V20.5454V20.4971V20.4486V20.4001V20.3565V20.3081V20.2596V20.2112V20.1627V20.1143V20.0659H8.99772H8.94953H8.90139H8.8532H8.80477H8.75663H8.70848H8.66029H8.61669H8.56854H8.52039H8.47225H8.42378H8.37563H8.32741H8.27934H8.23087H8.18272H8.1345H8.08635H8.03796H7.98982H7.94159H7.8934H7.84497H7.79683H7.7535H7.70536H7.65693H7.60874H7.5606H7.51245H7.46402H7.41583H7.36769V20.0174V19.9738V19.9256V19.8772V19.8336V19.7852V19.7367V19.6931V19.6446V19.5962V19.5478V19.5042V19.4558V19.4073V19.3636V19.3152H7.41583H7.46402H7.51245H7.5606H7.60874H7.65693H7.70536H7.7535H7.79683H7.84497H7.8934H7.94159H7.98982H8.03796H8.08635H8.1345H8.18272H8.23087H8.27934H8.32741H8.37563H8.42378H8.47225H8.52039H8.56854H8.61669H8.66029H8.70848H8.75663H8.80477H8.8532H8.90139H8.94953H8.99772H9.04615V19.2668V19.2135V19.1651V19.1166V19.0633V19.0148V18.9664V18.9131V18.8647V18.8162V18.763V18.7146H8.99772H8.94953H8.90139H8.8532H8.80477H8.75663H8.70848H8.66029H8.61186H8.55885H8.51071H8.46256H8.41409H8.36591H8.31776H8.26961H8.22118H8.173H8.12485H8.07671H8.02856H7.98009H7.93194H7.88372H7.83565H7.7871H7.73896H7.69081H7.64266H7.58941H7.54118H7.49312H7.44489H7.39642H7.34828H7.30013H7.25198H7.2036H7.15537V18.6661V18.6225V18.574V18.5256V18.4771V18.4335V18.3851V18.3367V18.293V18.2446V18.1962V18.1525V18.1044V18.056V18.0076V17.9639V17.9154H7.2036ZM10.7275 17.9154H10.7756H10.8238H10.877H10.9252H10.9734H11.0215H11.07H11.1182H11.1712H11.2193H11.2675H11.3159H11.3641H11.4122H11.4652H11.5137H11.5619H11.61V17.9639V18.0124V18.0608V18.1093V18.158V18.2064V18.2549V18.3033V18.3518V18.4002V18.4487V18.4973V18.5458V18.5943V18.6427V18.6912V18.7399V18.7884V18.8368V18.8852V18.9337V18.9821V19.0308V19.0793V19.1277V19.1762V19.2246V19.2731V19.3218V19.3703V19.4187V19.4671V19.5155V19.564V19.6128V19.6612V19.7096V19.7581V19.8065V19.8553V19.9037V19.9521V20.0006L11.6342 19.9619L11.663 19.9179L11.6872 19.8792L11.716 19.8404L11.7402 19.7968L11.7694 19.7581L11.7932 19.7193L11.8175 19.6754L11.8462 19.6367L11.8705 19.5979L11.8995 19.5591L11.9234 19.5153L11.9525 19.4765L11.9764 19.4378L12.0007 19.3942L12.0298 19.3552L12.0537 19.3164L12.0828 19.2728L12.1067 19.234L12.1358 19.1953L12.1597 19.1514L12.1839 19.1126L12.213 19.0738L12.2369 19.0302L12.266 18.9912L12.2899 18.9525L12.319 18.9137L12.3433 18.8701L12.3672 18.8311L12.3962 18.7923L12.4201 18.7487L12.4492 18.71L12.4734 18.6712L12.5022 18.6273L12.5264 18.5886H12.5456L12.5746 18.6322L12.5989 18.6712L12.6276 18.7149L12.6519 18.7536L12.6806 18.7971L12.7049 18.8362L12.7336 18.8798L12.7579 18.9186L12.7869 18.9621L12.8109 19.0009L12.8399 19.0448L12.8638 19.0836L12.8929 19.1272L12.9172 19.1659L12.9459 19.2098L12.9702 19.2485L12.9989 19.2922L13.028 19.3309L13.0522 19.3748L13.081 19.4135L13.1052 19.4571L13.134 19.4959L13.1582 19.5398L13.187 19.5786L13.2112 19.6222L13.2403 19.6609L13.2642 19.7045L13.2933 19.7436L13.3172 19.7871L13.3463 19.8259L13.3705 19.8695L13.3993 19.9082L13.4236 19.9521L13.4524 19.9909V19.9425V19.894V19.8455V19.7968V19.7484V19.7V19.6515V19.603V19.5543V19.5059V19.4622V19.4139V19.3654V19.317V19.2682V19.2197V19.1713V19.1229V19.0744V19.026V18.9773V18.9288V18.8804V18.8319V18.7835V18.735V18.6863V18.6379V18.5894V18.541V18.4925V18.4438V18.4002V18.3518V18.3033V18.2549V18.2064V18.158V18.1093V18.0608V18.0124V17.9639V17.9154H13.5005H13.5489H13.5971H13.6453H13.6934H13.7418H13.79H13.8382H13.8864H13.9348H13.9829H14.0311H14.0793H14.1277H14.1758H14.224H14.2722H14.3206H14.3688V17.9639V18.0124V18.0608V18.109V18.1574V18.2059V18.2543V18.3027V18.3512V18.3996V18.4481V18.4965V18.545V18.5934V18.6419V18.6903V18.7387V18.7872V18.8308V18.8793V18.9277V18.9761V19.0246V19.073V19.1215V19.1699V19.2184V19.2668V19.3152V19.3636V19.4121V19.4606V19.509V19.5575V19.606V19.6543V19.7028V19.7512V19.7997V19.8481V19.8965V19.9448V19.9931V20.0416V20.0901V20.1385V20.1869V20.2354V20.2838V20.3323V20.3807V20.4292V20.4776V20.5261V20.5697V20.6181V20.6665V20.715V20.7634V20.8119V20.8603V20.9088V20.9572V21.0057V21.0541V21.1026V21.151V21.1995V21.2479V21.2963V21.3448V21.3932V21.4417H14.3206H14.2722H14.2288H14.1807H14.1326H14.0841H14.0408H13.9927H13.9442H13.896H13.8527H13.8045H13.7561H13.7079H13.6646H13.6165H13.568H13.5198H13.4765H13.4284H13.3799L13.356 21.4029L13.3318 21.3593L13.3031 21.3209L13.2788 21.2773L13.2546 21.2385L13.2306 21.1949L13.2064 21.1564L13.1776 21.1128L13.1534 21.074L13.1291 21.0353L13.1052 20.992L13.081 20.9532L13.0522 20.9097L13.028 20.8709L13.0038 20.8276L12.9798 20.7889L12.9508 20.7501L12.9265 20.7067L12.9026 20.668L12.8784 20.6244L12.8544 20.5856L12.8254 20.5423L12.8012 20.5035L12.7773 20.46L12.753 20.4215L12.7291 20.3828L12.7 20.3392L12.6758 20.3003L12.6519 20.2567L12.6276 20.2183L12.6037 20.1747L12.5746 20.1359L12.5504 20.0926L12.5264 20.0539L12.5022 20.0926L12.478 20.1359L12.4492 20.1747L12.4251 20.2183L12.4011 20.2567L12.3768 20.3003L12.3481 20.3392L12.3238 20.3828L12.2996 20.4215L12.2757 20.46L12.2466 20.5035L12.2227 20.5423L12.1984 20.5856L12.1743 20.6244L12.1455 20.668L12.1213 20.7067L12.097 20.7501L12.0731 20.7889L12.0488 20.8276L12.0201 20.8709L11.9959 20.9097L11.9717 20.9532L11.9477 20.992L11.9187 21.0353L11.8947 21.074L11.8705 21.1128L11.8462 21.1564L11.8175 21.1949L11.7932 21.2385L11.7694 21.2773L11.7451 21.3209L11.716 21.3593L11.6921 21.4029L11.6679 21.4417H11.6197H11.5715H11.528H11.4797H11.4316H11.3835H11.3398H11.2917H11.2436H11.1954H11.1518H11.1036H11.0555H11.0073H10.9637H10.9155H10.8674H10.8192H10.7756H10.7275H10.6793V21.3932V21.3448V21.2963V21.2479V21.1995V21.151V21.1026V21.0541V21.0057V20.9572V20.9088V20.8603V20.8119V20.7634V20.715V20.6665V20.6181V20.5697V20.5261V20.4776V20.4292V20.3807V20.3323V20.2838V20.2354V20.1869V20.1385V20.0901V20.0416V19.9931V19.9448V19.8965V19.8481V19.7997V19.7512V19.7028V19.6543V19.606V19.5575V19.509V19.4606V19.4121V19.3636V19.3152V19.2668V19.2184V19.1699V19.1215V19.073V19.0246V18.9761V18.9277V18.8793V18.8308V18.7872V18.7387V18.6903V18.6419V18.5934V18.545V18.4965V18.4481V18.3996V18.3512V18.3027V18.2543V18.2059V18.1574V18.109V18.0608V18.0124V17.9639V17.9154H10.7275ZM16.3234 19.3685L16.3379 19.4124L16.357 19.4609L16.3764 19.5045L16.3909 19.5483L16.41 19.5919L16.4293 19.6404L16.4439 19.6843L16.4633 19.7279L16.4823 19.7715L16.4969 19.8153L16.5163 19.8638L16.5305 19.9074L16.5499 19.9513L16.5694 19.9949L16.5838 20.0385L16.6029 20.0872L16.6223 20.1309L16.6368 20.1744L16.6562 20.2183L16.6753 20.2667L16.6898 20.3106L16.7093 20.3542L16.7283 20.3106L16.7428 20.2667L16.7622 20.2183L16.7816 20.1744L16.7959 20.1309L16.8152 20.0872L16.8346 20.0385L16.8537 19.9949L16.8683 19.9513L16.8876 19.9074L16.907 19.8638L16.9213 19.8153L16.9406 19.7715L16.96 19.7279L16.9745 19.6843L16.9936 19.6404L17.013 19.5919L17.0324 19.5483L17.0466 19.5045L17.066 19.4609L17.0854 19.4124L17.0999 19.3685L17.119 19.3249H17.0708H17.0227H16.9745H16.9261H16.8779H16.8298H16.7816H16.7331H16.6898H16.6417H16.5932H16.5451H16.4969H16.4487H16.4006H16.3522H16.304L16.3234 19.3685ZM14.8087 17.9154H14.8572H14.9005H14.9486H14.9971H15.0453H15.0934H15.1367H15.1852H15.2333H15.2815H15.3297H15.3781H15.4215H15.4696H15.5178H15.5662H15.6144H15.6577H15.7058H15.7543L15.7734 17.9591L15.7879 18.0027L15.8073 18.0463L15.8267 18.0947L15.8409 18.1381L15.8603 18.1816L15.8797 18.2252L15.8939 18.2688L15.9133 18.3124L15.9327 18.356L15.9472 18.3996L15.9663 18.4481L15.9857 18.4917L16.0002 18.5353L16.0196 18.5789H16.0678H16.1159H16.1641H16.2122H16.2558H16.304H16.3522H16.4006H16.4487H16.4969H16.5451H16.5932H16.6417H16.6898H16.7331H16.7816H16.8298H16.8779H16.9261H16.9745H17.0227H17.0708H17.119H17.1671H17.2108H17.2589H17.3071H17.3556H17.4037L17.4228 18.5353L17.4373 18.4917L17.4567 18.4481L17.4761 18.3996L17.4903 18.356L17.5097 18.3124L17.5291 18.2688L17.5436 18.2252L17.5627 18.1816L17.5821 18.1381L17.5966 18.0947L17.6158 18.0463L17.6351 18.0027L17.6496 17.9591L17.669 17.9154H17.7172H17.7653H17.8134H17.8619H17.9101H17.9631H18.0112H18.0594H18.1078H18.156H18.2041H18.2524H18.3008H18.3489H18.397H18.45H18.4985H18.5467H18.5949H18.643L18.6239 17.9591L18.6045 18.0027L18.5852 18.0463L18.5661 18.0947L18.5515 18.1381L18.5321 18.1816L18.5128 18.2252L18.4937 18.2688L18.4743 18.3124L18.4549 18.3609L18.4359 18.4045L18.4164 18.4481L18.402 18.4917L18.3826 18.5353L18.3635 18.5789L18.3441 18.6273L18.3247 18.6709L18.3056 18.7146L18.2862 18.7581L18.2669 18.8017L18.2524 18.8453L18.2333 18.8938L18.2139 18.9373L18.1945 18.9809L18.1754 19.0246L18.156 19.0682L18.1366 19.1118L18.1175 19.1602L18.103 19.2038L18.0836 19.2474L18.0642 19.291L18.0451 19.3346L18.0258 19.3782L18.0064 19.4267L17.9873 19.4703L17.9679 19.5139L17.9534 19.5575L17.934 19.601L17.9149 19.6446L17.8956 19.6931L17.8761 19.7367L17.8571 19.7803L17.8377 19.8239L17.8183 19.8675L17.8038 19.9111L17.7847 19.9544L17.7653 20.0029L17.746 20.0464L17.7268 20.0901L17.7075 20.1337L17.6881 20.1773L17.669 20.2209L17.6545 20.2693L17.6351 20.3129L17.6158 20.3565L17.5966 20.4001L17.5772 20.4437L17.5579 20.4873L17.5388 20.5358L17.5194 20.5793L17.5049 20.6229L17.4855 20.6665L17.4664 20.7101L17.447 20.7538L17.4276 20.8022L17.4086 20.8458L17.3892 20.8894L17.3698 20.933L17.3556 20.9766L17.3362 21.0202L17.3167 21.0686L17.2974 21.1123L17.2783 21.1559L17.2589 21.1995L17.2395 21.2431L17.2205 21.2866L17.2059 21.3351L17.1865 21.3787L17.1671 21.4223L17.1481 21.4659H17.0999H17.0563H17.0082H16.96H16.9116H16.8683H16.8201H16.7719H16.7234H16.6801H16.632H16.5838H16.5354H16.4921H16.4439H16.3958H16.3473H16.304H16.2558L16.2365 21.4223L16.2171 21.3787L16.198 21.3351L16.1786 21.2866L16.1641 21.2431L16.145 21.1995L16.1256 21.1559L16.1063 21.1123L16.0868 21.0686L16.0678 21.0202L16.0484 20.9766L16.029 20.933L16.0148 20.8894L15.9954 20.8458L15.976 20.8022L15.9566 20.7538L15.9375 20.7101L15.9182 20.6665L15.8988 20.6229L15.8797 20.5793L15.8652 20.5358L15.8458 20.4873L15.8267 20.4437L15.8073 20.4001L15.7879 20.3565L15.7685 20.3129L15.7495 20.2693L15.7301 20.2209L15.7155 20.1773L15.6964 20.1337L15.6771 20.0901L15.6577 20.0464L15.6383 20.0029L15.6192 19.9544L15.5998 19.9111L15.5805 19.8675L15.5662 19.8239L15.5469 19.7803L15.5275 19.7367L15.5084 19.6931L15.489 19.6446L15.4696 19.601L15.4502 19.5575L15.4311 19.5139L15.4166 19.4703L15.3972 19.4267L15.3781 19.3782L15.3588 19.3346L15.3394 19.291L15.32 19.2474L15.3009 19.2038L15.2815 19.1602L15.267 19.1118L15.2479 19.0682L15.2286 19.0246L15.2091 18.9809L15.1901 18.9373L15.1707 18.8938L15.1513 18.8453L15.1319 18.8017L15.1177 18.7581L15.0983 18.7146L15.0789 18.6709L15.0598 18.6273L15.0404 18.5789L15.0211 18.5353L15.0017 18.4917L14.9826 18.4481L14.9681 18.4045L14.9486 18.3609L14.9296 18.3124L14.9102 18.2688L14.8909 18.2252L14.8718 18.1816L14.8524 18.1381L14.833 18.0947L14.8184 18.0463L14.7994 18.0027L14.78 17.9591L14.7606 17.9154H14.8087ZM19.034 18.3658L19.0727 18.3367L19.1064 18.3124L19.1451 18.2834L19.1836 18.2592L19.2221 18.2301L19.2608 18.2059L19.2993 18.1816L19.3429 18.1574L19.3862 18.1332L19.4296 18.109L19.4731 18.0899L19.5165 18.0657L19.5646 18.0463L19.6079 18.0269L19.6564 18.0076L19.6996 17.9882L19.743 17.9736L19.7866 17.9591L19.8299 17.9445L19.878 17.93L19.9213 17.9154L19.9698 17.9058L20.0132 17.8961L20.0613 17.8864L20.1097 17.8768L20.1579 17.8719L20.2109 17.867L20.2591 17.8622L20.3121 17.8573L20.3606 17.8525L20.4135 17.8477H20.4665H20.5196H20.5725H20.621L20.6691 17.8525L20.7221 17.8573L20.7703 17.8622L20.8184 17.867L20.8669 17.8719L20.915 17.8815L20.9633 17.8913L21.0066 17.9009L21.0549 17.9106L21.0983 17.9251L21.1465 17.9348L21.1901 17.9494L21.2334 17.9688L21.2767 17.9833L21.3248 18.0027L21.3684 18.022L21.4117 18.0414L21.455 18.0608L21.4987 18.085L21.5371 18.109L21.5805 18.1332L21.6192 18.1574L21.6577 18.1816L21.6964 18.2107L21.7349 18.2398L21.7734 18.2688L21.8073 18.2979L21.8409 18.327L21.8748 18.3609L21.9084 18.3899L21.9424 18.4239L21.976 18.4578L22.0051 18.4917L22.0339 18.5304L22.0629 18.5643L22.0872 18.6031L22.1159 18.6419L22.1401 18.6806L22.1641 18.7194L22.1883 18.763L22.2125 18.8017L22.2316 18.8453L22.251 18.889L22.2703 18.9326L22.2895 18.9761L22.304 19.0148L22.3234 19.0585L22.3331 19.1021L22.3473 19.1457L22.357 19.1941L22.3715 19.2377L22.3812 19.2862L22.3861 19.3298L22.3958 19.3782L22.4006 19.4218L22.4055 19.4703L22.41 19.5187L22.4148 19.5671V19.6204V19.6689V19.6786V19.727L22.41 19.7803V19.8287L22.4055 19.8772L22.4006 19.9305L22.3909 19.9786L22.3861 20.0271L22.3764 20.0707L22.3619 20.1191L22.3521 20.1676L22.3379 20.2112L22.3234 20.2596L22.3088 20.3032L22.2895 20.3517L22.2703 20.3953L22.251 20.4389L22.2316 20.4825L22.2125 20.5261L22.1883 20.5697L22.1641 20.6084L22.1401 20.6472L22.1159 20.686L22.0917 20.7247L22.0629 20.7634L22.0339 20.8022L22.0051 20.8409L21.976 20.8749L21.9424 20.9088L21.9133 20.9427L21.8797 20.9766L21.8458 21.0105L21.8121 21.0396L21.7734 21.0735L21.7398 21.1026L21.7013 21.1316L21.6625 21.1559L21.6241 21.1849L21.5853 21.2091L21.5469 21.2334L21.5035 21.2576L21.4599 21.2818L21.4166 21.306L21.3733 21.3254L21.3297 21.3448L21.2815 21.369L21.2431 21.3835L21.1949 21.3981L21.1512 21.4174L21.108 21.4271L21.0647 21.4417L21.0163 21.4514L20.9729 21.4659L20.9248 21.4756L20.8766 21.4804L20.8282 21.4901L20.78 21.495L20.7319 21.4998L20.6837 21.5046L20.6352 21.5095H20.5822H20.5341H20.4811H20.4281L20.3747 21.5046L20.3217 21.4998H20.2736L20.2254 21.495L20.1724 21.4853L20.1288 21.4804L20.0807 21.4707L20.0325 21.461L19.9889 21.4514L19.9456 21.4417L19.9023 21.432L19.8587 21.4174L19.8154 21.4078L19.7769 21.3932L19.7333 21.3787L19.69 21.3593L19.6467 21.3399L19.6031 21.3206L19.5597 21.2963L19.5165 21.277L19.4776 21.2527L19.4344 21.2285L19.3959 21.2043L19.3523 21.1801L19.3138 21.151L19.2753 21.1268L19.2366 21.0977L19.1981 21.0686L19.1594 21.0348L19.1209 21.0057L19.15 20.9669L19.1836 20.933L19.2127 20.8943L19.2463 20.8555L19.2753 20.8167L19.3041 20.7829L19.3381 20.7441L19.3668 20.7054L19.3959 20.6714L19.4296 20.6326L19.4586 20.5939L19.4922 20.5551L19.5213 20.5212L19.5501 20.4825L19.5839 20.4437L19.6128 20.405L19.6467 20.371L19.6755 20.3323L19.7142 20.3614L19.7527 20.3953L19.7914 20.4195L19.8299 20.4486L19.8684 20.4728L19.9071 20.4971L19.9456 20.5212L19.9889 20.5454L20.0277 20.5648L20.0662 20.5842L20.1049 20.5987L20.1482 20.6133L20.1915 20.6278L20.2351 20.6375L20.2833 20.6472L20.3314 20.6569L20.3796 20.6617L20.4326 20.6665L20.4859 20.6714H20.5389H20.5871L20.6352 20.6665L20.6788 20.6617L20.727 20.652L20.7703 20.6423L20.8139 20.6278L20.8572 20.6133L20.9005 20.5939L20.9439 20.5745L20.9826 20.5503L21.021 20.5261L21.0598 20.5018L21.0934 20.4728L21.1274 20.4437L21.161 20.4146L21.1901 20.3807L21.2237 20.3468L21.2527 20.3081L21.2767 20.2742L21.3009 20.2354L21.3248 20.1918L21.3491 20.1531L21.3684 20.1095L21.383 20.0659L21.4021 20.0222L21.4166 19.9738L21.4263 19.9256L21.436 19.8821L21.4457 19.8287L21.4505 19.7803L21.455 19.7319V19.6786V19.6689V19.6204L21.4505 19.572L21.4457 19.5284L21.4408 19.4799L21.4312 19.4364L21.4214 19.3927L21.4117 19.3492L21.3972 19.3056L21.383 19.2668L21.3636 19.2184L21.3442 19.1747L21.3203 19.1311L21.2961 19.0924L21.2718 19.0537L21.2431 19.0148L21.214 18.9809L21.1804 18.947L21.1512 18.9131L21.1177 18.8841L21.0789 18.855L21.0404 18.8259L21.002 18.8017L20.9633 18.7775L20.9199 18.7581L20.8766 18.7387L20.833 18.7194L20.7848 18.7048L20.7367 18.6903L20.6882 18.6806L20.6401 18.6709L20.5919 18.6661L20.5389 18.6612H20.4859H20.4281L20.3747 18.6661L20.3217 18.6709L20.2736 18.6758L20.2254 18.6855L20.177 18.6952L20.1288 18.7097L20.0855 18.7194L20.0422 18.7387L20.0034 18.7581L19.9602 18.7775L19.9263 18.7969L19.8877 18.8211V18.8695V18.918V18.9664V19.0148V19.0682V19.1166V19.1651V19.2135V19.262H19.9359H19.9795H20.0277H20.0758H20.124H20.1676H20.2158H20.2639H20.3121H20.3556H20.4038H20.452H20.5002H20.5437H20.5919V19.3104V19.354V19.4024V19.4509V19.4993V19.5429V19.5914V19.6398V19.6882V19.7319V19.7803V19.8287V19.8772V19.9208V19.969H20.5437H20.4953H20.4471H20.399H20.3508H20.3027H20.2542H20.2061H20.1579H20.1097H20.0613H20.0132H19.965H19.9169H19.8684H19.8202H19.772H19.7239H19.6755H19.6273H19.5791H19.531H19.4826H19.4344H19.3862H19.3381H19.2896H19.2414H19.1933H19.1451H19.0967H19.0485H19.0004V19.9208V19.8724V19.8239V19.7803V19.7319V19.6834V19.635V19.5865V19.5381V19.4945V19.446V19.3976V19.3492V19.3007V19.2523V19.2038V19.1602V19.1118V19.0633V19.0148V18.9664V18.918V18.8695V18.8259V18.7775V18.729V18.6806V18.6322V18.5837V18.5401V18.4917V18.4432V18.3948L19.034 18.3658Z" fill="#666666"/>
<path d="M20.5816 29.4202H18.4913V31.0371H20.5816V34.3379H18.4081V35.9547H22.3566V24.2856H18.375V25.9025H20.5816V29.4202Z" fill="#666666"/>
<path d="M5.61305 29.0698V26.4359C5.61305 25.9691 5.82881 25.7525 6.27651 25.7525H6.60851C7.07295 25.7525 7.28871 25.9691 7.28871 26.4359V33.8044C7.28871 34.2711 7.07295 34.4877 6.60851 34.4877H6.30982C5.86188 34.4877 5.64612 34.2711 5.64612 33.8044V31.5203H3.90438V33.9044C3.90438 35.3545 4.60117 36.0547 6.04421 36.0547H6.90711C8.35019 36.0547 9.06379 35.338 9.06379 33.8876V26.3527C9.06379 24.9022 8.35019 24.1855 6.90711 24.1855H6.02772C4.58431 24.1855 3.87109 24.9022 3.87109 26.3527V29.0698H5.61305Z" fill="#666666"/>
<path d="M11.7753 24.2856H10V35.9548H11.7753V24.2856Z" fill="#666666"/>
<path d="M14.3532 30.7703C14.3532 30.3036 14.5686 30.0867 15.0166 30.0867H15.7467V34.3877H15.0166C14.5686 34.3877 14.3532 34.1711 14.3532 33.7044V30.7703ZM14.7347 35.9548H17.5218V24.2856H15.7467V28.52H14.7347C13.2914 28.52 12.5781 29.2366 12.5781 30.6868V33.7876C12.5781 35.238 13.2914 35.9548 14.7347 35.9548Z" fill="#666666"/>
<path fill-rule="evenodd" clip-rule="evenodd" d="M18.1695 13.7344H8.00781L13.1945 12.0239L18.1695 13.7344Z" fill="#666666"/>
</g>
<mask id="mask1_5729_9742" style="mask-type:luminance" maskUnits="userSpaceOnUse" x="0" y="0" width="27" height="31">
<path d="M26.2276 0H0V30.4347H26.2276V0Z" fill="white"/>
</mask>
<g mask="url(#mask1_5729_9742)">
<path fill-rule="evenodd" clip-rule="evenodd" d="M23.8458 0H2.38179C0.642055 0 0 0.642056 0 2.3826V23.385C0 23.582 0.00794294 23.765 0.0253425 23.9344C0.0649508 24.3144 0.0724077 24.6825 0.425747 25.1017C0.460276 25.1428 0.821021 25.4112 0.821021 25.4112C1.01506 25.5064 1.14756 25.5764 1.3664 25.6645L11.9356 30.0927C12.4843 30.3442 12.7137 30.4422 13.1122 30.4343V30.4344C13.1127 30.4344 13.1132 30.4344 13.1138 30.4344C13.1143 30.4344 13.1148 30.4344 13.1153 30.4344V30.4343C13.5139 30.4422 13.7433 30.3442 14.292 30.0927L24.8612 25.6645C25.0801 25.5764 25.2125 25.5064 25.4066 25.4112C25.4066 25.4112 25.7673 25.1428 25.8018 25.1017C26.1552 24.6825 26.1626 24.3144 26.2022 23.9344C26.2196 23.765 26.2276 23.582 26.2276 23.385V2.3826C26.2276 0.642056 25.5855 0 23.8458 0Z" fill="white"/>
<path d="M22.41 21.1152L22.4051 21.1636L22.4003 21.2169L22.3905 21.2653L22.3761 21.3137L22.3667 21.3573L22.3521 21.4058L22.3328 21.4494L22.3133 21.4882L22.2943 21.5318L22.2701 21.5705L22.2459 21.6093L22.2171 21.6481L22.1928 21.6868L22.164 21.7207L22.1301 21.7546L22.1013 21.7837L22.0626 21.8176L22.029 21.8467L21.9902 21.8758L21.9517 21.8997L21.9133 21.9287L21.8697 21.9529L21.8263 21.9723L21.7831 21.9965L21.7346 22.0159L21.6864 22.0354L21.6383 22.0498L21.5901 22.0644L21.5465 22.0789L21.4984 22.0886L21.455 22.0983L21.4117 22.108L21.3633 22.1177L21.3151 22.1225L21.2718 22.1274L21.2233 22.1322L21.1704 22.1371L21.1222 22.1419H21.074H21.021H20.9677H20.9196L20.8714 22.1371H20.8184L20.7702 22.1322L20.7218 22.1274L20.6688 22.1225L20.6207 22.1128L20.5725 22.108L20.524 22.0983L20.4759 22.0886L20.4277 22.0789L20.3796 22.0692L20.3311 22.0547L20.2878 22.045L20.2397 22.0305L20.1915 22.0159L20.1479 21.9965L20.0998 21.982L20.0564 21.9675L20.0082 21.9481L19.9647 21.9287L19.9213 21.9093L19.878 21.8855L19.8344 21.866L19.7911 21.8418L19.7527 21.8176L19.7091 21.7934L19.6705 21.7692L19.6318 21.7449L19.5933 21.7159L19.5549 21.6868L19.5161 21.6577L19.4776 21.6287L19.4437 21.5996L19.4053 21.5657L19.4343 21.527L19.4679 21.493L19.497 21.4542L19.5307 21.4155L19.5597 21.3816L19.5885 21.3429L19.6224 21.3041L19.6512 21.2702L19.6851 21.2315L19.7139 21.1975L19.7478 21.1588L19.7766 21.12L19.8057 21.0861L19.8393 21.0474L19.8683 21.0086L19.902 20.9747L19.931 20.9359L19.9695 20.965L20.0128 20.9941L20.0516 21.0232L20.0949 21.0522L20.1336 21.0764L20.177 21.1054L20.2154 21.1297L20.2591 21.149L20.2975 21.1733L20.3408 21.1927L20.3844 21.2121L20.4277 21.2315L20.4711 21.246L20.5146 21.2653L20.5628 21.2799L20.611 21.2944L20.6543 21.309L20.7028 21.3187L20.7509 21.3283L20.7991 21.338L20.8521 21.3429L20.9005 21.3526H20.9487L21.0016 21.3573H21.0498H21.1076L21.1606 21.3526L21.2091 21.3429L21.2524 21.3332L21.2958 21.3235L21.3345 21.309L21.3681 21.2896L21.4069 21.2605L21.4357 21.2266L21.455 21.1878L21.4696 21.1443L21.4744 21.0958V21.0861L21.4696 21.0279L21.4502 20.9795L21.426 20.9456L21.3924 20.9165L21.3535 20.8875L21.3151 20.8681L21.2718 20.8487L21.2233 20.8293L21.1655 20.8052L21.1319 20.7954L21.0934 20.7858L21.0498 20.7712L21.0065 20.7615L20.9583 20.747L20.9099 20.7373L20.8569 20.7228L20.8087 20.7131L20.7557 20.6985L20.7076 20.6889L20.6591 20.6743L20.611 20.6646L20.5628 20.6501L20.5192 20.6356L20.4711 20.6259L20.4277 20.6113L20.3844 20.5968L20.3408 20.5823L20.2878 20.5629L20.2397 20.5435L20.1915 20.5241L20.1431 20.5047L20.0998 20.4805L20.0516 20.4563L20.0128 20.4321L19.9695 20.4079L19.931 20.3788L19.8923 20.3546L19.8587 20.3255L19.8248 20.2916L19.7911 20.2577L19.7621 20.2237L19.7333 20.1898L19.7091 20.156L19.6851 20.1172L19.6609 20.0736L19.6415 20.04L19.6269 20.0012L19.6128 19.9576L19.5982 19.9189L19.5885 19.8704L19.5788 19.8268L19.5739 19.7784L19.5692 19.7299L19.5643 19.6767V19.6234V19.6137V19.5652L19.5692 19.5168L19.5739 19.4732L19.5788 19.4247L19.5885 19.3812L19.5982 19.3376L19.6128 19.2939L19.6224 19.2504L19.6415 19.2067L19.6609 19.1631L19.6802 19.1196L19.7042 19.0759L19.7284 19.0324L19.7572 18.9936L19.7863 18.9548L19.8199 18.9161L19.8538 18.8822L19.8874 18.8434L19.9262 18.8095L19.9598 18.7853L19.9986 18.7562L20.0371 18.7271L20.0755 18.7029L20.1191 18.6787L20.1625 18.6593L20.2057 18.6351L20.2494 18.6157L20.2975 18.6012L20.3456 18.5818L20.3893 18.5673L20.4277 18.5575L20.4711 18.5479L20.5146 18.5382L20.5628 18.5285L20.6062 18.5188L20.6543 18.514L20.7028 18.5091L20.7509 18.5043L20.7991 18.4995H20.8472H20.9005H20.9535H21.0065L21.0595 18.5043L21.1125 18.5091H21.1606L21.2139 18.514L21.2621 18.5237L21.3151 18.5285L21.3633 18.5382L21.4069 18.5479L21.455 18.5575L21.5032 18.5673L21.5465 18.577L21.5949 18.5915L21.6383 18.606L21.6816 18.6157L21.73 18.6351L21.7734 18.6496L21.8166 18.669L21.86 18.6884L21.9084 18.7078L21.9517 18.732L21.9902 18.7514L22.0338 18.7756L22.0772 18.7998L22.1156 18.8241L22.1592 18.8531L22.1977 18.8773L22.2365 18.9064L22.2749 18.9355L22.3133 18.9645L22.2846 19.0033L22.2604 19.042L22.2316 19.0808L22.2025 19.1196L22.1738 19.1631L22.1495 19.2019L22.1204 19.2407L22.0916 19.2794L22.0675 19.3182L22.0386 19.3569L22.0096 19.3957L21.9854 19.4344L21.9566 19.478L21.9275 19.5168L21.8987 19.5555L21.8745 19.5943L21.8457 19.633L21.807 19.604L21.7637 19.5798L21.7252 19.5555L21.6864 19.5265L21.6432 19.5071L21.6043 19.4829L21.561 19.4634L21.5226 19.4441L21.479 19.4247L21.4405 19.4054L21.3972 19.3908L21.3585 19.3714L21.3054 19.3569L21.2573 19.3423L21.2091 19.3279L21.1606 19.3182L21.1125 19.3085L21.0643 19.2987L21.0162 19.2939L20.9677 19.2891L20.9245 19.2842H20.8763H20.8184L20.7654 19.2939L20.717 19.3036L20.6737 19.3133L20.6352 19.3327L20.6013 19.352L20.5579 19.3908L20.5289 19.4344L20.5099 19.478L20.5049 19.5265V19.5362L20.5099 19.5991L20.5337 19.6524L20.5531 19.6815L20.5867 19.7154L20.6303 19.7396L20.6688 19.7638L20.717 19.7832L20.7702 19.8027L20.8281 19.822L20.8666 19.8317L20.9051 19.8462L20.9487 19.8559L20.992 19.8704L21.0401 19.8801L21.0934 19.8946L21.1465 19.9092L21.1995 19.9237L21.2524 19.9334L21.3005 19.9479L21.3535 19.9625L21.402 19.9721L21.4502 19.9867L21.4984 20.0012L21.5417 20.0157L21.5901 20.0303L21.6335 20.0448L21.6768 20.0594L21.73 20.0784L21.7782 20.1027L21.8263 20.122L21.8745 20.1462L21.9181 20.1705L21.9615 20.1947L21.9999 20.2189L22.0386 20.248L22.0772 20.2722L22.1156 20.3062L22.1544 20.34L22.188 20.3788L22.2219 20.4127L22.2507 20.4515L22.2797 20.4951L22.3037 20.5338L22.3279 20.5774L22.3473 20.6162L22.3618 20.6598L22.3761 20.7034L22.3858 20.747L22.3954 20.7954L22.4051 20.8439L22.41 20.8923L22.4148 20.9456V20.9989V21.0086V21.0619L22.41 21.1152ZM19.0276 22.0838H18.9792H18.9311H18.883H18.8348H18.7863H18.7381H18.69H18.6418H18.5886H18.5404H18.4923H18.4441H18.3956H18.3475H18.2993H18.2511H18.2027H18.1545H18.1064H18.0582H18.01H17.9616H17.9135H17.8653H17.8171H17.7687H17.7205H17.6724H17.6194H17.5709H17.5227H17.4746H17.4265H17.378H17.3298H17.2817H17.2335H17.1851H17.1369H17.0888H17.0406H16.9921H16.944H16.8958H16.8477H16.7993H16.7511H16.6981H16.6499H16.6018H16.5533H16.5052H16.4569H16.4089H16.3604H16.3123H16.2641V22.0354V21.9869V21.9385V21.8903V21.8418V21.7934V21.7449V21.6966V21.6481V21.5996V21.5512V21.5027V21.4542V21.4058V21.3573V21.309V21.2605V21.2121V21.1684V21.12V21.0715V21.0232V20.9747V20.9262V20.8778V20.8293V20.7809V20.7324V20.684V20.6356V20.5871V20.5387V20.4902V20.4418V20.3933V20.3449V20.2964V20.248V20.1996V20.1511V20.1027V20.0545V20.0061V19.9576V19.9092V19.8607V19.8123V19.7638V19.7154V19.667V19.6185V19.5701V19.5216V19.4732V19.4296V19.3812V19.3327V19.2842V19.2358V19.1873V19.1389V19.0904V19.042V18.9936V18.9451V18.8967V18.8482V18.7998V18.7514V18.7029V18.6545V18.606V18.5575H16.3123H16.3604H16.4089H16.4569H16.5052H16.5533H16.6018H16.6499H16.6981H16.7463H16.7947H16.8429H16.891H16.9392H16.9827H17.0309H17.0791H17.1272H17.1757H17.2238H17.272H17.3202H17.3686H17.4167H17.4649H17.5131H17.5615H17.6097H17.6578H17.706H17.7544H17.8027H17.8507H17.8989H17.9471H17.9956H18.0437H18.0919H18.14H18.1885H18.2366H18.2848H18.3329H18.3766H18.4247H18.4729H18.521H18.5695H18.6176H18.6658H18.7139H18.7624H18.8105H18.8587H18.9069H18.9553H19.0035H19.0516V18.606V18.6496V18.6981V18.7465V18.7949V18.8385V18.887V18.9355V18.979V19.0275V19.0759V19.1196V19.168V19.2164V19.2649V19.3085V19.3569H19.0035H18.9553H18.9069H18.8587H18.8105H18.7624H18.7188H18.6706H18.6225H18.5743H18.5259H18.4777H18.4295H18.3814H18.3329H18.2848H18.2366H18.1885H18.14H18.0967H18.0485H18.0004H17.9519H17.9038H17.8556H17.8074H17.759H17.7108H17.6627H17.6145H17.5661H17.5179H17.4746H17.4265H17.378H17.3298H17.2817H17.2335H17.1851V19.4054V19.4538V19.5022V19.5507V19.5991V19.6427V19.6912V19.7396V19.7881V19.8365V19.8849V19.9334H17.2335H17.2817H17.3298H17.378H17.4265H17.4746H17.5227H17.5709H17.6145H17.6627H17.7108H17.759H17.8074H17.8556H17.9038H17.9519H18.0004H18.0485H18.0967H18.1449H18.1933H18.2414H18.2896H18.3378H18.3863H18.4344H18.4777H18.5259H18.5743H18.6225H18.6706H18.7188H18.7672H18.8154H18.8635V19.9818V20.0254V20.0736V20.122V20.1657V20.2141V20.2626V20.3062V20.3546V20.403V20.4515V20.4951V20.5435V20.592V20.6356V20.684H18.8154H18.7672H18.7188H18.6706H18.6225H18.5743H18.5259H18.4777H18.4344H18.3863H18.3378H18.2896H18.2414H18.1933H18.1449H18.0967H18.0485H18.0004H17.9519H17.9038H17.8556H17.8074H17.759H17.7108H17.6627H17.6145H17.5709H17.5227H17.4746H17.4265H17.378H17.3298H17.2817H17.2335H17.1851V20.7324V20.7858V20.8342V20.8827V20.9359V20.9844V21.0328V21.0861V21.1345V21.183V21.2363V21.2847H17.2335H17.2817H17.3298H17.378H17.4265H17.4746H17.5227H17.5709H17.6194H17.6724H17.7205H17.7687H17.8171H17.8653H17.9135H17.9616H18.01H18.0582H18.1064H18.1545H18.2027H18.2511H18.2993H18.3475H18.3956H18.4441H18.4923H18.5404H18.5886H18.6418H18.69H18.7381H18.7863H18.8348H18.883H18.9311H18.9792H19.0276H19.0759V21.3332V21.3768V21.4252V21.4737V21.5221V21.5657V21.6141V21.6626V21.7062V21.7546V21.8031V21.8467V21.8949V21.9433V21.9917V22.0354V22.0838H19.0276ZM15.5037 22.0838H15.4556H15.4074H15.3542H15.3061H15.2578H15.2097H15.1612H15.1131H15.0601H15.0119H14.9637H14.9153H14.8671H14.819H14.766H14.7175H14.6694H14.6212V22.0354V21.9869V21.9385V21.89V21.8412V21.7928V21.7444V21.6959V21.6475V21.599V21.5506V21.5019V21.4534V21.405V21.3565V21.3081V21.2593V21.2109V21.1625V21.114V21.0656V21.0172V20.9684V20.92V20.8715V20.823V20.7747V20.7262V20.6774V20.629V20.5805V20.5321V20.4837V20.4352V20.3865V20.3381V20.2896V20.2412V20.1927V20.144V20.0956V20.0471V19.9986L14.597 20.0374L14.5682 20.0813L14.544 20.1201L14.5152 20.1588L14.491 20.2024L14.4619 20.2412L14.438 20.2799L14.4137 20.3238L14.385 20.3626L14.3607 20.4013L14.3317 20.4401L14.3078 20.484L14.2787 20.5227L14.2548 20.5615L14.2305 20.6051L14.2015 20.6441L14.1775 20.6829L14.1484 20.7264L14.1245 20.7652L14.0955 20.804L14.0715 20.8478L14.0473 20.8867L14.0183 20.9254L13.9943 20.969L13.9653 21.008L13.9413 21.0467L13.9123 21.0856L13.888 21.1291L13.864 21.1681L13.835 21.2069L13.8111 21.2505L13.782 21.2893L13.7578 21.328L13.729 21.3719L13.7048 21.4107H13.6857L13.6566 21.3671L13.6324 21.328L13.6036 21.2844L13.5794 21.2457L13.5506 21.2021L13.5264 21.1631L13.4976 21.1195L13.4733 21.0806L13.4443 21.0371L13.4203 20.9984L13.3913 20.9544L13.3674 20.9157L13.3383 20.8721L13.3141 20.8333L13.2853 20.7894L13.2611 20.7507L13.2323 20.7071L13.2032 20.6683L13.179 20.6245L13.1502 20.5857L13.126 20.5421L13.0972 20.5034L13.073 20.4594L13.0442 20.4207L13.02 20.3771L12.9909 20.3383L12.967 20.2947L12.9379 20.2557L12.914 20.2121L12.8849 20.1733L12.8607 20.1297L12.832 20.091L12.8077 20.0471L12.7789 20.0084V20.0568V20.1052V20.1537V20.2024V20.2509V20.2993V20.3477V20.3962V20.4449V20.4934V20.537V20.5854V20.6339V20.6823V20.731V20.7795V20.8279V20.8763V20.9248V20.9733V21.0219V21.0704V21.1189V21.1673V21.2158V21.2642V21.3129V21.3614V21.4098V21.4583V21.5067V21.5554V21.599V21.6475V21.6959V21.7444V21.7928V21.8412V21.89V21.9385V21.9869V22.0354V22.0838H12.7307H12.6823H12.6341H12.586H12.5378H12.4894H12.4412H12.3931H12.3449H12.2964H12.2483H12.2001H12.152H12.1035H12.0554H12.0072H11.959H11.9106H11.8624V22.0354V21.9869V21.9385V21.8903V21.8418V21.7934V21.7449V21.6966V21.6481V21.5996V21.5512V21.5027V21.4542V21.4058V21.3573V21.309V21.2605V21.2121V21.1684V21.12V21.0715V21.0232V20.9747V20.9262V20.8778V20.8293V20.7809V20.7324V20.684V20.6356V20.5871V20.5387V20.4902V20.4418V20.3933V20.3449V20.2964V20.248V20.1996V20.1511V20.1027V20.0545V20.0061V19.9576V19.9092V19.8607V19.8123V19.7638V19.7154V19.667V19.6185V19.5701V19.5216V19.4732V19.4296V19.3812V19.3327V19.2842V19.2358V19.1873V19.1389V19.0904V19.042V18.9936V18.9451V18.8967V18.8482V18.7998V18.7514V18.7029V18.6545V18.606V18.5575H11.9106H11.959H12.0024H12.0505H12.0987H12.1471H12.1904H12.2386H12.287H12.3352H12.3786H12.4267H12.4752H12.5233H12.5666H12.6147H12.6632H12.7114H12.7547H12.8028H12.8513L12.8753 18.5963L12.8994 18.6399L12.9282 18.6784L12.9525 18.722L12.9766 18.7607L13.0006 18.8044L13.0248 18.8428L13.0536 18.8865L13.0778 18.9252L13.1021 18.964L13.126 19.0072L13.1502 19.046L13.179 19.0896L13.2032 19.1284L13.2274 19.1717L13.2514 19.2104L13.2804 19.2491L13.3047 19.2925L13.3286 19.3312L13.3528 19.3749L13.3768 19.4136L13.4059 19.4569L13.4301 19.4957L13.454 19.5393L13.4782 19.5777L13.5022 19.6165L13.5312 19.6601L13.5555 19.6989L13.5794 19.7425L13.6036 19.781L13.6275 19.8246L13.6566 19.8633L13.6808 19.9066L13.7048 19.9454L13.729 19.9066L13.7532 19.8633L13.782 19.8246L13.8062 19.781L13.8301 19.7425L13.8544 19.6989L13.8832 19.6601L13.9074 19.6165L13.9316 19.5777L13.9555 19.5393L13.9846 19.4957L14.0085 19.4569L14.0328 19.4136L14.0569 19.3749L14.0857 19.3312L14.1099 19.2925L14.1342 19.2491L14.1581 19.2104L14.1824 19.1717L14.2112 19.1284L14.2354 19.0896L14.2596 19.046L14.2836 19.0072L14.3126 18.964L14.3366 18.9252L14.3607 18.8865L14.385 18.8428L14.4137 18.8044L14.438 18.7607L14.4619 18.722L14.4862 18.6784L14.5152 18.6399L14.5392 18.5963L14.5634 18.5575H14.6115H14.6597H14.7033H14.7515H14.7996H14.8478H14.8914H14.9396H14.9877H15.0359H15.0795H15.1276H15.1758H15.2239H15.2675H15.3157H15.3638H15.412H15.4556H15.5037H15.5519V18.606V18.6545V18.7029V18.7514V18.7998V18.8482V18.8967V18.9451V18.9936V19.042V19.0904V19.1389V19.1873V19.2358V19.2842V19.3327V19.3812V19.4296V19.4732V19.5216V19.5701V19.6185V19.667V19.7154V19.7638V19.8123V19.8607V19.9092V19.9576V20.0061V20.0545V20.1027V20.1511V20.1996V20.248V20.2964V20.3449V20.3933V20.4418V20.4902V20.5387V20.5871V20.6356V20.684V20.7324V20.7809V20.8293V20.8778V20.9262V20.9747V21.0232V21.0715V21.12V21.1684V21.2121V21.2605V21.309V21.3573V21.4058V21.4542V21.5027V21.5512V21.5996V21.6481V21.6966V21.7449V21.7934V21.8418V21.8903V21.9385V21.9869V22.0354V22.0838H15.5037ZM9.90788 20.6307L9.89333 20.5868L9.87424 20.5384L9.85487 20.4948L9.84032 20.4509L9.82123 20.4073L9.8019 20.3588L9.78731 20.315L9.7679 20.2713L9.74889 20.2278L9.7343 20.1839L9.71489 20.1355L9.7007 20.0919L9.68129 20.048L9.66188 20.0044L9.64741 19.9607L9.62828 19.9121L9.60895 19.8684L9.5944 19.8249L9.57499 19.781L9.55594 19.7325L9.54139 19.6886L9.52198 19.645L9.50293 19.6886L9.48842 19.7325L9.46905 19.781L9.44964 19.8249L9.43537 19.8684L9.41604 19.9121L9.39663 19.9607L9.37754 20.0044L9.36295 20.048L9.34362 20.0919L9.32421 20.1355L9.30994 20.1839L9.29061 20.2278L9.2712 20.2713L9.25673 20.315L9.2376 20.3588L9.21819 20.4073L9.19886 20.4509L9.18463 20.4948L9.16526 20.5384L9.14585 20.5868L9.1313 20.6307L9.11225 20.6743H9.1604H9.20854H9.25673H9.30516H9.35331H9.40145H9.44964H9.49811H9.54139H9.58954H9.63801H9.68615H9.7343H9.78249H9.83063H9.87906H9.92721L9.90788 20.6307ZM11.4225 22.0838H11.3741H11.3307H11.2826H11.2341H11.186H11.1378H11.0945H11.046H10.9979H10.9497H10.9015H10.8531H10.8098H10.7616H10.7134H10.665H10.6169H10.5735H10.5254H10.477L10.4578 22.0401L10.4433 21.9965L10.4239 21.9529L10.4046 21.9045L10.3903 21.8612L10.3709 21.8176L10.3516 21.774L10.3373 21.7304L10.3179 21.6868L10.2986 21.6432L10.284 21.5996L10.2649 21.5512L10.2455 21.5076L10.231 21.464L10.2116 21.4204H10.1634H10.1153H10.0671H10.019H9.97539H9.92721H9.87906H9.83063H9.78249H9.7343H9.68615H9.63801H9.58954H9.54139H9.49811H9.44964H9.40145H9.35331H9.30516H9.25673H9.20854H9.1604H9.11225H9.06411H9.02042H8.97235H8.92413H8.87566H8.82751L8.80846 21.464L8.79391 21.5076L8.7745 21.5512L8.75517 21.5996L8.7409 21.6432L8.72157 21.6868L8.70216 21.7304L8.68761 21.774L8.66856 21.8176L8.64915 21.8612L8.6346 21.9045L8.61547 21.9529L8.59614 21.9965L8.58159 22.0401L8.56222 22.0838H8.51408H8.46593H8.41778H8.36931H8.32117H8.26816H8.22001H8.17179H8.1234H8.07525H8.0271H7.97888H7.93041H7.88234H7.8342H7.78119H7.73272H7.68457H7.63635H7.5882L7.60729 22.0401L7.6267 21.9965L7.64603 21.9529L7.66516 21.9045L7.67971 21.8612L7.69908 21.8176L7.71845 21.774L7.7375 21.7304L7.75691 21.6868L7.77633 21.6384L7.79537 21.5947L7.81479 21.5512L7.82925 21.5076L7.84867 21.464L7.86775 21.4204L7.88713 21.3719L7.9065 21.3283L7.92563 21.2847L7.945 21.2411L7.96437 21.1975L7.97888 21.1539L7.99797 21.1054L8.01738 21.0619L8.03675 21.0183L8.05584 20.9747L8.07525 20.9311L8.09462 20.8875L8.11371 20.839L8.12826 20.7954L8.14763 20.7518L8.167 20.7082L8.18613 20.6646L8.20546 20.621L8.2248 20.5726L8.24392 20.529L8.2633 20.4854L8.2778 20.4418L8.29722 20.3982L8.3163 20.3546L8.33568 20.3062L8.35509 20.2626L8.37418 20.2189L8.39351 20.1753L8.41292 20.1318L8.42743 20.0881L8.44656 20.0448L8.46593 19.9964L8.48526 19.9528L8.50439 19.9092L8.52372 19.8656L8.54313 19.822L8.56222 19.7784L8.57673 19.7299L8.59614 19.6863L8.61547 19.6427L8.6346 19.5991L8.65402 19.5555L8.67335 19.5119L8.69247 19.4634L8.71185 19.4199L8.72636 19.3763L8.74573 19.3327L8.76486 19.2891L8.78419 19.2455L8.8036 19.1971L8.82265 19.1535L8.84206 19.1098L8.86147 19.0662L8.87566 19.0227L8.89507 18.979L8.91448 18.9306L8.93385 18.887L8.95294 18.8434L8.97235 18.7998L8.99168 18.7562L9.01077 18.7126L9.02536 18.6642L9.04469 18.6206L9.06411 18.577L9.08315 18.5334H9.1313H9.17491H9.22305H9.2712H9.31967H9.36295H9.4111H9.45932H9.50779H9.55112H9.59922H9.64741H9.69584H9.73916H9.78731H9.83545H9.88392H9.92721H9.97539L9.99476 18.577L10.0141 18.6206L10.0333 18.6642L10.0526 18.7126L10.0671 18.7562L10.0862 18.7998L10.1056 18.8434L10.125 18.887L10.1444 18.9306L10.1634 18.979L10.1829 19.0227L10.2023 19.0662L10.2164 19.1098L10.2359 19.1535L10.2553 19.1971L10.2746 19.2455L10.2937 19.2891L10.3131 19.3327L10.3325 19.3763L10.3516 19.4199L10.3661 19.4634L10.3854 19.5119L10.4046 19.5555L10.4239 19.5991L10.4433 19.6427L10.4627 19.6863L10.4818 19.7299L10.5011 19.7784L10.5157 19.822L10.5348 19.8656L10.5541 19.9092L10.5735 19.9528L10.5929 19.9964L10.612 20.0448L10.6314 20.0881L10.6507 20.1318L10.665 20.1753L10.6844 20.2189L10.7037 20.2626L10.7229 20.3062L10.7422 20.3546L10.7616 20.3982L10.781 20.4418L10.8001 20.4854L10.8146 20.529L10.834 20.5726L10.8531 20.621L10.8725 20.6646L10.8919 20.7082L10.9112 20.7518L10.9303 20.7954L10.9497 20.839L10.9642 20.8875L10.9833 20.9311L11.0027 20.9747L11.0221 21.0183L11.0412 21.0619L11.0605 21.1054L11.08 21.1539L11.0994 21.1975L11.1135 21.2411L11.133 21.2847L11.1524 21.3283L11.1714 21.3719L11.1908 21.4204L11.2102 21.464L11.2295 21.5076L11.2486 21.5512L11.2632 21.5947L11.2826 21.6384L11.3017 21.6868L11.321 21.7304L11.3403 21.774L11.3595 21.8176L11.3788 21.8612L11.3982 21.9045L11.4128 21.9529L11.4318 21.9965L11.4512 22.0401L11.4706 22.0838H11.4225ZM7.19728 21.6335L7.15853 21.6626L7.12486 21.6868L7.08611 21.7159L7.04765 21.7401L7.00915 21.7692L6.97041 21.7934L6.93195 21.8176L6.88834 21.8418L6.84502 21.866L6.80165 21.8903L6.75813 21.9093L6.71477 21.9336L6.66662 21.9529L6.62334 21.9723L6.57487 21.9917L6.53158 22.0111L6.48822 22.0256L6.44465 22.0401L6.40133 22.0547L6.35318 22.0692L6.3099 22.0838L6.26143 22.0935L6.21807 22.1032L6.16992 22.1128L6.12153 22.1225L6.07331 22.1274L6.0203 22.1322L5.97215 22.1371L5.91914 22.1419L5.87067 22.1468L5.81774 22.1516H5.76473H5.71164H5.65872H5.61025L5.5621 22.1468L5.50909 22.1419L5.46095 22.1371L5.4128 22.1322L5.36433 22.1274L5.31618 22.1177L5.26796 22.108L5.22467 22.0983L5.17628 22.0886L5.13292 22.0741L5.08477 22.0644L5.04117 22.0498L4.99784 22.0305L4.95452 22.0159L4.90642 21.9965L4.86281 21.9772L4.81949 21.9579L4.7762 21.9385L4.73252 21.9143L4.6941 21.8903L4.65077 21.866L4.61203 21.8418L4.57357 21.8176L4.53483 21.7885L4.49633 21.7595L4.45782 21.7304L4.42394 21.7013L4.39031 21.6723L4.35639 21.6384L4.32279 21.6093L4.28883 21.5754L4.25523 21.5415L4.22617 21.5076L4.19736 21.4688L4.1683 21.4349L4.14407 21.3962L4.11529 21.3573L4.09114 21.3187L4.06715 21.2799L4.04292 21.2363L4.01872 21.1975L3.99964 21.1539L3.98024 21.1103L3.9609 21.0667L3.94177 21.0232L3.92723 20.9844L3.90783 20.9407L3.89816 20.8971L3.8839 20.8536L3.87422 20.8052L3.85969 20.7615L3.85002 20.7131L3.84515 20.6695L3.83543 20.621L3.83067 20.5774L3.82575 20.529L3.82121 20.4805L3.81641 20.4321V20.3788V20.3304V20.3207V20.2722L3.82121 20.2189V20.1705L3.82575 20.122L3.83067 20.0688L3.84034 20.0206L3.84515 19.9721L3.85483 19.9285L3.86936 19.8801L3.87909 19.8317L3.8933 19.7881L3.90783 19.7396L3.92237 19.696L3.94177 19.6476L3.9609 19.604L3.98024 19.5604L3.99964 19.5168L4.01872 19.4732L4.04292 19.4296L4.06715 19.3908L4.09114 19.352L4.11529 19.3133L4.13953 19.2745L4.1683 19.2358L4.19736 19.1971L4.22617 19.1583L4.25523 19.1243L4.28883 19.0904L4.31793 19.0565L4.35156 19.0227L4.38544 18.9887L4.41908 18.9597L4.45782 18.9257L4.49146 18.8967L4.52996 18.8676L4.56871 18.8434L4.60717 18.8143L4.64595 18.7901L4.68437 18.7659L4.72773 18.7417L4.77134 18.7174L4.81462 18.6932L4.85795 18.6738L4.90151 18.6545L4.9497 18.6302L4.98816 18.6157L5.0363 18.6012L5.07999 18.5818L5.12328 18.5721L5.16656 18.5575L5.21495 18.5479L5.25831 18.5334L5.30646 18.5237L5.35464 18.5188L5.40307 18.5091L5.45126 18.5043L5.49936 18.4995L5.54755 18.4946L5.59602 18.4897H5.64903H5.69718H5.75014H5.80315L5.85649 18.4946L5.9095 18.4995H5.95764L6.00579 18.5043L6.0588 18.514L6.1024 18.5188L6.15055 18.5285L6.19874 18.5382L6.2423 18.5479L6.28559 18.5575L6.32895 18.5673L6.37256 18.5818L6.41584 18.5915L6.45434 18.606L6.49795 18.6206L6.54127 18.6399L6.58455 18.6593L6.62816 18.6787L6.67148 18.7029L6.71477 18.7223L6.75359 18.7465L6.79687 18.7707L6.83533 18.7949L6.87894 18.8192L6.9174 18.8482L6.9559 18.8725L6.99464 18.9015L7.0331 18.9306L7.07185 18.9645L7.11031 18.9936L7.08125 19.0324L7.04765 19.0662L7.01855 19.105L6.98496 19.1437L6.9559 19.1825L6.92709 19.2164L6.89316 19.2551L6.86439 19.2939L6.83533 19.3279L6.80165 19.3666L6.77264 19.4054L6.739 19.4441L6.7099 19.478L6.68117 19.5168L6.64729 19.5555L6.61843 19.5943L6.58455 19.6282L6.55574 19.667L6.51699 19.6379L6.47853 19.604L6.43979 19.5798L6.40133 19.5507L6.36283 19.5265L6.32409 19.5022L6.28559 19.478L6.2423 19.4538L6.20356 19.4344L6.16506 19.4151L6.12632 19.4005L6.08299 19.386L6.03971 19.3714L5.9961 19.3618L5.94796 19.352L5.89981 19.3423L5.85162 19.3376L5.79862 19.3327L5.74532 19.3279H5.69231H5.64417L5.59602 19.3327L5.55241 19.3376L5.50427 19.3472L5.46095 19.3569L5.41734 19.3714L5.37406 19.386L5.33069 19.4054L5.28737 19.4247L5.24863 19.4489L5.21021 19.4732L5.17142 19.4974L5.13778 19.5265L5.10386 19.5555L5.07027 19.5846L5.04117 19.6185L5.00757 19.6524L4.97851 19.6912L4.95452 19.7251L4.93029 19.7638L4.90642 19.8074L4.88214 19.8462L4.86281 19.8898L4.84826 19.9334L4.82913 19.977L4.81462 20.0254L4.80494 20.0736L4.79525 20.1172L4.78552 20.1705L4.78074 20.2189L4.7762 20.2673V20.3207V20.3304V20.3788L4.78074 20.4273L4.78552 20.4709L4.79039 20.5193L4.80007 20.5629L4.8098 20.6065L4.81949 20.6501L4.83399 20.6937L4.84826 20.7324L4.86767 20.7809L4.887 20.8245L4.91096 20.8681L4.93515 20.9068L4.95939 20.9456L4.98816 20.9844L5.01726 21.0183L5.05085 21.0522L5.07999 21.0861L5.11355 21.1152L5.15233 21.1443L5.19079 21.1733L5.22921 21.1975L5.26796 21.2217L5.31136 21.2411L5.35464 21.2605L5.39821 21.2799L5.4464 21.2944L5.49454 21.309L5.54301 21.3187L5.59116 21.3283L5.6393 21.3332L5.69231 21.338H5.74532H5.80315L5.85649 21.3332L5.9095 21.3283L5.95764 21.3235L6.00579 21.3137L6.05426 21.3041L6.1024 21.2896L6.14569 21.2799L6.18905 21.2605L6.22779 21.2411L6.27108 21.2217L6.30496 21.2024L6.3435 21.1781V21.1297V21.0813V21.0328V20.9844V20.9311V20.8827V20.8342V20.7858V20.7373H6.29531H6.25175H6.20356H6.15541H6.10727H6.06366H6.01543H5.96729H5.91914H5.87562H5.82739H5.77924H5.73106H5.68749H5.6393V20.6889V20.6453V20.5968V20.5484V20.4999V20.4563V20.4079V20.3594V20.311V20.2673V20.2189V20.1705V20.122V20.0784V20.0303H5.68749H5.73592H5.78411H5.83221H5.8804H5.92854H5.97701H6.02516H6.07331H6.12153H6.16992H6.21807H6.26621H6.31436H6.36283H6.41106H6.4592H6.50735H6.55574H6.60396H6.65211H6.70026H6.74865H6.79687H6.84502H6.89316H6.94163H6.98978H7.03797H7.08611H7.13454H7.18269H7.23087V20.0784V20.1269V20.1753V20.2189V20.2673V20.3158V20.3642V20.4127V20.4612V20.5047V20.5532V20.6017V20.6501V20.6985V20.747V20.7954V20.839V20.8875V20.9359V20.9844V21.0328V21.0813V21.1297V21.1733V21.2217V21.2702V21.3187V21.3671V21.4155V21.4591V21.5076V21.556V21.6045L7.19728 21.6335Z" fill="#343434"/>
<path d="M5.6461 10.579H7.73639V8.96211H5.6461V5.66128H7.8196V4.04443H3.87109V15.7135H7.85267V14.0966H5.6461V10.579Z" fill="#343434"/>
<path d="M20.6148 10.9292V13.5631C20.6148 14.03 20.399 14.2465 19.9513 14.2465H19.6193C19.1549 14.2465 18.9391 14.03 18.9391 13.5631V6.19471C18.9391 5.72796 19.1549 5.51138 19.6193 5.51138H19.918C20.366 5.51138 20.5817 5.72796 20.5817 6.19471V8.47876H22.3235V6.09469C22.3235 4.64451 21.6267 3.94434 20.1836 3.94434H19.3207C17.8777 3.94434 17.1641 4.66105 17.1641 6.1115V13.6463C17.1641 15.0968 17.8777 15.8135 19.3207 15.8135H20.2001C21.6435 15.8135 22.3568 15.0968 22.3568 13.6463V10.9292H20.6148Z" fill="#343434"/>
<path d="M14.4531 15.7136H16.2284V4.04443H14.4531V15.7136Z" fill="#343434"/>
<path d="M11.8756 9.22886C11.8756 9.69564 11.6601 9.9125 11.2122 9.9125H10.4821V5.61147H11.2122C11.6601 5.61147 11.8756 5.82809 11.8756 6.29479V9.22886ZM11.4941 4.04443H8.70703V15.7136H10.4821V11.4792H11.4941C12.9374 11.4792 13.6507 10.7626 13.6507 9.31238V6.21159C13.6507 4.76117 12.9374 4.04443 11.4941 4.04443Z" fill="#343434"/>
<path fill-rule="evenodd" clip-rule="evenodd" d="M8.05859 26.2649H18.2203L13.0335 27.9754L8.05859 26.2649Z" fill="#343434"/>
</g>
<path d="M7.88672 32.3608L10.9609 32.3611V33.266H9.91995V36.3992H8.92392V33.266H7.88672V32.3608Z" fill="white"/>
<path d="M6.54886 33.7182H7.45504C7.45504 33.3592 7.49598 32.9662 6.7994 32.549C6.25776 32.2245 5.46181 32.3847 5.15596 32.5564C4.63174 32.8507 4.49671 33.2496 4.50818 33.6786C4.52726 34.392 5.05091 34.5515 5.54084 34.734C5.85877 34.8524 6.21857 34.9235 6.45152 35.1377C6.5408 35.2198 6.578 35.3813 6.38412 35.4561C6.1083 35.5623 5.81257 35.5745 5.5053 35.3772C5.40013 35.3097 5.36564 35.2034 5.36564 35.089L4.40625 35.0767C4.40625 35.409 4.46639 35.6824 4.67669 35.9205C4.97958 36.2635 5.39462 36.3649 5.84491 36.3961C6.40925 36.4353 6.74015 36.3365 7.01318 36.1602C7.29095 35.9807 7.46651 35.7075 7.51867 35.3362C7.55032 35.1109 7.57508 34.8901 7.31648 34.5684C7.08447 34.3444 6.68807 34.1227 6.18566 33.9692C5.94505 33.8782 5.58967 33.7801 5.52609 33.6251C5.46096 33.4917 5.56126 33.3584 5.64601 33.3093C5.78331 33.2323 5.98185 33.2315 6.15535 33.297C6.35701 33.3732 6.54886 33.5202 6.54886 33.7182Z" fill="white"/>
<path d="M11.3681 33.6621L11.3594 34.9917C11.3594 36.8377 14.5571 36.8887 14.5571 34.9917V33.6621C14.5571 31.856 11.3681 31.9923 11.3681 33.6621ZM12.9607 33.1944C13.2718 33.1996 13.5828 33.4016 13.5828 33.7846V34.9498C13.5828 35.7052 12.3384 35.6927 12.3384 34.9498V33.7846C12.3384 33.3806 12.6495 33.1891 12.9607 33.1944Z" fill="white"/>
<path d="M15.3359 32.3521V36.3865H16.3168V34.9476H16.6989L17.4811 36.3813H18.4811V36.0224L17.759 34.8118C18.7779 34.2234 18.5296 32.3566 17.2387 32.3566L15.3359 32.3521ZM16.3191 33.2145L16.8752 33.2252C17.5087 33.2252 17.4738 34.0723 16.8752 34.0764H16.3191V33.2145Z" fill="white"/>
<path d="M19.1484 32.3427L21.7171 32.3401V33.1936H20.122V33.9439H21.485V34.7903H20.107V35.5393H21.7696V36.3759H19.1484V32.3427Z" fill="white"/>
</g>
<defs>
<clipPath id="clip0_5729_9742">
<rect width="26.2614" height="40" fill="white"/>
</clipPath>
</defs>
</svg>
