<svg width="40" height="40" viewBox="0 0 40 40" fill="none" xmlns="http://www.w3.org/2000/svg">
<path d="M20.0013 4.16675C15.802 4.16675 11.7748 5.8349 8.80544 8.80422C5.83612 11.7735 4.16797 15.8008 4.16797 20.0001C4.16797 24.1993 5.83612 28.2266 8.80544 31.1959C11.7748 34.1653 15.802 35.8334 20.0013 35.8334C24.2006 35.8334 28.2278 34.1653 31.1972 31.1959C34.1665 28.2266 35.8346 24.1993 35.8346 20.0001C35.8346 15.8008 34.1665 11.7735 31.1972 8.80422C28.2278 5.8349 24.2006 4.16675 20.0013 4.16675Z" fill="#039BE5"/>
<path d="M22.144 24.1969H26.2415L26.8848 20.0344H22.1432V17.7594C22.1432 16.0302 22.7082 14.4969 24.3257 14.4969H26.9248V10.8644C26.4682 10.8027 25.5023 10.6677 23.6773 10.6677C19.8665 10.6677 17.6323 12.6802 17.6323 17.2652V20.0344H13.7148V24.1969H17.6323V35.6377C18.4082 35.7544 19.194 35.8336 20.0007 35.8336C20.7298 35.8336 21.4415 35.7669 22.144 35.6719V24.1969Z" fill="white"/>
</svg>
