<svg width="44" height="44" viewBox="0 0 44 44" fill="none" xmlns="http://www.w3.org/2000/svg">
<rect width="44" height="44" rx="4" fill="#8EC9ED" fill-opacity="0.1"/>
<path d="M27.8887 20.8967C29.2837 20.7007 30.3577 19.5047 30.3607 18.0557C30.3607 16.6277 29.3197 15.4437 27.9547 15.2197" stroke="#8EC9ED" stroke-width="1.5" stroke-linecap="round" stroke-linejoin="round"/>
<path d="M29.7285 24.2505C31.0795 24.4525 32.0225 24.9255 32.0225 25.9005C32.0225 26.5715 31.5785 27.0075 30.8605 27.2815" stroke="#8EC9ED" stroke-width="1.5" stroke-linecap="round" stroke-linejoin="round"/>
<path fill-rule="evenodd" clip-rule="evenodd" d="M21.8867 24.6638C18.6727 24.6638 15.9277 25.1508 15.9277 27.0958C15.9277 29.0398 18.6557 29.5408 21.8867 29.5408C25.1007 29.5408 27.8447 29.0588 27.8447 27.1128C27.8447 25.1668 25.1177 24.6638 21.8867 24.6638Z" stroke="#8EC9ED" stroke-width="1.5" stroke-linecap="round" stroke-linejoin="round"/>
<path fill-rule="evenodd" clip-rule="evenodd" d="M21.8874 21.888C23.9964 21.888 25.7064 20.179 25.7064 18.069C25.7064 15.96 23.9964 14.25 21.8874 14.25C19.7784 14.25 18.0684 15.96 18.0684 18.069C18.0604 20.171 19.7574 21.881 21.8594 21.888H21.8874Z" stroke="#8EC9ED" stroke-width="1.5" stroke-linecap="round" stroke-linejoin="round"/>
<path d="M15.8841 20.8967C14.4881 20.7007 13.4151 19.5047 13.4121 18.0557C13.4121 16.6277 14.4531 15.4437 15.8181 15.2197" stroke="#8EC9ED" stroke-width="1.5" stroke-linecap="round" stroke-linejoin="round"/>
<path d="M14.044 24.2505C12.693 24.4525 11.75 24.9255 11.75 25.9005C11.75 26.5715 12.194 27.0075 12.912 27.2815" stroke="#8EC9ED" stroke-width="1.5" stroke-linecap="round" stroke-linejoin="round"/>
</svg>
