<svg width="18" height="18" viewBox="0 0 18 18" fill="none" xmlns="http://www.w3.org/2000/svg">
<path d="M5.25 12.75C4.2125 12.75 3.32813 12.3844 2.59688 11.6531C1.86563 10.9219 1.5 10.0375 1.5 9C1.5 7.9625 1.86563 7.07813 2.59688 6.34688C3.32813 5.61563 4.2125 5.25 5.25 5.25H7.5C7.7125 5.25 7.89063 5.32188 8.03438 5.46563C8.17813 5.60938 8.25 5.7875 8.25 6C8.25 6.2125 8.17813 6.39062 8.03438 6.53438C7.89063 6.67813 7.7125 6.75 7.5 6.75H5.25C4.625 6.75 4.09375 6.96875 3.65625 7.40625C3.21875 7.84375 3 8.375 3 9C3 9.625 3.21875 10.1562 3.65625 10.5938C4.09375 11.0313 4.625 11.25 5.25 11.25H7.5C7.7125 11.25 7.89063 11.3219 8.03438 11.4656C8.17813 11.6094 8.25 11.7875 8.25 12C8.25 12.2125 8.17813 12.3906 8.03438 12.5344C7.89063 12.6781 7.7125 12.75 7.5 12.75H5.25ZM6.75 9.75C6.5375 9.75 6.35938 9.67813 6.21563 9.53438C6.07188 9.39062 6 9.2125 6 9C6 8.7875 6.07188 8.60938 6.21563 8.46563C6.35938 8.32188 6.5375 8.25 6.75 8.25H11.25C11.4625 8.25 11.6406 8.32188 11.7844 8.46563C11.9281 8.60938 12 8.7875 12 9C12 9.2125 11.9281 9.39062 11.7844 9.53438C11.6406 9.67813 11.4625 9.75 11.25 9.75H6.75ZM10.5 12.75C10.2875 12.75 10.1094 12.6781 9.96563 12.5344C9.82188 12.3906 9.75 12.2125 9.75 12C9.75 11.7875 9.82188 11.6094 9.96563 11.4656C10.1094 11.3219 10.2875 11.25 10.5 11.25H12.75C13.375 11.25 13.9063 11.0313 14.3438 10.5938C14.7813 10.1562 15 9.625 15 9C15 8.375 14.7813 7.84375 14.3438 7.40625C13.9063 6.96875 13.375 6.75 12.75 6.75H10.5C10.2875 6.75 10.1094 6.67813 9.96563 6.53438C9.82188 6.39062 9.75 6.2125 9.75 6C9.75 5.7875 9.82188 5.60938 9.96563 5.46563C10.1094 5.32188 10.2875 5.25 10.5 5.25H12.75C13.7875 5.25 14.6719 5.61563 15.4031 6.34688C16.1344 7.07813 16.5 7.9625 16.5 9C16.5 10.0375 16.1344 10.9219 15.4031 11.6531C14.6719 12.3844 13.7875 12.75 12.75 12.75H10.5Z" fill="#8EC9ED"/>
</svg>
