<svg width="48" height="48" viewBox="0 0 48 48" fill="none" xmlns="http://www.w3.org/2000/svg">
<rect width="48" height="48" rx="4" fill="#4A352F"/>
<path d="M16.8082 21.4412L18.7735 19.469C20.1896 18.048 20.7446 17.2836 21.5114 17.5538C22.4675 17.8908 22.1528 20.0169 22.1528 20.7347C23.6393 20.7347 25.1848 20.6026 26.6502 20.8779C31.4874 21.7866 33 25.7153 33 30C31.6309 29.0302 30.2632 27.997 28.6177 27.5476C26.5636 26.9865 24.2696 27.2542 22.1528 27.2542C22.1528 27.972 22.4675 30.0982 21.5114 30.4351C20.6425 30.7413 20.1896 29.9409 18.7735 28.5199L16.8082 26.5477C15.6027 25.338 15 24.7332 15 23.9945C15 23.2558 15.6027 22.6509 16.8082 21.4412Z" stroke="#FDEB56" stroke-width="1.5" stroke-linecap="round" stroke-linejoin="round"/>
</svg>
