<svg width="18" height="19" viewBox="0 0 18 19" fill="none" xmlns="http://www.w3.org/2000/svg">
<path d="M5.25 13.25C4.2125 13.25 3.32813 12.8844 2.59688 12.1531C1.86563 11.4219 1.5 10.5375 1.5 9.5C1.5 8.4625 1.86563 7.57813 2.59688 6.84688C3.32813 6.11563 4.2125 5.75 5.25 5.75H7.5C7.7125 5.75 7.89063 5.82188 8.03438 5.96563C8.17813 6.10938 8.25 6.2875 8.25 6.5C8.25 6.7125 8.17813 6.89062 8.03438 7.03438C7.89063 7.17813 7.7125 7.25 7.5 7.25H5.25C4.625 7.25 4.09375 7.46875 3.65625 7.90625C3.21875 8.34375 3 8.875 3 9.5C3 10.125 3.21875 10.6562 3.65625 11.0938C4.09375 11.5313 4.625 11.75 5.25 11.75H7.5C7.7125 11.75 7.89063 11.8219 8.03438 11.9656C8.17813 12.1094 8.25 12.2875 8.25 12.5C8.25 12.7125 8.17813 12.8906 8.03438 13.0344C7.89063 13.1781 7.7125 13.25 7.5 13.25H5.25ZM6.75 10.25C6.5375 10.25 6.35938 10.1781 6.21563 10.0344C6.07188 9.89062 6 9.7125 6 9.5C6 9.2875 6.07188 9.10938 6.21563 8.96563C6.35938 8.82188 6.5375 8.75 6.75 8.75H11.25C11.4625 8.75 11.6406 8.82188 11.7844 8.96563C11.9281 9.10938 12 9.2875 12 9.5C12 9.7125 11.9281 9.89062 11.7844 10.0344C11.6406 10.1781 11.4625 10.25 11.25 10.25H6.75ZM10.5 13.25C10.2875 13.25 10.1094 13.1781 9.96563 13.0344C9.82188 12.8906 9.75 12.7125 9.75 12.5C9.75 12.2875 9.82188 12.1094 9.96563 11.9656C10.1094 11.8219 10.2875 11.75 10.5 11.75H12.75C13.375 11.75 13.9063 11.5313 14.3438 11.0938C14.7813 10.6562 15 10.125 15 9.5C15 8.875 14.7813 8.34375 14.3438 7.90625C13.9063 7.46875 13.375 7.25 12.75 7.25H10.5C10.2875 7.25 10.1094 7.17813 9.96563 7.03438C9.82188 6.89062 9.75 6.7125 9.75 6.5C9.75 6.2875 9.82188 6.10938 9.96563 5.96563C10.1094 5.82188 10.2875 5.75 10.5 5.75H12.75C13.7875 5.75 14.6719 6.11563 15.4031 6.84688C16.1344 7.57813 16.5 8.4625 16.5 9.5C16.5 10.5375 16.1344 11.4219 15.4031 12.1531C14.6719 12.8844 13.7875 13.25 12.75 13.25H10.5Z" fill="#182228"/>
</svg>
