<svg width="40" height="40" viewBox="0 0 40 40" fill="none" xmlns="http://www.w3.org/2000/svg">
<path d="M20.0008 2.3999C10.8728 2.3999 3.36828 9.34453 2.48828 18.2405L11.4414 22.8233C12.3454 22.0633 13.5208 21.5999 14.8008 21.5999H14.8414C15.1534 21.1199 15.5123 20.5192 15.8883 19.8952C16.6723 18.6072 17.5524 17.1512 18.4164 16.0312C18.6084 12.4552 21.5768 9.5999 25.2008 9.5999C28.9528 9.5999 32.0008 12.6479 32.0008 16.3999C32.0008 20.0239 29.1455 22.9923 25.5695 23.1843C24.4495 24.0483 23.0015 24.9286 21.7055 25.7046C21.0815 26.0886 20.4808 26.4473 20.0008 26.7593V26.7999C20.0008 29.6719 17.6728 31.9999 14.8008 31.9999C11.9288 31.9999 9.60078 29.6719 9.60078 26.7999C9.60078 26.6639 9.60841 26.5359 9.61641 26.3999L2.62422 22.8155C3.97622 31.1995 11.2408 37.5999 20.0008 37.5999C29.7208 37.5999 37.6008 29.7199 37.6008 19.9999C37.6008 10.2799 29.7208 2.3999 20.0008 2.3999ZM25.2008 11.1999C22.3368 11.1999 20.0008 13.5359 20.0008 16.3999C20.0008 19.2639 22.3368 21.5999 25.2008 21.5999C28.0648 21.5999 30.4008 19.2639 30.4008 16.3999C30.4008 13.5359 28.0648 11.1999 25.2008 11.1999ZM25.2008 12.7999C27.1928 12.7999 28.8008 14.4079 28.8008 16.3999C28.8008 18.3919 27.1928 19.9999 25.2008 19.9999C23.2088 19.9999 21.6008 18.3919 21.6008 16.3999C21.6008 14.4079 23.2088 12.7999 25.2008 12.7999ZM14.8008 23.1999C14.1688 23.1999 13.569 23.3602 13.057 23.6562L15.7133 25.0155C16.6973 25.5195 17.0812 26.7284 16.5852 27.7124C16.2252 28.4004 15.5288 28.7999 14.8008 28.7999C14.4888 28.7999 14.1843 28.7283 13.8883 28.5843L11.2242 27.2155C11.4322 29.0075 12.9528 30.3999 14.8008 30.3999C16.7928 30.3999 18.4008 28.7919 18.4008 26.7999C18.4008 24.8079 16.7928 23.1999 14.8008 23.1999Z" fill="white"/>
</svg>
