<svg width="40" height="40" viewBox="0 0 40 40" fill="none" xmlns="http://www.w3.org/2000/svg">
<path d="M19.9987 3.3335C15.5784 3.3335 11.3392 5.08944 8.21358 8.21505C5.08798 11.3407 3.33203 15.5799 3.33203 20.0002C3.33203 24.4204 5.08798 28.6597 8.21358 31.7853C11.3392 34.9109 15.5784 36.6668 19.9987 36.6668C24.419 36.6668 28.6582 34.9109 31.7838 31.7853C34.9094 28.6597 36.6654 24.4204 36.6654 20.0002C36.6654 15.5799 34.9094 11.3407 31.7838 8.21505C28.6582 5.08944 24.419 3.3335 19.9987 3.3335Z" fill="#29B6F6"/>
<path d="M28.2904 12.5001L25.1687 28.4384C25.1687 28.4384 25.0345 29.1667 24.1312 29.1667C23.6512 29.1667 23.4037 28.9384 23.4037 28.9384L16.642 23.3276L13.3337 21.6601L9.08786 20.5309C9.08786 20.5309 8.33203 20.3126 8.33203 19.6876C8.33203 19.1667 9.10953 18.9184 9.10953 18.9184L26.8729 11.8618C26.8729 11.8618 27.4154 11.6659 27.8112 11.6668C28.0545 11.6668 28.332 11.7709 28.332 12.0834C28.332 12.2918 28.2904 12.5001 28.2904 12.5001Z" fill="white"/>
<path d="M19.1673 25.4209L16.3123 28.2326C16.3123 28.2326 16.1882 28.3284 16.0223 28.3326C15.9648 28.3343 15.9032 28.3251 15.8398 28.2968L16.6432 23.3259L19.1673 25.4209Z" fill="#B0BEC5"/>
<path d="M24.9129 15.1632C24.772 14.9799 24.512 14.9466 24.3287 15.0857L13.332 21.6666C13.332 21.6666 15.087 26.5766 15.3545 27.4266C15.6229 28.2774 15.8379 28.2974 15.8379 28.2974L16.6412 23.3266L24.8345 15.7466C25.0179 15.6074 25.052 15.3466 24.9129 15.1632Z" fill="#CFD8DC"/>
</svg>
