<svg width="48" height="48" viewBox="0 0 48 48" fill="none" xmlns="http://www.w3.org/2000/svg">
<rect width="48" height="48" rx="4" fill="#1F3F29"/>
<path d="M26 30C26 30 27 30 28 32C28 32 31.1765 27 34 26" stroke="#1FD031" stroke-width="1.5" stroke-linecap="round" stroke-linejoin="round"/>
<path d="M25 34H18.5909C17.0455 34 15.8163 33.248 14.7127 32.1966C12.4534 30.0441 16.1628 28.324 17.5776 27.4816C20.7559 25.5891 24.7529 25.5096 28 27.2432" stroke="#1FD031" stroke-width="1.5" stroke-linecap="round" stroke-linejoin="round"/>
<path d="M28.5 18.5C28.5 20.9853 26.4853 23 24 23C21.5147 23 19.5 20.9853 19.5 18.5C19.5 16.0147 21.5147 14 24 14C26.4853 14 28.5 16.0147 28.5 18.5Z" stroke="#1FD031" stroke-width="1.5"/>
</svg>
