<svg width="48" height="48" viewBox="0 0 48 48" fill="none" xmlns="http://www.w3.org/2000/svg">
<rect width="48" height="48" rx="4" fill="#3E3F5E"/>
<path d="M14.5 15.002H33.5" stroke="#8EC9ED" stroke-width="1.5" stroke-linecap="round" stroke-linejoin="round"/>
<path d="M16.5 15.002V26.001C16.5 28.3298 16.9306 29.0903 18.9275 30.2885L21.942 32.0972C22.9447 32.6987 23.446 32.9996 24 32.9996C24.554 32.9996 25.0553 32.6987 26.058 32.0972L29.0725 30.2885C31.0694 29.0903 31.5 28.3298 31.5 26.001V15.002" stroke="#8EC9ED" stroke-width="1.5" stroke-linecap="round" stroke-linejoin="round"/>
<path d="M24.6047 20.0055L25.2206 21.2475C25.3046 21.4204 25.5286 21.5863 25.7175 21.618L26.8339 21.805C27.5478 21.925 27.7158 22.4472 27.2014 22.9624L26.3335 23.8374C26.1865 23.9856 26.106 24.2715 26.1515 24.4761L26.4 25.5594C26.5959 26.4168 26.1445 26.7485 25.3921 26.3004L24.3457 25.6758C24.1567 25.5629 23.8452 25.5629 23.6528 25.6758L22.6064 26.3004C21.8575 26.7485 21.4025 26.4133 21.5985 25.5594L21.847 24.4761C21.8925 24.2715 21.812 23.9856 21.665 23.8374L20.7971 22.9624C20.2862 22.4472 20.4506 21.925 21.1646 21.805L22.2809 21.618C22.4664 21.5863 22.6904 21.4204 22.7744 21.2475L23.3903 20.0055C23.7263 19.3315 24.2722 19.3315 24.6047 20.0055Z" stroke="#8EC9ED" stroke-width="1.5" stroke-linecap="round" stroke-linejoin="round"/>
</svg>
