<svg width="40" height="40" viewBox="0 0 40 40" fill="none" xmlns="http://www.w3.org/2000/svg">
<path d="M31.6667 35H8.33333C6.4925 35 5 33.5075 5 31.6667V8.33333C5 6.4925 6.4925 5 8.33333 5H31.6667C33.5075 5 35 6.4925 35 8.33333V31.6667C35 33.5075 33.5075 35 31.6667 35Z" fill="white"/>
<path d="M28.5468 28.3334H23.1826L11.5234 11.6667H16.8876L28.5468 28.3334ZM23.8218 26.9201H25.9576L16.2484 13.0801H14.1126L23.8218 26.9201Z" fill="#3D2644"/>
<path d="M13.222 28.3333L19.2245 21.3799L18.4395 20.3391L11.5195 28.3333H13.222Z" fill="#3D2644"/>
<path d="M20.375 18.1009L21.1292 19.1751L27.6133 11.6667H25.9467L20.375 18.1009Z" fill="#3D2644"/>
</svg>
