<svg width="40" height="40" viewBox="0 0 40 40" fill="none" xmlns="http://www.w3.org/2000/svg">
<path d="M34.795 23.2983L27.7492 31.3808C27.5908 31.5624 27.3617 31.6666 27.1208 31.6666H21.975C21.7758 31.6666 21.5833 31.7374 21.4325 31.8674L16.0675 36.4666C15.9167 36.5958 15.7242 36.6666 15.525 36.6666H14.1667C13.7067 36.6666 13.3333 36.2933 13.3333 35.8333V32.4999C13.3333 32.0399 12.96 31.6666 12.5 31.6666H5.83333C5.37333 31.6666 5 31.2933 5 30.8333V13.2858C5 13.1558 5.03 13.0283 5.08833 12.9124L8.40583 6.29325C8.5475 6.01159 8.83583 5.83325 9.15083 5.83325H34.1667C34.6267 5.83325 35 6.20659 35 6.66659V22.7508C35 22.9524 34.9275 23.1466 34.795 23.2983Z" fill="#8343C8"/>
<path d="M32.5 21.9741C31.1108 23.5383 29.7225 25.1024 28.3333 26.6666C26.3892 26.6666 24.4442 26.6666 22.5 26.6666C20.5558 28.3333 18.6108 29.9999 16.6667 31.6666C16.6667 29.9999 16.6667 28.3333 16.6667 26.6666C14.4442 26.6599 12.2225 26.6533 10 26.6466C10 20.5416 10 14.4374 10 8.33325C17.5 8.33325 25 8.33325 32.5 8.33325C32.5 12.8799 32.5 17.4266 32.5 21.9741Z" fill="#FAFAFA"/>
<path d="M20 13.3333H17.5V21.6666H20V13.3333Z" fill="#8343C8"/>
<path d="M27.5 13.3333H25V21.6666H27.5V13.3333Z" fill="#8343C8"/>
</svg>
