<svg width="60" height="60" viewBox="0 0 60 60" fill="none" xmlns="http://www.w3.org/2000/svg">
<rect width="60" height="60" rx="6" fill="white" fill-opacity="0.05"/>
<path d="M23 36.9703C23.1501 38.4967 23.4895 39.5242 24.2564 40.291C25.632 41.6667 27.8459 41.6667 32.2737 41.6667C36.7016 41.6667 38.9155 41.6667 40.291 40.291C41.6667 38.9155 41.6667 36.7016 41.6667 32.2737C41.6667 27.8459 41.6667 25.632 40.291 24.2564C39.5242 23.4895 38.4967 23.1501 36.9703 23" stroke="white" stroke-opacity="0.7" stroke-width="1.5"/>
<path d="M18.3359 27.6668C18.3359 23.267 18.3359 21.0672 19.7028 19.7003C21.0696 18.3335 23.2695 18.3335 27.6693 18.3335C32.069 18.3335 34.269 18.3335 35.6357 19.7003C37.0026 21.0672 37.0026 23.267 37.0026 27.6668C37.0026 32.0666 37.0026 34.2665 35.6357 35.6333C34.269 37.0002 32.069 37.0002 27.6693 37.0002C23.2695 37.0002 21.0696 37.0002 19.7028 35.6333C18.3359 34.2665 18.3359 32.0666 18.3359 27.6668Z" stroke="white" stroke-opacity="0.7" stroke-width="1.5"/>
<path d="M18.3359 28.9718C19.0581 28.88 19.7883 28.8347 20.5196 28.8362C23.6135 28.7791 26.6317 29.6226 29.0356 31.2163C31.2649 32.6945 32.8314 34.7287 33.5026 37.0002" stroke="white" stroke-opacity="0.7" stroke-width="1.5" stroke-linejoin="round"/>
<path d="M31.1641 24.1665H31.1746" stroke="white" stroke-opacity="0.7" stroke-width="2" stroke-linecap="round" stroke-linejoin="round"/>
</svg>
