<svg width="40" height="40" viewBox="0 0 40 40" fill="none" xmlns="http://www.w3.org/2000/svg">
<path d="M37.5113 28.8001C37.1455 30.6667 35.5913 32.0892 33.6713 32.3559C30.6538 32.8001 25.6246 33.3334 19.9555 33.3334C14.378 33.3334 9.3488 32.8001 6.23964 32.3559C4.31964 32.0892 2.76464 30.6667 2.39964 28.8001C2.0338 26.7559 1.66797 23.7334 1.66797 20.0001C1.66797 16.2667 2.0338 13.2442 2.39964 11.2001C2.76547 9.33341 4.31964 7.91092 6.23964 7.64425C9.25714 7.20008 14.2863 6.66675 19.9555 6.66675C25.6246 6.66675 30.5621 7.20008 33.6713 7.64425C35.5913 7.91092 37.1463 9.33341 37.5113 11.2001C37.8771 13.2442 38.3346 16.2667 38.3346 20.0001C38.243 23.7334 37.8771 26.7559 37.5113 28.8001Z" fill="url(#paint0_linear_5729_18518)"/>
<path opacity="0.05" d="M26.96 18.7L17.43 12.3466C16.9492 12.0258 16.335 11.9958 15.8258 12.2691C15.3167 12.5416 15 13.0691 15 13.6466V26.3533C15 26.9308 15.3167 27.4591 15.8258 27.7316C16.0575 27.8558 16.31 27.9166 16.5625 27.9166C16.8658 27.9166 17.1675 27.8283 17.4292 27.6541L26.9592 21.3008C27.395 21.01 27.655 20.5241 27.655 20.0008C27.6558 19.4766 27.395 18.9908 26.96 18.7Z" fill="black"/>
<path opacity="0.07" d="M17.2355 12.6975L26.2271 18.6925C26.8013 19.105 27.188 19.4742 27.188 19.9533C27.188 20.4325 27.0013 20.7667 26.5921 21.065C26.283 21.29 17.388 27.2017 17.388 27.2017C16.6371 27.705 15.418 27.5983 15.418 25.9525V13.9533C15.418 12.2825 16.738 12.3658 17.2355 12.6975Z" fill="black"/>
<path d="M15.832 26.3065V13.694C15.832 13.0749 16.522 12.7049 17.0379 13.049L26.4979 19.3557C26.9587 19.6624 26.9587 20.339 26.4979 20.6465L17.0379 26.9532C16.522 27.2957 15.832 26.9265 15.832 26.3065Z" fill="white"/>
<defs>
<linearGradient id="paint0_linear_5729_18518" x1="8.1813" y1="8.22592" x2="34.373" y2="34.4176" gradientUnits="userSpaceOnUse">
<stop stop-color="#F44F5A"/>
<stop offset="0.443" stop-color="#EE3D4A"/>
<stop offset="1" stop-color="#E52030"/>
</linearGradient>
</defs>
</svg>
