<svg width="140" height="140" viewBox="0 0 140 140" fill="none" xmlns="http://www.w3.org/2000/svg">
<circle cx="70" cy="70" r="70" fill="#1FD031" fill-opacity="0.2"/>
<path d="M70 120C97.6142 120 120 97.6142 120 70C120 42.3858 97.6142 20 70 20C42.3858 20 20 42.3858 20 70C20 97.6142 42.3858 120 70 120Z" fill="#1FD031"/>
<path d="M68.55 88.5499L98.5499 58.55C99.0161 58.0838 99.3859 57.5303 99.6382 56.9212C99.8905 56.3121 100.02 55.6592 100.02 55C100.02 54.3407 99.8905 53.6878 99.6382 53.0787C99.3859 52.4696 99.0161 51.9161 98.5499 51.45C98.0838 50.9838 97.5303 50.614 96.9212 50.3617C96.3121 50.1093 95.6592 49.9795 94.9999 49.9795C94.3407 49.9795 93.6878 50.1093 93.0787 50.3617C92.4696 50.614 91.9161 50.9838 91.45 51.45L65 77.95L48.55 61.45C47.6084 60.5084 46.3315 59.9795 45 59.9795C43.6684 59.9795 42.3915 60.5084 41.45 61.45C40.5084 62.3915 39.9795 63.6684 39.9795 65C39.9795 66.3315 40.5084 67.6084 41.45 68.55L61.45 88.5499C61.9148 89.0186 62.4678 89.3906 63.0771 89.6444C63.6864 89.8983 64.3399 90.0289 65 90.0289C65.66 90.0289 66.3135 89.8983 66.9228 89.6444C67.5321 89.3906 68.0851 89.0186 68.55 88.5499Z" fill="black" fill-opacity="0.9"/>
</svg>
