<svg width="24" height="24" viewBox="0 0 24 24" fill="none" xmlns="http://www.w3.org/2000/svg">
<circle cx="12" cy="12" r="11.6842" fill="#222234" stroke="#8EC9ED" stroke-width="0.631579"/>
<g clip-path="url(#clip0_2210_12402)">
<path fill-rule="evenodd" clip-rule="evenodd" d="M9.59841 5.04505C7.81861 5.18873 6.47115 5.65518 5.65614 6.40973C5.20146 6.83074 4.99525 7.2777 5.03531 7.75556C5.06754 8.14008 5.22877 8.44778 5.58672 8.80796C6.35058 9.57657 7.69791 10.0802 9.38009 10.2259C11.3607 10.3975 13.3081 9.99785 14.5342 9.16814C14.7602 9.01518 15.128 8.64667 15.2573 8.44355C15.4315 8.17002 15.4934 7.95579 15.4916 7.6333C15.489 7.18923 15.3513 6.89487 14.961 6.49911C14.6896 6.22397 14.52 6.09578 14.1832 5.91116C13.307 5.43099 12.2485 5.1446 11.0167 5.05454C10.6877 5.03047 9.84847 5.02485 9.59841 5.04505ZM9.85767 6.04879V6.19719L9.74169 6.21155C9.67788 6.21944 9.55202 6.23333 9.46196 6.24241C8.80729 6.30846 8.28547 6.53988 8.13758 6.82979C8.03674 7.02748 8.07888 7.18634 8.27723 7.35611C8.52947 7.57203 8.83496 7.65882 9.97256 7.83768C10.4572 7.9139 10.912 7.9952 10.983 8.01837C11.3134 8.12595 11.268 8.36632 10.8947 8.48582C10.7046 8.54668 9.9286 8.55263 9.69393 8.49502C9.43535 8.43157 9.26252 8.32664 9.14122 8.15951C9.10915 8.11533 9.07089 8.11648 8.4795 8.17946C8.13428 8.2162 7.84792 8.24652 7.84317 8.24682C7.83842 8.24709 7.87892 8.30151 7.93318 8.36771C8.19691 8.68958 8.70481 8.89303 9.40738 8.9583C9.9009 9.00413 9.85767 8.98063 9.85767 9.20302V9.39353H10.2658H10.674L10.682 9.19568L10.69 8.99782L10.9493 8.97894C11.9215 8.90812 12.5708 8.63824 12.6645 8.26592C12.7252 8.02489 12.6109 7.83749 12.3111 7.68654C11.9801 7.5198 11.6886 7.454 10.3898 7.25276C9.87227 7.17255 9.68304 7.12002 9.59514 7.03212C9.51419 6.95117 9.5134 6.90415 9.59159 6.8189C9.68037 6.7221 9.88846 6.66119 10.1865 6.64478C10.6334 6.62017 11.0152 6.72335 11.2544 6.93341L11.3511 7.01828L11.8802 6.93444C12.1712 6.88832 12.4277 6.84469 12.4503 6.83748C12.5191 6.81546 12.2397 6.58283 12.0254 6.48372C11.7227 6.34374 11.4042 6.27052 10.847 6.21286L10.6764 6.1952V6.04778V5.90036H10.267H9.85767V6.04879ZM5.10054 8.94875C5.07336 8.99283 5.02726 9.29848 5.02759 9.43267C5.02936 10.1889 5.80992 10.9763 7.02874 11.4513C7.90703 11.7936 8.85194 11.9703 9.98392 12.004C10.5568 12.021 10.5899 12.0193 10.6297 11.9699C10.6528 11.9413 10.7694 11.7951 10.8888 11.645C11.2007 11.253 11.6455 10.8479 12.0423 10.5946L12.1364 10.5345L12.0409 10.5517C11.493 10.65 11.0349 10.686 10.308 10.6879C9.49127 10.69 9.11903 10.662 8.47978 10.5504C7.70899 10.4159 7.01777 10.2001 6.43395 9.91159C5.92981 9.66245 5.38556 9.27272 5.18465 9.01698C5.14578 8.9675 5.10791 8.9368 5.10054 8.94875ZM15.2063 9.15772C14.9825 9.37238 14.6559 9.61142 14.403 9.74566C14.3137 9.79304 14.238 9.83449 14.2347 9.83782C14.2313 9.84112 14.3903 9.84382 14.588 9.84382C14.7856 9.84382 15.0526 9.85395 15.1812 9.86634L15.4151 9.88883L15.4507 9.77082C15.5058 9.58825 15.5178 9.32831 15.4793 9.14715C15.4601 9.05663 15.4368 8.97787 15.4275 8.97214C15.4182 8.96638 15.3187 9.04989 15.2063 9.15772ZM14.115 10.2946C13.7726 10.3424 13.3891 10.437 13.1055 10.5435C11.6935 11.0738 10.6731 12.2665 10.3566 13.7564C10.2912 14.0639 10.2834 14.1586 10.2838 14.6333C10.2842 15.0258 10.2969 15.2299 10.332 15.4111C10.5059 16.3079 10.9129 17.0837 11.5348 17.7042C12.4374 18.6046 13.6128 19.0554 14.8791 18.9868C15.5104 18.9525 16.0128 18.8192 16.5848 18.5342C17.0183 18.3182 17.3667 18.0664 17.7167 17.7165C18.4905 16.9427 18.927 15.9672 18.9864 14.8789C19.0564 13.5967 18.6001 12.4175 17.6868 11.5205C17.0723 10.917 16.3098 10.5138 15.4659 10.3461C15.1524 10.2838 14.3979 10.2551 14.115 10.2946ZM5.05736 10.8763C5.0113 11.1408 5.02088 11.3081 5.09565 11.5448C5.41697 12.562 6.8989 13.3924 8.87522 13.6626C9.18406 13.7049 9.88949 13.7646 9.90431 13.7497C9.90849 13.7456 9.94405 13.6147 9.98332 13.459C10.0572 13.1658 10.1928 12.7854 10.2943 12.5865C10.3264 12.5236 10.3488 12.4687 10.344 12.4647C10.3392 12.4606 10.1265 12.4492 9.87132 12.4394C7.8831 12.3629 6.15889 11.7663 5.25923 10.8435C5.18418 10.7665 5.11484 10.7035 5.10512 10.7035C5.09541 10.7035 5.0739 10.7812 5.05736 10.8763ZM14.306 11.4504V11.7608L14.1764 11.778C14.034 11.7968 13.8242 11.8706 13.6278 11.9709C13.3648 12.1051 13.0765 12.4799 12.9655 12.8317C12.8488 13.2018 12.8728 13.7038 13.0226 14.0253C13.118 14.2301 13.1276 14.2432 13.3467 14.4624C13.4869 14.6026 13.578 14.6633 13.8243 14.7807C13.9917 14.8605 14.2269 14.9591 14.347 14.9999C15.0362 15.2342 15.3068 15.4042 15.3705 15.6428C15.4357 15.8869 15.3307 16.1787 15.13 16.3112C14.9295 16.4436 14.5688 16.4655 14.2695 16.3635C14.0326 16.2828 13.7905 15.9648 13.7439 15.6732C13.7299 15.586 13.7155 15.5628 13.6816 15.5728C13.6573 15.5799 13.533 15.6129 13.4054 15.646C13.2778 15.6792 13.0727 15.7325 12.9494 15.7645C12.8262 15.7966 12.718 15.8301 12.709 15.8392C12.7 15.8482 12.725 15.9521 12.7645 16.07C13.0061 16.7897 13.4386 17.1847 14.1231 17.3108L14.306 17.3445V17.7355V18.1265H14.6335H14.961V17.7339V17.3412L15.0906 17.3225C15.9573 17.1973 16.5121 16.6051 16.5615 15.7522C16.5887 15.2835 16.4536 14.8858 16.1662 14.589C15.9275 14.3423 15.6324 14.1838 14.902 13.9099C14.3628 13.7076 14.1482 13.5781 14.0874 13.4181C14.0725 13.3791 14.0604 13.2781 14.0604 13.1938C14.0604 12.8703 14.2678 12.6466 14.5918 12.6206C14.9467 12.5921 15.1895 12.753 15.3847 13.146C15.4444 13.266 15.4937 13.3669 15.4944 13.3701C15.4962 13.3778 16.291 13.0562 16.3551 13.0219C16.4013 12.9972 16.4019 12.9872 16.3642 12.8802C16.2368 12.5193 15.9861 12.1815 15.7173 12.0086C15.5612 11.9082 15.1739 11.7687 15.0497 11.7682L14.961 11.7678V11.454V11.1401H14.6335H14.306V11.4504ZM5.07966 12.5219C5.06285 12.5649 5.04254 12.7 5.03452 12.8221C5.01288 13.1519 5.12212 13.4861 5.35431 13.8003C5.9216 14.5681 7.28582 15.1916 8.87522 15.4096C9.15961 15.4487 9.88977 15.5095 9.90475 15.4955C9.90813 15.4923 9.89678 15.4106 9.8795 15.3139C9.86223 15.2173 9.84719 14.9219 9.84607 14.6576L9.84403 14.177L9.54383 14.1605C7.83207 14.0662 6.19071 13.4809 5.33537 12.6597L5.11025 12.4436L5.07966 12.5219ZM5.08053 14.2668C4.98712 14.5077 5.02786 14.9282 5.17594 15.2518C5.63769 16.261 7.40401 17.0665 9.5029 17.2252C9.87369 17.2532 10.5945 17.2637 10.5945 17.241C10.5945 17.2343 10.5499 17.1528 10.4955 17.0598C10.3489 16.8097 10.1728 16.4234 10.0898 16.1701L10.0167 15.9466L9.87576 15.9324C9.79826 15.9246 9.61206 15.9113 9.46196 15.9027C8.86703 15.8691 8.13384 15.7397 7.50584 15.5576C6.5889 15.2917 5.81413 14.8765 5.30819 14.3798L5.11154 14.1868L5.08053 14.2668ZM5.07988 16.0151C5.02371 16.1598 5.01684 16.4884 5.06596 16.6801C5.16273 17.0576 5.34113 17.3328 5.69528 17.651C6.2398 18.1403 6.97714 18.4877 8.00896 18.7412C9.21269 19.037 10.839 19.0793 12.0274 18.8457L12.2564 18.8008L12.1144 18.7152C11.8295 18.5437 11.5291 18.3014 11.2224 17.9958L10.9087 17.6833L10.1717 17.677C9.41412 17.6706 9.01486 17.6359 8.39763 17.5228C7.07677 17.2809 6.02874 16.8115 5.33573 16.1515L5.11025 15.9368L5.07988 16.0151Z" fill="#8EC9ED"/>
</g>
<defs>
<clipPath id="clip0_2210_12402">
<rect width="14" height="14" fill="white" transform="translate(5 5)"/>
</clipPath>
</defs>
</svg>
