<svg width="24" height="24" viewBox="0 0 24 24" fill="none" xmlns="http://www.w3.org/2000/svg">
<circle cx="12" cy="12" r="11.6842" fill="#3A3D6C" stroke="#FDEB56" stroke-width="0.631579"/>
<g style="mix-blend-mode:multiply" opacity="0.95">
<path d="M13.6048 17.1315C12.803 15.8136 12.9918 10.474 13.385 9.39908C13.4982 9.04056 13.7119 8.72205 14.0007 8.48131C14.2895 8.24057 14.6412 8.08773 15.0143 8.04091C15.6275 8.00568 16.2416 7.94179 16.8553 7.96574C18.7786 8.04082 19.514 10.3694 19.3855 11.8959C19.3431 12.5276 19.1112 13.1319 18.7202 13.6299C18.3291 14.1279 17.797 14.4964 17.1933 14.6874C16.7488 14.7694 16.2947 14.7863 15.8453 14.7376C15.851 15.3517 15.8932 15.965 15.9718 16.5741C15.9833 16.6986 15.9662 16.8242 15.9218 16.9411C15.8774 17.058 15.8069 17.1632 15.7157 17.2487C15.5406 17.3949 13.8284 17.4991 13.6048 17.1315ZM16.803 11.0644C16.7947 10.7959 16.6902 10.5393 16.5084 10.3415C16.402 10.2702 16.2786 10.2282 16.1507 10.2197C16.0229 10.2113 15.895 10.2367 15.7801 10.2934C15.6037 10.3707 15.6024 10.6346 15.5902 10.8198C15.5752 11.0514 15.5424 12.9027 15.7298 12.9365C16.8744 13.1428 16.8946 11.8098 16.803 11.0644ZM4.98337 17.1617C5.07011 16.3948 5.29724 15.6504 5.65342 14.9657C6.07867 14.1984 6.57919 13.4753 7.14759 12.8071C6.66009 12.1542 6.2228 11.4652 5.8395 10.7462C5.46137 10.0731 5.19839 9.34166 5.06143 8.58194C5.05396 8.47587 5.08274 8.3704 5.14306 8.28284C5.28291 8.05218 6.02943 7.88654 7.56914 7.99423C7.65141 8.0027 7.72998 8.03271 7.79695 8.08123C7.86392 8.12975 7.91691 8.19507 7.95058 8.2706C8.06718 8.60335 8.22503 9.12743 8.4147 9.65195C8.51037 9.90795 8.62344 10.1571 8.75312 10.3977C9.00902 9.74785 9.16657 9.06349 9.22057 8.36719C9.23718 8.1964 9.30028 7.95691 9.79727 7.96049C10.5298 7.91041 11.2652 8.00285 11.9625 8.23267C12.0316 8.60209 12.0258 8.98159 11.9456 9.34874C11.534 10.5374 10.9423 11.6559 10.1912 12.665C10.8997 13.5893 11.4876 14.6002 11.9408 15.6731C12.0514 16.1443 12.0556 16.6342 11.9532 17.1072C11.8566 17.4922 9.4202 17.4536 9.33375 17.0777C9.16407 16.3083 8.89182 15.5651 8.5243 14.8682C8.29512 15.235 8.10591 15.6254 7.95993 16.0326C7.82253 16.4233 7.71721 16.8115 7.56758 17.2334C7.48847 17.4557 4.95619 17.4283 4.98337 17.1617Z" fill="#776537"/>
</g>
<path d="M13.4651 16.447C12.6209 15.0597 12.8197 9.43911 13.2337 8.30757C13.3528 7.93017 13.5778 7.59487 13.8818 7.34147C14.1858 7.08808 14.5561 6.92722 14.9488 6.87798C15.5941 6.84074 16.2405 6.77362 16.8867 6.79879C18.9109 6.8778 19.6852 9.32898 19.5499 10.9358C19.5053 11.6008 19.2613 12.2369 18.8497 12.761C18.4381 13.2852 17.878 13.6732 17.2426 13.8743C16.7746 13.9606 16.2966 13.9783 15.8234 13.9269C15.8293 14.5734 15.8738 15.219 15.9567 15.8602C15.9688 15.9913 15.9508 16.1234 15.904 16.2465C15.8573 16.3696 15.7831 16.4803 15.687 16.5704C15.5025 16.7241 13.7004 16.8338 13.4651 16.447ZM16.8314 10.0604C16.8227 9.77776 16.7126 9.50769 16.5214 9.29944C16.4093 9.22446 16.2794 9.1803 16.1448 9.17142C16.0103 9.16254 15.8757 9.18924 15.7548 9.24883C15.569 9.33011 15.5675 9.60798 15.555 9.80306C15.5392 10.0467 15.5048 11.9956 15.702 12.0312C16.9067 12.2483 16.9278 10.8451 16.8314 10.0604ZM4.79588 16.4788C4.88739 15.6715 5.12655 14.888 5.50142 14.1673C5.94902 13.3595 6.47583 12.5983 7.07408 11.8948C6.56094 11.2076 6.10069 10.4825 5.69729 9.72562C5.29915 9.01712 5.02226 8.24705 4.87804 7.44724C4.87015 7.33568 4.90052 7.22476 4.96414 7.13277C5.11142 6.88987 5.89736 6.71541 7.51792 6.82868C7.60448 6.83765 7.68714 6.86928 7.75758 6.92038C7.82801 6.97148 7.88373 7.04024 7.91911 7.11974C8.04209 7.4698 8.20807 8.02167 8.40796 8.5738C8.50876 8.84323 8.62776 9.1055 8.76414 9.35878C9.0335 8.67472 9.1993 7.9543 9.25605 7.2213C9.27362 7.04151 9.34004 6.78961 9.86316 6.79328C10.6343 6.74042 11.4084 6.83773 12.1425 7.0798C12.2151 7.4686 12.2091 7.86798 12.1248 8.25442C11.6916 9.50579 11.0687 10.6832 10.2778 11.7453C11.0235 12.7183 11.6424 13.7823 12.1193 14.9117C12.2358 15.4077 12.2403 15.9234 12.1325 16.4214C12.0311 16.8267 9.46662 16.7861 9.37518 16.3904C9.19664 15.5804 8.91016 14.7981 8.52342 14.0644C8.28201 14.4505 8.08286 14.8615 7.92943 15.2902C7.78442 15.7016 7.67385 16.1102 7.51626 16.5541C7.43306 16.7883 4.7673 16.7593 4.79588 16.4788Z" fill="#FFBC06"/>
<path style="mix-blend-mode:screen" fill-rule="evenodd" clip-rule="evenodd" d="M14.9602 7.1017C14.6114 7.14876 14.2832 7.29449 14.0143 7.52176C13.7455 7.74903 13.5472 8.04836 13.4427 8.38454C13.3792 8.58021 13.3334 8.78121 13.306 8.9851C13.255 9.30281 13.2206 9.62533 13.1927 9.94602C13.1357 10.6017 13.1074 11.2657 13.1013 11.9263C13.0954 12.5783 15.3393 11.7946 15.3208 10.9034C15.3158 10.6723 15.3154 10.4408 15.3183 10.2098C15.32 10.0709 15.3209 9.92697 15.3299 9.7886C15.3481 9.50917 15.3647 9.17432 15.6633 9.04348C15.8544 8.95799 16.0663 8.92973 16.2731 8.96211C16.4198 8.98173 16.5581 9.04154 16.6728 9.13491C16.8554 9.31457 16.9755 9.54805 17.0155 9.80102C17.1673 10.5363 19.2274 8.89 18.5787 7.99113C18.3911 7.70725 18.1391 7.4716 17.8434 7.30334C17.5476 7.13507 17.2163 7.03892 16.8764 7.02269C16.2377 6.99778 15.5976 7.06499 14.9602 7.1017ZM11.2986 7.10266C10.8211 7.04732 10.3409 7.01884 9.86026 7.01735C9.74382 7.00674 9.6271 7.03445 9.52786 7.09628C9.49556 7.13832 9.47801 7.18984 9.47795 7.24286C9.41892 7.99877 9.24735 8.74162 8.96891 9.44685L8.78396 9.87889L8.56475 9.46328C8.42317 9.20095 8.2999 8.92915 8.19581 8.64981C8.02118 8.16725 7.876 7.677 7.70635 7.19374C7.68529 7.15596 7.6558 7.12355 7.62018 7.09902C7.58455 7.07449 7.54376 7.05851 7.50095 7.05232C7.15841 7.02828 6.81316 7.01386 6.46949 7.01805C6.22387 7.01899 5.97854 7.03522 5.73494 7.06665C5.58402 7.08418 5.43557 7.11872 5.29241 7.16961C5.24187 7.1871 5.19508 7.21397 5.15449 7.2488C5.12018 7.29791 5.10078 7.35588 5.09863 7.41575C5.23963 8.19003 5.50861 8.93542 5.89454 9.62131C6.29457 10.3677 6.74902 11.0836 7.2542 11.7632L7.35411 11.9008L7.24852 12.0341C7.08184 12.2443 6.91245 12.4568 6.74638 12.673C6.11926 13.4889 11.0719 13.3197 10.5535 12.5506C10.4006 12.3233 10.2456 12.0974 10.0914 11.8715L10.0001 11.7382L10.098 11.6095C10.2598 11.3962 10.4101 11.1683 10.5538 10.9423C10.7351 10.6566 10.9088 10.366 11.0748 10.0704C11.273 9.71886 11.4639 9.3577 11.6306 8.99008C11.7524 8.74662 11.8434 8.48891 11.9013 8.22293C11.9606 7.89316 11.978 7.55724 11.9533 7.22311C11.7387 7.16549 11.5197 7.12521 11.2986 7.10266Z" fill="#FF6057"/>
<path style="mix-blend-mode:multiply" fill-rule="evenodd" clip-rule="evenodd" d="M7.51627 16.5541C7.67386 16.1102 7.78442 15.7016 7.92943 15.2902C8.08287 14.8615 8.28201 14.4505 8.52343 14.0644C8.14112 14.6194 7.51051 16.044 7.27311 16.2534C6.58618 16.5963 5.79833 16.6789 5.05521 16.486L5.01177 16.476C4.97246 16.4665 4.93809 16.4427 4.91537 16.4093C4.89099 16.3649 4.87819 16.3151 4.87813 16.2645C4.87201 16.1346 4.88609 16.0044 4.88994 15.8743C4.84795 16.074 4.81655 16.2758 4.79588 16.4787C4.79047 16.5317 4.88119 16.5758 5.0324 16.6107C5.85451 16.774 6.70245 16.7546 7.51627 16.5541ZM9.37519 16.3904C9.45613 16.7414 11.485 16.8131 12.0117 16.5415C12.039 16.531 12.0639 16.5149 12.0847 16.4942C12.1055 16.4735 12.1218 16.4487 12.1325 16.4214C12.2403 15.9234 12.2358 15.4077 12.1193 14.9117C11.7024 13.8936 11.1549 12.934 10.4906 12.057C10.4199 11.9534 10.349 11.8495 10.2778 11.7453C10.962 10.7942 11.5393 9.77054 11.9992 8.69293C12.056 8.55145 12.0981 8.40451 12.1248 8.25442C12.1312 8.20984 12.1375 8.16299 12.144 8.11475C11.6894 9.35506 10.9971 10.4947 10.1059 11.4698C9.83004 11.795 9.85224 11.7873 10.155 12.1203C11.0542 13.0986 11.6657 14.3064 11.9219 15.6102C11.969 15.8208 11.9429 16.0412 11.8477 16.2349C11.5565 16.4223 11.2257 16.5393 10.8815 16.5766C10.5372 16.6139 10.189 16.5705 9.86448 16.4498C9.58711 16.2709 9.35958 16.0246 9.20309 15.734C9.26444 15.9413 9.32187 16.1596 9.37519 16.3904Z" fill="#C1BAA0"/>
<path style="mix-blend-mode:multiply" fill-rule="evenodd" clip-rule="evenodd" d="M15.5387 16.1622C15.2459 16.3632 14.9014 16.4756 14.5465 16.4861C14.1915 16.4966 13.8409 16.4048 13.5367 16.2215C13.4286 16.1262 13.3354 16.0151 13.2604 15.8921C13.2449 15.8676 13.2299 15.8424 13.2151 15.8173C13.2415 15.9137 13.2699 16.0042 13.2998 16.0879C13.3428 16.2128 13.3983 16.333 13.4652 16.4468C13.7005 16.8336 15.5026 16.7239 15.6872 16.5701C15.8399 16.4334 15.9336 16.2427 15.9487 16.0383C15.9554 15.9791 15.9581 15.9195 15.9569 15.86C15.9475 15.4071 15.8748 15.0756 15.8362 14.693C15.8093 14.4385 15.8051 14.182 15.8236 13.9267C16.2967 13.9781 16.7748 13.9603 17.2428 13.8741C17.7542 13.728 18.2196 13.4531 18.5945 13.0757C18.9693 12.6983 19.241 12.2311 19.3837 11.7187C19.441 11.5481 19.4856 11.3727 19.5166 11.1955C19.4804 11.2931 19.4404 11.3894 19.3964 11.4843C18.7421 12.8999 17.2714 13.9702 15.9574 13.6376C15.8534 13.6114 15.8291 12.8464 15.7758 13.226C15.7312 13.5752 15.7139 13.9273 15.7239 14.2791C15.7323 14.7927 15.8718 15.7565 15.5387 16.1622ZM16.8254 11.1407C16.7269 11.7001 16.4314 12.1624 15.7021 12.031C15.6407 12.0199 15.6018 11.825 15.578 11.5539C15.5817 11.6758 15.5897 11.7974 15.5889 11.9193C15.5847 11.9846 15.5969 12.05 15.6246 12.1094C15.6523 12.1688 15.6945 12.2203 15.7473 12.259C15.8001 12.2978 15.8618 12.3227 15.9268 12.3313C15.9917 12.34 16.0578 12.3321 16.1189 12.3085C16.2818 12.2812 16.4338 12.2093 16.5582 12.1007C16.6825 11.9921 16.7743 11.8511 16.8231 11.6934C16.9317 11.2619 16.9443 10.8119 16.86 10.375C16.8771 10.6307 16.8654 10.8875 16.8254 11.1407Z" fill="#C1BAA0"/>
<path style="mix-blend-mode:screen" fill-rule="evenodd" clip-rule="evenodd" d="M13.3644 9.12864C13.314 9.47022 13.4879 9.74869 13.7629 9.49792C14.1486 9.14603 14.3984 8.6619 14.7858 8.31167C15.093 8.07543 15.4206 7.86702 15.7648 7.68891C16.2714 7.37425 15.6833 7.19831 15.3642 7.18476C14.9089 7.15403 14.4588 7.29701 14.1047 7.5849C13.6858 7.99768 13.424 8.5436 13.3644 9.12864Z" fill="#FFD9B7"/>
<path style="mix-blend-mode:screen" fill-rule="evenodd" clip-rule="evenodd" d="M6.3333 7.10352C6.12498 7.10573 5.91698 7.12059 5.71045 7.14801C4.99129 7.22833 5.10282 7.40532 5.30289 8.04513C5.41974 8.46986 5.5891 8.87836 5.80704 9.26118C5.92372 9.43617 6.0779 9.3513 6.07738 9.1202C6.02622 8.66735 6.01026 8.21122 6.02966 7.7559C6.04597 7.64624 6.08808 7.54203 6.15252 7.45181C6.21697 7.3616 6.30191 7.28797 6.40035 7.23698C6.41186 7.22721 6.42013 7.21417 6.42409 7.1996C6.42805 7.18503 6.42751 7.16961 6.42254 7.15535C6.41332 7.13982 6.40028 7.12689 6.38466 7.11782C6.36904 7.10875 6.35136 7.10383 6.3333 7.10352Z" fill="#FFD9B7"/>
<path style="mix-blend-mode:screen" fill-rule="evenodd" clip-rule="evenodd" d="M9.82656 7.07718C9.75802 7.07619 9.68996 7.08878 9.62632 7.11424C9.59356 7.13436 9.56963 7.16616 9.55936 7.20322C9.53987 7.25793 9.45151 7.79119 9.4071 8.09378C9.36699 8.36806 9.43928 8.48125 9.69301 8.21904C9.90813 7.96705 10.1095 7.70367 10.2964 7.43003C10.539 7.06556 10.3574 7.05515 9.82656 7.07718Z" fill="#FFD9B7"/>
</svg>
