<svg width="24" height="24" viewBox="0 0 24 24" fill="none" xmlns="http://www.w3.org/2000/svg">
<circle cx="12" cy="12" r="11.6842" fill="#303255" stroke="#BC5AD7" stroke-width="0.631579"/>
<path fill-rule="evenodd" clip-rule="evenodd" d="M8.00866 5.0319C6.07479 6.1482 4.38185 7.19839 4.24641 7.36562C4.02363 7.64072 4 8.08333 4 11.983C4 15.5822 4.03474 16.3458 4.21012 16.5963C4.32573 16.7612 6.02416 17.8196 7.98432 18.9481C10.6213 20.4664 11.6701 21 12.0167 21C12.3634 21 13.4122 20.4664 16.0492 18.9481C18.0093 17.8196 19.7078 16.7612 19.8234 16.5963C19.9986 16.3459 20.0335 15.5839 20.0335 11.9987C20.0335 7.19263 20.0656 7.3576 19.0145 6.76169C18.6854 6.57506 17.0812 5.65172 15.4496 4.70997C13.2259 3.4263 12.363 2.99804 12.0038 3.00001C11.6457 3.00184 10.6352 3.51575 8.00866 5.0319ZM7.05902 9.99146L6.53161 10.0467V11.9369V13.8271H7.02386H7.51612L7.53539 13.0184C7.54593 12.5737 7.55423 12.099 7.55367 11.9636C7.55198 11.5272 7.76562 11.6962 8.57545 12.7723C9.32636 13.7699 9.39921 13.8271 9.91959 13.8271H10.4697L10.4698 11.8933V9.95939H9.94238H9.41482L9.3445 11.0619L9.27418 12.1644L8.43847 11.0267C7.9787 10.401 7.59896 9.89976 7.5946 9.9127C7.5901 9.92578 7.34917 9.96122 7.05902 9.99146ZM11.3135 11.8933V13.8271H11.8761H12.4387V13.0536V12.28H13.2826C14.1094 12.28 14.1264 12.2722 14.1264 11.8933C14.1263 11.5162 14.106 11.5065 13.3177 11.5065C12.5401 11.5065 12.5073 11.4916 12.4646 11.1197L12.42 10.7329H15.0313H17.6425V10.3462V9.95939H14.478H11.3135V11.8933ZM15.1109 12.6316V13.8271H15.6735H16.2361V12.6316V11.4362H15.6735H15.1109V12.6316Z" fill="#BC5AD7"/>
</svg>
