<svg width="50" height="50" viewBox="0 0 50 50" fill="none" xmlns="http://www.w3.org/2000/svg">
<rect width="50" height="50" rx="2" fill="#8EC9ED" fill-opacity="0.15"/>
<path fill-rule="evenodd" clip-rule="evenodd" d="M39.6809 22.8085C39.4778 23.0058 39.2022 23.1185 38.9121 23.1185C37.8386 23.1185 36.9682 23.9641 36.9682 24.9929C36.9682 26.0287 37.8284 26.87 38.8917 26.8813C39.4909 26.8869 40.0001 27.2928 40.0001 27.8748V31.4896C40.0001 34.5323 37.4614 36.9999 34.3279 36.9999H29.5987C29.1098 36.9999 28.7138 36.6152 28.7138 36.1402V33.0962C28.7138 32.5043 28.2351 32.0392 27.6258 32.0392C27.031 32.0392 26.5378 32.5043 26.5378 33.0962V36.1402C26.5378 36.6152 26.1417 36.9999 25.6543 36.9999H15.6722C12.5533 36.9999 10.0001 34.5337 10.0001 31.4896V27.8748C10.0001 27.2928 10.5092 26.8869 11.1084 26.8813C12.1732 26.87 13.032 26.0287 13.032 24.9929C13.032 23.9923 12.1906 23.2313 11.0881 23.2313C10.7979 23.2313 10.5223 23.1185 10.3192 22.9212C10.1161 22.7239 10.0001 22.4562 10.0001 22.1743V18.5243C10.0001 15.4859 12.5591 12.9999 15.6867 12.9999H25.6543C26.1417 12.9999 26.5378 13.3846 26.5378 13.8596V17.4673C26.5378 18.0451 27.031 18.5243 27.6258 18.5243C28.2351 18.5243 28.7138 18.0451 28.7138 17.4673V13.8596C28.7138 13.3846 29.1098 12.9999 29.5987 12.9999H34.3279C37.4614 12.9999 40.0001 15.4661 40.0001 18.5102V22.0616C40.0001 22.3434 39.884 22.6112 39.6809 22.8085ZM27.6255 29.3054C28.2348 29.3054 28.7135 28.8263 28.7135 28.2485V22.6114C28.7135 22.0335 28.2348 21.5544 27.6255 21.5544C27.0307 21.5544 26.5375 22.0335 26.5375 22.6114V28.2485C26.5375 28.8263 27.0307 29.3054 27.6255 29.3054Z" fill="#8EC9ED"/>
</svg>
