<svg width="50" height="50" viewBox="0 0 50 50" fill="none" xmlns="http://www.w3.org/2000/svg">
<rect width="50" height="50" rx="2" fill="#BC5AD7" fill-opacity="0.15"/>
<path fill-rule="evenodd" clip-rule="evenodd" d="M17.0173 11.0638C13.1496 13.2964 9.7637 15.3968 9.49282 15.7312C9.04726 16.2814 9 17.1667 9 24.966C9 32.1645 9.06948 33.6916 9.42025 34.1925C9.65147 34.5225 13.0483 36.6392 16.9686 38.8963C22.2425 41.9328 24.3401 43 25.0335 43C25.7269 43 27.8245 41.9328 33.0983 38.8963C37.0187 36.6392 40.4155 34.5225 40.6467 34.1925C40.9972 33.6919 41.067 32.1678 41.067 24.9975C41.067 15.3853 41.1311 15.7152 39.0291 14.5234C38.3708 14.1501 35.1624 12.3034 31.8992 10.4199C27.4517 7.8526 25.726 6.99608 25.0076 7.00001C24.2915 7.00367 22.2704 8.0315 17.0173 11.0638ZM15.118 20.9829L14.0632 21.0935V24.8737V28.6542H15.0477H16.0322L16.0708 27.0368C16.0919 26.1474 16.1085 25.198 16.1073 24.9272C16.104 24.0543 16.5312 24.3924 18.1509 26.5446C19.6527 28.5398 19.7984 28.6542 20.8392 28.6542H21.9393L21.9396 24.7865V20.9188H20.8848H19.8296L19.689 23.1238L19.5484 25.3288L17.8769 23.0535C16.9574 21.802 16.1979 20.7995 16.1892 20.8254C16.1802 20.8516 15.6983 20.9224 15.118 20.9829ZM23.6271 24.7865V28.6542H24.7522H25.8774V27.1071V25.5601H27.5651C29.2188 25.5601 29.2528 25.5443 29.2528 24.7865C29.2526 24.0324 29.2121 24.013 27.6354 24.013C26.0802 24.013 26.0146 23.9831 25.9291 23.2394L25.84 22.4659H31.0627H36.2851V21.6923V20.9188H29.9561H23.6271V24.7865ZM31.2219 26.2633V28.6542H32.347H33.4722V26.2633V23.8723H32.347H31.2219V26.2633Z" fill="#BC5AD7"/>
</svg>
