<svg width="24" height="24" viewBox="0 0 24 24" fill="none" xmlns="http://www.w3.org/2000/svg">
<circle cx="12" cy="12" r="11.6842" fill="#3A3D6C" stroke="#FDEB56" stroke-width="0.631579"/>
<path d="M5.83783 17.7054C5.79944 17.7612 5.73607 17.7945 5.66835 17.7945H3.40547C3.23706 17.7945 3.14001 17.6032 3.23947 17.4673L7.22664 12.0192C7.25245 11.984 7.26635 11.9414 7.26635 11.8978V11.8884C7.26635 11.8429 7.25129 11.7987 7.22353 11.7627L4.66642 8.4476C4.5621 8.31236 4.65851 8.11625 4.82931 8.11625H7.0842C7.14911 8.11625 7.21022 8.14688 7.24905 8.1989L8.97295 10.5081C8.99991 10.5442 9.04232 10.5654 9.08738 10.5654C9.13441 10.5654 9.17843 10.5423 9.20506 10.5035L12.2389 6.0892C12.2773 6.03336 12.3407 6 12.4084 6H14.6733C14.8413 6 14.9384 6.19054 14.8397 6.32654L10.8609 11.8094C10.8354 11.8445 10.8216 11.8868 10.8216 11.9302V11.9397C10.8216 11.9854 10.8368 12.0297 10.8648 12.0658L13.4086 15.3465C13.5134 15.4817 13.4171 15.6783 13.2461 15.6783H10.9932C10.9279 15.6783 10.8665 15.6473 10.8277 15.5948L9.1149 13.2756C9.08806 13.2393 9.04555 13.2178 9.00036 13.2178C8.95349 13.2178 8.90962 13.2409 8.88305 13.2795L5.83783 17.7054Z" fill="#FDEB56"/>
<path d="M16.0113 15.4726C16.0113 15.5862 15.9192 15.6783 15.8056 15.6783H14.0951C13.9815 15.6783 13.8894 15.5862 13.8894 15.4726V8.32196C13.8894 8.20835 13.9815 8.11625 14.0951 8.11625H18.0768C19.8713 8.11625 21 9.14333 21 10.9379C21 12.7325 19.8713 13.7709 18.0768 13.7709H16.217C16.1034 13.7709 16.0113 13.863 16.0113 13.9766V15.4726ZM17.8397 10.0237H16.217C16.1034 10.0237 16.0113 10.1158 16.0113 10.2294V11.6577C16.0113 11.7713 16.1034 11.8634 16.217 11.8634H17.8397C18.5847 11.8634 18.8894 11.7167 18.8894 10.9379C18.8894 10.1704 18.5847 10.0237 17.8397 10.0237Z" fill="#FDEB56"/>
</svg>
