<svg width="24" height="24" viewBox="0 0 24 24" fill="none" xmlns="http://www.w3.org/2000/svg">
<circle cx="12" cy="12" r="11.6842" fill="#303255" stroke="#8EC9ED" stroke-width="0.631579"/>
<path fill-rule="evenodd" clip-rule="evenodd" d="M19.3404 10.9043C19.2388 11.0029 19.101 11.0593 18.9559 11.0593C18.4192 11.0593 17.984 11.4821 17.984 11.9965C17.984 12.5144 18.4141 12.9351 18.9458 12.9407C19.2453 12.9435 19.4999 13.1464 19.4999 13.4375V15.2449C19.4999 16.7662 18.2306 18 16.6639 18H14.2993C14.0548 18 13.8568 17.8076 13.8568 17.5702V16.0482C13.8568 15.7522 13.6174 15.5197 13.3128 15.5197C13.0154 15.5197 12.7688 15.7522 12.7688 16.0482V17.5702C12.7688 17.8076 12.5708 18 12.3271 18H7.33601C5.77653 18 4.49994 16.7669 4.49994 15.2449V13.4375C4.49994 13.1464 4.75453 12.9435 5.0541 12.9407C5.5865 12.9351 6.0159 12.5144 6.0159 11.9965C6.0159 11.4962 5.5952 11.1157 5.04394 11.1157C4.89888 11.1157 4.76106 11.0593 4.65951 10.9607C4.55797 10.862 4.49994 10.7281 4.49994 10.5872V8.76218C4.49994 7.24298 5.77944 6 7.34327 6H12.3271C12.5708 6 12.7688 6.19237 12.7688 6.42983V8.23371C12.7688 8.52261 13.0154 8.76218 13.3128 8.76218C13.6174 8.76218 13.8568 8.52261 13.8568 8.23371V6.42983C13.8568 6.19237 14.0548 6 14.2993 6H16.6639C18.2306 6 19.4999 7.23312 19.4999 8.75514V10.5308C19.4999 10.6718 19.4419 10.8056 19.3404 10.9043ZM13.3128 14.1529C13.6174 14.1529 13.8568 13.9133 13.8568 13.6244V10.8058C13.8568 10.5169 13.6174 10.2773 13.3128 10.2773C13.0154 10.2773 12.7688 10.5169 12.7688 10.8058V13.6244C12.7688 13.9133 13.0154 14.1529 13.3128 14.1529Z" fill="#8EC9ED"/>
</svg>
