<svg width="16" height="16" viewBox="0 0 16 16" fill="none" xmlns="http://www.w3.org/2000/svg">
<path opacity="0.3" d="M8.00016 14.6668C11.6821 14.6668 14.6668 11.6821 14.6668 8.00016C14.6668 4.31826 11.6821 1.3335 8.00016 1.3335C4.31826 1.3335 1.3335 4.31826 1.3335 8.00016C1.3335 11.6821 4.31826 14.6668 8.00016 14.6668Z" fill="#2A0D32"/>
<path d="M7.80695 10.4733L11.807 6.47329C11.8691 6.41114 11.9184 6.33734 11.9521 6.25613C11.9857 6.17491 12.003 6.08787 12.003 5.99996C12.003 5.91205 11.9857 5.82501 11.9521 5.74379C11.9184 5.66258 11.8691 5.58879 11.807 5.52663C11.7448 5.46447 11.671 5.41516 11.5898 5.38152C11.5086 5.34788 11.4215 5.33057 11.3336 5.33057C11.2457 5.33057 11.1587 5.34788 11.0775 5.38152C10.9962 5.41516 10.9224 5.46447 10.8603 5.52663L7.33362 9.05996L5.14029 6.85996C5.01475 6.73443 4.84449 6.6639 4.66695 6.6639C4.48942 6.6639 4.31916 6.73443 4.19362 6.85996C4.06808 6.9855 3.99756 7.15576 3.99756 7.33329C3.99756 7.51083 4.06808 7.68109 4.19362 7.80663L6.86029 10.4733C6.92226 10.5358 6.996 10.5854 7.07724 10.6192C7.15847 10.6531 7.24561 10.6705 7.33362 10.6705C7.42163 10.6705 7.50876 10.6531 7.59 10.6192C7.67124 10.5854 7.74498 10.5358 7.80695 10.4733Z" fill="#2A0D32"/>
</svg>
