<svg width="50" height="50" viewBox="0 0 50 50" fill="none" xmlns="http://www.w3.org/2000/svg">
<g filter="url(#filter0_b_3307_30973)">
<rect width="50" height="50" rx="2" fill="#FDEB56" fill-opacity="0.15"/>
<path d="M12.6757 36.4109C12.5989 36.5224 12.4721 36.5891 12.3367 36.5891H7.81094C7.47413 36.5891 7.28001 36.2065 7.47893 35.9347L15.4533 25.0385C15.5049 24.968 15.5327 24.8829 15.5327 24.7955V24.7768C15.5327 24.6858 15.5026 24.5975 15.4471 24.5255L10.3328 17.8952C10.1242 17.6247 10.317 17.2325 10.6586 17.2325H15.1684C15.2982 17.2325 15.4204 17.2938 15.4981 17.3978L18.9459 22.0162C18.9998 22.0884 19.0846 22.1309 19.1748 22.1309C19.2688 22.1309 19.3569 22.0846 19.4101 22.0071L25.4778 13.1784C25.5545 13.0667 25.6814 13 25.8169 13H30.3465C30.6826 13 30.8769 13.3811 30.6795 13.6531L22.7217 24.6187C22.6708 24.689 22.6433 24.7736 22.6433 24.8604V24.8795C22.6433 24.9707 22.6737 25.0594 22.7296 25.1316L27.8173 31.6931C28.0269 31.9634 27.8342 32.3566 27.4921 32.3566H22.9863C22.8558 32.3566 22.733 32.2946 22.6554 32.1896L19.2298 27.5512C19.1761 27.4785 19.0911 27.4356 19.0007 27.4356C18.907 27.4356 18.8192 27.4818 18.7661 27.559L12.6757 36.4109Z" fill="#FDEB56"/>
<path d="M33.0226 31.9452C33.0226 32.1724 32.8384 32.3566 32.6112 32.3566H29.1903C28.963 32.3566 28.7788 32.1724 28.7788 31.9452V17.6439C28.7788 17.4167 28.963 17.2325 29.1903 17.2325H37.1535C40.7427 17.2325 43 19.2867 43 22.8758C43 26.465 40.7427 28.5417 37.1535 28.5417H33.434C33.2068 28.5417 33.0226 28.7259 33.0226 28.9531V31.9452ZM36.6795 21.0474H33.434C33.2068 21.0474 33.0226 21.2316 33.0226 21.4588V24.3154C33.0226 24.5426 33.2068 24.7268 33.434 24.7268H36.6795C38.1693 24.7268 38.7788 24.4334 38.7788 22.8758C38.7788 21.3408 38.1693 21.0474 36.6795 21.0474Z" fill="#FDEB56"/>
</g>
<defs>
<filter id="filter0_b_3307_30973" x="-15" y="-15" width="80" height="80" filterUnits="userSpaceOnUse" color-interpolation-filters="sRGB">
<feFlood flood-opacity="0" result="BackgroundImageFix"/>
<feGaussianBlur in="BackgroundImageFix" stdDeviation="7.5"/>
<feComposite in2="SourceAlpha" operator="in" result="effect1_backgroundBlur_3307_30973"/>
<feBlend mode="normal" in="SourceGraphic" in2="effect1_backgroundBlur_3307_30973" result="shape"/>
</filter>
</defs>
</svg>
