<svg width="42" height="42" viewBox="0 0 42 42" fill="none" xmlns="http://www.w3.org/2000/svg">
<rect width="42" height="42" rx="4" fill="#BC5AD7" fill-opacity="0.15"/>
<path d="M24.2141 14.9824L25.6158 13.5806C26.39 12.8065 27.6452 12.8065 28.4194 13.5806C29.1935 14.3548 29.1935 15.61 28.4194 16.3841L27.0176 17.7859M24.2141 14.9824L15.9802 23.2163C14.9349 24.2616 14.4123 24.7842 14.0564 25.4211C13.7005 26.058 13.3424 27.5619 13 29C14.4381 28.6576 15.942 28.2995 16.5789 27.9436C17.2158 27.5877 17.7384 27.0651 18.7837 26.0198L27.0176 17.7859M24.2141 14.9824L27.0176 17.7859" stroke="#BC5AD7" stroke-width="1.5" stroke-linecap="round" stroke-linejoin="round"/>
<path d="M20 29H26" stroke="#BC5AD7" stroke-width="1.5" stroke-linecap="round"/>
</svg>
