<svg width="42" height="42" viewBox="0 0 42 42" fill="none" xmlns="http://www.w3.org/2000/svg">
<rect width="42" height="42" rx="4" fill="#BC5AD7" fill-opacity="0.15"/>
<path d="M21 17V21L22.5 22.5" stroke="#BC5AD7" stroke-width="1.5" stroke-linecap="round" stroke-linejoin="round"/>
<path d="M28.5454 25.4534C30.1818 26.337 31 26.7789 31 27.5C31 28.2211 30.1818 28.663 28.5454 29.5466L27.4311 30.1484C26.1744 30.827 25.5461 31.1663 25.2439 30.9196C24.504 30.3154 25.6567 28.7561 25.9403 28.2037C26.2277 27.644 26.2225 27.3459 25.9403 26.7963C25.6567 26.2439 24.504 24.6846 25.2439 24.0804C25.5461 23.8337 26.1744 24.173 27.4311 24.8516L28.5454 25.4534Z" stroke="#BC5AD7" stroke-width="1.5"/>
<path d="M22.0261 30.948C21.6888 30.9824 21.3464 31 21 31C15.4771 31 11 26.5228 11 21C11 15.4771 15.4771 11 21 11C26.5228 11 31 15.4771 31 21C31 21.6849 30.9311 22.3538 30.8 23" stroke="#BC5AD7" stroke-width="1.5" stroke-linecap="round"/>
</svg>
