<svg width="1440" height="800" viewBox="0 0 1440 800" fill="none" xmlns="http://www.w3.org/2000/svg">
<g clip-path="url(#clip0_5716_13430)">
<rect width="1440" height="800" fill="#140718"/>
<path d="M-434.637 -249V-219.742M-434.637 -219.742L-434.637 -166.059M-434.637 -219.742H-480M-434.637 -219.742H-380.954M-434.637 -166.059V-112.375M-434.637 -166.059H-480M-434.637 -166.059H-380.954M-434.637 -112.375L-434.637 -58.6916M-434.637 -112.375H-480M-434.637 -112.375H-380.954M-434.637 -58.6916V-5.00803M-434.637 -58.6916H-480M-434.637 -58.6916H-380.954M-434.637 -5.00803L-434.637 48.6756M-434.637 -5.00803H-480M-434.637 -5.00803H-380.954M-434.637 48.6756V102.359M-434.637 48.6756H-480M-434.637 48.6756H-380.954M-434.637 102.359L-434.637 156.043M-434.637 102.359H-480M-434.637 102.359H-380.954M-434.637 156.043V209.726M-434.637 156.043H-480M-434.637 156.043H-380.954M-434.637 209.726L-434.637 263.41M-434.637 209.726H-480M-434.637 209.726H-380.954M-434.637 263.41V317.094M-434.637 263.41H-480M-434.637 263.41H-380.954M-434.637 317.094L-434.637 370.777M-434.637 317.094H-480M-434.637 317.094H-380.954M-434.637 370.777V400.572M-434.637 370.777H-480M-434.637 370.777H-380.954M-380.954 -249V-219.742M-380.954 -219.742V-166.059M-380.954 -219.742H-327.27M-380.954 -166.059L-380.954 -112.375M-380.954 -166.059H-327.27M-380.954 -112.375V-58.6916M-380.954 -112.375H-327.27M-380.954 -58.6916V-5.00803M-380.954 -58.6916H-327.27M-380.954 -5.00803V48.6756M-380.954 -5.00803H-327.27M-380.954 48.6756L-380.954 102.359M-380.954 48.6756H-327.27M-380.954 102.359V156.043M-380.954 102.359H-327.27M-380.954 156.043V209.726M-380.954 156.043H-327.27M-380.954 209.726V263.41M-380.954 209.726H-327.27M-380.954 263.41L-380.954 317.094M-380.954 263.41H-327.27M-380.954 317.094V370.777M-380.954 317.094H-327.27M-380.954 370.777V400.572M-380.954 370.777H-327.27M-327.27 -249V-219.742M-327.27 -219.742V-166.059M-327.27 -219.742H-273.587M-327.27 -166.059V-112.375M-327.27 -166.059H-273.587M-327.27 -112.375V-58.6916M-327.27 -112.375H-273.587M-327.27 -58.6916V-5.00803M-327.27 -58.6916H-273.587M-327.27 -5.00803V48.6756M-327.27 -5.00803H-273.587M-327.27 48.6756V102.359M-327.27 48.6756H-273.587M-327.27 102.359V156.043M-327.27 102.359H-273.587M-327.27 156.043V209.726M-327.27 156.043H-273.587M-327.27 209.726L-327.27 263.41M-327.27 209.726H-273.587M-327.27 263.41V317.094M-327.27 263.41H-273.587M-327.27 317.094V370.777M-327.27 317.094H-273.587M-327.27 370.777V400.572M-327.27 370.777H-273.587M-273.587 -249V-219.742M-273.587 -219.742V-166.059M-273.587 -219.742H-219.903M-273.587 -166.059V-112.375M-273.587 -166.059H-219.903M-273.587 -112.375L-273.587 -58.6916M-273.587 -112.375H-219.903M-273.587 -58.6916V-5.00803M-273.587 -58.6916H-219.903M-273.587 -5.00803V48.6756M-273.587 -5.00803H-219.903M-273.587 48.6756V102.359M-273.587 48.6756H-219.903M-273.587 102.359V156.043M-273.587 102.359H-219.903M-273.587 156.043V209.726M-273.587 156.043H-219.903M-273.587 209.726L-273.587 263.41M-273.587 209.726H-219.903M-273.587 263.41V317.094M-273.587 263.41H-219.903M-273.587 317.094V370.777M-273.587 317.094H-219.903M-273.587 370.777V400.572M-273.587 370.777H-219.903M-219.903 -249V-219.742M-219.903 -219.742V-166.059M-219.903 -219.742H-166.219M-219.903 -166.059V-112.375M-219.903 -166.059H-166.219M-219.903 -112.375L-219.903 -58.6916M-219.903 -112.375H-166.219M-219.903 -58.6916V-5.00803M-219.903 -58.6916H-166.219M-219.903 -5.00803V48.6756M-219.903 -5.00803H-166.219M-219.903 48.6756V102.359M-219.903 48.6756H-166.219M-219.903 102.359V156.043M-219.903 102.359H-166.219M-219.903 156.043V209.726M-219.903 156.043H-166.219M-219.903 209.726V263.41M-219.903 209.726H-166.219M-219.903 263.41V317.094M-219.903 263.41H-166.219M-219.903 317.094V370.777M-219.903 317.094H-166.219M-219.903 370.777V400.572M-219.903 370.777H-166.219M-166.219 -249V-219.742M-166.219 -219.742V-166.059M-166.219 -219.742H-112.536M-166.219 -166.059V-112.375M-166.219 -166.059H-112.536M-166.219 -112.375V-58.6916M-166.219 -112.375H-112.536M-166.219 -58.6916V-5.00803M-166.219 -58.6916H-112.536M-166.219 -5.00803V48.6756M-166.219 -5.00803H-112.536M-166.219 48.6756V102.359M-166.219 48.6756H-112.536M-166.219 102.359V156.043M-166.219 102.359H-112.536M-166.219 156.043V209.726M-166.219 156.043H-112.536M-166.219 209.726L-166.219 263.41M-166.219 209.726H-112.536M-166.219 263.41V317.094M-166.219 263.41H-112.536M-166.219 317.094V370.777M-166.219 317.094H-112.536M-166.219 370.777V400.572M-166.219 370.777H-112.536M-112.536 -249V-219.742M-112.536 -219.742V-166.059M-112.536 -219.742H-58.8521M-112.536 -166.059V-112.375M-112.536 -166.059H-58.8521M-112.536 -112.375V-58.6916M-112.536 -112.375H-58.8521M-112.536 -58.6916V-5.00803M-112.536 -58.6916H-58.8521M-112.536 -5.00803V48.6756M-112.536 -5.00803H-58.8521M-112.536 48.6756L-112.536 102.359M-112.536 48.6756H-58.8521M-112.536 102.359V156.043M-112.536 102.359H-58.8522M-112.536 156.043V209.726M-112.536 156.043H-58.8522M-112.536 209.726V263.41M-112.536 209.726H-58.8522M-112.536 263.41V317.094M-112.536 263.41H-58.8522M-112.536 317.094V370.777M-112.536 317.094H-58.8522M-112.536 370.777V400.572M-112.536 370.777H-58.8522M-58.8521 -249V-219.742M-58.8521 -219.742V-166.059M-58.8521 -219.742H-5.16858M-58.8521 -166.059V-112.375M-58.8521 -166.059H-5.16858M-58.8521 -112.375V-58.6916M-58.8521 -112.375H-5.16858M-58.8521 -58.6916V-5.00803M-58.8521 -58.6916H-5.16858M-58.8521 -5.00803V48.6756M-58.8521 -5.00803H-5.16858M-58.8521 48.6756L-58.8522 102.359M-58.8521 48.6756H-5.16858M-58.8522 102.359V156.043M-58.8522 102.359H-5.16861M-58.8522 156.043V209.726M-58.8522 156.043H-5.16861M-58.8522 209.726V263.41M-58.8522 209.726H-5.16861M-58.8522 263.41V317.094M-58.8522 263.41H-5.16861M-58.8522 317.094V370.777M-58.8522 317.094H-5.16861M-58.8522 370.777V400.572M-58.8522 370.777H-5.16861M-5.16858 -249V-219.742M-5.16858 -219.742V-166.059M-5.16858 -219.742H48.515M-5.16858 -166.059V-112.375M-5.16858 -166.059H48.515M-5.16858 -112.375V-58.6916M-5.16858 -112.375H48.515M-5.16858 -58.6916V-5.00803M-5.16858 -58.6916H48.515M-5.16858 -5.00803V48.6756M-5.16858 -5.00803H48.515M-5.16858 48.6756L-5.16861 102.359M-5.16858 48.6756H48.515M-5.16861 102.359V156.043M-5.16861 102.359H48.515M-5.16861 156.043V209.726M-5.16861 156.043H48.515M-5.16861 209.726V263.41M-5.16861 209.726H48.515M-5.16861 263.41V317.094M-5.16861 263.41H48.515M-5.16861 317.094V370.777M-5.16861 317.094H48.515M-5.16861 370.777V400.572M-5.16861 370.777H48.515M48.515 -249V-219.742M48.515 -219.742V-166.059M48.515 -219.742H102.199M48.515 -166.059V-112.375M48.515 -166.059H102.199M48.515 -112.375V-58.6916M48.515 -112.375H102.199M48.515 -58.6916V-5.00803M48.515 -58.6916H102.199M48.515 -5.00803V48.6756M48.515 -5.00803H102.199M48.515 48.6756V102.359M48.515 48.6756H102.199M48.515 102.359V156.043M48.515 102.359H102.199M48.515 156.043V209.726M48.515 156.043H102.199M48.515 209.726V263.41M48.515 209.726H102.199M48.515 263.41V317.094M48.515 263.41H102.199M48.515 317.094V370.777M48.515 317.094H102.199M48.515 370.777V400.572M48.515 370.777H102.199M102.199 -249V-219.742M102.199 -219.742V-166.059M102.199 -219.742L155.882 -219.742M102.199 -166.059V-112.375M102.199 -166.059H155.882M102.199 -112.375V-58.6916M102.199 -112.375H155.882M102.199 -58.6916V-5.00803M102.199 -58.6916H155.882M102.199 -5.00803V48.6756M102.199 -5.00803H155.882M102.199 48.6756V102.359M102.199 48.6756H155.882M102.199 102.359V156.043M102.199 102.359H155.882M102.199 156.043V209.726M102.199 156.043H155.882M102.199 209.726V263.41M102.199 209.726H155.882M102.199 263.41V317.094M102.199 263.41H155.882M102.199 317.094V370.777M102.199 317.094H155.882M102.199 370.777V400.572M102.199 370.777H155.882M155.882 -249V-219.742M155.882 -219.742V-166.059M155.882 -219.742H209.566M155.882 -166.059V-112.375M155.882 -166.059H209.566M155.882 -112.375V-58.6916M155.882 -112.375H209.566M155.882 -58.6916V-5.00803M155.882 -58.6916H209.566M155.882 -5.00803V48.6756M155.882 -5.00803H209.566M155.882 48.6756V102.359M155.882 48.6756H209.566M155.882 102.359V156.043M155.882 102.359H209.566M155.882 156.043V209.726M155.882 156.043H209.566M155.882 209.726V263.41M155.882 209.726H209.566M155.882 263.41V317.094M155.882 263.41H209.566M155.882 317.094V370.777M155.882 317.094H209.566M155.882 370.777V400.572M155.882 370.777H209.566M209.566 -249V-219.742M209.566 -219.742V-166.059M209.566 -219.742H263.249M209.566 -166.059V-112.375M209.566 -166.059H263.249M209.566 -112.375V-58.6916M209.566 -112.375H263.249M209.566 -58.6916V-5.00803M209.566 -58.6916H263.249M209.566 -5.00803V48.6756M209.566 -5.00803H263.249M209.566 48.6756V102.359M209.566 48.6756H263.249M209.566 102.359V156.043M209.566 102.359H263.249M209.566 156.043V209.726M209.566 156.043H263.249M209.566 209.726V263.41M209.566 209.726H263.249M209.566 263.41V317.094M209.566 263.41H263.249M209.566 317.094V370.777M209.566 317.094H263.249M209.566 370.777V400.572M209.566 370.777H263.249M263.249 -249V-219.742M263.249 -219.742V-166.059M263.249 -219.742H316.933M263.249 -166.059V-112.375M263.249 -166.059H316.933M263.249 -112.375V-58.6916M263.249 -112.375H316.933M263.249 -58.6916V-5.00803M263.249 -58.6916H316.933M263.249 -5.00803V48.6756M263.249 -5.00803H316.933M263.249 48.6756V102.359M263.249 48.6756H316.933M263.249 102.359V156.043M263.249 102.359H316.933M263.249 156.043V209.726M263.249 156.043H316.933M263.249 209.726V263.41M263.249 209.726H316.933M263.249 263.41V317.094M263.249 263.41H316.933M263.249 317.094V370.777M263.249 317.094H316.933M263.249 370.777V400.572M263.249 370.777H316.933M316.933 -249V-219.742M316.933 -219.742V-166.059M316.933 -219.742H370.617M316.933 -166.059V-112.375M316.933 -166.059H370.617M316.933 -112.375V-58.6916M316.933 -112.375H370.617M316.933 -58.6916V-5.00803M316.933 -58.6916H370.617M316.933 -5.00803V48.6756M316.933 -5.00803H370.617M316.933 48.6756V102.359M316.933 48.6756H370.617M316.933 102.359V156.043M316.933 102.359H370.617M316.933 156.043V209.726M316.933 156.043H370.617M316.933 209.726V263.41M316.933 209.726H370.617M316.933 263.41V317.094M316.933 263.41H370.617M316.933 317.094V370.777M316.933 317.094H370.617M316.933 370.777V400.572M316.933 370.777H370.617M370.617 -249V-219.742M370.617 -219.742V-166.059M370.617 -219.742H424.3M370.617 -166.059V-112.375M370.617 -166.059H424.3M370.617 -112.375V-58.6916M370.617 -112.375H424.3M370.617 -58.6916V-5.00803M370.617 -58.6916H424.3M370.617 -5.00803V48.6756M370.617 -5.00803H424.3M370.617 48.6756V102.359M370.617 48.6756H424.3M370.617 102.359V156.043M370.617 102.359H424.3M370.617 156.043V209.726M370.617 156.043H424.3M370.617 209.726V263.41M370.617 209.726H424.3M370.617 263.41V317.094M370.617 263.41H424.3M370.617 317.094V370.777M370.617 317.094H424.3M370.617 370.777V400.572M370.617 370.777H424.3M424.3 -249V-219.742M424.3 -219.742V-166.059M424.3 -219.742H477.984M424.3 -166.059V-112.375M424.3 -166.059H477.984M424.3 -112.375V-58.6916M424.3 -112.375H477.984M424.3 -58.6916V-5.00803M424.3 -58.6916H477.984M424.3 -5.00803V48.6756M424.3 -5.00803H477.984M424.3 48.6756V102.359M424.3 48.6756H477.984M424.3 102.359V156.043M424.3 102.359H477.984M424.3 156.043V209.726M424.3 156.043H477.984M424.3 209.726V263.41M424.3 209.726H477.984M424.3 263.41V317.094M424.3 263.41H477.984M424.3 317.094V370.777M424.3 317.094H477.984M424.3 370.777V400.572M424.3 370.777H477.984M477.984 -249V-219.742M477.984 -219.742V-166.059M477.984 -219.742H531.667M477.984 -166.059V-112.375M477.984 -166.059H531.667M477.984 -112.375V-58.6916M477.984 -112.375H531.667M477.984 -58.6916V-5.00803M477.984 -58.6916H531.667M477.984 -5.00803V48.6756M477.984 -5.00803H531.667M477.984 48.6756V102.359M477.984 48.6756H531.667M477.984 102.359V156.043M477.984 102.359H531.667M477.984 156.043V209.726M477.984 156.043H531.667M477.984 209.726V263.41M477.984 209.726H531.667M477.984 263.41V317.094M477.984 263.41H531.667M477.984 317.094V370.777M477.984 317.094H531.667M477.984 370.777V400.572M477.984 370.777H531.667M531.667 -249V-219.742M531.667 -219.742V-166.059M531.667 -219.742H585.351M531.667 -166.059V-112.375M531.667 -166.059H585.351M531.667 -112.375V-58.6916M531.667 -112.375H585.351M531.667 -58.6916V-5.00803M531.667 -58.6916H585.351M531.667 -5.00803V48.6756M531.667 -5.00803H585.351M531.667 48.6756V102.359M531.667 48.6756H585.351M531.667 102.359V156.043M531.667 102.359H585.351M531.667 156.043V209.726M531.667 156.043H585.351M531.667 209.726V263.41M531.667 209.726H585.351M531.667 263.41V317.094M531.667 263.41H585.351M531.667 317.094V370.777M531.667 317.094H585.351M531.667 370.777V400.572M531.667 370.777H585.351M585.351 -249V-219.742M585.351 -219.742V-166.059M585.351 -219.742H639.035M585.351 -166.059V-112.375M585.351 -166.059H639.035M585.351 -112.375V-58.6916M585.351 -112.375H639.035M585.351 -58.6916V-5.00803M585.351 -58.6916H639.035M585.351 -5.00803V48.6756M585.351 -5.00803H639.035M585.351 48.6756V102.359M585.351 48.6756H639.035M585.351 102.359V156.043M585.351 102.359H639.035M585.351 156.043V209.726M585.351 156.043H639.035M585.351 209.726V263.41M585.351 209.726H639.035M585.351 263.41V317.094M585.351 263.41H639.035M585.351 317.094V370.777M585.351 317.094H639.035M585.351 370.777V400.572M585.351 370.777H639.035M639.035 -249V-219.742M639.035 -219.742V-166.059M639.035 -219.742H692.718M639.035 -166.059V-112.375M639.035 -166.059H692.718M639.035 -112.375V-58.6916M639.035 -112.375H692.718M639.035 -58.6916V-5.00803M639.035 -58.6916H692.718M639.035 -5.00803V48.6756M639.035 -5.00803H692.718M639.035 48.6756V102.359M639.035 48.6756H692.718M639.035 102.359V156.043M639.035 102.359H692.718M639.035 156.043V209.726M639.035 156.043H692.718M639.035 209.726V263.41M639.035 209.726H692.718M639.035 263.41V317.094M639.035 263.41H692.718M639.035 317.094V370.777M639.035 317.094H692.718M639.035 370.777V400.572M639.035 370.777H692.718M692.718 -249V-219.742M692.718 -219.742V-166.059M692.718 -219.742H738.081M692.718 -166.059V-112.375M692.718 -166.059H738.081M692.718 -112.375V-58.6916M692.718 -112.375H738.081M692.718 -58.6916V-5.00803M692.718 -58.6916H738.081M692.718 -5.00803V48.6756M692.718 -5.00803H738.081M692.718 48.6756V102.359M692.718 48.6756H738.081M692.718 102.359V156.043M692.718 102.359H738.081M692.718 156.043V209.726M692.718 156.043H738.081M692.718 209.726V263.41M692.718 209.726H738.081M692.718 263.41V317.094M692.718 263.41H738.081M692.718 317.094V370.777M692.718 317.094H738.081M692.718 370.777V400.572M692.718 370.777H738.081M747.282 -249V-219.742M747.282 -219.742V-166.059M747.282 -219.742H701.919M747.282 -219.742H800.965M747.282 -166.059V-112.375M747.282 -166.059H701.919M747.282 -166.059H800.965M747.282 -112.375V-58.6916M747.282 -112.375H701.919M747.282 -112.375H800.965M747.282 -58.6916V-5.00803M747.282 -58.6916H701.919M747.282 -58.6916H800.965M747.282 -5.00803V48.6756M747.282 -5.00803H701.919M747.282 -5.00803H800.965M747.282 48.6756V102.359M747.282 48.6756H701.919M747.282 48.6756H800.965M747.282 102.359V156.043M747.282 102.359H701.919M747.282 102.359H800.965M747.282 156.043V209.726M747.282 156.043H701.919M747.282 156.043H800.965M747.282 209.726V263.41M747.282 209.726H701.919M747.282 209.726H800.965M747.282 263.41V317.094M747.282 263.41H701.919M747.282 263.41H800.965M747.282 317.094V370.777M747.282 317.094H701.919M747.282 317.094H800.965M747.282 370.777V400.572M747.282 370.777H701.919M747.282 370.777H800.965M800.965 -249V-219.742M800.965 -219.742V-166.059M800.965 -219.742H854.649M800.965 -166.059V-112.375M800.965 -166.059H854.649M800.965 -112.375V-58.6916M800.965 -112.375H854.649M800.965 -58.6916V-5.00803M800.965 -58.6916H854.649M800.965 -5.00803V48.6756M800.965 -5.00803H854.649M800.965 48.6756V102.359M800.965 48.6756H854.649M800.965 102.359V156.043M800.965 102.359H854.649M800.965 156.043V209.726M800.965 156.043H854.649M800.965 209.726V263.41M800.965 209.726H854.649M800.965 263.41V317.094M800.965 263.41H854.649M800.965 317.094V370.777M800.965 317.094H854.649M800.965 370.777V400.572M800.965 370.777H854.649M854.649 -249V-219.742M854.649 -219.742V-166.059M854.649 -219.742H908.333M854.649 -166.059V-112.375M854.649 -166.059H908.333M854.649 -112.375V-58.6916M854.649 -112.375H908.333M854.649 -58.6916V-5.00803M854.649 -58.6916H908.333M854.649 -5.00803V48.6756M854.649 -5.00803H908.333M854.649 48.6756V102.359M854.649 48.6756H908.333M854.649 102.359V156.043M854.649 102.359H908.333M854.649 156.043V209.726M854.649 156.043H908.333M854.649 209.726V263.41M854.649 209.726H908.333M854.649 263.41V317.094M854.649 263.41H908.333M854.649 317.094V370.777M854.649 317.094H908.333M854.649 370.777V400.572M854.649 370.777H908.333M908.333 -249V-219.742M908.333 -219.742V-166.059M908.333 -219.742H962.016M908.333 -166.059V-112.375M908.333 -166.059H962.016M908.333 -112.375L908.333 -58.6916M908.333 -112.375H962.016M908.333 -58.6916V-5.00803M908.333 -58.6916H962.016M908.333 -5.00803V48.6756M908.333 -5.00803H962.016M908.333 48.6756V102.359M908.333 48.6756H962.016M908.333 102.359V156.043M908.333 102.359H962.016M908.333 156.043V209.726M908.333 156.043H962.016M908.333 209.726V263.41M908.333 209.726H962.016M908.333 263.41V317.094M908.333 263.41H962.016M908.333 317.094V370.777M908.333 317.094H962.016M908.333 370.777V400.572M908.333 370.777H962.016M962.016 -249V-219.742M962.016 -219.742V-166.059M962.016 -219.742H1015.7M962.016 -166.059V-112.375M962.016 -166.059H1015.7M962.016 -112.375V-58.6916M962.016 -112.375H1015.7M962.016 -58.6916V-5.00803M962.016 -58.6916H1015.7M962.016 -5.00803V48.6756M962.016 -5.00803H1015.7M962.016 48.6756V102.359M962.016 48.6756H1015.7M962.016 102.359V156.043M962.016 102.359H1015.7M962.016 156.043V209.726M962.016 156.043H1015.7M962.016 209.726V263.41M962.016 209.726H1015.7M962.016 263.41V317.094M962.016 263.41H1015.7M962.016 317.094V370.777M962.016 317.094H1015.7M962.016 370.777V400.572M962.016 370.777H1015.7M1015.7 -249V-219.742M1015.7 -219.742V-166.059M1015.7 -219.742H1069.38M1015.7 -166.059V-112.375M1015.7 -166.059H1069.38M1015.7 -112.375V-58.6916M1015.7 -112.375H1069.38M1015.7 -58.6916V-5.00803M1015.7 -58.6916H1069.38M1015.7 -5.00803V48.6756M1015.7 -5.00803H1069.38M1015.7 48.6756V102.359M1015.7 48.6756H1069.38M1015.7 102.359V156.043M1015.7 102.359H1069.38M1015.7 156.043V209.726M1015.7 156.043H1069.38M1015.7 209.726V263.41M1015.7 209.726H1069.38M1015.7 263.41V317.094M1015.7 263.41H1069.38M1015.7 317.094V370.777M1015.7 317.094H1069.38M1015.7 370.777V400.572M1015.7 370.777H1069.38M1069.38 -249V-219.742M1069.38 -219.742V-166.059M1069.38 -219.742H1123.07M1069.38 -166.059V-112.375M1069.38 -166.059H1123.07M1069.38 -112.375V-58.6916M1069.38 -112.375H1123.07M1069.38 -58.6916V-5.00803M1069.38 -58.6916H1123.07M1069.38 -5.00803V48.6756M1069.38 -5.00803H1123.07M1069.38 48.6756V102.359M1069.38 48.6756H1123.07M1069.38 102.359V156.043M1069.38 102.359H1123.07M1069.38 156.043V209.726M1069.38 156.043H1123.07M1069.38 209.726V263.41M1069.38 209.726H1123.07M1069.38 263.41V317.094M1069.38 263.41H1123.07M1069.38 317.094V370.777M1069.38 317.094H1123.07M1069.38 370.777V400.572M1069.38 370.777H1123.07M1123.07 -249V-219.742M1123.07 -219.742V-166.059M1123.07 -219.742H1176.75M1123.07 -166.059V-112.375M1123.07 -166.059H1176.75M1123.07 -112.375V-58.6916M1123.07 -112.375H1176.75M1123.07 -58.6916V-5.00803M1123.07 -58.6916H1176.75M1123.07 -5.00803V48.6756M1123.07 -5.00803H1176.75M1123.07 48.6756L1123.07 102.359M1123.07 48.6756H1176.75M1123.07 102.359V156.043M1123.07 102.359H1176.75M1123.07 156.043V209.726M1123.07 156.043H1176.75M1123.07 209.726V263.41M1123.07 209.726H1176.75M1123.07 263.41V317.094M1123.07 263.41H1176.75M1123.07 317.094V370.777M1123.07 317.094H1176.75M1123.07 370.777V400.572M1123.07 370.777H1176.75M1176.75 -249V-219.742M1176.75 -219.742V-166.059M1176.75 -219.742H1230.43M1176.75 -166.059V-112.375M1176.75 -166.059H1230.43M1176.75 -112.375V-58.6916M1176.75 -112.375H1230.43M1176.75 -58.6916V-5.00803M1176.75 -58.6916H1230.43M1176.75 -5.00803V48.6756M1176.75 -5.00803H1230.43M1176.75 48.6756V102.359M1176.75 48.6756H1230.43M1176.75 102.359V156.043M1176.75 102.359H1230.43M1176.75 156.043V209.726M1176.75 156.043H1230.43M1176.75 209.726V263.41M1176.75 209.726H1230.43M1176.75 263.41V317.094M1176.75 263.41H1230.43M1176.75 317.094V370.777M1176.75 317.094H1230.43M1176.75 370.777V400.572M1176.75 370.777H1230.43M1230.43 -249V-219.742M1230.43 -219.742V-166.059M1230.43 -219.742H1284.12M1230.43 -166.059V-112.375M1230.43 -166.059H1284.12M1230.43 -112.375V-58.6916M1230.43 -112.375H1284.12M1230.43 -58.6916V-5.00803M1230.43 -58.6916H1284.12M1230.43 -5.00803V48.6756M1230.43 -5.00803H1284.12M1230.43 48.6756V102.359M1230.43 48.6756H1284.12M1230.43 102.359V156.043M1230.43 102.359H1284.12M1230.43 156.043V209.726M1230.43 156.043H1284.12M1230.43 209.726V263.41M1230.43 209.726H1284.12M1230.43 263.41V317.094M1230.43 263.41H1284.12M1230.43 317.094V370.777M1230.43 317.094H1284.12M1230.43 370.777V400.572M1230.43 370.777H1284.12M1284.12 -249V-219.742M1284.12 -219.742V-166.059M1284.12 -219.742L1337.8 -219.742M1284.12 -166.059V-112.375M1284.12 -166.059H1337.8M1284.12 -112.375V-58.6916M1284.12 -112.375H1337.8M1284.12 -58.6916V-5.00803M1284.12 -58.6916H1337.8M1284.12 -5.00803V48.6756M1284.12 -5.00803H1337.8M1284.12 48.6756V102.359M1284.12 48.6756H1337.8M1284.12 102.359V156.043M1284.12 102.359H1337.8M1284.12 156.043V209.726M1284.12 156.043H1337.8M1284.12 209.726V263.41M1284.12 209.726H1337.8M1284.12 263.41V317.094M1284.12 263.41H1337.8M1284.12 317.094V370.777M1284.12 317.094H1337.8M1284.12 370.777V400.572M1284.12 370.777H1337.8M1337.8 -249V-219.742M1337.8 -219.742V-166.059M1337.8 -219.742H1391.48M1337.8 -166.059V-112.375M1337.8 -166.059H1391.48M1337.8 -112.375V-58.6916M1337.8 -112.375H1391.48M1337.8 -58.6916V-5.00803M1337.8 -58.6916H1391.48M1337.8 -5.00803V48.6756M1337.8 -5.00803H1391.48M1337.8 48.6756V102.359M1337.8 48.6756H1391.48M1337.8 102.359V156.043M1337.8 102.359H1391.48M1337.8 156.043V209.726M1337.8 156.043H1391.48M1337.8 209.726V263.41M1337.8 209.726H1391.48M1337.8 263.41V317.094M1337.8 263.41H1391.48M1337.8 317.094V370.777M1337.8 317.094H1391.48M1337.8 370.777V400.572M1337.8 370.777H1391.48M1391.48 -249V-219.742M1391.48 -219.742V-166.059M1391.48 -219.742H1445.17M1391.48 -166.059V-112.375M1391.48 -166.059H1445.17M1391.48 -112.375V-58.6916M1391.48 -112.375H1445.17M1391.48 -58.6916V-5.00803M1391.48 -58.6916H1445.17M1391.48 -5.00803V48.6756M1391.48 -5.00803H1445.17M1391.48 48.6756V102.359M1391.48 48.6756H1445.17M1391.48 102.359V156.043M1391.48 102.359H1445.17M1391.48 156.043V209.726M1391.48 156.043H1445.17M1391.48 209.726V263.41M1391.48 209.726H1445.17M1391.48 263.41V317.094M1391.48 263.41H1445.17M1391.48 317.094V370.777M1391.48 317.094H1445.17M1391.48 370.777V400.572M1391.48 370.777H1445.17M1445.17 -249V-219.742M1445.17 -219.742V-166.059M1445.17 -219.742H1498.85M1445.17 -166.059V-112.375M1445.17 -166.059H1498.85M1445.17 -112.375V-58.6916M1445.17 -112.375H1498.85M1445.17 -58.6916V-5.00803M1445.17 -58.6916H1498.85M1445.17 -5.00803V48.6756M1445.17 -5.00803H1498.85M1445.17 48.6756V102.359M1445.17 48.6756H1498.85M1445.17 102.359V156.043M1445.17 102.359H1498.85M1445.17 156.043V209.726M1445.17 156.043H1498.85M1445.17 209.726V263.41M1445.17 209.726H1498.85M1445.17 263.41V317.094M1445.17 263.41H1498.85M1445.17 317.094V370.777M1445.17 317.094H1498.85M1445.17 370.777V400.572M1445.17 370.777H1498.85M1498.85 -249V-219.742M1498.85 -219.742V-166.059M1498.85 -219.742H1552.54M1498.85 -166.059V-112.375M1498.85 -166.059H1552.54M1498.85 -112.375V-58.6916M1498.85 -112.375H1552.54M1498.85 -58.6916V-5.00803M1498.85 -58.6916H1552.54M1498.85 -5.00803V48.6756M1498.85 -5.00803H1552.54M1498.85 48.6756V102.359M1498.85 48.6756H1552.54M1498.85 102.359V156.043M1498.85 102.359H1552.54M1498.85 156.043V209.726M1498.85 156.043H1552.54M1498.85 209.726V263.41M1498.85 209.726H1552.54M1498.85 263.41V317.094M1498.85 263.41H1552.54M1498.85 317.094V370.777M1498.85 317.094H1552.54M1498.85 370.777V400.572M1498.85 370.777H1552.54M1552.54 -249V-219.742M1552.54 -219.742V-166.059M1552.54 -219.742H1606.22M1552.54 -166.059V-112.375M1552.54 -166.059H1606.22M1552.54 -112.375V-58.6916M1552.54 -112.375H1606.22M1552.54 -58.6916V-5.00803M1552.54 -58.6916H1606.22M1552.54 -5.00803V48.6756M1552.54 -5.00803H1606.22M1552.54 48.6756V102.359M1552.54 48.6756H1606.22M1552.54 102.359V156.043M1552.54 102.359H1606.22M1552.54 156.043V209.726M1552.54 156.043H1606.22M1552.54 209.726V263.41M1552.54 209.726H1606.22M1552.54 263.41V317.094M1552.54 263.41H1606.22M1552.54 317.094V370.777M1552.54 317.094H1606.22M1552.54 370.777V400.572M1552.54 370.777H1606.22M1606.22 -249V-219.742M1606.22 -219.742V-166.059M1606.22 -219.742H1659.9M1606.22 -166.059V-112.375M1606.22 -166.059H1659.9M1606.22 -112.375V-58.6916M1606.22 -112.375H1659.9M1606.22 -58.6916V-5.00803M1606.22 -58.6916H1659.9M1606.22 -5.00803V48.6756M1606.22 -5.00803H1659.9M1606.22 48.6756V102.359M1606.22 48.6756H1659.9M1606.22 102.359V156.043M1606.22 102.359H1659.9M1606.22 156.043V209.726M1606.22 156.043H1659.9M1606.22 209.726V263.41M1606.22 209.726H1659.9M1606.22 263.41V317.094M1606.22 263.41H1659.9M1606.22 317.094V370.777M1606.22 317.094H1659.9M1606.22 370.777V400.572M1606.22 370.777H1659.9M1659.9 -249V-219.742M1659.9 -219.742V-166.059M1659.9 -219.742H1713.59M1659.9 -166.059V-112.375M1659.9 -166.059H1713.59M1659.9 -112.375V-58.6916M1659.9 -112.375H1713.59M1659.9 -58.6916V-5.00803M1659.9 -58.6916H1713.59M1659.9 -5.00803V48.6756M1659.9 -5.00803H1713.59M1659.9 48.6756V102.359M1659.9 48.6756H1713.59M1659.9 102.359V156.043M1659.9 102.359H1713.59M1659.9 156.043V209.726M1659.9 156.043H1713.59M1659.9 209.726V263.41M1659.9 209.726H1713.59M1659.9 263.41V317.094M1659.9 263.41H1713.59M1659.9 317.094V370.777M1659.9 317.094H1713.59M1659.9 370.777V400.572M1659.9 370.777H1713.59M1713.59 -249V-219.742M1713.59 -219.742V-166.059M1713.59 -219.742H1767.27M1713.59 -166.059V-112.375M1713.59 -166.059H1767.27M1713.59 -112.375V-58.6916M1713.59 -112.375H1767.27M1713.59 -58.6916V-5.00803M1713.59 -58.6916H1767.27M1713.59 -5.00803V48.6756M1713.59 -5.00803H1767.27M1713.59 48.6756V102.359M1713.59 48.6756H1767.27M1713.59 102.359V156.043M1713.59 102.359H1767.27M1713.59 156.043V209.726M1713.59 156.043H1767.27M1713.59 209.726V263.41M1713.59 209.726H1767.27M1713.59 263.41V317.094M1713.59 263.41H1767.27M1713.59 317.094V370.777M1713.59 317.094H1767.27M1713.59 370.777V400.572M1713.59 370.777H1767.27M1767.27 -249V-219.742M1767.27 -219.742V-166.059M1767.27 -219.742H1820.95M1767.27 -166.059V-112.375M1767.27 -166.059H1820.95M1767.27 -112.375V-58.6916M1767.27 -112.375H1820.95M1767.27 -58.6916V-5.00803M1767.27 -58.6916H1820.95M1767.27 -5.00803V48.6756M1767.27 -5.00803H1820.95M1767.27 48.6756V102.359M1767.27 48.6756H1820.95M1767.27 102.359V156.043M1767.27 102.359H1820.95M1767.27 156.043V209.726M1767.27 156.043H1820.95M1767.27 209.726V263.41M1767.27 209.726H1820.95M1767.27 263.41V317.094M1767.27 263.41H1820.95M1767.27 317.094V370.777M1767.27 317.094H1820.95M1767.27 370.777V400.572M1767.27 370.777H1820.95M1820.95 -249V-219.742M1820.95 -219.742V-166.059M1820.95 -219.742H1874.64M1820.95 -166.059V-112.375M1820.95 -166.059H1874.64M1820.95 -112.375V-58.6916M1820.95 -112.375H1874.64M1820.95 -58.6916V-5.00803M1820.95 -58.6916H1874.64M1820.95 -5.00803V48.6756M1820.95 -5.00803H1874.64M1820.95 48.6756V102.359M1820.95 48.6756H1874.64M1820.95 102.359V156.043M1820.95 102.359H1874.64M1820.95 156.043V209.726M1820.95 156.043H1874.64M1820.95 209.726V263.41M1820.95 209.726H1874.64M1820.95 263.41V317.094M1820.95 263.41H1874.64M1820.95 317.094V370.777M1820.95 317.094H1874.64M1820.95 370.777V400.572M1820.95 370.777H1874.64M1874.64 -249V-219.742M1874.64 -219.742V-166.059M1874.64 -219.742H1920M1874.64 -166.059V-112.375M1874.64 -166.059H1920M1874.64 -112.375V-58.6916M1874.64 -112.375H1920M1874.64 -58.6916V-5.00803M1874.64 -58.6916H1920M1874.64 -5.00803V48.6756M1874.64 -5.00803H1920M1874.64 48.6756V102.359M1874.64 48.6756H1920M1874.64 102.359V156.043M1874.64 102.359H1920M1874.64 156.043V209.726M1874.64 156.043H1920M1874.64 209.726V263.41M1874.64 209.726H1920M1874.64 263.41V317.094M1874.64 263.41H1920M1874.64 317.094V370.777M1874.64 317.094H1920M1874.64 370.777V400.572M1874.64 370.777H1920M-434.637 398.74V427.997M-434.637 427.997L-434.637 481.681M-434.637 427.997H-480M-434.637 427.997H-380.954M-434.637 481.681V535.365M-434.637 481.681H-480M-434.637 481.681H-380.954M-434.637 535.365L-434.637 589.048M-434.637 535.365H-480M-434.637 535.365H-380.954M-434.637 589.048V642.732M-434.637 589.048H-480M-434.637 589.048H-380.954M-434.637 642.732L-434.637 696.415M-434.637 642.732H-480M-434.637 642.732H-380.954M-434.637 696.415V750.099M-434.637 696.415H-480M-434.637 696.415H-380.954M-434.637 750.099L-434.637 803.783M-434.637 750.099H-480M-434.637 750.099H-380.954M-434.637 803.783V857.466M-434.637 803.783H-480M-434.637 803.783H-380.954M-434.637 857.466L-434.637 911.15M-434.637 857.466H-480M-434.637 857.466H-380.954M-434.637 911.15V964.833M-434.637 911.15H-480M-434.637 911.15H-380.954M-434.637 964.833L-434.637 1018.52M-434.637 964.833H-480M-434.637 964.833H-380.954M-434.637 1018.52V1048.31M-434.637 1018.52H-480M-434.637 1018.52H-380.954M-380.954 398.74V427.997M-380.954 427.997V481.681M-380.954 427.997H-327.27M-380.954 481.681L-380.954 535.365M-380.954 481.681H-327.27M-380.954 535.365V589.048M-380.954 535.365H-327.27M-380.954 589.048V642.732M-380.954 589.048H-327.27M-380.954 642.732V696.415M-380.954 642.732H-327.27M-380.954 696.415L-380.954 750.099M-380.954 696.415H-327.27M-380.954 750.099V803.783M-380.954 750.099H-327.27M-380.954 803.783V857.466M-380.954 803.783H-327.27M-380.954 857.466V911.15M-380.954 857.466H-327.27M-380.954 911.15L-380.954 964.833M-380.954 911.15H-327.27M-380.954 964.833V1018.52M-380.954 964.833H-327.27M-380.954 1018.52V1048.31M-380.954 1018.52H-327.27M-327.27 398.74V427.997M-327.27 427.997V481.681M-327.27 427.997H-273.587M-327.27 481.681V535.365M-327.27 481.681H-273.587M-327.27 535.365V589.048M-327.27 535.365H-273.587M-327.27 589.048V642.732M-327.27 589.048H-273.587M-327.27 642.732V696.415M-327.27 642.732H-273.587M-327.27 696.415V750.099M-327.27 696.415H-273.587M-327.27 750.099V803.783M-327.27 750.099H-273.587M-327.27 803.783V857.466M-327.27 803.783H-273.587M-327.27 857.466L-327.27 911.15M-327.27 857.466H-273.587M-327.27 911.15V964.833M-327.27 911.15H-273.587M-327.27 964.833V1018.52M-327.27 964.833H-273.587M-327.27 1018.52V1048.31M-327.27 1018.52H-273.587M-273.587 398.74V427.997M-273.587 427.997V481.681M-273.587 427.997H-219.903M-273.587 481.681V535.365M-273.587 481.681H-219.903M-273.587 535.365L-273.587 589.048M-273.587 535.365H-219.903M-273.587 589.048V642.732M-273.587 589.048H-219.903M-273.587 642.732V696.415M-273.587 642.732H-219.903M-273.587 696.415V750.099M-273.587 696.415H-219.903M-273.587 750.099V803.783M-273.587 750.099H-219.903M-273.587 803.783V857.466M-273.587 803.783H-219.903M-273.587 857.466L-273.587 911.15M-273.587 857.466H-219.903M-273.587 911.15V964.833M-273.587 911.15H-219.903M-273.587 964.833V1018.52M-273.587 964.833H-219.903M-273.587 1018.52V1048.31M-273.587 1018.52H-219.903M-219.903 398.74V427.997M-219.903 427.997V481.681M-219.903 427.997H-166.219M-219.903 481.681V535.365M-219.903 481.681H-166.219M-219.903 535.365L-219.903 589.048M-219.903 535.365H-166.219M-219.903 589.048V642.732M-219.903 589.048H-166.219M-219.903 642.732V696.415M-219.903 642.732H-166.219M-219.903 696.415V750.099M-219.903 696.415H-166.219M-219.903 750.099V803.783M-219.903 750.099H-166.219M-219.903 803.783V857.466M-219.903 803.783H-166.219M-219.903 857.466V911.15M-219.903 857.466H-166.219M-219.903 911.15V964.833M-219.903 911.15H-166.219M-219.903 964.833V1018.52M-219.903 964.833H-166.219M-219.903 1018.52V1048.31M-219.903 1018.52H-166.219M-166.219 398.74V427.997M-166.219 427.997V481.681M-166.219 427.997H-112.536M-166.219 481.681V535.365M-166.219 481.681H-112.536M-166.219 535.365V589.048M-166.219 535.365H-112.536M-166.219 589.048V642.732M-166.219 589.048H-112.536M-166.219 642.732V696.415M-166.219 642.732H-112.536M-166.219 696.415V750.099M-166.219 696.415H-112.536M-166.219 750.099V803.783M-166.219 750.099H-112.536M-166.219 803.783V857.466M-166.219 803.783H-112.536M-166.219 857.466L-166.219 911.15M-166.219 857.466H-112.536M-166.219 911.15V964.833M-166.219 911.15H-112.536M-166.219 964.833V1018.52M-166.219 964.833H-112.536M-166.219 1018.52V1048.31M-166.219 1018.52H-112.536M-112.536 398.74V427.997M-112.536 427.997V481.681M-112.536 427.997H-58.8521M-112.536 481.681V535.365M-112.536 481.681H-58.8521M-112.536 535.365V589.048M-112.536 535.365H-58.8521M-112.536 589.048V642.732M-112.536 589.048H-58.8521M-112.536 642.732V696.415M-112.536 642.732H-58.8521M-112.536 696.415L-112.536 750.099M-112.536 696.415H-58.8521M-112.536 750.099V803.783M-112.536 750.099H-58.8522M-112.536 803.783V857.466M-112.536 803.783H-58.8522M-112.536 857.466V911.15M-112.536 857.466H-58.8522M-112.536 911.15V964.833M-112.536 911.15H-58.8522M-112.536 964.833V1018.52M-112.536 964.833H-58.8522M-112.536 1018.52V1048.31M-112.536 1018.52H-58.8522M-58.8521 398.74V427.997M-58.8521 427.997V481.681M-58.8521 427.997H-5.16858M-58.8521 481.681V535.365M-58.8521 481.681H-5.16858M-58.8521 535.365V589.048M-58.8521 535.365H-5.16858M-58.8521 589.048V642.732M-58.8521 589.048H-5.16858M-58.8521 642.732V696.415M-58.8521 642.732H-5.16858M-58.8521 696.415L-58.8522 750.099M-58.8521 696.415H-5.16858M-58.8522 750.099V803.783M-58.8522 750.099H-5.16861M-58.8522 803.783V857.466M-58.8522 803.783H-5.16861M-58.8522 857.466V911.15M-58.8522 857.466H-5.16861M-58.8522 911.15V964.833M-58.8522 911.15H-5.16861M-58.8522 964.833V1018.52M-58.8522 964.833H-5.16861M-58.8522 1018.52V1048.31M-58.8522 1018.52H-5.16861M-5.16858 398.74V427.997M-5.16858 427.997V481.681M-5.16858 427.997H48.515M-5.16858 481.681V535.365M-5.16858 481.681H48.515M-5.16858 535.365V589.048M-5.16858 535.365H48.515M-5.16858 589.048V642.732M-5.16858 589.048H48.515M-5.16858 642.732V696.415M-5.16858 642.732H48.515M-5.16858 696.415L-5.16861 750.099M-5.16858 696.415H48.515M-5.16861 750.099V803.783M-5.16861 750.099H48.515M-5.16861 803.783V857.466M-5.16861 803.783H48.515M-5.16861 857.466V911.15M-5.16861 857.466H48.515M-5.16861 911.15V964.833M-5.16861 911.15H48.515M-5.16861 964.833V1018.52M-5.16861 964.833H48.515M-5.16861 1018.52V1048.31M-5.16861 1018.52H48.515M48.515 398.74V427.997M48.515 427.997V481.681M48.515 427.997H102.199M48.515 481.681V535.365M48.515 481.681H102.199M48.515 535.365V589.048M48.515 535.365H102.199M48.515 589.048V642.732M48.515 589.048H102.199M48.515 642.732V696.415M48.515 642.732H102.199M48.515 696.415V750.099M48.515 696.415H102.199M48.515 750.099V803.783M48.515 750.099H102.199M48.515 803.783V857.466M48.515 803.783H102.199M48.515 857.466V911.15M48.515 857.466H102.199M48.515 911.15V964.833M48.515 911.15H102.199M48.515 964.833V1018.52M48.515 964.833H102.199M48.515 1018.52V1048.31M48.515 1018.52H102.199M102.199 398.74V427.997M102.199 427.997V481.681M102.199 427.997H155.882M102.199 481.681V535.365M102.199 481.681H155.882M102.199 535.365V589.048M102.199 535.365H155.882M102.199 589.048V642.732M102.199 589.048H155.882M102.199 642.732V696.415M102.199 642.732H155.882M102.199 696.415V750.099M102.199 696.415H155.882M102.199 750.099V803.783M102.199 750.099H155.882M102.199 803.783V857.466M102.199 803.783H155.882M102.199 857.466V911.15M102.199 857.466H155.882M102.199 911.15V964.833M102.199 911.15H155.882M102.199 964.833V1018.52M102.199 964.833H155.882M102.199 1018.52V1048.31M102.199 1018.52H155.882M155.882 398.74V427.997M155.882 427.997V481.681M155.882 427.997H209.566M155.882 481.681V535.365M155.882 481.681H209.566M155.882 535.365V589.048M155.882 535.365H209.566M155.882 589.048V642.732M155.882 589.048H209.566M155.882 642.732V696.415M155.882 642.732H209.566M155.882 696.415V750.099M155.882 696.415H209.566M155.882 750.099V803.783M155.882 750.099H209.566M155.882 803.783V857.466M155.882 803.783H209.566M155.882 857.466V911.15M155.882 857.466H209.566M155.882 911.15V964.833M155.882 911.15H209.566M155.882 964.833V1018.52M155.882 964.833H209.566M155.882 1018.52V1048.31M155.882 1018.52H209.566M209.566 398.74V427.997M209.566 427.997V481.681M209.566 427.997H263.249M209.566 481.681V535.365M209.566 481.681H263.249M209.566 535.365V589.048M209.566 535.365H263.249M209.566 589.048V642.732M209.566 589.048H263.249M209.566 642.732V696.415M209.566 642.732H263.249M209.566 696.415V750.099M209.566 696.415H263.249M209.566 750.099V803.783M209.566 750.099H263.249M209.566 803.783V857.466M209.566 803.783H263.249M209.566 857.466V911.15M209.566 857.466H263.249M209.566 911.15V964.833M209.566 911.15H263.249M209.566 964.833V1018.52M209.566 964.833H263.249M209.566 1018.52V1048.31M209.566 1018.52H263.249M263.249 398.74V427.997M263.249 427.997V481.681M263.249 427.997H316.933M263.249 481.681V535.365M263.249 481.681H316.933M263.249 535.365V589.048M263.249 535.365H316.933M263.249 589.048V642.732M263.249 589.048H316.933M263.249 642.732V696.415M263.249 642.732H316.933M263.249 696.415V750.099M263.249 696.415H316.933M263.249 750.099V803.783M263.249 750.099H316.933M263.249 803.783V857.466M263.249 803.783H316.933M263.249 857.466V911.15M263.249 857.466H316.933M263.249 911.15V964.833M263.249 911.15H316.933M263.249 964.833V1018.52M263.249 964.833H316.933M263.249 1018.52V1048.31M263.249 1018.52H316.933M316.933 398.74V427.997M316.933 427.997V481.681M316.933 427.997H370.617M316.933 481.681V535.365M316.933 481.681H370.617M316.933 535.365V589.048M316.933 535.365H370.617M316.933 589.048V642.732M316.933 589.048H370.617M316.933 642.732V696.415M316.933 642.732H370.617M316.933 696.415V750.099M316.933 696.415H370.617M316.933 750.099V803.783M316.933 750.099H370.617M316.933 803.783V857.466M316.933 803.783H370.617M316.933 857.466V911.15M316.933 857.466H370.617M316.933 911.15V964.833M316.933 911.15H370.617M316.933 964.833V1018.52M316.933 964.833H370.617M316.933 1018.52V1048.31M316.933 1018.52H370.617M370.617 398.74V427.997M370.617 427.997V481.681M370.617 427.997H424.3M370.617 481.681V535.365M370.617 481.681H424.3M370.617 535.365V589.048M370.617 535.365H424.3M370.617 589.048V642.732M370.617 589.048H424.3M370.617 642.732V696.415M370.617 642.732H424.3M370.617 696.415V750.099M370.617 696.415H424.3M370.617 750.099V803.783M370.617 750.099H424.3M370.617 803.783V857.466M370.617 803.783H424.3M370.617 857.466V911.15M370.617 857.466H424.3M370.617 911.15V964.833M370.617 911.15H424.3M370.617 964.833V1018.52M370.617 964.833H424.3M370.617 1018.52V1048.31M370.617 1018.52H424.3M424.3 398.74V427.997M424.3 427.997V481.681M424.3 427.997H477.984M424.3 481.681V535.365M424.3 481.681H477.984M424.3 535.365V589.048M424.3 535.365H477.984M424.3 589.048V642.732M424.3 589.048H477.984M424.3 642.732V696.415M424.3 642.732H477.984M424.3 696.415V750.099M424.3 696.415H477.984M424.3 750.099V803.783M424.3 750.099H477.984M424.3 803.783V857.466M424.3 803.783H477.984M424.3 857.466V911.15M424.3 857.466H477.984M424.3 911.15V964.833M424.3 911.15H477.984M424.3 964.833V1018.52M424.3 964.833H477.984M424.3 1018.52V1048.31M424.3 1018.52H477.984M477.984 398.74V427.997M477.984 427.997V481.681M477.984 427.997H531.667M477.984 481.681V535.365M477.984 481.681H531.667M477.984 535.365V589.048M477.984 535.365H531.667M477.984 589.048V642.732M477.984 589.048H531.667M477.984 642.732V696.415M477.984 642.732H531.667M477.984 696.415V750.099M477.984 696.415H531.667M477.984 750.099V803.783M477.984 750.099H531.667M477.984 803.783V857.466M477.984 803.783H531.667M477.984 857.466V911.15M477.984 857.466H531.667M477.984 911.15V964.833M477.984 911.15H531.667M477.984 964.833V1018.52M477.984 964.833H531.667M477.984 1018.52V1048.31M477.984 1018.52H531.667M531.667 398.74V427.997M531.667 427.997V481.681M531.667 427.997H585.351M531.667 481.681V535.365M531.667 481.681H585.351M531.667 535.365V589.048M531.667 535.365H585.351M531.667 589.048V642.732M531.667 589.048H585.351M531.667 642.732V696.415M531.667 642.732H585.351M531.667 696.415V750.099M531.667 696.415H585.351M531.667 750.099V803.783M531.667 750.099H585.351M531.667 803.783V857.466M531.667 803.783H585.351M531.667 857.466V911.15M531.667 857.466H585.351M531.667 911.15V964.833M531.667 911.15H585.351M531.667 964.833V1018.52M531.667 964.833H585.351M531.667 1018.52V1048.31M531.667 1018.52H585.351M585.351 398.74V427.997M585.351 427.997V481.681M585.351 427.997H639.035M585.351 481.681V535.365M585.351 481.681H639.035M585.351 535.365V589.048M585.351 535.365H639.035M585.351 589.048V642.732M585.351 589.048H639.035M585.351 642.732V696.415M585.351 642.732H639.035M585.351 696.415V750.099M585.351 696.415H639.035M585.351 750.099V803.783M585.351 750.099H639.035M585.351 803.783V857.466M585.351 803.783H639.035M585.351 857.466V911.15M585.351 857.466H639.035M585.351 911.15V964.833M585.351 911.15H639.035M585.351 964.833V1018.52M585.351 964.833H639.035M585.351 1018.52V1048.31M585.351 1018.52H639.035M639.035 398.74V427.997M639.035 427.997V481.681M639.035 427.997H692.718M639.035 481.681V535.365M639.035 481.681H692.718M639.035 535.365V589.048M639.035 535.365H692.718M639.035 589.048V642.732M639.035 589.048H692.718M639.035 642.732V696.415M639.035 642.732H692.718M639.035 696.415V750.099M639.035 696.415H692.718M639.035 750.099V803.783M639.035 750.099H692.718M639.035 803.783V857.466M639.035 803.783H692.718M639.035 857.466V911.15M639.035 857.466H692.718M639.035 911.15V964.833M639.035 911.15H692.718M639.035 964.833V1018.52M639.035 964.833H692.718M639.035 1018.52V1048.31M639.035 1018.52H692.718M692.718 398.74V427.997M692.718 427.997V481.681M692.718 427.997H738.081M692.718 481.681V535.365M692.718 481.681H738.081M692.718 535.365V589.048M692.718 535.365H738.081M692.718 589.048V642.732M692.718 589.048H738.081M692.718 642.732V696.415M692.718 642.732H738.081M692.718 696.415V750.099M692.718 696.415H738.081M692.718 750.099V803.783M692.718 750.099H738.081M692.718 803.783V857.466M692.718 803.783H738.081M692.718 857.466V911.15M692.718 857.466H738.081M692.718 911.15V964.833M692.718 911.15H738.081M692.718 964.833V1018.52M692.718 964.833H738.081M692.718 1018.52V1048.31M692.718 1018.52H738.081M747.282 398.74V427.997M747.282 427.997V481.681M747.282 427.997H701.919M747.282 427.997H800.965M747.282 481.681V535.365M747.282 481.681H701.919M747.282 481.681H800.965M747.282 535.365V589.048M747.282 535.365H701.919M747.282 535.365H800.965M747.282 589.048V642.732M747.282 589.048H701.919M747.282 589.048H800.965M747.282 642.732V696.415M747.282 642.732H701.919M747.282 642.732H800.965M747.282 696.415V750.099M747.282 696.415H701.919M747.282 696.415H800.965M747.282 750.099V803.783M747.282 750.099H701.919M747.282 750.099H800.965M747.282 803.783V857.466M747.282 803.783H701.919M747.282 803.783H800.965M747.282 857.466V911.15M747.282 857.466H701.919M747.282 857.466H800.965M747.282 911.15V964.833M747.282 911.15H701.919M747.282 911.15H800.965M747.282 964.833V1018.52M747.282 964.833H701.919M747.282 964.833H800.965M747.282 1018.52V1048.31M747.282 1018.52H701.919M747.282 1018.52H800.965M800.965 398.74V427.997M800.965 427.997V481.681M800.965 427.997H854.649M800.965 481.681V535.365M800.965 481.681H854.649M800.965 535.365V589.048M800.965 535.365H854.649M800.965 589.048V642.732M800.965 589.048H854.649M800.965 642.732V696.415M800.965 642.732H854.649M800.965 696.415V750.099M800.965 696.415H854.649M800.965 750.099V803.783M800.965 750.099H854.649M800.965 803.783V857.466M800.965 803.783H854.649M800.965 857.466V911.15M800.965 857.466H854.649M800.965 911.15V964.833M800.965 911.15H854.649M800.965 964.833V1018.52M800.965 964.833H854.649M800.965 1018.52V1048.31M800.965 1018.52H854.649M854.649 398.74V427.997M854.649 427.997V481.681M854.649 427.997H908.333M854.649 481.681V535.365M854.649 481.681H908.333M854.649 535.365V589.048M854.649 535.365H908.333M854.649 589.048V642.732M854.649 589.048H908.333M854.649 642.732V696.415M854.649 642.732H908.333M854.649 696.415V750.099M854.649 696.415H908.333M854.649 750.099V803.783M854.649 750.099H908.333M854.649 803.783V857.466M854.649 803.783H908.333M854.649 857.466V911.15M854.649 857.466H908.333M854.649 911.15V964.833M854.649 911.15H908.333M854.649 964.833V1018.52M854.649 964.833H908.333M854.649 1018.52V1048.31M854.649 1018.52H908.333M908.333 398.74V427.997M908.333 427.997V481.681M908.333 427.997H962.016M908.333 481.681V535.365M908.333 481.681H962.016M908.333 535.365L908.333 589.048M908.333 535.365H962.016M908.333 589.048V642.732M908.333 589.048H962.016M908.333 642.732V696.415M908.333 642.732H962.016M908.333 696.415V750.099M908.333 696.415H962.016M908.333 750.099V803.783M908.333 750.099H962.016M908.333 803.783V857.466M908.333 803.783H962.016M908.333 857.466V911.15M908.333 857.466H962.016M908.333 911.15V964.833M908.333 911.15H962.016M908.333 964.833V1018.52M908.333 964.833H962.016M908.333 1018.52V1048.31M908.333 1018.52H962.016M962.016 398.74V427.997M962.016 427.997V481.681M962.016 427.997H1015.7M962.016 481.681V535.365M962.016 481.681H1015.7M962.016 535.365V589.048M962.016 535.365H1015.7M962.016 589.048V642.732M962.016 589.048H1015.7M962.016 642.732V696.415M962.016 642.732H1015.7M962.016 696.415V750.099M962.016 696.415H1015.7M962.016 750.099V803.783M962.016 750.099H1015.7M962.016 803.783V857.466M962.016 803.783H1015.7M962.016 857.466V911.15M962.016 857.466H1015.7M962.016 911.15V964.833M962.016 911.15H1015.7M962.016 964.833V1018.52M962.016 964.833H1015.7M962.016 1018.52V1048.31M962.016 1018.52H1015.7M1015.7 398.74V427.997M1015.7 427.997V481.681M1015.7 427.997H1069.38M1015.7 481.681V535.365M1015.7 481.681H1069.38M1015.7 535.365V589.048M1015.7 535.365H1069.38M1015.7 589.048V642.732M1015.7 589.048H1069.38M1015.7 642.732V696.415M1015.7 642.732H1069.38M1015.7 696.415V750.099M1015.7 696.415H1069.38M1015.7 750.099V803.783M1015.7 750.099H1069.38M1015.7 803.783V857.466M1015.7 803.783H1069.38M1015.7 857.466V911.15M1015.7 857.466H1069.38M1015.7 911.15V964.833M1015.7 911.15H1069.38M1015.7 964.833V1018.52M1015.7 964.833H1069.38M1015.7 1018.52V1048.31M1015.7 1018.52H1069.38M1069.38 398.74V427.997M1069.38 427.997V481.681M1069.38 427.997H1123.07M1069.38 481.681V535.365M1069.38 481.681H1123.07M1069.38 535.365V589.048M1069.38 535.365H1123.07M1069.38 589.048V642.732M1069.38 589.048H1123.07M1069.38 642.732V696.415M1069.38 642.732H1123.07M1069.38 696.415V750.099M1069.38 696.415H1123.07M1069.38 750.099V803.783M1069.38 750.099H1123.07M1069.38 803.783V857.466M1069.38 803.783H1123.07M1069.38 857.466V911.15M1069.38 857.466H1123.07M1069.38 911.15V964.833M1069.38 911.15H1123.07M1069.38 964.833V1018.52M1069.38 964.833H1123.07M1069.38 1018.52V1048.31M1069.38 1018.52H1123.07M1123.07 398.74V427.997M1123.07 427.997V481.681M1123.07 427.997H1176.75M1123.07 481.681V535.365M1123.07 481.681H1176.75M1123.07 535.365V589.048M1123.07 535.365H1176.75M1123.07 589.048V642.732M1123.07 589.048H1176.75M1123.07 642.732V696.415M1123.07 642.732H1176.75M1123.07 696.415L1123.07 750.099M1123.07 696.415H1176.75M1123.07 750.099V803.783M1123.07 750.099H1176.75M1123.07 803.783V857.466M1123.07 803.783H1176.75M1123.07 857.466V911.15M1123.07 857.466H1176.75M1123.07 911.15V964.833M1123.07 911.15H1176.75M1123.07 964.833V1018.52M1123.07 964.833H1176.75M1123.07 1018.52V1048.31M1123.07 1018.52H1176.75M1176.75 398.74V427.997M1176.75 427.997V481.681M1176.75 427.997H1230.43M1176.75 481.681V535.365M1176.75 481.681H1230.43M1176.75 535.365V589.048M1176.75 535.365H1230.43M1176.75 589.048V642.732M1176.75 589.048H1230.43M1176.75 642.732V696.415M1176.75 642.732H1230.43M1176.75 696.415V750.099M1176.75 696.415H1230.43M1176.75 750.099V803.783M1176.75 750.099H1230.43M1176.75 803.783V857.466M1176.75 803.783H1230.43M1176.75 857.466V911.15M1176.75 857.466H1230.43M1176.75 911.15V964.833M1176.75 911.15H1230.43M1176.75 964.833V1018.52M1176.75 964.833H1230.43M1176.75 1018.52V1048.31M1176.75 1018.52H1230.43M1230.43 398.74V427.997M1230.43 427.997V481.681M1230.43 427.997H1284.12M1230.43 481.681V535.365M1230.43 481.681H1284.12M1230.43 535.365V589.048M1230.43 535.365H1284.12M1230.43 589.048V642.732M1230.43 589.048H1284.12M1230.43 642.732V696.415M1230.43 642.732H1284.12M1230.43 696.415V750.099M1230.43 696.415H1284.12M1230.43 750.099V803.783M1230.43 750.099H1284.12M1230.43 803.783V857.466M1230.43 803.783H1284.12M1230.43 857.466V911.15M1230.43 857.466H1284.12M1230.43 911.15V964.833M1230.43 911.15H1284.12M1230.43 964.833V1018.52M1230.43 964.833H1284.12M1230.43 1018.52V1048.31M1230.43 1018.52H1284.12M1284.12 398.74V427.997M1284.12 427.997V481.681M1284.12 427.997H1337.8M1284.12 481.681V535.365M1284.12 481.681H1337.8M1284.12 535.365V589.048M1284.12 535.365H1337.8M1284.12 589.048V642.732M1284.12 589.048H1337.8M1284.12 642.732V696.415M1284.12 642.732H1337.8M1284.12 696.415V750.099M1284.12 696.415H1337.8M1284.12 750.099V803.783M1284.12 750.099H1337.8M1284.12 803.783V857.466M1284.12 803.783H1337.8M1284.12 857.466V911.15M1284.12 857.466H1337.8M1284.12 911.15V964.833M1284.12 911.15H1337.8M1284.12 964.833V1018.52M1284.12 964.833H1337.8M1284.12 1018.52V1048.31M1284.12 1018.52H1337.8M1337.8 398.74V427.997M1337.8 427.997V481.681M1337.8 427.997H1391.48M1337.8 481.681V535.365M1337.8 481.681H1391.48M1337.8 535.365V589.048M1337.8 535.365H1391.48M1337.8 589.048V642.732M1337.8 589.048H1391.48M1337.8 642.732V696.415M1337.8 642.732H1391.48M1337.8 696.415V750.099M1337.8 696.415H1391.48M1337.8 750.099V803.783M1337.8 750.099H1391.48M1337.8 803.783V857.466M1337.8 803.783H1391.48M1337.8 857.466V911.15M1337.8 857.466H1391.48M1337.8 911.15V964.833M1337.8 911.15H1391.48M1337.8 964.833V1018.52M1337.8 964.833H1391.48M1337.8 1018.52V1048.31M1337.8 1018.52H1391.48M1391.48 398.74V427.997M1391.48 427.997V481.681M1391.48 427.997H1445.17M1391.48 481.681V535.365M1391.48 481.681H1445.17M1391.48 535.365V589.048M1391.48 535.365H1445.17M1391.48 589.048V642.732M1391.48 589.048H1445.17M1391.48 642.732V696.415M1391.48 642.732H1445.17M1391.48 696.415V750.099M1391.48 696.415H1445.17M1391.48 750.099V803.783M1391.48 750.099H1445.17M1391.48 803.783V857.466M1391.48 803.783H1445.17M1391.48 857.466V911.15M1391.48 857.466H1445.17M1391.48 911.15V964.833M1391.48 911.15H1445.17M1391.48 964.833V1018.52M1391.48 964.833H1445.17M1391.48 1018.52V1048.31M1391.48 1018.52H1445.17M1445.17 398.74V427.997M1445.17 427.997V481.681M1445.17 427.997H1498.85M1445.17 481.681V535.365M1445.17 481.681H1498.85M1445.17 535.365V589.048M1445.17 535.365H1498.85M1445.17 589.048V642.732M1445.17 589.048H1498.85M1445.17 642.732V696.415M1445.17 642.732H1498.85M1445.17 696.415V750.099M1445.17 696.415H1498.85M1445.17 750.099V803.783M1445.17 750.099H1498.85M1445.17 803.783V857.466M1445.17 803.783H1498.85M1445.17 857.466V911.15M1445.17 857.466H1498.85M1445.17 911.15V964.833M1445.17 911.15H1498.85M1445.17 964.833V1018.52M1445.17 964.833H1498.85M1445.17 1018.52V1048.31M1445.17 1018.52H1498.85M1498.85 398.74V427.997M1498.85 427.997V481.681M1498.85 427.997H1552.54M1498.85 481.681V535.365M1498.85 481.681H1552.54M1498.85 535.365V589.048M1498.85 535.365H1552.54M1498.85 589.048V642.732M1498.85 589.048H1552.54M1498.85 642.732V696.415M1498.85 642.732H1552.54M1498.85 696.415V750.099M1498.85 696.415H1552.54M1498.85 750.099V803.783M1498.85 750.099H1552.54M1498.85 803.783V857.466M1498.85 803.783H1552.54M1498.85 857.466V911.15M1498.85 857.466H1552.54M1498.85 911.15V964.833M1498.85 911.15H1552.54M1498.85 964.833V1018.52M1498.85 964.833H1552.54M1498.85 1018.52V1048.31M1498.85 1018.52H1552.54M1552.54 398.74V427.997M1552.54 427.997V481.681M1552.54 427.997H1606.22M1552.54 481.681V535.365M1552.54 481.681H1606.22M1552.54 535.365V589.048M1552.54 535.365H1606.22M1552.54 589.048V642.732M1552.54 589.048H1606.22M1552.54 642.732V696.415M1552.54 642.732H1606.22M1552.54 696.415V750.099M1552.54 696.415H1606.22M1552.54 750.099V803.783M1552.54 750.099H1606.22M1552.54 803.783V857.466M1552.54 803.783H1606.22M1552.54 857.466V911.15M1552.54 857.466H1606.22M1552.54 911.15V964.833M1552.54 911.15H1606.22M1552.54 964.833V1018.52M1552.54 964.833H1606.22M1552.54 1018.52V1048.31M1552.54 1018.52H1606.22M1606.22 398.74V427.997M1606.22 427.997V481.681M1606.22 427.997H1659.9M1606.22 481.681V535.365M1606.22 481.681H1659.9M1606.22 535.365V589.048M1606.22 535.365H1659.9M1606.22 589.048V642.732M1606.22 589.048H1659.9M1606.22 642.732V696.415M1606.22 642.732H1659.9M1606.22 696.415V750.099M1606.22 696.415H1659.9M1606.22 750.099V803.783M1606.22 750.099H1659.9M1606.22 803.783V857.466M1606.22 803.783H1659.9M1606.22 857.466V911.15M1606.22 857.466H1659.9M1606.22 911.15V964.833M1606.22 911.15H1659.9M1606.22 964.833V1018.52M1606.22 964.833H1659.9M1606.22 1018.52V1048.31M1606.22 1018.52H1659.9M1659.9 398.74V427.997M1659.9 427.997V481.681M1659.9 427.997H1713.59M1659.9 481.681V535.365M1659.9 481.681H1713.59M1659.9 535.365V589.048M1659.9 535.365H1713.59M1659.9 589.048V642.732M1659.9 589.048H1713.59M1659.9 642.732V696.415M1659.9 642.732H1713.59M1659.9 696.415V750.099M1659.9 696.415H1713.59M1659.9 750.099V803.783M1659.9 750.099H1713.59M1659.9 803.783V857.466M1659.9 803.783H1713.59M1659.9 857.466V911.15M1659.9 857.466H1713.59M1659.9 911.15V964.833M1659.9 911.15H1713.59M1659.9 964.833V1018.52M1659.9 964.833H1713.59M1659.9 1018.52V1048.31M1659.9 1018.52H1713.59M1713.59 398.74V427.997M1713.59 427.997V481.681M1713.59 427.997H1767.27M1713.59 481.681V535.365M1713.59 481.681H1767.27M1713.59 535.365V589.048M1713.59 535.365H1767.27M1713.59 589.048V642.732M1713.59 589.048H1767.27M1713.59 642.732V696.415M1713.59 642.732H1767.27M1713.59 696.415V750.099M1713.59 696.415H1767.27M1713.59 750.099V803.783M1713.59 750.099H1767.27M1713.59 803.783V857.466M1713.59 803.783H1767.27M1713.59 857.466V911.15M1713.59 857.466H1767.27M1713.59 911.15V964.833M1713.59 911.15H1767.27M1713.59 964.833V1018.52M1713.59 964.833H1767.27M1713.59 1018.52V1048.31M1713.59 1018.52H1767.27M1767.27 398.74V427.997M1767.27 427.997V481.681M1767.27 427.997H1820.95M1767.27 481.681V535.365M1767.27 481.681H1820.95M1767.27 535.365V589.048M1767.27 535.365H1820.95M1767.27 589.048V642.732M1767.27 589.048H1820.95M1767.27 642.732V696.415M1767.27 642.732H1820.95M1767.27 696.415V750.099M1767.27 696.415H1820.95M1767.27 750.099V803.783M1767.27 750.099H1820.95M1767.27 803.783V857.466M1767.27 803.783H1820.95M1767.27 857.466V911.15M1767.27 857.466H1820.95M1767.27 911.15V964.833M1767.27 911.15H1820.95M1767.27 964.833V1018.52M1767.27 964.833H1820.95M1767.27 1018.52V1048.31M1767.27 1018.52H1820.95M1820.95 398.74V427.997M1820.95 427.997V481.681M1820.95 427.997H1874.64M1820.95 481.681V535.365M1820.95 481.681H1874.64M1820.95 535.365V589.048M1820.95 535.365H1874.64M1820.95 589.048V642.732M1820.95 589.048H1874.64M1820.95 642.732V696.415M1820.95 642.732H1874.64M1820.95 696.415V750.099M1820.95 696.415H1874.64M1820.95 750.099V803.783M1820.95 750.099H1874.64M1820.95 803.783V857.466M1820.95 803.783H1874.64M1820.95 857.466V911.15M1820.95 857.466H1874.64M1820.95 911.15V964.833M1820.95 911.15H1874.64M1820.95 964.833V1018.52M1820.95 964.833H1874.64M1820.95 1018.52V1048.31M1820.95 1018.52H1874.64M1874.64 398.74V427.997M1874.64 427.997V481.681M1874.64 427.997H1920M1874.64 481.681V535.365M1874.64 481.681H1920M1874.64 535.365V589.048M1874.64 535.365H1920M1874.64 589.048V642.732M1874.64 589.048H1920M1874.64 642.732V696.415M1874.64 642.732H1920M1874.64 696.415V750.099M1874.64 696.415H1920M1874.64 750.099V803.783M1874.64 750.099H1920M1874.64 803.783V857.466M1874.64 803.783H1920M1874.64 857.466V911.15M1874.64 857.466H1920M1874.64 911.15V964.833M1874.64 911.15H1920M1874.64 964.833V1018.52M1874.64 964.833H1920M1874.64 1018.52V1048.31M1874.64 1018.52H1920" stroke="url(#paint0_radial_5716_13430)" stroke-opacity="0.1" stroke-width="0.8"/>
<g filter="url(#filter0_f_5716_13430)">
<path d="M18.5 405.5L-143.5 388L-179 852H94L105.5 765L139.5 661L158 651.5L178 588.5V537.5L54 509L18.5 405.5Z" fill="url(#paint1_linear_5716_13430)" fill-opacity="0.4"/>
</g>
<g filter="url(#filter1_f_5716_13430)">
<path d="M1491 520H1589L1607.5 242.5L1573.5 221H1478L1377 282.5L1253.5 332L1218 382V394.5L1253.5 410.5L1353 498.5L1491 520Z" fill="url(#paint2_linear_5716_13430)" fill-opacity="0.4"/>
</g>
<rect width="1440" height="170" fill="url(#paint3_linear_5716_13430)"/>
<rect width="1440" height="180" transform="matrix(1 0 0 -1 0 800)" fill="url(#paint4_linear_5716_13430)"/>
</g>
<defs>
<filter id="filter0_f_5716_13430" x="-419" y="148" width="837" height="944" filterUnits="userSpaceOnUse" color-interpolation-filters="sRGB">
<feFlood flood-opacity="0" result="BackgroundImageFix"/>
<feBlend mode="normal" in="SourceGraphic" in2="BackgroundImageFix" result="shape"/>
<feGaussianBlur stdDeviation="120" result="effect1_foregroundBlur_5716_13430"/>
</filter>
<filter id="filter1_f_5716_13430" x="978" y="-19" width="869.5" height="779" filterUnits="userSpaceOnUse" color-interpolation-filters="sRGB">
<feFlood flood-opacity="0" result="BackgroundImageFix"/>
<feBlend mode="normal" in="SourceGraphic" in2="BackgroundImageFix" result="shape"/>
<feGaussianBlur stdDeviation="120" result="effect1_foregroundBlur_5716_13430"/>
</filter>
<radialGradient id="paint0_radial_5716_13430" cx="0" cy="0" r="1" gradientUnits="userSpaceOnUse" gradientTransform="translate(720 399.656) rotate(90) scale(648.656 1200)">
<stop stop-color="white" stop-opacity="0"/>
<stop offset="0.665173" stop-color="white"/>
</radialGradient>
<linearGradient id="paint1_linear_5716_13430" x1="-0.5" y1="388" x2="-0.5" y2="852" gradientUnits="userSpaceOnUse">
<stop stop-color="#8EC9ED"/>
<stop offset="1" stop-color="#BC5AD7"/>
</linearGradient>
<linearGradient id="paint2_linear_5716_13430" x1="1412.75" y1="221" x2="1412.75" y2="520" gradientUnits="userSpaceOnUse">
<stop stop-color="#8EC9ED"/>
<stop offset="1" stop-color="#BC5AD7"/>
</linearGradient>
<linearGradient id="paint3_linear_5716_13430" x1="720" y1="0" x2="720" y2="170" gradientUnits="userSpaceOnUse">
<stop offset="0.215" stop-color="#150819"/>
<stop offset="1" stop-color="#150819" stop-opacity="0"/>
</linearGradient>
<linearGradient id="paint4_linear_5716_13430" x1="720" y1="0" x2="720" y2="180" gradientUnits="userSpaceOnUse">
<stop offset="0.215" stop-color="#150819"/>
<stop offset="1" stop-color="#150819" stop-opacity="0"/>
</linearGradient>
<clipPath id="clip0_5716_13430">
<rect width="1440" height="800" fill="white"/>
</clipPath>
</defs>
</svg>
