<svg width="100" height="101" viewBox="0 0 100 101" fill="none" xmlns="http://www.w3.org/2000/svg">
<circle cx="50" cy="50.5" r="50" fill="#F71756" fill-opacity="0.2"/>
<path d="M49.9993 86.3327C69.7896 86.3327 85.8327 70.2896 85.8327 50.4993C85.8327 30.7091 69.7896 14.666 49.9993 14.666C30.2091 14.666 14.166 30.7091 14.166 50.4993C14.166 70.2896 30.2091 86.3327 49.9993 86.3327Z" fill="#F71756"/>
<path d="M55.0505 50.4981L65.1914 40.3573C65.5665 40.036 65.8711 39.6407 66.0862 39.1962C66.3013 38.7516 66.4222 38.2674 66.4412 37.7739C66.4603 37.2804 66.3771 36.7883 66.197 36.3285C66.0168 35.8686 65.7436 35.451 65.3944 35.1018C65.0451 34.7526 64.6275 34.4793 64.1677 34.2992C63.7079 34.119 63.2158 34.0359 62.7223 34.0549C62.2288 34.074 61.7445 34.1948 61.3 34.4099C60.8554 34.625 60.4601 34.9297 60.1389 35.3048L49.998 45.4456L39.8572 35.3048C39.1717 34.7177 38.2899 34.411 37.3881 34.4458C36.4863 34.4806 35.6308 34.8545 34.9926 35.4927C34.3544 36.1308 33.9806 36.9863 33.9457 37.8882C33.9109 38.79 34.2177 39.6718 34.8047 40.3573L44.9455 50.4981L34.8047 60.6389C34.1373 61.3103 33.7627 62.2185 33.7627 63.1652C33.7627 64.1119 34.1373 65.0201 34.8047 65.6914C35.4761 66.3588 36.3843 66.7334 37.331 66.7334C38.2776 66.7334 39.1858 66.3588 39.8572 65.6914L49.998 55.5506L60.1389 65.6914C60.8103 66.3588 61.7185 66.7334 62.6651 66.7334C63.6118 66.7334 64.52 66.3588 65.1914 65.6914C65.8588 65.0201 66.2334 64.1119 66.2334 63.1652C66.2334 62.2185 65.8588 61.3103 65.1914 60.6389L55.0505 50.4981Z" fill="#380514"/>
</svg>
