<svg width="20" height="20" viewBox="0 0 20 20" fill="none" xmlns="http://www.w3.org/2000/svg">
<g id="Frame 1171275426">
<path id="Vector" fill-rule="evenodd" clip-rule="evenodd" d="M3.00067 2.94535V3.89071H10.0309H17.0611V2.94535V2H10.0309H3.00067V2.94535ZM3.00698 6.54702L3.01398 7.49903L10.0376 7.50574L17.0611 7.51245V6.55373V5.59501H10.0306H3L3.00698 6.54702ZM3.00067 13.6128C3.00067 16.0306 3.01065 18.0049 3.02285 18C3.03504 17.9951 4.61807 17.1115 6.54068 16.0364C9.98907 14.108 10.0373 14.0822 10.1068 14.1224C10.1456 14.1448 11.7172 15.023 13.5993 16.0738C15.4813 17.1246 17.0302 17.9896 17.0412 17.996C17.0522 18.0024 17.0611 16.0296 17.0611 13.6121V9.21664H10.0309H3.00067V13.6128Z" fill="#FF6719"/>
</g>
</svg>
