<svg width="100" height="101" viewBox="0 0 100 101" fill="none" xmlns="http://www.w3.org/2000/svg">
<circle cx="50" cy="50.5" r="50" fill="#1FD031" fill-opacity="0.2"/>
<path d="M50.0004 86.2147C69.7249 86.2147 85.7147 70.2249 85.7147 50.5004C85.7147 30.776 69.7249 14.7861 50.0004 14.7861C30.276 14.7861 14.2861 30.776 14.2861 50.5004C14.2861 70.2249 30.276 86.2147 50.0004 86.2147Z" fill="#1FD031"/>
<path d="M48.9651 63.7505L70.3937 42.322C70.7267 41.989 70.9908 41.5936 71.171 41.1586C71.3512 40.7235 71.444 40.2572 71.444 39.7862C71.444 39.3153 71.3512 38.849 71.171 38.4139C70.9908 37.9788 70.7267 37.5835 70.3937 37.2505C70.0607 36.9175 69.6653 36.6534 69.2303 36.4732C68.7952 36.293 68.3289 36.2002 67.8579 36.2002C67.387 36.2002 66.9207 36.293 66.4856 36.4732C66.0505 36.6534 65.6552 36.9175 65.3222 37.2505L46.4294 56.1791L34.6794 44.3934C34.0069 43.7209 33.0947 43.3431 32.1437 43.3431C31.1926 43.3431 30.2805 43.7209 29.6079 44.3934C28.9354 45.0659 28.5576 45.978 28.5576 46.9291C28.5576 47.8802 28.9354 48.7923 29.6079 49.4648L43.8937 63.7505C44.2257 64.0853 44.6207 64.351 45.0559 64.5323C45.4911 64.7136 45.9579 64.8069 46.4294 64.8069C46.9008 64.8069 47.3677 64.7136 47.8029 64.5323C48.2381 64.351 48.6331 64.0853 48.9651 63.7505Z" fill="black" fill-opacity="0.9"/>
</svg>
