<svg width="20" height="20" viewBox="0 0 20 20" fill="none" xmlns="http://www.w3.org/2000/svg">
<g id="icons8-telegram (4)">
<path id="Vector" d="M10.0003 1.66699C7.79019 1.66699 5.67057 2.54497 4.10777 4.10777C2.54497 5.67057 1.66699 7.79019 1.66699 10.0003C1.66699 12.2105 2.54497 14.3301 4.10777 15.8929C5.67057 17.4557 7.79019 18.3337 10.0003 18.3337C12.2105 18.3337 14.3301 17.4557 15.8929 15.8929C17.4557 14.3301 18.3337 12.2105 18.3337 10.0003C18.3337 7.79019 17.4557 5.67057 15.8929 4.10777C14.3301 2.54497 12.2105 1.66699 10.0003 1.66699Z" fill="#29B6F6"/>
<path id="Vector_2" d="M14.1462 6.24968L12.5853 14.2188C12.5853 14.2188 12.5182 14.583 12.0666 14.583C11.8266 14.583 11.7028 14.4688 11.7028 14.4688L8.32199 11.6634L6.66783 10.8297L4.54491 10.2651C4.54491 10.2651 4.16699 10.1559 4.16699 9.84343C4.16699 9.58301 4.55574 9.45884 4.55574 9.45884L13.4374 5.93051C13.4374 5.93051 13.7087 5.83259 13.9066 5.83301C14.0282 5.83301 14.167 5.88509 14.167 6.04134C14.167 6.14551 14.1462 6.24968 14.1462 6.24968Z" fill="white"/>
<path id="Vector_3" d="M9.58367 12.7096L8.15617 14.1154C8.15617 14.1154 8.09409 14.1634 8.01117 14.1654C7.98242 14.1663 7.95159 14.1617 7.91992 14.1475L8.32159 11.6621L9.58367 12.7096Z" fill="#B0BEC5"/>
<path id="Vector_4" d="M12.4574 7.58162C12.387 7.48996 12.257 7.47329 12.1653 7.54287L6.66699 10.8333C6.66699 10.8333 7.54449 13.2883 7.67824 13.7133C7.81241 14.1387 7.91991 14.1487 7.91991 14.1487L8.32158 11.6633L12.4182 7.87329C12.5099 7.80371 12.527 7.67329 12.4574 7.58162Z" fill="#CFD8DC"/>
</g>
</svg>
