<svg width="20" height="20" viewBox="0 0 20 20" fill="none" xmlns="http://www.w3.org/2000/svg">
<g id="icons8-twitter (15)">
<path id="Vector" d="M4.39961 1.59961C2.85321 1.59961 1.59961 2.85321 1.59961 4.39961V15.5996C1.59961 17.146 2.85321 18.3996 4.39961 18.3996H15.5996C17.146 18.3996 18.3996 17.146 18.3996 15.5996V4.39961C18.3996 2.85321 17.146 1.59961 15.5996 1.59961H4.39961ZM5.23398 5.19961H8.40898L10.6637 8.40352L13.3996 5.19961H14.3996L11.1152 9.04492L15.1652 14.7996H11.991L9.37461 11.0824L6.19961 14.7996H5.19961L8.92305 10.441L5.23398 5.19961ZM6.76523 5.99961L12.4082 13.9996H13.634L7.99102 5.99961H6.76523Z" fill="white"/>
</g>
</svg>
