<svg width="30" height="30" viewBox="0 0 30 30" fill="none" xmlns="http://www.w3.org/2000/svg">
<path d="M15.0001 5.10413C12.3755 5.10413 9.8585 6.14672 8.00267 8.00255C6.14684 9.85838 5.10425 12.3754 5.10425 15C5.10425 17.6245 6.14684 20.1415 8.00267 21.9974C9.8585 23.8532 12.3755 24.8958 15.0001 24.8958C17.6246 24.8958 20.1417 23.8532 21.9975 21.9974C23.8533 20.1415 24.8959 17.6245 24.8959 15C24.8959 12.3754 23.8533 9.85838 21.9975 8.00255C20.1417 6.14672 17.6246 5.10413 15.0001 5.10413Z" fill="#039BE5"/>
<path d="M16.3395 17.623H18.9005L19.3025 15.0214H16.339V13.5995C16.339 12.5188 16.6921 11.5605 17.7031 11.5605H19.3275V9.29015C19.0421 9.25161 18.4385 9.16724 17.2979 9.16724C14.9161 9.16724 13.5197 10.425 13.5197 13.2907V15.0214H11.0713V17.623H13.5197V24.7735C14.0046 24.8464 14.4958 24.8959 14.9999 24.8959C15.4557 24.8959 15.9005 24.8542 16.3395 24.7948V17.623Z" fill="white"/>
</svg>
