<svg width="20" height="20" viewBox="0 0 20 20" fill="none" xmlns="http://www.w3.org/2000/svg">
<path d="M9.99935 15.8334C9.77833 15.8334 9.56637 15.7456 9.41009 15.5893C9.25381 15.433 9.16602 15.221 9.16602 15V5.00002C9.16602 4.77901 9.25381 4.56705 9.41009 4.41076C9.56637 4.25448 9.77833 4.16669 9.99935 4.16669C10.2204 4.16669 10.4323 4.25448 10.5886 4.41076C10.7449 4.56705 10.8327 4.77901 10.8327 5.00002V15C10.8327 15.221 10.7449 15.433 10.5886 15.5893C10.4323 15.7456 10.2204 15.8334 9.99935 15.8334Z" fill="#131105"/>
<path d="M4.99935 10.8334C4.77834 10.8334 4.56637 10.7456 4.41009 10.5893C4.25381 10.433 4.16602 10.221 4.16602 10C4.16602 9.77901 4.25381 9.56705 4.41009 9.41076C4.56637 9.25448 4.77834 9.16669 4.99935 9.16669H14.9993C15.2204 9.16669 15.4323 9.25448 15.5886 9.41076C15.7449 9.56705 15.8327 9.77901 15.8327 10C15.8327 10.221 15.7449 10.433 15.5886 10.5893C15.4323 10.7456 15.2204 10.8334 14.9993 10.8334H4.99935Z" fill="#131105"/>
</svg>
