<svg width="92" height="70" viewBox="0 0 92 70" fill="none" xmlns="http://www.w3.org/2000/svg">
<path d="M60.7556 49.5832C68.7446 41.5291 68.7446 28.4707 60.7556 20.4165C52.7666 12.3624 39.8138 12.3624 31.8248 20.4166C23.8358 28.4707 23.8358 41.5291 31.8248 49.5832C39.8138 57.6374 52.7666 57.6374 60.7556 49.5832Z" fill="url(#paint0_linear_4370_11646)"/>
<path d="M60.4065 30.1726L55.2335 29.4152L53.8202 29.2083L50.461 28.716L46.0138 19.6309L41.566 28.716L31.6211 30.1726L38.8177 37.2444L37.1188 47.2302L46.0138 42.5159L54.9088 47.2302L53.2098 37.2444L60.4065 30.1726Z" fill="url(#paint1_linear_4370_11646)"/>
<g style="mix-blend-mode:multiply" opacity="0.5">
<path d="M31.5684 30.1728L46.218 34.0343L38.7644 37.2446L31.5684 30.1728Z" fill="#C10065"/>
</g>
<g style="mix-blend-mode:multiply" opacity="0.5">
<path d="M60.3539 30.1725L46.2188 34.0341L53.1578 37.2443L60.3539 30.1725Z" fill="#C10065"/>
</g>
<g style="mix-blend-mode:multiply" opacity="0.7">
<path d="M45.9594 42.516L46.217 34.0342L37.0645 47.2303L45.9594 42.516Z" fill="#C10065"/>
</g>
<g style="mix-blend-mode:multiply" opacity="0.5">
<path d="M54.8559 47.2303L46.2185 34.0342L45.9609 42.516L54.8559 47.2303Z" fill="#C10065"/>
</g>
<g style="mix-blend-mode:soft-light">
<path d="M45.9609 19.6309L46.2185 34.0342L50.4087 28.7159L45.9609 19.6309Z" fill="#F7FFFF"/>
</g>
<g style="mix-blend-mode:soft-light">
<path d="M60.3539 30.1726L46.2188 34.0341L50.409 28.7159L60.3539 30.1726Z" fill="#F7FFFF"/>
</g>
<g style="mix-blend-mode:soft-light">
<path d="M60.3539 30.1726L46.2188 34.0341L50.409 28.7159L60.3539 30.1726Z" fill="#F7FFFF"/>
</g>
<g style="mix-blend-mode:soft-light">
<path d="M41.5133 28.7163L46.218 34.0345L31.5684 30.173L41.5133 28.7163Z" fill="#F7FFFF"/>
</g>
<g style="mix-blend-mode:color-dodge" opacity="0.8">
<path d="M50.4118 31.8763C49.6727 32.5066 50.3037 32.9191 50.3037 32.9191L54.1117 31.879C54.1117 31.879 52.1201 30.4192 50.4118 31.8763Z" fill="white"/>
</g>
<g style="mix-blend-mode:soft-light" opacity="0.4">
<path d="M34.3803 36.3914C36.9332 39.6922 37.7285 46.468 34.3803 44.9684C31.0321 43.4688 28.4374 33.5613 30.5378 34.0449C32.0648 34.3147 33.4359 35.152 34.3803 36.3914Z" fill="#F7FFFF"/>
</g>
<g style="mix-blend-mode:soft-light" opacity="0.4">
<path d="M40.7295 49.8265C43.0759 51.8066 54.6837 50.4346 52.1383 48.1486C49.593 45.8627 46.5864 44.3806 44.6098 45.1816C42.6331 45.9826 39.5993 48.8727 40.7295 49.8265Z" fill="#F7FFFF"/>
</g>
<g style="mix-blend-mode:soft-light" opacity="0.4">
<path d="M55.0674 38.0064C54.6664 42.7219 56.8472 45.6776 59.3182 43.4612C61.7893 41.2448 63.041 36.5897 61.8203 35.289C60.5996 33.9883 55.2458 35.9074 55.0674 38.0064Z" fill="#F7FFFF"/>
</g>
<g style="mix-blend-mode:multiply" opacity="0.3">
<path d="M37.1152 47.2304C37.1152 47.2304 43.8621 44.0263 46.0103 43.1339L54.9054 47.2304L46.0103 42.5159L37.1152 47.2304Z" fill="#D01BDC"/>
</g>
<g style="mix-blend-mode:soft-light">
<path d="M39.2734 29.0009C40.4168 28.6694 41.721 28.4003 43.8676 24.0156L41.5665 28.7161L39.2734 29.0009Z" fill="#F7FFFF"/>
</g>
<g style="mix-blend-mode:soft-light">
<path d="M47.8984 23.4841C47.8984 23.4841 50.1269 28.1556 52.7028 29.0445L50.4596 28.716L47.8984 23.4841Z" fill="#F7FFFF"/>
</g>
<g style="mix-blend-mode:multiply" opacity="0.3">
<path d="M31.5684 30.1728L46.218 34.0343L38.1743 41.0114L31.5684 30.1728Z" fill="#D01BDC"/>
</g>
<g style="mix-blend-mode:multiply" opacity="0.3">
<path d="M60.3539 30.1725L46.2188 34.0341L54.0073 41.9401L60.3539 30.1725Z" fill="#D01BDC"/>
</g>
<g style="mix-blend-mode:multiply" opacity="0.3">
<path d="M37.1152 47.2302L46.2166 34.0342L54.9052 47.2302L46.0102 45.8137L37.1152 47.2302Z" fill="#D01BDC"/>
</g>
<g style="mix-blend-mode:soft-light" opacity="0.4">
<path d="M42.7005 27.1449C41.7544 29.7901 45.3587 31.6365 45.8439 30.8232C46.3292 30.01 46.021 25.467 45.4124 24.8535C44.8039 24.24 43.0878 26.0621 42.7005 27.1449Z" fill="#F7FFFF"/>
</g>
<g style="mix-blend-mode:soft-light" opacity="0.4">
<path d="M39.7525 40.6949C41.668 40.9568 42.7406 38.7577 43.144 37.2448C43.7939 34.8072 36.2706 40.2189 39.7525 40.6949Z" fill="#F7FFFF"/>
</g>
<path d="M27.5841 12.2603C27.5832 12.3223 27.5862 12.3844 27.5929 12.4461C27.5936 12.4536 27.5938 12.4609 27.5949 12.4692C27.6206 12.6619 27.6655 12.8516 27.729 13.0352L27.7308 13.0412C28.371 14.5203 29.2091 15.904 30.2216 17.1539C30.23 17.1656 30.2385 17.1773 30.2471 17.1885C30.434 17.4327 30.5887 17.6287 30.6915 17.7565L30.6938 17.759C30.7794 17.8662 30.828 17.9256 30.828 17.9256L31.0968 17.9255L31.1748 17.9261L31.175 17.9255L32.0785 17.9263C33.2841 16.3005 34.3695 13.365 34.3827 12.1991C34.3866 12.0968 34.3759 11.9945 34.3512 11.8952C34.1996 11.4963 34.0182 11.1096 33.8084 10.7384C32.8661 8.95905 31.026 5.94946 30.63 5.99552C30.3813 6.0243 29.0517 8.25229 28.2338 10.1362C27.9029 10.8034 27.6834 11.5211 27.5841 12.2603Z" fill="url(#paint2_linear_4370_11646)"/>
<path style="mix-blend-mode:multiply" opacity="0.5" d="M27.5841 12.26C27.5832 12.3221 27.5862 12.3841 27.5929 12.4458C27.5936 12.4533 27.5938 12.4607 27.5949 12.4689C27.6206 12.6616 27.6655 12.8513 27.729 13.035L27.7308 13.0409C28.371 14.52 29.2091 15.9038 30.2216 17.1537C30.23 17.1653 30.2385 17.177 30.2471 17.1882C30.434 17.4324 30.5887 17.6284 30.6915 17.7562L30.6938 17.7587C30.7794 17.8659 30.828 17.9253 30.828 17.9253L31.0968 17.9252L31.1748 17.9258L31.175 17.9252L32.0785 17.926C33.2841 16.3003 34.3695 13.3647 34.3827 12.1988C34.2603 12.7339 33.9833 13.2204 33.5866 13.5968C33.19 13.9732 32.6917 14.2226 32.1545 14.3135C31.7917 14.3761 31.4223 14.3891 31.0561 14.3522L31.0408 14.3511C30.9773 14.3447 30.9151 14.3375 30.8543 14.3295C30.8051 14.3233 30.7569 14.3162 30.7092 14.3087C30.3406 14.2515 29.9789 14.1561 29.6297 14.0241C29.0385 13.6229 28.5905 13.0413 28.3513 12.3645C28.2999 11.5742 28.4238 10.7823 28.714 10.0463C29.1861 8.62209 29.8296 7.2616 30.63 5.99524C30.3813 6.02403 29.0517 8.25201 28.2338 10.1359C27.9029 10.8031 27.6834 11.5208 27.5841 12.26Z" fill="url(#paint3_linear_4370_11646)"/>
<path d="M31.6985 12.0353C32.2675 14.2991 31.1699 17.9256 31.1699 17.9256C31.1699 17.9256 31.2702 14.5904 30.7988 12.8819C30.3273 11.1733 31.5222 11.334 31.6985 12.0353Z" fill="url(#paint4_linear_4370_11646)"/>
<g style="mix-blend-mode:soft-light">
<path d="M30.6641 12.1898C31.2611 14.211 31.1742 17.9257 31.1742 17.9257L30.6641 12.1898Z" fill="#F7FFFF"/>
</g>
<g style="mix-blend-mode:soft-light">
<path d="M33.6569 10.4538C32.844 11.0431 30.9966 6.44749 31.5573 7.02082C32.3162 8.12739 33.017 9.27329 33.6569 10.4538Z" fill="#F7FFFF"/>
</g>
<path style="mix-blend-mode:multiply" opacity="0.5" d="M27.5885 12.446C27.5892 12.4535 27.5894 12.4608 27.5905 12.4691C27.6105 12.6628 27.6557 12.8531 27.7246 13.0351L27.7264 13.0411C28.3916 14.507 29.2277 15.8876 30.2172 17.1538C30.2256 17.1655 30.2341 17.1772 30.2427 17.1884C30.4766 17.5012 30.6428 17.7105 30.6871 17.7564L30.6894 17.7589C31.1494 18.2268 30.7433 17.4586 29.0903 14.4502C28.3656 13.1313 27.5627 11.9875 27.5885 12.446Z" fill="url(#paint5_linear_4370_11646)"/>
<g style="mix-blend-mode:multiply" opacity="0.5">
<path d="M30.2216 17.1539C30.23 17.1656 30.2385 17.1773 30.2471 17.1885C30.481 17.5013 30.6472 17.7106 30.6915 17.7565C30.7801 16.6092 30.786 15.457 30.7092 14.309C30.4671 12.3108 30.1654 10.5505 29.7383 10.3032C29.4282 10.1208 29.0727 10.0318 28.714 10.0466C28.5503 10.0511 28.3883 10.0814 28.2338 10.1362C27.9029 10.8034 27.6834 11.5211 27.5841 12.2603C27.5832 12.3223 27.5862 12.3844 27.5929 12.4461C27.5936 12.4536 27.5938 12.461 27.5949 12.4692C27.6149 12.6629 27.6601 12.8532 27.729 13.0352L27.7308 13.0412C28.371 14.5203 29.2091 15.9041 30.2216 17.1539Z" fill="#C10065"/>
</g>
<path d="M24.2811 23.2338C24.3511 23.2353 24.4212 23.2321 24.4907 23.2241L24.4971 23.2233C24.6696 23.201 24.8397 23.1623 25.005 23.1078L25.0159 23.1043C26.2923 22.6953 28.0912 21.415 29.113 20.6369C29.1251 20.6276 29.1367 20.6184 29.1478 20.61C29.3996 20.4179 29.6016 20.2581 29.7331 20.1529L29.7377 20.1484C29.8443 20.0634 29.9029 20.0149 29.9029 20.0149L29.9053 19.7064L29.9059 19.6663L29.9129 18.7585C28.3138 17.5361 25.4203 16.4251 24.2678 16.4037C24.1669 16.399 24.0659 16.409 23.9677 16.4332C23.5722 16.5827 23.1886 16.7623 22.8201 16.9706L22.8187 16.9716C22.4314 17.1763 21.9856 17.4239 21.5259 17.6906C19.8893 18.6378 18.0767 19.8195 18.1098 20.1305C18.1493 20.494 22.782 23.1938 24.2811 23.2338Z" fill="url(#paint6_linear_4370_11646)"/>
<path style="mix-blend-mode:multiply" opacity="0.5" d="M24.2807 23.2339C24.3507 23.2355 24.4207 23.2323 24.4903 23.2243L24.4966 23.2234C24.6692 23.2012 24.8392 23.1625 25.0045 23.1079L25.0155 23.1044C26.2918 22.6954 28.0908 21.4151 29.1126 20.6371C29.1247 20.6278 29.1362 20.6186 29.1474 20.6102C29.3992 20.418 29.6012 20.2582 29.7326 20.1531L29.7373 20.1486C29.8438 20.0635 29.9025 20.0151 29.9025 20.0151L29.9049 19.7066L29.9055 19.6664L29.9125 18.7586C28.3134 17.5362 25.4199 16.4252 24.2674 16.4039C24.7955 16.5306 25.2745 16.8122 25.6438 17.2133C26.0132 17.6144 26.2562 18.1169 26.3423 18.6573C26.3886 18.9335 26.4051 19.214 26.3915 19.4938C26.3883 19.5844 26.3814 19.6733 26.3728 19.7602L26.3717 19.7757C26.3654 19.8396 26.3574 19.902 26.3497 19.9633C26.2933 20.3832 26.1889 20.7951 26.0386 21.1908C25.6378 21.7821 25.0595 22.2282 24.3887 22.4639C23.6149 22.641 21.0563 22.0187 18.1094 20.1307C18.1489 20.4941 22.7816 23.1939 24.2807 23.2339Z" fill="url(#paint7_linear_4370_11646)"/>
<path d="M23.5648 19.4904C25.7655 17.4991 29.9018 19.6665 29.9018 19.6665C29.9018 19.6665 26.6061 19.5425 24.914 20.0041C23.222 20.4657 23.3008 19.7292 23.5648 19.4904Z" fill="url(#paint8_linear_4370_11646)"/>
<g style="mix-blend-mode:soft-light">
<path d="M24.2344 20.1396C26.2363 19.5531 29.9073 19.6666 29.9073 19.6666L24.2344 20.1396Z" fill="#F7FFFF"/>
</g>
<g style="mix-blend-mode:soft-light">
<path d="M19.1328 19.207C19.5254 19.5621 21.3264 18.8832 22.3269 18.146C22.8356 17.7721 23.1375 17.3822 22.9429 17.106L22.8227 16.9706L22.8212 16.9717L21.5284 17.6907L19.1328 19.207Z" fill="#F7FFFF"/>
</g>
<path style="mix-blend-mode:multiply" opacity="0.5" d="M26.4542 21.7315C29.4394 20.092 30.2016 19.6893 29.7359 20.1487C29.546 20.336 25.8507 23.1566 24.4629 23.2262C24.0094 23.2489 25.1456 22.4502 26.4542 21.7315Z" fill="url(#paint9_linear_4370_11646)"/>
<g style="mix-blend-mode:multiply" opacity="0.5">
<path d="M21.5273 17.6906C21.549 17.6982 21.5709 17.7069 21.5929 17.7157C21.8559 17.824 22.1026 17.9688 22.3258 18.1459C22.8027 18.5313 23.2219 18.9841 23.5703 19.4904C24.2826 19.1501 25.0725 19.0091 25.8574 19.082C27.1424 19.1243 28.418 19.3181 29.6583 19.6595H29.6601L29.6709 19.6615L29.768 19.6777L29.7687 19.6781C29.8157 19.6861 29.8615 19.6962 29.9068 19.7065L29.9074 19.6663L29.9144 18.7585C28.3153 17.5361 25.4218 16.4251 24.2693 16.4038C24.1684 16.3991 24.0673 16.409 23.9692 16.4333C23.5737 16.5828 23.19 16.7624 22.8216 16.9706L22.8202 16.9717C22.4328 17.1764 21.9871 17.424 21.5273 17.6906Z" fill="#C10065"/>
</g>
<path d="M22.8517 17.0062C24.1333 18.4093 29.8612 19.0664 29.8612 19.0664L30.879 18.0863C30.6035 15.8186 29.2205 12.5807 28.3311 11.6224C28.2553 11.5363 28.1676 11.4615 28.0708 11.4004C27.2211 10.9055 20.8646 9.07037 20.4914 9.52345C20.2298 9.84177 21.7047 15.7503 22.8517 17.0062Z" fill="url(#paint10_linear_4370_11646)"/>
<path style="mix-blend-mode:multiply" opacity="0.5" d="M22.8517 17.0063C24.1333 18.4094 29.8612 19.0665 29.8612 19.0665L30.879 18.0864C30.6035 15.8187 29.2205 12.5807 28.3311 11.6224C30.0923 15.1506 25.8762 16.8353 25.8762 16.8353C25.8762 16.8353 24.9775 17.1006 23.686 16.2122C22.9454 15.7027 21.2918 13.4162 20.4914 9.5235C20.2298 9.84183 21.7047 15.7504 22.8517 17.0063Z" fill="url(#paint11_linear_4370_11646)"/>
<path d="M25.2837 13.7771C28.2401 14.5916 30.1417 18.7948 30.1417 18.7948C30.1417 18.7948 27.6488 16.0048 25.9468 14.9857C24.2447 13.9667 24.8973 13.6706 25.2837 13.7771Z" fill="url(#paint12_linear_4370_11646)"/>
<g style="mix-blend-mode:soft-light">
<path d="M25.3047 14.5325C27.3509 15.7066 30.1475 18.7947 30.1475 18.7947L25.3047 14.5325Z" fill="#F7FFFF"/>
</g>
<g style="mix-blend-mode:soft-light">
<path d="M26.8408 10.9205C26.6349 12.0373 21.1507 9.47515 22.0361 9.63054C23.7581 9.93285 26.8408 10.9205 26.8408 10.9205Z" fill="#F7FFFF"/>
</g>
<path d="M64.3814 12.2603C64.3823 12.3223 64.3793 12.3844 64.3726 12.4461C64.3719 12.4536 64.3717 12.4609 64.3706 12.4692C64.3449 12.6619 64.3 12.8516 64.2365 13.0352L64.2347 13.0412C63.5945 14.5203 62.7565 15.904 61.7439 17.1539C61.7355 17.1656 61.727 17.1773 61.7185 17.1885C61.5316 17.4327 61.3768 17.6287 61.274 17.7565L61.2718 17.759C61.1861 17.8662 61.1375 17.9256 61.1375 17.9256L60.8687 17.9255L60.7907 17.9261L60.7905 17.9255L59.887 17.9263C58.6815 16.3005 57.596 13.365 57.5828 12.1991C57.579 12.0968 57.5896 11.9945 57.6143 11.8952C57.7659 11.4963 57.9474 11.1096 58.1571 10.7384C59.0994 8.95905 60.9395 5.94946 61.3355 5.99552C61.5842 6.0243 62.9138 8.25229 63.7317 10.1362C64.0626 10.8034 64.2821 11.5211 64.3814 12.2603Z" fill="url(#paint13_linear_4370_11646)"/>
<path style="mix-blend-mode:multiply" opacity="0.5" d="M64.3806 12.26C64.3815 12.3221 64.3786 12.3841 64.3718 12.4458C64.3711 12.4533 64.371 12.4607 64.3699 12.4689C64.3442 12.6616 64.2992 12.8513 64.2357 13.035L64.234 13.0409C63.5938 14.52 62.7557 15.9038 61.7432 17.1537C61.7347 17.1653 61.7263 17.177 61.7177 17.1882C61.5308 17.4324 61.3761 17.6284 61.2732 17.7562L61.271 17.7587C61.1854 17.8659 61.1368 17.9253 61.1368 17.9253L60.8679 17.9252L60.7899 17.9258L60.7898 17.9252L59.8862 17.926C58.6807 16.3003 57.5952 13.3647 57.582 12.1988C57.7045 12.7339 57.9815 13.2204 58.3781 13.5968C58.7747 13.9732 59.2731 14.2226 59.8103 14.3135C60.173 14.3761 60.5425 14.3891 60.9087 14.3522L60.924 14.3511C60.9876 14.3447 61.0497 14.3375 61.1104 14.3295C61.1596 14.3233 61.2079 14.3162 61.2556 14.3087C61.6241 14.2515 61.9859 14.1561 62.335 14.0241C62.9262 13.6229 63.3742 13.0413 63.6134 12.3645C63.6648 11.5742 63.5409 10.7823 63.2508 10.0463C62.7787 8.62209 62.1352 7.2616 61.3347 5.99524C61.5834 6.02403 62.9131 8.25201 63.7309 10.1359C64.0618 10.8031 64.2813 11.5208 64.3806 12.26Z" fill="url(#paint14_linear_4370_11646)"/>
<path d="M60.2574 12.0353C59.6884 14.2991 60.7859 17.9256 60.7859 17.9256C60.7859 17.9256 60.6856 14.5904 61.1571 12.8819C61.6286 11.1733 60.4337 11.334 60.2574 12.0353Z" fill="url(#paint15_linear_4370_11646)"/>
<g style="mix-blend-mode:soft-light">
<path d="M61.2997 12.1898C60.7027 14.211 60.7896 17.9257 60.7896 17.9257L61.2997 12.1898Z" fill="#F7FFFF"/>
</g>
<g style="mix-blend-mode:soft-light">
<path d="M58.3047 10.4538C59.1176 11.0431 60.965 6.44749 60.4043 7.02082C59.6454 8.12739 58.9446 9.27329 58.3047 10.4538Z" fill="#F7FFFF"/>
</g>
<path style="mix-blend-mode:multiply" opacity="0.5" d="M64.3713 12.446C64.3706 12.4535 64.3704 12.4608 64.3693 12.4691C64.3492 12.6628 64.3041 12.8531 64.2352 13.0351L64.2334 13.0411C63.5682 14.507 62.7321 15.8876 61.7426 17.1538C61.7342 17.1655 61.7257 17.1772 61.7171 17.1884C61.4832 17.5012 61.317 17.7105 61.2727 17.7564L61.2705 17.7589C60.8104 18.2268 61.2165 17.4586 62.8694 14.4502C63.5942 13.1313 64.397 11.9875 64.3713 12.446Z" fill="url(#paint16_linear_4370_11646)"/>
<g style="mix-blend-mode:multiply" opacity="0.5">
<path d="M61.7403 17.1539C61.7319 17.1656 61.7234 17.1773 61.7149 17.1885C61.481 17.5013 61.3147 17.7106 61.2704 17.7565C61.1818 16.6092 61.1759 15.457 61.2527 14.309C61.4948 12.3108 61.7965 10.5505 62.2236 10.3032C62.5337 10.1208 62.8892 10.0318 63.2479 10.0466C63.4116 10.0511 63.5736 10.0814 63.7281 10.1362C64.059 10.8034 64.2785 11.5211 64.3778 12.2603C64.3787 12.3223 64.3757 12.3844 64.369 12.4461C64.3683 12.4536 64.3681 12.461 64.367 12.4692C64.347 12.6629 64.3019 12.8532 64.2329 13.0352L64.2311 13.0412C63.5909 14.5203 62.7529 15.904 61.7403 17.1539Z" fill="#C10065"/>
</g>
<path d="M67.6787 23.2338C67.6086 23.2354 67.5386 23.2322 67.469 23.2242L67.4627 23.2233C67.2901 23.2011 67.1201 23.1624 66.9548 23.1078L66.9438 23.1043C65.6675 22.6953 63.8685 21.415 62.8467 20.637C62.8346 20.6277 62.8231 20.6185 62.812 20.6101C62.5601 20.4179 62.3582 20.2581 62.2267 20.153L62.2221 20.1485C62.1155 20.0634 62.0569 20.015 62.0569 20.015L62.0544 19.7065L62.0538 19.6663L62.0469 18.7585C63.6459 17.5361 66.5394 16.4251 67.6919 16.4038C67.7928 16.3991 67.8939 16.409 67.992 16.4333C68.3875 16.5828 68.7712 16.7624 69.1396 16.9706L69.1411 16.9717C69.5284 17.1764 69.9742 17.424 70.4339 17.6906C72.0705 18.6379 73.8831 19.8195 73.8499 20.1306C73.8104 20.494 69.1777 23.1938 67.6787 23.2338Z" fill="url(#paint17_linear_4370_11646)"/>
<path style="mix-blend-mode:multiply" opacity="0.5" d="M67.6787 23.234C67.6086 23.2356 67.5386 23.2323 67.469 23.2243L67.4627 23.2235C67.2901 23.2012 67.1201 23.1626 66.9548 23.108L66.9438 23.1045C65.6675 22.6955 63.8685 21.4152 62.8467 20.6371C62.8346 20.6278 62.8231 20.6186 62.812 20.6102C62.5601 20.4181 62.3582 20.2583 62.2267 20.1531L62.2221 20.1486C62.1155 20.0636 62.0569 20.0152 62.0569 20.0152L62.0544 19.7067L62.0538 19.6665L62.0469 18.7587C63.6459 17.5363 66.5394 16.4253 67.6919 16.4039C67.1638 16.5306 66.6848 16.8123 66.3155 17.2134C65.9462 17.6145 65.7031 18.117 65.617 18.6573C65.5707 18.9336 65.5543 19.214 65.5678 19.4938C65.5711 19.5845 65.5779 19.6733 65.5865 19.7603L65.5877 19.7758C65.594 19.8396 65.6019 19.9021 65.6096 19.9633C65.666 20.3832 65.7704 20.7952 65.9207 21.1909C66.3216 21.7821 66.8998 22.2283 67.5706 22.464C68.3444 22.6411 70.903 22.0188 73.8499 20.1307C73.8104 20.4942 69.1777 23.194 67.6787 23.234Z" fill="url(#paint18_linear_4370_11646)"/>
<path d="M68.3917 19.4904C66.1911 17.4991 62.0547 19.6665 62.0547 19.6665C62.0547 19.6665 65.3505 19.5425 67.0425 20.0041C68.7345 20.4657 68.6557 19.7292 68.3917 19.4904Z" fill="url(#paint19_linear_4370_11646)"/>
<g style="mix-blend-mode:soft-light">
<path d="M67.7276 20.1397C65.7257 19.5532 62.0547 19.6667 62.0547 19.6667L67.7276 20.1397Z" fill="#F7FFFF"/>
</g>
<g style="mix-blend-mode:soft-light">
<path d="M72.8306 19.2071C72.4381 19.5623 70.637 18.8834 69.6366 18.1461C69.1278 17.7723 68.8259 17.3824 69.0205 17.1062L69.1407 16.9708L69.1422 16.9719L70.435 17.6908L72.8306 19.2071Z" fill="#F7FFFF"/>
</g>
<path style="mix-blend-mode:multiply" opacity="0.5" d="M65.5057 21.7315C62.5205 20.092 61.7583 19.6893 62.224 20.1487C62.4139 20.336 66.1092 23.1566 67.497 23.2262C67.9505 23.2489 66.8143 22.4502 65.5057 21.7315Z" fill="url(#paint20_linear_4370_11646)"/>
<g style="mix-blend-mode:multiply" opacity="0.5">
<path d="M70.4339 17.6906C70.4122 17.6982 70.3903 17.7069 70.3683 17.7157C70.1054 17.824 69.8587 17.9688 69.6355 18.1459C69.1586 18.5313 68.7394 18.9841 68.3909 19.4904C67.6786 19.1501 66.8887 19.0091 66.1038 19.082C64.8189 19.1243 63.5432 19.3181 62.303 19.6595H62.3011L62.2903 19.6615L62.1933 19.6777L62.1925 19.6781C62.1455 19.6861 62.0998 19.6962 62.0544 19.7065L62.0538 19.6663L62.0469 18.7585C63.6459 17.5361 66.5394 16.4251 67.6919 16.4038C67.7928 16.3991 67.8939 16.409 67.992 16.4333C68.3875 16.5828 68.7712 16.7624 69.1396 16.9706L69.1411 16.9717C69.5284 17.1764 69.9742 17.424 70.4339 17.6906Z" fill="#C10065"/>
</g>
<path d="M69.1073 17.0063C67.8258 18.4094 62.0979 19.0665 62.0979 19.0665L61.0801 18.0864C61.3556 15.8187 62.7386 12.5808 63.6279 11.6225C63.7038 11.5364 63.7914 11.4617 63.8882 11.4005C64.7379 10.9057 71.0945 9.07049 71.4676 9.52357C71.7292 9.8419 70.2544 15.7504 69.1073 17.0063Z" fill="url(#paint21_linear_4370_11646)"/>
<path style="mix-blend-mode:multiply" opacity="0.5" d="M69.1073 17.0062C67.8258 18.4093 62.0979 19.0664 62.0979 19.0664L61.0801 18.0863C61.3556 15.8186 62.7386 12.5806 63.6279 11.6224C61.8667 15.1505 66.0829 16.8352 66.0829 16.8352C66.0829 16.8352 66.9816 17.1005 68.273 16.2121C69.0137 15.7026 70.6673 13.4162 71.4676 9.52344C71.7292 9.84176 70.2544 15.7503 69.1073 17.0062Z" fill="url(#paint22_linear_4370_11646)"/>
<path d="M66.6745 13.7769C63.7181 14.5914 61.8164 18.7946 61.8164 18.7946C61.8164 18.7946 64.3093 16.0046 66.0114 14.9856C67.7135 13.9665 67.0609 13.6704 66.6745 13.7769Z" fill="url(#paint23_linear_4370_11646)"/>
<g style="mix-blend-mode:soft-light">
<path d="M66.6592 14.5326C64.613 15.7067 61.8164 18.7948 61.8164 18.7948L66.6592 14.5326Z" fill="#F7FFFF"/>
</g>
<g style="mix-blend-mode:soft-light">
<path d="M65.123 10.9205C65.3289 12.0373 70.8131 9.47515 69.9277 9.63054C68.2057 9.93285 65.123 10.9205 65.123 10.9205Z" fill="#F7FFFF"/>
</g>
<path d="M27.5841 57.7195C27.5832 57.6575 27.5862 57.5954 27.5929 57.5338C27.5936 57.5263 27.5938 57.5189 27.5949 57.5107C27.6206 57.318 27.6655 57.1283 27.729 56.9447L27.7308 56.9387C28.371 55.4596 29.209 54.0758 30.2216 52.826C30.23 52.8143 30.2385 52.8025 30.2471 52.7914C30.434 52.5472 30.5887 52.3512 30.6915 52.2234L30.6938 52.2209C30.7794 52.1136 30.828 52.0543 30.828 52.0543L31.0968 52.0544L31.1748 52.0538L32.0785 52.0535C33.2841 53.6793 34.3695 56.6149 34.3827 57.7808C34.3866 57.883 34.376 57.9853 34.3512 58.0846C34.1996 58.4835 34.0182 58.8702 33.8084 59.2414C32.8661 61.0208 31.026 64.0304 30.63 63.9844C30.3813 63.9556 29.0517 61.7276 28.2338 59.8437C27.9029 59.1764 27.6834 58.4588 27.5841 57.7195Z" fill="url(#paint24_linear_4370_11646)"/>
<path style="mix-blend-mode:multiply" opacity="0.5" d="M27.5841 57.7195C27.5832 57.6575 27.5862 57.5954 27.5929 57.5338C27.5936 57.5263 27.5938 57.5189 27.5949 57.5107C27.6206 57.318 27.6655 57.1283 27.729 56.9447L27.7308 56.9387C28.371 55.4596 29.209 54.0758 30.2216 52.826C30.23 52.8143 30.2385 52.8025 30.2471 52.7914C30.434 52.5472 30.5887 52.3512 30.6915 52.2234L30.6938 52.2209C30.7794 52.1136 30.828 52.0543 30.828 52.0543L31.0968 52.0544L31.1748 52.0538L32.0785 52.0535C33.2841 53.6793 34.3695 56.6149 34.3827 57.7808C34.2603 57.2457 33.9832 56.7592 33.5866 56.3828C33.19 56.0064 32.6917 55.757 32.1545 55.666C31.7917 55.6035 31.4223 55.5905 31.0561 55.6273L31.0408 55.6285C30.9773 55.6349 30.9151 55.6421 30.8543 55.6501C30.8051 55.6562 30.7569 55.6634 30.7092 55.6709C30.3406 55.7281 29.9789 55.8235 29.6297 55.9556C29.0385 56.3567 28.5905 56.9383 28.3513 57.6151C28.2999 58.4054 28.4238 59.1973 28.714 59.9333C29.1861 61.3575 29.8296 62.718 30.63 63.9844C30.3813 63.9556 29.0517 61.7276 28.2338 59.8437C27.9029 59.1764 27.6834 58.4588 27.5841 57.7195Z" fill="url(#paint25_linear_4370_11646)"/>
<path d="M31.6985 57.9444C32.2675 55.6806 31.1699 52.0541 31.1699 52.0541C31.1699 52.0541 31.2702 55.3893 30.7988 57.0979C30.3273 58.8065 31.5222 58.6457 31.6985 57.9444Z" fill="url(#paint26_linear_4370_11646)"/>
<g style="mix-blend-mode:soft-light">
<path d="M30.6641 57.7901C31.2611 55.7689 31.1742 52.0541 31.1742 52.0541L30.6641 57.7901Z" fill="#F7FFFF"/>
</g>
<g style="mix-blend-mode:soft-light">
<path d="M33.6569 59.5257C32.844 58.9363 30.9966 63.5319 31.5573 62.9586C32.3162 61.852 33.017 60.7062 33.6569 59.5257Z" fill="#F7FFFF"/>
</g>
<path style="mix-blend-mode:multiply" opacity="0.5" d="M27.5885 57.5339C27.5892 57.5264 27.5894 57.5191 27.5905 57.5109C27.6105 57.3171 27.6556 57.1268 27.7246 56.9448L27.7264 56.9388C28.3915 55.473 29.2277 54.0924 30.2172 52.8261C30.2256 52.8145 30.2341 52.8027 30.2427 52.7915C30.4766 52.4788 30.6428 52.2695 30.6871 52.2236L30.6894 52.2211C31.1494 51.7531 30.7433 52.5214 29.0903 55.5298C28.3656 56.8486 27.5627 57.9924 27.5885 57.5339Z" fill="url(#paint27_linear_4370_11646)"/>
<g style="mix-blend-mode:multiply" opacity="0.5">
<path d="M30.2216 52.8259C30.23 52.8142 30.2385 52.8024 30.2471 52.7913C30.481 52.4785 30.6472 52.2692 30.6915 52.2233C30.7801 53.3705 30.786 54.5227 30.7092 55.6708C30.4671 57.669 30.1654 59.4293 29.7383 59.6766C29.4282 59.859 29.0727 59.948 28.714 59.9332C28.5503 59.9286 28.3883 59.8984 28.2338 59.8436C27.9029 59.1763 27.6834 58.4587 27.5841 57.7194C27.5832 57.6574 27.5862 57.5953 27.5929 57.5337C27.5936 57.5262 27.5938 57.5188 27.5949 57.5106C27.6149 57.3168 27.66 57.1266 27.729 56.9446L27.7308 56.9386C28.371 55.4595 29.209 54.0757 30.2216 52.8259Z" fill="#C10065"/>
</g>
<path d="M24.2811 46.7458C24.3511 46.7442 24.4212 46.7474 24.4907 46.7555L24.4971 46.7563C24.6696 46.7786 24.8397 46.8173 25.005 46.8718L25.0159 46.8753C26.2923 47.2843 28.0912 48.5646 29.113 49.3426C29.1251 49.352 29.1367 49.3612 29.1478 49.3696C29.3996 49.5617 29.6016 49.7215 29.7331 49.8267L29.7377 49.8312C29.8443 49.9162 29.9029 49.9647 29.9029 49.9647L29.9053 50.2731L29.9059 50.3133L29.9129 51.2211C28.3138 52.4434 25.4203 53.5545 24.2678 53.5759C24.1669 53.5805 24.0658 53.5706 23.9677 53.5463C23.5722 53.3968 23.1886 53.2172 22.8201 53.009L22.8187 53.0079C22.4314 52.8033 21.9856 52.5556 21.5259 52.289C19.8893 51.3418 18.0767 50.16 18.1098 49.849C18.1493 49.4855 22.782 46.7858 24.2811 46.7458Z" fill="url(#paint28_linear_4370_11646)"/>
<path style="mix-blend-mode:multiply" opacity="0.5" d="M24.2807 46.7458C24.3507 46.7442 24.4207 46.7474 24.4903 46.7555L24.4966 46.7563C24.6692 46.7786 24.8392 46.8173 25.0045 46.8718L25.0155 46.8753C26.2918 47.2843 28.0908 48.5646 29.1126 49.3426C29.1247 49.352 29.1362 49.3612 29.1474 49.3696C29.3992 49.5617 29.6012 49.7215 29.7326 49.8267L29.7373 49.8312C29.8438 49.9162 29.9025 49.9647 29.9025 49.9647L29.9049 50.2731L29.9055 50.3133L29.9125 51.2211C28.3134 52.4434 25.4199 53.5545 24.2674 53.5759C24.7955 53.4492 25.2745 53.1675 25.6439 52.7664C26.0132 52.3653 26.2563 51.8628 26.3423 51.3224C26.3886 51.0462 26.4051 50.7657 26.3915 50.4859C26.3883 50.3952 26.3814 50.3064 26.3728 50.2195L26.3717 50.204C26.3654 50.1402 26.3574 50.0776 26.3497 50.0164C26.2933 49.5965 26.1889 49.1846 26.0386 48.7889C25.6377 48.1977 25.0595 47.7515 24.3887 47.5158C23.6149 47.3387 21.0563 47.961 18.1094 49.849C18.1489 49.4855 22.7816 46.7858 24.2807 46.7458Z" fill="url(#paint29_linear_4370_11646)"/>
<path d="M23.5648 50.4895C25.7655 52.4807 29.9018 50.3133 29.9018 50.3133C29.9018 50.3133 26.6061 50.4374 24.914 49.9757C23.222 49.5141 23.3008 50.2506 23.5648 50.4895Z" fill="url(#paint30_linear_4370_11646)"/>
<g style="mix-blend-mode:soft-light">
<path d="M24.2344 49.8401C26.2363 50.4265 29.9073 50.3131 29.9073 50.3131L24.2344 49.8401Z" fill="#F7FFFF"/>
</g>
<g style="mix-blend-mode:soft-light">
<path d="M19.1328 50.7726C19.5254 50.4175 21.3264 51.0964 22.3269 51.8337C22.8356 52.2075 23.1375 52.5974 22.9429 52.8736L22.8227 53.0089L22.8212 53.0079L21.5284 52.2889L19.1328 50.7726Z" fill="#F7FFFF"/>
</g>
<path style="mix-blend-mode:multiply" opacity="0.5" d="M26.4542 48.2481C29.4394 49.8876 30.2016 50.2903 29.7359 49.8309C29.546 49.6436 25.8507 46.8229 24.4629 46.7534C24.0094 46.7307 25.1456 47.5294 26.4542 48.2481Z" fill="url(#paint31_linear_4370_11646)"/>
<g style="mix-blend-mode:multiply" opacity="0.5">
<path d="M21.5273 52.2888C21.549 52.2811 21.5709 52.2724 21.5929 52.2638C21.8559 52.1554 22.1025 52.0106 22.3258 51.8335C22.8027 51.4481 23.2218 50.9953 23.5703 50.4891C24.2826 50.8293 25.0725 50.9703 25.8574 50.8974C27.1424 50.8551 28.418 50.6613 29.6583 50.3199L29.6601 50.3198L29.6709 50.3179L29.768 50.3017L29.7687 50.3014C29.8157 50.2934 29.8615 50.2833 29.9068 50.2729L29.9074 50.3131L29.9144 51.2209C28.3153 52.4432 25.4218 53.5543 24.2693 53.5757C24.1684 53.5803 24.0673 53.5704 23.9692 53.5461C23.5737 53.3966 23.19 53.217 22.8216 53.0088L22.8202 53.0077C22.4328 52.8031 21.9871 52.5554 21.5273 52.2888Z" fill="#C10065"/>
</g>
<path d="M22.8517 52.9737C24.1333 51.5706 29.8612 50.9135 29.8612 50.9135L30.879 51.8936C30.6035 54.1613 29.2205 57.3992 28.3311 58.3575C28.2553 58.4436 28.1676 58.5184 28.0708 58.5795C27.2211 59.0743 20.8646 60.9096 20.4914 60.4565C20.2298 60.1381 21.7047 54.2296 22.8517 52.9737Z" fill="url(#paint32_linear_4370_11646)"/>
<path style="mix-blend-mode:multiply" opacity="0.5" d="M22.8517 52.9737C24.1333 51.5706 29.8612 50.9135 29.8612 50.9135L30.879 51.8936C30.6035 54.1613 29.2205 57.3992 28.3311 58.3575C30.0923 54.8293 25.8762 53.1447 25.8762 53.1447C25.8762 53.1447 24.9775 52.8794 23.686 53.7678C22.9454 54.2772 21.2918 56.5637 20.4914 60.4565C20.2298 60.1381 21.7047 54.2296 22.8517 52.9737Z" fill="url(#paint33_linear_4370_11646)"/>
<path d="M25.2837 56.2025C28.2401 55.3879 30.1417 51.1848 30.1417 51.1848C30.1417 51.1848 27.6488 53.9747 25.9468 54.9938C24.2447 56.013 24.8973 56.3089 25.2837 56.2025Z" fill="url(#paint34_linear_4370_11646)"/>
<g style="mix-blend-mode:soft-light">
<path d="M25.3047 55.447C27.3509 54.2728 30.1475 51.1847 30.1475 51.1847L25.3047 55.447Z" fill="#F7FFFF"/>
</g>
<g style="mix-blend-mode:soft-light">
<path d="M26.8408 59.0593C26.6349 57.9424 21.1507 60.5046 22.0361 60.3492C23.7581 60.0469 26.8408 59.0593 26.8408 59.0593Z" fill="#F7FFFF"/>
</g>
<path d="M64.3814 57.7195C64.3823 57.6575 64.3793 57.5954 64.3726 57.5338C64.3719 57.5263 64.3717 57.5189 64.3706 57.5107C64.3449 57.318 64.3 57.1283 64.2365 56.9447L64.2347 56.9387C63.5945 55.4596 62.7565 54.0758 61.7439 52.826C61.7355 52.8143 61.727 52.8025 61.7185 52.7914C61.5316 52.5472 61.3768 52.3512 61.274 52.2234L61.2718 52.2209C61.1861 52.1136 61.1375 52.0543 61.1375 52.0543L60.8687 52.0544L60.7907 52.0538L59.887 52.0535C58.6815 53.6793 57.596 56.6149 57.5828 57.7808C57.579 57.883 57.5896 57.9853 57.6143 58.0846C57.7659 58.4835 57.9474 58.8702 58.1571 59.2414C59.0994 61.0208 60.9395 64.0304 61.3355 63.9844C61.5842 63.9556 62.9138 61.7276 63.7317 59.8437C64.0626 59.1764 64.2821 58.4588 64.3814 57.7195Z" fill="url(#paint35_linear_4370_11646)"/>
<path style="mix-blend-mode:multiply" opacity="0.5" d="M64.3806 57.7195C64.3815 57.6575 64.3786 57.5954 64.3718 57.5338C64.3711 57.5263 64.371 57.5189 64.3699 57.5107C64.3442 57.318 64.2992 57.1283 64.2357 56.9447L64.234 56.9387C63.5938 55.4596 62.7557 54.0758 61.7432 52.826C61.7347 52.8143 61.7263 52.8025 61.7177 52.7914C61.5308 52.5472 61.3761 52.3512 61.2732 52.2234L61.271 52.2209C61.1854 52.1136 61.1368 52.0543 61.1368 52.0543L60.8679 52.0544L60.7899 52.0538L59.8862 52.0535C58.6807 53.6793 57.5952 56.6149 57.582 57.7808C57.7045 57.2457 57.9815 56.7592 58.3781 56.3828C58.7747 56.0064 59.2731 55.757 59.8103 55.666C60.173 55.6035 60.5425 55.5905 60.9087 55.6273L60.924 55.6285C60.9876 55.6349 61.0497 55.6421 61.1104 55.6501C61.1596 55.6562 61.2079 55.6634 61.2556 55.6709C61.6241 55.7281 61.9859 55.8235 62.335 55.9556C62.9262 56.3567 63.3743 56.9383 63.6134 57.6151C63.6648 58.4054 63.5409 59.1973 63.2508 59.9333C62.7787 61.3575 62.1352 62.718 61.3347 63.9844C61.5834 63.9556 62.9131 61.7276 63.7309 59.8437C64.0618 59.1764 64.2813 58.4588 64.3806 57.7195Z" fill="url(#paint36_linear_4370_11646)"/>
<path d="M60.2574 57.9445C59.6884 55.6807 60.7859 52.0542 60.7859 52.0542C60.7859 52.0542 60.6856 55.3894 61.1571 57.098C61.6286 58.8066 60.4337 58.6458 60.2574 57.9445Z" fill="url(#paint37_linear_4370_11646)"/>
<g style="mix-blend-mode:multiply" opacity="0.5">
<path d="M61.2997 57.7902C60.7027 55.7689 60.7896 52.0542 60.7896 52.0542L61.2997 57.7902Z" fill="#C10065"/>
</g>
<g style="mix-blend-mode:soft-light">
<path d="M58.3047 59.5257C59.1176 58.9363 60.965 63.5319 60.4043 62.9586C59.6454 61.852 58.9446 60.7062 58.3047 59.5257Z" fill="#F7FFFF"/>
</g>
<path style="mix-blend-mode:multiply" opacity="0.5" d="M64.3713 57.5337C64.3706 57.5262 64.3704 57.5189 64.3693 57.5107C64.3492 57.3169 64.3041 57.1266 64.2352 56.9446L64.2334 56.9386C63.5683 55.4727 62.7321 54.0921 61.7426 52.8259C61.7342 52.8142 61.7257 52.8024 61.7171 52.7913C61.4832 52.4785 61.317 52.2692 61.2727 52.2233L61.2705 52.2208C60.8104 51.7529 61.2165 52.5211 62.8694 55.5295C63.5942 56.8484 64.397 57.9921 64.3713 57.5337Z" fill="url(#paint38_linear_4370_11646)"/>
<path style="mix-blend-mode:multiply" opacity="0.5" d="M61.7403 52.826C61.7319 52.8143 61.7234 52.8025 61.7149 52.7914C61.481 52.4786 61.3147 52.2693 61.2704 52.2234C61.1818 53.3706 61.1759 54.5228 61.2527 55.671C61.4948 57.6691 61.7965 59.4294 62.2236 59.6767C62.5337 59.8591 62.8892 59.9481 63.2479 59.9333C63.4116 59.9287 63.5736 59.8985 63.7281 59.8437C64.059 59.1765 64.2785 58.4588 64.3778 57.7196C64.3787 57.6575 64.3757 57.5955 64.369 57.5338C64.3683 57.5263 64.3681 57.519 64.367 57.5107C64.347 57.317 64.3019 57.1267 64.2329 56.9447L64.2311 56.9387C63.5909 55.4596 62.7529 54.0758 61.7403 52.826Z" fill="url(#paint39_linear_4370_11646)"/>
<path d="M67.6787 46.7458C67.6086 46.7442 67.5386 46.7474 67.469 46.7555L67.4627 46.7563C67.2901 46.7786 67.1201 46.8173 66.9548 46.8718L66.9438 46.8753C65.6675 47.2843 63.8685 48.5646 62.8467 49.3426C62.8346 49.352 62.8231 49.3612 62.812 49.3696C62.5601 49.5617 62.3582 49.7215 62.2267 49.8267L62.2221 49.8312C62.1155 49.9162 62.0569 49.9647 62.0569 49.9647L62.0544 50.2731L62.0538 50.3133L62.0469 51.2211C63.6459 52.4434 66.5394 53.5545 67.6919 53.5759C67.7929 53.5805 67.8939 53.5706 67.992 53.5463C68.3875 53.3968 68.7712 53.2172 69.1396 53.009L69.1411 53.0079C69.5284 52.8033 69.9742 52.5556 70.4339 52.289C72.0705 51.3418 73.8831 50.16 73.8499 49.849C73.8104 49.4855 69.1777 46.7858 67.6787 46.7458Z" fill="url(#paint40_linear_4370_11646)"/>
<path style="mix-blend-mode:multiply" opacity="0.5" d="M67.6787 46.7458C67.6086 46.7442 67.5386 46.7474 67.469 46.7555L67.4627 46.7563C67.2901 46.7786 67.1201 46.8173 66.9548 46.8718L66.9438 46.8753C65.6675 47.2843 63.8685 48.5646 62.8467 49.3426C62.8346 49.352 62.8231 49.3612 62.812 49.3696C62.5601 49.5617 62.3582 49.7215 62.2267 49.8267L62.2221 49.8312C62.1155 49.9162 62.0569 49.9647 62.0569 49.9647L62.0544 50.2731L62.0538 50.3133L62.0469 51.2211C63.6459 52.4434 66.5394 53.5545 67.6919 53.5759C67.1638 53.4492 66.6848 53.1675 66.3155 52.7664C65.9461 52.3653 65.7031 51.8628 65.617 51.3224C65.5707 51.0462 65.5543 50.7657 65.5678 50.4859C65.5711 50.3952 65.5779 50.3064 65.5865 50.2195L65.5877 50.204C65.594 50.1402 65.6019 50.0776 65.6096 50.0164C65.666 49.5965 65.7704 49.1846 65.9207 48.7889C66.3216 48.1977 66.8998 47.7515 67.5706 47.5158C68.3444 47.3387 70.903 47.961 73.8499 49.849C73.8104 49.4855 69.1777 46.7858 67.6787 46.7458Z" fill="url(#paint41_linear_4370_11646)"/>
<path d="M68.3917 50.4895C66.1911 52.4807 62.0547 50.3133 62.0547 50.3133C62.0547 50.3133 65.3505 50.4374 67.0425 49.9757C68.7345 49.5141 68.6557 50.2506 68.3917 50.4895Z" fill="url(#paint42_linear_4370_11646)"/>
<g style="mix-blend-mode:soft-light">
<path d="M67.7276 49.8402C65.7257 50.4266 62.0547 50.3132 62.0547 50.3132L67.7276 49.8402Z" fill="#F7FFFF"/>
</g>
<g style="mix-blend-mode:soft-light">
<path d="M72.8306 50.7724C72.4381 50.4172 70.637 51.0962 69.6366 51.8334C69.1278 52.2072 68.8259 52.5972 69.0205 52.8734L69.1407 53.0087L69.1422 53.0076L70.435 52.2887L72.8306 50.7724Z" fill="#F7FFFF"/>
</g>
<path style="mix-blend-mode:multiply" opacity="0.5" d="M65.5057 48.2479C62.5205 49.8874 61.7583 50.2901 62.224 49.8308C62.4139 49.6435 66.1092 46.8228 67.497 46.7533C67.9505 46.7306 66.8143 47.5292 65.5057 48.2479Z" fill="url(#paint43_linear_4370_11646)"/>
<g style="mix-blend-mode:multiply" opacity="0.5">
<path d="M70.4339 52.2888C70.4122 52.2811 70.3903 52.2724 70.3683 52.2638C70.1054 52.1554 69.8587 52.0106 69.6355 51.8335C69.1586 51.4481 68.7394 50.9953 68.3909 50.4891C67.6786 50.8293 66.8887 50.9703 66.1038 50.8974C64.8189 50.8551 63.5432 50.6613 62.303 50.3199L62.3011 50.3198L62.2903 50.3179L62.1933 50.3017L62.1925 50.3014C62.1455 50.2934 62.0998 50.2833 62.0544 50.2729L62.0538 50.3131L62.0469 51.2209C63.6459 52.4432 66.5394 53.5543 67.6919 53.5757C67.7929 53.5803 67.8939 53.5704 67.992 53.5461C68.3875 53.3966 68.7712 53.217 69.1396 53.0088L69.1411 53.0077C69.5284 52.8031 69.9742 52.5554 70.4339 52.2888Z" fill="#C10065"/>
</g>
<path d="M69.1073 52.9736C67.8258 51.5704 62.0979 50.9133 62.0979 50.9133L61.0801 51.8934C61.3556 54.1612 62.7386 57.3991 63.6279 58.3574C63.7038 58.4435 63.7914 58.5183 63.8882 58.5794C64.7379 59.0742 71.0945 60.9094 71.4676 60.4564C71.7292 60.138 70.2544 54.2295 69.1073 52.9736Z" fill="url(#paint44_linear_4370_11646)"/>
<path style="mix-blend-mode:multiply" opacity="0.5" d="M69.1073 52.9736C67.8258 51.5704 62.0979 50.9133 62.0979 50.9133L61.0801 51.8934C61.3556 54.1612 62.7386 57.3991 63.6279 58.3574C61.8667 54.8292 66.0829 53.1446 66.0829 53.1446C66.0829 53.1446 66.9816 52.8792 68.273 53.7677C69.0137 54.2771 70.6673 56.5636 71.4676 60.4564C71.7292 60.138 70.2544 54.2295 69.1073 52.9736Z" fill="url(#paint45_linear_4370_11646)"/>
<path d="M66.6745 56.2027C63.7181 55.3881 61.8164 51.1849 61.8164 51.1849C61.8164 51.1849 64.3093 53.9749 66.0114 54.994C67.7135 56.0132 67.0609 56.3091 66.6745 56.2027Z" fill="url(#paint46_linear_4370_11646)"/>
<g style="mix-blend-mode:soft-light">
<path d="M66.6592 55.4472C64.613 54.2731 61.8164 51.1849 61.8164 51.1849L66.6592 55.4472Z" fill="#F7FFFF"/>
</g>
<g style="mix-blend-mode:soft-light">
<path d="M65.123 59.0592C65.3289 57.9423 70.8131 60.5045 69.9277 60.349C68.2057 60.0468 65.123 59.0592 65.123 59.0592Z" fill="#F7FFFF"/>
</g>
<path d="M72.995 45.6086C73.2303 45.0431 69.96 38.9094 68.6088 36.4175C68.6652 35.5017 68.6652 34.5832 68.6088 33.6674C69.96 31.1755 73.0121 25.1091 72.995 24.4763C73.0182 24.09 73.0182 23.7028 72.995 23.3165C72.7644 22.7622 65.8377 20.7909 63.0795 20.0254C62.2931 19.1151 61.4368 18.2684 60.5187 17.4935C59.8267 14.9477 57.7452 7.44763 57.1751 7.20654C56.4901 6.91706 47.5735 11.8948 47.0487 12.1884C46.6877 12.1711 46.3244 12.1625 45.9591 12.1624C45.594 12.1624 45.231 12.171 44.8701 12.1883C44.345 11.8947 35.4286 6.91706 34.7438 7.20654C34.1737 7.44763 32.0922 14.9475 31.4002 17.4933C30.482 18.2684 29.6257 19.115 28.8392 20.0255C26.081 20.791 19.1543 22.7622 18.9238 23.3165C18.9004 23.7028 18.9004 24.09 18.9238 24.4763C18.9067 25.3006 21.9588 31.1755 23.3101 33.6674C23.2254 34.5821 23.2254 35.5028 23.3101 36.4175C21.9588 38.9094 18.6886 45.0431 18.9238 45.6086C18.9461 45.6624 18.8759 46.6532 18.9238 46.7683C19.1543 47.3226 26.081 49.2939 28.8392 50.0594C29.6257 50.9698 30.482 51.8165 31.4002 52.5915C32.0922 55.1374 34.1737 62.6373 34.7438 62.8783C35.4286 63.1678 44.345 58.1902 44.8701 57.8965C45.2309 57.9137 45.5939 57.9224 45.9591 57.9225C46.3244 57.9225 46.6876 57.9138 47.0487 57.8965C47.5735 58.1901 56.4901 63.1678 57.1751 62.8783C57.7452 62.6373 59.8267 55.1372 60.5187 52.5914C61.4368 51.8164 62.2931 50.9698 63.0795 50.0594C65.8377 49.2939 72.7644 47.3226 72.995 46.7683C73.0429 46.6532 72.9726 45.6624 72.995 45.6086ZM63.0654 35.0425C63.0665 38.4535 62.0641 41.7882 60.1851 44.6249C58.3061 47.4616 55.6349 49.6728 52.5092 50.9789C49.3836 52.285 45.944 52.6272 42.6254 51.9624C39.3069 51.2976 36.2584 49.6556 33.8655 47.244C31.4727 44.8324 29.8429 41.7596 29.1824 38.4142C28.5219 35.0688 28.8603 31.601 30.1549 28.4495C31.4494 25.298 33.6419 22.6043 36.455 20.709C39.2682 18.8138 42.5756 17.8022 45.9591 17.8021C50.4951 17.802 54.8454 19.6181 58.0533 22.8512C61.2613 26.0843 63.0641 30.4695 63.0654 35.0425Z" fill="url(#paint47_linear_4370_11646)"/>
<path d="M42.0432 57.5964C42.124 57.6109 42.2048 57.6248 42.2863 57.6381C41.6222 58.1142 40.9211 58.5356 40.1899 58.8982L40.1792 58.9039C39.7807 59.1029 39.3879 59.2804 39.0101 59.4383C38.9988 59.4427 38.9875 59.4471 38.9756 59.4521C37.8939 59.9055 36.7731 60.2573 35.6274 60.5032L35.6242 60.5038L35.6211 60.4981C34.8046 58.8746 34.1724 57.1634 33.7365 55.397C33.7347 55.3914 33.7333 55.3857 33.7321 55.3799L33.719 55.3243C33.6118 54.8935 33.5253 54.5007 33.457 54.157C33.5166 54.1969 33.5774 54.2366 33.6375 54.2758C33.7359 54.3403 33.8349 54.4038 33.9345 54.4666C34.0172 54.5184 34.0999 54.57 34.1826 54.6213C36.5209 56.0544 39.0982 57.0469 41.7888 57.5503L42.0432 57.5964Z" fill="url(#paint48_linear_4370_11646)"/>
<path d="M41.9369 57.5785C40.0885 58.8342 38.0022 59.6903 35.8094 60.0931C35.8094 60.0931 34.7255 58.3794 33.9316 54.4664C34.0143 54.5182 34.097 54.5698 34.1798 54.6212C36.5181 56.0543 39.0954 57.0467 41.786 57.5501L41.9369 57.5785Z" fill="url(#paint49_linear_4370_11646)"/>
<path style="mix-blend-mode:multiply" opacity="0.5" d="M42.0409 57.5964C41.474 58.0996 40.8522 58.5363 40.1876 58.8982L40.177 58.9038C39.7969 59.1027 39.4067 59.2811 39.0078 59.4382C38.9966 59.4426 38.9853 59.4471 38.9734 59.4521C37.8815 59.8765 36.763 60.2277 35.6251 60.5032L35.622 60.5038L35.6189 60.4981C34.7867 58.8816 34.1537 57.1685 33.7343 55.397C33.7325 55.3914 33.731 55.3857 33.7299 55.3799L33.7167 55.3243C33.6513 54.9789 33.624 54.6272 33.6353 54.2758C33.7336 54.3402 33.8326 54.4038 33.9322 54.4665C34.0149 54.5183 34.0976 54.5699 34.1804 54.6213C34.6595 55.9766 35.3468 57.2476 36.2172 58.3878C38.1144 58.6057 40.035 58.3168 41.7866 57.5502L42.0409 57.5964Z" fill="url(#paint50_linear_4370_11646)"/>
<path d="M58.4614 54.1571C58.3931 54.5007 58.3067 54.8936 58.1995 55.3244C58.1951 55.3433 58.1907 55.3617 58.1863 55.38L58.182 55.3971C57.7458 57.1634 57.1136 58.8746 56.2973 60.4982L56.2942 60.5039L56.291 60.5033C55.1438 60.257 54.0215 59.9045 52.9385 59.4503L52.9084 59.4383C52.5262 59.2792 52.129 59.0991 51.7261 58.897C50.9959 58.5344 50.2959 58.1132 49.6328 57.6375C49.7142 57.6249 49.7951 57.611 49.8753 57.5964L50.1297 57.5503C52.8204 57.047 55.3977 56.0543 57.7358 54.6207C57.8186 54.5702 57.9011 54.5189 57.9834 54.4666C58.083 54.4041 58.1826 54.3403 58.281 54.2758C58.3417 54.2367 58.4019 54.1969 58.4614 54.1571Z" fill="url(#paint51_linear_4370_11646)"/>
<path d="M57.9838 54.4664C57.1906 58.3795 56.1067 60.0932 56.1067 60.0932C53.9139 59.6904 51.8276 58.8342 49.9791 57.5786H49.9785L50.1302 57.5501C52.8208 57.0468 55.3982 56.0541 57.7363 54.6206C57.819 54.5701 57.9016 54.5187 57.9838 54.4664Z" fill="url(#paint52_linear_4370_11646)"/>
<path style="mix-blend-mode:multiply" opacity="0.5" d="M58.2012 55.3244C58.1968 55.3434 58.1924 55.3617 58.188 55.38L58.1837 55.3971C57.7642 57.1686 57.1313 58.8817 56.299 60.4982L56.2959 60.5039L56.2927 60.5033C55.1533 60.2276 54.0333 59.8758 52.9401 59.4504L52.91 59.4384C52.5113 59.281 52.1211 59.1026 51.741 58.904L51.7277 58.897C51.0639 58.5357 50.443 58.0993 49.877 57.5965L50.1314 57.5504C51.8829 58.3169 53.8035 58.6058 55.7007 58.3879C56.5714 57.2477 57.2587 55.9764 57.7375 54.6208C57.8203 54.5703 57.9028 54.5189 57.9851 54.4666C58.0846 54.4041 58.1843 54.3403 58.2826 54.2759C58.2939 54.6274 58.2665 54.979 58.2012 55.3244Z" fill="url(#paint53_linear_4370_11646)"/>
<path d="M42.0432 12.5141C42.124 12.4996 42.2048 12.4857 42.2863 12.4724C41.6222 11.9963 40.9211 11.5749 40.1899 11.2122L40.1792 11.2066C39.7807 11.0076 39.3879 10.8301 39.0101 10.6722C38.9988 10.6678 38.9875 10.6634 38.9756 10.6583C37.8939 10.205 36.7731 9.85312 35.6274 9.60723L35.6242 9.60663L35.6211 9.61233C34.8046 11.2358 34.1724 12.947 33.7365 14.7135C33.7347 14.7191 33.7333 14.7248 33.7321 14.7306L33.719 14.7861C33.6118 15.2169 33.5253 15.6098 33.457 15.9534C33.5166 15.9136 33.5774 15.8738 33.6375 15.8346C33.7359 15.7702 33.8349 15.7067 33.9345 15.6439C34.0172 15.5921 34.0999 15.5405 34.1826 15.4891C36.5209 14.056 39.0982 13.0636 41.7888 12.5602L42.0432 12.5141Z" fill="url(#paint54_linear_4370_11646)"/>
<path d="M41.9369 12.532C40.0885 11.2763 38.0022 10.4202 35.8094 10.0174C35.8094 10.0174 34.7255 11.7311 33.9316 15.6441C34.0143 15.5923 34.097 15.5407 34.1798 15.4893C36.5181 14.0562 39.0954 13.0638 41.786 12.5604L41.9369 12.532Z" fill="url(#paint55_linear_4370_11646)"/>
<path style="mix-blend-mode:multiply" opacity="0.5" d="M42.0409 12.5142C41.474 12.011 40.8522 11.5742 40.1876 11.2124L40.177 11.2067C39.7969 11.0078 39.4067 10.8294 39.0078 10.6723C38.9966 10.6679 38.9853 10.6635 38.9734 10.6584C37.8815 10.234 36.763 9.88291 35.6251 9.60735L35.622 9.60675L35.6189 9.61245C34.7867 11.229 34.1537 12.9421 33.7343 14.7136C33.7325 14.7192 33.731 14.7249 33.7299 14.7307L33.7167 14.7862C33.6513 15.1316 33.624 15.4833 33.6353 15.8348C33.7336 15.7703 33.8326 15.7068 33.9322 15.644C34.0149 15.5922 34.0976 15.5406 34.1804 15.4893C34.6595 14.134 35.3468 12.863 36.2172 11.7228C38.1144 11.5049 40.0351 11.7937 41.7866 12.5603L42.0409 12.5142Z" fill="url(#paint56_linear_4370_11646)"/>
<g style="mix-blend-mode:soft-light">
<path d="M39.6522 9.36861C37.3891 8.53357 34.9932 7.77247 34.9932 7.77247C34.2589 8.91384 32.6794 13.0038 32.6055 13.1951C33.435 10.3515 34.3836 7.35747 34.7407 7.20652C35.0728 7.06625 37.3415 8.16468 39.6497 9.36675L39.6522 9.36861Z" fill="#F7FFFF"/>
</g>
<path d="M49.8817 12.5141C49.8009 12.4996 49.7201 12.4857 49.6387 12.4724C50.3028 11.9963 51.0038 11.5749 51.735 11.2122L51.7457 11.2066C52.1442 11.0076 52.537 10.8301 52.9148 10.6722C52.9261 10.6678 52.9373 10.6634 52.9492 10.6583C54.0309 10.205 55.1517 9.85312 56.2975 9.60723L56.3006 9.60663L56.3038 9.61233C57.1203 11.2358 57.7525 12.947 58.1884 14.7135C58.1901 14.7191 58.1916 14.7248 58.1928 14.7306C58.1972 14.7489 58.2016 14.7671 58.2059 14.7861C58.3131 15.2169 58.3996 15.6098 58.4678 15.9534C58.4083 15.9136 58.3476 15.8738 58.2874 15.8346C58.189 15.7702 58.09 15.7067 57.9904 15.6439C57.9077 15.5921 57.825 15.5405 57.7423 15.4891C55.404 14.056 52.8266 13.0636 50.1361 12.5602L49.8817 12.5141Z" fill="url(#paint57_linear_4370_11646)"/>
<path d="M49.9844 12.532C51.8328 11.2764 53.9191 10.4202 56.1119 10.0175C56.1119 10.0175 57.1958 11.7311 57.9897 15.6442C57.907 15.5924 57.8243 15.5408 57.7415 15.4894C55.4032 14.0563 52.8259 13.0638 50.1353 12.5605L49.9844 12.532Z" fill="url(#paint58_linear_4370_11646)"/>
<path style="mix-blend-mode:multiply" opacity="0.5" d="M49.8789 12.5141C50.4458 12.0109 51.0676 11.5741 51.7322 11.2122L51.7428 11.2066C52.1229 11.0077 52.5131 10.8293 52.912 10.6722C52.9233 10.6678 52.9345 10.6634 52.9464 10.6583C54.0383 10.2339 55.1568 9.88279 56.2947 9.60723L56.2978 9.60663L56.301 9.61233C57.1332 11.2289 57.7661 12.942 58.1856 14.7135C58.1873 14.7191 58.1888 14.7248 58.1899 14.7306C58.1943 14.7489 58.1988 14.7671 58.2031 14.7861C58.2685 15.1315 58.2958 15.4832 58.2845 15.8346C58.1862 15.7702 58.0872 15.7067 57.9876 15.6439C57.9049 15.5921 57.8222 15.5405 57.7395 15.4891C57.2604 14.1338 56.5731 12.8628 55.7026 11.7227C53.8054 11.5048 51.8848 11.7936 50.1333 12.5602L49.8789 12.5141Z" fill="url(#paint59_linear_4370_11646)"/>
<g style="mix-blend-mode:soft-light">
<path d="M52.2656 9.36861C54.5287 8.53363 56.9245 7.77247 56.9245 7.77247C57.6589 8.91384 59.2384 13.0038 59.3123 13.1951C58.4828 10.3515 57.5342 7.35747 57.177 7.20652C56.845 7.06625 54.5762 8.16468 52.2681 9.36675L52.2656 9.36861Z" fill="#F7FFFF"/>
</g>
<path d="M64.4476 21.8037C64.4006 21.7359 64.3529 21.6684 64.3047 21.6011C65.1084 21.7368 65.9 21.9375 66.6718 22.2013L66.6833 22.2049C67.1048 22.3477 67.5073 22.5017 67.8854 22.6588C67.8965 22.6637 67.9075 22.6686 67.9196 22.6735C69.003 23.1225 70.043 23.6713 71.0265 24.3128L71.0291 24.3146L71.0274 24.3209C70.4684 26.0517 69.7174 27.7135 68.7888 29.2746C68.7861 29.2798 68.7832 29.2848 68.7799 29.2897L68.7503 29.3385C68.5245 29.7198 68.3105 30.0595 68.1182 30.3515C68.1039 30.2809 68.0887 30.2095 68.0736 30.1389C68.049 30.0232 68.0235 29.9077 67.9969 29.7924C67.9746 29.6969 67.9523 29.6013 67.9296 29.5062C67.2777 26.8268 66.148 24.2893 64.5955 22.0175L64.4476 21.8037Z" fill="url(#paint60_linear_4370_11646)"/>
<path d="M64.5078 21.8895C66.6961 22.3163 68.7731 23.1954 70.6079 24.4712C70.6079 24.4712 70.1751 26.4563 67.9963 29.7921C67.974 29.6966 67.9517 29.601 67.929 29.5059C67.2771 26.8265 66.1473 24.289 64.5948 22.0171L64.5078 21.8895Z" fill="url(#paint61_linear_4370_11646)"/>
<path style="mix-blend-mode:multiply" opacity="0.5" d="M64.4473 21.8036C65.2012 21.8509 65.9473 21.9843 66.6714 22.2013L66.6829 22.2048C67.0913 22.3345 67.4926 22.4861 67.885 22.6587C67.8961 22.6636 67.9072 22.6685 67.9192 22.6734C68.9895 23.1502 70.0274 23.6979 71.0261 24.3128L71.0287 24.3146L71.027 24.3208C70.484 26.0579 69.7322 27.7215 68.7884 29.2745C68.7857 29.2797 68.7828 29.2848 68.7796 29.2897L68.75 29.3384C68.5543 29.6295 68.3273 29.898 68.0732 30.1389C68.0487 30.0232 68.0231 29.9077 67.9965 29.7923C67.9743 29.6968 67.952 29.6012 67.9292 29.5062C68.5393 28.2054 68.9429 26.8162 69.1252 25.3891C67.9345 23.8843 66.3722 22.7215 64.5951 22.0174L64.4473 21.8036Z" fill="url(#paint62_linear_4370_11646)"/>
<g style="mix-blend-mode:soft-light">
<path d="M68.2539 21.5266C70.2892 22.4539 72.3648 23.517 72.3648 23.517C71.827 25.2695 71.1897 26.9893 70.4558 28.6679C71.7366 26.2431 73.0353 23.641 72.896 23.3075C72.7665 22.9975 70.5581 22.2409 68.2568 21.5269L68.2539 21.5266Z" fill="#F7FFFF"/>
</g>
<path d="M64.4476 48.2615C64.4006 48.3293 64.3529 48.3968 64.3047 48.4641C65.1084 48.3284 65.9 48.1277 66.6718 47.8639L66.6833 47.8603C67.1048 47.7176 67.5073 47.5635 67.8854 47.4064C67.8965 47.4015 67.9075 47.3966 67.9196 47.3917C69.003 46.9427 70.043 46.3939 71.0265 45.7524L71.0291 45.7506L71.0274 45.7443C70.4684 44.0135 69.7174 42.3517 68.7888 40.7906C68.7861 40.7854 68.7832 40.7804 68.7799 40.7755L68.7503 40.7267C68.5245 40.3454 68.3105 40.0057 68.1182 39.7138C68.1039 39.7843 68.0887 39.8558 68.0736 39.9263C68.049 40.042 68.0235 40.1575 67.9969 40.2728C67.9746 40.3684 67.9522 40.4638 67.9296 40.559C67.2777 43.2384 66.148 45.7759 64.5955 48.0478L64.4476 48.2615Z" fill="url(#paint63_linear_4370_11646)"/>
<path d="M64.5078 48.1754C66.6961 47.7486 68.7731 46.8696 70.6079 45.5937C70.6079 45.5937 70.1751 43.6087 67.9963 40.2728C67.974 40.3684 67.9516 40.4638 67.929 40.5591C67.2771 43.2384 66.1473 45.776 64.5948 48.0478L64.5078 48.1754Z" fill="url(#paint64_linear_4370_11646)"/>
<path style="mix-blend-mode:multiply" opacity="0.5" d="M64.4473 48.2617C65.2012 48.2145 65.9473 48.0811 66.6714 47.8642L66.6829 47.8606C67.0913 47.7309 67.4926 47.5793 67.885 47.4067C67.8961 47.4017 67.9072 47.3969 67.9192 47.392C68.9895 46.9151 70.0274 46.3675 71.0261 45.7526L71.0287 45.7508L71.027 45.7446C70.484 44.0075 69.7322 42.3439 68.7884 40.7909C68.7857 40.7857 68.7828 40.7806 68.7796 40.7757L68.75 40.7269C68.5543 40.4358 68.3273 40.1674 68.0732 39.9266C68.0487 40.0422 68.0231 40.1577 67.9965 40.273C67.9743 40.3686 67.9518 40.464 67.9292 40.5593C68.5393 41.86 68.9429 43.2492 69.1252 44.6762C67.9345 46.1811 66.3722 47.3439 64.5951 48.048L64.4473 48.2617Z" fill="url(#paint65_linear_4370_11646)"/>
<g style="mix-blend-mode:soft-light">
<path d="M68.2539 48.5388C70.2892 47.6114 72.3648 46.5483 72.3648 46.5483C71.827 44.7958 71.1897 43.076 70.4558 41.3974C71.7366 43.8222 73.0353 46.4242 72.896 46.7577C72.7665 47.0677 70.5581 47.8244 68.2568 48.5383L68.2539 48.5388Z" fill="#F7FFFF"/>
</g>
<path d="M27.3687 21.8037C27.4157 21.7359 27.4633 21.6684 27.5115 21.6011C26.7078 21.7368 25.9163 21.9375 25.1445 22.2013L25.133 22.2049C24.7115 22.3477 24.309 22.5017 23.9309 22.6588C23.9198 22.6637 23.9087 22.6686 23.8968 22.6735C22.8133 23.1225 21.7733 23.6713 20.7898 24.3128L20.7871 24.3146L20.7889 24.3209C21.3479 26.0517 22.0988 27.7135 23.0275 29.2746L23.0363 29.2897L23.066 29.3385C23.2918 29.7198 23.5058 30.0595 23.6981 30.3515C23.7124 30.2809 23.7276 30.2095 23.7427 30.1389C23.7672 30.0232 23.7928 29.9077 23.8194 29.7924C23.8417 29.6969 23.864 29.6013 23.8867 29.5062C24.5385 26.8268 25.6683 24.2893 27.2208 22.0175L27.3687 21.8037Z" fill="url(#paint66_linear_4370_11646)"/>
<path d="M27.2992 21.8895C25.1109 22.3163 23.034 23.1954 21.1992 24.4712C21.1992 24.4712 21.632 26.4563 23.8108 29.7921C23.8331 29.6966 23.8554 29.601 23.8781 29.5059C24.53 26.8265 25.6597 24.289 27.2123 22.0171L27.2992 21.8895Z" fill="url(#paint67_linear_4370_11646)"/>
<path style="mix-blend-mode:multiply" opacity="0.5" d="M27.3687 21.8036C26.6147 21.8509 25.8686 21.9843 25.1445 22.2013L25.133 22.2048C24.7246 22.3345 24.3233 22.4861 23.9309 22.6587C23.9198 22.6636 23.9087 22.6685 23.8968 22.6734C22.8264 23.1502 21.7885 23.6979 20.7898 24.3128L20.7871 24.3146L20.7889 24.3208C21.3319 26.0579 22.0837 27.7215 23.0275 29.2745L23.0363 29.2897L23.066 29.3384C23.2616 29.6295 23.4886 29.898 23.7427 30.1389C23.7672 30.0232 23.7928 29.9077 23.8194 29.7923C23.8417 29.6968 23.864 29.6012 23.8867 29.5062C23.2766 28.2054 22.873 26.8162 22.6907 25.3891C23.8814 23.8843 25.4437 22.7215 27.2208 22.0174L27.3687 21.8036Z" fill="url(#paint68_linear_4370_11646)"/>
<g style="mix-blend-mode:soft-light">
<path d="M23.5587 21.5266C21.5234 22.4539 19.4478 23.517 19.4478 23.517C19.9855 25.2695 20.6229 26.9893 21.3567 28.6679C20.076 26.2431 18.7773 23.641 18.9165 23.3075C19.0461 22.9975 21.2545 22.2409 23.5557 21.5269L23.5587 21.5266Z" fill="#F7FFFF"/>
</g>
<path d="M27.3687 48.2615C27.4157 48.3293 27.4633 48.3968 27.5115 48.4641C26.7078 48.3284 25.9163 48.1277 25.1445 47.8639L25.133 47.8603C24.7115 47.7176 24.309 47.5635 23.9309 47.4064C23.9198 47.4015 23.9087 47.3966 23.8968 47.3917C22.8133 46.9427 21.7733 46.3939 20.7898 45.7524L20.7871 45.7506L20.7889 45.7443C21.3479 44.0135 22.0988 42.3517 23.0275 40.7906L23.0363 40.7755L23.066 40.7267C23.2918 40.3454 23.5058 40.0057 23.6981 39.7138C23.7124 39.7843 23.7276 39.8558 23.7427 39.9263C23.7672 40.042 23.7928 40.1575 23.8194 40.2728C23.8417 40.3684 23.8641 40.4638 23.8867 40.559C24.5386 43.2384 25.6683 45.7759 27.2208 48.0478L27.3687 48.2615Z" fill="url(#paint69_linear_4370_11646)"/>
<path d="M27.2992 48.1755C25.1109 47.7486 23.034 46.8696 21.1992 45.5938C21.1992 45.5938 21.632 43.6087 23.8108 40.2729C23.8331 40.3684 23.8555 40.4639 23.8781 40.5591C24.53 43.2385 25.6597 45.776 27.2123 48.0478L27.2992 48.1755Z" fill="url(#paint70_linear_4370_11646)"/>
<path style="mix-blend-mode:multiply" opacity="0.5" d="M27.3687 48.2617C26.6148 48.2145 25.8686 48.0811 25.1445 47.8642L25.133 47.8606C24.7246 47.7309 24.3233 47.5793 23.9309 47.4067C23.9198 47.4017 23.9087 47.3969 23.8968 47.392C22.8264 46.9151 21.7885 46.3675 20.7898 45.7526L20.7871 45.7508L20.7889 45.7446C21.3319 44.0075 22.0837 42.3439 23.0275 40.7909L23.0363 40.7757L23.066 40.7269C23.2616 40.4358 23.4886 40.1674 23.7427 39.9266C23.7672 40.0422 23.7928 40.1577 23.8194 40.273C23.8417 40.3686 23.8641 40.464 23.8867 40.5593C23.2766 41.86 22.873 43.2492 22.6907 44.6762C23.8814 46.1811 25.4437 47.3439 27.2208 48.048L27.3687 48.2617Z" fill="url(#paint71_linear_4370_11646)"/>
<g style="mix-blend-mode:soft-light">
<path d="M23.5587 48.5388C21.5234 47.6114 19.4478 46.5483 19.4478 46.5483C19.9855 44.7958 20.6229 43.076 21.3567 41.3974C20.076 43.8222 18.7773 46.4242 18.9165 46.7577C19.0461 47.0677 21.2545 47.8244 23.5557 48.5383L23.5587 48.5388Z" fill="#F7FFFF"/>
</g>
<g style="mix-blend-mode:multiply" opacity="0.5">
<path d="M67.06 43.4616C65.4299 47.6076 62.6338 51.183 59.0152 53.7483C55.3966 56.3137 51.1133 57.7571 46.6919 57.9012C42.2705 58.0452 37.9037 56.8837 34.1283 54.5593C30.353 52.2349 27.3336 48.8489 25.4414 44.8177C33.8051 52.5883 50.81 59.844 67.06 43.4616Z" fill="#C10065"/>
</g>
<g style="mix-blend-mode:multiply" opacity="0.5">
<path d="M65.7148 49.3132C64.691 49.6094 63.7581 49.871 63.0783 50.0598C62.2918 50.9702 61.4356 51.8169 60.5176 52.5921C60.3197 53.3204 60.0077 54.4548 59.6499 55.7086C56.9847 57.636 54.0054 59.0784 50.847 59.9703C48.9279 58.9465 47.2657 58.0186 47.0477 57.8967C46.6868 57.9143 46.3236 57.9232 45.9581 57.9232C45.5928 57.9232 45.2299 57.9145 44.8692 57.8973C44.648 58.0204 42.9395 58.9749 40.984 60.0165C37.8604 59.2083 34.9187 57.806 32.3171 55.8849C31.9387 54.5615 31.6066 53.3544 31.3992 52.5921C30.4811 51.817 29.6249 50.9703 28.8386 50.0598C28.2703 49.9019 27.5247 49.6934 26.6976 49.456C25.9629 48.015 25.535 46.4352 25.4414 44.8177C31.4662 54.8622 51.6822 66.8212 67.06 43.4616C67.2875 45.5098 66.8128 47.5747 65.7148 49.3132Z" fill="#C10065"/>
</g>
<g style="mix-blend-mode:soft-light">
<path d="M45.9603 12.1626C41.0783 12.1629 36.3264 13.75 32.4099 16.6884C28.4934 19.6268 25.6209 23.7598 24.2188 28.4743C27.9316 20.1965 36.3636 16.2133 45.9609 16.2133C56.4279 16.2133 65.1381 21.288 68.2589 30.7848C67.2748 25.5487 64.5087 20.823 60.4378 17.4232C56.3669 14.0235 51.2465 12.1629 45.9603 12.1626Z" fill="#F7FFFF"/>
</g>
<path d="M45.9573 16.2133C42.2643 16.2133 38.6543 17.3173 35.5836 19.3858C32.513 21.4542 30.1198 24.3942 28.7065 27.8339C27.2933 31.2736 26.9235 35.0586 27.6439 38.7101C28.3644 42.3617 30.1428 45.7159 32.7541 48.3485C35.3655 50.9812 38.6925 52.774 42.3146 53.5004C45.9366 54.2267 49.691 53.8539 53.1029 52.4291C56.5148 51.0044 59.431 48.5916 61.4827 45.4959C63.5344 42.4003 64.6295 38.7608 64.6295 35.0377C64.6294 30.0452 62.6621 25.2572 59.1604 21.7269C55.6588 18.1967 50.9095 16.2134 45.9573 16.2133ZM45.9567 52.2829C42.5734 52.2828 39.2662 51.2713 36.4531 49.3763C33.6401 47.4813 31.4476 44.7879 30.153 41.6366C28.8583 38.4854 28.5196 35.0179 29.1797 31.6726C29.8398 28.3273 31.4691 25.2545 33.8615 22.8427C36.2538 20.4309 39.3019 18.7885 42.6201 18.1231C45.9384 17.4578 49.3779 17.7993 52.5036 19.1047C55.6293 20.41 58.3008 22.6205 60.1804 25.4565C62.06 28.2926 63.0632 31.6268 63.0632 35.0377C63.0632 37.3024 62.6207 39.5449 61.761 41.6373C60.9013 43.7296 59.6412 45.6307 58.0528 47.2321C56.4643 48.8335 54.5785 50.1038 52.503 50.9704C50.4276 51.837 48.2031 52.283 45.9567 52.2829Z" fill="url(#paint72_linear_4370_11646)"/>
<g style="mix-blend-mode:soft-light">
<path d="M30.9316 46.2098C30.9316 46.2098 35.9347 52.2828 45.9606 52.2828C55.9865 52.2828 60.9903 46.2098 60.9903 46.2098C59.3057 48.6558 57.0588 50.6542 54.4416 52.0344C51.8243 53.4146 48.9146 54.1354 45.9609 54.1354C43.0073 54.1354 40.0976 53.4146 37.4803 52.0344C34.8631 50.6542 32.6162 48.6558 30.9316 46.2098Z" fill="#F7FFFF"/>
</g>
<path d="M30.9316 46.2098C32.6675 48.5826 34.9318 50.5113 37.5423 51.8404C40.1528 53.1695 43.0364 53.862 45.9609 53.862C48.8855 53.862 51.7691 53.1695 54.3795 51.8404C56.99 50.5113 59.2544 48.5826 60.9903 46.2098C59.3057 48.6558 57.0588 50.6542 54.4416 52.0344C51.8243 53.4146 48.9146 54.1354 45.9609 54.1354C43.0073 54.1354 40.0976 53.4146 37.4803 52.0344C34.8631 50.6542 32.6162 48.6558 30.9316 46.2098Z" fill="url(#paint73_linear_4370_11646)"/>
<g style="mix-blend-mode:multiply" opacity="0.4">
<path d="M63.9356 29.9157C63.4963 29.6637 62.8209 29.2487 61.8291 28.5791L61.8285 28.5785C57.2837 25.0904 51.7296 23.201 46.0176 23.2C35.4982 23.2 29.8749 29.164 29.8749 29.164C29.2038 29.9127 28.4679 30.5994 27.6758 31.2162C28.5255 27.0895 30.7239 23.3695 33.9191 20.6516C37.1143 17.9337 41.1216 16.3751 45.2996 16.2253C49.4775 16.0754 53.5846 17.343 56.9633 19.8251C60.342 22.3072 62.7971 25.8603 63.9356 29.9157Z" fill="#D01BDC"/>
</g>
<path d="M45.9588 14.3523C45.2163 15.3172 51.1397 16.8953 51.8498 16.2133C52.5599 15.5314 51.8916 14.5207 50.555 14.3523C49.2183 14.1839 46.542 13.5943 45.9588 14.3523Z" fill="#F7FFFF"/>
<path d="M44.6355 54.0896C44.2043 53.2827 48.8725 52.4717 49.5281 53.0611C50.1835 53.6505 49.0145 53.8857 49.0145 53.8857L44.6355 54.0896Z" fill="#F7FFFF"/>
<path style="mix-blend-mode:color-dodge" opacity="0.8" d="M55.4042 16.8561C56.241 13.3005 54.0602 9.73426 50.5333 8.89068C47.0065 8.04711 43.469 10.2456 42.6323 13.8013C41.7955 17.3569 43.9763 20.9232 47.5032 21.7668C51.03 22.6103 54.5675 20.4118 55.4042 16.8561Z" fill="url(#paint74_radial_4370_11646)"/>
<path style="mix-blend-mode:color-dodge" opacity="0.8" d="M41.8665 56.8584C41.496 58.2731 39.4696 58.9606 37.3405 58.3939C35.2113 57.8271 33.7857 56.2208 34.1562 54.806C34.5268 53.3912 36.5531 52.7038 38.6822 53.2705C40.8114 53.8372 42.237 55.4436 41.8665 56.8584Z" fill="url(#paint75_radial_4370_11646)"/>
<path d="M72.9942 24.4765C73.011 25.1094 69.9592 31.1758 68.6077 33.6676L68.5156 32.1839C68.5156 32.1839 72.3582 26.1618 72.8989 23.3074L73.0142 23.5455V23.5461C73.0204 23.8758 72.9935 24.433 72.9942 24.4765Z" fill="#680A0A"/>
<path d="M72.9942 46.7686C72.9777 46.801 72.9541 46.8291 72.9252 46.8508C72.9158 46.8204 72.9077 46.7895 72.8989 46.7579C71.9779 43.3698 68.5156 37.8915 68.5156 37.8915L68.6077 36.4178C69.9592 38.9097 73.2297 45.0436 72.9942 45.609C72.9715 45.6626 73.0423 46.6537 72.9942 46.7686Z" fill="url(#paint76_linear_4370_11646)"/>
<path d="M23.3118 36.4178V38.1233C21.522 40.8165 20.048 43.7098 18.9191 46.7453C18.884 46.557 18.9467 45.6601 18.9254 45.609C18.6898 45.0436 21.9604 38.9097 23.3118 36.4178Z" fill="url(#paint77_linear_4370_11646)"/>
<path d="M23.31 31.87V33.6677C21.9586 31.1758 18.9067 25.3009 18.9236 24.4766C18.9018 24.0937 18.9005 23.7099 18.9199 23.327C19.9428 26.3836 21.4233 29.2646 23.31 31.87Z" fill="#680A0A"/>
<path d="M43.8612 57.8162L44.8705 57.8971C44.3455 58.1901 35.4292 63.1682 34.7444 62.8783C34.5783 62.8082 34.2851 62.1247 33.9355 61.128C33.9744 61.2088 34.6003 62.5049 34.9343 62.5049C35.2788 62.5049 43.8612 57.8162 43.8612 57.8162Z" fill="#680A0A"/>
<path d="M57.978 61.1345C57.6291 62.128 57.3365 62.8083 57.171 62.8784C56.4862 63.1683 47.5699 58.1903 47.0449 57.8966L48.3092 57.7911C48.3092 57.7911 54.3184 61.588 56.765 62.3472C57.384 62.5392 57.931 61.2475 57.978 61.1345Z" fill="#680A0A"/>
<defs>
<linearGradient id="paint0_linear_4370_11646" x1="46.2902" y1="17.9162" x2="46.2902" y2="52.4183" gradientUnits="userSpaceOnUse">
<stop stop-color="#E5552F"/>
<stop offset="0.13709" stop-color="#E75A34"/>
<stop offset="0.30331" stop-color="#ED6843"/>
<stop offset="0.48402" stop-color="#F77E5B"/>
<stop offset="0.4881" stop-color="#F77F5C"/>
<stop offset="1" stop-color="#F7A66C"/>
</linearGradient>
<linearGradient id="paint1_linear_4370_11646" x1="46.0137" y1="47.7493" x2="46.0137" y2="14.9497" gradientUnits="userSpaceOnUse">
<stop stop-color="#E5552F"/>
<stop offset="0.13709" stop-color="#E75A34"/>
<stop offset="0.30331" stop-color="#ED6843"/>
<stop offset="0.48402" stop-color="#F77E5B"/>
<stop offset="0.4881" stop-color="#F77F5C"/>
<stop offset="1" stop-color="#F7A66C"/>
</linearGradient>
<linearGradient id="paint2_linear_4370_11646" x1="27.5839" y1="11.9606" x2="34.3828" y2="11.9606" gradientUnits="userSpaceOnUse">
<stop stop-color="#E5552F"/>
<stop offset="0.13709" stop-color="#E75A34"/>
<stop offset="0.30331" stop-color="#ED6843"/>
<stop offset="0.48402" stop-color="#F77E5B"/>
<stop offset="0.4881" stop-color="#F77F5C"/>
<stop offset="1" stop-color="#F7A66C"/>
</linearGradient>
<linearGradient id="paint3_linear_4370_11646" x1="27.5839" y1="11.9606" x2="34.3827" y2="11.9606" gradientUnits="userSpaceOnUse">
<stop stop-color="#B01B03"/>
<stop offset="0.17839" stop-color="#B11E06"/>
<stop offset="0.31124" stop-color="#B4260F"/>
<stop offset="0.42931" stop-color="#B83520"/>
<stop offset="0.5389" stop-color="#BE4936"/>
<stop offset="0.64255" stop-color="#C76454"/>
<stop offset="0.74183" stop-color="#D18578"/>
<stop offset="0.83763" stop-color="#DDACA3"/>
<stop offset="0.92817" stop-color="#EBD7D3"/>
<stop offset="1" stop-color="#F7FFFF"/>
</linearGradient>
<linearGradient id="paint4_linear_4370_11646" x1="31.3205" y1="11.6451" x2="31.1198" y2="17.4032" gradientUnits="userSpaceOnUse">
<stop stop-color="#E84E1A"/>
<stop offset="0.50595" stop-color="#D74348"/>
<stop offset="1" stop-color="#C62C15"/>
</linearGradient>
<linearGradient id="paint5_linear_4370_11646" x1="27.5879" y1="15.1143" x2="30.8661" y2="15.1143" gradientUnits="userSpaceOnUse">
<stop stop-color="#B01B03"/>
<stop offset="0.17839" stop-color="#B11E06"/>
<stop offset="0.31124" stop-color="#B4260F"/>
<stop offset="0.42931" stop-color="#B83520"/>
<stop offset="0.5389" stop-color="#BE4936"/>
<stop offset="0.64255" stop-color="#C76454"/>
<stop offset="0.74183" stop-color="#D18578"/>
<stop offset="0.83763" stop-color="#DDACA3"/>
<stop offset="0.92817" stop-color="#EBD7D3"/>
<stop offset="1" stop-color="#F7FFFF"/>
</linearGradient>
<linearGradient id="paint6_linear_4370_11646" x1="18.1094" y1="19.8188" x2="29.9129" y2="19.8188" gradientUnits="userSpaceOnUse">
<stop stop-color="#E5552F"/>
<stop offset="0.13709" stop-color="#E75A34"/>
<stop offset="0.30331" stop-color="#ED6843"/>
<stop offset="0.48402" stop-color="#F77E5B"/>
<stop offset="0.4881" stop-color="#F77F5C"/>
<stop offset="1" stop-color="#F7A66C"/>
</linearGradient>
<linearGradient id="paint7_linear_4370_11646" x1="18.1094" y1="19.8191" x2="29.9125" y2="19.8191" gradientUnits="userSpaceOnUse">
<stop stop-color="#B01B03"/>
<stop offset="0.17839" stop-color="#B11E06"/>
<stop offset="0.31124" stop-color="#B4260F"/>
<stop offset="0.42931" stop-color="#B83520"/>
<stop offset="0.5389" stop-color="#BE4936"/>
<stop offset="0.64255" stop-color="#C76454"/>
<stop offset="0.74183" stop-color="#D18578"/>
<stop offset="0.83763" stop-color="#DDACA3"/>
<stop offset="0.92817" stop-color="#EBD7D3"/>
<stop offset="1" stop-color="#F7FFFF"/>
</linearGradient>
<linearGradient id="paint8_linear_4370_11646" x1="24.0803" y1="19.4593" x2="29.8545" y2="19.0835" gradientUnits="userSpaceOnUse">
<stop stop-color="#E84E1A"/>
<stop offset="0.50595" stop-color="#D74348"/>
<stop offset="1" stop-color="#C62C15"/>
</linearGradient>
<linearGradient id="paint9_linear_4370_11646" x1="24.3613" y1="21.5991" x2="29.8623" y2="21.5991" gradientUnits="userSpaceOnUse">
<stop stop-color="#B01B03"/>
<stop offset="0.17839" stop-color="#B11E06"/>
<stop offset="0.31124" stop-color="#B4260F"/>
<stop offset="0.42931" stop-color="#B83520"/>
<stop offset="0.5389" stop-color="#BE4936"/>
<stop offset="0.64255" stop-color="#C76454"/>
<stop offset="0.74183" stop-color="#D18578"/>
<stop offset="0.83763" stop-color="#DDACA3"/>
<stop offset="0.92817" stop-color="#EBD7D3"/>
<stop offset="1" stop-color="#F7FFFF"/>
</linearGradient>
<linearGradient id="paint10_linear_4370_11646" x1="28.5134" y1="19.9593" x2="24.0711" y2="11.3982" gradientUnits="userSpaceOnUse">
<stop stop-color="#E5552F"/>
<stop offset="0.13709" stop-color="#E75A34"/>
<stop offset="0.30331" stop-color="#ED6843"/>
<stop offset="0.48402" stop-color="#F77E5B"/>
<stop offset="0.4881" stop-color="#F77F5C"/>
<stop offset="1" stop-color="#F7A66C"/>
</linearGradient>
<linearGradient id="paint11_linear_4370_11646" x1="20.4609" y1="14.295" x2="30.879" y2="14.295" gradientUnits="userSpaceOnUse">
<stop stop-color="#B01B03"/>
<stop offset="0.17839" stop-color="#B11E06"/>
<stop offset="0.31124" stop-color="#B4260F"/>
<stop offset="0.42931" stop-color="#B83520"/>
<stop offset="0.5389" stop-color="#BE4936"/>
<stop offset="0.64255" stop-color="#C76454"/>
<stop offset="0.74183" stop-color="#D18578"/>
<stop offset="0.83763" stop-color="#DDACA3"/>
<stop offset="0.92817" stop-color="#EBD7D3"/>
<stop offset="1" stop-color="#F7FFFF"/>
</linearGradient>
<linearGradient id="paint12_linear_4370_11646" x1="25.6377" y1="14.1327" x2="30.445" y2="18.4408" gradientUnits="userSpaceOnUse">
<stop stop-color="#E84E1A"/>
<stop offset="0.50595" stop-color="#D74348"/>
<stop offset="1" stop-color="#C62C15"/>
</linearGradient>
<linearGradient id="paint13_linear_4370_11646" x1="57.5827" y1="11.9606" x2="64.3816" y2="11.9606" gradientUnits="userSpaceOnUse">
<stop stop-color="#E5552F"/>
<stop offset="0.13709" stop-color="#E75A34"/>
<stop offset="0.30331" stop-color="#ED6843"/>
<stop offset="0.48402" stop-color="#F77E5B"/>
<stop offset="0.4881" stop-color="#F77F5C"/>
<stop offset="1" stop-color="#F7A66C"/>
</linearGradient>
<linearGradient id="paint14_linear_4370_11646" x1="57.582" y1="11.9606" x2="64.3808" y2="11.9606" gradientUnits="userSpaceOnUse">
<stop stop-color="#B01B03"/>
<stop offset="0.17839" stop-color="#B11E06"/>
<stop offset="0.31124" stop-color="#B4260F"/>
<stop offset="0.42931" stop-color="#B83520"/>
<stop offset="0.5389" stop-color="#BE4936"/>
<stop offset="0.64255" stop-color="#C76454"/>
<stop offset="0.74183" stop-color="#D18578"/>
<stop offset="0.83763" stop-color="#DDACA3"/>
<stop offset="0.92817" stop-color="#EBD7D3"/>
<stop offset="1" stop-color="#F7FFFF"/>
</linearGradient>
<linearGradient id="paint15_linear_4370_11646" x1="60.6532" y1="11.6604" x2="60.8539" y2="17.4187" gradientUnits="userSpaceOnUse">
<stop stop-color="#E84E1A"/>
<stop offset="0.50595" stop-color="#D74348"/>
<stop offset="1" stop-color="#C62C15"/>
</linearGradient>
<linearGradient id="paint16_linear_4370_11646" x1="61.0938" y1="15.1143" x2="64.3719" y2="15.1143" gradientUnits="userSpaceOnUse">
<stop stop-color="#B01B03"/>
<stop offset="0.17839" stop-color="#B11E06"/>
<stop offset="0.31124" stop-color="#B4260F"/>
<stop offset="0.42931" stop-color="#B83520"/>
<stop offset="0.5389" stop-color="#BE4936"/>
<stop offset="0.64255" stop-color="#C76454"/>
<stop offset="0.74183" stop-color="#D18578"/>
<stop offset="0.83763" stop-color="#DDACA3"/>
<stop offset="0.92817" stop-color="#EBD7D3"/>
<stop offset="1" stop-color="#F7FFFF"/>
</linearGradient>
<linearGradient id="paint17_linear_4370_11646" x1="62.0469" y1="19.8189" x2="73.8504" y2="19.8189" gradientUnits="userSpaceOnUse">
<stop stop-color="#E5552F"/>
<stop offset="0.13709" stop-color="#E75A34"/>
<stop offset="0.30331" stop-color="#ED6843"/>
<stop offset="0.48402" stop-color="#F77E5B"/>
<stop offset="0.4881" stop-color="#F77F5C"/>
<stop offset="1" stop-color="#F7A66C"/>
</linearGradient>
<linearGradient id="paint18_linear_4370_11646" x1="62.0469" y1="19.8192" x2="73.8499" y2="19.8192" gradientUnits="userSpaceOnUse">
<stop stop-color="#B01B03"/>
<stop offset="0.17839" stop-color="#B11E06"/>
<stop offset="0.31124" stop-color="#B4260F"/>
<stop offset="0.42931" stop-color="#B83520"/>
<stop offset="0.5389" stop-color="#BE4936"/>
<stop offset="0.64255" stop-color="#C76454"/>
<stop offset="0.74183" stop-color="#D18578"/>
<stop offset="0.83763" stop-color="#DDACA3"/>
<stop offset="0.92817" stop-color="#EBD7D3"/>
<stop offset="1" stop-color="#F7FFFF"/>
</linearGradient>
<linearGradient id="paint19_linear_4370_11646" x1="67.7526" y1="19.4864" x2="61.9786" y2="19.1106" gradientUnits="userSpaceOnUse">
<stop stop-color="#E84E1A"/>
<stop offset="0.50595" stop-color="#D74348"/>
<stop offset="1" stop-color="#C62C15"/>
</linearGradient>
<linearGradient id="paint20_linear_4370_11646" x1="62.0977" y1="21.5991" x2="67.5986" y2="21.5991" gradientUnits="userSpaceOnUse">
<stop stop-color="#B01B03"/>
<stop offset="0.17839" stop-color="#B11E06"/>
<stop offset="0.31124" stop-color="#B4260F"/>
<stop offset="0.42931" stop-color="#B83520"/>
<stop offset="0.5389" stop-color="#BE4936"/>
<stop offset="0.64255" stop-color="#C76454"/>
<stop offset="0.74183" stop-color="#D18578"/>
<stop offset="0.83763" stop-color="#DDACA3"/>
<stop offset="0.92817" stop-color="#EBD7D3"/>
<stop offset="1" stop-color="#F7FFFF"/>
</linearGradient>
<linearGradient id="paint21_linear_4370_11646" x1="66.9249" y1="22.8483" x2="66.2881" y2="14.006" gradientUnits="userSpaceOnUse">
<stop stop-color="#E5552F"/>
<stop offset="0.13709" stop-color="#E75A34"/>
<stop offset="0.30331" stop-color="#ED6843"/>
<stop offset="0.48402" stop-color="#F77E5B"/>
<stop offset="0.4881" stop-color="#F77F5C"/>
<stop offset="1" stop-color="#F7A66C"/>
</linearGradient>
<linearGradient id="paint22_linear_4370_11646" x1="61.0801" y1="14.2949" x2="71.4981" y2="14.2949" gradientUnits="userSpaceOnUse">
<stop stop-color="#B01B03"/>
<stop offset="0.17839" stop-color="#B11E06"/>
<stop offset="0.31124" stop-color="#B4260F"/>
<stop offset="0.42931" stop-color="#B83520"/>
<stop offset="0.5389" stop-color="#BE4936"/>
<stop offset="0.64255" stop-color="#C76454"/>
<stop offset="0.74183" stop-color="#D18578"/>
<stop offset="0.83763" stop-color="#DDACA3"/>
<stop offset="0.92817" stop-color="#EBD7D3"/>
<stop offset="1" stop-color="#F7FFFF"/>
</linearGradient>
<linearGradient id="paint23_linear_4370_11646" x1="66.3764" y1="14.1401" x2="61.569" y2="18.4483" gradientUnits="userSpaceOnUse">
<stop stop-color="#E84E1A"/>
<stop offset="0.50595" stop-color="#D74348"/>
<stop offset="1" stop-color="#C62C15"/>
</linearGradient>
<linearGradient id="paint24_linear_4370_11646" x1="27.5839" y1="58.0192" x2="34.3828" y2="58.0192" gradientUnits="userSpaceOnUse">
<stop stop-color="#E5552F"/>
<stop offset="0.13709" stop-color="#E75A34"/>
<stop offset="0.30331" stop-color="#ED6843"/>
<stop offset="0.48402" stop-color="#F77E5B"/>
<stop offset="0.4881" stop-color="#F77F5C"/>
<stop offset="1" stop-color="#F7A66C"/>
</linearGradient>
<linearGradient id="paint25_linear_4370_11646" x1="27.5839" y1="58.0189" x2="34.3827" y2="58.0189" gradientUnits="userSpaceOnUse">
<stop stop-color="#B01B03"/>
<stop offset="0.17839" stop-color="#B11E06"/>
<stop offset="0.31124" stop-color="#B4260F"/>
<stop offset="0.42931" stop-color="#B83520"/>
<stop offset="0.5389" stop-color="#BE4936"/>
<stop offset="0.64255" stop-color="#C76454"/>
<stop offset="0.74183" stop-color="#D18578"/>
<stop offset="0.83763" stop-color="#DDACA3"/>
<stop offset="0.92817" stop-color="#EBD7D3"/>
<stop offset="1" stop-color="#F7FFFF"/>
</linearGradient>
<linearGradient id="paint26_linear_4370_11646" x1="31.4208" y1="58.4414" x2="31.2202" y2="52.6832" gradientUnits="userSpaceOnUse">
<stop stop-color="#E84E1A"/>
<stop offset="0.50595" stop-color="#D74348"/>
<stop offset="1" stop-color="#C62C15"/>
</linearGradient>
<linearGradient id="paint27_linear_4370_11646" x1="27.5879" y1="54.8657" x2="30.8661" y2="54.8657" gradientUnits="userSpaceOnUse">
<stop stop-color="#B01B03"/>
<stop offset="0.17839" stop-color="#B11E06"/>
<stop offset="0.31124" stop-color="#B4260F"/>
<stop offset="0.42931" stop-color="#B83520"/>
<stop offset="0.5389" stop-color="#BE4936"/>
<stop offset="0.64255" stop-color="#C76454"/>
<stop offset="0.74183" stop-color="#D18578"/>
<stop offset="0.83763" stop-color="#DDACA3"/>
<stop offset="0.92817" stop-color="#EBD7D3"/>
<stop offset="1" stop-color="#F7FFFF"/>
</linearGradient>
<linearGradient id="paint28_linear_4370_11646" x1="18.1094" y1="50.1608" x2="29.9129" y2="50.1608" gradientUnits="userSpaceOnUse">
<stop stop-color="#E5552F"/>
<stop offset="0.13709" stop-color="#E75A34"/>
<stop offset="0.30331" stop-color="#ED6843"/>
<stop offset="0.48402" stop-color="#F77E5B"/>
<stop offset="0.4881" stop-color="#F77F5C"/>
<stop offset="1" stop-color="#F7A66C"/>
</linearGradient>
<linearGradient id="paint29_linear_4370_11646" x1="18.1094" y1="50.1606" x2="29.9125" y2="50.1606" gradientUnits="userSpaceOnUse">
<stop stop-color="#B01B03"/>
<stop offset="0.17839" stop-color="#B11E06"/>
<stop offset="0.31124" stop-color="#B4260F"/>
<stop offset="0.42931" stop-color="#B83520"/>
<stop offset="0.5389" stop-color="#BE4936"/>
<stop offset="0.64255" stop-color="#C76454"/>
<stop offset="0.74183" stop-color="#D18578"/>
<stop offset="0.83763" stop-color="#DDACA3"/>
<stop offset="0.92817" stop-color="#EBD7D3"/>
<stop offset="1" stop-color="#F7FFFF"/>
</linearGradient>
<linearGradient id="paint30_linear_4370_11646" x1="24.0309" y1="50.3156" x2="29.805" y2="50.6914" gradientUnits="userSpaceOnUse">
<stop stop-color="#E84E1A"/>
<stop offset="0.50595" stop-color="#D74348"/>
<stop offset="1" stop-color="#C62C15"/>
</linearGradient>
<linearGradient id="paint31_linear_4370_11646" x1="24.3613" y1="48.3804" x2="29.8623" y2="48.3804" gradientUnits="userSpaceOnUse">
<stop stop-color="#B01B03"/>
<stop offset="0.17839" stop-color="#B11E06"/>
<stop offset="0.31124" stop-color="#B4260F"/>
<stop offset="0.42931" stop-color="#B83520"/>
<stop offset="0.5389" stop-color="#BE4936"/>
<stop offset="0.64255" stop-color="#C76454"/>
<stop offset="0.74183" stop-color="#D18578"/>
<stop offset="0.83763" stop-color="#DDACA3"/>
<stop offset="0.92817" stop-color="#EBD7D3"/>
<stop offset="1" stop-color="#F7FFFF"/>
</linearGradient>
<linearGradient id="paint32_linear_4370_11646" x1="30.3263" y1="58.9329" x2="20.4154" y2="52.7887" gradientUnits="userSpaceOnUse">
<stop stop-color="#E5552F"/>
<stop offset="0.13709" stop-color="#E75A34"/>
<stop offset="0.30331" stop-color="#ED6843"/>
<stop offset="0.48402" stop-color="#F77E5B"/>
<stop offset="0.4881" stop-color="#F77F5C"/>
<stop offset="1" stop-color="#F7A66C"/>
</linearGradient>
<linearGradient id="paint33_linear_4370_11646" x1="20.4609" y1="55.685" x2="30.879" y2="55.685" gradientUnits="userSpaceOnUse">
<stop stop-color="#B01B03"/>
<stop offset="0.17839" stop-color="#B11E06"/>
<stop offset="0.31124" stop-color="#B4260F"/>
<stop offset="0.42931" stop-color="#B83520"/>
<stop offset="0.5389" stop-color="#BE4936"/>
<stop offset="0.64255" stop-color="#C76454"/>
<stop offset="0.74183" stop-color="#D18578"/>
<stop offset="0.83763" stop-color="#DDACA3"/>
<stop offset="0.92817" stop-color="#EBD7D3"/>
<stop offset="1" stop-color="#F7FFFF"/>
</linearGradient>
<linearGradient id="paint34_linear_4370_11646" x1="25.8053" y1="56.0696" x2="30.6128" y2="51.7614" gradientUnits="userSpaceOnUse">
<stop stop-color="#E84E1A"/>
<stop offset="0.50595" stop-color="#D74348"/>
<stop offset="1" stop-color="#C62C15"/>
</linearGradient>
<linearGradient id="paint35_linear_4370_11646" x1="57.5827" y1="58.0192" x2="64.3816" y2="58.0192" gradientUnits="userSpaceOnUse">
<stop stop-color="#E5552F"/>
<stop offset="0.13709" stop-color="#E75A34"/>
<stop offset="0.30331" stop-color="#ED6843"/>
<stop offset="0.48402" stop-color="#F77E5B"/>
<stop offset="0.4881" stop-color="#F77F5C"/>
<stop offset="1" stop-color="#F7A66C"/>
</linearGradient>
<linearGradient id="paint36_linear_4370_11646" x1="57.582" y1="58.0189" x2="64.3808" y2="58.0189" gradientUnits="userSpaceOnUse">
<stop stop-color="#B01B03"/>
<stop offset="0.17839" stop-color="#B11E06"/>
<stop offset="0.31124" stop-color="#B4260F"/>
<stop offset="0.42931" stop-color="#B83520"/>
<stop offset="0.5389" stop-color="#BE4936"/>
<stop offset="0.64255" stop-color="#C76454"/>
<stop offset="0.74183" stop-color="#D18578"/>
<stop offset="0.83763" stop-color="#DDACA3"/>
<stop offset="0.92817" stop-color="#EBD7D3"/>
<stop offset="1" stop-color="#F7FFFF"/>
</linearGradient>
<linearGradient id="paint37_linear_4370_11646" x1="60.6354" y1="58.3348" x2="60.8361" y2="52.5766" gradientUnits="userSpaceOnUse">
<stop stop-color="#E84E1A"/>
<stop offset="0.50595" stop-color="#D74348"/>
<stop offset="1" stop-color="#C62C15"/>
</linearGradient>
<linearGradient id="paint38_linear_4370_11646" x1="61.0938" y1="54.8654" x2="64.3719" y2="54.8654" gradientUnits="userSpaceOnUse">
<stop stop-color="#B01B03"/>
<stop offset="0.17839" stop-color="#B11E06"/>
<stop offset="0.31124" stop-color="#B4260F"/>
<stop offset="0.42931" stop-color="#B83520"/>
<stop offset="0.5389" stop-color="#BE4936"/>
<stop offset="0.64255" stop-color="#C76454"/>
<stop offset="0.74183" stop-color="#D18578"/>
<stop offset="0.83763" stop-color="#DDACA3"/>
<stop offset="0.92817" stop-color="#EBD7D3"/>
<stop offset="1" stop-color="#F7FFFF"/>
</linearGradient>
<linearGradient id="paint39_linear_4370_11646" x1="61.1916" y1="56.0792" x2="64.378" y2="56.0792" gradientUnits="userSpaceOnUse">
<stop stop-color="#B01B03"/>
<stop offset="0.17839" stop-color="#B11E06"/>
<stop offset="0.31124" stop-color="#B4260F"/>
<stop offset="0.42931" stop-color="#B83520"/>
<stop offset="0.5389" stop-color="#BE4936"/>
<stop offset="0.64255" stop-color="#C76454"/>
<stop offset="0.74183" stop-color="#D18578"/>
<stop offset="0.83763" stop-color="#DDACA3"/>
<stop offset="0.92817" stop-color="#EBD7D3"/>
<stop offset="1" stop-color="#F7FFFF"/>
</linearGradient>
<linearGradient id="paint40_linear_4370_11646" x1="62.0469" y1="50.1608" x2="73.8504" y2="50.1608" gradientUnits="userSpaceOnUse">
<stop stop-color="#E5552F"/>
<stop offset="0.13709" stop-color="#E75A34"/>
<stop offset="0.30331" stop-color="#ED6843"/>
<stop offset="0.48402" stop-color="#F77E5B"/>
<stop offset="0.4881" stop-color="#F77F5C"/>
<stop offset="1" stop-color="#F7A66C"/>
</linearGradient>
<linearGradient id="paint41_linear_4370_11646" x1="62.0469" y1="50.1606" x2="73.8499" y2="50.1606" gradientUnits="userSpaceOnUse">
<stop stop-color="#B01B03"/>
<stop offset="0.17839" stop-color="#B11E06"/>
<stop offset="0.31124" stop-color="#B4260F"/>
<stop offset="0.42931" stop-color="#B83520"/>
<stop offset="0.5389" stop-color="#BE4936"/>
<stop offset="0.64255" stop-color="#C76454"/>
<stop offset="0.74183" stop-color="#D18578"/>
<stop offset="0.83763" stop-color="#DDACA3"/>
<stop offset="0.92817" stop-color="#EBD7D3"/>
<stop offset="1" stop-color="#F7FFFF"/>
</linearGradient>
<linearGradient id="paint42_linear_4370_11646" x1="67.8762" y1="50.5205" x2="62.102" y2="50.8963" gradientUnits="userSpaceOnUse">
<stop stop-color="#E84E1A"/>
<stop offset="0.50595" stop-color="#D74348"/>
<stop offset="1" stop-color="#C62C15"/>
</linearGradient>
<linearGradient id="paint43_linear_4370_11646" x1="62.0977" y1="48.3803" x2="67.5986" y2="48.3803" gradientUnits="userSpaceOnUse">
<stop stop-color="#B01B03"/>
<stop offset="0.17839" stop-color="#B11E06"/>
<stop offset="0.31124" stop-color="#B4260F"/>
<stop offset="0.42931" stop-color="#B83520"/>
<stop offset="0.5389" stop-color="#BE4936"/>
<stop offset="0.64255" stop-color="#C76454"/>
<stop offset="0.74183" stop-color="#D18578"/>
<stop offset="0.83763" stop-color="#DDACA3"/>
<stop offset="0.92817" stop-color="#EBD7D3"/>
<stop offset="1" stop-color="#F7FFFF"/>
</linearGradient>
<linearGradient id="paint44_linear_4370_11646" x1="64.4716" y1="59.2129" x2="68.7198" y2="52.1689" gradientUnits="userSpaceOnUse">
<stop stop-color="#E5552F"/>
<stop offset="0.13709" stop-color="#E75A34"/>
<stop offset="0.30331" stop-color="#ED6843"/>
<stop offset="0.48402" stop-color="#F77E5B"/>
<stop offset="0.4881" stop-color="#F77F5C"/>
<stop offset="1" stop-color="#F7A66C"/>
</linearGradient>
<linearGradient id="paint45_linear_4370_11646" x1="61.0801" y1="55.6848" x2="71.4981" y2="55.6848" gradientUnits="userSpaceOnUse">
<stop stop-color="#B01B03"/>
<stop offset="0.17839" stop-color="#B11E06"/>
<stop offset="0.31124" stop-color="#B4260F"/>
<stop offset="0.42931" stop-color="#B83520"/>
<stop offset="0.5389" stop-color="#BE4936"/>
<stop offset="0.64255" stop-color="#C76454"/>
<stop offset="0.74183" stop-color="#D18578"/>
<stop offset="0.83763" stop-color="#DDACA3"/>
<stop offset="0.92817" stop-color="#EBD7D3"/>
<stop offset="1" stop-color="#F7FFFF"/>
</linearGradient>
<linearGradient id="paint46_linear_4370_11646" x1="66.3204" y1="55.8471" x2="61.5131" y2="51.539" gradientUnits="userSpaceOnUse">
<stop stop-color="#E84E1A"/>
<stop offset="0.50595" stop-color="#D74348"/>
<stop offset="1" stop-color="#C62C15"/>
</linearGradient>
<linearGradient id="paint47_linear_4370_11646" x1="45.9594" y1="56.1204" x2="45.9594" y2="-3.58914" gradientUnits="userSpaceOnUse">
<stop stop-color="#E5552F"/>
<stop offset="0.13709" stop-color="#E75A34"/>
<stop offset="0.30331" stop-color="#ED6843"/>
<stop offset="0.48402" stop-color="#F77E5B"/>
<stop offset="0.4881" stop-color="#F77F5C"/>
<stop offset="1" stop-color="#F7A66C"/>
</linearGradient>
<linearGradient id="paint48_linear_4370_11646" x1="38.688" y1="54.0399" x2="35.7243" y2="60.6754" gradientUnits="userSpaceOnUse">
<stop stop-color="#E84E1A"/>
<stop offset="0.50595" stop-color="#D74348"/>
<stop offset="1" stop-color="#C62C15"/>
</linearGradient>
<linearGradient id="paint49_linear_4370_11646" x1="37.9343" y1="60.0563" x2="37.9343" y2="56.7268" gradientUnits="userSpaceOnUse">
<stop stop-color="#F7632E"/>
<stop offset="1" stop-color="#F7B57E"/>
</linearGradient>
<linearGradient id="paint50_linear_4370_11646" x1="33.6344" y1="57.3898" x2="42.0409" y2="57.3898" gradientUnits="userSpaceOnUse">
<stop stop-color="#B01B03"/>
<stop offset="0.17839" stop-color="#B11E06"/>
<stop offset="0.31124" stop-color="#B4260F"/>
<stop offset="0.42931" stop-color="#B83520"/>
<stop offset="0.5389" stop-color="#BE4936"/>
<stop offset="0.64255" stop-color="#C76454"/>
<stop offset="0.74183" stop-color="#D18578"/>
<stop offset="0.83763" stop-color="#DDACA3"/>
<stop offset="0.92817" stop-color="#EBD7D3"/>
<stop offset="1" stop-color="#F7FFFF"/>
</linearGradient>
<linearGradient id="paint51_linear_4370_11646" x1="53.1287" y1="53.692" x2="56.5353" y2="61.7404" gradientUnits="userSpaceOnUse">
<stop stop-color="#E84E1A"/>
<stop offset="0.50595" stop-color="#D74348"/>
<stop offset="1" stop-color="#C62C15"/>
</linearGradient>
<linearGradient id="paint52_linear_4370_11646" x1="53.9812" y1="60.0563" x2="53.9812" y2="56.7269" gradientUnits="userSpaceOnUse">
<stop stop-color="#F7632E"/>
<stop offset="1" stop-color="#F7B57E"/>
</linearGradient>
<linearGradient id="paint53_linear_4370_11646" x1="49.877" y1="57.3899" x2="58.2835" y2="57.3899" gradientUnits="userSpaceOnUse">
<stop stop-color="#B01B03"/>
<stop offset="0.17839" stop-color="#B11E06"/>
<stop offset="0.31124" stop-color="#B4260F"/>
<stop offset="0.42931" stop-color="#B83520"/>
<stop offset="0.5389" stop-color="#BE4936"/>
<stop offset="0.64255" stop-color="#C76454"/>
<stop offset="0.74183" stop-color="#D18578"/>
<stop offset="0.83763" stop-color="#DDACA3"/>
<stop offset="0.92817" stop-color="#EBD7D3"/>
<stop offset="1" stop-color="#F7FFFF"/>
</linearGradient>
<linearGradient id="paint54_linear_4370_11646" x1="36.7625" y1="11.7529" x2="38.9851" y2="16.603" gradientUnits="userSpaceOnUse">
<stop stop-color="#E84E1A"/>
<stop offset="0.50595" stop-color="#D74348"/>
<stop offset="1" stop-color="#C62C15"/>
</linearGradient>
<linearGradient id="paint55_linear_4370_11646" x1="36.1072" y1="9.44299" x2="38.0557" y2="14.3169" gradientUnits="userSpaceOnUse">
<stop stop-color="#E5552F"/>
<stop offset="0.13709" stop-color="#E75A34"/>
<stop offset="0.30331" stop-color="#ED6843"/>
<stop offset="0.48402" stop-color="#F77E5B"/>
<stop offset="0.4881" stop-color="#F77F5C"/>
<stop offset="1" stop-color="#F7A66C"/>
</linearGradient>
<linearGradient id="paint56_linear_4370_11646" x1="33.6344" y1="12.7208" x2="42.0409" y2="12.7208" gradientUnits="userSpaceOnUse">
<stop stop-color="#B01B03"/>
<stop offset="0.17839" stop-color="#B11E06"/>
<stop offset="0.31124" stop-color="#B4260F"/>
<stop offset="0.42931" stop-color="#B83520"/>
<stop offset="0.5389" stop-color="#BE4936"/>
<stop offset="0.64255" stop-color="#C76454"/>
<stop offset="0.74183" stop-color="#D18578"/>
<stop offset="0.83763" stop-color="#DDACA3"/>
<stop offset="0.92817" stop-color="#EBD7D3"/>
<stop offset="1" stop-color="#F7FFFF"/>
</linearGradient>
<linearGradient id="paint57_linear_4370_11646" x1="55.1624" y1="11.7529" x2="52.9399" y2="16.6029" gradientUnits="userSpaceOnUse">
<stop stop-color="#E84E1A"/>
<stop offset="0.50595" stop-color="#D74348"/>
<stop offset="1" stop-color="#C62C15"/>
</linearGradient>
<linearGradient id="paint58_linear_4370_11646" x1="55.8141" y1="9.44305" x2="53.8656" y2="14.3169" gradientUnits="userSpaceOnUse">
<stop stop-color="#E5552F"/>
<stop offset="0.13709" stop-color="#E75A34"/>
<stop offset="0.30331" stop-color="#ED6843"/>
<stop offset="0.48402" stop-color="#F77E5B"/>
<stop offset="0.4881" stop-color="#F77F5C"/>
<stop offset="1" stop-color="#F7A66C"/>
</linearGradient>
<linearGradient id="paint59_linear_4370_11646" x1="49.8789" y1="12.7206" x2="58.2854" y2="12.7206" gradientUnits="userSpaceOnUse">
<stop stop-color="#B01B03"/>
<stop offset="0.17839" stop-color="#B11E06"/>
<stop offset="0.31124" stop-color="#B4260F"/>
<stop offset="0.42931" stop-color="#B83520"/>
<stop offset="0.5389" stop-color="#BE4936"/>
<stop offset="0.64255" stop-color="#C76454"/>
<stop offset="0.74183" stop-color="#D18578"/>
<stop offset="0.83763" stop-color="#DDACA3"/>
<stop offset="0.92817" stop-color="#EBD7D3"/>
<stop offset="1" stop-color="#F7FFFF"/>
</linearGradient>
<linearGradient id="paint60_linear_4370_11646" x1="68.7199" y1="25.0239" x2="63.7509" y2="26.8801" gradientUnits="userSpaceOnUse">
<stop stop-color="#E84E1A"/>
<stop offset="0.50595" stop-color="#D74348"/>
<stop offset="1" stop-color="#C62C15"/>
</linearGradient>
<linearGradient id="paint61_linear_4370_11646" x1="70.7992" y1="23.8523" x2="66.0054" y2="25.9149" gradientUnits="userSpaceOnUse">
<stop stop-color="#E5552F"/>
<stop offset="0.13709" stop-color="#E75A34"/>
<stop offset="0.30331" stop-color="#ED6843"/>
<stop offset="0.48402" stop-color="#F77E5B"/>
<stop offset="0.4881" stop-color="#F77F5C"/>
<stop offset="1" stop-color="#F7A66C"/>
</linearGradient>
<linearGradient id="paint62_linear_4370_11646" x1="64.4473" y1="25.9713" x2="71.0287" y2="25.9713" gradientUnits="userSpaceOnUse">
<stop stop-color="#B01B03"/>
<stop offset="0.17839" stop-color="#B11E06"/>
<stop offset="0.31124" stop-color="#B4260F"/>
<stop offset="0.42931" stop-color="#B83520"/>
<stop offset="0.5389" stop-color="#BE4936"/>
<stop offset="0.64255" stop-color="#C76454"/>
<stop offset="0.74183" stop-color="#D18578"/>
<stop offset="0.83763" stop-color="#DDACA3"/>
<stop offset="0.92817" stop-color="#EBD7D3"/>
<stop offset="1" stop-color="#F7FFFF"/>
</linearGradient>
<linearGradient id="paint63_linear_4370_11646" x1="68.7199" y1="45.0414" x2="63.7509" y2="43.1851" gradientUnits="userSpaceOnUse">
<stop stop-color="#E84E1A"/>
<stop offset="0.50595" stop-color="#D74348"/>
<stop offset="1" stop-color="#C62C15"/>
</linearGradient>
<linearGradient id="paint64_linear_4370_11646" x1="70.7992" y1="46.2127" x2="66.0054" y2="44.15" gradientUnits="userSpaceOnUse">
<stop stop-color="#E5552F"/>
<stop offset="0.13709" stop-color="#E75A34"/>
<stop offset="0.30331" stop-color="#ED6843"/>
<stop offset="0.48402" stop-color="#F77E5B"/>
<stop offset="0.4881" stop-color="#F77F5C"/>
<stop offset="1" stop-color="#F7A66C"/>
</linearGradient>
<linearGradient id="paint65_linear_4370_11646" x1="64.4473" y1="44.0941" x2="71.0287" y2="44.0941" gradientUnits="userSpaceOnUse">
<stop stop-color="#B01B03"/>
<stop offset="0.17839" stop-color="#B11E06"/>
<stop offset="0.31124" stop-color="#B4260F"/>
<stop offset="0.42931" stop-color="#B83520"/>
<stop offset="0.5389" stop-color="#BE4936"/>
<stop offset="0.64255" stop-color="#C76454"/>
<stop offset="0.74183" stop-color="#D18578"/>
<stop offset="0.83763" stop-color="#DDACA3"/>
<stop offset="0.92817" stop-color="#EBD7D3"/>
<stop offset="1" stop-color="#F7FFFF"/>
</linearGradient>
<linearGradient id="paint66_linear_4370_11646" x1="23.0963" y1="25.0239" x2="28.0653" y2="26.8801" gradientUnits="userSpaceOnUse">
<stop stop-color="#E84E1A"/>
<stop offset="0.50595" stop-color="#D74348"/>
<stop offset="1" stop-color="#C62C15"/>
</linearGradient>
<linearGradient id="paint67_linear_4370_11646" x1="21.0079" y1="23.8523" x2="25.8016" y2="25.9149" gradientUnits="userSpaceOnUse">
<stop stop-color="#E5552F"/>
<stop offset="0.13709" stop-color="#E75A34"/>
<stop offset="0.30331" stop-color="#ED6843"/>
<stop offset="0.48402" stop-color="#F77E5B"/>
<stop offset="0.4881" stop-color="#F77F5C"/>
<stop offset="1" stop-color="#F7A66C"/>
</linearGradient>
<linearGradient id="paint68_linear_4370_11646" x1="20.7871" y1="25.9713" x2="27.3687" y2="25.9713" gradientUnits="userSpaceOnUse">
<stop stop-color="#B01B03"/>
<stop offset="0.17839" stop-color="#B11E06"/>
<stop offset="0.31124" stop-color="#B4260F"/>
<stop offset="0.42931" stop-color="#B83520"/>
<stop offset="0.5389" stop-color="#BE4936"/>
<stop offset="0.64255" stop-color="#C76454"/>
<stop offset="0.74183" stop-color="#D18578"/>
<stop offset="0.83763" stop-color="#DDACA3"/>
<stop offset="0.92817" stop-color="#EBD7D3"/>
<stop offset="1" stop-color="#F7FFFF"/>
</linearGradient>
<linearGradient id="paint69_linear_4370_11646" x1="23.0963" y1="45.0414" x2="28.0653" y2="43.1851" gradientUnits="userSpaceOnUse">
<stop stop-color="#E84E1A"/>
<stop offset="0.50595" stop-color="#D74348"/>
<stop offset="1" stop-color="#C62C15"/>
</linearGradient>
<linearGradient id="paint70_linear_4370_11646" x1="21.0079" y1="46.2127" x2="25.8016" y2="44.1501" gradientUnits="userSpaceOnUse">
<stop stop-color="#E5552F"/>
<stop offset="0.13709" stop-color="#E75A34"/>
<stop offset="0.30331" stop-color="#ED6843"/>
<stop offset="0.48402" stop-color="#F77E5B"/>
<stop offset="0.4881" stop-color="#F77F5C"/>
<stop offset="1" stop-color="#F7A66C"/>
</linearGradient>
<linearGradient id="paint71_linear_4370_11646" x1="20.7871" y1="44.0941" x2="27.3687" y2="44.0941" gradientUnits="userSpaceOnUse">
<stop stop-color="#B01B03"/>
<stop offset="0.17839" stop-color="#B11E06"/>
<stop offset="0.31124" stop-color="#B4260F"/>
<stop offset="0.42931" stop-color="#B83520"/>
<stop offset="0.5389" stop-color="#BE4936"/>
<stop offset="0.64255" stop-color="#C76454"/>
<stop offset="0.74183" stop-color="#D18578"/>
<stop offset="0.83763" stop-color="#DDACA3"/>
<stop offset="0.92817" stop-color="#EBD7D3"/>
<stop offset="1" stop-color="#F7FFFF"/>
</linearGradient>
<linearGradient id="paint72_linear_4370_11646" x1="45.957" y1="77.928" x2="45.957" y2="16.6234" gradientUnits="userSpaceOnUse">
<stop stop-color="#F36134"/>
<stop offset="1" stop-color="#C40721"/>
</linearGradient>
<linearGradient id="paint73_linear_4370_11646" x1="45.9609" y1="54.1103" x2="45.9609" y2="45.706" gradientUnits="userSpaceOnUse">
<stop stop-color="#F7FFEB"/>
<stop offset="1" stop-color="#F7FCB0"/>
</linearGradient>
<radialGradient id="paint74_radial_4370_11646" cx="0" cy="0" r="1" gradientUnits="userSpaceOnUse" gradientTransform="translate(49.0182 15.3287) scale(6.56326 6.61676)">
<stop stop-color="#F74E24"/>
<stop offset="0.03594" stop-color="#E64921"/>
<stop offset="0.17196" stop-color="#AA3719"/>
<stop offset="0.3075" stop-color="#772811"/>
<stop offset="0.43938" stop-color="#4D1B0B"/>
<stop offset="0.56682" stop-color="#2C1206"/>
<stop offset="0.68874" stop-color="#150B03"/>
<stop offset="0.80269" stop-color="#070601"/>
<stop offset="0.90079" stop-color="#020500"/>
</radialGradient>
<radialGradient id="paint75_radial_4370_11646" cx="0" cy="0" r="1" gradientUnits="userSpaceOnUse" gradientTransform="translate(38.0114 55.8322) rotate(14.9038) scale(3.98946 2.64797)">
<stop offset="0.00397" stop-color="#DF5A29"/>
<stop offset="0.16033" stop-color="#AF4820"/>
<stop offset="0.3809" stop-color="#723015"/>
<stop offset="0.58319" stop-color="#421E0C"/>
<stop offset="0.76022" stop-color="#1F1005"/>
<stop offset="0.90518" stop-color="#0A0801"/>
<stop offset="1" stop-color="#020500"/>
</radialGradient>
<linearGradient id="paint76_linear_4370_11646" x1="70.7635" y1="52.4105" x2="70.7635" y2="36.3949" gradientUnits="userSpaceOnUse">
<stop stop-color="#E5552F"/>
<stop offset="0.13709" stop-color="#E75A34"/>
<stop offset="0.30331" stop-color="#ED6843"/>
<stop offset="0.48402" stop-color="#F77E5B"/>
<stop offset="0.4881" stop-color="#F77F5C"/>
<stop offset="1" stop-color="#F7A66C"/>
</linearGradient>
<linearGradient id="paint77_linear_4370_11646" x1="21.11" y1="52.4105" x2="21.11" y2="36.3949" gradientUnits="userSpaceOnUse">
<stop stop-color="#E5552F"/>
<stop offset="0.13709" stop-color="#E75A34"/>
<stop offset="0.30331" stop-color="#ED6843"/>
<stop offset="0.48402" stop-color="#F77E5B"/>
<stop offset="0.4881" stop-color="#F77F5C"/>
<stop offset="1" stop-color="#F7A66C"/>
</linearGradient>
</defs>
</svg>
