<svg width="30" height="30" viewBox="0 0 30 30" fill="none" xmlns="http://www.w3.org/2000/svg">
<path d="M8.93348 5.8999C7.25821 5.8999 5.90015 7.25797 5.90015 8.93324V21.0666C5.90015 22.7418 7.25821 24.0999 8.93348 24.0999H21.0668C22.7421 24.0999 24.1001 22.7418 24.1001 21.0666V8.93324C24.1001 7.25797 22.7421 5.8999 21.0668 5.8999H8.93348ZM9.83739 9.7999H13.277L15.7195 13.2708L18.6835 9.7999H19.7668L16.2087 13.9657L20.5962 20.1999H17.1575L14.3231 16.1729L10.8835 20.1999H9.80015L13.8339 15.4781L9.83739 9.7999ZM11.4962 10.6666L17.6095 19.3332H18.9374L12.8242 10.6666H11.4962Z" fill="white" fill-opacity="0.9"/>
</svg>
