<svg width="120" height="28" viewBox="0 0 120 28" fill="none" xmlns="http://www.w3.org/2000/svg">
<path d="M0.515746 13.055C19.8293 14.8117 39.2108 15.6695 58.6162 15.7161C78.2408 15.7632 98.0422 15.2407 117.54 13.3579C119.689 13.1219 119.5 9.89813 117.351 10.0245C97.8763 11.3153 78.4677 12.5844 58.9519 12.8664C39.5019 13.1267 20.0098 12.7071 0.606506 11.7835C-0.138906 11.7378 -0.229666 13.0094 0.515746 13.055Z" fill="#FDEB56"/>
<path d="M100.136 1.47549C104.993 6.00413 111.915 8.93705 117.983 11.4952C117.853 10.7347 117.716 9.98886 117.572 9.25761C112.605 14.1135 108.403 19.629 104.771 25.5406C105.634 25.4989 106.511 25.4644 107.403 25.4373C106.156 23.8775 106.25 21.6192 105.925 19.7547C105.667 17.7952 105.386 15.843 105.084 13.8981C104.465 9.81817 103.868 5.731 103.294 1.63656C103.013 -0.0963591 100.293 0.0725261 100.574 1.80544C101.191 6.61627 101.83 11.4198 102.491 16.2161C102.944 19.4624 102.691 24.3297 104.877 27.0758C105.577 27.9765 106.848 27.9576 107.487 26.9066C110.965 21.192 115.1 16.0271 119.65 11.1264C120.222 10.5357 120.093 9.26366 119.261 8.95468C116.084 7.74107 112.952 6.43985 109.908 4.96343C106.907 3.50904 103.995 1.66016 100.929 0.337174C100.206 0.0284588 99.5238 0.947769 100.136 1.47549Z" fill="#FDEB56"/>
</svg>
