<svg width="70" height="70" viewBox="0 0 70 70" fill="none" xmlns="http://www.w3.org/2000/svg">
<rect width="70" height="70" rx="7" fill="#444265"/>
<rect x="0.4375" y="0.4375" width="69.125" height="69.125" rx="6.5625" stroke="url(#paint0_linear_3312_42365)" stroke-opacity="0.3" stroke-width="0.875"/>
<path fill-rule="evenodd" clip-rule="evenodd" d="M51.3117 32.565C51.0861 32.7842 50.7798 32.9095 50.4574 32.9095C49.2647 32.9095 48.2975 33.849 48.2975 34.9921C48.2975 36.143 49.2534 37.0778 50.4349 37.0903C51.1006 37.0966 51.6663 37.5476 51.6663 38.1943V42.2107C51.6663 45.5914 48.8456 48.3332 45.364 48.3332H40.1093C39.5661 48.3332 39.126 47.9058 39.126 47.3781V43.9958C39.126 43.3381 38.5941 42.8214 37.9171 42.8214C37.2563 42.8214 36.7083 43.3381 36.7083 43.9958V47.3781C36.7083 47.9058 36.2682 48.3332 35.7266 48.3332H24.6354C21.1699 48.3332 18.333 45.593 18.333 42.2107V38.1943C18.333 37.5476 18.8988 37.0966 19.5645 37.0903C20.7476 37.0778 21.7018 36.143 21.7018 34.9921C21.7018 33.8803 20.7669 33.0347 19.5419 33.0347C19.2195 33.0347 18.9133 32.9095 18.6876 32.6902C18.462 32.471 18.333 32.1735 18.333 31.8603V27.8048C18.333 24.4287 21.1763 21.6666 24.6515 21.6666H35.7266C36.2682 21.6666 36.7083 22.094 36.7083 22.6217V26.6304C36.7083 27.2724 37.2563 27.8048 37.9171 27.8048C38.5941 27.8048 39.126 27.2724 39.126 26.6304V22.6217C39.126 22.094 39.5661 21.6666 40.1093 21.6666H45.364C48.8456 21.6666 51.6663 24.4068 51.6663 27.7891V31.7351C51.6663 32.0482 51.5374 32.3458 51.3117 32.565ZM37.9173 39.7836C38.5943 39.7836 39.1262 39.2512 39.1262 38.6092V32.3457C39.1262 31.7037 38.5943 31.1713 37.9173 31.1713C37.2564 31.1713 36.7084 31.7037 36.7084 32.3457V38.6092C36.7084 39.2512 37.2564 39.7836 37.9173 39.7836Z" fill="#8EC9ED"/>
<defs>
<linearGradient id="paint0_linear_3312_42365" x1="35" y1="0" x2="35" y2="70" gradientUnits="userSpaceOnUse">
<stop stop-color="#8EC9ED"/>
<stop offset="1" stop-color="#8EC9ED" stop-opacity="0"/>
</linearGradient>
</defs>
</svg>
