<svg width="360" height="340" viewBox="0 0 360 340" fill="none" xmlns="http://www.w3.org/2000/svg">
<path d="M182.944 170.182L377.172 193.996C380.132 182.726 381.813 171.158 382.186 159.511L182.944 170.182Z" fill="url(#paint0_radial_7605_15143)" fill-opacity="0.1"/>
<path d="M11.2454 80.4438C3.63724 89.9939 -3.0156 100.268 -8.61739 111.118L-8.33182 110.699L173.197 168.289L11.2454 80.4438Z" fill="url(#paint1_radial_7605_15143)" fill-opacity="0.1"/>
<path d="M363.803 228.881L363.518 229.301L182.539 171.989L343.941 259.556C351.549 250.006 358.202 239.732 363.803 228.881Z" fill="url(#paint2_radial_7605_15143)" fill-opacity="0.1"/>
<path d="M386.722 220.539L386.724 220.533L386.725 220.527L386.722 220.539Z" fill="url(#paint3_radial_7605_15143)" fill-opacity="0.1"/>
<path d="M172.766 170.179L-21.9863 146.004C-24.9454 157.274 -26.6272 168.842 -27 180.489L172.766 170.179Z" fill="url(#paint4_radial_7605_15143)" fill-opacity="0.1"/>
<path d="M172.385 344.66L177.217 175.871L132.62 343.337C146.04 344.938 159.574 345.384 173.07 344.67H173.072L172.385 344.66Z" fill="url(#paint5_radial_7605_15143)" fill-opacity="0.1"/>
<path d="M250.609 327.485L179.895 175.528L213.83 339.01C226.599 336.126 239.116 332.225 251.263 327.345L251.264 327.344L250.609 327.485Z" fill="url(#paint6_radial_7605_15143)" fill-opacity="0.1"/>
<path d="M316.939 287.447L183.223 175.454L286.88 309.483C297.68 302.904 307.912 295.434 317.47 287.152L316.939 287.447Z" fill="url(#paint7_radial_7605_15143)" fill-opacity="0.1"/>
<path d="M-13.537 246.134L172.331 172.14L-23.7563 215.351L-23.9654 214.908C-21.6882 225.68 -18.1894 236.156 -13.537 246.134Z" fill="url(#paint8_radial_7605_15143)" fill-opacity="0.1"/>
<path d="M183.371 166.543L350.459 64.4315L350.915 64.7788C343.947 55.8516 336.068 47.6744 327.407 40.3796L183.371 166.543Z" fill="url(#paint9_radial_7605_15143)" fill-opacity="0.1"/>
<path d="M104.576 12.5127L176.273 164.888L141.355 0.989424C128.587 3.87396 116.07 7.77509 103.923 12.6555L104.576 12.5127Z" fill="url(#paint10_radial_7605_15143)" fill-opacity="0.1"/>
<path d="M174.025 176.46L58.4913 320.351L57.8889 320.125L57.8901 320.126C68.7964 326.018 80.2342 330.867 92.0513 334.609L174.025 176.46Z" fill="url(#paint11_radial_7605_15143)" fill-opacity="0.1"/>
<path d="M172.866 174.171L4.72442 275.571L4.27111 275.221C11.2394 284.149 19.1182 292.326 27.7801 299.621L172.866 174.171Z" fill="url(#paint12_radial_7605_15143)" fill-opacity="0.1"/>
<path d="M182.8 -4.66268L178.95 164.549L222.566 -3.33647C209.146 -4.93829 195.613 -5.38444 182.116 -4.67002H182.115L182.8 -4.66268Z" fill="url(#paint13_radial_7605_15143)" fill-opacity="0.1"/>
<path d="M68.3065 30.5173C57.5063 37.0961 47.2741 44.5657 37.7169 52.8482L38.2469 52.5531L174.241 166.374L68.3065 30.5173Z" fill="url(#paint14_radial_7605_15143)" fill-opacity="0.1"/>
<path d="M378.938 124.65L379.151 125.092C376.874 114.321 373.376 103.845 368.724 93.8671L183.913 168.578L378.938 124.65Z" fill="url(#paint15_radial_7605_15143)" fill-opacity="0.1"/>
<path d="M181.594 165.016L296.693 19.6519L297.296 19.8745C286.39 13.9827 274.953 9.13323 263.136 5.3916L181.594 165.016Z" fill="url(#paint16_radial_7605_15143)" fill-opacity="0.1"/>
<defs>
<radialGradient id="paint0_radial_7605_15143" cx="0" cy="0" r="1" gradientUnits="userSpaceOnUse" gradientTransform="translate(179.863 170) rotate(90) scale(175 206.863)">
<stop stop-color="white" stop-opacity="0.5"/>
<stop offset="0.907665" stop-color="white" stop-opacity="0"/>
</radialGradient>
<radialGradient id="paint1_radial_7605_15143" cx="0" cy="0" r="1" gradientUnits="userSpaceOnUse" gradientTransform="translate(179.863 170) rotate(90) scale(175 206.863)">
<stop stop-color="white" stop-opacity="0.5"/>
<stop offset="0.907665" stop-color="white" stop-opacity="0"/>
</radialGradient>
<radialGradient id="paint2_radial_7605_15143" cx="0" cy="0" r="1" gradientUnits="userSpaceOnUse" gradientTransform="translate(179.863 170) rotate(90) scale(175 206.863)">
<stop stop-color="white" stop-opacity="0.5"/>
<stop offset="0.907665" stop-color="white" stop-opacity="0"/>
</radialGradient>
<radialGradient id="paint3_radial_7605_15143" cx="0" cy="0" r="1" gradientUnits="userSpaceOnUse" gradientTransform="translate(179.863 170) rotate(90) scale(175 206.863)">
<stop stop-color="white" stop-opacity="0.5"/>
<stop offset="0.907665" stop-color="white" stop-opacity="0"/>
</radialGradient>
<radialGradient id="paint4_radial_7605_15143" cx="0" cy="0" r="1" gradientUnits="userSpaceOnUse" gradientTransform="translate(179.863 170) rotate(90) scale(175 206.863)">
<stop stop-color="white" stop-opacity="0.5"/>
<stop offset="0.907665" stop-color="white" stop-opacity="0"/>
</radialGradient>
<radialGradient id="paint5_radial_7605_15143" cx="0" cy="0" r="1" gradientUnits="userSpaceOnUse" gradientTransform="translate(179.863 170) rotate(90) scale(175 206.863)">
<stop stop-color="white" stop-opacity="0.5"/>
<stop offset="0.907665" stop-color="white" stop-opacity="0"/>
</radialGradient>
<radialGradient id="paint6_radial_7605_15143" cx="0" cy="0" r="1" gradientUnits="userSpaceOnUse" gradientTransform="translate(179.863 170) rotate(90) scale(175 206.863)">
<stop stop-color="white" stop-opacity="0.5"/>
<stop offset="0.907665" stop-color="white" stop-opacity="0"/>
</radialGradient>
<radialGradient id="paint7_radial_7605_15143" cx="0" cy="0" r="1" gradientUnits="userSpaceOnUse" gradientTransform="translate(179.863 170) rotate(90) scale(175 206.863)">
<stop stop-color="white" stop-opacity="0.5"/>
<stop offset="0.907665" stop-color="white" stop-opacity="0"/>
</radialGradient>
<radialGradient id="paint8_radial_7605_15143" cx="0" cy="0" r="1" gradientUnits="userSpaceOnUse" gradientTransform="translate(179.863 170) rotate(90) scale(175 206.863)">
<stop stop-color="white" stop-opacity="0.5"/>
<stop offset="0.907665" stop-color="white" stop-opacity="0"/>
</radialGradient>
<radialGradient id="paint9_radial_7605_15143" cx="0" cy="0" r="1" gradientUnits="userSpaceOnUse" gradientTransform="translate(179.863 170) rotate(90) scale(175 206.863)">
<stop stop-color="white" stop-opacity="0.5"/>
<stop offset="0.907665" stop-color="white" stop-opacity="0"/>
</radialGradient>
<radialGradient id="paint10_radial_7605_15143" cx="0" cy="0" r="1" gradientUnits="userSpaceOnUse" gradientTransform="translate(179.863 170) rotate(90) scale(175 206.863)">
<stop stop-color="white" stop-opacity="0.5"/>
<stop offset="0.907665" stop-color="white" stop-opacity="0"/>
</radialGradient>
<radialGradient id="paint11_radial_7605_15143" cx="0" cy="0" r="1" gradientUnits="userSpaceOnUse" gradientTransform="translate(179.863 170) rotate(90) scale(175 206.863)">
<stop stop-color="white" stop-opacity="0.5"/>
<stop offset="0.907665" stop-color="white" stop-opacity="0"/>
</radialGradient>
<radialGradient id="paint12_radial_7605_15143" cx="0" cy="0" r="1" gradientUnits="userSpaceOnUse" gradientTransform="translate(179.863 170) rotate(90) scale(175 206.863)">
<stop stop-color="white" stop-opacity="0.5"/>
<stop offset="0.907665" stop-color="white" stop-opacity="0"/>
</radialGradient>
<radialGradient id="paint13_radial_7605_15143" cx="0" cy="0" r="1" gradientUnits="userSpaceOnUse" gradientTransform="translate(179.863 170) rotate(90) scale(175 206.863)">
<stop stop-color="white" stop-opacity="0.5"/>
<stop offset="0.907665" stop-color="white" stop-opacity="0"/>
</radialGradient>
<radialGradient id="paint14_radial_7605_15143" cx="0" cy="0" r="1" gradientUnits="userSpaceOnUse" gradientTransform="translate(179.863 170) rotate(90) scale(175 206.863)">
<stop stop-color="white" stop-opacity="0.5"/>
<stop offset="0.907665" stop-color="white" stop-opacity="0"/>
</radialGradient>
<radialGradient id="paint15_radial_7605_15143" cx="0" cy="0" r="1" gradientUnits="userSpaceOnUse" gradientTransform="translate(179.863 170) rotate(90) scale(175 206.863)">
<stop stop-color="white" stop-opacity="0.5"/>
<stop offset="0.907665" stop-color="white" stop-opacity="0"/>
</radialGradient>
<radialGradient id="paint16_radial_7605_15143" cx="0" cy="0" r="1" gradientUnits="userSpaceOnUse" gradientTransform="translate(179.863 170) rotate(90) scale(175 206.863)">
<stop stop-color="white" stop-opacity="0.5"/>
<stop offset="0.907665" stop-color="white" stop-opacity="0"/>
</radialGradient>
</defs>
</svg>
