<svg width="300" height="400" viewBox="0 0 300 400" fill="none" xmlns="http://www.w3.org/2000/svg">
<g clip-path="url(#clip0_7605_15137)">
<rect width="300" height="400" rx="10" fill="url(#paint0_radial_7605_15137)"/>
<path d="M152.944 200.182L347.172 223.996C350.132 212.726 351.813 201.158 352.186 189.511L152.944 200.182Z" fill="url(#paint1_radial_7605_15137)" fill-opacity="0.1"/>
<path d="M-18.7546 110.444C-26.3628 119.994 -33.0156 130.268 -38.6174 141.118L-38.3318 140.699L143.197 198.289L-18.7546 110.444Z" fill="url(#paint2_radial_7605_15137)" fill-opacity="0.1"/>
<path d="M333.803 258.881L333.518 259.301L152.539 201.989L313.941 289.556C321.549 280.006 328.202 269.732 333.803 258.881Z" fill="url(#paint3_radial_7605_15137)" fill-opacity="0.1"/>
<path d="M356.722 250.539L356.724 250.533L356.725 250.527L356.722 250.539Z" fill="url(#paint4_radial_7605_15137)" fill-opacity="0.1"/>
<path d="M142.766 200.179L-51.9863 176.004C-54.9454 187.274 -56.6272 198.842 -57 210.489L142.766 200.179Z" fill="url(#paint5_radial_7605_15137)" fill-opacity="0.1"/>
<path d="M142.385 374.66L147.217 205.871L102.62 373.337C116.04 374.938 129.574 375.384 143.07 374.67H143.072L142.385 374.66Z" fill="url(#paint6_radial_7605_15137)" fill-opacity="0.1"/>
<path d="M220.609 357.485L149.895 205.528L183.83 369.01C196.599 366.126 209.116 362.225 221.263 357.345L221.264 357.344L220.609 357.485Z" fill="url(#paint7_radial_7605_15137)" fill-opacity="0.1"/>
<path d="M286.939 317.447L153.223 205.454L256.88 339.483C267.68 332.904 277.912 325.434 287.47 317.152L286.939 317.447Z" fill="url(#paint8_radial_7605_15137)" fill-opacity="0.1"/>
<path d="M-43.537 276.134L142.331 202.14L-53.7563 245.351L-53.9654 244.908C-51.6882 255.68 -48.1894 266.156 -43.537 276.134Z" fill="url(#paint9_radial_7605_15137)" fill-opacity="0.1"/>
<path d="M153.371 196.543L320.459 94.4315L320.915 94.7788C313.947 85.8516 306.068 77.6744 297.407 70.3796L153.371 196.543Z" fill="url(#paint10_radial_7605_15137)" fill-opacity="0.1"/>
<path d="M74.5758 42.5127L146.273 194.888L111.355 30.9894C98.587 33.874 86.0698 37.7751 73.9232 42.6555L74.5758 42.5127Z" fill="url(#paint11_radial_7605_15137)" fill-opacity="0.1"/>
<path d="M144.025 206.46L28.4913 350.351L27.8889 350.125L27.8901 350.126C38.7964 356.018 50.2342 360.867 62.0513 364.609L144.025 206.46Z" fill="url(#paint12_radial_7605_15137)" fill-opacity="0.1"/>
<path d="M142.866 204.171L-25.2756 305.571L-25.7289 305.221C-18.7606 314.149 -10.8818 322.326 -2.21994 329.621L142.866 204.171Z" fill="url(#paint13_radial_7605_15137)" fill-opacity="0.1"/>
<path d="M152.8 25.3373L148.95 194.549L192.566 26.6635C179.146 25.0617 165.613 24.6156 152.116 25.33H152.115L152.8 25.3373Z" fill="url(#paint14_radial_7605_15137)" fill-opacity="0.1"/>
<path d="M38.3065 60.5173C27.5063 67.0961 17.2741 74.5657 7.71685 82.8482L8.24689 82.5531L144.241 196.374L38.3065 60.5173Z" fill="url(#paint15_radial_7605_15137)" fill-opacity="0.1"/>
<path d="M348.938 154.65L349.151 155.092C346.874 144.321 343.376 133.845 338.724 123.867L153.913 198.578L348.938 154.65Z" fill="url(#paint16_radial_7605_15137)" fill-opacity="0.1"/>
<path d="M151.594 195.016L266.693 49.6519L267.296 49.8745C256.39 43.9827 244.953 39.1332 233.136 35.3916L151.594 195.016Z" fill="url(#paint17_radial_7605_15137)" fill-opacity="0.1"/>
<path d="M183.078 209.881C182.992 209.935 182.885 209.943 182.792 209.902L174.793 206.406C174.563 206.305 174.544 205.986 174.761 205.859L195.56 193.669C195.616 193.637 195.661 193.587 195.687 193.527L195.807 193.252C195.834 193.19 195.84 193.121 195.824 193.055L192.154 178.172C192.093 177.925 192.342 177.715 192.575 177.817L200.563 181.309C200.653 181.348 200.718 181.426 200.74 181.521L203.024 191.45C203.045 191.544 203.111 191.623 203.2 191.662L203.369 191.736C203.462 191.777 203.57 191.769 203.656 191.715L219.507 181.784C219.593 181.73 219.7 181.722 219.793 181.763L227.795 185.26C228.025 185.361 228.044 185.679 227.829 185.806L207.013 198.118C206.958 198.15 206.914 198.2 206.888 198.259L206.767 198.535C206.74 198.597 206.734 198.667 206.751 198.732L210.43 213.491C210.492 213.738 210.243 213.949 210.009 213.847L202.023 210.357C201.933 210.317 201.868 210.238 201.846 210.142L199.612 200.196C199.591 200.101 199.525 200.021 199.436 199.982L199.267 199.908C199.174 199.868 199.067 199.875 198.981 199.929L183.078 209.881Z" fill="#FDEB56"/>
<path d="M218.054 217.028C217.986 217.183 217.805 217.254 217.649 217.186L211.563 214.526C211.408 214.458 211.337 214.277 211.405 214.122L221.584 190.831C221.652 190.676 221.833 190.605 221.989 190.673L234.829 196.285C240.453 198.743 242.574 203.529 240.099 209.189C237.625 214.85 232.657 216.58 227.033 214.122L220.842 211.416C220.687 211.348 220.506 211.419 220.438 211.574L218.054 217.028ZM231.457 201.977L226.008 199.596C225.853 199.528 225.672 199.599 225.604 199.754L223.314 204.994C223.246 205.15 223.317 205.331 223.472 205.399L228.92 207.78C231.255 208.801 232.412 208.755 233.485 206.299C234.544 203.878 233.791 202.997 231.457 201.977Z" fill="#FDEB56"/>
<g opacity="0.4">
<path style="mix-blend-mode:multiply" d="M165.026 203.38C153.718 200.725 142.356 201.139 132.284 204.519C142.857 201.566 154.074 201.131 165.026 203.38Z" fill="url(#paint18_linear_7605_15137)"/>
</g>
<path d="M140.686 144.452C140.686 144.452 157.192 138.917 161.831 138.546C166.471 138.176 170.645 140.43 172.488 143.061C174.33 145.692 182.694 164.553 183.406 166.401C184.118 168.248 183.437 170.725 180.379 175.139C177.655 179.068 165.19 191.306 165.19 191.306L140.686 144.452Z" fill="#EF94FF"/>
<path d="M102.501 161.259L75.6175 191.314C72.5218 194.746 72.4286 199.94 75.3434 203.553C75.3434 203.553 81.897 212.953 87.5613 219.268C89.6274 221.576 92.713 222.757 95.7702 222.485C96.6981 222.411 97.3361 222.295 97.3361 222.295L136.704 215.39C144.836 213.774 148.288 211.783 152.921 205.672L178.969 174.639C178.969 174.639 179.433 174.084 180.1 173.352C181.733 171.455 182.144 168.792 181.296 166.452C176.785 154.563 172.746 145.789 172.746 145.789C170.71 140.793 164.651 138.268 159.485 139.629L122.286 149.153C114.601 151.158 107.731 155.322 102.501 161.259Z" fill="url(#paint19_linear_7605_15137)"/>
<path style="mix-blend-mode:screen" d="M159.485 139.627L122.286 149.151C114.601 151.157 107.732 155.321 102.501 161.258L75.6176 191.313C72.7995 194.459 72.4621 199.085 74.7059 202.632C72.9093 199.475 72.9809 196.497 78.5574 194.544C87.4068 191.433 104.512 188.943 116.438 187.485C124.831 186.528 132.451 182.087 137.478 175.292C146.878 162.763 161.413 143.513 163.846 141.613C165.375 140.442 166.866 140.359 168.113 140.745C165.504 139.336 162.351 138.825 159.485 139.627Z" fill="url(#paint20_linear_7605_15137)"/>
<path style="mix-blend-mode:multiply" d="M168.114 140.745C167.694 140.507 167.25 140.305 166.78 140.139C166.126 140.164 165.194 140.474 163.847 141.613C160.544 144.424 141.964 169.396 137.479 175.292C136.747 176.272 136.041 177.137 135.362 177.888C131.914 181.713 131.323 187.28 134.043 191.634C138.245 198.449 143.171 206.403 144.313 208.549C147.145 213.777 97.3373 222.293 97.3373 222.293C97.3373 222.293 123.747 217.644 136.705 215.388C146.184 213.669 148.169 211.379 152.923 205.67C162.558 194.18 178.97 174.637 178.97 174.637C178.97 174.637 179.434 174.083 180.101 173.35C181.734 171.453 182.145 168.79 181.297 166.45C176.787 154.561 172.747 145.787 172.747 145.787C171.824 143.554 170.147 141.835 168.114 140.745Z" fill="url(#paint21_linear_7605_15137)"/>
<path style="mix-blend-mode:multiply" opacity="0.6" d="M113.461 212.595L101.039 191.081L105.292 183.91L138.84 144.928L139.917 144.638C139.917 144.638 109.26 183.472 107.433 186.11C105.551 188.71 105.339 190.396 106.162 193.117C106.969 195.748 120.336 218.313 120.336 218.313L117.038 218.817L113.461 212.595Z" fill="url(#paint22_linear_7605_15137)"/>
<path style="mix-blend-mode:multiply" opacity="0.6" d="M162.859 194.551L165.781 190.68L149.193 163.333L143.174 162.589L90.2462 174.919L89.3924 175.921C89.3924 175.921 137.378 166.7 140.961 166.473C144.581 166.193 147.042 165.747 148.872 168.05C150.665 170.408 163.555 193.201 163.555 193.201L162.312 194.65L166.087 190.812L162.859 194.551Z" fill="url(#paint23_linear_7605_15137)"/>
<g style="mix-blend-mode:screen" opacity="0.8">
<path d="M102.942 189.37C102.942 189.37 124.775 184.658 129.918 189.655C135.098 194.598 142.479 205.448 142.479 205.448C142.479 205.448 136.493 195.804 134.043 191.636C131.609 187.56 131.494 182.78 135.361 177.89C139.191 173.054 143.692 167.249 143.692 167.249C143.692 167.249 133.87 177.972 125.438 182.09C116.953 186.17 102.942 189.37 102.942 189.37Z" fill="#FFE239"/>
</g>
<path d="M161.22 195.883L166.652 191.838C168.326 190.687 168.874 188.517 167.926 186.666C164.532 180.41 157.147 166.689 155.355 163.297C152.909 158.893 149.338 157.375 143.331 159.03C137.962 160.568 92.8189 169.368 92.8189 169.368L89.3955 173.848L90.2484 174.917C90.2484 174.917 131.522 167.102 137.252 165.733C143.019 164.31 148.118 162.585 150.962 168.141C153.86 173.733 164.448 192.144 164.448 192.144L161.22 195.883Z" fill="url(#paint24_linear_7605_15137)"/>
<path style="mix-blend-mode:multiply" d="M162.384 194.779L165.189 191.305C165.189 191.305 153.781 170.972 151.244 166.585C148.992 162.475 145.462 162.739 140.976 163.694C137.802 164.364 89.3947 173.85 89.3947 173.85L90.2476 174.919C90.2476 174.919 131.521 167.103 137.251 165.734C143.018 164.312 148.118 162.587 150.961 168.142C153.859 173.735 164.448 192.145 164.448 192.145L161.219 195.884L162.384 194.779Z" fill="url(#paint25_linear_7605_15137)"/>
<path d="M122.321 218.095L115.842 219.741C114.545 220.117 113.083 219.582 112.396 218.389C108.968 212.987 99.712 198.288 98.2092 195.972C96.425 193.142 97.6984 189.005 100.918 185.739C104.084 182.435 133.047 144.897 133.047 144.897L138.03 143.569L138.842 144.928C138.842 144.928 110.597 179.936 106.502 185.385C102.408 190.834 103.877 192.967 105.69 196.215C107.557 199.5 119.335 218.495 119.335 218.495L122.321 218.095Z" fill="url(#paint26_linear_7605_15137)"/>
<path style="mix-blend-mode:multiply" d="M122.321 218.095L119.335 218.495C119.335 218.495 107.557 199.5 105.69 196.215C103.877 192.967 102.408 190.834 106.502 185.385C110.597 179.936 138.842 144.928 138.842 144.928L138.03 143.569C138.03 143.569 105.285 185.417 103.718 187.678C102.151 189.939 102.196 192.519 103.04 194.06C103.922 195.548 117.823 218.723 117.823 218.723L121.083 218.272L122.321 218.095Z" fill="url(#paint27_linear_7605_15137)"/>
<g style="mix-blend-mode:screen">
<path d="M99.8241 186.972C96.9481 190.317 96.8679 193.767 98.209 195.971C99.5874 198.121 100.771 199.976 100.771 199.976C100.771 199.976 97.9772 195.73 99.245 194.936C100.422 194.157 103.991 195.675 103.991 195.675C103.991 195.675 103.565 195.14 103.039 194.059C102.514 192.978 101.745 190.294 103.717 187.677C105.653 185.114 102.018 189.209 100.61 189.747C99.2387 190.231 99.8241 186.972 99.8241 186.972Z" fill="#C8C8C7"/>
</g>
<g style="mix-blend-mode:screen" opacity="0.7">
<path d="M145.918 158.517C150.255 157.778 152.98 159.825 154.45 161.959C155.957 164.038 156.669 165.886 156.669 165.886C156.669 165.886 154.023 161.424 152.151 162.517C149.748 163.8 151.788 167.524 151.788 167.524C151.788 167.524 150.965 165.838 150.054 164.968C149.126 164.007 147.693 162.855 144.454 163.16C141.214 163.465 146.903 161.351 148.009 160.444C149.153 159.484 145.918 158.517 145.918 158.517Z" fill="#C8C8C7"/>
</g>
<path d="M157.098 90.4113C154.222 92.7213 147.812 97.6019 145.881 99.9288C146.315 99.9911 147.226 100.861 147.226 100.861C147.226 100.861 152.343 99.2273 156.182 101.967C158.136 103.4 158.969 104.614 159.088 106.052C159.54 106.205 160.434 106.984 160.434 106.984C160.434 106.984 160.734 92.2931 169.767 96.1611C179.09 100.071 183.672 107.946 185.865 114.325C186.136 115.469 186.304 116.568 186.369 117.622C186.834 126.151 177.028 129.953 163.08 130.647C150.441 131.292 135.808 116.533 127.699 132.029C122.09 142.882 119.47 157.241 119.203 163.031C119.215 163.358 120.549 163.963 120.549 163.963C120.889 162.207 123.12 146.225 128.223 138.287C133.271 130.312 153.563 134.491 163.339 134.412C171.79 134.291 184.698 133.833 186.499 124.564C187.757 118.265 187.957 105.098 180.462 97.5156C170.628 87.6748 161.32 86.9629 157.098 90.4113Z" fill="url(#paint28_linear_7605_15137)"/>
<path d="M168.459 95.1745C174.643 96.8295 185.584 106.799 186.913 118.794C188.295 130.827 171.717 133.363 161.94 133.442C152.218 133.558 131.926 129.379 126.824 137.317C121.775 145.292 119.544 161.275 119.204 163.031C119.204 163.031 118.283 146.538 126.391 131.042C134.463 115.601 149.096 130.36 161.735 129.714C175.683 129.02 185.526 125.164 185.024 116.69C184.614 108.199 175.662 96.7388 168.459 95.1745Z" fill="url(#paint29_linear_7605_15137)"/>
<path d="M186.598 123.041C187.465 120.295 190.316 106.177 180.519 96.2824C170.722 86.3878 159.973 86.0314 155.697 89.4426C151.474 92.891 145.879 99.9299 145.879 99.9299C145.879 99.9299 150.996 98.2959 154.834 101.035C158.673 103.774 159.087 106.053 159.087 106.053C159.087 106.053 159.408 91.2168 168.457 95.1758C184.879 102.41 187.031 117.127 186.598 123.041Z" fill="url(#paint30_linear_7605_15137)"/>
<path d="M167.229 94.8822C170.368 96.1011 176.353 97.6981 180.166 102.889C184.016 108.027 188.022 117.654 186.599 123.042C185.703 126.405 184.63 126.458 184.22 127.05C187.565 122.914 186.738 119.393 184.383 112.902C178.644 97.6121 167.229 94.8822 167.229 94.8822Z" fill="url(#paint31_linear_7605_15137)"/>
<g style="mix-blend-mode:screen" opacity="0.7">
<path d="M127.864 136.044C127.864 136.044 128.188 135.232 131.829 133.772C135.471 132.311 137.7 132.66 137.7 132.66C137.7 132.66 135.128 131.197 135.062 128.761C135.026 126.744 135.694 124.976 136.443 124.699C137.231 124.368 138.399 124.062 138.399 124.062C138.399 124.062 135.806 123.779 134.418 124.172C133.03 124.565 130.184 125.222 127.61 128.936C128.335 128.005 129.346 128.386 129.544 129.48C130.214 132.653 127.864 136.044 127.864 136.044Z" fill="#D0CECD"/>
</g>
<g style="mix-blend-mode:screen" opacity="0.7">
<path d="M153.149 91.7392C153.149 91.7392 154.785 90.6422 156.169 91.5209C157.498 92.3622 161.151 94.3351 161.171 95.2256C161.191 96.1161 160.735 98.2697 160.735 98.2697C160.735 98.2697 161.68 96.2157 163.188 95.1892C164.788 94.1461 167.012 94.731 167.012 94.731C167.012 94.731 165.513 94.2499 163.442 93.2136C161.371 92.1773 156.948 90.6265 157.698 89.3139C158.502 88.0385 159.397 87.7821 159.397 87.7821C159.397 87.7821 157.52 88.0754 156.286 89.0524C155.013 90.0832 153.149 91.7392 153.149 91.7392Z" fill="#D0CECD"/>
</g>
<path d="M120.679 161.823C121.523 165.435 118.617 140.077 122.721 132.085C127.517 122.979 134.602 120 138.839 120.785C142.969 121.495 144.869 124.962 144.869 124.962L142.662 113.314C142.662 113.314 133.599 111.099 129.256 114.146C123.037 118.521 112.528 127.016 120.679 161.823Z" fill="url(#paint32_linear_7605_15137)"/>
<path d="M122.84 163.878C122.84 163.878 151.634 151.878 154.204 137.246C156.758 122.523 148.993 117.86 145.142 114.794C141.274 111.636 134.335 111.53 132.231 112.382C132.231 112.382 137.285 111.183 140.618 115.803C157.178 138.589 124.598 160.076 122.696 161.786C120.885 163.479 122.84 163.878 122.84 163.878Z" fill="url(#paint33_linear_7605_15137)"/>
<g style="mix-blend-mode:screen">
<path d="M154.678 133.111C154.678 133.111 154.59 135.998 153.619 139.468C152.594 142.901 148.575 147.207 148.575 147.207C148.575 147.207 152.155 143.075 150.048 141.057C147.994 139.077 144.841 140.637 144.414 141.138C143.933 141.601 142.234 143.133 142.234 143.133C142.234 143.133 145.501 137.27 145.875 133.625C146.195 129.943 145.92 125.052 145.92 125.052C145.92 125.052 146.295 129.454 148.067 131.957C149.822 134.368 151.678 135.255 152.299 135.048C154.586 134.163 154.678 133.111 154.678 133.111Z" fill="#C8C8C7"/>
</g>
<path style="mix-blend-mode:multiply" opacity="0.4" d="M144.26 121.354C144.905 122.837 141.568 119.489 135.876 119.769C129.621 120.056 125.402 125.339 124.976 124.805C123.133 122.174 128.744 116.262 134.722 115.224C140.298 114.307 143.474 119.614 144.26 121.354Z" fill="url(#paint34_linear_7605_15137)"/>
<path d="M116.841 144.821C115.775 127.272 122.017 118.61 125.366 115.273C127.993 112.631 132.737 110.5 137.239 111.707C140.404 112.545 145.82 116.457 146.217 128.763C146.81 148.375 122.14 162.356 121.883 162.496L121.254 162.14C121.474 162.053 145.017 147.053 144.374 128.203C144.108 119.733 141.446 115.18 136.745 113.915C133.038 112.94 127.466 115.692 125.19 117.94C121.046 122.08 113.557 133.463 121.254 162.14L119.767 161.986C118.03 155.524 117.133 149.804 116.841 144.821Z" fill="url(#paint35_linear_7605_15137)"/>
<path style="mix-blend-mode:multiply" d="M121.884 162.498C121.884 162.498 134.062 155.159 138.48 149.934C142.898 144.709 149.004 142.566 148.365 145.788C147.543 150.079 130.489 159.855 126.632 162.202C122.041 164.917 121.11 163.156 121.884 162.498Z" fill="url(#paint36_linear_7605_15137)"/>
<path style="mix-blend-mode:multiply" d="M118.758 168.617C118.758 168.617 127.218 164.918 126.241 163.683C125.301 162.395 122.923 163.297 122.923 163.297L118.758 168.617Z" fill="url(#paint37_linear_7605_15137)"/>
<path d="M117.387 163.927C117.387 163.927 114.75 149.91 108.915 147.062C103.133 144.252 91.8393 147.9 86.546 146.225C81.2692 144.64 69.3926 125.099 76.1055 119.551C82.7811 114.058 94.0269 116.113 94.2774 121.385C94.5653 126.604 89.8006 128.88 89.8006 128.88L91.954 130.372C91.954 130.372 116.716 114.304 102.735 113.78C88.7009 113.22 82.4327 115.251 77.2538 117.319C71.9839 119.405 72.8351 124.616 73.8402 128.339C74.8453 132.063 75.4897 146.771 80.3231 148.765C85.1399 150.668 100.751 144.354 104.187 149.284C107.623 154.215 116.488 164.419 116.488 164.419L117.387 163.927Z" fill="url(#paint38_linear_7605_15137)"/>
<path d="M118.362 163.325C118.362 163.325 115.725 149.308 109.943 146.498C104.145 143.596 92.868 147.336 87.5747 145.66C82.2814 143.985 70.4586 124.481 77.1342 118.987C83.8098 113.494 96.0581 115.366 96.3087 120.639C96.6504 125.895 91.9552 130.371 91.9552 130.371L103.195 126.685C103.195 126.685 117.744 113.739 103.71 113.179C89.7296 112.655 83.4987 114.632 78.2287 116.718C73.0126 118.84 73.4412 124.316 74.3924 128.003C75.3975 131.727 76.7796 145.83 81.613 147.824C86.4298 149.727 101.726 143.753 105.162 148.683C108.636 153.559 117.554 163.801 117.554 163.801L118.362 163.325Z" fill="url(#paint39_linear_7605_15137)"/>
<path style="mix-blend-mode:multiply" d="M117.611 162.564C117.033 159.375 114.646 150.63 111.581 149.304C108.479 148.031 105.932 147.222 108.689 151.523C111.483 155.769 117.611 162.564 117.611 162.564Z" fill="url(#paint40_linear_7605_15137)"/>
<g style="mix-blend-mode:screen">
<path d="M104.236 113.223C104.236 113.223 106.311 114.024 105.536 114.682C104.762 115.34 98.1783 117.711 97.0681 117.818C95.9579 117.925 93.0712 116.802 93.0712 116.802C93.0712 116.802 95.846 118.087 96.2305 119.947C96.6315 121.898 95.9431 123.811 95.9431 123.811C95.9431 123.811 96.9838 121.504 98.0902 120.598C99.1593 119.745 108.771 115.648 109.061 116.725C109.388 117.748 108.595 120.386 108.595 120.386C108.595 120.386 111.004 116.796 109.165 114.965C107.364 113.08 104.236 113.223 104.236 113.223Z" fill="#C8C8C7"/>
</g>
<g style="mix-blend-mode:screen">
<path d="M73.9215 125.921C73.9215 125.921 75.4273 131.107 76.8618 138.235C77.4074 141.243 79.1815 148.686 85.4409 148.163C78.1913 149.195 77.4278 142.133 76.733 139.341C76.0755 136.496 73.9215 125.921 73.9215 125.921Z" fill="#C8C8C7"/>
</g>
<path d="M115.223 167.048C118.128 165.157 97.1258 176.261 89.2428 176.137C80.0509 176.063 75.5995 172.023 75.0581 168.78C74.5706 165.574 76.9784 163.02 76.9784 163.02L67.6101 168.719C67.6101 168.719 68.1705 175.959 72.0056 177.899C77.5139 180.759 87.6444 185.228 115.223 167.048Z" fill="url(#paint41_linear_7605_15137)"/>
<path d="M116.411 164.76C116.411 164.76 98.1872 148.629 84.9178 152.024C71.6483 155.419 69.7938 162.58 68.2347 166.439C66.5845 170.315 68.4217 175.253 69.6723 176.438C69.6723 176.438 67.2585 173.252 70.3462 169.256C85.2917 149.415 112.667 164.875 114.634 165.601C116.639 166.272 116.411 164.76 116.411 164.76Z" fill="url(#paint42_linear_7605_15137)"/>
<g style="mix-blend-mode:screen">
<path d="M81.2628 153.159C81.2628 153.159 83.7693 152.186 87.0131 151.645C90.2568 151.104 95.0656 152.444 95.0656 152.444C95.0656 152.444 90.5425 151.381 89.4314 153.56C88.2292 155.754 90.4158 157.428 90.9584 157.565C91.501 157.702 93.3234 158.407 93.3234 158.407C93.3234 158.407 87.3874 158.119 84.1518 159.223C80.8623 160.291 76.7937 162.252 76.7937 162.252C76.7937 162.252 80.4604 160.411 82.0975 158.278C83.7346 156.146 83.9093 154.514 83.607 154.145C82.2323 152.795 81.2628 153.159 81.2628 153.159Z" fill="#C8C8C7"/>
</g>
<path style="mix-blend-mode:multiply" opacity="0.4" d="M74.0952 164.764C75.1312 163.729 73.2326 167.274 75.0329 171.23C76.9906 175.534 82.6942 176.618 82.3212 177.156C80.5722 179.45 73.9575 177.496 71.4281 173.672C69.0766 170.051 72.8396 165.886 74.0952 164.764Z" fill="url(#paint43_linear_7605_15137)"/>
<path d="M101.66 175.813C87.0178 182.798 77.8305 181.453 74.0904 180.296C71.0917 179.333 67.9404 176.752 67.7513 173.115C67.5783 170.605 69.4528 165.371 79.8936 160.653C96.4868 153.267 115.284 165.812 115.446 165.924L115.363 166.503C115.201 166.391 95.873 155.072 79.9385 162.198C72.7584 165.43 69.5715 168.879 69.7936 172.698C69.9581 175.68 73.884 178.639 76.4312 179.447C81.0743 180.911 92.8796 182.159 115.363 166.503L115.652 167.58C110.556 171.14 105.911 173.818 101.66 175.813Z" fill="url(#paint44_linear_7605_15137)"/>
<path style="mix-blend-mode:multiply" d="M115.444 165.925C115.444 165.925 105.832 159.903 100.132 158.583C94.4493 157.355 90.9339 153.804 93.9084 153.076C97.7943 152.183 110.831 160.737 113.867 162.681C117.478 164.944 116.255 166.248 115.444 165.925Z" fill="url(#paint45_linear_7605_15137)"/>
<path d="M123.757 162.441C125.028 164.517 122.654 166.218 119.696 168.072C116.737 169.927 114.297 171.264 113.026 169.188C111.756 167.113 113.12 163.995 116.078 162.14C119.036 160.286 122.449 160.42 123.757 162.441Z" fill="url(#paint46_linear_7605_15137)"/>
<g style="mix-blend-mode:screen">
<path d="M116.468 166.632C115.626 167.961 114.396 168.702 113.659 168.271C112.922 167.84 113.038 166.407 113.863 164.987C114.704 163.658 115.935 162.917 116.672 163.348C117.409 163.779 117.293 165.212 116.468 166.632Z" fill="#C8C8C7"/>
</g>
<path style="mix-blend-mode:multiply" d="M119.695 168.071C122.653 166.217 125.027 164.516 123.756 162.44C123.032 161.301 121.661 160.75 120.025 160.811C121.417 161.218 122.063 161.665 121.925 163.243C121.821 165.003 116.409 169.938 114.815 169.71C113.204 169.39 113.026 169.187 113.026 169.187C114.296 171.263 116.737 169.926 119.695 168.071Z" fill="url(#paint47_linear_7605_15137)"/>
<path d="M182.446 234.012C182.446 234.012 199.714 238.646 203.905 240.992C208.079 243.247 210.364 247.538 210.45 250.864C210.573 254.136 196.277 296.497 195.476 300.643C195.015 303.032 194.102 306.304 190.66 307.823C187.125 309.358 159.91 319.424 159.91 319.424L182.446 234.012Z" fill="#EF94FF"/>
<path d="M140.334 226.826L100.393 237.317C95.8108 238.525 92.7892 242.885 93.214 247.561L103.977 295.731C104.489 299.591 106.845 302.976 110.245 304.853L135.483 318.913C143.021 323.099 152.192 323.318 159.911 319.424L186.899 307.846C190.18 306.215 192.597 303.188 193.551 299.627L209.099 253.274C210.249 247.935 206.498 242.309 201.279 240.526L164.119 227.688C156.444 225.08 148.147 224.75 140.334 226.826Z" fill="url(#paint48_linear_7605_15137)"/>
<path style="mix-blend-mode:screen" d="M201.278 240.526L164.118 227.688C156.443 225.08 148.146 224.749 140.332 226.825L100.391 237.317C96.1199 238.421 93.2352 242.239 93.159 246.488C93.4256 242.769 95.1416 240.293 101.056 241.761C110.372 244.072 126.387 251.662 137.408 257.146C145.169 261.009 154.17 261.589 162.291 258.61C177.413 253.232 200.671 244.966 203.874 244.714C205.874 244.587 207.15 245.391 207.986 246.369C206.653 243.692 204.185 241.505 201.278 240.526Z" fill="url(#paint49_linear_7605_15137)"/>
<path d="M163.351 229.945C161.201 229.252 150.154 226.22 143.265 228.458C136.338 230.75 104.782 237.65 103.341 238.006C101.915 238.452 100.904 240.142 105.663 241.208C110.368 242.237 131.234 251.913 138.267 253.837C148.448 256.509 155.18 255.994 160.192 255.084C163.747 254.44 193.737 244.623 194.98 244.21C198.27 243.142 200.88 241.445 195.69 240.08C190.5 238.716 164.345 230.235 163.351 229.945Z" fill="#FFEEC8"/>
<path d="M163.351 229.945C161.996 229.485 157.241 228.182 152.126 227.745C151.626 233.295 150.34 248.259 149.678 255.768C153.962 256.026 157.367 255.597 160.192 255.084C163.747 254.44 193.737 244.623 194.98 244.21C198.27 243.142 200.88 241.445 195.69 240.08C190.5 238.716 164.345 230.235 163.351 229.945Z" fill="url(#paint50_linear_7605_15137)"/>
<path d="M183.385 234.268C183.385 234.268 180.912 234.387 180.444 235.178C179.959 235.878 173.142 233.067 173.142 233.067C173.142 233.067 173.536 230.313 175.666 229.08C177.833 227.792 183.802 229.298 186.079 230.956C188.32 232.667 187.651 235.471 187.651 235.471L183.385 234.268Z" fill="url(#paint51_linear_7605_15137)"/>
<path style="mix-blend-mode:multiply" d="M187.653 235.47L183.387 234.267C183.387 234.267 181.043 234.316 180.446 235.177C179.787 235.438 177.638 234.745 177.638 234.745C177.638 234.745 179.159 231.975 182.216 231.703C184.018 231.517 186.846 232.839 187.653 235.47Z" fill="url(#paint52_linear_7605_15137)"/>
<path d="M125.232 231.024C125.232 231.024 127.589 231.303 128.156 232.094C128.632 232.902 134.98 230.527 134.98 230.527C134.98 230.527 134.467 227.702 132.33 226.302C130.139 224.863 124.505 225.979 122.425 227.486C120.399 229.03 121.201 231.897 121.201 231.897L125.232 231.024Z" fill="url(#paint53_linear_7605_15137)"/>
<path style="mix-blend-mode:multiply" d="M121.202 231.898L125.233 231.026C125.233 231.026 127.482 231.229 128.157 232.095C128.786 232.452 130.758 231.906 130.758 231.906C130.758 231.906 129.102 229.006 126.187 228.5C124.43 228.159 121.812 229.293 121.202 231.898Z" fill="url(#paint54_linear_7605_15137)"/>
<path style="mix-blend-mode:multiply" d="M207.986 246.372C207.751 245.944 207.504 245.534 207.245 245.142C206.653 244.731 205.675 244.532 203.873 244.718C199.449 245.238 169.458 256.09 162.29 258.613C161.144 259.041 160.06 259.379 159.038 259.627C153.909 260.934 150.25 265.409 150.119 270.657C149.863 278.845 149.582 288.45 149.374 290.935C148.775 296.974 148.877 299.355 148.665 302.076C148.469 304.889 149.234 318.963 145.025 319.632C139.524 320.442 119.757 309.296 110.243 304.857L135.481 318.916C143.019 323.102 152.19 323.321 159.909 319.427L186.897 307.849C190.179 306.218 192.595 303.192 193.549 299.63L209.097 253.277C209.612 250.925 209.128 248.518 207.986 246.372Z" fill="url(#paint55_linear_7605_15137)"/>
<path style="mix-blend-mode:multiply" opacity="0.6" d="M130.415 251.03C127.287 252.209 126.267 253.335 125.454 256.118C124.641 258.901 125.426 306.292 124.998 308.864C124.533 311.49 128.574 315.087 128.574 315.087L122.909 311.879L122.212 251.482L126.281 249.521C126.281 249.521 128.178 250.118 130.415 251.03Z" fill="url(#paint56_linear_7605_15137)"/>
<path style="mix-blend-mode:multiply" opacity="0.6" d="M169.582 252.349C172.783 254.168 175.914 255.86 176.133 258.879C176.351 261.899 169.66 306.739 169.319 309.531C168.924 312.285 166.396 316.508 166.396 316.508L169.192 315.578L172.475 310.841L179.055 255.008L174.367 250.963C174.367 250.963 174.442 250.856 169.582 252.349Z" fill="url(#paint57_linear_7605_15137)"/>
<g style="mix-blend-mode:screen" opacity="0.8">
<path d="M124.872 251.093C124.872 251.093 146.106 259.43 147.74 266.617C149.319 273.766 149.55 287.232 149.55 287.232C149.55 287.232 149.886 275.593 150.12 270.656C150.354 265.719 152.953 261.624 159.039 259.626C165.034 257.644 172.126 255.229 172.126 255.229C172.126 255.229 157.726 258.876 148.174 257.596C138.622 256.317 124.872 251.093 124.872 251.093Z" fill="#FFE239"/>
</g>
<path d="M130.414 251.027C124.118 250.569 123.553 254.719 123.303 258.53C123.053 262.34 123.771 308.331 123.746 309.747C123.812 311.147 126.917 314.255 126.917 314.255L126.184 315.659L120.953 313.548C120.953 313.548 118.804 310.785 118.179 308.122C117.592 305.404 116.998 257.508 117.041 254.112C117.121 250.662 120.349 247.958 125.06 246.681C126.539 246.271 130.242 246.447 130.738 248.145C131.355 250.245 130.414 251.027 130.414 251.027Z" fill="url(#paint58_linear_7605_15137)"/>
<path style="mix-blend-mode:multiply" d="M130.414 251.03C130.754 250.309 130.551 249.452 130.228 249.228C129.582 248.78 127.349 249.703 126.433 250.104C123.815 251.238 122.376 253.429 122.272 255.189C122.114 256.912 122.26 306.489 122.254 309.832C122.34 313.158 126.183 315.661 126.183 315.661L126.917 314.257C126.917 314.257 123.811 311.149 123.746 309.749C123.771 308.333 123.052 262.342 123.302 258.532C123.552 254.721 124.449 250.323 130.414 251.03Z" fill="url(#paint59_linear_7605_15137)"/>
<g style="mix-blend-mode:screen">
<path d="M123.522 247.291C119.139 248.557 117.125 251.463 117.041 254.114C116.994 256.711 116.973 258.926 116.973 258.926C116.973 258.926 116.975 253.749 118.483 253.758C119.99 253.767 122.147 257.094 122.147 257.094C122.147 257.094 122.069 256.402 122.272 255.189C122.422 253.938 123.288 251.192 126.433 250.104C129.523 248.979 124.101 250.48 122.618 250.09C121.189 249.738 123.522 247.291 123.522 247.291Z" fill="#C8C8C7"/>
</g>
<path d="M170.512 252.038C170.512 252.038 178.547 253.781 177.869 260.163C177.138 266.508 172.064 306.255 170.749 311.717C170.122 314.231 168.295 315.833 168.295 315.833L169.342 317.196L174.21 315.231C174.21 315.231 175.893 312.573 176.354 310.183C177.524 304.7 183.858 263.595 184.332 258.426C184.769 253.311 182.012 250.046 178.996 248.993C178.864 248.954 178.731 248.915 178.599 248.877C176.992 248.321 175.053 248.014 173.214 248.253C171.503 248.422 166.242 250.036 167.972 252.828C169.066 252.629 170.512 252.038 170.512 252.038Z" fill="url(#paint60_linear_7605_15137)"/>
<path style="mix-blend-mode:multiply" d="M179.018 258.967C179.083 252.319 168.129 246.164 167.973 252.828C167.952 252.973 170.512 252.038 170.512 252.038C170.512 252.038 178.548 253.781 177.87 260.163C177.138 266.508 172.065 306.255 170.749 311.718C170.123 314.231 168.295 315.834 168.295 315.834L169.343 317.197C169.343 317.197 172.273 312.853 172.618 309.825C172.963 306.798 178.962 264.107 179.018 258.967Z" fill="url(#paint61_linear_7605_15137)"/>
<g style="mix-blend-mode:screen" opacity="0.7">
<path d="M178.996 248.993C183.142 250.83 184.263 254.156 184.324 256.828C184.422 259.445 184.078 261.437 184.078 261.437C184.078 261.437 184.337 256.119 182.087 255.916C179.275 255.72 178.942 260.11 178.942 260.11C178.942 260.11 179.195 258.134 178.926 256.913C178.641 255.599 177.623 253.619 174.662 251.568C171.916 249.666 178.178 252.012 179.707 251.876C181.236 251.74 178.996 248.993 178.996 248.993Z" fill="#C8C8C7"/>
</g>
<g opacity="0.5">
<path style="mix-blend-mode:screen" opacity="0.8" d="M188.12 153.733C192.037 148.081 199.875 146.659 205.582 150.613C211.234 154.529 212.656 162.366 208.739 168.018C204.785 173.724 196.984 175.092 191.332 171.176C185.625 167.222 184.166 159.439 188.12 153.733Z" fill="url(#paint62_radial_7605_15137)"/>
</g>
<path d="M199.91 161.898C199.35 162.705 198.219 162.957 197.412 162.398C196.551 161.801 196.39 160.654 196.949 159.846C197.509 159.039 198.602 158.841 199.464 159.437C200.271 159.997 200.469 161.09 199.91 161.898Z" fill="#FFF3BF"/>
<g opacity="0.5">
<path style="mix-blend-mode:screen" opacity="0.8" d="M242.143 179.605C246.06 173.953 253.898 172.531 259.55 176.447C265.257 180.401 266.679 188.238 262.762 193.89C258.807 199.596 250.969 201.018 245.263 197.064C239.61 193.148 238.188 185.311 242.143 179.605Z" fill="url(#paint63_radial_7605_15137)"/>
</g>
<path d="M253.932 187.774C253.335 188.635 252.242 188.833 251.381 188.236C250.573 187.677 250.375 186.584 250.972 185.722C251.531 184.915 252.625 184.717 253.432 185.276C254.293 185.873 254.492 186.966 253.932 187.774Z" fill="#FFF3BF"/>
<g opacity="0.5">
<path style="mix-blend-mode:screen" opacity="0.8" d="M209.532 237.245C213.448 231.593 221.233 230.134 226.939 234.087C232.592 238.003 234.014 245.84 230.097 251.492C226.142 257.198 218.342 258.566 212.689 254.65C206.982 250.697 205.577 242.951 209.532 237.245Z" fill="url(#paint64_radial_7605_15137)"/>
</g>
<path d="M221.268 245.374C220.709 246.182 219.578 246.434 218.77 245.874C217.963 245.315 217.802 244.168 218.361 243.36C218.921 242.553 220.015 242.355 220.822 242.914C221.629 243.473 221.828 244.567 221.268 245.374Z" fill="#FFF3BF"/>
<g opacity="0.5">
<path style="mix-blend-mode:screen" opacity="0.8" d="M238.71 219.055C240.688 216.202 244.607 215.492 247.46 217.468C250.313 219.445 251.024 223.364 249.047 226.216C247.07 229.069 243.151 229.78 240.297 227.804C237.444 225.827 236.733 221.908 238.71 219.055Z" fill="url(#paint65_radial_7605_15137)"/>
</g>
<path d="M244.633 223.159C244.334 223.589 243.787 223.689 243.357 223.39C242.98 223.129 242.881 222.583 243.179 222.152C243.478 221.721 244.024 221.622 244.401 221.883C244.832 222.181 244.931 222.728 244.633 223.159Z" fill="#FFF3BF"/>
<g opacity="0.5">
<path style="mix-blend-mode:screen" opacity="0.8" d="M104.361 224.693C106.338 221.84 110.294 221.076 113.147 223.052C116.001 225.029 116.674 229.001 114.697 231.854C112.72 234.707 108.801 235.418 105.948 233.441C103.094 231.465 102.384 227.546 104.361 224.693Z" fill="url(#paint66_radial_7605_15137)"/>
</g>
<path d="M110.281 228.795C110.02 229.171 109.474 229.271 109.043 228.972C108.666 228.711 108.513 228.127 108.774 227.75C109.073 227.32 109.673 227.258 110.05 227.519C110.481 227.817 110.58 228.364 110.281 228.795Z" fill="#FFF3BF"/>
<g opacity="0.5">
<path style="mix-blend-mode:screen" opacity="0.8" d="M159.644 212.64C161.622 209.787 165.541 209.077 168.394 211.053C171.247 213.03 171.958 216.948 169.981 219.801C167.966 222.708 164.047 223.419 161.194 221.442C158.341 219.466 157.63 215.547 159.644 212.64Z" fill="url(#paint67_radial_7605_15137)"/>
</g>
<path d="M165.566 216.742C165.267 217.172 164.667 217.234 164.29 216.973C163.859 216.675 163.76 216.128 164.059 215.698C164.32 215.321 164.867 215.222 165.297 215.52C165.674 215.781 165.827 216.365 165.566 216.742Z" fill="#FFF3BF"/>
<g opacity="0.5">
<path style="mix-blend-mode:screen" opacity="0.8" d="M176.388 193.887C178.365 191.034 182.375 190.307 185.228 192.284C188.082 194.26 188.755 198.233 186.778 201.086C184.801 203.939 180.882 204.65 178.029 202.673C175.175 200.696 174.411 196.74 176.388 193.887Z" fill="url(#paint68_radial_7605_15137)"/>
</g>
<path d="M182.311 197.99C182.05 198.367 181.503 198.466 181.126 198.205C180.695 197.906 180.596 197.36 180.857 196.983C181.156 196.552 181.703 196.453 182.133 196.751C182.51 197.013 182.609 197.559 182.311 197.99Z" fill="#FFF3BF"/>
<g opacity="0.5">
<path style="mix-blend-mode:screen" opacity="0.8" d="M176.884 141.888C178.861 139.035 182.817 138.271 185.671 140.247C188.578 142.261 189.251 146.234 187.274 149.087C185.297 151.94 181.378 152.651 178.471 150.637C175.618 148.66 174.907 144.741 176.884 141.888Z" fill="url(#paint69_radial_7605_15137)"/>
</g>
<path d="M182.809 145.986C182.548 146.363 182.001 146.462 181.571 146.164C181.194 145.903 181.095 145.356 181.356 144.979C181.654 144.548 182.201 144.449 182.578 144.71C183.009 145.009 183.108 145.555 182.809 145.986Z" fill="#FFF3BF"/>
<g opacity="0.5">
<path style="mix-blend-mode:screen" opacity="0.8" d="M201.265 132.003C203.242 129.15 207.161 128.439 210.014 130.416C212.868 132.392 213.579 136.311 211.601 139.164C209.624 142.017 205.705 142.728 202.852 140.751C199.999 138.774 199.288 134.856 201.265 132.003Z" fill="url(#paint70_radial_7605_15137)"/>
</g>
<path d="M207.186 136.106C206.925 136.483 206.341 136.636 205.91 136.338C205.533 136.076 205.417 135.439 205.678 135.062C205.977 134.631 206.578 134.569 206.954 134.83C207.385 135.129 207.484 135.675 207.186 136.106Z" fill="#FFF3BF"/>
</g>
<defs>
<radialGradient id="paint0_radial_7605_15137" cx="0" cy="0" r="1" gradientUnits="userSpaceOnUse" gradientTransform="translate(150 200) rotate(90) scale(200 150)">
<stop stop-color="#FDEB56" stop-opacity="0.25"/>
<stop offset="1" stop-color="#FDEB56" stop-opacity="0.05"/>
</radialGradient>
<radialGradient id="paint1_radial_7605_15137" cx="0" cy="0" r="1" gradientUnits="userSpaceOnUse" gradientTransform="translate(149.863 200) rotate(90) scale(175 206.863)">
<stop stop-color="white" stop-opacity="0.5"/>
<stop offset="0.907665" stop-color="white" stop-opacity="0"/>
</radialGradient>
<radialGradient id="paint2_radial_7605_15137" cx="0" cy="0" r="1" gradientUnits="userSpaceOnUse" gradientTransform="translate(149.863 200) rotate(90) scale(175 206.863)">
<stop stop-color="white" stop-opacity="0.5"/>
<stop offset="0.907665" stop-color="white" stop-opacity="0"/>
</radialGradient>
<radialGradient id="paint3_radial_7605_15137" cx="0" cy="0" r="1" gradientUnits="userSpaceOnUse" gradientTransform="translate(149.863 200) rotate(90) scale(175 206.863)">
<stop stop-color="white" stop-opacity="0.5"/>
<stop offset="0.907665" stop-color="white" stop-opacity="0"/>
</radialGradient>
<radialGradient id="paint4_radial_7605_15137" cx="0" cy="0" r="1" gradientUnits="userSpaceOnUse" gradientTransform="translate(149.863 200) rotate(90) scale(175 206.863)">
<stop stop-color="white" stop-opacity="0.5"/>
<stop offset="0.907665" stop-color="white" stop-opacity="0"/>
</radialGradient>
<radialGradient id="paint5_radial_7605_15137" cx="0" cy="0" r="1" gradientUnits="userSpaceOnUse" gradientTransform="translate(149.863 200) rotate(90) scale(175 206.863)">
<stop stop-color="white" stop-opacity="0.5"/>
<stop offset="0.907665" stop-color="white" stop-opacity="0"/>
</radialGradient>
<radialGradient id="paint6_radial_7605_15137" cx="0" cy="0" r="1" gradientUnits="userSpaceOnUse" gradientTransform="translate(149.863 200) rotate(90) scale(175 206.863)">
<stop stop-color="white" stop-opacity="0.5"/>
<stop offset="0.907665" stop-color="white" stop-opacity="0"/>
</radialGradient>
<radialGradient id="paint7_radial_7605_15137" cx="0" cy="0" r="1" gradientUnits="userSpaceOnUse" gradientTransform="translate(149.863 200) rotate(90) scale(175 206.863)">
<stop stop-color="white" stop-opacity="0.5"/>
<stop offset="0.907665" stop-color="white" stop-opacity="0"/>
</radialGradient>
<radialGradient id="paint8_radial_7605_15137" cx="0" cy="0" r="1" gradientUnits="userSpaceOnUse" gradientTransform="translate(149.863 200) rotate(90) scale(175 206.863)">
<stop stop-color="white" stop-opacity="0.5"/>
<stop offset="0.907665" stop-color="white" stop-opacity="0"/>
</radialGradient>
<radialGradient id="paint9_radial_7605_15137" cx="0" cy="0" r="1" gradientUnits="userSpaceOnUse" gradientTransform="translate(149.863 200) rotate(90) scale(175 206.863)">
<stop stop-color="white" stop-opacity="0.5"/>
<stop offset="0.907665" stop-color="white" stop-opacity="0"/>
</radialGradient>
<radialGradient id="paint10_radial_7605_15137" cx="0" cy="0" r="1" gradientUnits="userSpaceOnUse" gradientTransform="translate(149.863 200) rotate(90) scale(175 206.863)">
<stop stop-color="white" stop-opacity="0.5"/>
<stop offset="0.907665" stop-color="white" stop-opacity="0"/>
</radialGradient>
<radialGradient id="paint11_radial_7605_15137" cx="0" cy="0" r="1" gradientUnits="userSpaceOnUse" gradientTransform="translate(149.863 200) rotate(90) scale(175 206.863)">
<stop stop-color="white" stop-opacity="0.5"/>
<stop offset="0.907665" stop-color="white" stop-opacity="0"/>
</radialGradient>
<radialGradient id="paint12_radial_7605_15137" cx="0" cy="0" r="1" gradientUnits="userSpaceOnUse" gradientTransform="translate(149.863 200) rotate(90) scale(175 206.863)">
<stop stop-color="white" stop-opacity="0.5"/>
<stop offset="0.907665" stop-color="white" stop-opacity="0"/>
</radialGradient>
<radialGradient id="paint13_radial_7605_15137" cx="0" cy="0" r="1" gradientUnits="userSpaceOnUse" gradientTransform="translate(149.863 200) rotate(90) scale(175 206.863)">
<stop stop-color="white" stop-opacity="0.5"/>
<stop offset="0.907665" stop-color="white" stop-opacity="0"/>
</radialGradient>
<radialGradient id="paint14_radial_7605_15137" cx="0" cy="0" r="1" gradientUnits="userSpaceOnUse" gradientTransform="translate(149.863 200) rotate(90) scale(175 206.863)">
<stop stop-color="white" stop-opacity="0.5"/>
<stop offset="0.907665" stop-color="white" stop-opacity="0"/>
</radialGradient>
<radialGradient id="paint15_radial_7605_15137" cx="0" cy="0" r="1" gradientUnits="userSpaceOnUse" gradientTransform="translate(149.863 200) rotate(90) scale(175 206.863)">
<stop stop-color="white" stop-opacity="0.5"/>
<stop offset="0.907665" stop-color="white" stop-opacity="0"/>
</radialGradient>
<radialGradient id="paint16_radial_7605_15137" cx="0" cy="0" r="1" gradientUnits="userSpaceOnUse" gradientTransform="translate(149.863 200) rotate(90) scale(175 206.863)">
<stop stop-color="white" stop-opacity="0.5"/>
<stop offset="0.907665" stop-color="white" stop-opacity="0"/>
</radialGradient>
<radialGradient id="paint17_radial_7605_15137" cx="0" cy="0" r="1" gradientUnits="userSpaceOnUse" gradientTransform="translate(149.863 200) rotate(90) scale(175 206.863)">
<stop stop-color="white" stop-opacity="0.5"/>
<stop offset="0.907665" stop-color="white" stop-opacity="0"/>
</radialGradient>
<linearGradient id="paint18_linear_7605_15137" x1="7539.59" y1="46569.7" x2="7266.71" y2="47651.3" gradientUnits="userSpaceOnUse">
<stop stop-color="#624E88"/>
<stop offset="1" stop-color="#3C4271"/>
</linearGradient>
<linearGradient id="paint19_linear_7605_15137" x1="125951" y1="92825.4" x2="134344" y2="100710" gradientUnits="userSpaceOnUse">
<stop stop-color="#F0D54E"/>
<stop offset="1" stop-color="#EE7232"/>
</linearGradient>
<linearGradient id="paint20_linear_7605_15137" x1="93636.5" y1="56495.6" x2="97143.3" y2="59790" gradientUnits="userSpaceOnUse">
<stop stop-color="#FFD81E"/>
<stop offset="1" stop-color="#FD5300"/>
</linearGradient>
<linearGradient id="paint21_linear_7605_15137" x1="112398" y1="67879.6" x2="116076" y2="71335" gradientUnits="userSpaceOnUse">
<stop stop-color="#F0D54E"/>
<stop offset="1" stop-color="#EE7232"/>
</linearGradient>
<linearGradient id="paint22_linear_7605_15137" x1="75008" y1="-50846" x2="77416.8" y2="-52200.8" gradientUnits="userSpaceOnUse">
<stop stop-color="#F0D54E"/>
<stop offset="1" stop-color="#EE7232"/>
</linearGradient>
<linearGradient id="paint23_linear_7605_15137" x1="77015.3" y1="-52532.4" x2="82678.2" y2="-55717.4" gradientUnits="userSpaceOnUse">
<stop stop-color="#F0D54E"/>
<stop offset="1" stop-color="#EE7232"/>
</linearGradient>
<linearGradient id="paint24_linear_7605_15137" x1="133613" y1="61065.5" x2="143032" y2="65974.9" gradientUnits="userSpaceOnUse">
<stop offset="0.45" stop-color="#C9C9C9"/>
<stop offset="1" stop-color="#635B5B"/>
</linearGradient>
<linearGradient id="paint25_linear_7605_15137" x1="98866.1" y1="63924.7" x2="105536" y2="68841.4" gradientUnits="userSpaceOnUse">
<stop offset="0.45" stop-color="#C9C9C9"/>
<stop offset="1" stop-color="#635B5B"/>
</linearGradient>
<linearGradient id="paint26_linear_7605_15137" x1="4580.9" y1="129740" x2="4521.72" y2="134241" gradientUnits="userSpaceOnUse">
<stop stop-color="#AFA9A6"/>
<stop offset="0.5" stop-color="#EDEAE4"/>
<stop offset="1" stop-color="#8B8281"/>
</linearGradient>
<linearGradient id="paint27_linear_7605_15137" x1="112777" y1="53536.8" x2="115858" y2="55807.6" gradientUnits="userSpaceOnUse">
<stop offset="0.45" stop-color="#C9C9C9"/>
<stop offset="1" stop-color="#635B5B"/>
</linearGradient>
<linearGradient id="paint28_linear_7605_15137" x1="-80732.9" y1="114773" x2="-84556.8" y2="120019" gradientUnits="userSpaceOnUse">
<stop stop-color="#969492"/>
<stop offset="1" stop-color="#838381"/>
</linearGradient>
<linearGradient id="paint29_linear_7605_15137" x1="-128635" y1="70223.3" x2="-134300" y2="73196.6" gradientUnits="userSpaceOnUse">
<stop stop-color="#565251"/>
<stop offset="0.51" stop-color="#BBBBBA"/>
<stop offset="0.89" stop-color="#A9A6A4"/>
</linearGradient>
<linearGradient id="paint30_linear_7605_15137" x1="83279.7" y1="-6242.13" x2="86996.8" y2="-6431.4" gradientUnits="userSpaceOnUse">
<stop offset="0.01" stop-color="#BBBBBA"/>
<stop offset="0.31" stop-color="#EDEBE9"/>
<stop offset="1" stop-color="#80807E"/>
</linearGradient>
<linearGradient id="paint31_linear_7605_15137" x1="-81482.2" y1="121828" x2="-84259.9" y2="125454" gradientUnits="userSpaceOnUse">
<stop stop-color="#969492"/>
<stop offset="1" stop-color="#838381"/>
</linearGradient>
<linearGradient id="paint32_linear_7605_15137" x1="-54017.7" y1="72502.2" x2="-55180" y2="73966.1" gradientUnits="userSpaceOnUse">
<stop stop-color="#3B2E2E"/>
<stop offset="0.65" stop-color="#616161"/>
</linearGradient>
<linearGradient id="paint33_linear_7605_15137" x1="-35769.6" y1="92840.1" x2="-37005.8" y2="95733.6" gradientUnits="userSpaceOnUse">
<stop stop-color="#AFA9A6"/>
<stop offset="0.41" stop-color="#EDEAE4"/>
<stop offset="1" stop-color="#8B8281"/>
</linearGradient>
<linearGradient id="paint34_linear_7605_15137" x1="-18744.3" y1="27113.8" x2="-19043.3" y2="27490.3" gradientUnits="userSpaceOnUse">
<stop stop-color="#3B2E2E"/>
<stop offset="0.65" stop-color="#616161"/>
</linearGradient>
<linearGradient id="paint35_linear_7605_15137" x1="-55566.9" y1="76027.2" x2="-57219.2" y2="78108.2" gradientUnits="userSpaceOnUse">
<stop stop-color="#A6A19D"/>
<stop offset="1" stop-color="#A69E9D"/>
</linearGradient>
<linearGradient id="paint36_linear_7605_15137" x1="-15730.2" y1="43609.6" x2="-15944" y2="44110.2" gradientUnits="userSpaceOnUse">
<stop stop-color="#B9B9B8"/>
<stop offset="1" stop-color="#B7B5B4"/>
</linearGradient>
<linearGradient id="paint37_linear_7605_15137" x1="13185.4" y1="-2514.89" x2="13230.1" y2="-2521.12" gradientUnits="userSpaceOnUse">
<stop stop-color="#B7B5B4"/>
<stop offset="1" stop-color="#B9B9B8"/>
</linearGradient>
<linearGradient id="paint38_linear_7605_15137" x1="49963.2" y1="81776.2" x2="52520.7" y2="86514.7" gradientUnits="userSpaceOnUse">
<stop stop-color="#A6A19D"/>
<stop offset="1" stop-color="#A69E9D"/>
</linearGradient>
<linearGradient id="paint39_linear_7605_15137" x1="36500.4" y1="89829.7" x2="38278.2" y2="94982.3" gradientUnits="userSpaceOnUse">
<stop offset="0.01" stop-color="#AFA9A6"/>
<stop offset="0.12" stop-color="#EDEAE4"/>
<stop offset="0.25" stop-color="#AFA9A6"/>
<stop offset="1" stop-color="#8B8281"/>
</linearGradient>
<linearGradient id="paint40_linear_7605_15137" x1="9788.86" y1="25332" x2="9921.06" y2="25715.2" gradientUnits="userSpaceOnUse">
<stop stop-color="#B9B9B8"/>
<stop offset="1" stop-color="#B7B5B4"/>
</linearGradient>
<linearGradient id="paint41_linear_7605_15137" x1="76990.1" y1="18004" x2="79675.3" y2="18799.4" gradientUnits="userSpaceOnUse">
<stop stop-color="#3B2E2E"/>
<stop offset="0.65" stop-color="#616161"/>
</linearGradient>
<linearGradient id="paint42_linear_7605_15137" x1="89545.7" y1="-3256.06" x2="92858.9" y2="-3187.66" gradientUnits="userSpaceOnUse">
<stop stop-color="#AFA9A6"/>
<stop offset="0.41" stop-color="#EDEAE4"/>
<stop offset="1" stop-color="#8B8281"/>
</linearGradient>
<linearGradient id="paint43_linear_7605_15137" x1="27220.6" y1="4779.87" x2="27557.8" y2="4879.76" gradientUnits="userSpaceOnUse">
<stop stop-color="#3B2E2E"/>
<stop offset="0.65" stop-color="#616161"/>
</linearGradient>
<linearGradient id="paint44_linear_7605_15137" x1="80732.2" y1="17963" x2="83490.3" y2="18780.1" gradientUnits="userSpaceOnUse">
<stop stop-color="#A6A19D"/>
<stop offset="1" stop-color="#A69E9D"/>
</linearGradient>
<linearGradient id="paint45_linear_7605_15137" x1="40190.3" y1="-1423.8" x2="41156.3" y2="-1403.86" gradientUnits="userSpaceOnUse">
<stop stop-color="#B9B9B8"/>
<stop offset="1" stop-color="#B7B5B4"/>
</linearGradient>
<linearGradient id="paint46_linear_7605_15137" x1="33225" y1="31568.4" x2="33431.8" y2="31858.2" gradientUnits="userSpaceOnUse">
<stop offset="0.03" stop-color="#AFA08C"/>
<stop offset="0.21" stop-color="#C8C4C2"/>
<stop offset="0.92" stop-color="#8B7878"/>
</linearGradient>
<linearGradient id="paint47_linear_7605_15137" x1="31950.6" y1="27994.6" x2="32090.9" y2="28191.3" gradientUnits="userSpaceOnUse">
<stop stop-color="#B9B9B8"/>
<stop offset="1" stop-color="#B7B5B4"/>
</linearGradient>
<linearGradient id="paint48_linear_7605_15137" x1="73072.6" y1="171360" x2="78259.7" y2="193281" gradientUnits="userSpaceOnUse">
<stop stop-color="#F0D54E"/>
<stop offset="1" stop-color="#EE7232"/>
</linearGradient>
<linearGradient id="paint49_linear_7605_15137" x1="65632.2" y1="87186.7" x2="67935.3" y2="96920.1" gradientUnits="userSpaceOnUse">
<stop stop-color="#FFD81E"/>
<stop offset="1" stop-color="#FD5300"/>
</linearGradient>
<linearGradient id="paint50_linear_7605_15137" x1="86169" y1="-3062.2" x2="90283.8" y2="-2879.27" gradientUnits="userSpaceOnUse">
<stop stop-color="#FFE08E"/>
<stop offset="1" stop-color="#FFEEC8"/>
</linearGradient>
<linearGradient id="paint51_linear_7605_15137" x1="16630.6" y1="21390.6" x2="16813" y2="21719.7" gradientUnits="userSpaceOnUse">
<stop stop-color="#AFA9A6"/>
<stop offset="0.5" stop-color="#EDEAE4"/>
<stop offset="1" stop-color="#8B8281"/>
</linearGradient>
<linearGradient id="paint52_linear_7605_15137" x1="9343.8" y1="14229" x2="9393.4" y2="14364.4" gradientUnits="userSpaceOnUse">
<stop offset="0.45" stop-color="#C9C9C9"/>
<stop offset="1" stop-color="#635B5B"/>
</linearGradient>
<linearGradient id="paint53_linear_7605_15137" x1="-6235.18" y1="26177.6" x2="-6370.14" y2="26458.3" gradientUnits="userSpaceOnUse">
<stop stop-color="#AFA9A6"/>
<stop offset="0.5" stop-color="#EDEAE4"/>
<stop offset="1" stop-color="#8B8281"/>
</linearGradient>
<linearGradient id="paint54_linear_7605_15137" x1="582.091" y1="17524.6" x2="545.462" y2="17650.3" gradientUnits="userSpaceOnUse">
<stop offset="0.45" stop-color="#C9C9C9"/>
<stop offset="1" stop-color="#635B5B"/>
</linearGradient>
<linearGradient id="paint55_linear_7605_15137" x1="72870.2" y1="140370" x2="75363.1" y2="150906" gradientUnits="userSpaceOnUse">
<stop stop-color="#F0D54E"/>
<stop offset="1" stop-color="#EE7232"/>
</linearGradient>
<linearGradient id="paint56_linear_7605_15137" x1="17772.9" y1="-16990" x2="18461.5" y2="-16940.3" gradientUnits="userSpaceOnUse">
<stop stop-color="#F0D54E"/>
<stop offset="1" stop-color="#EE7232"/>
</linearGradient>
<linearGradient id="paint57_linear_7605_15137" x1="15299.3" y1="-14836.3" x2="15824.7" y2="-14798.3" gradientUnits="userSpaceOnUse">
<stop stop-color="#F0D54E"/>
<stop offset="1" stop-color="#EE7232"/>
</linearGradient>
<linearGradient id="paint58_linear_7605_15137" x1="-45401.3" y1="91377" x2="-47911.5" y2="95066.8" gradientUnits="userSpaceOnUse">
<stop stop-color="#AFA9A6"/>
<stop offset="0.5" stop-color="#EDEAE4"/>
<stop offset="1" stop-color="#8B8281"/>
</linearGradient>
<linearGradient id="paint59_linear_7605_15137" x1="42622.9" y1="90377.3" x2="43952.3" y2="94005.1" gradientUnits="userSpaceOnUse">
<stop offset="0.45" stop-color="#C9C9C9"/>
<stop offset="1" stop-color="#635B5B"/>
</linearGradient>
<linearGradient id="paint60_linear_7605_15137" x1="59523.6" y1="82322.7" x2="61684" y2="86221.3" gradientUnits="userSpaceOnUse">
<stop offset="0.45" stop-color="#C9C9C9"/>
<stop offset="1" stop-color="#635B5B"/>
</linearGradient>
<linearGradient id="paint61_linear_7605_15137" x1="41448.2" y1="89337" x2="42814.2" y2="93064.6" gradientUnits="userSpaceOnUse">
<stop offset="0.45" stop-color="#C9C9C9"/>
<stop offset="1" stop-color="#635B5B"/>
</linearGradient>
<radialGradient id="paint62_radial_7605_15137" cx="0" cy="0" r="1" gradientUnits="userSpaceOnUse" gradientTransform="translate(16566.3 10107.3) rotate(34.7142) scale(479.374 478.12)">
<stop stop-color="#C9A300"/>
<stop offset="1"/>
</radialGradient>
<radialGradient id="paint63_radial_7605_15137" cx="0" cy="0" r="1" gradientUnits="userSpaceOnUse" gradientTransform="translate(15587.9 9638.74) rotate(34.7142) scale(479.374 479.372)">
<stop stop-color="#C9A300"/>
<stop offset="1"/>
</radialGradient>
<radialGradient id="paint64_radial_7605_15137" cx="0" cy="0" r="1" gradientUnits="userSpaceOnUse" gradientTransform="translate(16179.6 8595.56) rotate(34.7142) scale(478.123 478.12)">
<stop stop-color="#C9A300"/>
<stop offset="1"/>
</radialGradient>
<radialGradient id="paint65_radial_7605_15137" cx="0" cy="0" r="1" gradientUnits="userSpaceOnUse" gradientTransform="translate(8128.57 4619.91) rotate(34.7144) scale(120.954 120.954)">
<stop stop-color="#C9A300"/>
<stop offset="1"/>
</radialGradient>
<radialGradient id="paint66_radial_7605_15137" cx="0" cy="0" r="1" gradientUnits="userSpaceOnUse" gradientTransform="translate(9286.16 4571.8) rotate(34.7144) scale(120.954 121.584)">
<stop stop-color="#C9A300"/>
<stop offset="1"/>
</radialGradient>
<radialGradient id="paint67_radial_7605_15137" cx="0" cy="0" r="1" gradientUnits="userSpaceOnUse" gradientTransform="translate(8810.01 4675.22) rotate(34.7144) scale(120.955 121.584)">
<stop stop-color="#C9A300"/>
<stop offset="1"/>
</radialGradient>
<radialGradient id="paint68_radial_7605_15137" cx="0" cy="0" r="1" gradientUnits="userSpaceOnUse" gradientTransform="translate(8664.84 4836.99) rotate(34.7144) scale(121.584 121.584)">
<stop stop-color="#C9A300"/>
<stop offset="1"/>
</radialGradient>
<radialGradient id="paint69_radial_7605_15137" cx="0" cy="0" r="1" gradientUnits="userSpaceOnUse" gradientTransform="translate(8660.53 5285.18) rotate(34.7144) scale(121.584 121.584)">
<stop stop-color="#C9A300"/>
<stop offset="1"/>
</radialGradient>
<radialGradient id="paint70_radial_7605_15137" cx="0" cy="0" r="1" gradientUnits="userSpaceOnUse" gradientTransform="translate(8451.29 5370.19) rotate(34.7144) scale(120.954 120.954)">
<stop stop-color="#C9A300"/>
<stop offset="1"/>
</radialGradient>
<clipPath id="clip0_7605_15137">
<rect width="300" height="400" rx="10" fill="white"/>
</clipPath>
</defs>
</svg>
