<svg width="23" height="14" viewBox="0 0 23 14" fill="none" xmlns="http://www.w3.org/2000/svg">
<path d="M16.1553 13.4438C16.3957 13.4428 16.6262 13.3473 16.7969 13.178L22.2969 7.67799C22.4585 7.5006 22.5441 7.26693 22.5353 7.02716C22.536 6.90652 22.5128 6.78693 22.4672 6.67524C22.4216 6.56356 22.3544 6.46198 22.2694 6.37632L16.7694 0.876323C16.5941 0.726149 16.3685 0.647676 16.1378 0.656587C15.9071 0.665499 15.6883 0.761137 15.525 0.92439C15.3618 1.08764 15.2661 1.30649 15.2572 1.53719C15.2483 1.76789 15.3268 1.99346 15.4769 2.16882L20.3261 7.02716L15.5044 11.8488C15.3337 12.0206 15.2379 12.2529 15.2379 12.4951C15.2379 12.7372 15.3337 12.9696 15.5044 13.1413C15.587 13.2329 15.6872 13.3069 15.799 13.3589C15.9109 13.4109 16.032 13.4398 16.1553 13.4438Z" fill="url(#paint0_linear_3317_68218)" fill-opacity="0.7"/>
<path d="M11.2328 13.4438C11.4733 13.4428 11.7037 13.3473 11.8744 13.178L17.3744 7.67799C17.4594 7.59234 17.5266 7.49076 17.5722 7.37907C17.6178 7.26739 17.641 7.1478 17.6403 7.02716C17.641 6.90652 17.6178 6.78693 17.5722 6.67524C17.5266 6.56356 17.4594 6.46198 17.3744 6.37632L11.8744 0.876323C11.7923 0.780365 11.6911 0.702429 11.5774 0.647408C11.4637 0.592386 11.3398 0.561467 11.2136 0.556591C11.0873 0.551715 10.9614 0.572987 10.8438 0.619072C10.7262 0.665157 10.6193 0.73506 10.53 0.824394C10.4407 0.913727 10.3708 1.02056 10.3247 1.13819C10.2786 1.25582 10.2573 1.38171 10.2622 1.50796C10.2671 1.6342 10.298 1.75807 10.353 1.8718C10.408 1.98552 10.486 2.08665 10.5819 2.16882L15.3578 7.02716L10.5361 11.8488C10.3654 12.0206 10.2695 12.2529 10.2695 12.4951C10.2695 12.7372 10.3654 12.9696 10.5361 13.1413C10.6239 13.2386 10.7315 13.3159 10.8516 13.3681C10.9718 13.4203 11.1018 13.4461 11.2328 13.4438Z" fill="url(#paint1_linear_3317_68218)" fill-opacity="0.7"/>
<path d="M5.8938 13.4438C6.13428 13.4428 6.36473 13.3473 6.53546 13.178L12.0355 7.67799C12.197 7.5006 12.2826 7.26693 12.2738 7.02716C12.2745 6.90652 12.2514 6.78693 12.2058 6.67524C12.1601 6.56356 12.0929 6.46198 12.008 6.37632L6.50796 0.876323C6.3326 0.726149 6.10703 0.647676 5.87633 0.656587C5.64563 0.665499 5.42678 0.761137 5.26353 0.92439C5.10028 1.08764 5.00464 1.30649 4.99573 1.53719C4.98682 1.76789 5.06529 1.99346 5.21546 2.16882L10.0646 7.02716L5.24296 11.8488C5.07223 12.0206 4.9764 12.2529 4.9764 12.4951C4.9764 12.7372 5.07223 12.9696 5.24296 13.1413C5.32552 13.2329 5.42571 13.3069 5.53754 13.3589C5.64937 13.4109 5.77054 13.4398 5.8938 13.4438Z" fill="url(#paint2_linear_3317_68218)" fill-opacity="0.7"/>
<path d="M0.971298 13.4438C1.21178 13.4428 1.44223 13.3473 1.61296 13.178L7.11296 7.67799C7.19792 7.59234 7.26514 7.49076 7.31075 7.37907C7.35637 7.26739 7.37949 7.1478 7.3788 7.02716C7.37949 6.90652 7.35637 6.78693 7.31075 6.67524C7.26514 6.56356 7.19792 6.46198 7.11296 6.37632L1.61296 0.876323C1.53079 0.780365 1.42966 0.702429 1.31594 0.647408C1.20221 0.592386 1.07834 0.561467 0.952097 0.556591C0.825855 0.551715 0.699968 0.572987 0.582336 0.619072C0.464705 0.665157 0.357866 0.73506 0.268534 0.824394C0.179201 0.913727 0.109299 1.02056 0.0632133 1.13819C0.017128 1.25582 -0.00414467 1.38171 0.000732422 1.50796C0.00560951 1.6342 0.0365276 1.75807 0.0915489 1.8718C0.14657 1.98552 0.224506 2.08665 0.320465 2.16882L5.0963 7.02716L0.274632 11.8488C0.103901 12.0206 0.00806999 12.2529 0.00806999 12.4951C0.00806999 12.7372 0.103901 12.9696 0.274632 13.1413C0.362392 13.2386 0.469986 13.3159 0.590162 13.3681C0.710339 13.4203 0.840303 13.4461 0.971298 13.4438Z" fill="url(#paint3_linear_3317_68218)" fill-opacity="0.7"/>
<defs>
<linearGradient id="paint0_linear_3317_68218" x1="22.5359" y1="6.99994" x2="4.95911e-05" y2="6.99994" gradientUnits="userSpaceOnUse">
<stop stop-color="#FDEB56"/>
<stop offset="1" stop-color="#FDEB56" stop-opacity="0"/>
</linearGradient>
<linearGradient id="paint1_linear_3317_68218" x1="22.5359" y1="6.99994" x2="4.95911e-05" y2="6.99994" gradientUnits="userSpaceOnUse">
<stop stop-color="#FDEB56"/>
<stop offset="1" stop-color="#FDEB56" stop-opacity="0"/>
</linearGradient>
<linearGradient id="paint2_linear_3317_68218" x1="22.5359" y1="6.99994" x2="4.95911e-05" y2="6.99994" gradientUnits="userSpaceOnUse">
<stop stop-color="#FDEB56"/>
<stop offset="1" stop-color="#FDEB56" stop-opacity="0"/>
</linearGradient>
<linearGradient id="paint3_linear_3317_68218" x1="22.5359" y1="6.99994" x2="4.95911e-05" y2="6.99994" gradientUnits="userSpaceOnUse">
<stop stop-color="#FDEB56"/>
<stop offset="1" stop-color="#FDEB56" stop-opacity="0"/>
</linearGradient>
</defs>
</svg>
