<svg width="24" height="14" viewBox="0 0 24 14" fill="none" xmlns="http://www.w3.org/2000/svg">
<path d="M6.91651 13.4438C6.67603 13.4428 6.44558 13.3473 6.27484 13.178L0.774838 7.67799C0.613278 7.5006 0.527711 7.26693 0.536505 7.02716C0.535808 6.90652 0.558931 6.78693 0.604548 6.67524C0.650166 6.56356 0.717381 6.46198 0.802339 6.37632L6.30234 0.876323C6.4777 0.726149 6.70327 0.647676 6.93397 0.656587C7.16467 0.665499 7.38352 0.761137 7.54677 0.92439C7.71002 1.08764 7.80566 1.30649 7.81457 1.53719C7.82349 1.76789 7.74501 1.99346 7.59484 2.16882L2.74567 7.02716L7.56734 11.8488C7.73807 12.0206 7.8339 12.2529 7.8339 12.4951C7.8339 12.7372 7.73807 12.9696 7.56734 13.1413C7.48478 13.2329 7.38459 13.3069 7.27276 13.3589C7.16093 13.4109 7.03976 13.4398 6.91651 13.4438Z" fill="url(#paint0_linear_3317_68220)" fill-opacity="0.7"/>
<path d="M11.839 13.4438C11.5985 13.4428 11.3681 13.3473 11.1973 13.178L5.69734 7.67799C5.61238 7.59234 5.54517 7.49076 5.49955 7.37907C5.45393 7.26739 5.43081 7.1478 5.43151 7.02716C5.43081 6.90652 5.45393 6.78693 5.49955 6.67524C5.54517 6.56356 5.61238 6.46198 5.69734 6.37632L11.1973 0.876323C11.2795 0.780365 11.3806 0.702429 11.4944 0.647408C11.6081 0.592386 11.732 0.561467 11.8582 0.556591C11.9844 0.551715 12.1103 0.572987 12.228 0.619072C12.3456 0.665157 12.4524 0.73506 12.5418 0.824394C12.6311 0.913727 12.701 1.02056 12.7471 1.13819C12.7932 1.25582 12.8144 1.38171 12.8096 1.50796C12.8047 1.6342 12.7738 1.75807 12.7188 1.8718C12.6637 1.98552 12.5858 2.08665 12.4898 2.16882L7.714 7.02716L12.5357 11.8488C12.7064 12.0206 12.8022 12.2529 12.8022 12.4951C12.8022 12.7372 12.7064 12.9696 12.5357 13.1413C12.4479 13.2386 12.3403 13.3159 12.2201 13.3681C12.1 13.4203 11.97 13.4461 11.839 13.4438Z" fill="url(#paint1_linear_3317_68220)" fill-opacity="0.7"/>
<path d="M17.178 13.4438C16.9375 13.4428 16.7071 13.3473 16.5363 13.178L11.0363 7.67799C10.8748 7.5006 10.7892 7.26693 10.798 7.02716C10.7973 6.90652 10.8204 6.78693 10.866 6.67524C10.9116 6.56356 10.9789 6.46198 11.0638 6.37632L16.5638 0.876323C16.7392 0.726149 16.9647 0.647676 17.1954 0.656587C17.4261 0.665499 17.645 0.761137 17.8082 0.92439C17.9715 1.08764 18.0671 1.30649 18.076 1.53719C18.085 1.76789 18.0065 1.99346 17.8563 2.16882L13.0071 7.02716L17.8288 11.8488C17.9995 12.0206 18.0954 12.2529 18.0954 12.4951C18.0954 12.7372 17.9995 12.9696 17.8288 13.1413C17.7463 13.2329 17.6461 13.3069 17.5342 13.3589C17.4224 13.4109 17.3012 13.4398 17.178 13.4438Z" fill="url(#paint2_linear_3317_68220)" fill-opacity="0.7"/>
<path d="M22.1005 13.4438C21.86 13.4428 21.6296 13.3473 21.4588 13.178L15.9588 7.67799C15.8739 7.59234 15.8066 7.49076 15.761 7.37907C15.7154 7.26739 15.6923 7.1478 15.693 7.02716C15.6923 6.90652 15.7154 6.78693 15.761 6.67524C15.8066 6.56356 15.8739 6.46198 15.9588 6.37632L21.4588 0.876323C21.541 0.780365 21.6421 0.702429 21.7558 0.647408C21.8696 0.592386 21.9934 0.561467 22.1197 0.556591C22.2459 0.551715 22.3718 0.572987 22.4894 0.619072C22.6071 0.665157 22.7139 0.73506 22.8032 0.824394C22.8926 0.913727 22.9625 1.02056 23.0086 1.13819C23.0546 1.25582 23.0759 1.38171 23.071 1.50796C23.0662 1.6342 23.0352 1.75807 22.9802 1.8718C22.9252 1.98552 22.8473 2.08665 22.7513 2.16882L17.9755 7.02716L22.7971 11.8488C22.9679 12.0206 23.0637 12.2529 23.0637 12.4951C23.0637 12.7372 22.9679 12.9696 22.7971 13.1413C22.7094 13.2386 22.6018 13.3159 22.4816 13.3681C22.3614 13.4203 22.2315 13.4461 22.1005 13.4438Z" fill="url(#paint3_linear_3317_68220)" fill-opacity="0.7"/>
<defs>
<linearGradient id="paint0_linear_3317_68220" x1="0.535889" y1="6.99994" x2="23.0717" y2="6.99994" gradientUnits="userSpaceOnUse">
<stop stop-color="#FDEB56"/>
<stop offset="1" stop-color="#FDEB56" stop-opacity="0"/>
</linearGradient>
<linearGradient id="paint1_linear_3317_68220" x1="0.535889" y1="6.99994" x2="23.0717" y2="6.99994" gradientUnits="userSpaceOnUse">
<stop stop-color="#FDEB56"/>
<stop offset="1" stop-color="#FDEB56" stop-opacity="0"/>
</linearGradient>
<linearGradient id="paint2_linear_3317_68220" x1="0.535889" y1="6.99994" x2="23.0717" y2="6.99994" gradientUnits="userSpaceOnUse">
<stop stop-color="#FDEB56"/>
<stop offset="1" stop-color="#FDEB56" stop-opacity="0"/>
</linearGradient>
<linearGradient id="paint3_linear_3317_68220" x1="0.535889" y1="6.99994" x2="23.0717" y2="6.99994" gradientUnits="userSpaceOnUse">
<stop stop-color="#FDEB56"/>
<stop offset="1" stop-color="#FDEB56" stop-opacity="0"/>
</linearGradient>
</defs>
</svg>
