<svg width="14" height="15" viewBox="0 0 14 15" fill="none" xmlns="http://www.w3.org/2000/svg">
<g id="arrows">
<g id="check-circle">
<path id="Vector" d="M6.99967 14.1668C10.6816 14.1668 13.6663 11.1821 13.6663 7.50016C13.6663 3.81826 10.6816 0.833496 6.99967 0.833496C3.31778 0.833496 0.333008 3.81826 0.333008 7.50016C0.333008 11.1821 3.31778 14.1668 6.99967 14.1668Z" fill="#1FD031"/>
<path id="Vector_2" d="M6.80646 9.97329L10.8065 5.97329C10.8686 5.91114 10.9179 5.83734 10.9516 5.75613C10.9852 5.67491 11.0025 5.58787 11.0025 5.49996C11.0025 5.41205 10.9852 5.32501 10.9516 5.24379C10.9179 5.16258 10.8686 5.08879 10.8065 5.02663C10.7443 4.96447 10.6705 4.91516 10.5893 4.88152C10.5081 4.84788 10.421 4.83057 10.3331 4.83057C10.2452 4.83057 10.1582 4.84788 10.077 4.88152C9.99575 4.91516 9.92196 4.96447 9.8598 5.02663L6.33313 8.55996L4.1398 6.35996C4.01426 6.23443 3.844 6.1639 3.66646 6.1639C3.48893 6.1639 3.31867 6.23443 3.19313 6.35996C3.0676 6.4855 2.99707 6.65576 2.99707 6.83329C2.99707 7.01083 3.0676 7.18109 3.19313 7.30663L5.8598 9.97329C5.92177 10.0358 5.99551 10.0854 6.07675 10.1192C6.15799 10.1531 6.24512 10.1705 6.33313 10.1705C6.42114 10.1705 6.50828 10.1531 6.58952 10.1192C6.67076 10.0854 6.74449 10.0358 6.80646 9.97329Z" fill="#041C06"/>
</g>
</g>
</svg>
