<svg width="32" height="32" viewBox="0 0 32 32" fill="none" xmlns="http://www.w3.org/2000/svg">
<rect width="32" height="32" rx="16" fill="#36233A"/>
<rect x="1" y="1" width="30" height="30" rx="15" stroke="white" stroke-opacity="0.05" stroke-width="2"/>
<path d="M20.9997 20.93C20.8123 21.1162 20.5589 21.2208 20.2947 21.2208C20.0305 21.2208 19.7771 21.1162 19.5897 20.93L11.0497 12.49C10.956 12.397 10.8816 12.2864 10.8308 12.1646C10.78 12.0427 10.7539 11.912 10.7539 11.78C10.7539 11.648 10.78 11.5173 10.8308 11.3954C10.8816 11.2736 10.956 11.163 11.0497 11.07C11.2371 10.8837 11.4905 10.7792 11.7547 10.7792C12.0189 10.7792 12.2723 10.8837 12.4597 11.07L20.9997 19.51C21.0934 19.603 21.1678 19.7136 21.2186 19.8354C21.2694 19.9573 21.2955 20.088 21.2955 20.22C21.2955 20.352 21.2694 20.4827 21.2186 20.6046C21.1678 20.7264 21.0934 20.837 20.9997 20.93Z" fill="white" fill-opacity="0.5"/>
<path d="M12.4599 21C12.269 21.1936 12.0089 21.3034 11.737 21.3053C11.4651 21.3072 11.2035 21.201 11.0099 21.01C10.8163 20.819 10.7065 20.559 10.7046 20.2871C10.7027 20.0151 10.809 19.7536 10.9999 19.56L19.5399 11C19.7309 10.8064 19.9909 10.6966 20.2628 10.6947C20.5348 10.6928 20.7963 10.799 20.9899 10.99C21.1835 11.181 21.2933 11.441 21.2952 11.7129C21.2971 11.9849 21.1909 12.2464 20.9999 12.44L12.4599 21Z" fill="white" fill-opacity="0.5"/>
</svg>
