<svg width="108" height="100" viewBox="0 0 108 100" fill="none" xmlns="http://www.w3.org/2000/svg">
<path fill-rule="evenodd" clip-rule="evenodd" d="M9.17044 52.2496C5.37564 55.2139 2.07551 57.9647 1.83646 58.3625C1.44327 59.0168 1.52566 59.9691 2.69606 68.297C3.77629 75.9832 4.07965 77.6034 4.52936 78.0857C4.82577 78.4033 8.77045 80.1537 13.2951 81.9754C19.3821 84.4263 21.782 85.2511 22.5223 85.147C23.2627 85.043 25.3423 83.5887 30.5179 79.5549C34.3652 76.5566 37.6746 73.7867 37.8719 73.3997C38.171 72.8125 38.0168 71.1747 36.9408 63.5185C35.4983 53.2549 35.6163 53.5976 33.193 52.6404C32.4341 52.3406 28.7312 50.8503 24.9642 49.3288C19.8301 47.255 17.8589 46.5993 17.0924 46.7114C16.3282 46.8227 14.3245 48.2235 9.17044 52.2496ZM8.63098 63.1259L7.52125 63.4022L8.08853 67.4386L8.65585 71.4754L9.70708 71.3276L10.7583 71.1799L10.5567 69.4471C10.4458 68.4942 10.3211 67.478 10.2792 67.189C10.1446 66.2575 10.6516 66.5544 12.704 68.6093C14.6069 70.5143 14.7797 70.6147 15.891 70.4585L17.0657 70.2934L16.4856 66.1636L15.9052 62.0337L14.7788 62.192L13.6522 62.3504L13.833 64.7259L14.0137 67.1015L11.8875 64.9228C10.7179 63.7245 9.7565 62.768 9.75107 62.797C9.74539 62.8262 9.24152 62.9742 8.63098 63.1259ZM18.2874 65.9103L18.8678 70.0402L20.0692 69.8713L21.2706 69.7025L21.0384 68.0505L20.8063 66.3986L22.6084 66.1453C24.3741 65.8972 24.4081 65.8753 24.2944 65.0661C24.1809 64.2609 24.1348 64.2463 22.4513 64.4829C20.7907 64.7162 20.7162 64.6942 20.5133 63.9129L20.302 63.1004L25.8786 62.3166L31.4549 61.5329L31.3388 60.707L31.2228 59.881L24.4649 60.8307L17.707 61.7805L18.2874 65.9103ZM26.6185 66.3475L26.9773 68.9004L28.1787 68.7316L29.3801 68.5628L29.0213 66.0098L28.6625 63.4568L27.4611 63.6256L26.2597 63.7945L26.6185 66.3475Z" fill="#56FD99"/>
<path d="M79.047 71.5858C82.691 69.1438 87.3762 68.3387 91.876 69.8066C92.546 70.0252 93.1935 70.287 93.8185 70.5919L94.7971 67.5921C92.1681 68.7562 86.4746 68.3395 80.2846 66.3202C74.1327 64.3133 69.2989 61.3128 67.8368 58.8225L66.5775 62.6827C66.2319 67.2284 78.8999 71.5463 79.047 71.5858Z" fill="#F5B658"/>
<path d="M65.5862 65.6952L64.2995 69.6139C64.084 71.9528 68.0989 75.2169 73.9186 77.545C74.7506 75.7694 75.9132 74.2196 77.3031 72.9545C71.4956 70.9505 66.9793 68.0872 65.5862 65.6952Z" fill="#F5B658"/>
<path d="M63.306 72.6593L62.0813 76.3876C62.1116 76.3722 62.1419 76.3568 62.1697 76.3491C61.5295 78.8022 66.0255 82.4507 72.5348 84.8858C72.4039 83.0404 72.6248 81.1496 73.2333 79.2842L73.2358 79.2766C68.2973 77.3202 64.5455 74.799 63.306 72.6593Z" fill="#F5B658"/>
<path d="M72.8317 86.9455C66.91 84.9043 62.3374 81.9553 61.0506 79.5474L59.8955 83.0625C59.0311 85.7121 64.3685 89.8288 71.8224 92.2604C73.2462 92.7248 74.6415 93.0957 75.9754 93.3708C74.4237 91.5168 73.3407 89.3102 72.8317 86.9455Z" fill="#F5B658"/>
<path d="M80.8608 64.5537C88.3205 66.9872 95.0672 66.8157 95.93 64.1708C96.7928 61.5259 91.445 57.409 83.9854 54.9756C76.5257 52.5422 69.7791 52.7136 68.9162 55.3585C68.0534 58.0035 73.4012 62.1203 80.8608 64.5537Z" fill="#F5B658"/>
<path d="M91.2623 71.6872C84.5394 69.494 77.3095 73.1672 75.1164 79.8902C72.9233 86.6131 76.5989 93.8353 83.3219 96.0285C90.0448 98.2216 97.2747 94.5485 99.4678 87.8255C101.661 81.1025 97.9853 73.8803 91.2623 71.6872Z" fill="#FFD9AC"/>
<path d="M25.3882 0L86.9817 6.92275L90.1412 10.8275L86.9647 39.0891L82.9434 42.8523L24.5086 36.2846L21.8178 31.767L25.3882 0Z" fill="#1D1D1D"/>
<path fill-rule="evenodd" clip-rule="evenodd" d="M81.5664 38.6994L83.1801 37.1893L86.0073 12.0349L84.9182 10.689L28.8927 4.39207L25.9154 30.8823L26.9126 32.5566L81.5664 38.6994ZM24.5086 36.2846L82.9434 42.8523L86.9647 39.0891L90.1412 10.8275L86.9817 6.92275L25.3882 0L21.8178 31.767L24.5086 36.2846Z" fill="#EFE7CB"/>
<path d="M39.9402 28.4234C38.0748 28.2137 36.7069 27.6103 35.8367 26.6132C34.9851 25.6182 34.6708 24.1286 34.8938 22.1446L36.1649 10.8356L41.6214 11.4489L40.4077 22.2477C40.3079 23.1358 40.4555 23.7551 40.8506 24.1057C41.2456 24.4562 41.7603 24.6671 42.3946 24.7384L46.0043 25.1441C46.6012 25.2112 47.1406 25.1188 47.6223 24.8668C48.1061 24.5959 48.3968 24.0258 48.4945 23.1566L49.7083 12.3578L55.0808 12.9616L53.8098 24.2706C53.5868 26.2547 52.9497 27.6373 51.8985 28.4184C50.8659 29.2017 49.4076 29.4874 47.5234 29.2757L39.9402 28.4234Z" fill="#F3EACF"/>
<path d="M62.6563 30.6895C60.6602 30.4652 59.2644 29.8586 58.4688 28.8699C57.6731 27.8811 57.3868 26.3948 57.6098 24.4107L58.1928 19.2239C58.4222 17.1832 59.0832 15.7554 60.176 14.9407C61.2709 14.107 62.7231 13.7919 64.5326 13.9952L72.7034 14.9136C73.9906 15.0583 74.9615 15.2439 75.6161 15.4706C76.2914 15.6804 76.6206 15.8609 76.6036 16.0121L75.338 19.4575C74.878 19.3484 73.9703 19.189 72.6148 18.9792C71.2802 18.7527 69.5868 18.5241 67.5348 18.2935L66.1077 18.1331C65.2309 18.0345 64.6149 18.1375 64.2595 18.442C63.9249 18.7296 63.7194 19.2136 63.643 19.8938L63.0982 24.7406C63.026 25.383 63.1003 25.8984 63.3211 26.2868C63.5627 26.6584 64.1592 26.8976 65.1106 27.0046L66.2579 27.1335C68.9255 27.4333 70.9621 27.6335 72.3676 27.7341C73.7752 27.8158 74.6231 27.8345 74.9115 27.7904L76.2743 31.0433C76.2637 31.1378 76.0519 31.2575 75.6389 31.4024C75.2446 31.5495 74.5819 31.6472 73.6508 31.6956C72.7384 31.7461 71.48 31.6812 69.8757 31.5009L62.6563 30.6895Z" fill="#F3EACF"/>
<path fill-rule="evenodd" clip-rule="evenodd" d="M51.8985 28.4184C52.9497 27.6373 53.5868 26.2547 53.8098 24.2706L55.0808 12.9616L49.7083 12.3578L48.4945 23.1566C48.3968 24.0258 48.1061 24.5959 47.6223 24.8668C47.1406 25.1188 46.6012 25.2112 46.0043 25.1441L42.3946 24.7384C41.7603 24.6671 41.2456 24.4562 40.8506 24.1057C40.4555 23.7551 40.3079 23.1358 40.4077 22.2477L41.6214 11.4489L36.1649 10.8356L34.8938 22.1446C34.6708 24.1286 34.9851 25.6182 35.8367 26.6132C36.7069 27.6103 38.0748 28.2137 39.9402 28.4234L47.5234 29.2757C49.4076 29.4874 50.8659 29.2017 51.8985 28.4184ZM36.4379 26.0936C35.7917 25.3364 35.4725 24.11 35.6835 22.2333L36.8658 11.714L40.743 12.1498L39.618 22.1589C39.5092 23.127 39.6319 24.0867 40.3232 24.7C40.8645 25.1804 41.5433 25.4424 42.3058 25.5281L45.9155 25.9338C46.6528 26.0166 47.3539 25.904 47.9906 25.5709L48.0006 25.5656L48.0105 25.5601C48.8232 25.1051 49.1748 24.2187 49.2842 23.2454L50.4092 13.2362L54.2024 13.6625L53.0201 24.1819C52.8089 26.061 52.2242 27.1863 51.4245 27.7806L51.4214 27.783L51.4182 27.7853C50.61 28.3985 49.3866 28.6854 47.6122 28.486L40.029 27.6337C38.2807 27.4372 37.132 26.887 36.4379 26.0936ZM60.6542 15.5753L60.651 15.5777C59.8071 16.2069 59.1997 17.3801 58.9825 19.3126L58.3995 24.4995C58.187 26.3901 58.4842 27.6215 59.0879 28.3717C59.6931 29.1238 60.8401 29.6857 62.745 29.8998L69.9644 30.7113C71.5526 30.8898 72.7599 30.9491 73.6069 30.9022L73.6095 30.902C74.4351 30.8591 74.9672 30.7787 75.2647 30.69L74.3926 28.6083C74.2822 28.6082 74.1646 28.6066 74.0417 28.6039C73.6041 28.5942 73.0295 28.5685 72.3215 28.5274L72.3162 28.5271L72.3109 28.5267C70.889 28.425 68.8398 28.2233 66.1691 27.9232L65.0219 27.7942C64.5062 27.7363 64.0423 27.6382 63.6539 27.4824C63.2691 27.3281 62.8968 27.092 62.6549 26.72L62.642 26.7001L62.6303 26.6796C62.2968 26.093 62.2256 25.3895 62.3086 24.6518L62.8533 19.8051C62.9403 19.0315 63.1896 18.314 63.7415 17.8394L63.7425 17.8385C64.3635 17.3064 65.2757 17.2399 66.1965 17.3434L67.6236 17.5038C69.6807 17.735 71.3882 17.9652 72.7421 18.1948C73.611 18.3293 74.3089 18.4451 74.8278 18.5418L75.6451 16.3169C75.569 16.29 75.4811 16.2607 75.3803 16.2294L75.3681 16.2256L75.3561 16.2215C74.7858 16.024 73.8846 15.846 72.6147 15.7032L64.4439 14.7849C62.77 14.5968 61.5425 14.8989 60.6574 15.5729L60.6542 15.5753ZM76.6036 16.0121C76.6206 15.8609 76.2914 15.6804 75.6161 15.4706C74.9615 15.2439 73.9906 15.0583 72.7034 14.9136L64.5326 13.9952C62.7231 13.7919 61.2709 14.107 60.176 14.9407C59.0832 15.7554 58.4222 17.1832 58.1928 19.2239L57.6098 24.4107C57.3868 26.3948 57.6731 27.8811 58.4688 28.8699C59.2644 29.8586 60.6602 30.4652 62.6563 30.6895L69.8757 31.5009C71.48 31.6812 72.7384 31.7461 73.6508 31.6956C74.5819 31.6472 75.2446 31.5495 75.6389 31.4024C76.0519 31.2575 76.2637 31.1378 76.2743 31.0433L74.9115 27.7904C74.6231 27.8345 73.7752 27.8158 72.3676 27.7341C70.9621 27.6335 68.9255 27.4333 66.2579 27.1335L65.1106 27.0046C64.1592 26.8976 63.5627 26.6584 63.3211 26.2868C63.1003 25.8984 63.026 25.383 63.0982 24.7406L63.643 19.8938C63.7194 19.2136 63.9249 18.7296 64.2595 18.442C64.6149 18.1375 65.2309 18.0345 66.1077 18.1331L67.5348 18.2935C69.5868 18.5241 71.2802 18.7527 72.6148 18.9792C73.9703 19.189 74.878 19.3484 75.338 19.4575L76.6036 16.0121Z" fill="black" fill-opacity="0.1"/>
</svg>
