<svg width="120" height="100" viewBox="0 0 120 100" fill="none" xmlns="http://www.w3.org/2000/svg">
<path fill-rule="evenodd" clip-rule="evenodd" d="M80.2048 28.7904C79.7086 25.018 77.9834 21.4891 75.2634 18.7691C72.0044 15.5102 67.5843 13.6793 62.9755 13.6793C58.3666 13.6793 53.9466 15.5102 50.6876 18.7691C47.9676 21.4891 46.2424 25.018 45.7462 28.7903L80.2048 28.7904ZM82.4887 28.7904C81.9806 24.4149 80.0119 20.3121 76.8661 17.1664C73.1821 13.4823 68.1855 11.4127 62.9755 11.4127C57.7655 11.4127 52.7689 13.4823 49.0848 17.1664C45.9391 20.3121 43.9704 24.4149 43.4623 28.7903C43.3753 29.5391 43.3311 30.2958 43.3311 31.057L82.6198 31.057C82.6198 30.2958 82.5757 29.5391 82.4887 28.7904Z" fill="url(#paint0_linear_3691_2921)"/>
<path fill-rule="evenodd" clip-rule="evenodd" d="M93.1976 31.8881C93.1976 29.76 91.4724 28.0348 89.3443 28.0348H36.6067C34.4786 28.0348 32.7534 29.76 32.7534 31.8881V77.9012C32.7534 83.7431 37.4892 88.479 43.3311 88.479H82.6198C88.4618 88.479 93.1976 83.7431 93.1976 77.9012V31.8881ZM46.4315 45.2094C47.4452 43.1115 49.7618 41.357 52.0325 40.9675C53.3029 40.7496 55.077 40.9452 56.3318 41.4416C58.6162 42.3452 60.5569 44.6234 61.1519 47.1C61.3636 47.9814 61.3634 49.8677 61.1515 50.8261C60.5245 53.6614 58.3873 55.9152 55.5365 56.7471C54.5034 57.0485 52.6405 57.0435 51.5267 56.7362C50.0243 56.3218 48.849 55.6142 47.8261 54.5087C46.239 52.7933 45.5945 51.1692 45.5978 48.8933C45.5999 47.4058 45.8023 46.5116 46.4315 45.2094ZM67.8121 48.208C68.8856 46.6198 70.1781 44.7144 70.6843 43.9739L71.6047 42.6274L72.0398 42.6847C72.2791 42.7162 72.9722 42.7962 73.58 42.8623C74.3472 42.9458 74.6774 43.0189 74.6602 43.1015C74.6466 43.1668 71.991 47.1287 68.7589 51.9056C63.7855 59.256 61.3402 62.8714 55.1546 72.0195C54.7633 72.5984 54.3923 73.072 54.3302 73.0723C53.9787 73.0739 51.4186 72.7398 51.3568 72.6843C51.3163 72.6479 51.4916 72.3127 51.7465 71.9395C52.0014 71.5662 53.3576 69.565 54.7602 67.4922C56.1629 65.4194 59.2342 60.8822 61.5854 57.4096C63.9365 53.937 66.7386 49.7963 67.8121 48.208ZM50.0704 48.6202C50.2023 47.1814 51.091 46.0625 52.4671 45.6028C52.7224 45.5176 53.1292 45.4827 53.5677 45.5087C54.8597 45.585 55.9191 46.3078 56.4995 47.5087C56.7787 48.0864 56.8116 48.2436 56.8097 48.9891C56.8075 49.9066 56.5759 50.5845 56.0474 51.2212C55.2278 52.2084 53.8539 52.6292 52.5793 52.2834C51.9465 52.1117 51.7318 51.9889 51.2111 51.5008C50.3612 50.7041 49.9699 49.716 50.0704 48.6202ZM65.3099 63.5102C66.4079 61.1199 68.7531 59.3506 71.3218 58.9745C71.6389 58.9281 72.2875 58.91 72.7632 58.9345C75.8448 59.093 78.2842 60.718 79.6582 63.5277C80.2608 64.7599 80.3517 65.2081 80.3532 66.9538C80.3543 68.3255 80.3265 68.6106 80.1295 69.25C79.34 71.8112 77.4028 73.8088 74.9253 74.6165C74.1779 74.8602 73.982 74.8824 72.619 74.8787C70.8757 74.8738 70.3306 74.7553 69.0088 74.0941C67.9216 73.5502 66.9501 72.7256 66.1965 71.7069C65.0504 70.1574 64.6175 68.8382 64.6207 66.9048C64.623 65.5393 64.8171 64.583 65.3099 63.5102ZM69.7077 64.9196C70.0509 64.4135 70.7896 63.8817 71.4471 63.6675C72.1289 63.4454 72.61 63.436 73.3426 63.6304C75.8751 64.3024 76.7618 67.4969 74.933 69.3599C74.2301 70.0759 73.5341 70.3647 72.523 70.3601C71.1376 70.3539 70.0363 69.6542 69.4269 68.3933C69.1433 67.8063 69.1121 67.6575 69.1169 66.9069C69.1224 66.0184 69.2471 65.5991 69.7077 64.9196Z" fill="url(#paint1_linear_3691_2921)"/>
<path fill-rule="evenodd" clip-rule="evenodd" d="M106.463 12.5241C106.12 11.6374 105.507 10.8805 104.713 10.3772C103.76 9.77417 102.624 9.58451 101.555 9.84996C100.486 10.1154 99.5703 10.8142 99.0104 11.7927C98.5432 12.6093 98.3554 13.5649 98.4675 14.5088L106.463 12.5241ZM106.993 12.3926C106.611 11.3602 105.907 10.4781 104.988 9.896C103.911 9.21431 102.627 8.99992 101.418 9.29999C100.21 9.60006 99.1749 10.39 98.542 11.4961C98.0016 12.4405 97.792 13.5494 97.9376 14.6403C97.9625 14.827 97.9978 15.0131 98.0437 15.1978L107.159 12.935C107.114 12.7503 107.058 12.5692 106.993 12.3926Z" fill="#FF8AB4"/>
<path fill-rule="evenodd" clip-rule="evenodd" d="M110.36 15.3323C109.847 13.2668 107.757 12.0081 105.692 12.5208L99.1472 14.1454C97.0818 14.6581 95.823 16.7481 96.3358 18.8136L98.4109 27.1732C98.7628 28.5906 100.147 29.467 101.502 29.1305L110.618 26.8676C111.973 26.5312 112.787 25.1093 112.435 23.6919L110.36 15.3323ZM99.6155 18.4532C99.7243 17.8857 100.156 17.3266 100.659 17.1013C100.941 16.9753 101.365 16.9206 101.686 16.9687C102.27 17.0564 102.858 17.4974 103.145 18.0641C103.247 18.2657 103.361 18.7234 103.369 18.9682C103.394 19.6922 103.034 20.3622 102.423 20.7282C102.201 20.8608 101.769 20.9669 101.492 20.9565C101.118 20.9425 100.803 20.8385 100.499 20.6292C100.028 20.3044 99.7802 19.9474 99.6439 19.395C99.5548 19.034 99.5479 18.8054 99.6155 18.4532ZM104.757 17.9493C104.91 17.5021 105.095 16.9654 105.168 16.7565L105.301 16.3768L105.405 16.3656C105.462 16.3595 105.628 16.339 105.773 16.32C105.956 16.2961 106.037 16.2948 106.038 16.3158C106.039 16.3325 105.661 17.4467 105.199 18.7919C104.488 20.8619 104.138 21.8799 103.254 24.4559C103.198 24.6188 103.141 24.7551 103.126 24.7588C103.045 24.7794 102.431 24.8458 102.413 24.8359C102.401 24.8294 102.422 24.738 102.459 24.6327C102.495 24.5275 102.689 23.9638 102.89 23.3801C103.091 22.7963 103.53 21.5186 103.866 20.5406C104.203 19.5626 104.603 18.3965 104.757 17.9493ZM100.665 19.0711C100.609 18.7145 100.748 18.3918 101.04 18.201C101.094 18.1656 101.186 18.1337 101.289 18.1148C101.594 18.0589 101.883 18.1732 102.09 18.4312C102.189 18.5553 102.207 18.5915 102.251 18.7725C102.306 18.9953 102.293 19.1731 102.209 19.358C102.078 19.6447 101.784 19.826 101.468 19.8155C101.311 19.8103 101.254 19.7928 101.103 19.7044C100.858 19.56 100.708 19.3428 100.665 19.0711ZM105.098 21.8063C105.209 21.1631 105.646 20.5987 106.22 20.3595C106.29 20.33 106.44 20.2882 106.552 20.2668C107.276 20.1277 107.94 20.3815 108.428 20.9841C108.642 21.2484 108.69 21.3519 108.796 21.7754C108.879 22.1082 108.889 22.1789 108.882 22.3454C108.853 23.0123 108.524 23.6086 107.998 23.9473C107.839 24.0494 107.795 24.0661 107.479 24.1437C107.074 24.2429 106.94 24.2456 106.594 24.1613C106.309 24.0919 106.034 23.9478 105.797 23.744C105.438 23.4341 105.258 23.1389 105.142 22.6696C105.061 22.3382 105.048 22.095 105.098 21.8063ZM106.203 21.895C106.252 21.7524 106.392 21.5808 106.531 21.491C106.676 21.3978 106.787 21.3678 106.969 21.3728C107.597 21.39 107.995 22.114 107.683 22.6714C107.563 22.8856 107.419 22.9958 107.184 23.0529C106.862 23.1312 106.565 23.0248 106.347 22.754C106.246 22.6279 106.23 22.5936 106.186 22.4112C106.134 22.1953 106.137 22.0864 106.203 21.895Z" fill="#FF8AB4"/>
<path fill-rule="evenodd" clip-rule="evenodd" d="M11.9963 59.1145C11.422 58.3571 10.6237 57.7993 9.72058 57.5355C8.63849 57.2195 7.49453 57.3514 6.54034 57.9023C5.58615 58.4532 4.8999 59.3779 4.63255 60.4731C4.40942 61.3871 4.49335 62.3573 4.86216 63.2334L11.9963 59.1145ZM12.4691 58.8415C11.817 57.9549 10.8966 57.302 9.85206 56.9969C8.62883 56.6397 7.33565 56.7888 6.257 57.4116C5.17835 58.0343 4.40259 59.0797 4.10038 60.3176C3.84232 61.3747 3.94758 62.4983 4.38931 63.5064C4.4649 63.6789 4.55034 63.848 4.64549 64.0128L12.7796 59.3166C12.6844 59.1518 12.5807 58.9932 12.4691 58.8415Z" fill="#FF8AB4"/>
<path fill-rule="evenodd" clip-rule="evenodd" d="M16.5184 60.7349C15.4544 58.8919 13.0977 58.2605 11.2547 59.3245L5.41484 62.6962C3.57182 63.7603 2.94036 66.1169 4.00442 67.9599L8.31107 75.4192C9.04131 76.6841 10.6138 77.1433 11.8232 76.445L19.9573 71.7488C21.1668 71.0505 21.5553 69.4591 20.8251 68.1943L16.5184 60.7349ZM7.05643 66.7063C7.00405 66.1309 7.26436 65.4742 7.68577 65.1184C7.92156 64.9194 8.3133 64.7497 8.63515 64.7071C9.22105 64.6297 9.90763 64.891 10.3404 65.3561C10.4944 65.5216 10.7301 65.93 10.8061 66.1628C11.0307 66.8517 10.8699 67.5951 10.3837 68.116C10.2075 68.3047 9.82117 68.5263 9.55216 68.5929C9.18931 68.6827 8.85753 68.67 8.50756 68.5529C7.96456 68.3713 7.62812 68.0967 7.34431 67.6035C7.15882 67.2812 7.08894 67.0634 7.05643 66.7063ZM11.8578 64.7999C11.8815 64.3277 11.9109 63.7607 11.9231 63.5398L11.9454 63.1383L12.0426 63.0987C12.0961 63.0769 12.2496 63.0114 12.3837 62.9531C12.553 62.8794 12.6305 62.8558 12.6372 62.8757C12.6426 62.8915 12.588 64.0667 12.516 65.4872C12.4051 67.6731 12.3508 68.7482 12.2137 71.4682C12.205 71.6403 12.1874 71.7872 12.1746 71.7947C12.102 71.837 11.5302 72.0707 11.5105 72.0661C11.4976 72.063 11.492 71.9695 11.4981 71.8582C11.5042 71.7469 11.5348 71.1516 11.5661 70.5351C11.5974 69.9187 11.6661 68.5692 11.7188 67.5364C11.7715 66.5035 11.834 65.2721 11.8578 64.7999ZM8.23615 67.0098C8.0836 66.6825 8.12775 66.334 8.35517 66.07C8.39738 66.0211 8.47723 65.9649 8.57127 65.9181C8.8483 65.7802 9.15799 65.81 9.42826 66.0007C9.55826 66.0924 9.58474 66.1225 9.67753 66.2841C9.79176 66.483 9.82855 66.6575 9.79871 66.8585C9.75244 67.1702 9.52059 67.4255 9.21348 67.503C9.06099 67.5415 9.0012 67.5406 8.83239 67.4971C8.55685 67.4262 8.35233 67.2591 8.23615 67.0098ZM13.2525 68.412C13.181 67.7632 13.4454 67.0998 13.9302 66.7114C13.9901 66.6634 14.1221 66.582 14.2236 66.5304C14.8814 66.1964 15.5896 66.2566 16.2253 66.7007C16.5041 66.8954 16.5789 66.9816 16.7974 67.3594C16.9691 67.6562 16.999 67.7213 17.0381 67.8833C17.1948 68.5322 17.0435 69.1962 16.6315 69.6672C16.5072 69.8093 16.4694 69.8375 16.1868 69.9997C15.8253 70.207 15.6976 70.2465 15.3413 70.2613C15.0482 70.2735 14.744 70.2111 14.4606 70.0806C14.0297 69.8822 13.7752 69.6483 13.5341 69.2293C13.3639 68.9334 13.2846 68.7032 13.2525 68.412ZM14.3392 68.1915C14.3469 68.0408 14.4334 67.8374 14.5428 67.7125C14.6562 67.5829 14.7546 67.5233 14.9306 67.4779C15.5389 67.3206 16.1218 67.9063 15.976 68.5282C15.92 68.7672 15.812 68.913 15.6021 69.0328C15.3145 69.1971 14.999 69.1773 14.7153 68.9771C14.5832 68.8839 14.5581 68.8554 14.4653 68.6923C14.3553 68.4993 14.3287 68.3936 14.3392 68.1915Z" fill="#FF8AB4"/>
<path fill-rule="evenodd" clip-rule="evenodd" d="M29.9519 7.13454C30.0817 6.19291 29.9118 5.23397 29.4599 4.40875C28.9184 3.42001 28.0164 2.7042 26.9522 2.4188C25.888 2.1334 24.7488 2.30179 23.7853 2.88691C22.9811 3.37527 22.3542 4.12054 21.9953 5.00071L29.9519 7.13454ZM30.4793 7.27597C30.6453 6.18797 30.4564 5.07537 29.9338 4.12098C29.3217 3.00328 28.302 2.19411 27.099 1.87148C25.896 1.54886 24.6082 1.7392 23.519 2.40064C22.5889 2.96544 21.8687 3.83422 21.468 4.85928C21.3994 5.03469 21.3402 5.21467 21.2909 5.39849L30.3628 7.83141C30.4121 7.6476 30.4509 7.46214 30.4793 7.27597Z" fill="#56FD99"/>
<path fill-rule="evenodd" clip-rule="evenodd" d="M32.0028 11.4785C32.5541 9.42297 31.3346 7.30979 29.2791 6.75854L22.766 5.01183C20.7105 4.46058 18.5973 5.68001 18.0461 7.7355L15.815 16.0548C15.4367 17.4655 16.2235 18.9023 17.5724 19.264L26.6443 21.6969C27.9932 22.0587 29.3934 21.2084 29.7717 19.7978L32.0028 11.4785ZM21.0903 9.00782C21.4602 8.564 22.1088 8.28381 22.6583 8.33037C22.9658 8.35642 23.3627 8.51351 23.6203 8.71108C24.0893 9.07073 24.3899 9.74103 24.3669 10.3759C24.3587 10.6018 24.2365 11.0573 24.1255 11.2756C23.7971 11.9214 23.1577 12.3333 22.4455 12.3576C22.1875 12.3664 21.7577 12.2499 21.5204 12.1067C21.2003 11.9136 20.9747 11.6699 20.8101 11.3396C20.5548 10.8272 20.5111 10.3951 20.6593 9.84572C20.7561 9.48669 20.8607 9.2833 21.0903 9.00782ZM25.833 11.0559C26.1837 10.7388 26.6055 10.3588 26.7704 10.2113L27.0701 9.94318L27.1669 9.98395C27.2201 10.0064 27.3749 10.0686 27.511 10.1222C27.6827 10.1899 27.7543 10.228 27.7449 10.2469C27.7376 10.2618 26.8678 11.054 25.8122 12.0073C24.1878 13.4742 23.389 14.1958 21.3684 16.0218C21.2405 16.1373 21.1242 16.2287 21.1098 16.2249C21.0286 16.2035 20.4591 15.9643 20.4484 15.9471C20.4414 15.9358 20.5036 15.8657 20.5866 15.7914C20.6696 15.717 21.1124 15.3178 21.5705 14.9041C22.0286 14.4905 23.0316 13.5851 23.7994 12.8922C24.5671 12.1992 25.4823 11.3729 25.833 11.0559ZM21.7097 10.0567C21.8333 9.71749 22.111 9.50235 22.4585 9.47656C22.523 9.47179 22.6191 9.48856 22.7187 9.52198C23.0121 9.62042 23.2099 9.86056 23.2662 10.1865C23.2932 10.3432 23.2906 10.3833 23.2419 10.5632C23.182 10.7846 23.0846 10.9339 22.9214 11.0549C22.6682 11.2425 22.3237 11.2591 22.0518 11.0966C21.9168 11.016 21.8752 10.9731 21.7865 10.823C21.6419 10.578 21.6155 10.3151 21.7097 10.0567ZM24.2643 14.5959C24.6726 14.0867 25.3287 13.8047 25.9462 13.8729C26.0224 13.8814 26.1733 13.9172 26.2816 13.9526C26.9829 14.1816 27.4409 14.7251 27.5762 15.4886C27.6356 15.8235 27.6275 15.9373 27.5148 16.3589C27.4263 16.6902 27.4014 16.7574 27.3145 16.8995C26.9663 17.4691 26.3897 17.8315 25.7653 17.8731C25.5769 17.8857 25.5303 17.8789 25.2158 17.7936C24.8136 17.6845 24.6954 17.6221 24.433 17.3806C24.2172 17.182 24.0462 16.9227 23.9382 16.63C23.7739 16.1849 23.7594 15.8396 23.8853 15.3729C23.9743 15.0433 24.081 14.8244 24.2643 14.5959ZM25.1885 15.2086C25.3005 15.1076 25.5055 15.0249 25.6712 15.0139C25.843 15.0025 25.9547 15.03 26.1113 15.1223C26.6525 15.4414 26.6504 16.2677 26.1075 16.6043C25.8988 16.7337 25.7194 16.7603 25.4862 16.6966C25.1667 16.6093 24.9578 16.3722 24.8987 16.03C24.8712 15.8706 24.8737 15.8328 24.9234 15.6518C24.9822 15.4376 25.0381 15.3441 25.1885 15.2086Z" fill="#56FD99"/>
<path fill-rule="evenodd" clip-rule="evenodd" d="M114.569 85.1277C114.851 84.2198 114.84 83.246 114.528 82.3581C114.156 81.2943 113.382 80.4409 112.379 79.9857C111.376 79.5305 110.224 79.5107 109.178 79.9308C108.305 80.2814 107.565 80.9144 107.067 81.7242L114.569 85.1277ZM115.066 85.3533C115.408 84.3069 115.403 83.1784 115.043 82.1516C114.621 80.949 113.747 79.9842 112.613 79.4697C111.479 78.9551 110.177 78.9327 108.995 79.4076C107.985 79.8131 107.133 80.5527 106.57 81.4986C106.474 81.6605 106.386 81.8284 106.307 82.0017L114.861 85.8823C114.939 85.709 115.008 85.5323 115.066 85.3533Z" fill="#78BEFF"/>
<path fill-rule="evenodd" clip-rule="evenodd" d="M115.884 89.748C116.763 87.81 115.905 85.5262 113.967 84.647L107.826 81.8609C105.888 80.9817 103.604 81.84 102.725 83.778L99.1662 91.6217C98.5627 92.9517 99.1046 94.4977 100.376 95.0747L108.93 98.9552C110.202 99.5322 111.722 98.9218 112.325 97.5918L115.884 89.748ZM105.521 85.5299C105.958 85.1524 106.644 84.9818 107.178 85.1174C107.477 85.1933 107.843 85.413 108.065 85.65C108.469 86.0813 108.656 86.7917 108.53 87.4143C108.485 87.6359 108.29 88.0653 108.145 88.2626C107.716 88.8461 107.018 89.1482 106.311 89.056C106.055 89.0226 105.65 88.8374 105.439 88.6575C105.155 88.4147 104.972 88.1375 104.864 87.7848C104.695 87.2375 104.723 86.8041 104.959 86.2863C105.113 85.9479 105.249 85.7643 105.521 85.5299ZM109.866 88.3244C110.263 88.0688 110.742 87.7627 110.928 87.6441L111.268 87.4285L111.356 87.4845C111.405 87.5153 111.548 87.602 111.673 87.6771C111.832 87.7718 111.896 87.8211 111.884 87.8382C111.874 87.8517 110.887 88.4914 109.69 89.2597C107.848 90.4419 106.942 91.0235 104.651 92.4953C104.506 92.5884 104.376 92.6596 104.362 92.6535C104.286 92.6192 103.763 92.2902 103.755 92.2715C103.75 92.2592 103.823 92.2002 103.917 92.1404C104.011 92.0806 104.513 91.7589 105.032 91.4256C105.552 91.0922 106.689 90.3626 107.56 89.8043C108.43 89.2459 109.468 88.5799 109.866 88.3244ZM105.961 86.6659C106.138 86.3513 106.447 86.1844 106.794 86.2156C106.858 86.2215 106.951 86.2537 107.043 86.3029C107.317 86.4479 107.473 86.7171 107.475 87.0478C107.476 87.2069 107.467 87.246 107.39 87.4155C107.294 87.6242 107.174 87.7556 106.993 87.8484C106.713 87.9922 106.37 87.9523 106.128 87.7477C106.008 87.6461 105.974 87.5969 105.911 87.4344C105.809 87.169 105.825 86.9054 105.961 86.6659ZM107.74 91.561C108.226 91.1253 108.92 90.9541 109.518 91.1222C109.591 91.1429 109.734 91.2029 109.836 91.2555C110.49 91.5959 110.853 92.2068 110.862 92.9822C110.866 93.3222 110.84 93.4333 110.66 93.8308C110.518 94.1432 110.483 94.2054 110.374 94.3315C109.937 94.8366 109.309 95.1001 108.686 95.0393C108.499 95.0209 108.454 95.0066 108.157 94.8711C107.778 94.6978 107.672 94.617 107.452 94.3359C107.272 94.1047 107.146 93.821 107.087 93.5147C106.997 93.0487 107.039 92.7056 107.24 92.2658C107.381 91.9551 107.522 91.7566 107.74 91.561ZM108.552 92.3163C108.679 92.2349 108.895 92.1868 109.06 92.203C109.232 92.2198 109.337 92.2652 109.477 92.3818C109.959 92.7849 109.822 93.5997 109.231 93.8433C109.004 93.9368 108.823 93.9339 108.603 93.8329C108.302 93.6947 108.135 93.4266 108.132 93.0794C108.131 92.9177 108.14 92.8808 108.218 92.7103C108.311 92.5086 108.382 92.4255 108.552 92.3163Z" fill="#78BEFF"/>
<defs>
<linearGradient id="paint0_linear_3691_2921" x1="62.9755" y1="11.4127" x2="62.9755" y2="88.479" gradientUnits="userSpaceOnUse">
<stop stop-color="#FD56E2"/>
<stop offset="1" stop-color="#D73E9A"/>
</linearGradient>
<linearGradient id="paint1_linear_3691_2921" x1="62.9755" y1="11.4127" x2="62.9755" y2="88.479" gradientUnits="userSpaceOnUse">
<stop stop-color="#FD56E2"/>
<stop offset="1" stop-color="#D73E9A"/>
</linearGradient>
</defs>
</svg>
