<svg width="1380" height="360" viewBox="0 0 1380 360" fill="none" xmlns="http://www.w3.org/2000/svg">
<g clip-path="url(#clip0_3312_42105)">
<rect width="1380" height="360" rx="16" fill="#2C1334"/>
<g filter="url(#filter0_f_3312_42105)">
<path d="M475 -36.4999L587.5 -86.9999L557.5 -82.4999L-73 -82.5L-73 307L-25 230.5L-12.5 141.5L-12.5 115.5L56.5 49L96.5 30L171.5 5.00002L225.5 5.00003L254.5 -11L367 -36.5L475 -36.4999Z" fill="url(#paint0_linear_3312_42105)" fill-opacity="0.7"/>
</g>
<g filter="url(#filter1_f_3312_42105)">
<path d="M895.5 371.5L783 422L813 417.5H1443.5V28L1395.5 104.5L1383 193.5V219.5L1314 286L1274 305L1199 330H1145L1116 346L1003.5 371.5H895.5Z" fill="url(#paint1_linear_3312_42105)" fill-opacity="0.7"/>
</g>
<g filter="url(#filter2_f_3312_42105)">
<path d="M6.56655 130.981C6.48673 131.191 6.30872 131.349 6.09025 131.403L-12.0085 135.886C-12.5542 136.021 -13.0218 135.478 -12.8071 134.958L6.73932 87.6387C6.79516 87.5035 6.80631 87.354 6.77115 87.212L6.62453 86.62C6.58794 86.4723 6.50324 86.3409 6.38378 86.2466L-19.1489 66.092C-19.5965 65.7387 -19.4424 65.0253 -18.8889 64.8882L-0.81631 60.4121C-0.606931 60.3603 -0.385354 60.4099 -0.218169 60.5462L16.5593 74.2243C16.7265 74.3606 16.9481 74.4103 17.1574 74.3585L17.5202 74.2686C17.7388 74.2145 17.9169 74.0565 17.9967 73.8459L32.0739 36.674C32.1536 36.4634 32.3317 36.3054 32.5503 36.2513L50.6554 31.7672C51.1999 31.6323 51.6671 32.1727 51.455 32.692L32.0393 80.2366C31.9843 80.3712 31.9736 80.5197 32.0085 80.6607L32.1552 81.2533C32.192 81.4016 32.2772 81.5334 32.3974 81.6277L57.7835 101.562C58.2326 101.915 58.0791 102.63 57.5249 102.767L39.4588 107.242C39.2482 107.294 39.0253 107.243 38.8579 107.105L22.1421 93.3331C21.9747 93.1952 21.7519 93.1446 21.5413 93.1968L21.1804 93.2861C20.9619 93.3402 20.7839 93.4981 20.7041 93.7085L6.56655 130.981Z" fill="#FDEB56"/>
<path d="M75.4184 97.6292C75.5095 97.9968 75.2853 98.3686 74.9177 98.4596L61.1447 101.871C60.7771 101.962 60.4053 101.738 60.3143 101.37L47.3882 49.1796C47.2971 48.812 47.5213 48.4402 47.8889 48.3492L77.0299 41.1318C89.8042 37.9679 99.6387 43.2474 102.785 55.9488C105.93 68.6502 99.7164 77.9893 86.9421 81.1531L72.9053 84.6297C72.5377 84.7207 72.3135 85.0925 72.4045 85.4601L75.4184 97.6292ZM78.6864 55.0498L66.3367 58.1085C65.9691 58.1996 65.7449 58.5714 65.836 58.939L68.7312 70.6287C68.8222 70.9963 69.194 71.2205 69.5616 71.1295L81.9113 68.0708C87.2138 66.7575 89.1259 65.1818 87.7607 59.6698C86.4153 54.2378 83.9889 53.7366 78.6864 55.0498Z" fill="#FDEB56"/>
</g>
<g filter="url(#filter3_f_3312_42105)">
<path d="M329.367 353.333C329.323 353.458 329.22 353.553 329.093 353.588L318.512 356.495C318.193 356.582 317.91 356.27 318.028 355.961L328.824 327.832C328.855 327.751 328.859 327.663 328.836 327.58L328.741 327.234C328.717 327.148 328.666 327.072 328.594 327.018L313.273 315.541C313.004 315.339 313.085 314.917 313.408 314.828L323.974 311.926C324.096 311.893 324.227 311.919 324.328 311.996L334.401 319.794C334.502 319.872 334.633 319.897 334.755 319.864L334.967 319.806C335.095 319.77 335.198 319.675 335.241 319.55L342.97 297.472C343.014 297.347 343.117 297.251 343.244 297.216L353.829 294.309C354.147 294.221 354.43 294.532 354.313 294.841L343.598 323.101C343.568 323.181 343.563 323.268 343.586 323.351L343.681 323.697C343.705 323.784 343.757 323.86 343.829 323.914L359.061 335.264C359.33 335.465 359.25 335.888 358.926 335.977L348.364 338.878C348.241 338.912 348.109 338.885 348.009 338.806L337.97 330.953C337.869 330.874 337.738 330.848 337.615 330.881L337.404 330.939C337.276 330.974 337.173 331.07 337.13 331.195L329.367 353.333Z" fill="#FDEB56"/>
<path d="M369.377 332.688C369.436 332.903 369.309 333.125 369.095 333.184L361.043 335.395C360.828 335.454 360.606 335.328 360.547 335.113L352.166 304.601C352.107 304.386 352.233 304.164 352.448 304.105L369.485 299.426C376.953 297.375 382.817 300.334 384.857 307.76C386.896 315.185 383.379 320.772 375.911 322.823L367.705 325.077C367.49 325.136 367.364 325.359 367.423 325.573L369.377 332.688ZM370.666 307.589L363.446 309.573C363.231 309.632 363.105 309.854 363.164 310.069L365.041 316.903C365.1 317.118 365.322 317.244 365.537 317.185L372.757 315.202C375.857 314.35 376.958 313.395 376.073 310.172C375.201 306.997 373.766 306.738 370.666 307.589Z" fill="#FDEB56"/>
</g>
<g filter="url(#filter4_f_3312_42105)">
<path d="M995.009 202.283C994.891 202.344 994.751 202.344 994.634 202.283L984.918 197.183C984.625 197.029 984.632 196.607 984.929 196.463L1012.02 183.279C1012.1 183.241 1012.16 183.18 1012.2 183.104L1012.37 182.786C1012.41 182.706 1012.42 182.616 1012.41 182.527L1009.05 163.681C1008.99 163.351 1009.34 163.097 1009.63 163.253L1019.34 168.346C1019.45 168.405 1019.53 168.513 1019.55 168.639L1021.58 181.214C1021.6 181.339 1021.68 181.447 1021.8 181.506L1021.99 181.609C1022.11 181.67 1022.25 181.67 1022.36 181.609L1043.08 170.753C1043.2 170.692 1043.34 170.692 1043.46 170.753L1053.18 175.855C1053.47 176.008 1053.47 176.429 1053.17 176.574L1026.05 189.908C1025.97 189.946 1025.91 190.007 1025.87 190.083L1025.7 190.401C1025.66 190.481 1025.64 190.572 1025.66 190.66L1029.04 209.352C1029.1 209.683 1028.75 209.938 1028.46 209.781L1018.76 204.691C1018.65 204.631 1018.57 204.522 1018.55 204.396L1016.57 191.804C1016.55 191.677 1016.48 191.568 1016.36 191.509L1016.17 191.407C1016.05 191.346 1015.91 191.345 1015.79 191.407L995.009 202.283Z" fill="#FDEB56"/>
<path d="M1038.34 214.513C1038.23 214.71 1037.99 214.786 1037.79 214.683L1030.4 210.802C1030.2 210.698 1030.13 210.454 1030.23 210.257L1044.94 182.24C1045.04 182.043 1045.28 181.967 1045.48 182.071L1061.12 190.282C1067.98 193.882 1070.25 200.048 1066.67 206.866C1063.09 213.685 1056.7 215.366 1049.85 211.766L1042.31 207.811C1042.11 207.707 1041.87 207.783 1041.77 207.98L1038.34 214.513ZM1056.42 197.054L1049.79 193.574C1049.59 193.47 1049.34 193.546 1049.24 193.744L1045.95 200.019C1045.84 200.216 1045.92 200.46 1046.12 200.564L1052.75 204.044C1055.59 205.538 1057.05 205.592 1058.6 202.633C1060.13 199.717 1059.26 198.548 1056.42 197.054Z" fill="#FDEB56"/>
</g>
<g filter="url(#filter5_f_3312_42105)">
<path d="M75.29 360.357C75.2066 360.407 75.1039 360.413 75.0151 360.373L67.6618 357.061C67.44 356.961 67.4261 356.652 67.638 356.532L86.931 345.662C86.9861 345.631 87.0299 345.583 87.0559 345.525L87.1642 345.285C87.1912 345.225 87.1975 345.158 87.1821 345.094L83.8841 331.416C83.8263 331.176 84.0694 330.975 84.2942 331.076L91.637 334.383C91.7221 334.421 91.7842 334.497 91.8046 334.588L93.8556 343.724C93.876 343.815 93.9381 343.891 94.0231 343.929L94.1705 343.996C94.2594 344.036 94.3621 344.03 94.4456 343.979L109.167 335.099C109.25 335.048 109.353 335.042 109.442 335.082L116.798 338.395C117.019 338.495 117.033 338.804 116.822 338.924L97.5137 349.905C97.4591 349.936 97.4158 349.984 97.3899 350.041L97.2815 350.282C97.2544 350.342 97.2481 350.41 97.2638 350.474L100.571 364.038C100.629 364.278 100.386 364.48 100.161 364.379L92.8206 361.073C92.735 361.034 92.6728 360.957 92.6527 360.866L90.6479 351.715C90.6278 351.623 90.5655 351.546 90.48 351.508L90.3334 351.442C90.2446 351.402 90.1419 351.408 90.0585 351.458L75.29 360.357Z" fill="#FDEB56"/>
<path d="M107.62 367.413C107.552 367.562 107.377 367.629 107.227 367.561L101.631 365.041C101.482 364.974 101.416 364.798 101.483 364.649L111.033 343.444C111.101 343.295 111.276 343.228 111.426 343.296L123.265 348.628C128.455 350.966 130.389 355.39 128.065 360.55C125.741 365.711 121.132 367.226 115.942 364.889L110.239 362.32C110.089 362.253 109.914 362.319 109.846 362.469L107.62 367.413ZM120.109 353.805L115.092 351.545C114.942 351.477 114.767 351.544 114.7 351.693L112.56 356.443C112.493 356.592 112.56 356.768 112.709 356.835L117.727 359.095C119.881 360.065 120.952 360.04 121.961 357.801C122.955 355.594 122.264 354.775 120.109 353.805Z" fill="#FDEB56"/>
</g>
<g filter="url(#filter6_f_3312_42105)">
<path d="M1197.31 79.8622C1197.26 80.0633 1197.12 80.2273 1196.92 80.3011L1180.89 86.4149C1180.41 86.5993 1179.92 86.1556 1180.06 85.6571L1192.63 40.26C1192.67 40.1303 1192.66 39.9925 1192.61 39.8668L1192.41 39.3425C1192.36 39.2117 1192.27 39.1012 1192.15 39.0284L1166.58 23.4716C1166.14 23.1989 1166.2 22.5302 1166.69 22.3432L1182.69 16.2382C1182.88 16.1674 1183.09 16.1881 1183.25 16.2939L1200.1 26.9131C1200.27 27.0189 1200.48 27.0396 1200.66 26.9688L1200.99 26.8463C1201.18 26.7724 1201.32 26.6082 1201.37 26.407L1210.08 -9.11201C1210.13 -9.31324 1210.27 -9.47743 1210.47 -9.55127L1226.5 -15.6672C1226.98 -15.8512 1227.47 -15.4098 1227.34 -14.9119L1214.91 30.6762C1214.88 30.8052 1214.88 30.942 1214.93 31.0669L1215.13 31.5917C1215.18 31.723 1215.27 31.8339 1215.39 31.9066L1240.8 47.2789C1241.25 47.5509 1241.19 48.221 1240.7 48.4082L1224.7 54.511C1224.51 54.5822 1224.31 54.5608 1224.14 54.4535L1207.33 43.7414C1207.17 43.6341 1206.96 43.6128 1206.77 43.6839L1206.45 43.8058C1206.26 43.8796 1206.11 44.0437 1206.06 44.2448L1197.31 79.8622Z" fill="#FDEB56"/>
<path d="M1256.47 41.7185C1256.59 42.0441 1256.43 42.4087 1256.1 42.5328L1243.91 47.1854C1243.58 47.3096 1243.22 47.1463 1243.09 46.8208L1225.46 0.59968C1225.34 0.274122 1225.5 -0.0904627 1225.83 -0.21464L1251.63 -10.0586C1262.95 -14.3738 1272.52 -10.6498 1276.81 0.598833C1281.1 11.8475 1276.47 21.0701 1265.15 25.3853L1252.72 30.127C1252.4 30.2512 1252.23 30.6158 1252.36 30.9413L1256.47 41.7185ZM1254.7 2.46747L1243.76 6.63924C1243.44 6.76342 1243.28 7.128 1243.4 7.45356L1247.35 17.8063C1247.47 18.1318 1247.84 18.2951 1248.16 18.1709L1259.1 13.9991C1263.8 12.2079 1265.37 10.5554 1263.5 5.67394C1261.67 0.863187 1259.4 0.676259 1254.7 2.46747Z" fill="#FDEB56"/>
</g>
<g filter="url(#filter7_f_3312_42105)">
<path fill-rule="evenodd" clip-rule="evenodd" d="M1439.05 250.171C1437.87 250.574 1436.56 250.506 1435.41 249.961C1431.14 247.948 1426.09 249.677 1424.16 253.768C1422.22 257.887 1424.06 262.847 1428.27 264.886C1430.64 266.033 1431.9 268.602 1430.81 270.916L1424.03 285.291C1418.32 297.39 1403.6 302.441 1391.14 296.563L1372.33 287.691C1370.39 286.774 1369.54 284.501 1370.43 282.613L1376.14 270.508C1377.25 268.154 1376.22 265.407 1373.79 264.264C1371.43 263.148 1368.59 264.072 1367.48 266.426L1361.77 278.531C1360.88 280.419 1358.59 281.206 1356.65 280.292L1316.95 261.566C1304.55 255.716 1299.02 241.119 1304.73 229.014L1311.51 214.639C1312.61 212.325 1315.39 211.666 1317.79 212.767C1322.04 214.72 1327.03 212.985 1328.98 208.866C1330.85 204.887 1328.94 200.283 1324.55 198.215C1323.4 197.67 1322.51 196.705 1322.08 195.539C1321.64 194.374 1321.68 193.091 1322.21 191.97L1329.06 177.456C1334.76 165.373 1349.59 160.288 1362.03 166.155L1401.67 184.853C1403.61 185.768 1404.46 188.041 1403.57 189.929L1396.8 204.276C1395.72 206.573 1396.78 209.404 1399.15 210.52C1401.57 211.663 1404.37 210.655 1405.46 208.358L1412.22 194.011C1413.11 192.123 1415.41 191.335 1417.35 192.253L1436.16 201.124C1448.62 207.002 1454.09 221.572 1448.38 233.677L1441.72 247.799C1441.19 248.92 1440.23 249.767 1439.05 250.171ZM1378.92 253.392C1381.34 254.534 1384.15 253.527 1385.23 251.229L1395.81 228.813C1396.89 226.515 1395.88 223.712 1393.46 222.569C1391.1 221.453 1388.24 222.433 1387.15 224.731L1376.58 247.147C1375.49 249.445 1376.56 252.276 1378.92 253.392Z" fill="#8EC9ED"/>
</g>
<g filter="url(#filter8_f_3312_42105)">
<path fill-rule="evenodd" clip-rule="evenodd" d="M210.96 211.233C210.3 211.559 209.528 211.617 208.811 211.385C206.156 210.526 203.328 211.92 202.505 214.464C201.676 217.025 203.13 219.794 205.75 220.672C207.227 221.165 208.161 222.576 207.696 224.016L204.804 232.954C202.37 240.477 194.118 244.547 186.371 242.041L174.677 238.257C173.468 237.866 172.797 236.598 173.177 235.424L175.612 227.897C176.086 226.433 175.274 224.901 173.767 224.413C172.297 223.937 170.705 224.693 170.232 226.156L167.796 233.683C167.416 234.857 166.129 235.492 164.924 235.102L140.242 227.116C132.531 224.621 128.19 216.48 130.626 208.953L133.518 200.016C133.983 198.576 135.567 197.98 137.053 198.446C139.695 199.27 142.491 197.876 143.32 195.315C144.12 192.841 142.649 190.286 139.923 189.404C139.205 189.172 138.614 188.673 138.27 188.023C137.925 187.372 137.852 186.617 138.078 185.92L140.998 176.895C143.429 169.383 151.745 165.283 159.478 167.785L184.124 175.759C185.329 176.149 186.001 177.417 185.621 178.591L182.735 187.512C182.273 188.941 183.109 190.52 184.579 190.996C186.086 191.483 187.653 190.682 188.115 189.253L191.001 180.332C191.381 179.158 192.668 178.524 193.877 178.915L205.571 182.698C213.318 185.205 217.623 193.334 215.187 200.86L212.346 209.642C212.121 210.339 211.62 210.908 210.96 211.233ZM175.955 217.653C177.461 218.14 179.028 217.339 179.491 215.91L184 201.972C184.462 200.543 183.662 198.975 182.156 198.488C180.685 198.012 179.082 198.802 178.62 200.231L174.11 214.169C173.648 215.598 174.484 217.177 175.955 217.653Z" fill="#BC5AD7"/>
</g>
<g filter="url(#filter9_f_3312_42105)">
<path fill-rule="evenodd" clip-rule="evenodd" d="M1102.64 320.863C1102.26 321.491 1101.64 321.954 1100.91 322.142C1098.2 322.839 1096.56 325.532 1097.23 328.12C1097.9 330.727 1100.61 332.286 1103.3 331.624C1104.81 331.249 1106.35 331.94 1106.73 333.405L1109.08 342.501C1111.05 350.158 1106.27 358.015 1098.38 360.049L1086.48 363.119C1085.25 363.436 1084 362.725 1083.7 361.53L1081.72 353.87C1081.34 352.381 1079.83 351.521 1078.3 351.917C1076.8 352.303 1075.86 353.793 1076.24 355.283L1078.22 362.943C1078.53 364.138 1077.78 365.363 1076.55 365.679L1051.44 372.159C1043.59 374.184 1035.56 369.635 1033.58 361.975L1031.24 352.878C1030.86 351.414 1031.88 350.062 1033.38 349.659C1036.05 348.939 1037.67 346.265 1037 343.658C1036.35 341.14 1033.74 339.771 1030.96 340.487C1030.23 340.675 1029.46 340.571 1028.83 340.206C1028.19 339.841 1027.72 339.243 1027.54 338.533L1025.17 329.348C1023.2 321.703 1028.02 313.786 1035.89 311.755L1060.98 305.285C1062.2 304.969 1063.45 305.68 1063.76 306.875L1066.1 315.954C1066.47 317.408 1068.03 318.293 1069.52 317.907C1071.06 317.512 1071.95 315.995 1071.57 314.541L1069.23 305.462C1068.92 304.267 1069.67 303.042 1070.9 302.725L1082.8 299.655C1090.69 297.621 1098.68 302.179 1100.65 309.839L1102.96 318.776C1103.14 319.485 1103.02 320.234 1102.64 320.863ZM1076.52 345.037C1078.05 344.641 1078.95 343.125 1078.57 341.671L1074.91 327.485C1074.54 326.031 1073.02 325.136 1071.49 325.532C1069.99 325.918 1069.06 327.444 1069.44 328.898L1073.1 343.083C1073.47 344.537 1075.02 345.423 1076.52 345.037Z" fill="#8EC9ED"/>
</g>
<g filter="url(#filter10_f_3312_42105)">
<path fill-rule="evenodd" clip-rule="evenodd" d="M366.805 70.4947C366.543 70.9207 366.121 71.2337 365.624 71.3601C363.787 71.8278 362.667 73.6538 363.115 75.414C363.566 77.1863 365.405 78.2511 367.229 77.8071C368.256 77.5557 369.305 78.0283 369.558 79.0242L371.133 85.2092C372.459 90.4151 369.19 95.7434 363.829 97.1085L355.737 99.1689C354.9 99.3819 354.055 98.8962 353.848 98.0836L352.522 92.8752C352.264 91.8625 351.242 91.2753 350.2 91.5408C349.182 91.7999 348.541 92.8105 348.799 93.8232L350.125 99.0316C350.332 99.8442 349.822 100.675 348.988 100.887L331.908 105.236C326.572 106.595 321.129 103.488 319.803 98.2795L318.228 92.0945C317.974 91.0987 318.669 90.1824 319.691 89.9117C321.508 89.4285 322.611 87.6148 322.16 85.8425C321.724 84.1305 319.953 83.195 318.066 83.6753C317.57 83.8017 317.049 83.7289 316.616 83.4798C316.182 83.2307 315.867 82.8231 315.744 82.3409L314.154 76.0956C312.83 70.8969 316.126 65.5285 321.477 64.1658L338.532 59.8232C339.366 59.6108 340.211 60.0965 340.418 60.9091L341.99 67.082C342.241 68.0707 343.294 68.6756 344.312 68.4165C345.354 68.151 345.965 67.1226 345.713 66.134L344.141 59.9611C343.934 59.1485 344.444 58.3177 345.281 58.1047L353.372 56.0443C358.734 54.6791 364.152 57.7928 365.478 63.0012L367.025 69.0776C367.148 69.5599 367.066 70.0686 366.805 70.4947ZM349.009 86.8628C350.051 86.5974 350.662 85.5689 350.41 84.5803L347.954 74.9352C347.702 73.9465 346.674 73.3353 345.632 73.6007C344.614 73.8598 343.979 74.8946 344.231 75.8832L346.687 85.5284C346.938 86.517 347.991 87.1219 349.009 86.8628Z" fill="#8EC9ED"/>
</g>
<g filter="url(#filter11_f_3312_42105)">
<path fill-rule="evenodd" clip-rule="evenodd" d="M1023 39.4145C1022.58 39.678 1022.06 39.7681 1021.56 39.6584C1019.71 39.2523 1017.88 40.3813 1017.5 42.1556C1017.1 43.9419 1018.27 45.7183 1020.1 46.14C1021.13 46.3764 1021.85 47.269 1021.63 48.2727L1020.27 54.5069C1019.12 59.7542 1013.8 63.0496 1008.4 61.8643L1000.24 60.0753C999.401 59.8904 998.863 59.0771 999.043 58.258L1000.19 53.0082C1000.42 51.9874 999.769 51.0043 998.718 50.7738C997.692 50.5488 996.665 51.1643 996.442 52.1851L995.29 57.4349C995.11 58.2539 994.282 58.7676 993.441 58.5833L976.226 54.8072C970.847 53.6274 967.377 48.4083 968.528 43.1585L969.896 36.9244C970.116 35.9206 971.147 35.4133 972.183 35.6302C974.023 36.0135 975.823 34.8874 976.215 33.101C976.593 31.3754 975.43 29.7447 973.529 29.3276C973.028 29.2179 972.595 28.9192 972.32 28.5021C972.044 28.085 971.945 27.5793 972.052 27.0932L973.433 20.7983C974.582 15.5583 979.936 12.2389 985.33 13.4221L1002.52 17.1926C1003.36 17.377 1003.9 18.1903 1003.72 19.0094L1002.35 25.2313C1002.14 26.2278 1002.8 27.2408 1003.83 27.4658C1004.88 27.6962 1005.89 27.051 1006.11 26.0545L1007.47 19.8325C1007.65 19.0135 1008.48 18.4998 1009.32 18.6847L1017.48 20.4736C1022.88 21.659 1026.33 26.8726 1025.18 32.1224L1023.83 38.2471C1023.73 38.7332 1023.42 39.1511 1023 39.4145ZM999.752 46.0587C1000.8 46.2892 1001.81 45.6439 1002.03 44.6475L1004.16 34.9256C1004.38 33.9292 1003.73 32.9217 1002.68 32.6912C1001.66 32.4662 1000.63 33.106 1000.41 34.1025L998.275 43.8243C998.057 44.8208 998.726 45.8337 999.752 46.0587Z" fill="#BC5AD7"/>
</g>
</g>
<rect x="0.5" y="0.5" width="1379" height="359" rx="15.5" stroke="url(#paint2_linear_3312_42105)" stroke-opacity="0.1"/>
<defs>
<filter id="filter0_f_3312_42105" x="-193" y="-207" width="900.5" height="634" filterUnits="userSpaceOnUse" color-interpolation-filters="sRGB">
<feFlood flood-opacity="0" result="BackgroundImageFix"/>
<feBlend mode="normal" in="SourceGraphic" in2="BackgroundImageFix" result="shape"/>
<feGaussianBlur stdDeviation="60" result="effect1_foregroundBlur_3312_42105"/>
</filter>
<filter id="filter1_f_3312_42105" x="663" y="-92" width="900.5" height="634" filterUnits="userSpaceOnUse" color-interpolation-filters="sRGB">
<feFlood flood-opacity="0" result="BackgroundImageFix"/>
<feBlend mode="normal" in="SourceGraphic" in2="BackgroundImageFix" result="shape"/>
<feGaussianBlur stdDeviation="60" result="effect1_foregroundBlur_3312_42105"/>
</filter>
<filter id="filter2_f_3312_42105" x="-39.4102" y="11.7462" width="163.001" height="144.16" filterUnits="userSpaceOnUse" color-interpolation-filters="sRGB">
<feFlood flood-opacity="0" result="BackgroundImageFix"/>
<feBlend mode="normal" in="SourceGraphic" in2="BackgroundImageFix" result="shape"/>
<feGaussianBlur stdDeviation="10" result="effect1_foregroundBlur_3312_42105"/>
</filter>
<filter id="filter3_f_3312_42105" x="303.111" y="284.294" width="92.3174" height="82.2156" filterUnits="userSpaceOnUse" color-interpolation-filters="sRGB">
<feFlood flood-opacity="0" result="BackgroundImageFix"/>
<feBlend mode="normal" in="SourceGraphic" in2="BackgroundImageFix" result="shape"/>
<feGaussianBlur stdDeviation="5" result="effect1_foregroundBlur_3312_42105"/>
</filter>
<filter id="filter4_f_3312_42105" x="974.702" y="153.206" width="103.647" height="71.5229" filterUnits="userSpaceOnUse" color-interpolation-filters="sRGB">
<feFlood flood-opacity="0" result="BackgroundImageFix"/>
<feBlend mode="normal" in="SourceGraphic" in2="BackgroundImageFix" result="shape"/>
<feGaussianBlur stdDeviation="5" result="effect1_foregroundBlur_3312_42105"/>
</filter>
<filter id="filter5_f_3312_42105" x="55.4868" y="319.049" width="85.5513" height="60.5388" filterUnits="userSpaceOnUse" color-interpolation-filters="sRGB">
<feFlood flood-opacity="0" result="BackgroundImageFix"/>
<feBlend mode="normal" in="SourceGraphic" in2="BackgroundImageFix" result="shape"/>
<feGaussianBlur stdDeviation="6" result="effect1_foregroundBlur_3312_42105"/>
</filter>
<filter id="filter6_f_3312_42105" x="1164.28" y="-17.7098" width="116.109" height="106.167" filterUnits="userSpaceOnUse" color-interpolation-filters="sRGB">
<feFlood flood-opacity="0" result="BackgroundImageFix"/>
<feBlend mode="normal" in="SourceGraphic" in2="BackgroundImageFix" result="shape"/>
<feGaussianBlur stdDeviation="1" result="effect1_foregroundBlur_3312_42105"/>
</filter>
<filter id="filter7_f_3312_42105" x="1251.21" y="106" width="250.691" height="250.691" filterUnits="userSpaceOnUse" color-interpolation-filters="sRGB">
<feFlood flood-opacity="0" result="BackgroundImageFix"/>
<feBlend mode="normal" in="SourceGraphic" in2="BackgroundImageFix" result="shape"/>
<feGaussianBlur stdDeviation="10" result="effect1_foregroundBlur_3312_42105"/>
</filter>
<filter id="filter8_f_3312_42105" x="112" y="144" width="121.813" height="121.814" filterUnits="userSpaceOnUse" color-interpolation-filters="sRGB">
<feFlood flood-opacity="0" result="BackgroundImageFix"/>
<feBlend mode="normal" in="SourceGraphic" in2="BackgroundImageFix" result="shape"/>
<feGaussianBlur stdDeviation="1" result="effect1_foregroundBlur_3312_42105"/>
</filter>
<filter id="filter9_f_3312_42105" x="1000.14" y="268.927" width="133.96" height="133.96" filterUnits="userSpaceOnUse" color-interpolation-filters="sRGB">
<feFlood flood-opacity="0" result="BackgroundImageFix"/>
<feBlend mode="normal" in="SourceGraphic" in2="BackgroundImageFix" result="shape"/>
<feGaussianBlur stdDeviation="5" result="effect1_foregroundBlur_3312_42105"/>
</filter>
<filter id="filter10_f_3312_42105" x="294" y="32" width="97.2808" height="97.2808" filterUnits="userSpaceOnUse" color-interpolation-filters="sRGB">
<feFlood flood-opacity="0" result="BackgroundImageFix"/>
<feBlend mode="normal" in="SourceGraphic" in2="BackgroundImageFix" result="shape"/>
<feGaussianBlur stdDeviation="5" result="effect1_foregroundBlur_3312_42105"/>
</filter>
<filter id="filter11_f_3312_42105" x="949" y="-10.2115" width="95.7041" height="95.704" filterUnits="userSpaceOnUse" color-interpolation-filters="sRGB">
<feFlood flood-opacity="0" result="BackgroundImageFix"/>
<feBlend mode="normal" in="SourceGraphic" in2="BackgroundImageFix" result="shape"/>
<feGaussianBlur stdDeviation="5" result="effect1_foregroundBlur_3312_42105"/>
</filter>
<linearGradient id="paint0_linear_3312_42105" x1="587.5" y1="307" x2="-116.081" y2="202.185" gradientUnits="userSpaceOnUse">
<stop stop-color="#8EC9ED"/>
<stop offset="1" stop-color="#BC5AD7"/>
</linearGradient>
<linearGradient id="paint1_linear_3312_42105" x1="783" y1="28" x2="1486.58" y2="132.815" gradientUnits="userSpaceOnUse">
<stop stop-color="#F71756"/>
<stop offset="1" stop-color="#FDEB56"/>
</linearGradient>
<linearGradient id="paint2_linear_3312_42105" x1="690" y1="0" x2="690" y2="360" gradientUnits="userSpaceOnUse">
<stop stop-color="white"/>
<stop offset="1" stop-color="white" stop-opacity="0"/>
</linearGradient>
<clipPath id="clip0_3312_42105">
<rect width="1380" height="360" rx="16" fill="white"/>
</clipPath>
</defs>
</svg>
