<svg width="343" height="289" viewBox="0 0 343 289" fill="none" xmlns="http://www.w3.org/2000/svg">
<g clip-path="url(#clip0_3334_42037)">
<rect width="343" height="289" rx="16" fill="#2C1334"/>
<g filter="url(#filter0_f_3334_42037)">
<path d="M157.506 -3.72063L196 -21L185.735 -19.4602L-30 -19.4602L-30 113.813L-13.5761 87.6374L-9.29899 57.1847L-9.29899 48.2884L14.3104 25.5345L27.997 19.0333L53.6594 10.4792L72.1363 10.4792L82.0591 5.00457L120.553 -3.72063L157.506 -3.72063Z" fill="url(#paint0_linear_3334_42037)" fill-opacity="0.7"/>
</g>
<g filter="url(#filter1_f_3334_42037)">
<path d="M81.6739 296.418L18 325L34.9797 322.453H391.836V102L364.669 145.298L357.594 195.671V210.387L318.541 248.025L295.901 258.779L253.452 272.929H222.888L206.475 281.985L142.801 296.418H81.6739Z" fill="url(#paint1_linear_3334_42037)" fill-opacity="0.7"/>
</g>
<g filter="url(#filter2_f_3334_42037)">
<path fill-rule="evenodd" clip-rule="evenodd" d="M36.8047 1.49466C36.5432 1.92072 36.1207 2.23371 35.6243 2.36011C33.7875 2.82782 32.6666 4.65381 33.1148 6.41405C33.5661 8.18635 35.4046 9.25109 37.2289 8.80711C38.2565 8.55573 39.3045 9.02833 39.5581 10.0242L41.133 16.2092C42.4586 21.4151 39.19 26.7434 33.8286 28.1085L25.7368 30.1689C24.9004 30.3819 24.0551 29.8962 23.8482 29.0836L22.522 23.8752C22.2641 22.8625 21.2424 22.2753 20.1999 22.5408C19.1822 22.7999 18.5409 23.8105 18.7988 24.8232L20.125 30.0316C20.3319 30.8442 19.8219 31.6751 18.988 31.8874L1.90845 36.2364C-3.42812 37.5953 -8.87114 34.4879 -10.1974 29.2795L-11.7723 23.0945C-12.0258 22.0987 -11.3314 21.1824 -10.3088 20.9117C-8.4918 20.4285 -7.38894 18.6148 -7.84022 16.8425C-8.27616 15.1305 -10.0473 14.195 -11.9338 14.6753C-12.4302 14.8017 -12.9509 14.7289 -13.3844 14.4798C-13.8178 14.2307 -14.133 13.8231 -14.2558 13.3409L-15.8461 7.09563C-17.1698 1.89689 -13.8745 -3.47153 -8.523 -4.83418L8.53168 -9.17684C9.36567 -9.38921 10.2109 -8.90347 10.4178 -8.09086L11.9896 -1.91796C12.2414 -0.92933 13.2941 -0.324381 14.3117 -0.583513C15.3542 -0.848965 15.9646 -1.87737 15.7128 -2.866L14.141 -9.0389C13.9341 -9.85151 14.4441 -10.6823 15.2806 -10.8953L23.3723 -12.9557C28.7337 -14.3209 34.1519 -11.2072 35.4781 -5.99883L37.0254 0.0776253C37.1482 0.559883 37.0663 1.06859 36.8047 1.49466ZM19.0088 17.8628C20.0513 17.5974 20.6616 16.5689 20.4099 15.5803L17.9539 5.93515C17.7022 4.94653 16.6743 4.33526 15.6318 4.60071C14.6142 4.85984 13.979 5.89457 14.2307 6.8832L16.6867 16.5284C16.9385 17.517 17.9911 18.1219 19.0088 17.8628Z" fill="#8EC9ED"/>
</g>
<g filter="url(#filter3_f_3334_42037)">
<path d="M46.0193 302.519C45.9877 302.609 45.914 302.677 45.8221 302.703L38.2045 304.795C37.9748 304.858 37.771 304.633 37.8563 304.411L45.6284 284.16C45.6506 284.102 45.6537 284.038 45.6373 283.979L45.5689 283.73C45.5518 283.667 45.5145 283.613 45.4629 283.574L34.433 275.311C34.2397 275.166 34.2973 274.862 34.5303 274.798L42.1368 272.709C42.2249 272.685 42.3193 272.704 42.3916 272.76L49.644 278.373C49.7162 278.429 49.8106 278.448 49.8987 278.424L50.0514 278.382C50.1434 278.356 50.2172 278.287 50.2487 278.197L55.813 262.303C55.8445 262.213 55.9182 262.144 56.0102 262.119L63.6304 260.026C63.8596 259.963 64.0633 260.187 63.979 260.409L56.2647 280.754C56.2429 280.811 56.2399 280.874 56.2562 280.934L56.3247 281.183C56.3419 281.246 56.3794 281.301 56.4313 281.339L67.3967 289.511C67.5907 289.655 67.5334 289.96 67.3001 290.024L59.6963 292.112C59.6076 292.137 59.5127 292.117 59.4403 292.061L52.2131 286.407C52.1407 286.35 52.0458 286.331 51.9571 286.355L51.8053 286.397C51.7133 286.422 51.6396 286.491 51.608 286.581L46.0193 302.519Z" fill="#FDEB56"/>
<path d="M74.8237 287.656C74.8662 287.811 74.7752 287.97 74.6205 288.013L68.8236 289.605C68.6689 289.648 68.509 289.557 68.4666 289.402L62.4331 267.436C62.3906 267.281 62.4815 267.121 62.6363 267.079L74.9014 263.71C80.2779 262.233 84.4998 264.364 85.9681 269.71C87.4365 275.055 84.9046 279.077 79.5281 280.554L73.6201 282.177C73.4654 282.219 73.3744 282.379 73.4169 282.534L74.8237 287.656ZM75.752 269.587L70.5541 271.015C70.3994 271.057 70.3084 271.217 70.3509 271.372L71.7023 276.292C71.7448 276.446 71.9047 276.537 72.0594 276.495L77.2573 275.067C79.489 274.454 80.282 273.766 79.6448 271.446C79.0168 269.16 77.9837 268.974 75.752 269.587Z" fill="#FDEB56"/>
</g>
<g filter="url(#filter4_f_3334_42037)">
<path fill-rule="evenodd" clip-rule="evenodd" d="M24.3433 155.944C23.9189 156.153 23.4227 156.19 22.9615 156.041C21.2548 155.489 19.4361 156.385 18.9069 158.021C18.3741 159.668 19.309 161.448 20.9937 162.013C21.9433 162.33 22.5441 163.237 22.2447 164.162L20.3853 169.909C18.8202 174.747 13.5148 177.364 8.53314 175.752L1.01451 173.319C0.237273 173.068 -0.194457 172.253 0.0498373 171.497L1.61564 166.658C1.9201 165.717 1.39823 164.731 0.429572 164.418C-0.516023 164.112 -1.53939 164.598 -1.84385 165.539L-3.40966 170.378C-3.65395 171.133 -4.48148 171.541 -5.25641 171.29L-21.1263 166.156C-26.0849 164.552 -28.8754 159.317 -27.3096 154.478L-25.4502 148.731C-25.1508 147.806 -24.1325 147.422 -23.1771 147.721C-21.4785 148.251 -19.6804 147.355 -19.1476 145.709C-18.6329 144.118 -19.5791 142.475 -21.3319 141.908C-21.7932 141.759 -22.1734 141.438 -22.3948 141.02C-22.6162 140.602 -22.663 140.116 -22.518 139.668L-20.6405 133.865C-19.0776 129.035 -13.7305 126.399 -8.75802 128.007L7.08877 133.135C7.8637 133.385 8.29543 134.201 8.05114 134.956L6.19537 140.691C5.89816 141.61 6.43584 142.626 7.38144 142.931C8.3501 143.245 9.35765 142.729 9.65487 141.811L11.5106 136.075C11.7549 135.32 12.5825 134.912 13.3597 135.163L20.8783 137.596C25.86 139.208 28.6275 144.435 27.0617 149.274L25.2349 154.92C25.0899 155.368 24.7677 155.734 24.3433 155.944ZM1.83578 160.071C2.80443 160.385 3.81199 159.869 4.1092 158.951L7.00884 149.989C7.30605 149.07 6.79143 148.062 5.82277 147.748C4.87717 147.443 3.84655 147.951 3.54934 148.869L0.649709 157.831C0.352497 158.75 0.890181 159.765 1.83578 160.071Z" fill="#BC5AD7"/>
</g>
<g filter="url(#filter5_f_3334_42037)">
<path d="M321.534 80.4331C321.512 80.5233 321.447 80.5969 321.36 80.63L314.171 83.3721C313.954 83.4548 313.735 83.2558 313.797 83.0322L319.435 62.6709C319.451 62.6127 319.448 62.551 319.426 62.4946L319.337 62.2594C319.314 62.2007 319.273 62.1512 319.219 62.1185L307.752 55.1411C307.551 55.0188 307.578 54.7188 307.798 54.6349L314.977 51.8968C315.06 51.865 315.153 51.8743 315.229 51.9218L322.786 56.6846C322.861 56.7321 322.954 56.7413 323.037 56.7096L323.181 56.6546C323.268 56.6215 323.333 56.5479 323.355 56.4576L327.261 40.5268C327.283 40.4365 327.348 40.3629 327.435 40.3298L334.627 37.5867C334.843 37.5042 335.061 37.7021 335 37.9255L329.427 58.3724C329.412 58.4303 329.415 58.4916 329.436 58.5477L329.526 58.783C329.548 58.842 329.59 58.8917 329.644 58.9243L341.04 65.819C341.242 65.941 341.215 66.2415 340.995 66.3255L333.818 69.0627C333.735 69.0946 333.641 69.0851 333.566 69.0369L326.029 64.2324C325.954 64.1843 325.86 64.1747 325.776 64.2066L325.633 64.2613C325.546 64.2944 325.481 64.368 325.459 64.4582L321.534 80.4331Z" fill="#FDEB56"/>
<path d="M348.067 63.3251C348.123 63.4711 348.049 63.6346 347.903 63.6903L342.433 65.7771C342.286 65.8328 342.123 65.7595 342.067 65.6135L334.16 44.8826C334.104 44.7366 334.177 44.5731 334.323 44.5174L345.899 40.1022C350.973 38.1668 355.266 39.8371 357.19 44.8823C359.114 49.9275 357.037 54.064 351.962 55.9994L346.387 58.1261C346.241 58.1818 346.167 58.3453 346.223 58.4914L348.067 63.3251ZM347.274 45.7204L342.368 47.5915C342.222 47.6472 342.149 47.8107 342.205 47.9567L343.976 52.6001C344.032 52.7461 344.195 52.8193 344.341 52.7636L349.247 50.8925C351.353 50.0891 352.057 49.348 351.222 47.1585C350.399 45.0008 349.38 44.917 347.274 45.7204Z" fill="#FDEB56"/>
</g>
<g filter="url(#filter6_f_3334_42037)">
<path fill-rule="evenodd" clip-rule="evenodd" d="M382.143 251.016C381.548 251.22 380.887 251.185 380.305 250.91C378.148 249.893 375.598 250.767 374.623 252.833C373.641 254.914 374.572 257.42 376.698 258.45C377.896 259.029 378.534 260.327 377.983 261.497L374.557 268.759C371.674 274.871 364.235 277.423 357.94 274.453L348.439 269.971C347.457 269.508 347.026 268.36 347.476 267.406L350.361 261.29C350.922 260.101 350.401 258.713 349.177 258.136C347.982 257.572 346.55 258.039 345.989 259.228L343.104 265.343C342.654 266.297 341.494 266.695 340.515 266.233L320.461 256.773C314.195 253.817 311.403 246.443 314.288 240.328L317.714 233.065C318.265 231.896 319.673 231.563 320.882 232.12C323.032 233.106 325.554 232.23 326.536 230.149C327.484 228.139 326.515 225.813 324.3 224.768C323.717 224.493 323.27 224.005 323.049 223.416C322.828 222.827 322.849 222.18 323.116 221.613L326.575 214.28C329.455 208.176 336.952 205.607 343.235 208.571L363.26 218.018C364.239 218.48 364.67 219.628 364.22 220.582L360.801 227.83C360.253 228.991 360.79 230.421 361.985 230.984C363.209 231.562 364.625 231.053 365.172 229.892L368.591 222.644C369.041 221.69 370.202 221.293 371.184 221.756L380.685 226.238C386.98 229.207 389.743 236.568 386.858 242.683L383.492 249.818C383.225 250.384 382.738 250.812 382.143 251.016ZM351.768 252.643C352.992 253.221 354.407 252.712 354.955 251.551L360.297 240.226C360.845 239.065 360.337 237.649 359.113 237.071C357.918 236.508 356.473 237.003 355.926 238.164L350.583 249.489C350.036 250.649 350.573 252.079 351.768 252.643Z" fill="#8EC9ED"/>
</g>
</g>
<rect x="0.5" y="0.5" width="342" height="288" rx="15.5" stroke="url(#paint2_linear_3334_42037)" stroke-opacity="0.1"/>
<defs>
<filter id="filter0_f_3334_42037" x="-71.0598" y="-62.0597" width="308.12" height="216.933" filterUnits="userSpaceOnUse" color-interpolation-filters="sRGB">
<feFlood flood-opacity="0" result="BackgroundImageFix"/>
<feBlend mode="normal" in="SourceGraphic" in2="BackgroundImageFix" result="shape"/>
<feGaussianBlur stdDeviation="20.5299" result="effect1_foregroundBlur_3334_42037"/>
</filter>
<filter id="filter1_f_3334_42037" x="-49.9188" y="34.0812" width="509.674" height="358.838" filterUnits="userSpaceOnUse" color-interpolation-filters="sRGB">
<feFlood flood-opacity="0" result="BackgroundImageFix"/>
<feBlend mode="normal" in="SourceGraphic" in2="BackgroundImageFix" result="shape"/>
<feGaussianBlur stdDeviation="33.9594" result="effect1_foregroundBlur_3334_42037"/>
</filter>
<filter id="filter2_f_3334_42037" x="-36" y="-37" width="97.2808" height="97.2808" filterUnits="userSpaceOnUse" color-interpolation-filters="sRGB">
<feFlood flood-opacity="0" result="BackgroundImageFix"/>
<feBlend mode="normal" in="SourceGraphic" in2="BackgroundImageFix" result="shape"/>
<feGaussianBlur stdDeviation="5" result="effect1_foregroundBlur_3334_42037"/>
</filter>
<filter id="filter3_f_3334_42037" x="27.1171" y="252.816" width="66.462" height="59.1893" filterUnits="userSpaceOnUse" color-interpolation-filters="sRGB">
<feFlood flood-opacity="0" result="BackgroundImageFix"/>
<feBlend mode="normal" in="SourceGraphic" in2="BackgroundImageFix" result="shape"/>
<feGaussianBlur stdDeviation="3.59964" result="effect1_foregroundBlur_3334_42037"/>
</filter>
<filter id="filter4_f_3334_42037" x="-39.286" y="112.714" width="78.3234" height="78.3235" filterUnits="userSpaceOnUse" color-interpolation-filters="sRGB">
<feFlood flood-opacity="0" result="BackgroundImageFix"/>
<feBlend mode="normal" in="SourceGraphic" in2="BackgroundImageFix" result="shape"/>
<feGaussianBlur stdDeviation="0.642978" result="effect1_foregroundBlur_3334_42037"/>
</filter>
<filter id="filter5_f_3334_42037" x="306.719" y="36.6705" width="52.0763" height="47.6177" filterUnits="userSpaceOnUse" color-interpolation-filters="sRGB">
<feFlood flood-opacity="0" result="BackgroundImageFix"/>
<feBlend mode="normal" in="SourceGraphic" in2="BackgroundImageFix" result="shape"/>
<feGaussianBlur stdDeviation="0.448516" result="effect1_foregroundBlur_3334_42037"/>
</filter>
<filter id="filter6_f_3334_42037" x="287.249" y="178.181" width="126.648" height="126.648" filterUnits="userSpaceOnUse" color-interpolation-filters="sRGB">
<feFlood flood-opacity="0" result="BackgroundImageFix"/>
<feBlend mode="normal" in="SourceGraphic" in2="BackgroundImageFix" result="shape"/>
<feGaussianBlur stdDeviation="5.05198" result="effect1_foregroundBlur_3334_42037"/>
</filter>
<linearGradient id="paint0_linear_3334_42037" x1="196" y1="113.813" x2="-44.7408" y2="77.949" gradientUnits="userSpaceOnUse">
<stop stop-color="#8EC9ED"/>
<stop offset="1" stop-color="#BC5AD7"/>
</linearGradient>
<linearGradient id="paint1_linear_3334_42037" x1="18" y1="102" x2="416.22" y2="161.324" gradientUnits="userSpaceOnUse">
<stop stop-color="#F71756"/>
<stop offset="1" stop-color="#FDEB56"/>
</linearGradient>
<linearGradient id="paint2_linear_3334_42037" x1="171.5" y1="0" x2="171.5" y2="289" gradientUnits="userSpaceOnUse">
<stop stop-color="white"/>
<stop offset="1" stop-color="white" stop-opacity="0"/>
</linearGradient>
<clipPath id="clip0_3334_42037">
<rect width="343" height="289" rx="16" fill="white"/>
</clipPath>
</defs>
</svg>
