<svg width="120" height="72" viewBox="0 0 120 72" fill="none" xmlns="http://www.w3.org/2000/svg">
<path fill-rule="evenodd" clip-rule="evenodd" d="M66.852 10.5421H65.1307C64.9608 10.5328 64.827 10.391 64.8249 10.2176V1.17357C64.8432 1.00172 64.9873 0.872914 65.1566 0.877184H66.7588C66.9047 0.881987 67.0296 0.985347 67.0644 1.1298V2.51296H67.098C67.5812 1.27639 68.2585 0.687012 69.4509 0.687012C70.2244 0.687012 70.9796 0.97236 71.4672 1.75209C71.9182 2.4756 71.9182 3.69332 71.9182 4.56822V10.2581C71.893 10.4241 71.7512 10.5454 71.5866 10.5421H69.85C69.6941 10.5351 69.5653 10.4156 69.5442 10.2581V5.34778C69.5442 5.27092 69.5449 5.19122 69.5456 5.10975C69.5538 4.14287 69.5644 2.91217 68.4632 2.91217C68.0199 2.93298 67.6293 3.21584 67.4635 3.63568C67.222 4.1877 67.1898 4.73972 67.1898 5.35098V10.2176C67.1833 10.4012 67.0321 10.5454 66.852 10.5421ZM59.56 0.699465C62.1236 0.699465 63.5102 2.9449 63.5102 5.79839C63.5102 8.55689 61.9815 10.7447 59.56 10.7447C57.0452 10.7447 55.6754 8.49925 55.6754 5.70339C55.6754 2.90754 57.0619 0.699465 59.56 0.699465ZM59.5767 2.5457C58.3033 2.5457 58.2222 4.31401 58.2222 5.41805V5.45451C58.222 6.57314 58.2218 8.8796 59.56 8.8796C60.9129 8.8796 60.9632 6.97733 60.9632 5.81725C60.9632 5.0562 60.9312 4.14252 60.7049 3.42043C60.5108 2.79671 60.1241 2.5457 59.5767 2.5457ZM27.6458 10.5607H25.9199C25.7598 10.5522 25.6298 10.4255 25.6141 10.2628V1.21875C25.6199 1.03747 25.7666 0.894086 25.9443 0.896043H27.554C27.719 0.905294 27.8508 1.03961 27.8598 1.2079V2.38826H27.8919C28.3108 1.24526 29.1012 0.713519 30.1652 0.713519C31.2292 0.713519 31.9218 1.24526 32.4064 2.38826C32.7298 1.50855 33.4934 0.875406 34.4035 0.731486C35.3136 0.587744 36.2291 0.955817 36.7984 1.69427C37.268 2.34538 37.2529 3.25231 37.2388 4.10409C37.2365 4.24765 37.234 4.39015 37.234 4.52909V10.2346C37.2324 10.3231 37.1965 10.4072 37.1339 10.4684C37.0713 10.5294 36.9875 10.5627 36.9008 10.5607H35.1749C35.0051 10.5517 34.8714 10.4097 34.8691 10.2363V5.44295C34.8691 5.37037 34.8703 5.27679 34.8717 5.17059C34.8772 4.72068 34.8858 4.04218 34.8203 3.74954C34.6919 3.1413 34.3051 2.96981 33.8052 2.96981C33.347 2.98422 32.9412 3.27544 32.7732 3.71058C32.6085 4.13611 32.6099 4.82137 32.611 5.3291L32.6112 5.44295V10.2346C32.6096 10.3229 32.5738 10.4067 32.5115 10.4677C32.4493 10.5289 32.3658 10.5623 32.2794 10.5607H30.549C30.3794 10.5508 30.246 10.4093 30.2432 10.2363V5.44295C30.2432 5.34475 30.2446 5.2421 30.2462 5.13661C30.2599 4.15888 30.277 2.9481 29.1731 2.9481C27.9789 2.9481 27.9799 4.32611 27.9806 5.36788V5.44295V10.2346C27.979 10.3231 27.9429 10.4072 27.8803 10.4684C27.8179 10.5294 27.7323 10.5627 27.6458 10.5607ZM22.5077 10.6714C22.6388 10.7466 22.8022 10.7297 22.9159 10.6292L22.9296 10.6324C23.2736 10.319 23.9004 9.76375 24.2535 9.46293C24.3881 9.34587 24.3636 9.15107 24.2535 8.99505C24.22 8.94791 24.1862 8.90166 24.1526 8.85576C23.8695 8.46883 23.6008 8.10111 23.6008 7.36248V4.61964C23.6008 4.53158 23.6012 4.44423 23.6016 4.35724V4.35546C23.6069 3.29625 23.6117 2.32706 22.8364 1.58682C22.176 0.938027 21.0783 0.710316 20.2375 0.710316C18.5941 0.710316 16.7596 1.33563 16.3759 3.40655C16.36 3.49034 16.3785 3.57715 16.427 3.64653C16.4755 3.71609 16.5499 3.76235 16.6327 3.77444L18.293 3.95999C18.4551 3.93491 18.5805 3.80184 18.5987 3.63568C18.7424 2.92302 19.3294 2.57843 19.9883 2.57843C20.3461 2.57843 20.7466 2.71096 20.9576 3.03527C21.1741 3.361 21.1707 3.79312 21.1677 4.18147C21.1673 4.2263 21.167 4.2706 21.167 4.31401V4.54172C21.01 4.55969 20.8455 4.57694 20.676 4.59456C19.7645 4.68938 18.7101 4.79914 17.9199 5.15298C16.8498 5.6301 16.0854 6.60143 16.0854 8.03138C16.0854 9.86213 17.2167 10.7774 18.6706 10.7774C19.8981 10.7774 20.5693 10.4826 21.5186 9.49708C21.5644 9.56522 21.6057 9.62802 21.6446 9.68726C21.8711 10.0318 22.0186 10.2562 22.5077 10.6714ZM21.1747 6.42033L21.1746 6.33494V5.95601C19.9257 5.95601 18.6063 6.22891 18.6063 7.72895C18.6063 8.49303 18.9931 9.00751 19.6551 9.00751C20.1412 9.00751 20.5769 8.70188 20.8521 8.20607C21.1758 7.61883 21.1753 7.06877 21.1747 6.42033ZM46.8881 8.98883C46.8544 8.9415 46.8206 8.89525 46.787 8.84918C46.504 8.46225 46.2353 8.09489 46.2353 7.35785V4.61341C46.2353 4.51966 46.2359 4.42644 46.2364 4.33393C46.2425 3.28024 46.2478 2.31709 45.4709 1.58042C44.809 0.931799 43.7113 0.704089 42.8722 0.704089C41.2287 0.704089 39.3943 1.32798 39.0089 3.40014C38.9926 3.48447 39.0111 3.57199 39.06 3.64191C39.1089 3.71182 39.1838 3.75808 39.2674 3.76982L40.9413 3.95376C41.1032 3.92815 41.2284 3.79543 41.2471 3.62945C41.3922 2.91679 41.9763 2.5722 42.6352 2.5722C42.9914 2.5722 43.3995 2.70634 43.6044 3.03065C43.8223 3.35513 43.8191 3.78743 43.8161 4.17578C43.8158 4.22043 43.8154 4.26455 43.8154 4.30778V4.53069C43.6615 4.5483 43.5005 4.56484 43.3347 4.58192C42.4205 4.67621 41.3602 4.78544 40.5682 5.14035C39.4859 5.61765 38.7262 6.58897 38.7262 8.02052C38.7262 9.8495 39.8575 10.765 41.3113 10.765C42.5343 10.765 43.21 10.4702 44.1578 9.48463C44.2027 9.55134 44.2432 9.61289 44.2813 9.67089C44.511 10.0199 44.6572 10.2419 45.1484 10.6589C45.2795 10.7337 45.4423 10.7175 45.5567 10.6184C45.9005 10.3065 46.5273 9.7497 46.8804 9.44887C47.0288 9.34124 47.0042 9.15107 46.8881 8.98883ZM43.4943 8.19825C43.2207 8.69263 42.7834 8.99826 42.2988 8.99826C41.6368 8.99826 41.2501 8.4836 41.2501 7.72112C41.2501 6.21948 42.5694 5.94818 43.8184 5.94818V6.32871V6.39862C43.8188 7.05525 43.8191 7.6078 43.4943 8.19825ZM48.3497 2.4756V1.18762C48.3456 1.09938 48.3783 1.01363 48.4399 0.951548C48.5014 0.889284 48.5857 0.856727 48.6722 0.861708H54.3484C54.4347 0.858684 54.5185 0.891773 54.5802 0.953326C54.6419 1.01488 54.6765 1.09956 54.6756 1.18762V2.29628C54.6756 2.48183 54.5228 2.72502 54.249 3.10857L51.3078 7.39059C52.3992 7.36408 53.5534 7.53095 54.5455 8.10005C54.7288 8.19967 54.8456 8.39198 54.8513 8.60368V9.98844C54.8513 10.1786 54.648 10.3985 54.4326 10.2846C52.5497 9.29748 50.3146 9.30157 48.4352 10.2955C48.238 10.4031 48.0316 10.1864 48.0316 9.99609V8.67857C48.0136 8.36796 48.0871 8.05895 48.2426 7.79121L51.6502 2.80152H48.6782C48.5918 2.8049 48.5076 2.77198 48.4454 2.71043C48.3833 2.6487 48.3488 2.56384 48.3497 2.4756ZM78.3512 2.01093C78.7851 1.62062 79.2809 1.30841 79.8173 1.08782C80.3241 0.881632 80.8647 0.77596 81.4102 0.77596C81.9526 0.765642 82.4904 0.876295 82.9864 1.10027C83.4537 1.31873 83.863 1.6482 84.1804 2.06074C84.5257 2.51794 84.7812 3.03901 84.9324 3.59512C85.1158 4.25424 85.2044 4.93719 85.1955 5.62227C85.2037 6.32195 85.1089 7.01896 84.9141 7.68999C84.7511 8.25927 84.4839 8.79207 84.1269 9.26012C83.7953 9.68583 83.3742 10.0301 82.8947 10.2674C82.3909 10.5059 81.8401 10.6239 81.2849 10.6122C80.2471 10.6296 79.2425 10.2387 78.4796 9.52057V13.8492C78.4942 13.9511 78.4608 14.054 78.3895 14.1267C78.3181 14.1995 78.2173 14.2336 78.1173 14.2189H77.0472C76.9474 14.2336 76.8465 14.1995 76.7752 14.1267C76.7037 14.054 76.6702 13.9511 76.6848 13.8492V1.41996C76.671 1.3182 76.7046 1.21572 76.7759 1.14314C76.8471 1.07056 76.9476 1.03623 77.0472 1.05028H77.8437C77.9476 1.0405 78.0511 1.0743 78.1299 1.14403C78.2087 1.21395 78.256 1.31357 78.261 1.41996L78.3512 2.01093ZM80.9042 2.2511C80.0265 2.25803 79.1749 2.55637 78.478 3.10092V8.24663C79.2507 8.83921 80.0471 9.13488 80.8676 9.13381C82.5329 9.13381 83.3655 7.99028 83.3655 5.70339C83.3655 3.41633 82.5452 2.26657 80.9042 2.2511ZM87.4564 2.70634L87.5925 2.65955C88.4535 2.38897 89.3485 2.24718 90.2494 2.23847C90.974 2.23953 91.4812 2.37527 91.7706 2.6455C92.0601 2.91573 92.2047 3.3836 92.2047 4.04894V5.26203C91.4591 5.06687 90.6935 4.96227 89.9239 4.95017C88.8618 4.94911 88.017 5.21684 87.3892 5.75321C86.7614 6.28957 86.4475 7.00686 86.4475 7.90507C86.4495 8.7419 86.7043 9.40991 87.2118 9.90874C87.7193 10.4077 88.4073 10.6573 89.2756 10.6573C89.8125 10.655 90.3442 10.5492 90.8425 10.3455C91.3682 10.1361 91.8548 9.83651 92.2812 9.45972L92.3728 10.0694C92.3774 10.1708 92.4226 10.2656 92.4977 10.332C92.573 10.3983 92.6715 10.4302 92.7704 10.4202H93.55C93.6498 10.4344 93.7501 10.4001 93.8214 10.3275C93.8926 10.2549 93.9262 10.1525 93.9123 10.0507V3.74171C93.9113 2.73124 93.6391 1.98638 93.096 1.5073C92.5527 1.02804 91.7078 0.788413 90.5613 0.788413C89.9908 0.788413 89.4213 0.840538 88.8598 0.944253C88.3697 1.02413 87.8901 1.16076 87.4304 1.35128C87.3193 1.38971 87.2196 1.45678 87.1415 1.54626C87.0821 1.65602 87.0565 1.78162 87.0681 1.90633V2.40071C87.0681 2.62362 87.1506 2.73445 87.3036 2.73445C87.3557 2.73356 87.4073 2.72413 87.4564 2.70634ZM90.9603 9.03561C90.5606 9.18789 90.1381 9.26866 89.7113 9.27418C89.2406 9.27524 88.8782 9.14947 88.6243 8.89685C88.3706 8.64424 88.2438 8.28399 88.2438 7.8163C88.2427 6.74446 88.925 6.20863 90.2907 6.20863C90.6143 6.20916 90.9375 6.23104 91.2585 6.2741C91.5781 6.31519 91.8955 6.37336 92.2093 6.44861V8.33398C91.83 8.63072 91.409 8.86732 90.9603 9.03561ZM98.6713 13.8851C99.0993 13.5151 99.477 12.9053 99.8042 12.056L103.788 1.71455C103.854 1.57455 103.897 1.4244 103.915 1.27016C103.915 1.12358 103.831 1.04886 103.661 1.04886H102.648C102.508 1.03516 102.369 1.06736 102.248 1.14083C102.146 1.25718 102.072 1.39665 102.033 1.54769L99.587 8.7129L97.0508 1.54769C97.0113 1.39665 96.9375 1.25718 96.8352 1.14083C96.7153 1.06736 96.5755 1.03516 96.4362 1.04886H95.3494C95.1811 1.04886 95.0972 1.12358 95.0972 1.27016C95.1146 1.4244 95.1569 1.57455 95.2224 1.71455L98.711 10.5108L98.3671 11.4463C98.1622 12.0378 97.9329 12.4443 97.6792 12.6656C97.3735 12.9046 96.9934 13.0225 96.6091 12.9978C96.4456 13.0013 96.2823 12.9889 96.1213 12.9604C96.0318 12.9408 95.9408 12.9287 95.8493 12.9245C95.6673 12.9245 95.5771 13.0415 95.5771 13.2755V13.7556C95.567 13.888 95.5987 14.0202 95.6673 14.1329C95.7426 14.2226 95.8447 14.2845 95.9578 14.3092C96.2944 14.3998 96.6415 14.4434 96.9896 14.4386C97.6827 14.4396 98.2433 14.2552 98.6713 13.8851Z" fill="white"/>
<path fill-rule="evenodd" clip-rule="evenodd" d="M51.1882 16.3115C51.5812 15.3151 52.4556 13.0821 52.0398 12.5409H52.0428C51.6289 11.9987 49.3052 12.2833 48.26 12.4112L48.2577 12.4116C47.9398 12.4506 47.8909 12.1684 48.1768 11.964C50.0326 10.634 53.0732 11.0144 53.4264 11.4636C53.7795 11.9126 53.3301 15.0219 51.5919 16.5063C51.3243 16.734 51.069 16.6123 51.1882 16.3115ZM38.6999 17.8489C42.7419 17.8489 47.449 16.5469 50.6915 14.1066V14.1112C51.2281 13.6996 50.7678 13.0946 50.2206 13.3315C46.6813 14.8543 42.8821 15.6492 39.0409 15.6705C33.7116 15.6705 28.5569 14.1799 24.3864 11.7052C24.021 11.4885 23.7489 11.8704 24.0546 12.1496C28.0696 15.8445 33.2925 17.877 38.6999 17.8489Z" fill="#FF9900"/>
<path fill-rule="evenodd" clip-rule="evenodd" d="M9.44228 30.6148C8.83673 31.3396 7.86768 31.9111 6.89864 31.8294C6.77747 30.8496 7.2518 29.8086 7.8071 29.1657C8.41265 28.4206 9.47257 27.8899 10.3306 27.8491C10.4316 28.8697 10.0379 29.8699 9.44228 30.6148ZM10.3204 32.0233C9.46682 31.9737 8.68785 32.2829 8.05862 32.5327C7.65378 32.6935 7.31081 32.8296 7.04995 32.8296C6.75723 32.8296 6.40019 32.6862 5.99936 32.5251C5.47407 32.3142 4.87355 32.073 4.24374 32.0845C2.80037 32.105 1.45777 32.9317 0.720866 34.2481C-0.793285 36.8813 0.327219 40.7799 1.79084 42.9232C2.50764 43.9845 3.36557 45.1481 4.49612 45.1072C4.99357 45.0882 5.35132 44.9348 5.72157 44.7758C6.14781 44.5929 6.5907 44.403 7.28209 44.403C7.94966 44.403 8.37317 44.5881 8.77959 44.7656C9.16606 44.9346 9.53731 45.0967 10.0883 45.0868C11.2593 45.0664 11.9961 44.0254 12.7129 42.9639C13.4863 41.8248 13.8261 40.713 13.8778 40.5443L13.8838 40.5248C13.8838 40.5248 13.873 40.5191 13.8561 40.5113C13.5975 40.3916 11.6214 39.4769 11.6025 37.0242C11.5835 34.9655 13.1699 33.9224 13.4197 33.7581C13.4349 33.7481 13.4451 33.7413 13.4497 33.7379C12.4403 32.2275 10.8656 32.0641 10.3204 32.0233ZM18.4261 44.9745V29.0637H24.3313C27.3798 29.0637 29.5097 31.1864 29.5097 34.289C29.5097 37.3916 27.3393 39.5348 24.2506 39.5348H20.869V44.9745H18.4261ZM20.869 31.1456H23.6852C25.8051 31.1456 27.0163 32.2886 27.0163 34.2992C27.0163 36.3098 25.8051 37.4631 23.6752 37.4631H20.869V31.1456ZM37.5749 43.066C36.9288 44.3111 35.5056 45.097 33.9713 45.097C31.7 45.097 30.1152 43.7294 30.1152 41.6679C30.1152 39.6267 31.6496 38.4531 34.4861 38.2795L37.5345 38.0957V37.2181C37.5345 35.9219 36.6967 35.2177 35.2028 35.2177C33.9713 35.2177 33.0729 35.8608 32.8912 36.8404H30.6906C30.7613 34.7789 32.6793 33.2786 35.2734 33.2786C38.0695 33.2786 39.8865 34.7585 39.8865 37.0548V44.9745H37.6254V43.066H37.5749ZM34.6274 43.209C33.3253 43.209 32.4975 42.5762 32.4975 41.6065C32.4975 40.6065 33.295 40.0246 34.8192 39.9329L37.5345 39.7593V40.6575C37.5345 42.1475 36.2828 43.209 34.6274 43.209ZM47.3865 45.5972C46.4074 48.3833 45.2869 49.3018 42.9046 49.3018C42.723 49.3018 42.1173 49.2814 41.9759 49.2406V47.3321C42.1274 47.3525 42.5009 47.3729 42.6927 47.3729C43.7728 47.3729 44.3784 46.9136 44.7519 45.7196L44.9739 45.0153L40.8353 33.4317H43.3892L46.266 42.8313H46.3165L49.1934 33.4317H51.6766L47.3865 45.5972Z" fill="white"/>
<path d="M88.6687 38.3315V44.6178H86.6729V29.09H91.9634C93.2397 29.0628 94.473 29.5471 95.3894 30.4341C96.3172 31.2691 96.8399 32.4639 96.8196 33.7107C96.8467 34.9666 96.324 36.1705 95.3894 37.0077C94.4639 37.8903 93.3212 38.3315 91.9634 38.3293L88.6687 38.3315ZM88.6687 31.0021V36.4239H92.0132C92.7555 36.4466 93.4705 36.1546 93.9865 35.6206C95.0342 34.6023 95.0591 32.9255 94.0385 31.8778C94.0204 31.8597 94.0046 31.8416 93.9865 31.8258C93.4773 31.2804 92.7577 30.9817 92.0132 31.0021H88.6687ZM101.418 33.6474C102.893 33.6474 104.056 34.0411 104.909 34.8286C105.762 35.6161 106.188 36.6977 106.188 38.069V44.6178H104.28V43.1424H104.194C103.368 44.3576 102.269 44.964 100.897 44.964C99.7274 44.964 98.7475 44.6178 97.9601 43.9231C97.1952 43.2782 96.7607 42.3232 96.7788 41.3208C96.7788 40.221 97.1952 39.3476 98.0257 38.6981C98.8562 38.0487 99.965 37.7228 101.354 37.7228C102.538 37.7228 103.515 37.94 104.28 38.3723V37.9152C104.285 37.2318 103.982 36.5846 103.457 36.1501C102.929 35.6749 102.241 35.4147 101.531 35.4237C100.418 35.4237 99.535 35.8944 98.8856 36.8335L97.1296 35.727C98.0936 34.3398 99.5237 33.6474 101.418 33.6474ZM98.8358 41.366C98.8335 41.882 99.0802 42.3662 99.4966 42.6672C99.9378 43.0134 100.485 43.199 101.047 43.1877C101.888 43.1854 102.696 42.8505 103.291 42.2553C103.952 41.6331 104.283 40.9044 104.283 40.0649C103.66 39.5693 102.794 39.3204 101.68 39.3204C100.87 39.3204 100.194 39.515 99.6527 39.9065C99.1073 40.3048 98.8358 40.7867 98.8358 41.366ZM117.14 33.9936L110.481 49.3019H108.421L110.892 43.9457L106.511 33.9936H108.679L111.845 41.6263H111.888L114.968 33.9936H117.14Z" fill="white"/>
<path d="M80.6058 36.9736C80.6058 36.3649 80.556 35.7585 80.4519 35.1588H72.0386V38.5939H76.8562C76.6571 39.7027 76.0144 40.6825 75.0754 41.3048V43.536H77.9515C79.635 41.9859 80.6058 39.6891 80.6058 36.9736Z" fill="#4285F4"/>
<path d="M72.0382 45.6924C74.4459 45.6924 76.4734 44.9027 77.9511 43.5382L75.075 41.307C74.2739 41.8501 73.2443 42.1601 72.0382 42.1601C69.712 42.1601 67.7365 40.5919 67.0305 38.4784H64.0684V40.7775C65.5822 43.7916 68.6665 45.6924 72.0382 45.6924Z" fill="#34A853"/>
<path d="M67.0307 38.4784C66.6573 37.3719 66.6573 36.1703 67.0307 35.0637V32.7646H64.0686C62.8014 35.2855 62.8014 38.2566 64.0686 40.7775L67.0307 38.4784Z" fill="#FBBC04"/>
<path d="M72.0382 31.382C73.3099 31.3616 74.5387 31.8414 75.4597 32.7194L78.0077 30.1736C76.392 28.6575 74.2536 27.8248 72.0382 27.8497C68.6665 27.8497 65.5822 29.7527 64.0684 32.7646L67.0305 35.0637C67.7365 32.9502 69.712 31.382 72.0382 31.382Z" fill="#EA4335"/>
<path d="M43.553 71.313C43.0839 71.313 42.7035 70.9327 42.7035 70.4636V62.1512C42.7035 61.6821 43.0839 61.3018 43.553 61.3018C44.0221 61.3018 44.4024 61.6821 44.4024 62.1512V70.4636C44.4024 70.9327 44.0221 71.313 43.553 71.313ZM39.3968 67.1568C38.9277 67.1568 38.5474 66.7765 38.5474 66.3074C38.5474 65.8382 38.9277 65.4579 39.3968 65.4579H47.7092C48.1783 65.4579 48.5586 65.8382 48.5586 66.3074C48.5586 66.7765 48.1783 67.1568 47.7092 67.1568H39.3968Z" fill="#FDEB56"/>
<path d="M60.0002 71.313C59.5311 71.313 59.1508 70.9327 59.1508 70.4636V62.1512C59.1508 61.6821 59.5311 61.3018 60.0002 61.3018C60.4694 61.3018 60.8497 61.6821 60.8497 62.1512V70.4636C60.8497 70.9327 60.4694 71.313 60.0002 71.313ZM55.8441 67.1568C55.3749 67.1568 54.9946 66.7765 54.9946 66.3074C54.9946 65.8382 55.3749 65.4579 55.8441 65.4579H64.1564C64.6256 65.4579 65.0059 65.8382 65.0059 66.3074C65.0059 66.7765 64.6256 67.1568 64.1564 67.1568H55.8441Z" fill="#FDEB56"/>
<path d="M76.447 71.313C75.9779 71.313 75.5976 70.9327 75.5976 70.4636V62.1512C75.5976 61.6821 75.9779 61.3018 76.447 61.3018C76.9162 61.3018 77.2965 61.6821 77.2965 62.1512V70.4636C77.2965 70.9327 76.9162 71.313 76.447 71.313ZM72.2908 67.1568C71.8217 67.1568 71.4414 66.7765 71.4414 66.3074C71.4414 65.8382 71.8217 65.4579 72.2908 65.4579H80.6032C81.0723 65.4579 81.4526 65.8382 81.4526 66.3074C81.4526 66.7765 81.0723 67.1568 80.6032 67.1568H72.2908Z" fill="#FDEB56"/>
</svg>
