<svg width="23" height="14" viewBox="0 0 23 14" fill="none" xmlns="http://www.w3.org/2000/svg">
<path d="M16.1553 13.4439C16.3957 13.4429 16.6262 13.3475 16.7969 13.1781L22.2969 7.67811C22.4585 7.50072 22.5441 7.26705 22.5353 7.02728C22.536 6.90664 22.5128 6.78705 22.4672 6.67536C22.4216 6.56368 22.3544 6.4621 22.2694 6.37644L16.7694 0.876445C16.5941 0.726271 16.3685 0.647798 16.1378 0.65671C15.9071 0.665621 15.6883 0.761259 15.525 0.924512C15.3618 1.08777 15.2661 1.30661 15.2572 1.53731C15.2483 1.76802 15.3268 1.99358 15.4769 2.16894L20.3261 7.02728L15.5044 11.8489C15.3337 12.0207 15.2379 12.253 15.2379 12.4952C15.2379 12.7374 15.3337 12.9697 15.5044 13.1414C15.587 13.2331 15.6872 13.3071 15.799 13.359C15.9109 13.411 16.032 13.4399 16.1553 13.4439Z" fill="url(#paint0_linear_3317_68230)" fill-opacity="0.7"/>
<path d="M11.2328 13.4439C11.4733 13.4429 11.7037 13.3475 11.8744 13.1781L17.3744 7.67811C17.4594 7.59246 17.5266 7.49088 17.5722 7.37919C17.6178 7.26751 17.641 7.14792 17.6403 7.02728C17.641 6.90664 17.6178 6.78705 17.5722 6.67536C17.5266 6.56368 17.4594 6.4621 17.3744 6.37645L11.8744 0.876445C11.7923 0.780487 11.6911 0.702551 11.5774 0.64753C11.4637 0.592508 11.3398 0.56159 11.2136 0.556713C11.0873 0.551837 10.9614 0.573109 10.8438 0.619194C10.7262 0.665279 10.6193 0.735182 10.53 0.824516C10.4407 0.913849 10.3708 1.02068 10.3247 1.13832C10.2786 1.25595 10.2573 1.38184 10.2622 1.50808C10.2671 1.63432 10.298 1.75819 10.353 1.87192C10.408 1.98564 10.486 2.08677 10.5819 2.16895L15.3578 7.02728L10.5361 11.8489C10.3654 12.0207 10.2695 12.253 10.2695 12.4952C10.2695 12.7374 10.3654 12.9697 10.5361 13.1414C10.6239 13.2387 10.7315 13.3161 10.8516 13.3682C10.9718 13.4204 11.1018 13.4462 11.2328 13.4439Z" fill="url(#paint1_linear_3317_68230)" fill-opacity="0.7"/>
<path d="M5.8938 13.4439C6.13428 13.4429 6.36473 13.3475 6.53546 13.1781L12.0355 7.67811C12.197 7.50072 12.2826 7.26705 12.2738 7.02728C12.2745 6.90664 12.2514 6.78705 12.2058 6.67536C12.1601 6.56368 12.0929 6.4621 12.008 6.37644L6.50796 0.876445C6.3326 0.726271 6.10703 0.647798 5.87633 0.65671C5.64563 0.665621 5.42678 0.761259 5.26353 0.924512C5.10028 1.08777 5.00464 1.30661 4.99573 1.53731C4.98682 1.76802 5.06529 1.99358 5.21546 2.16894L10.0646 7.02728L5.24296 11.8489C5.07223 12.0207 4.9764 12.253 4.9764 12.4952C4.9764 12.7374 5.07223 12.9697 5.24296 13.1414C5.32552 13.2331 5.42571 13.3071 5.53754 13.359C5.64937 13.411 5.77054 13.4399 5.8938 13.4439Z" fill="url(#paint2_linear_3317_68230)" fill-opacity="0.7"/>
<path d="M0.971298 13.4439C1.21178 13.4429 1.44223 13.3475 1.61296 13.1781L7.11296 7.67811C7.19792 7.59246 7.26514 7.49088 7.31075 7.37919C7.35637 7.26751 7.37949 7.14792 7.3788 7.02728C7.37949 6.90664 7.35637 6.78705 7.31075 6.67536C7.26514 6.56368 7.19792 6.4621 7.11296 6.37645L1.61296 0.876445C1.53079 0.780487 1.42966 0.702551 1.31594 0.64753C1.20221 0.592508 1.07834 0.56159 0.952097 0.556713C0.825855 0.551837 0.699968 0.573109 0.582336 0.619194C0.464705 0.665279 0.357866 0.735182 0.268534 0.824516C0.179201 0.913849 0.109299 1.02068 0.0632133 1.13832C0.017128 1.25595 -0.00414467 1.38184 0.000732422 1.50808C0.00560951 1.63432 0.0365276 1.75819 0.0915489 1.87192C0.14657 1.98564 0.224506 2.08677 0.320465 2.16895L5.0963 7.02728L0.274632 11.8489C0.103901 12.0207 0.00806999 12.253 0.00806999 12.4952C0.00806999 12.7374 0.103901 12.9697 0.274632 13.1414C0.362392 13.2387 0.469986 13.3161 0.590162 13.3682C0.710339 13.4204 0.840303 13.4462 0.971298 13.4439Z" fill="url(#paint3_linear_3317_68230)" fill-opacity="0.7"/>
<defs>
<linearGradient id="paint0_linear_3317_68230" x1="22.5359" y1="7.00006" x2="4.95911e-05" y2="7.00006" gradientUnits="userSpaceOnUse">
<stop stop-color="#2A0D32"/>
<stop offset="1" stop-color="#2A0D32" stop-opacity="0"/>
</linearGradient>
<linearGradient id="paint1_linear_3317_68230" x1="22.5359" y1="7.00006" x2="4.95911e-05" y2="7.00006" gradientUnits="userSpaceOnUse">
<stop stop-color="#2A0D32"/>
<stop offset="1" stop-color="#2A0D32" stop-opacity="0"/>
</linearGradient>
<linearGradient id="paint2_linear_3317_68230" x1="22.5359" y1="7.00006" x2="4.95911e-05" y2="7.00006" gradientUnits="userSpaceOnUse">
<stop stop-color="#2A0D32"/>
<stop offset="1" stop-color="#2A0D32" stop-opacity="0"/>
</linearGradient>
<linearGradient id="paint3_linear_3317_68230" x1="22.5359" y1="7.00006" x2="4.95911e-05" y2="7.00006" gradientUnits="userSpaceOnUse">
<stop stop-color="#2A0D32"/>
<stop offset="1" stop-color="#2A0D32" stop-opacity="0"/>
</linearGradient>
</defs>
</svg>
