<svg width="24" height="14" viewBox="0 0 24 14" fill="none" xmlns="http://www.w3.org/2000/svg">
<path d="M6.91651 13.4439C6.67603 13.4429 6.44558 13.3475 6.27484 13.1781L0.774838 7.67811C0.613278 7.50072 0.527711 7.26705 0.536505 7.02728C0.535808 6.90664 0.558931 6.78705 0.604548 6.67536C0.650166 6.56368 0.717381 6.4621 0.802339 6.37644L6.30234 0.876445C6.4777 0.726271 6.70327 0.647798 6.93397 0.65671C7.16467 0.665621 7.38352 0.761259 7.54677 0.924512C7.71002 1.08777 7.80566 1.30661 7.81457 1.53731C7.82349 1.76802 7.74501 1.99358 7.59484 2.16894L2.74567 7.02728L7.56734 11.8489C7.73807 12.0207 7.8339 12.253 7.8339 12.4952C7.8339 12.7374 7.73807 12.9697 7.56734 13.1414C7.48478 13.2331 7.38459 13.3071 7.27276 13.359C7.16093 13.411 7.03976 13.4399 6.91651 13.4439Z" fill="url(#paint0_linear_3317_68232)" fill-opacity="0.7"/>
<path d="M11.839 13.4439C11.5985 13.4429 11.3681 13.3475 11.1973 13.1781L5.69734 7.67811C5.61238 7.59246 5.54517 7.49088 5.49955 7.37919C5.45393 7.26751 5.43081 7.14792 5.43151 7.02728C5.43081 6.90664 5.45393 6.78705 5.49955 6.67536C5.54517 6.56368 5.61238 6.4621 5.69734 6.37645L11.1973 0.876445C11.2795 0.780487 11.3806 0.702551 11.4944 0.64753C11.6081 0.592508 11.732 0.56159 11.8582 0.556713C11.9844 0.551837 12.1103 0.573109 12.228 0.619194C12.3456 0.665279 12.4524 0.735182 12.5418 0.824516C12.6311 0.913849 12.701 1.02068 12.7471 1.13832C12.7932 1.25595 12.8144 1.38184 12.8096 1.50808C12.8047 1.63432 12.7738 1.75819 12.7188 1.87192C12.6637 1.98564 12.5858 2.08677 12.4898 2.16895L7.714 7.02728L12.5357 11.8489C12.7064 12.0207 12.8022 12.253 12.8022 12.4952C12.8022 12.7374 12.7064 12.9697 12.5357 13.1414C12.4479 13.2387 12.3403 13.3161 12.2201 13.3682C12.1 13.4204 11.97 13.4462 11.839 13.4439Z" fill="url(#paint1_linear_3317_68232)" fill-opacity="0.7"/>
<path d="M17.178 13.4439C16.9375 13.4429 16.7071 13.3475 16.5363 13.1781L11.0363 7.67811C10.8748 7.50072 10.7892 7.26705 10.798 7.02728C10.7973 6.90664 10.8204 6.78705 10.866 6.67536C10.9116 6.56368 10.9789 6.4621 11.0638 6.37644L16.5638 0.876445C16.7392 0.726271 16.9647 0.647798 17.1954 0.65671C17.4261 0.665621 17.645 0.761259 17.8082 0.924512C17.9715 1.08777 18.0671 1.30661 18.076 1.53731C18.085 1.76802 18.0065 1.99358 17.8563 2.16894L13.0071 7.02728L17.8288 11.8489C17.9995 12.0207 18.0954 12.253 18.0954 12.4952C18.0954 12.7374 17.9995 12.9697 17.8288 13.1414C17.7463 13.2331 17.6461 13.3071 17.5342 13.359C17.4224 13.411 17.3012 13.4399 17.178 13.4439Z" fill="url(#paint2_linear_3317_68232)" fill-opacity="0.7"/>
<path d="M22.1005 13.4439C21.86 13.4429 21.6296 13.3475 21.4588 13.1781L15.9588 7.67811C15.8739 7.59246 15.8066 7.49088 15.761 7.37919C15.7154 7.26751 15.6923 7.14792 15.693 7.02728C15.6923 6.90664 15.7154 6.78705 15.761 6.67536C15.8066 6.56368 15.8739 6.4621 15.9588 6.37645L21.4588 0.876445C21.541 0.780487 21.6421 0.702551 21.7558 0.64753C21.8696 0.592508 21.9934 0.56159 22.1197 0.556713C22.2459 0.551837 22.3718 0.573109 22.4894 0.619194C22.6071 0.665279 22.7139 0.735182 22.8032 0.824516C22.8926 0.913849 22.9625 1.02068 23.0086 1.13832C23.0546 1.25595 23.0759 1.38184 23.071 1.50808C23.0662 1.63432 23.0352 1.75819 22.9802 1.87192C22.9252 1.98564 22.8473 2.08677 22.7513 2.16895L17.9755 7.02728L22.7971 11.8489C22.9679 12.0207 23.0637 12.253 23.0637 12.4952C23.0637 12.7374 22.9679 12.9697 22.7971 13.1414C22.7094 13.2387 22.6018 13.3161 22.4816 13.3682C22.3614 13.4204 22.2315 13.4462 22.1005 13.4439Z" fill="url(#paint3_linear_3317_68232)" fill-opacity="0.7"/>
<defs>
<linearGradient id="paint0_linear_3317_68232" x1="0.535889" y1="7.00006" x2="23.0717" y2="7.00006" gradientUnits="userSpaceOnUse">
<stop stop-color="#2A0D32"/>
<stop offset="1" stop-color="#2A0D32" stop-opacity="0"/>
</linearGradient>
<linearGradient id="paint1_linear_3317_68232" x1="0.535889" y1="7.00006" x2="23.0717" y2="7.00006" gradientUnits="userSpaceOnUse">
<stop stop-color="#2A0D32"/>
<stop offset="1" stop-color="#2A0D32" stop-opacity="0"/>
</linearGradient>
<linearGradient id="paint2_linear_3317_68232" x1="0.535889" y1="7.00006" x2="23.0717" y2="7.00006" gradientUnits="userSpaceOnUse">
<stop stop-color="#2A0D32"/>
<stop offset="1" stop-color="#2A0D32" stop-opacity="0"/>
</linearGradient>
<linearGradient id="paint3_linear_3317_68232" x1="0.535889" y1="7.00006" x2="23.0717" y2="7.00006" gradientUnits="userSpaceOnUse">
<stop stop-color="#2A0D32"/>
<stop offset="1" stop-color="#2A0D32" stop-opacity="0"/>
</linearGradient>
</defs>
</svg>
