<svg width="70" height="70" viewBox="0 0 70 70" fill="none" xmlns="http://www.w3.org/2000/svg">
<rect width="70" height="70" rx="7" fill="#BC5AD7" fill-opacity="0.2"/>
<rect x="0.4375" y="0.4375" width="69.125" height="69.125" rx="6.5625" stroke="url(#paint0_linear_3312_42385)" stroke-opacity="0.3" stroke-width="0.875"/>
<path fill-rule="evenodd" clip-rule="evenodd" d="M51.3122 32.565C51.0866 32.7843 50.7803 32.9095 50.4579 32.9095C49.2652 32.9095 48.298 33.8491 48.298 34.9921C48.298 36.143 49.2539 37.0779 50.4354 37.0904C51.1011 37.0967 51.6668 37.5476 51.6668 38.1943V42.2108C51.6668 45.5915 48.8461 48.3333 45.3644 48.3333H40.1098C39.5666 48.3333 39.1265 47.9058 39.1265 47.3781V43.9959C39.1265 43.3382 38.5946 42.8215 37.9176 42.8215C37.2568 42.8215 36.7087 43.3382 36.7087 43.9959V47.3781C36.7087 47.9058 36.2687 48.3333 35.7271 48.3333H24.6359C21.1704 48.3333 18.3335 45.593 18.3335 42.2108V38.1943C18.3335 37.5476 18.8993 37.0967 19.565 37.0904C20.7481 37.0779 21.7023 36.143 21.7023 34.9921C21.7023 33.8804 20.7674 33.0348 19.5424 33.0348C19.22 33.0348 18.9138 32.9095 18.6881 32.6903C18.4624 32.4711 18.3335 32.1736 18.3335 31.8604V27.8048C18.3335 24.4288 21.1768 21.6666 24.652 21.6666H35.7271C36.2687 21.6666 36.7087 22.0941 36.7087 22.6218V26.6304C36.7087 27.2724 37.2568 27.8048 37.9176 27.8048C38.5946 27.8048 39.1265 27.2724 39.1265 26.6304V22.6218C39.1265 22.0941 39.5666 21.6666 40.1098 21.6666H45.3644C48.8461 21.6666 51.6668 24.4069 51.6668 27.7892V31.7351C51.6668 32.0483 51.5379 32.3458 51.3122 32.565ZM37.9178 39.7838C38.5948 39.7838 39.1267 39.2514 39.1267 38.6094V32.3459C39.1267 31.7039 38.5948 31.1715 37.9178 31.1715C37.2569 31.1715 36.7089 31.7039 36.7089 32.3459V38.6094C36.7089 39.2514 37.2569 39.7838 37.9178 39.7838Z" fill="#BC5AD7"/>
<defs>
<linearGradient id="paint0_linear_3312_42385" x1="35" y1="0" x2="35" y2="70" gradientUnits="userSpaceOnUse">
<stop stop-color="#BC5AD7"/>
<stop offset="1" stop-color="#BC5AD7" stop-opacity="0"/>
</linearGradient>
</defs>
</svg>
