<svg width="343" height="122" viewBox="0 0 343 122" fill="none" xmlns="http://www.w3.org/2000/svg">
<g clip-path="url(#clip0_3694_3343)">
<rect width="343" height="122" rx="12" fill="#2C1334"/>
<g filter="url(#filter0_f_3694_3343)">
<rect y="72" width="343" height="50" fill="url(#paint0_linear_3694_3343)" fill-opacity="0.1"/>
</g>
<g clip-path="url(#clip1_3694_3343)" filter="url(#filter1_f_3694_3343)">
<path d="M13.0592 -43.628C13.8232 -41.9751 15.5737 -41.0087 17.3772 -41.2309C20.031 -41.5601 22.306 -39.3619 22.0618 -36.7C21.8944 -34.8845 22.9293 -33.1724 24.6026 -32.469C27.0671 -31.4337 27.9364 -28.3846 26.4006 -26.2047C25.3491 -24.7191 25.3874 -22.7178 26.4875 -21.2667C28.1001 -19.1414 27.3319 -16.064 24.9079 -14.9379C23.2549 -14.1739 22.2885 -12.4234 22.5107 -10.6199C22.84 -7.96611 20.6418 -5.69107 17.9799 -5.93528C16.1644 -6.10269 14.4522 -5.06776 13.7488 -3.39446C12.7135 -0.930006 9.66439 -0.0606936 7.48452 -1.59645C5.99896 -2.64796 3.99767 -2.60963 2.54654 -1.50954C0.421254 0.102991 -2.65615 -0.665121 -3.78231 -3.08921C-4.54628 -4.74217 -6.2968 -5.70854 -8.10027 -5.48637C-10.754 -5.15709 -13.0291 -7.35529 -12.7849 -10.0172C-12.6175 -11.8327 -13.6524 -13.5449 -15.3257 -14.2483C-17.7902 -15.2836 -18.6595 -18.3327 -17.1237 -20.5125C-16.0722 -21.9981 -16.1105 -23.9994 -17.2106 -25.4505C-18.8232 -27.5758 -18.055 -30.6532 -15.631 -31.7794C-13.978 -32.5433 -13.0116 -34.2939 -13.2338 -36.0973C-13.5631 -38.7511 -11.3649 -41.0262 -8.70295 -40.782C-6.88747 -40.6145 -5.17528 -41.6495 -4.4719 -43.3228C-3.43658 -45.7872 -0.387488 -46.6565 1.79238 -45.1208C3.27794 -44.0693 5.27924 -44.1076 6.73036 -45.2077C8.85565 -46.8202 11.933 -46.0521 13.0592 -43.628Z" fill="#FDEB56"/>
<path d="M-12.8295 -11.045L-21.6339 -1.02323C-22.0213 -0.58208 -21.7145 0.10798 -21.1292 0.119625L-14.1344 0.209915C-13.7983 0.20979 -13.5094 0.466765 -13.4658 0.797003L-12.4704 7.71814C-12.3891 8.3015 -11.6613 8.51679 -11.2739 8.07564L-2.71661 -1.66322" fill="#FDEB56"/>
<path d="M0.936988 -0.751443L3.91407 11.8664C4.04876 12.4378 4.79239 12.5898 5.13828 12.1131L9.26928 6.47148C9.47089 6.20245 9.83868 6.10936 10.1354 6.26746L16.3521 9.47471C16.8743 9.7395 17.4694 9.27455 17.3347 8.70308L14.2724 -4.28054" fill="#FDEB56"/>
<path d="M-12.8295 -11.045L-21.6339 -1.02323C-22.0213 -0.582082 -21.7145 0.10798 -21.1292 0.119623L-14.1344 0.209917C-13.7983 0.20979 -13.5094 0.466764 -13.4658 0.797003L-12.4704 7.71815C-12.3891 8.3015 -11.6613 8.51679 -11.2739 8.07564L-2.71661 -1.66322M0.936988 -0.751443L3.91407 11.8664C4.04876 12.4378 4.79239 12.5898 5.13828 12.1131L9.26928 6.47147C9.47089 6.20245 9.83869 6.10936 10.1354 6.26746L16.3521 9.47471C16.8743 9.7395 17.4694 9.27455 17.3347 8.70308L14.2724 -4.28054M13.0592 -43.628C13.8232 -41.9751 15.5737 -41.0087 17.3772 -41.2309C20.031 -41.5601 22.306 -39.3619 22.0618 -36.7C21.8944 -34.8845 22.9293 -33.1724 24.6026 -32.469C27.0671 -31.4337 27.9364 -28.3846 26.4006 -26.2047C25.3491 -24.7191 25.3874 -22.7178 26.4875 -21.2667C28.1001 -19.1414 27.3319 -16.064 24.9079 -14.9379C23.2549 -14.1739 22.2885 -12.4234 22.5107 -10.6199C22.84 -7.96611 20.6418 -5.69107 17.9799 -5.93528C16.1644 -6.10268 14.4522 -5.06776 13.7488 -3.39446C12.7135 -0.930008 9.66439 -0.0606949 7.48452 -1.59645C5.99896 -2.64796 3.99767 -2.60963 2.54654 -1.50954C0.421255 0.102989 -2.65615 -0.665122 -3.78231 -3.08921C-4.54628 -4.74217 -6.2968 -5.70854 -8.10027 -5.48637C-10.754 -5.15709 -13.0291 -7.35529 -12.7849 -10.0172C-12.6175 -11.8327 -13.6524 -13.5449 -15.3257 -14.2483C-17.7902 -15.2836 -18.6595 -18.3327 -17.1237 -20.5125C-16.0722 -21.9981 -16.1105 -23.9994 -17.2106 -25.4505C-18.8231 -27.5758 -18.055 -30.6532 -15.631 -31.7794C-13.978 -32.5433 -13.0116 -34.2939 -13.2338 -36.0973C-13.5631 -38.7511 -11.3649 -41.0262 -8.70295 -40.782C-6.88747 -40.6145 -5.17528 -41.6495 -4.4719 -43.3228C-3.43658 -45.7872 -0.387488 -46.6565 1.79238 -45.1208C3.27794 -44.0693 5.27924 -44.1076 6.73036 -45.2077C8.85565 -46.8202 11.933 -46.0521 13.0592 -43.628Z" stroke="#FDEB56" stroke-width="3.7693" stroke-miterlimit="10"/>
<g filter="url(#filter2_d_3694_3343)">
<path d="M13.0592 -43.6282C13.8232 -41.9752 15.5737 -41.0089 17.3772 -41.231C20.031 -41.5603 22.306 -39.3621 22.0618 -36.7002C21.8944 -34.8847 22.9293 -33.1725 24.6026 -32.4692C27.0671 -31.4338 27.9364 -28.3847 26.4006 -26.2049C25.3491 -24.7193 25.3874 -22.718 26.4875 -21.2669C28.1001 -19.1416 27.3319 -16.0642 24.9079 -14.938C23.2549 -14.1741 22.2885 -12.4235 22.5107 -10.6201C22.84 -7.9663 20.6418 -5.69125 17.9799 -5.93546C16.1644 -6.10287 14.4522 -5.06795 13.7488 -3.39465C12.7135 -0.930192 9.6644 -0.0608804 7.48452 -1.59664C5.99896 -2.64814 3.99767 -2.60981 2.54654 -1.50973C0.421257 0.102804 -2.65614 -0.665307 -3.7823 -3.08939C-4.54628 -4.74236 -6.2968 -5.70873 -8.10026 -5.48656C-10.754 -5.15727 -13.0291 -7.35548 -12.7849 -10.0174C-12.6175 -11.8329 -13.6524 -13.5451 -15.3257 -14.2484C-17.7902 -15.2838 -18.6595 -18.3329 -17.1237 -20.5127C-16.0722 -21.9983 -16.1105 -23.9996 -17.2106 -25.4507C-18.8231 -27.576 -18.055 -30.6534 -15.631 -31.7796C-13.978 -32.5435 -13.0116 -34.294 -13.2338 -36.0975C-13.5631 -38.7513 -11.3649 -41.0263 -8.70295 -40.7821C-6.88747 -40.6147 -5.17528 -41.6497 -4.4719 -43.323C-3.43658 -45.7874 -0.387488 -46.6567 1.79239 -45.121C3.27795 -44.0695 5.27924 -44.1078 6.73036 -45.2079C8.85565 -46.8204 11.933 -46.0523 13.0592 -43.6282Z" fill="#FDEB56"/>
<path d="M13.0592 -43.6282C13.8232 -41.9752 15.5737 -41.0089 17.3772 -41.231C20.031 -41.5603 22.306 -39.3621 22.0618 -36.7002C21.8944 -34.8847 22.9293 -33.1725 24.6026 -32.4692C27.0671 -31.4338 27.9364 -28.3847 26.4006 -26.2049C25.3491 -24.7193 25.3874 -22.718 26.4875 -21.2669C28.1001 -19.1416 27.3319 -16.0642 24.9079 -14.938C23.2549 -14.1741 22.2885 -12.4235 22.5107 -10.6201C22.84 -7.9663 20.6418 -5.69125 17.9799 -5.93546C16.1644 -6.10287 14.4522 -5.06795 13.7488 -3.39465C12.7135 -0.930192 9.6644 -0.0608804 7.48452 -1.59664C5.99896 -2.64814 3.99767 -2.60981 2.54654 -1.50973C0.421257 0.102804 -2.65614 -0.665307 -3.7823 -3.08939C-4.54628 -4.74236 -6.2968 -5.70873 -8.10026 -5.48656C-10.754 -5.15727 -13.0291 -7.35548 -12.7849 -10.0174C-12.6175 -11.8329 -13.6524 -13.5451 -15.3257 -14.2484C-17.7902 -15.2838 -18.6595 -18.3329 -17.1237 -20.5127C-16.0722 -21.9983 -16.1105 -23.9996 -17.2106 -25.4507C-18.8231 -27.576 -18.055 -30.6534 -15.631 -31.7796C-13.978 -32.5435 -13.0116 -34.294 -13.2338 -36.0975C-13.5631 -38.7513 -11.3649 -41.0263 -8.70295 -40.7821C-6.88747 -40.6147 -5.17528 -41.6497 -4.4719 -43.323C-3.43658 -45.7874 -0.387488 -46.6567 1.79239 -45.121C3.27795 -44.0695 5.27924 -44.1078 6.73036 -45.2079C8.85565 -46.8204 11.933 -46.0523 13.0592 -43.6282Z" stroke="#FDEB56" stroke-width="3.7693" stroke-miterlimit="10"/>
</g>
</g>
<g clip-path="url(#clip2_3694_3343)" filter="url(#filter3_f_3694_3343)">
<path d="M23.5336 88.4242C24.0583 89.4476 25.1879 90.0123 26.3203 89.8256C27.9864 89.5494 29.4788 90.878 29.3933 92.5641C29.3344 93.7141 30.0316 94.7679 31.1057 95.1686C32.6876 95.7584 33.3148 97.6602 32.4018 99.0754C31.7765 100.04 31.8523 101.302 32.5839 102.189C33.6563 103.489 33.2509 105.451 31.7502 106.224C30.7268 106.749 30.162 107.878 30.3487 109.01C30.6249 110.677 29.2964 112.169 27.6103 112.083C26.4603 112.025 25.4065 112.722 25.0057 113.796C24.4159 115.378 22.5142 116.005 21.099 115.092C20.1344 114.467 18.8725 114.542 17.9851 115.274C16.6855 116.346 14.7237 115.941 13.9505 114.44C13.4258 113.417 12.2962 112.852 11.1639 113.039C9.4977 113.315 8.00537 111.987 8.09087 110.3C8.14973 109.15 7.45251 108.097 6.37844 107.696C4.79656 107.106 4.16939 105.204 5.08235 103.789C5.70762 102.825 5.63185 101.563 4.90024 100.675C3.82787 99.3757 4.23327 97.4139 5.73397 96.6407C6.75739 96.116 7.32211 94.9864 7.13543 93.8541C6.85923 92.1879 8.18778 90.6956 9.87388 90.7811C11.0239 90.8399 12.0777 90.1427 12.4784 89.0686C13.0682 87.4867 14.97 86.8596 16.3852 87.7725C17.3497 88.3978 18.6117 88.322 19.4991 87.5904C20.7987 86.5181 22.7605 86.9235 23.5336 88.4242Z" fill="#FDEB56"/>
<path d="M8.0362 109.653L2.73849 116.204C2.50537 116.493 2.71675 116.92 3.08645 116.912L7.50282 116.789C7.71497 116.78 7.90385 116.935 7.9399 117.142L8.74641 121.484C8.81275 121.85 9.2776 121.967 9.51072 121.679L14.6598 115.313" fill="#FDEB56"/>
<path d="M16.9889 115.794L19.1928 123.68C19.2925 124.037 19.7657 124.114 19.9717 123.804L22.4332 120.137C22.5535 119.962 22.7832 119.894 22.9745 119.986L26.9802 121.85C27.3166 122.004 27.6801 121.695 27.5804 121.338L25.3133 113.223" fill="#FDEB56"/>
<path d="M8.0362 109.653L2.73849 116.204C2.50537 116.493 2.71675 116.92 3.08645 116.912L7.50282 116.789C7.71497 116.78 7.90385 116.935 7.9399 117.142L8.74641 121.484C8.81275 121.85 9.2776 121.967 9.51072 121.679L14.6598 115.313M16.9889 115.794L19.1928 123.68C19.2925 124.037 19.7657 124.114 19.9717 123.804L22.4332 120.137C22.5535 119.962 22.7832 119.894 22.9745 119.986L26.9802 121.85C27.3166 122.004 27.6801 121.695 27.5804 121.338L25.3133 113.223M23.5336 88.4242C24.0583 89.4476 25.1879 90.0123 26.3203 89.8256C27.9864 89.5494 29.4788 90.878 29.3933 92.5641C29.3344 93.7141 30.0316 94.7679 31.1057 95.1686C32.6876 95.7584 33.3148 97.6602 32.4018 99.0754C31.7765 100.04 31.8523 101.302 32.5839 102.189C33.6563 103.489 33.2509 105.451 31.7502 106.224C30.7268 106.749 30.162 107.878 30.3487 109.01C30.6249 110.677 29.2964 112.169 27.6103 112.083C26.4603 112.025 25.4065 112.722 25.0057 113.796C24.4159 115.378 22.5142 116.005 21.099 115.092C20.1344 114.467 18.8725 114.542 17.9851 115.274C16.6855 116.346 14.7237 115.941 13.9505 114.44C13.4258 113.417 12.2962 112.852 11.1639 113.039C9.4977 113.315 8.00537 111.987 8.09087 110.3C8.14973 109.15 7.45251 108.097 6.37844 107.696C4.79656 107.106 4.16939 105.204 5.08235 103.789C5.70762 102.825 5.63185 101.563 4.90024 100.675C3.82787 99.3757 4.23327 97.4139 5.73397 96.6407C6.75739 96.116 7.32211 94.9864 7.13543 93.8541C6.85923 92.1879 8.18778 90.6956 9.87388 90.7811C11.0239 90.8399 12.0777 90.1427 12.4784 89.0686C13.0682 87.4867 14.97 86.8596 16.3852 87.7725C17.3497 88.3978 18.6117 88.322 19.4991 87.5904C20.7987 86.5181 22.7605 86.9235 23.5336 88.4242Z" stroke="#FDEB56" stroke-width="3.7693" stroke-miterlimit="10"/>
<g filter="url(#filter4_d_3694_3343)">
<path d="M23.5336 88.424C24.0583 89.4475 25.1879 90.0122 26.3203 89.8255C27.9864 89.5493 29.4788 90.8779 29.3933 92.564C29.3344 93.7139 30.0316 94.7677 31.1057 95.1685C32.6876 95.7583 33.3148 97.66 32.4018 99.0752C31.7765 100.04 31.8523 101.302 32.5839 102.189C33.6563 103.489 33.2509 105.451 31.7502 106.224C30.7268 106.748 30.162 107.878 30.3487 109.01C30.6249 110.677 29.2964 112.169 27.6103 112.083C26.4603 112.024 25.4065 112.722 25.0057 113.796C24.4159 115.378 22.5142 116.005 21.099 115.092C20.1344 114.467 18.8725 114.542 17.9851 115.274C16.6855 116.346 14.7237 115.941 13.9505 114.44C13.4258 113.417 12.2962 112.852 11.1639 113.039C9.4977 113.315 8.00537 111.986 8.09087 110.3C8.14973 109.15 7.45251 108.097 6.37844 107.696C4.79656 107.106 4.16939 105.204 5.08235 103.789C5.70762 102.824 5.63185 101.563 4.90024 100.675C3.82787 99.3755 4.23327 97.4138 5.73397 96.6406C6.75739 96.1159 7.32211 94.9863 7.13543 93.854C6.85923 92.1878 8.18778 90.6954 9.87388 90.7809C11.0239 90.8398 12.0777 90.1426 12.4784 89.0685C13.0682 87.4866 14.97 86.8595 16.3852 87.7724C17.3497 88.3977 18.6117 88.3219 19.4991 87.5903C20.7987 86.5179 22.7605 86.9233 23.5336 88.424Z" fill="#FDEB56"/>
<path d="M23.5336 88.424C24.0583 89.4475 25.1879 90.0122 26.3203 89.8255C27.9864 89.5493 29.4788 90.8779 29.3933 92.564C29.3344 93.7139 30.0316 94.7677 31.1057 95.1685C32.6876 95.7583 33.3148 97.66 32.4018 99.0752C31.7765 100.04 31.8523 101.302 32.5839 102.189C33.6563 103.489 33.2509 105.451 31.7502 106.224C30.7268 106.748 30.162 107.878 30.3487 109.01C30.6249 110.677 29.2964 112.169 27.6103 112.083C26.4603 112.024 25.4065 112.722 25.0057 113.796C24.4159 115.378 22.5142 116.005 21.099 115.092C20.1344 114.467 18.8725 114.542 17.9851 115.274C16.6855 116.346 14.7237 115.941 13.9505 114.44C13.4258 113.417 12.2962 112.852 11.1639 113.039C9.4977 113.315 8.00537 111.986 8.09087 110.3C8.14973 109.15 7.45251 108.097 6.37844 107.696C4.79656 107.106 4.16939 105.204 5.08235 103.789C5.70762 102.824 5.63185 101.563 4.90024 100.675C3.82787 99.3755 4.23327 97.4138 5.73397 96.6406C6.75739 96.1159 7.32211 94.9863 7.13543 93.854C6.85923 92.1878 8.18778 90.6954 9.87388 90.7809C11.0239 90.8398 12.0777 90.1426 12.4784 89.0685C13.0682 87.4866 14.97 86.8595 16.3852 87.7724C17.3497 88.3977 18.6117 88.3219 19.4991 87.5903C20.7987 86.5179 22.7605 86.9233 23.5336 88.424Z" stroke="#FDEB56" stroke-width="3.7693" stroke-miterlimit="10"/>
</g>
<path d="M18.07 106.095L21.8598 109.908C22.181 110.236 22.7414 109.985 22.7099 109.523L22.3519 104.16C22.3403 103.964 22.4463 103.776 22.6222 103.685L27.4173 101.258C27.8266 101.051 27.7572 100.445 27.3169 100.332L22.1061 99.0158C21.9139 98.9686 21.7684 98.8039 21.7337 98.6097L20.9085 93.3005C20.8382 92.8447 20.2428 92.7216 19.9975 93.1122L17.1355 97.6595C17.0267 97.824 16.835 97.919 16.6326 97.8847L11.327 97.0277C10.8706 96.9558 10.5741 97.4854 10.8678 97.8378L14.308 101.967C14.4334 102.12 14.4565 102.334 14.3677 102.51L11.9137 107.292C11.7028 107.697 12.1179 108.149 12.5414 107.982L17.532 105.984C17.7192 105.911 17.9272 105.954 18.07 106.095Z" fill="#140718" stroke="#140718" stroke-width="0.869839" stroke-miterlimit="10"/>
</g>
<g clip-path="url(#clip3_3694_3343)" filter="url(#filter5_f_3694_3343)">
<path d="M338.071 11.7358C339.075 12.2976 340.328 12.1425 341.168 11.3601C342.402 10.2076 344.38 10.4878 345.243 11.9392C345.83 12.9295 346.994 13.421 348.111 13.1601C349.755 12.7755 351.33 14.0119 351.353 15.6959C351.366 16.8453 352.128 17.8543 353.229 18.1882C354.841 18.6767 355.59 20.5349 354.768 22.0096C354.206 23.0131 354.361 24.2664 355.144 25.1061C356.296 26.3407 356.016 28.319 354.565 29.1813C353.574 29.7689 353.083 30.933 353.344 32.0493C353.728 33.6931 352.492 35.2683 350.808 35.2915C349.658 35.3049 348.65 36.0666 348.316 37.1672C347.827 38.7797 345.969 39.5282 344.494 38.7065C343.491 38.1448 342.237 38.2999 341.398 39.0823C340.163 40.2347 338.185 39.9546 337.323 38.5031C336.735 37.5129 335.571 37.0213 334.455 37.2823C332.811 37.6669 331.236 36.4304 331.212 34.7465C331.199 33.597 330.437 32.5881 329.337 32.2542C327.724 31.7656 326.976 29.9075 327.797 28.4328C328.359 27.4292 328.204 26.1759 327.422 25.3363C326.269 24.1017 326.549 22.1234 328.001 21.2611C328.991 20.6734 329.482 19.5094 329.222 18.3931C328.837 16.7492 330.073 15.1741 331.757 15.1508C332.907 15.1375 333.916 14.3757 334.25 13.2752C334.738 11.6627 336.596 10.9141 338.071 11.7358Z" fill="#FDEB56"/>
<path d="M336.919 37.9943L336.134 46.3828C336.099 46.752 336.512 46.991 336.816 46.7799L340.425 44.2322C340.597 44.1074 340.84 44.1317 340.985 44.2844L344.06 47.4536C344.318 47.7217 344.77 47.5619 344.805 47.1927L345.568 39.0404" fill="#FDEB56"/>
<path d="M347.774 38.1516L353.975 43.4984C354.256 43.7406 354.692 43.5425 354.692 43.1705L354.712 38.7544C354.716 38.5421 354.869 38.3581 355.079 38.3289L359.447 37.6631C359.812 37.6049 359.944 37.1465 359.663 36.9043L353.283 31.4021" fill="#FDEB56"/>
<path d="M336.919 37.9943L336.134 46.3828C336.099 46.752 336.512 46.991 336.816 46.7799L340.425 44.2322C340.597 44.1074 340.84 44.1317 340.985 44.2844L344.06 47.4536C344.318 47.7217 344.77 47.5619 344.805 47.1927L345.568 39.0404M347.774 38.1516L353.975 43.4984C354.256 43.7406 354.692 43.5425 354.692 43.1705L354.712 38.7544C354.716 38.5421 354.869 38.3581 355.079 38.3289L359.447 37.6631C359.812 37.6049 359.944 37.1465 359.663 36.9043L353.283 31.4021M338.071 11.7358C339.075 12.2976 340.328 12.1425 341.168 11.3601C342.402 10.2076 344.38 10.4878 345.243 11.9392C345.83 12.9294 346.994 13.421 348.111 13.1601C349.755 12.7755 351.33 14.0119 351.353 15.6959C351.366 16.8453 352.128 17.8543 353.229 18.1882C354.841 18.6767 355.59 20.5349 354.768 22.0096C354.206 23.0131 354.361 24.2664 355.144 25.1061C356.296 26.3407 356.016 28.319 354.565 29.1813C353.574 29.7689 353.083 30.933 353.344 32.0493C353.728 33.6931 352.492 35.2683 350.808 35.2915C349.658 35.3049 348.65 36.0666 348.316 37.1672C347.827 38.7797 345.969 39.5282 344.494 38.7065C343.491 38.1448 342.237 38.2999 341.398 39.0823C340.163 40.2347 338.185 39.9546 337.323 38.5031C336.735 37.5129 335.571 37.0213 334.455 37.2823C332.811 37.6669 331.236 36.4304 331.212 34.7465C331.199 33.597 330.437 32.5881 329.337 32.2542C327.724 31.7656 326.976 29.9075 327.797 28.4328C328.359 27.4292 328.204 26.1759 327.422 25.3363C326.269 24.1017 326.549 22.1234 328.001 21.2611C328.991 20.6734 329.482 19.5094 329.222 18.3931C328.837 16.7492 330.073 15.1741 331.757 15.1508C332.907 15.1375 333.916 14.3757 334.25 13.2752C334.738 11.6627 336.596 10.9141 338.071 11.7358Z" stroke="#FDEB56" stroke-width="3.7693" stroke-miterlimit="10"/>
<g filter="url(#filter6_d_3694_3343)">
<path d="M338.071 11.7358C339.075 12.2975 340.328 12.1424 341.168 11.36C342.402 10.2076 344.38 10.4877 345.243 11.9392C345.83 12.9294 346.994 13.4209 348.111 13.16C349.755 12.7754 351.33 14.0119 351.353 15.6958C351.366 16.8453 352.128 17.8542 353.229 18.1881C354.841 18.6767 355.59 20.5348 354.768 22.0095C354.206 23.0131 354.361 24.2664 355.144 25.106C356.296 26.3406 356.016 28.3189 354.565 29.1812C353.574 29.7689 353.083 30.9329 353.344 32.0492C353.728 33.6931 352.492 35.2682 350.808 35.2915C349.658 35.3048 348.65 36.0666 348.316 37.1671C347.827 38.7796 345.969 39.5282 344.494 38.7065C343.491 38.1447 342.237 38.2998 341.398 39.0822C340.163 40.2347 338.185 39.9545 337.323 38.5031C336.735 37.5128 335.571 37.0213 334.455 37.2822C332.811 37.6668 331.236 36.4304 331.212 34.7464C331.199 33.597 330.437 32.588 329.337 32.2541C327.724 31.7656 326.976 29.9074 327.797 28.4327C328.359 27.4292 328.204 26.1759 327.422 25.3362C326.269 24.1016 326.549 22.1233 328.001 21.261C328.991 20.6734 329.482 19.5093 329.222 18.393C328.837 16.7492 330.073 15.174 331.757 15.1508C332.907 15.1374 333.916 14.3757 334.25 13.2751C334.738 11.6626 336.596 10.9141 338.071 11.7358Z" fill="#FDEB56"/>
<path d="M338.071 11.7358C339.075 12.2975 340.328 12.1424 341.168 11.36C342.402 10.2076 344.38 10.4877 345.243 11.9392C345.83 12.9294 346.994 13.4209 348.111 13.16C349.755 12.7754 351.33 14.0119 351.353 15.6958C351.366 16.8453 352.128 17.8542 353.229 18.1881C354.841 18.6767 355.59 20.5348 354.768 22.0095C354.206 23.0131 354.361 24.2664 355.144 25.106C356.296 26.3406 356.016 28.3189 354.565 29.1812C353.574 29.7689 353.083 30.9329 353.344 32.0492C353.728 33.6931 352.492 35.2682 350.808 35.2915C349.658 35.3048 348.65 36.0666 348.316 37.1671C347.827 38.7796 345.969 39.5282 344.494 38.7065C343.491 38.1447 342.237 38.2998 341.398 39.0822C340.163 40.2347 338.185 39.9545 337.323 38.5031C336.735 37.5128 335.571 37.0213 334.455 37.2822C332.811 37.6668 331.236 36.4304 331.212 34.7464C331.199 33.597 330.437 32.588 329.337 32.2541C327.724 31.7656 326.976 29.9074 327.797 28.4327C328.359 27.4292 328.204 26.1759 327.422 25.3362C326.269 24.1016 326.549 22.1233 328.001 21.261C328.991 20.6734 329.482 19.5093 329.222 18.393C328.837 16.7492 330.073 15.174 331.757 15.1508C332.907 15.1374 333.916 14.3757 334.25 13.2751C334.738 11.6626 336.596 10.9141 338.071 11.7358Z" stroke="#FDEB56" stroke-width="3.7693" stroke-miterlimit="10"/>
</g>
<path d="M343.304 29.4769L348.571 30.5536C349.02 30.6491 349.348 30.1301 349.065 29.7621L345.799 25.4948C345.68 25.3373 345.664 25.1225 345.761 24.9495L348.41 20.2733C348.636 19.8742 348.243 19.4086 347.814 19.5579L342.746 21.3467C342.559 21.4138 342.347 21.3572 342.211 21.2147L338.584 17.2503C338.273 16.9096 337.709 17.1368 337.721 17.5979L337.855 22.9692C337.856 23.1664 337.749 23.3517 337.561 23.4351L332.669 25.6588C332.249 25.8517 332.295 26.4569 332.735 26.5877L337.886 28.1218C338.075 28.1798 338.213 28.3454 338.236 28.5412L338.84 33.8814C338.888 34.3356 339.485 34.4825 339.745 34.1091L342.795 29.6822C342.91 29.5173 343.107 29.438 343.304 29.4769Z" fill="#140718" stroke="#140718" stroke-width="0.869839" stroke-miterlimit="10"/>
</g>
</g>
<rect x="0.5" y="0.5" width="342" height="121" rx="11.5" stroke="url(#paint1_linear_3694_3343)" stroke-opacity="0.1"/>
<defs>
<filter id="filter0_f_3694_3343" x="-4" y="68" width="351" height="58" filterUnits="userSpaceOnUse" color-interpolation-filters="sRGB">
<feFlood flood-opacity="0" result="BackgroundImageFix"/>
<feBlend mode="normal" in="SourceGraphic" in2="BackgroundImageFix" result="shape"/>
<feGaussianBlur stdDeviation="2" result="effect1_foregroundBlur_3694_3343"/>
</filter>
<filter id="filter1_f_3694_3343" x="-47.7899" y="-68.7899" width="101.947" height="101.947" filterUnits="userSpaceOnUse" color-interpolation-filters="sRGB">
<feFlood flood-opacity="0" result="BackgroundImageFix"/>
<feBlend mode="normal" in="SourceGraphic" in2="BackgroundImageFix" result="shape"/>
<feGaussianBlur stdDeviation="4.39497" result="effect1_foregroundBlur_3694_3343"/>
</filter>
<filter id="filter2_d_3694_3343" x="-25.7447" y="-50.8425" width="60.7663" height="60.7662" filterUnits="userSpaceOnUse" color-interpolation-filters="sRGB">
<feFlood flood-opacity="0" result="BackgroundImageFix"/>
<feColorMatrix in="SourceAlpha" type="matrix" values="0 0 0 0 0 0 0 0 0 0 0 0 0 0 0 0 0 0 127 0" result="hardAlpha"/>
<feOffset dy="2.89946"/>
<feGaussianBlur stdDeviation="2.89946"/>
<feComposite in2="hardAlpha" operator="out"/>
<feColorMatrix type="matrix" values="0 0 0 0 0.0784314 0 0 0 0 0.027451 0 0 0 0 0.0941176 0 0 0 0.3 0"/>
<feBlend mode="normal" in2="BackgroundImageFix" result="effect1_dropShadow_3694_3343"/>
<feBlend mode="normal" in="SourceGraphic" in2="effect1_dropShadow_3694_3343" result="shape"/>
</filter>
<filter id="filter3_f_3694_3343" x="-15.3245" y="71.675" width="66.5845" height="66.5845" filterUnits="userSpaceOnUse" color-interpolation-filters="sRGB">
<feFlood flood-opacity="0" result="BackgroundImageFix"/>
<feBlend mode="normal" in="SourceGraphic" in2="BackgroundImageFix" result="shape"/>
<feGaussianBlur stdDeviation="3.66248" result="effect1_foregroundBlur_3694_3343"/>
</filter>
<filter id="filter4_d_3694_3343" x="-3.3873" y="82.2023" width="44.2585" height="44.2586" filterUnits="userSpaceOnUse" color-interpolation-filters="sRGB">
<feFlood flood-opacity="0" result="BackgroundImageFix"/>
<feColorMatrix in="SourceAlpha" type="matrix" values="0 0 0 0 0 0 0 0 0 0 0 0 0 0 0 0 0 0 127 0" result="hardAlpha"/>
<feOffset dy="2.89946"/>
<feGaussianBlur stdDeviation="2.89946"/>
<feComposite in2="hardAlpha" operator="out"/>
<feColorMatrix type="matrix" values="0 0 0 0 0.0784314 0 0 0 0 0.027451 0 0 0 0 0.0941176 0 0 0 0.3 0"/>
<feBlend mode="normal" in2="BackgroundImageFix" result="effect1_dropShadow_3694_3343"/>
<feBlend mode="normal" in="SourceGraphic" in2="effect1_dropShadow_3694_3343" result="shape"/>
</filter>
<filter id="filter5_f_3694_3343" x="311.07" y="-2.92998" width="63.0484" height="63.0484" filterUnits="userSpaceOnUse" color-interpolation-filters="sRGB">
<feFlood flood-opacity="0" result="BackgroundImageFix"/>
<feBlend mode="normal" in="SourceGraphic" in2="BackgroundImageFix" result="shape"/>
<feGaussianBlur stdDeviation="1.46499" result="effect1_foregroundBlur_3694_3343"/>
</filter>
<filter id="filter6_d_3694_3343" x="319.024" y="5.8625" width="44.5163" height="44.5162" filterUnits="userSpaceOnUse" color-interpolation-filters="sRGB">
<feFlood flood-opacity="0" result="BackgroundImageFix"/>
<feColorMatrix in="SourceAlpha" type="matrix" values="0 0 0 0 0 0 0 0 0 0 0 0 0 0 0 0 0 0 127 0" result="hardAlpha"/>
<feOffset dy="2.89946"/>
<feGaussianBlur stdDeviation="2.89946"/>
<feComposite in2="hardAlpha" operator="out"/>
<feColorMatrix type="matrix" values="0 0 0 0 0.0784314 0 0 0 0 0.027451 0 0 0 0 0.0941176 0 0 0 0.3 0"/>
<feBlend mode="normal" in2="BackgroundImageFix" result="effect1_dropShadow_3694_3343"/>
<feBlend mode="normal" in="SourceGraphic" in2="effect1_dropShadow_3694_3343" result="shape"/>
</filter>
<linearGradient id="paint0_linear_3694_3343" x1="171.5" y1="122" x2="171.5" y2="72" gradientUnits="userSpaceOnUse">
<stop stop-color="#FDEB56"/>
<stop offset="1" stop-color="#FDEB56" stop-opacity="0"/>
</linearGradient>
<linearGradient id="paint1_linear_3694_3343" x1="171.5" y1="0" x2="171.5" y2="122" gradientUnits="userSpaceOnUse">
<stop stop-color="white"/>
<stop offset="1" stop-color="white" stop-opacity="0"/>
</linearGradient>
<clipPath id="clip0_3694_3343">
<rect width="343" height="122" rx="12" fill="white"/>
</clipPath>
<clipPath id="clip1_3694_3343">
<rect width="69.5871" height="69.5871" fill="white" transform="translate(-22.1484 -60) rotate(14.0145)"/>
</clipPath>
<clipPath id="clip2_3694_3343">
<rect width="43.9497" height="43.9497" fill="white" transform="translate(0.894531 79) rotate(11.6758)"/>
</clipPath>
<clipPath id="clip3_3694_3343">
<rect width="43.9497" height="43.9497" fill="white" transform="translate(314 16.4221) rotate(-21.9413)"/>
</clipPath>
</defs>
</svg>
