<svg width="1380" height="164" viewBox="0 0 1380 164" fill="none" xmlns="http://www.w3.org/2000/svg">
<g clip-path="url(#clip0_3691_3529)">
<rect width="1380" height="164" rx="12" fill="#2C1334"/>
<g filter="url(#filter0_f_3691_3529)">
<rect y="115" width="1380" height="50" fill="url(#paint0_linear_3691_3529)" fill-opacity="0.1"/>
</g>
<g clip-path="url(#clip1_3691_3529)" filter="url(#filter1_f_3691_3529)">
<path d="M110.071 -25.649C111.114 -23.3924 113.504 -22.0731 115.966 -22.3764C119.589 -22.826 122.695 -19.825 122.361 -16.191C122.133 -13.7125 123.546 -11.375 125.83 -10.4147C129.195 -9.00133 130.381 -4.83872 128.285 -1.86276C126.849 0.165316 126.902 2.89748 128.403 4.87854C130.605 7.77998 129.556 11.9812 126.247 13.5187C123.99 14.5616 122.671 16.9514 122.974 19.4135C123.424 23.0365 120.423 26.1423 116.789 25.8089C114.31 25.5804 111.973 26.9933 111.013 29.2777C109.599 32.6421 105.437 33.8289 102.461 31.7323C100.433 30.2968 97.7004 30.3491 95.7193 31.8509C92.8179 34.0524 88.6167 33.0037 87.0792 29.6944C86.0363 27.4378 83.6465 26.1185 81.1844 26.4218C77.5614 26.8713 74.4555 23.8703 74.7889 20.2363C75.0175 17.7578 73.6046 15.4204 71.3202 14.4601C67.9558 13.0467 66.769 8.88407 68.8656 5.90812C70.3011 3.88004 70.2488 1.14788 68.7469 -0.833193C66.5455 -3.73462 67.5942 -7.93587 70.9035 -9.4733C73.1601 -10.5163 74.4794 -12.9061 74.1761 -15.3682C73.7266 -18.9911 76.7275 -22.097 80.3616 -21.7636C82.8401 -21.5351 85.1775 -22.9479 86.1378 -25.2323C87.5512 -28.5968 91.7138 -29.7835 94.6898 -27.6869C96.7178 -26.2514 99.45 -26.3038 101.431 -27.8056C104.333 -30.007 108.534 -28.9584 110.071 -25.649Z" fill="#FDEB56"/>
<path d="M74.728 18.8332L62.7083 32.5149C62.1794 33.1171 62.5982 34.0592 63.3974 34.0751L72.9465 34.1983C73.4055 34.1982 73.7998 34.549 73.8594 34.9998L75.2182 44.4485C75.3292 45.2449 76.3229 45.5388 76.8518 44.9366L88.5341 31.6411" fill="#FDEB56"/>
<path d="M93.522 32.8859L97.5863 50.1117C97.7702 50.8918 98.7854 51.0993 99.2576 50.4485L104.897 42.7466C105.172 42.3793 105.675 42.2522 106.08 42.4681L114.567 46.8466C115.28 47.2081 116.092 46.5733 115.908 45.7932L111.727 28.068" fill="#FDEB56"/>
<path d="M74.728 18.8332L62.7083 32.5149C62.1794 33.1171 62.5982 34.0592 63.3974 34.0751L72.9465 34.1983C73.4055 34.1982 73.7998 34.549 73.8594 34.9998L75.2182 44.4485C75.3292 45.2449 76.3229 45.5388 76.8518 44.9366L88.5341 31.6411M93.522 32.8859L97.5863 50.1117C97.7702 50.8918 98.7854 51.0993 99.2576 50.4485L104.897 42.7466C105.172 42.3793 105.675 42.2522 106.08 42.4681L114.567 46.8466C115.28 47.2081 116.092 46.5733 115.908 45.7932L111.727 28.068M110.071 -25.649C111.114 -23.3924 113.504 -22.0731 115.966 -22.3764C119.589 -22.826 122.695 -19.825 122.361 -16.191C122.133 -13.7125 123.546 -11.375 125.83 -10.4147C129.195 -9.00133 130.381 -4.83872 128.285 -1.86276C126.849 0.165316 126.902 2.89747 128.403 4.87854C130.605 7.77998 129.556 11.9812 126.247 13.5187C123.99 14.5616 122.671 16.9514 122.974 19.4135C123.424 23.0365 120.423 26.1423 116.789 25.8089C114.31 25.5804 111.973 26.9933 111.013 29.2777C109.599 32.6421 105.437 33.8289 102.461 31.7323C100.433 30.2968 97.7004 30.3491 95.7193 31.8509C92.8179 34.0524 88.6167 33.0037 87.0792 29.6944C86.0363 27.4378 83.6465 26.1185 81.1844 26.4218C77.5614 26.8713 74.4555 23.8703 74.7889 20.2363C75.0175 17.7578 73.6046 15.4204 71.3202 14.4601C67.9558 13.0467 66.769 8.88408 68.8656 5.90812C70.3011 3.88004 70.2488 1.14788 68.7469 -0.833191C66.5455 -3.73462 67.5942 -7.93587 70.9035 -9.4733C73.1601 -10.5163 74.4794 -12.9061 74.1761 -15.3682C73.7266 -18.9911 76.7275 -22.097 80.3616 -21.7636C82.8401 -21.535 85.1775 -22.9479 86.1378 -25.2323C87.5512 -28.5968 91.7138 -29.7835 94.6898 -27.6869C96.7178 -26.2514 99.45 -26.3038 101.431 -27.8056C104.333 -30.007 108.534 -28.9584 110.071 -25.649Z" stroke="#FDEB56" stroke-width="5.14583" stroke-miterlimit="10"/>
<g filter="url(#filter2_d_3691_3529)">
<path d="M110.071 -25.6493C111.114 -23.3927 113.504 -22.0734 115.966 -22.3767C119.589 -22.8262 122.695 -19.8252 122.361 -16.1912C122.133 -13.7127 123.546 -11.3752 125.83 -10.415C129.195 -9.00158 130.381 -4.83896 128.285 -1.86301C126.849 0.165069 126.902 2.89723 128.403 4.8783C130.605 7.77973 129.556 11.981 126.247 13.5184C123.99 14.5614 122.671 16.9512 122.974 19.4133C123.424 23.0362 120.423 26.1421 116.789 25.8087C114.31 25.5802 111.973 26.993 111.013 29.2774C109.599 32.6419 105.437 33.8287 102.461 31.732C100.433 30.2965 97.7004 30.3489 95.7193 31.8507C92.8179 34.0521 88.6167 33.0035 87.0792 29.6941C86.0363 27.4375 83.6465 26.1182 81.1844 26.4215C77.5614 26.8711 74.4555 23.8701 74.7889 20.2361C75.0175 17.7576 73.6046 15.4201 71.3202 14.4598C67.9558 13.0464 66.769 8.88382 68.8656 5.90787C70.3011 3.87979 70.2488 1.14763 68.747 -0.83344C66.5455 -3.73487 67.5942 -7.93612 70.9035 -9.47355C73.1601 -10.5165 74.4794 -12.9063 74.1761 -15.3684C73.7266 -18.9913 76.7275 -22.0972 80.3616 -21.7638C82.8401 -21.5353 85.1775 -22.9482 86.1378 -25.2325C87.5512 -28.597 91.7138 -29.7838 94.6898 -27.6872C96.7178 -26.2517 99.45 -26.304 101.431 -27.8058C104.333 -30.0073 108.534 -28.9586 110.071 -25.6493Z" fill="#FDEB56"/>
<path d="M110.071 -25.6493C111.114 -23.3927 113.504 -22.0734 115.966 -22.3767C119.589 -22.8262 122.695 -19.8252 122.361 -16.1912C122.133 -13.7127 123.546 -11.3752 125.83 -10.415C129.195 -9.00158 130.381 -4.83896 128.285 -1.86301C126.849 0.165069 126.902 2.89723 128.403 4.8783C130.605 7.77973 129.556 11.981 126.247 13.5184C123.99 14.5614 122.671 16.9512 122.974 19.4133C123.424 23.0362 120.423 26.1421 116.789 25.8087C114.31 25.5802 111.973 26.993 111.013 29.2774C109.599 32.6419 105.437 33.8287 102.461 31.732C100.433 30.2965 97.7004 30.3489 95.7193 31.8507C92.8179 34.0521 88.6167 33.0035 87.0792 29.6941C86.0363 27.4375 83.6465 26.1182 81.1844 26.4215C77.5614 26.8711 74.4555 23.8701 74.7889 20.2361C75.0175 17.7576 73.6046 15.4201 71.3202 14.4598C67.9558 13.0464 66.769 8.88382 68.8656 5.90787C70.3011 3.87979 70.2488 1.14763 68.747 -0.83344C66.5455 -3.73487 67.5942 -7.93612 70.9035 -9.47355C73.1601 -10.5165 74.4794 -12.9063 74.1761 -15.3684C73.7266 -18.9913 76.7275 -22.0972 80.3616 -21.7638C82.8401 -21.5353 85.1775 -22.9482 86.1378 -25.2325C87.5512 -28.597 91.7138 -29.7838 94.6898 -27.6872C96.7178 -26.2517 99.45 -26.304 101.431 -27.8058C104.333 -30.0073 108.534 -28.9586 110.071 -25.6493Z" stroke="#FDEB56" stroke-width="5.14583" stroke-miterlimit="10"/>
</g>
<path d="M96.7109 12.0347L104.56 20.6032C105.224 21.3403 106.457 20.8482 106.43 19.8459L106.13 8.23317C106.122 7.80691 106.367 7.41127 106.755 7.23063L117.325 2.41096C118.228 1.99972 118.131 0.68639 117.19 0.402568L106.052 -2.89966C105.641 -3.01855 105.342 -3.3871 105.284 -3.80951L103.97 -15.3489C103.858 -16.3397 102.583 -16.6579 102.019 -15.8359L95.4367 -6.26737C95.1872 -5.92165 94.7648 -5.73332 94.3308 -5.82532L82.9475 -8.14436C81.9682 -8.33984 81.2812 -7.22207 81.8844 -6.43504L88.9501 2.78654C89.2075 3.12822 89.2384 3.59288 89.0312 3.96546L83.3092 14.0751C82.818 14.9317 83.6747 15.9452 84.604 15.6223L95.5587 11.7471C95.9695 11.6049 96.4151 11.7161 96.7109 12.0347Z" fill="#140718" stroke="#140718" stroke-width="1.1875" stroke-miterlimit="10"/>
</g>
<g clip-path="url(#clip2_3691_3529)" filter="url(#filter3_f_3691_3529)">
<path d="M1394.26 44.1743C1395.27 46.4486 1397.63 47.8088 1400.1 47.5478C1403.73 47.1607 1406.78 50.2146 1406.39 53.8424C1406.12 56.3166 1407.49 58.678 1409.76 59.6774C1413.1 61.1485 1414.21 65.3309 1412.06 68.2703C1410.59 70.2734 1410.6 73.0061 1412.07 75.0127C1414.22 77.9516 1413.1 82.1342 1409.76 83.6144C1407.49 84.6184 1406.13 86.9852 1406.39 89.4522C1406.77 93.0823 1403.72 96.1361 1400.09 95.7402C1397.62 95.4691 1395.26 96.8416 1394.26 99.1091C1392.79 102.449 1388.6 103.564 1385.67 101.416C1383.66 99.9461 1380.93 99.9514 1378.92 101.419C1375.98 103.57 1371.8 102.449 1370.32 99.1141C1369.32 96.8399 1366.95 95.4797 1364.48 95.7406C1360.85 96.1278 1357.8 93.0739 1358.2 89.4461C1358.47 86.9719 1357.09 84.6105 1354.83 83.6111C1351.49 82.14 1350.37 77.9576 1352.52 75.0181C1353.99 73.0151 1353.98 70.2824 1352.52 68.2758C1350.37 65.3369 1351.49 61.1543 1354.82 59.674C1357.1 58.67 1358.46 56.3033 1358.19 53.8363C1357.81 50.2062 1360.86 47.1524 1364.49 47.5482C1366.96 47.8194 1369.33 46.4469 1370.32 44.1794C1371.8 40.8397 1375.98 39.7247 1378.92 41.8722C1380.92 43.3424 1383.65 43.337 1385.66 41.8695C1388.6 39.7183 1392.78 40.839 1394.26 44.1743Z" fill="#FDEB56"/>
<path d="M1358.16 88.0421L1345.91 101.515C1345.37 102.108 1345.77 103.057 1346.57 103.087L1356.11 103.374C1356.57 103.382 1356.96 103.74 1357.01 104.191L1358.21 113.662C1358.31 114.46 1359.29 114.771 1359.83 114.178L1371.74 101.086" fill="#FDEB56"/>
<path d="M1376.71 102.416L1380.48 119.709C1380.65 120.492 1381.66 120.717 1382.14 120.075L1387.91 112.471C1388.19 112.108 1388.7 111.99 1389.1 112.213L1397.51 116.737C1398.22 117.11 1399.04 116.49 1398.87 115.706L1394.99 97.9119" fill="#FDEB56"/>
<path d="M1358.16 88.0421L1345.91 101.515C1345.37 102.108 1345.77 103.057 1346.57 103.087L1356.11 103.374C1356.57 103.382 1356.96 103.74 1357.01 104.191L1358.21 113.662C1358.31 114.46 1359.29 114.771 1359.83 114.178L1371.74 101.086M1376.71 102.416L1380.48 119.709C1380.65 120.492 1381.66 120.717 1382.14 120.075L1387.91 112.471C1388.19 112.108 1388.7 111.99 1389.1 112.213L1397.51 116.737C1398.22 117.11 1399.04 116.49 1398.87 115.706L1394.99 97.9119M1394.26 44.1743C1395.27 46.4486 1397.63 47.8088 1400.1 47.5478C1403.73 47.1607 1406.78 50.2146 1406.39 53.8424C1406.12 56.3166 1407.49 58.678 1409.76 59.6774C1413.1 61.1485 1414.21 65.3309 1412.06 68.2703C1410.59 70.2734 1410.6 73.0061 1412.07 75.0127C1414.22 77.9516 1413.1 82.1342 1409.76 83.6144C1407.49 84.6184 1406.13 86.9852 1406.39 89.4522C1406.77 93.0823 1403.72 96.1361 1400.09 95.7402C1397.62 95.4691 1395.26 96.8416 1394.26 99.1091C1392.79 102.449 1388.6 103.564 1385.67 101.416C1383.66 99.9461 1380.93 99.9514 1378.92 101.419C1375.98 103.57 1371.8 102.449 1370.32 99.1141C1369.32 96.8399 1366.95 95.4797 1364.48 95.7406C1360.85 96.1278 1357.8 93.0739 1358.2 89.4461C1358.47 86.9719 1357.09 84.6105 1354.83 83.6111C1351.49 82.14 1350.37 77.9576 1352.52 75.0181C1353.99 73.0151 1353.98 70.2824 1352.52 68.2758C1350.37 65.3369 1351.49 61.1543 1354.82 59.674C1357.1 58.67 1358.46 56.3033 1358.19 53.8363C1357.81 50.2062 1360.86 47.1524 1364.49 47.5482C1366.96 47.8194 1369.33 46.4469 1370.32 44.1794C1371.8 40.8397 1375.98 39.7247 1378.92 41.8722C1380.92 43.3424 1383.65 43.337 1385.66 41.8695C1388.6 39.7183 1392.78 40.839 1394.26 44.1743Z" stroke="#FDEB56" stroke-width="5.14583" stroke-miterlimit="10"/>
<g filter="url(#filter4_d_3691_3529)">
<path d="M1394.26 44.1741C1395.27 46.4483 1397.63 47.8085 1400.1 47.5476C1403.73 47.1604 1406.78 50.2144 1406.39 53.8421C1406.12 56.3163 1407.49 58.6778 1409.76 59.6772C1413.1 61.1482 1414.21 65.3306 1412.06 68.2701C1410.59 70.2732 1410.6 73.0058 1412.07 75.0124C1414.22 77.9513 1413.1 82.1339 1409.76 83.6142C1407.49 84.6182 1406.13 86.985 1406.39 89.4519C1406.77 93.082 1403.72 96.1358 1400.09 95.74C1397.62 95.4689 1395.26 96.8413 1394.26 99.1088C1392.79 102.449 1388.6 103.564 1385.67 101.416C1383.66 99.9459 1380.93 99.9512 1378.92 101.419C1375.98 103.57 1371.8 102.449 1370.32 99.1139C1369.32 96.8397 1366.95 95.4795 1364.48 95.7404C1360.85 96.1276 1357.8 93.0736 1358.2 89.4458C1358.47 86.9717 1357.09 84.6102 1354.83 83.6108C1351.49 82.1398 1350.37 77.9573 1352.52 75.0179C1353.99 73.0148 1353.98 70.2821 1352.52 68.2755C1350.37 65.3367 1351.49 61.1541 1354.82 59.6738C1357.1 58.6698 1358.46 56.303 1358.19 53.8361C1357.81 50.206 1360.86 47.1521 1364.49 47.548C1366.96 47.8191 1369.33 46.4467 1370.32 44.1791C1371.8 40.8395 1375.98 39.7245 1378.92 41.8719C1380.92 43.3421 1383.65 43.3368 1385.66 41.8693C1388.6 39.7181 1392.78 40.8388 1394.26 44.1741Z" fill="#FDEB56"/>
<path d="M1394.26 44.1741C1395.27 46.4483 1397.63 47.8085 1400.1 47.5476C1403.73 47.1604 1406.78 50.2144 1406.39 53.8421C1406.12 56.3163 1407.49 58.6778 1409.76 59.6772C1413.1 61.1482 1414.21 65.3306 1412.06 68.2701C1410.59 70.2732 1410.6 73.0058 1412.07 75.0124C1414.22 77.9513 1413.1 82.1339 1409.76 83.6142C1407.49 84.6182 1406.13 86.985 1406.39 89.4519C1406.77 93.082 1403.72 96.1358 1400.09 95.74C1397.62 95.4689 1395.26 96.8413 1394.26 99.1088C1392.79 102.449 1388.6 103.564 1385.67 101.416C1383.66 99.9459 1380.93 99.9512 1378.92 101.419C1375.98 103.57 1371.8 102.449 1370.32 99.1139C1369.32 96.8397 1366.95 95.4795 1364.48 95.7404C1360.85 96.1276 1357.8 93.0736 1358.2 89.4458C1358.47 86.9717 1357.09 84.6102 1354.83 83.6108C1351.49 82.1398 1350.37 77.9573 1352.52 75.0179C1353.99 73.0148 1353.98 70.2821 1352.52 68.2755C1350.37 65.3367 1351.49 61.1541 1354.82 59.6738C1357.1 58.6698 1358.46 56.303 1358.19 53.8361C1357.81 50.206 1360.86 47.1521 1364.49 47.548C1366.96 47.8191 1369.33 46.4467 1370.32 44.1791C1371.8 40.8395 1375.98 39.7245 1378.92 41.8719C1380.92 43.3421 1383.65 43.3368 1385.66 41.8693C1388.6 39.7181 1392.78 40.8388 1394.26 44.1741Z" stroke="#FDEB56" stroke-width="5.14583" stroke-miterlimit="10"/>
</g>
<path d="M1380.26 81.6227L1387.96 90.3249C1388.61 91.0733 1389.85 90.6025 1389.84 89.5999L1389.74 77.9837C1389.74 77.5573 1389.99 77.166 1390.38 76.9921L1401.03 72.3549C1401.94 71.9592 1401.87 70.6444 1400.93 70.3445L1389.85 66.8512C1389.44 66.7252 1389.15 66.3516 1389.1 65.9282L1387.98 54.3679C1387.89 53.3754 1386.62 53.0353 1386.04 53.8475L1379.3 63.3014C1379.04 63.6428 1378.62 63.8238 1378.18 63.7244L1366.84 61.2099C1365.87 60.9976 1365.16 62.1034 1365.75 62.9007L1372.65 72.2424C1372.91 72.5885 1372.93 73.0536 1372.72 73.4225L1366.82 83.4323C1366.31 84.2803 1367.15 85.3084 1368.09 85.0015L1379.11 81.3153C1379.52 81.1802 1379.97 81.299 1380.26 81.6227Z" fill="#140718" stroke="#140718" stroke-width="1.1875" stroke-miterlimit="10"/>
</g>
<g clip-path="url(#clip3_3691_3529)" filter="url(#filter5_f_3691_3529)">
<path d="M225.861 95.0218C227.232 95.7887 228.943 95.5769 230.089 94.5088C231.774 92.9355 234.475 93.3179 235.652 95.2995C236.455 96.6513 238.044 97.3224 239.568 96.9662C241.812 96.4411 243.962 98.1291 243.994 100.428C244.012 101.997 245.052 103.375 246.555 103.831C248.756 104.497 249.778 107.034 248.656 109.047C247.889 110.418 248.101 112.129 249.169 113.275C250.742 114.96 250.36 117.661 248.378 118.838C247.027 119.64 246.355 121.23 246.712 122.754C247.237 124.998 245.549 127.148 243.25 127.18C241.681 127.198 240.303 128.238 239.847 129.741C239.18 131.942 236.644 132.964 234.63 131.842C233.26 131.075 231.549 131.287 230.403 132.355C228.718 133.928 226.017 133.546 224.84 131.564C224.037 130.213 222.448 129.541 220.924 129.898C218.68 130.423 216.53 128.735 216.498 126.436C216.48 124.867 215.44 123.489 213.937 123.033C211.736 122.366 210.714 119.83 211.836 117.816C212.603 116.446 212.391 114.735 211.323 113.589C209.75 111.904 210.132 109.203 212.113 108.026C213.465 107.223 214.136 105.634 213.78 104.11C213.255 101.866 214.943 99.7157 217.242 99.6839C218.811 99.6657 220.189 98.6258 220.645 97.1233C221.311 94.9219 223.848 93.9 225.861 95.0218Z" fill="#FDEB56"/>
<path d="M224.288 130.87L223.217 142.322C223.17 142.826 223.733 143.152 224.148 142.864L229.075 139.386C229.31 139.215 229.642 139.249 229.839 139.457L234.038 143.784C234.39 144.15 235.007 143.931 235.054 143.427L236.096 132.298" fill="#FDEB56"/>
<path d="M239.108 131.085L247.574 138.384C247.957 138.715 248.553 138.444 248.553 137.936L248.58 131.907C248.585 131.618 248.794 131.366 249.081 131.326L255.044 130.418C255.542 130.338 255.722 129.712 255.339 129.382L246.629 121.87" fill="#FDEB56"/>
<path d="M224.288 130.87L223.217 142.322C223.17 142.826 223.733 143.152 224.148 142.864L229.075 139.386C229.31 139.215 229.642 139.249 229.839 139.457L234.038 143.784C234.39 144.15 235.007 143.931 235.054 143.427L236.096 132.298M239.108 131.085L247.574 138.384C247.957 138.715 248.553 138.444 248.553 137.936L248.58 131.907C248.585 131.618 248.794 131.366 249.081 131.327L255.044 130.418C255.542 130.338 255.722 129.712 255.339 129.382L246.629 121.87M225.861 95.0218C227.232 95.7887 228.943 95.5769 230.089 94.5088C231.774 92.9355 234.475 93.3179 235.652 95.2995C236.455 96.6513 238.044 97.3224 239.568 96.9662C241.812 96.4411 243.962 98.1291 243.994 100.428C244.012 101.997 245.052 103.375 246.555 103.831C248.756 104.497 249.778 107.034 248.656 109.047C247.889 110.418 248.101 112.129 249.169 113.275C250.742 114.96 250.36 117.661 248.378 118.838C247.027 119.64 246.355 121.23 246.712 122.754C247.237 124.998 245.549 127.148 243.25 127.18C241.681 127.198 240.303 128.238 239.847 129.741C239.18 131.942 236.644 132.964 234.63 131.842C233.26 131.075 231.549 131.287 230.403 132.355C228.718 133.928 226.017 133.546 224.84 131.564C224.037 130.213 222.448 129.541 220.924 129.898C218.68 130.423 216.53 128.735 216.498 126.436C216.48 124.867 215.44 123.489 213.937 123.033C211.736 122.366 210.714 119.83 211.836 117.816C212.603 116.446 212.391 114.735 211.323 113.589C209.75 111.904 210.132 109.203 212.113 108.026C213.465 107.223 214.136 105.634 213.78 104.11C213.255 101.866 214.943 99.7157 217.242 99.6839C218.811 99.6657 220.189 98.6258 220.645 97.1233C221.311 94.9219 223.848 93.9 225.861 95.0218Z" stroke="#FDEB56" stroke-width="5.14583" stroke-miterlimit="10"/>
<g filter="url(#filter6_d_3691_3529)">
<path d="M225.861 95.0217C227.232 95.7886 228.943 95.5768 230.089 94.5087C231.774 92.9354 234.475 93.3178 235.652 95.2993C236.455 96.6512 238.044 97.3223 239.568 96.9661C241.812 96.441 243.962 98.129 243.994 100.428C244.012 101.997 245.052 103.375 246.555 103.83C248.756 104.497 249.778 107.034 248.656 109.047C247.889 110.417 248.101 112.128 249.169 113.275C250.742 114.96 250.36 117.661 248.378 118.838C247.027 119.64 246.355 121.23 246.712 122.753C247.237 124.998 245.549 127.148 243.25 127.18C241.681 127.198 240.303 128.238 239.847 129.74C239.18 131.942 236.644 132.964 234.63 131.842C233.26 131.075 231.549 131.287 230.403 132.355C228.718 133.928 226.017 133.546 224.84 131.564C224.037 130.212 222.448 129.541 220.924 129.898C218.68 130.423 216.53 128.735 216.498 126.436C216.48 124.867 215.44 123.489 213.937 123.033C211.736 122.366 210.714 119.83 211.836 117.816C212.603 116.446 212.391 114.735 211.323 113.589C209.75 111.903 210.132 109.203 212.113 108.026C213.465 107.223 214.136 105.634 213.78 104.11C213.255 101.866 214.943 99.7155 217.242 99.6838C218.811 99.6656 220.189 98.6257 220.645 97.1232C221.311 94.9218 223.848 93.8999 225.861 95.0217Z" fill="#FDEB56"/>
<path d="M225.861 95.0217C227.232 95.7886 228.943 95.5768 230.089 94.5087C231.774 92.9354 234.475 93.3178 235.652 95.2993C236.455 96.6512 238.044 97.3223 239.568 96.9661C241.812 96.441 243.962 98.129 243.994 100.428C244.012 101.997 245.052 103.375 246.555 103.83C248.756 104.497 249.778 107.034 248.656 109.047C247.889 110.417 248.101 112.128 249.169 113.275C250.742 114.96 250.36 117.661 248.378 118.838C247.027 119.64 246.355 121.23 246.712 122.753C247.237 124.998 245.549 127.148 243.25 127.18C241.681 127.198 240.303 128.238 239.847 129.74C239.18 131.942 236.644 132.964 234.63 131.842C233.26 131.075 231.549 131.287 230.403 132.355C228.718 133.928 226.017 133.546 224.84 131.564C224.037 130.212 222.448 129.541 220.924 129.898C218.68 130.423 216.53 128.735 216.498 126.436C216.48 124.867 215.44 123.489 213.937 123.033C211.736 122.366 210.714 119.83 211.836 117.816C212.603 116.446 212.391 114.735 211.323 113.589C209.75 111.903 210.132 109.203 212.113 108.026C213.465 107.223 214.136 105.634 213.78 104.11C213.255 101.866 214.943 99.7155 217.242 99.6838C218.811 99.6656 220.189 98.6257 220.645 97.1232C221.311 94.9218 223.848 93.8999 225.861 95.0217Z" stroke="#FDEB56" stroke-width="5.14583" stroke-miterlimit="10"/>
</g>
<path d="M233.006 119.242L240.196 120.712C240.809 120.842 241.257 120.134 240.871 119.631L236.412 113.806C236.249 113.591 236.228 113.297 236.36 113.061L239.976 106.677C240.285 106.132 239.749 105.497 239.162 105.7L232.244 108.143C231.989 108.234 231.7 108.157 231.513 107.962L226.562 102.55C226.138 102.085 225.368 102.395 225.384 103.025L225.568 110.358C225.568 110.627 225.422 110.88 225.166 110.994L218.486 114.029C217.913 114.293 217.977 115.119 218.577 115.298L225.609 117.392C225.867 117.471 226.055 117.697 226.087 117.964L226.911 125.255C226.978 125.875 227.792 126.075 228.147 125.566L232.31 119.522C232.468 119.297 232.737 119.189 233.006 119.242Z" fill="#140718" stroke="#140718" stroke-width="1.1875" stroke-miterlimit="10"/>
</g>
<g clip-path="url(#clip4_3691_3529)" filter="url(#filter7_f_3691_3529)">
<path d="M1179.12 -25.0575C1180.46 -24.2276 1182.18 -24.3594 1183.37 -25.3729C1185.13 -26.866 1187.81 -26.3582 1188.89 -24.324C1189.63 -22.9362 1191.19 -22.1918 1192.72 -22.4766C1194.99 -22.8966 1197.06 -21.1102 1196.99 -18.8123C1196.93 -17.244 1197.9 -15.8196 1199.38 -15.2942C1201.55 -14.5254 1202.45 -11.9438 1201.24 -9.98505C1200.41 -8.65222 1200.54 -6.93319 1201.56 -5.73842C1203.05 -3.98145 1202.54 -1.30146 1200.51 -0.217866C1199.12 0.520557 1198.37 2.07672 1198.66 3.61564C1199.08 5.88187 1197.29 7.95129 1195 7.87587C1193.43 7.82093 1192 8.79557 1191.48 10.2752C1190.71 12.4431 1188.13 13.3457 1186.17 12.1314C1184.84 11.3015 1183.12 11.4333 1181.92 12.4468C1180.16 13.9399 1177.48 13.4321 1176.4 11.3979C1175.66 10.0101 1174.11 9.2657 1172.57 9.55053C1170.3 9.97047 1168.23 8.18411 1168.31 5.88619C1168.36 4.31786 1167.39 2.89351 1165.91 2.36813C1163.74 1.59933 1162.84 -0.982265 1164.05 -2.94105C1164.88 -4.27389 1164.75 -5.99292 1163.74 -7.18768C1162.24 -8.94465 1162.75 -11.6246 1164.79 -12.7082C1166.17 -13.4467 1166.92 -15.0028 1166.63 -16.5417C1166.21 -18.808 1168 -20.8774 1170.3 -20.802C1171.87 -20.747 1173.29 -21.7217 1173.82 -23.2013C1174.58 -25.3692 1177.17 -26.2718 1179.12 -25.0575Z" fill="#FDEB56"/>
<path d="M1175.88 10.6782L1174.28 22.0679C1174.21 22.5692 1174.76 22.9214 1175.18 22.6528L1180.27 19.408C1180.51 19.2488 1180.84 19.2973 1181.03 19.5147L1185.02 24.0323C1185.35 24.4143 1185.98 24.2251 1186.05 23.7238L1187.61 12.6549" fill="#FDEB56"/>
<path d="M1190.68 11.5832L1198.79 19.2691C1199.16 19.6173 1199.77 19.3749 1199.79 18.8676L1200.1 12.8465C1200.12 12.5572 1200.34 12.316 1200.63 12.2896L1206.63 11.6596C1207.13 11.6033 1207.34 10.9866 1206.97 10.6384L1198.62 2.72919" fill="#FDEB56"/>
<path d="M1175.88 10.6782L1174.28 22.0679C1174.21 22.5692 1174.76 22.9214 1175.18 22.6528L1180.27 19.408C1180.51 19.2488 1180.84 19.2973 1181.03 19.5147L1185.02 24.0323C1185.35 24.4143 1185.98 24.2251 1186.05 23.7238L1187.61 12.6549M1190.68 11.5832L1198.79 19.2691C1199.16 19.6173 1199.77 19.3749 1199.79 18.8676L1200.1 12.8465C1200.12 12.5572 1200.34 12.316 1200.63 12.2896L1206.63 11.6596C1207.13 11.6033 1207.34 10.9866 1206.97 10.6384L1198.62 2.72919M1179.12 -25.0575C1180.46 -24.2276 1182.18 -24.3594 1183.37 -25.3729C1185.13 -26.866 1187.81 -26.3582 1188.89 -24.324C1189.63 -22.9362 1191.19 -22.1918 1192.72 -22.4766C1194.99 -22.8966 1197.06 -21.1102 1196.99 -18.8123C1196.93 -17.244 1197.9 -15.8196 1199.38 -15.2942C1201.55 -14.5254 1202.45 -11.9438 1201.24 -9.98505C1200.41 -8.65222 1200.54 -6.93319 1201.56 -5.73842C1203.05 -3.98145 1202.54 -1.30146 1200.51 -0.217865C1199.12 0.520558 1198.37 2.07672 1198.66 3.61564C1199.08 5.88187 1197.29 7.95129 1195 7.87587C1193.43 7.82093 1192 8.79557 1191.48 10.2752C1190.71 12.4431 1188.13 13.3457 1186.17 12.1314C1184.84 11.3015 1183.12 11.4333 1181.92 12.4468C1180.16 13.9399 1177.48 13.4321 1176.4 11.3979C1175.66 10.0101 1174.11 9.2657 1172.57 9.55053C1170.3 9.97047 1168.23 8.18412 1168.31 5.88619C1168.36 4.31786 1167.39 2.89351 1165.91 2.36813C1163.74 1.59932 1162.84 -0.982266 1164.05 -2.94105C1164.88 -4.27389 1164.75 -5.99292 1163.74 -7.18768C1162.24 -8.94465 1162.75 -11.6246 1164.79 -12.7082C1166.17 -13.4467 1166.92 -15.0028 1166.63 -16.5417C1166.21 -18.808 1168 -20.8774 1170.3 -20.802C1171.87 -20.747 1173.29 -21.7217 1173.82 -23.2013C1174.58 -25.3692 1177.17 -26.2718 1179.12 -25.0575Z" stroke="#FDEB56" stroke-width="5.14583" stroke-miterlimit="10"/>
<g filter="url(#filter8_d_3691_3529)">
<path d="M1179.12 -25.0577C1180.46 -24.2278 1182.18 -24.3596 1183.37 -25.3731C1185.13 -26.8662 1187.81 -26.3584 1188.89 -24.3242C1189.63 -22.9364 1191.19 -22.192 1192.72 -22.4768C1194.99 -22.8968 1197.06 -21.1104 1196.98 -18.8125C1196.93 -17.2442 1197.9 -15.8198 1199.38 -15.2944C1201.55 -14.5256 1202.45 -11.944 1201.24 -9.98524C1200.41 -8.6524 1200.54 -6.93338 1201.56 -5.73861C1203.05 -3.98164 1202.54 -1.30165 1200.51 -0.218049C1199.12 0.520374 1198.37 2.07653 1198.66 3.61545C1199.08 5.88169 1197.29 7.9511 1194.99 7.87568C1193.43 7.82074 1192 8.79538 1191.48 10.275C1190.71 12.4429 1188.13 13.3455 1186.17 12.1312C1184.83 11.3013 1183.12 11.4331 1181.92 12.4466C1180.16 13.9397 1177.48 13.4319 1176.4 11.3977C1175.66 10.0099 1174.11 9.26552 1172.57 9.55034C1170.3 9.97029 1168.23 8.18393 1168.31 5.88601C1168.36 4.31768 1167.39 2.89333 1165.91 2.36795C1163.74 1.59914 1162.84 -0.98245 1164.05 -2.94124C1164.88 -4.27408 1164.75 -5.9931 1163.74 -7.18787C1162.24 -8.94484 1162.75 -11.6248 1164.78 -12.7084C1166.17 -13.4469 1166.92 -15.003 1166.63 -16.5419C1166.21 -18.8082 1168 -20.8776 1170.3 -20.8022C1171.86 -20.7472 1173.29 -21.7219 1173.81 -23.2014C1174.58 -25.3694 1177.16 -26.272 1179.12 -25.0577Z" fill="#FDEB56"/>
<path d="M1179.12 -25.0577C1180.46 -24.2278 1182.18 -24.3596 1183.37 -25.3731C1185.13 -26.8662 1187.81 -26.3584 1188.89 -24.3242C1189.63 -22.9364 1191.19 -22.192 1192.72 -22.4768C1194.99 -22.8968 1197.06 -21.1104 1196.98 -18.8125C1196.93 -17.2442 1197.9 -15.8198 1199.38 -15.2944C1201.55 -14.5256 1202.45 -11.944 1201.24 -9.98524C1200.41 -8.6524 1200.54 -6.93338 1201.56 -5.73861C1203.05 -3.98164 1202.54 -1.30165 1200.51 -0.218049C1199.12 0.520374 1198.37 2.07653 1198.66 3.61545C1199.08 5.88169 1197.29 7.9511 1194.99 7.87568C1193.43 7.82074 1192 8.79538 1191.48 10.275C1190.71 12.4429 1188.13 13.3455 1186.17 12.1312C1184.83 11.3013 1183.12 11.4331 1181.92 12.4466C1180.16 13.9397 1177.48 13.4319 1176.4 11.3977C1175.66 10.0099 1174.11 9.26552 1172.57 9.55034C1170.3 9.97029 1168.23 8.18393 1168.31 5.88601C1168.36 4.31768 1167.39 2.89333 1165.91 2.36795C1163.74 1.59914 1162.84 -0.98245 1164.05 -2.94124C1164.88 -4.27408 1164.75 -5.9931 1163.74 -7.18787C1162.24 -8.94484 1162.75 -11.6248 1164.78 -12.7084C1166.17 -13.4469 1166.92 -15.003 1166.63 -16.5419C1166.21 -18.8082 1168 -20.8776 1170.3 -20.8022C1171.86 -20.7472 1173.29 -21.7219 1173.81 -23.2014C1174.58 -25.3694 1177.16 -26.272 1179.12 -25.0577Z" stroke="#FDEB56" stroke-width="5.14583" stroke-miterlimit="10"/>
</g>
<path d="M1185.13 -0.530903L1192.25 1.2724C1192.85 1.43117 1193.33 0.744189 1192.97 0.22446L1188.79 -5.80267C1188.64 -6.02501 1188.63 -6.31903 1188.77 -6.54882L1192.68 -12.7573C1193.01 -13.2872 1192.51 -13.9471 1191.91 -13.7708L1184.89 -11.6537C1184.63 -11.574 1184.34 -11.6647 1184.17 -11.8677L1179.47 -17.5047C1179.07 -17.9891 1178.29 -17.7151 1178.27 -17.0856L1178.12 -9.75213C1178.1 -9.48313 1177.95 -9.2373 1177.68 -9.13545L1170.87 -6.41415C1170.29 -6.17791 1170.31 -5.34964 1170.9 -5.14321L1177.83 -2.72361C1178.08 -2.63245 1178.26 -2.39783 1178.28 -2.12929L1178.76 5.19161C1178.8 5.81411 1179.6 6.05224 1179.98 5.55966L1184.42 -0.28337C1184.59 -0.500881 1184.87 -0.596593 1185.13 -0.530903Z" fill="#140718" stroke="#140718" stroke-width="1.1875" stroke-miterlimit="10"/>
</g>
<g clip-path="url(#clip5_3691_3529)" filter="url(#filter9_f_3691_3529)">
<path d="M1122.95 126.769C1123.67 128.166 1125.21 128.937 1126.76 128.682C1129.03 128.305 1131.07 130.119 1130.95 132.421C1130.87 133.991 1131.82 135.429 1133.29 135.977C1135.45 136.782 1136.31 139.378 1135.06 141.31C1134.21 142.627 1134.31 144.35 1135.31 145.561C1136.77 147.335 1136.22 150.014 1134.17 151.069C1132.77 151.785 1132 153.327 1132.26 154.873C1132.63 157.148 1130.82 159.185 1128.52 159.069C1126.95 158.988 1125.51 159.94 1124.96 161.406C1124.16 163.566 1121.56 164.422 1119.63 163.176C1118.31 162.322 1116.59 162.426 1115.38 163.424C1113.6 164.888 1110.93 164.335 1109.87 162.286C1109.15 160.889 1107.61 160.118 1106.07 160.373C1103.79 160.75 1101.75 158.936 1101.87 156.634C1101.95 155.065 1101 153.626 1099.53 153.079C1097.37 152.274 1096.52 149.677 1097.76 147.745C1098.62 146.428 1098.51 144.706 1097.51 143.494C1096.05 141.72 1096.6 139.042 1098.65 137.986C1100.05 137.27 1100.82 135.728 1100.57 134.182C1100.19 131.907 1102 129.87 1104.3 129.987C1105.87 130.067 1107.31 129.115 1107.86 127.649C1108.67 125.489 1111.26 124.633 1113.19 125.879C1114.51 126.733 1116.23 126.63 1117.45 125.631C1119.22 124.167 1121.9 124.72 1122.95 126.769Z" fill="#FDEB56"/>
<path d="M1101.8 155.751L1094.56 164.694C1094.25 165.088 1094.53 165.672 1095.04 165.661L1101.07 165.493C1101.36 165.481 1101.62 165.692 1101.66 165.975L1102.77 171.903C1102.86 172.402 1103.49 172.562 1103.81 172.168L1110.84 163.477" fill="#FDEB56"/>
<path d="M1114.02 164.134L1117.03 174.9C1117.16 175.387 1117.81 175.492 1118.09 175.069L1121.45 170.064C1121.61 169.825 1121.93 169.732 1122.19 169.857L1127.66 172.402C1128.12 172.611 1128.61 172.19 1128.48 171.702L1125.38 160.625" fill="#FDEB56"/>
<path d="M1101.8 155.751L1094.56 164.694C1094.25 165.088 1094.53 165.672 1095.04 165.661L1101.07 165.493C1101.36 165.481 1101.62 165.692 1101.66 165.975L1102.77 171.903C1102.86 172.402 1103.49 172.562 1103.81 172.168L1110.84 163.477M1114.02 164.134L1117.03 174.9C1117.16 175.387 1117.81 175.492 1118.09 175.069L1121.45 170.064C1121.61 169.825 1121.93 169.732 1122.19 169.857L1127.66 172.402C1128.12 172.611 1128.61 172.19 1128.48 171.702L1125.38 160.625M1122.95 126.769C1123.67 128.166 1125.21 128.937 1126.76 128.682C1129.03 128.305 1131.07 130.119 1130.95 132.421C1130.87 133.991 1131.82 135.429 1133.29 135.977C1135.45 136.782 1136.31 139.378 1135.06 141.31C1134.21 142.627 1134.31 144.35 1135.31 145.561C1136.77 147.335 1136.22 150.014 1134.17 151.069C1132.77 151.785 1132 153.327 1132.26 154.873C1132.63 157.148 1130.82 159.185 1128.52 159.069C1126.95 158.988 1125.51 159.94 1124.96 161.406C1124.16 163.566 1121.56 164.422 1119.63 163.176C1118.31 162.322 1116.59 162.426 1115.38 163.424C1113.6 164.888 1110.93 164.335 1109.87 162.286C1109.15 160.889 1107.61 160.118 1106.07 160.373C1103.79 160.75 1101.75 158.936 1101.87 156.634C1101.95 155.065 1101 153.626 1099.53 153.079C1097.37 152.274 1096.52 149.677 1097.76 147.745C1098.62 146.428 1098.51 144.706 1097.51 143.494C1096.05 141.72 1096.6 139.042 1098.65 137.986C1100.05 137.27 1100.82 135.728 1100.57 134.182C1100.19 131.907 1102 129.87 1104.3 129.987C1105.87 130.067 1107.31 129.115 1107.86 127.649C1108.67 125.489 1111.26 124.633 1113.19 125.879C1114.51 126.733 1116.23 126.63 1117.45 125.631C1119.22 124.167 1121.9 124.72 1122.95 126.769Z" stroke="#FDEB56" stroke-width="5.14583" stroke-miterlimit="10"/>
<g filter="url(#filter10_d_3691_3529)">
<path d="M1122.95 126.769C1123.67 128.166 1125.21 128.937 1126.76 128.682C1129.03 128.305 1131.07 130.119 1130.95 132.421C1130.87 133.991 1131.82 135.429 1133.29 135.976C1135.45 136.782 1136.31 139.378 1135.06 141.31C1134.21 142.627 1134.31 144.349 1135.31 145.561C1136.77 147.335 1136.22 150.013 1134.17 151.069C1132.77 151.785 1132 153.327 1132.26 154.873C1132.63 157.148 1130.82 159.185 1128.52 159.068C1126.95 158.988 1125.51 159.94 1124.96 161.406C1124.16 163.566 1121.56 164.422 1119.63 163.176C1118.31 162.322 1116.59 162.426 1115.38 163.424C1113.6 164.888 1110.93 164.335 1109.87 162.286C1109.15 160.889 1107.61 160.118 1106.07 160.373C1103.79 160.75 1101.75 158.936 1101.87 156.634C1101.95 155.064 1101 153.626 1099.53 153.079C1097.37 152.273 1096.52 149.677 1097.76 147.745C1098.62 146.428 1098.51 144.706 1097.51 143.494C1096.05 141.72 1096.6 139.042 1098.65 137.986C1100.05 137.27 1100.82 135.728 1100.57 134.182C1100.19 131.907 1102 129.87 1104.3 129.987C1105.87 130.067 1107.31 129.115 1107.86 127.649C1108.67 125.489 1111.26 124.633 1113.19 125.879C1114.51 126.733 1116.23 126.629 1117.45 125.631C1119.22 124.167 1121.9 124.72 1122.95 126.769Z" fill="#FDEB56"/>
<path d="M1122.95 126.769C1123.67 128.166 1125.21 128.937 1126.76 128.682C1129.03 128.305 1131.07 130.119 1130.95 132.421C1130.87 133.991 1131.82 135.429 1133.29 135.976C1135.45 136.782 1136.31 139.378 1135.06 141.31C1134.21 142.627 1134.31 144.349 1135.31 145.561C1136.77 147.335 1136.22 150.013 1134.17 151.069C1132.77 151.785 1132 153.327 1132.26 154.873C1132.63 157.148 1130.82 159.185 1128.52 159.068C1126.95 158.988 1125.51 159.94 1124.96 161.406C1124.16 163.566 1121.56 164.422 1119.63 163.176C1118.31 162.322 1116.59 162.426 1115.38 163.424C1113.6 164.888 1110.93 164.335 1109.87 162.286C1109.15 160.889 1107.61 160.118 1106.07 160.373C1103.79 160.75 1101.75 158.936 1101.87 156.634C1101.95 155.064 1101 153.626 1099.53 153.079C1097.37 152.273 1096.52 149.677 1097.76 147.745C1098.62 146.428 1098.51 144.706 1097.51 143.494C1096.05 141.72 1096.6 139.042 1098.65 137.986C1100.05 137.27 1100.82 135.728 1100.57 134.182C1100.19 131.907 1102 129.87 1104.3 129.987C1105.87 130.067 1107.31 129.115 1107.86 127.649C1108.67 125.489 1111.26 124.633 1113.19 125.879C1114.51 126.733 1116.23 126.629 1117.45 125.631C1119.22 124.167 1121.9 124.72 1122.95 126.769Z" stroke="#FDEB56" stroke-width="5.14583" stroke-miterlimit="10"/>
</g>
<path d="M1115.49 150.894L1120.67 156.099C1121.11 156.547 1121.87 156.204 1121.83 155.573L1121.34 148.252C1121.32 147.983 1121.47 147.727 1121.71 147.603L1128.25 144.289C1128.81 144.007 1128.72 143.18 1128.12 143.025L1121 141.229C1120.74 141.164 1120.54 140.939 1120.5 140.674L1119.37 133.426C1119.27 132.804 1118.46 132.636 1118.12 133.169L1114.22 139.377C1114.07 139.602 1113.81 139.731 1113.53 139.685L1106.29 138.514C1105.66 138.416 1105.26 139.139 1105.66 139.621L1110.36 145.258C1110.53 145.467 1110.56 145.759 1110.44 146L1107.09 152.527C1106.8 153.08 1107.37 153.697 1107.95 153.47L1114.76 150.742C1115.01 150.642 1115.3 150.7 1115.49 150.894Z" fill="#140718" stroke="#140718" stroke-width="1.1875" stroke-miterlimit="10"/>
</g>
<g clip-path="url(#clip6_3691_3529)" filter="url(#filter11_f_3691_3529)">
<path d="M11.0501 144.866C11.7665 146.263 13.3086 147.034 14.8545 146.779C17.1291 146.402 19.1665 148.216 19.0497 150.518C18.9694 152.088 19.9212 153.526 21.3875 154.073C23.5471 154.879 24.4033 157.475 23.157 159.407C22.3033 160.724 22.4068 162.446 23.4056 163.658C24.8696 165.432 24.3161 168.11 22.2674 169.166C20.8702 169.882 20.0993 171.424 20.3541 172.97C20.7312 175.245 18.9174 177.282 16.6156 177.165C15.0456 177.085 13.607 178.037 13.0599 179.503C12.2547 181.663 9.65841 182.519 7.72639 181.273C6.40957 180.419 4.68678 180.522 3.47533 181.521C1.70111 182.985 -0.977129 182.432 -2.03262 180.383C-2.74895 178.986 -4.29105 178.215 -5.83693 178.47C-8.11161 178.847 -10.1489 177.033 -10.0322 174.731C-9.95186 173.161 -10.9037 171.723 -12.37 171.176C-14.5296 170.37 -15.3858 167.774 -14.1394 165.842C-13.2858 164.525 -13.3893 162.802 -14.388 161.591C-15.852 159.817 -15.2986 157.139 -13.2498 156.083C-11.8527 155.367 -11.0817 153.825 -11.3366 152.279C-11.7136 150.004 -9.89991 147.967 -7.59805 148.083C-6.0281 148.164 -4.58945 147.212 -4.04235 145.746C-3.23712 143.586 -0.640884 142.73 1.29114 143.976C2.60796 144.83 4.33075 144.726 5.5422 143.728C7.31642 142.264 9.99466 142.817 11.0501 144.866Z" fill="#FDEB56"/>
<path d="M-10.1068 173.847L-17.3393 182.791C-17.6575 183.185 -17.3689 183.768 -16.8642 183.758L-10.835 183.59C-10.5454 183.578 -10.2875 183.789 -10.2383 184.072L-9.13727 189.999C-9.0467 190.499 -8.4121 190.659 -8.09384 190.265L-1.06434 181.574" fill="#FDEB56"/>
<path d="M2.11536 182.231L5.1241 192.997C5.26025 193.484 5.90624 193.589 6.18746 193.166L9.54786 188.16C9.71208 187.922 10.0257 187.828 10.2868 187.954L15.7555 190.499C16.2147 190.708 16.711 190.287 16.5748 189.799L13.4798 178.721" fill="#FDEB56"/>
<path d="M-10.1068 173.847L-17.3393 182.791C-17.6575 183.185 -17.3689 183.768 -16.8642 183.758L-10.835 183.59C-10.5454 183.578 -10.2875 183.789 -10.2383 184.072L-9.13727 189.999C-9.0467 190.499 -8.4121 190.659 -8.09384 190.265L-1.06434 181.574M2.11536 182.231L5.12411 192.997C5.26025 193.484 5.90624 193.589 6.18746 193.166L9.54786 188.16C9.71208 187.922 10.0257 187.828 10.2868 187.954L15.7555 190.499C16.2147 190.708 16.711 190.287 16.5748 189.799L13.4798 178.721M11.0501 144.866C11.7665 146.263 13.3086 147.034 14.8545 146.779C17.1291 146.402 19.1665 148.216 19.0497 150.518C18.9694 152.088 19.9212 153.526 21.3875 154.073C23.5471 154.879 24.4033 157.475 23.157 159.407C22.3033 160.724 22.4068 162.446 23.4056 163.658C24.8696 165.432 24.3161 168.11 22.2674 169.166C20.8702 169.882 20.0993 171.424 20.3541 172.97C20.7312 175.245 18.9174 177.282 16.6156 177.165C15.0456 177.085 13.607 178.037 13.0599 179.503C12.2547 181.663 9.65841 182.519 7.7264 181.273C6.40957 180.419 4.68678 180.522 3.47533 181.521C1.70111 182.985 -0.977129 182.432 -2.03262 180.383C-2.74895 178.986 -4.29105 178.215 -5.83693 178.47C-8.11161 178.847 -10.1489 177.033 -10.0322 174.731C-9.95186 173.161 -10.9037 171.723 -12.37 171.176C-14.5296 170.37 -15.3858 167.774 -14.1394 165.842C-13.2858 164.525 -13.3893 162.802 -14.388 161.591C-15.852 159.817 -15.2986 157.139 -13.2498 156.083C-11.8527 155.367 -11.0817 153.825 -11.3366 152.279C-11.7136 150.004 -9.89991 147.967 -7.59805 148.083C-6.0281 148.164 -4.58945 147.212 -4.04235 145.746C-3.23712 143.586 -0.640884 142.73 1.29114 143.976C2.60796 144.83 4.33075 144.726 5.5422 143.728C7.31642 142.264 9.99466 142.817 11.0501 144.866Z" stroke="#FDEB56" stroke-width="5.14583" stroke-miterlimit="10"/>
<g filter="url(#filter12_d_3691_3529)">
<path d="M11.0501 144.866C11.7665 146.263 13.3086 147.034 14.8545 146.779C17.1291 146.402 19.1665 148.216 19.0497 150.517C18.9694 152.087 19.9212 153.526 21.3875 154.073C23.5471 154.878 24.4033 157.475 23.157 159.407C22.3033 160.724 22.4068 162.446 23.4056 163.658C24.8696 165.432 24.3161 168.11 22.2674 169.166C20.8702 169.882 20.0993 171.424 20.3541 172.97C20.7312 175.245 18.9174 177.282 16.6156 177.165C15.0456 177.085 13.607 178.037 13.0599 179.503C12.2547 181.663 9.65842 182.519 7.7264 181.273C6.40957 180.419 4.68678 180.522 3.47533 181.521C1.70111 182.985 -0.977129 182.432 -2.03262 180.383C-2.74895 178.986 -4.29104 178.215 -5.83693 178.47C-8.11161 178.847 -10.1489 177.033 -10.0322 174.731C-9.95186 173.161 -10.9037 171.723 -12.37 171.175C-14.5296 170.37 -15.3858 167.774 -14.1394 165.842C-13.2858 164.525 -13.3893 162.802 -14.388 161.591C-15.852 159.817 -15.2986 157.138 -13.2498 156.083C-11.8527 155.367 -11.0817 153.825 -11.3366 152.279C-11.7136 150.004 -9.89991 147.967 -7.59805 148.083C-6.0281 148.164 -4.58945 147.212 -4.04235 145.746C-3.23712 143.586 -0.640883 142.73 1.29114 143.976C2.60796 144.83 4.33075 144.726 5.5422 143.727C7.31642 142.264 9.99466 142.817 11.0501 144.866Z" fill="#FDEB56"/>
<path d="M11.0501 144.866C11.7665 146.263 13.3086 147.034 14.8545 146.779C17.1291 146.402 19.1665 148.216 19.0497 150.517C18.9694 152.087 19.9212 153.526 21.3875 154.073C23.5471 154.878 24.4033 157.475 23.157 159.407C22.3033 160.724 22.4068 162.446 23.4056 163.658C24.8696 165.432 24.3161 168.11 22.2674 169.166C20.8702 169.882 20.0993 171.424 20.3541 172.97C20.7312 175.245 18.9174 177.282 16.6156 177.165C15.0456 177.085 13.607 178.037 13.0599 179.503C12.2547 181.663 9.65842 182.519 7.7264 181.273C6.40957 180.419 4.68678 180.522 3.47533 181.521C1.70111 182.985 -0.977129 182.432 -2.03262 180.383C-2.74895 178.986 -4.29104 178.215 -5.83693 178.47C-8.11161 178.847 -10.1489 177.033 -10.0322 174.731C-9.95186 173.161 -10.9037 171.723 -12.37 171.175C-14.5296 170.37 -15.3858 167.774 -14.1394 165.842C-13.2858 164.525 -13.3893 162.802 -14.388 161.591C-15.852 159.817 -15.2986 157.138 -13.2498 156.083C-11.8527 155.367 -11.0817 153.825 -11.3366 152.279C-11.7136 150.004 -9.89991 147.967 -7.59805 148.083C-6.0281 148.164 -4.58945 147.212 -4.04235 145.746C-3.23712 143.586 -0.640883 142.73 1.29114 143.976C2.60796 144.83 4.33075 144.726 5.5422 143.727C7.31642 142.264 9.99466 142.817 11.0501 144.866Z" stroke="#FDEB56" stroke-width="5.14583" stroke-miterlimit="10"/>
</g>
<path d="M3.5905 168.991L8.76438 174.195C9.2028 174.643 9.96791 174.301 9.92488 173.669L9.4362 166.349C9.42027 166.08 9.56507 165.824 9.80514 165.7L16.3514 162.386C16.9102 162.103 16.8154 161.277 16.2143 161.122L9.10057 159.325C8.83817 159.261 8.63956 159.036 8.59222 158.771L7.46568 151.523C7.36963 150.901 6.55678 150.733 6.22192 151.266L2.3147 157.474C2.16617 157.698 1.9045 157.828 1.62826 157.781L-5.61501 156.611C-6.23806 156.513 -6.64277 157.236 -6.24182 157.717L-1.54532 163.355C-1.37407 163.564 -1.3426 163.856 -1.46377 164.096L-4.81407 170.624C-5.10199 171.177 -4.53521 171.794 -3.95715 171.567L2.856 168.839C3.1116 168.738 3.39561 168.797 3.5905 168.991Z" fill="#140718" stroke="#140718" stroke-width="1.1875" stroke-miterlimit="10"/>
</g>
</g>
<rect x="0.5" y="0.5" width="1379" height="163" rx="11.5" stroke="url(#paint1_linear_3691_3529)" stroke-opacity="0.1"/>
<defs>
<filter id="filter0_f_3691_3529" x="-4" y="111" width="1388" height="58" filterUnits="userSpaceOnUse" color-interpolation-filters="sRGB">
<feFlood flood-opacity="0" result="BackgroundImageFix"/>
<feBlend mode="normal" in="SourceGraphic" in2="BackgroundImageFix" result="shape"/>
<feGaussianBlur stdDeviation="2" result="effect1_foregroundBlur_3691_3529"/>
</filter>
<filter id="filter1_f_3691_3529" x="27" y="-60" width="139.178" height="139.178" filterUnits="userSpaceOnUse" color-interpolation-filters="sRGB">
<feFlood flood-opacity="0" result="BackgroundImageFix"/>
<feBlend mode="normal" in="SourceGraphic" in2="BackgroundImageFix" result="shape"/>
<feGaussianBlur stdDeviation="6" result="effect1_foregroundBlur_3691_3529"/>
</filter>
<filter id="filter2_d_3691_3529" x="57.0965" y="-35.4981" width="82.9578" height="82.9578" filterUnits="userSpaceOnUse" color-interpolation-filters="sRGB">
<feFlood flood-opacity="0" result="BackgroundImageFix"/>
<feColorMatrix in="SourceAlpha" type="matrix" values="0 0 0 0 0 0 0 0 0 0 0 0 0 0 0 0 0 0 127 0" result="hardAlpha"/>
<feOffset dy="3.95833"/>
<feGaussianBlur stdDeviation="3.95833"/>
<feComposite in2="hardAlpha" operator="out"/>
<feColorMatrix type="matrix" values="0 0 0 0 0.0784314 0 0 0 0 0.027451 0 0 0 0 0.0941176 0 0 0 0.3 0"/>
<feBlend mode="normal" in2="BackgroundImageFix" result="effect1_dropShadow_3691_3529"/>
<feBlend mode="normal" in="SourceGraphic" in2="effect1_dropShadow_3691_3529" result="shape"/>
</filter>
<filter id="filter3_f_3691_3529" x="1306" y="5" width="148.351" height="148.351" filterUnits="userSpaceOnUse" color-interpolation-filters="sRGB">
<feFlood flood-opacity="0" result="BackgroundImageFix"/>
<feBlend mode="normal" in="SourceGraphic" in2="BackgroundImageFix" result="shape"/>
<feGaussianBlur stdDeviation="8" result="effect1_foregroundBlur_3691_3529"/>
</filter>
<filter id="filter4_d_3691_3529" x="1340.92" y="34.2353" width="82.7342" height="82.7341" filterUnits="userSpaceOnUse" color-interpolation-filters="sRGB">
<feFlood flood-opacity="0" result="BackgroundImageFix"/>
<feColorMatrix in="SourceAlpha" type="matrix" values="0 0 0 0 0 0 0 0 0 0 0 0 0 0 0 0 0 0 127 0" result="hardAlpha"/>
<feOffset dy="3.95833"/>
<feGaussianBlur stdDeviation="3.95833"/>
<feComposite in2="hardAlpha" operator="out"/>
<feColorMatrix type="matrix" values="0 0 0 0 0.0784314 0 0 0 0 0.027451 0 0 0 0 0.0941176 0 0 0 0.3 0"/>
<feBlend mode="normal" in2="BackgroundImageFix" result="effect1_dropShadow_3691_3529"/>
<feBlend mode="normal" in="SourceGraphic" in2="effect1_dropShadow_3691_3529" result="shape"/>
</filter>
<filter id="filter5_f_3691_3529" x="189" y="75" width="86.0732" height="86.0734" filterUnits="userSpaceOnUse" color-interpolation-filters="sRGB">
<feFlood flood-opacity="0" result="BackgroundImageFix"/>
<feBlend mode="normal" in="SourceGraphic" in2="BackgroundImageFix" result="shape"/>
<feGaussianBlur stdDeviation="2" result="effect1_foregroundBlur_3691_3529"/>
</filter>
<filter id="filter6_d_3691_3529" x="199.859" y="87.0035" width="60.7733" height="60.7733" filterUnits="userSpaceOnUse" color-interpolation-filters="sRGB">
<feFlood flood-opacity="0" result="BackgroundImageFix"/>
<feColorMatrix in="SourceAlpha" type="matrix" values="0 0 0 0 0 0 0 0 0 0 0 0 0 0 0 0 0 0 127 0" result="hardAlpha"/>
<feOffset dy="3.95833"/>
<feGaussianBlur stdDeviation="3.95833"/>
<feComposite in2="hardAlpha" operator="out"/>
<feColorMatrix type="matrix" values="0 0 0 0 0.0784314 0 0 0 0 0.027451 0 0 0 0 0.0941176 0 0 0 0.3 0"/>
<feBlend mode="normal" in2="BackgroundImageFix" result="effect1_dropShadow_3691_3529"/>
<feBlend mode="normal" in="SourceGraphic" in2="effect1_dropShadow_3691_3529" result="shape"/>
</filter>
<filter id="filter7_f_3691_3529" x="1143" y="-43" width="82.4404" height="82.4402" filterUnits="userSpaceOnUse" color-interpolation-filters="sRGB">
<feFlood flood-opacity="0" result="BackgroundImageFix"/>
<feBlend mode="normal" in="SourceGraphic" in2="BackgroundImageFix" result="shape"/>
<feGaussianBlur stdDeviation="1.5" result="effect1_foregroundBlur_3691_3529"/>
</filter>
<filter id="filter8_d_3691_3529" x="1152.38" y="-32.7667" width="60.5233" height="60.5236" filterUnits="userSpaceOnUse" color-interpolation-filters="sRGB">
<feFlood flood-opacity="0" result="BackgroundImageFix"/>
<feColorMatrix in="SourceAlpha" type="matrix" values="0 0 0 0 0 0 0 0 0 0 0 0 0 0 0 0 0 0 127 0" result="hardAlpha"/>
<feOffset dy="3.95833"/>
<feGaussianBlur stdDeviation="3.95833"/>
<feComposite in2="hardAlpha" operator="out"/>
<feColorMatrix type="matrix" values="0 0 0 0 0.0784314 0 0 0 0 0.027451 0 0 0 0 0.0941176 0 0 0 0.3 0"/>
<feBlend mode="normal" in2="BackgroundImageFix" result="effect1_dropShadow_3691_3529"/>
<feBlend mode="normal" in="SourceGraphic" in2="effect1_dropShadow_3691_3529" result="shape"/>
</filter>
<filter id="filter9_f_3691_3529" x="1069.9" y="103.903" width="90.9009" height="90.9009" filterUnits="userSpaceOnUse" color-interpolation-filters="sRGB">
<feFlood flood-opacity="0" result="BackgroundImageFix"/>
<feBlend mode="normal" in="SourceGraphic" in2="BackgroundImageFix" result="shape"/>
<feGaussianBlur stdDeviation="5" result="effect1_foregroundBlur_3691_3529"/>
</filter>
<filter id="filter10_d_3691_3529" x="1086.2" y="118.275" width="60.4212" height="60.4216" filterUnits="userSpaceOnUse" color-interpolation-filters="sRGB">
<feFlood flood-opacity="0" result="BackgroundImageFix"/>
<feColorMatrix in="SourceAlpha" type="matrix" values="0 0 0 0 0 0 0 0 0 0 0 0 0 0 0 0 0 0 127 0" result="hardAlpha"/>
<feOffset dy="3.95833"/>
<feGaussianBlur stdDeviation="3.95833"/>
<feComposite in2="hardAlpha" operator="out"/>
<feColorMatrix type="matrix" values="0 0 0 0 0.0784314 0 0 0 0 0.027451 0 0 0 0 0.0941176 0 0 0 0.3 0"/>
<feBlend mode="normal" in2="BackgroundImageFix" result="effect1_dropShadow_3691_3529"/>
<feBlend mode="normal" in="SourceGraphic" in2="effect1_dropShadow_3691_3529" result="shape"/>
</filter>
<filter id="filter11_f_3691_3529" x="-42" y="122" width="90.9009" height="90.9009" filterUnits="userSpaceOnUse" color-interpolation-filters="sRGB">
<feFlood flood-opacity="0" result="BackgroundImageFix"/>
<feBlend mode="normal" in="SourceGraphic" in2="BackgroundImageFix" result="shape"/>
<feGaussianBlur stdDeviation="5" result="effect1_foregroundBlur_3691_3529"/>
</filter>
<filter id="filter12_d_3691_3529" x="-25.7018" y="136.372" width="60.4212" height="60.4216" filterUnits="userSpaceOnUse" color-interpolation-filters="sRGB">
<feFlood flood-opacity="0" result="BackgroundImageFix"/>
<feColorMatrix in="SourceAlpha" type="matrix" values="0 0 0 0 0 0 0 0 0 0 0 0 0 0 0 0 0 0 127 0" result="hardAlpha"/>
<feOffset dy="3.95833"/>
<feGaussianBlur stdDeviation="3.95833"/>
<feComposite in2="hardAlpha" operator="out"/>
<feColorMatrix type="matrix" values="0 0 0 0 0.0784314 0 0 0 0 0.027451 0 0 0 0 0.0941176 0 0 0 0.3 0"/>
<feBlend mode="normal" in2="BackgroundImageFix" result="effect1_dropShadow_3691_3529"/>
<feBlend mode="normal" in="SourceGraphic" in2="effect1_dropShadow_3691_3529" result="shape"/>
</filter>
<linearGradient id="paint0_linear_3691_3529" x1="690" y1="165" x2="690" y2="115" gradientUnits="userSpaceOnUse">
<stop stop-color="#FDEB56"/>
<stop offset="1" stop-color="#FDEB56" stop-opacity="0"/>
</linearGradient>
<linearGradient id="paint1_linear_3691_3529" x1="690" y1="0" x2="690" y2="164" gradientUnits="userSpaceOnUse">
<stop stop-color="white"/>
<stop offset="1" stop-color="white" stop-opacity="0"/>
</linearGradient>
<clipPath id="clip0_3691_3529">
<rect width="1380" height="164" rx="12" fill="white"/>
</clipPath>
<clipPath id="clip1_3691_3529">
<rect width="95" height="95" fill="white" transform="translate(62.0059 -48) rotate(14.0145)"/>
</clipPath>
<clipPath id="clip2_3691_3529">
<rect width="95" height="95" fill="white" transform="translate(1346.59 21) rotate(15)"/>
</clipPath>
<clipPath id="clip3_3691_3529">
<rect width="60" height="60" fill="white" transform="translate(193 101.419) rotate(-21.9413)"/>
</clipPath>
<clipPath id="clip4_3691_3529">
<rect width="60" height="60" fill="white" transform="translate(1146 -20.1979) rotate(-19.2709)"/>
</clipPath>
<clipPath id="clip5_3691_3529">
<rect width="60" height="60" fill="white" transform="translate(1092.05 113.903) rotate(11.6758)"/>
</clipPath>
<clipPath id="clip6_3691_3529">
<rect width="60" height="60" fill="white" transform="translate(-19.8574 132) rotate(11.6758)"/>
</clipPath>
</defs>
</svg>
