<svg width="320" height="320" viewBox="0 0 320 320" fill="none" xmlns="http://www.w3.org/2000/svg">
<circle cx="160" cy="160" r="158.5" fill="#1E0707" stroke="url(#paint0_linear_3317_69458)" stroke-width="3"/>
<path fill-rule="evenodd" clip-rule="evenodd" d="M159.644 24.1332C186.494 24.1331 212.741 32.095 235.066 47.012C257.391 61.9289 274.791 83.131 285.066 107.937C295.341 132.743 298.029 160.039 292.791 186.373C287.553 212.707 274.623 236.896 255.638 255.882C236.652 274.867 212.463 287.797 186.129 293.035C159.795 298.273 132.499 295.585 107.693 285.31C82.8871 275.035 61.6851 257.635 46.7682 235.31C31.8512 212.985 23.8892 186.738 23.8892 159.888C23.8891 142.061 27.4005 124.408 34.2228 107.937C41.0451 91.4665 51.0447 76.5009 63.6507 63.8949C76.2567 51.2889 91.2223 41.2892 107.693 34.4669C124.163 27.6445 141.817 24.1331 159.644 24.1332Z" fill="#312020"/>
<path d="M159.644 25.6332C186.197 25.6331 212.154 33.507 234.232 48.2592C256.311 63.0113 273.518 83.9791 283.68 108.511C293.841 133.043 296.5 160.037 291.32 186.08C286.14 212.123 273.353 236.045 254.577 254.821C235.801 273.597 211.879 286.383 185.836 291.564C159.793 296.744 132.799 294.085 108.267 283.924C83.7352 273.762 62.7675 256.555 48.0154 234.476C33.2632 212.398 25.3892 186.441 25.3892 159.888C25.3891 142.258 28.8617 124.8 35.6087 108.511C42.3556 92.2225 52.2446 77.4223 64.7114 64.9556C77.1781 52.4888 91.9783 42.5996 108.267 35.8527C124.555 29.1057 142.014 25.6331 159.644 25.6332Z" stroke="white" stroke-opacity="0.05" stroke-width="3"/>
<path style="mix-blend-mode:screen" fill-rule="evenodd" clip-rule="evenodd" d="M62.7091 62.9534C76.7039 48.929 93.5783 38.1122 112.165 31.2515C130.752 24.3907 150.607 21.6498 170.358 23.2182C150.545 21.3849 130.572 23.9383 111.858 30.6967C93.1435 37.4552 76.1477 48.2529 62.0782 62.3223C48.0087 76.3918 37.2109 93.3876 30.4524 112.102C23.6939 130.816 21.1405 150.789 22.9737 170.602C21.4054 150.852 24.1465 130.996 31.0072 112.409C37.868 93.8227 48.6847 76.9482 62.7091 62.9534Z" fill="url(#paint1_radial_3317_69458)"/>
<path style="mix-blend-mode:screen" fill-rule="evenodd" clip-rule="evenodd" d="M296.315 149.175C297.862 168.923 295.111 188.773 288.251 207.356C281.392 225.94 270.587 242.816 256.579 256.823C242.572 270.831 225.696 281.636 207.112 288.495C188.529 295.355 168.679 298.106 148.931 296.559C168.743 298.392 188.717 295.839 207.431 289.08C226.145 282.322 243.141 271.524 257.21 257.454C271.28 243.385 282.078 226.389 288.836 207.675C295.595 188.961 298.148 168.987 296.315 149.175Z" fill="url(#paint2_radial_3317_69458)"/>
<defs>
<linearGradient id="paint0_linear_3317_69458" x1="41.5" y1="63.5" x2="160" y2="320" gradientUnits="userSpaceOnUse">
<stop stop-color="white" stop-opacity="0.4"/>
<stop offset="1" stop-color="white" stop-opacity="0"/>
</linearGradient>
<radialGradient id="paint1_radial_3317_69458" cx="0" cy="0" r="1" gradientUnits="userSpaceOnUse" gradientTransform="translate(65.7391 52.4476) scale(136.664 136.664)">
<stop stop-color="#FFF696"/>
<stop offset="0.03977" stop-color="#F0E88D"/>
<stop offset="0.24904" stop-color="#A9A563"/>
<stop offset="0.44619" stop-color="#6C6D40"/>
<stop offset="0.62529" stop-color="#3E4224"/>
<stop offset="0.78294" stop-color="#1C2210"/>
<stop offset="0.91325" stop-color="#070F04"/>
<stop offset="1" stop-color="#000800"/>
</radialGradient>
<radialGradient id="paint2_radial_3317_69458" cx="0" cy="0" r="1" gradientUnits="userSpaceOnUse" gradientTransform="translate(285.199 291.614) scale(143.542 143.542)">
<stop stop-color="#FFF696"/>
<stop offset="0.03977" stop-color="#F0E88D"/>
<stop offset="0.24904" stop-color="#A9A563"/>
<stop offset="0.44619" stop-color="#6C6D40"/>
<stop offset="0.62529" stop-color="#3E4224"/>
<stop offset="0.78294" stop-color="#1C2210"/>
<stop offset="0.91325" stop-color="#070F04"/>
<stop offset="1" stop-color="#000800"/>
</radialGradient>
</defs>
</svg>
