<svg width="440" height="492" viewBox="0 0 440 492" fill="none" xmlns="http://www.w3.org/2000/svg">
<g clip-path="url(#clip0_3317_70098)">
<rect width="440" height="492" rx="16" fill="#200B26"/>
<path d="M224.201 164.813L488.977 197.276C493.011 181.912 495.304 166.142 495.811 150.265L224.201 164.813Z" fill="url(#paint0_radial_3317_70098)" fill-opacity="0.15"/>
<path d="M-9.86295 42.4789C-20.2346 55.4978 -29.3039 69.5035 -36.9404 84.2947L-36.5511 83.723L210.912 162.232L-9.86295 42.4789Z" fill="url(#paint1_radial_3317_70098)" fill-opacity="0.15"/>
<path d="M470.752 244.832L470.363 245.405L223.648 167.276L443.675 286.649C454.047 273.63 463.116 259.624 470.752 244.832Z" fill="url(#paint2_radial_3317_70098)" fill-opacity="0.15"/>
<path d="M501.995 233.46L501.998 233.451L502 233.444L501.995 233.46Z" fill="url(#paint3_radial_3317_70098)" fill-opacity="0.15"/>
<path d="M210.325 164.808L-55.1652 131.852C-59.1991 147.216 -61.4918 162.986 -62 178.863L210.325 164.808Z" fill="url(#paint4_radial_3317_70098)" fill-opacity="0.15"/>
<path d="M209.806 402.665L216.393 172.568L155.598 400.861C173.893 403.044 192.341 403.652 210.74 402.678H210.743L209.806 402.665Z" fill="url(#paint5_radial_3317_70098)" fill-opacity="0.15"/>
<path d="M316.444 379.252L220.044 172.1L266.306 394.963C283.712 391.031 300.776 385.713 317.334 379.06L317.336 379.059L316.444 379.252Z" fill="url(#paint6_radial_3317_70098)" fill-opacity="0.15"/>
<path d="M406.866 324.67L224.581 172L365.889 354.71C380.611 345.742 394.56 335.559 407.589 324.268L406.866 324.67Z" fill="url(#paint7_radial_3317_70098)" fill-opacity="0.15"/>
<path d="M-43.647 268.351L209.732 167.482L-57.5781 226.387L-57.8632 225.784C-54.7589 240.468 -49.9892 254.749 -43.647 268.351Z" fill="url(#paint8_radial_3317_70098)" fill-opacity="0.15"/>
<path d="M224.783 159.851L452.56 20.6506L453.182 21.124C443.683 8.95423 432.943 -2.19306 421.135 -12.1375L224.783 159.851Z" fill="url(#paint9_radial_3317_70098)" fill-opacity="0.15"/>
<path d="M117.367 -50.1262L215.106 157.595L167.506 -65.8351C150.1 -61.9028 133.036 -56.5847 116.478 -49.9316L117.367 -50.1262Z" fill="url(#paint10_radial_3317_70098)" fill-opacity="0.15"/>
<path d="M212.041 173.371L54.5438 369.525L53.7225 369.218L53.7241 369.219C68.5918 377.251 84.1841 383.862 100.293 388.963L212.041 173.371Z" fill="url(#paint11_radial_3317_70098)" fill-opacity="0.15"/>
<path d="M210.462 170.251L-18.7525 308.48L-19.3705 308.004C-9.87122 320.174 0.869377 331.321 12.6774 341.266L210.462 170.251Z" fill="url(#paint12_radial_3317_70098)" fill-opacity="0.15"/>
<path d="M224.005 -73.5402L218.756 157.133L278.214 -71.7322C259.919 -73.9159 241.471 -74.5241 223.072 -73.5502H223.07L224.005 -73.5402Z" fill="url(#paint13_radial_3317_70098)" fill-opacity="0.15"/>
<path d="M67.924 -25.5821C53.2009 -16.6137 39.2522 -6.43095 26.2235 4.86002L26.9461 4.45773L212.336 159.621L67.924 -25.5821Z" fill="url(#paint14_radial_3317_70098)" fill-opacity="0.15"/>
<path d="M491.384 102.742L491.675 103.344C488.57 88.6607 483.801 74.3795 477.459 60.7779L225.521 162.625L491.384 102.742Z" fill="url(#paint15_radial_3317_70098)" fill-opacity="0.15"/>
<path d="M222.36 157.769L379.266 -40.394L380.088 -40.0905C365.22 -48.1224 349.629 -54.7333 333.52 -59.8339L222.36 157.769Z" fill="url(#paint16_radial_3317_70098)" fill-opacity="0.15"/>
<circle cx="220.5" cy="160.5" r="108.5" fill="url(#paint17_radial_3317_70098)"/>
</g>
<rect x="0.5" y="0.5" width="439" height="491" rx="15.5" stroke="#3D2644"/>
<defs>
<radialGradient id="paint0_radial_3317_70098" cx="0" cy="0" r="1" gradientUnits="userSpaceOnUse" gradientTransform="translate(220 164.564) rotate(90) scale(238.564 282)">
<stop stop-color="white" stop-opacity="0.5"/>
<stop offset="0.907665" stop-color="white" stop-opacity="0"/>
</radialGradient>
<radialGradient id="paint1_radial_3317_70098" cx="0" cy="0" r="1" gradientUnits="userSpaceOnUse" gradientTransform="translate(220 164.564) rotate(90) scale(238.564 282)">
<stop stop-color="white" stop-opacity="0.5"/>
<stop offset="0.907665" stop-color="white" stop-opacity="0"/>
</radialGradient>
<radialGradient id="paint2_radial_3317_70098" cx="0" cy="0" r="1" gradientUnits="userSpaceOnUse" gradientTransform="translate(220 164.564) rotate(90) scale(238.564 282)">
<stop stop-color="white" stop-opacity="0.5"/>
<stop offset="0.907665" stop-color="white" stop-opacity="0"/>
</radialGradient>
<radialGradient id="paint3_radial_3317_70098" cx="0" cy="0" r="1" gradientUnits="userSpaceOnUse" gradientTransform="translate(220 164.564) rotate(90) scale(238.564 282)">
<stop stop-color="white" stop-opacity="0.5"/>
<stop offset="0.907665" stop-color="white" stop-opacity="0"/>
</radialGradient>
<radialGradient id="paint4_radial_3317_70098" cx="0" cy="0" r="1" gradientUnits="userSpaceOnUse" gradientTransform="translate(220 164.564) rotate(90) scale(238.564 282)">
<stop stop-color="white" stop-opacity="0.5"/>
<stop offset="0.907665" stop-color="white" stop-opacity="0"/>
</radialGradient>
<radialGradient id="paint5_radial_3317_70098" cx="0" cy="0" r="1" gradientUnits="userSpaceOnUse" gradientTransform="translate(220 164.564) rotate(90) scale(238.564 282)">
<stop stop-color="white" stop-opacity="0.5"/>
<stop offset="0.907665" stop-color="white" stop-opacity="0"/>
</radialGradient>
<radialGradient id="paint6_radial_3317_70098" cx="0" cy="0" r="1" gradientUnits="userSpaceOnUse" gradientTransform="translate(220 164.564) rotate(90) scale(238.564 282)">
<stop stop-color="white" stop-opacity="0.5"/>
<stop offset="0.907665" stop-color="white" stop-opacity="0"/>
</radialGradient>
<radialGradient id="paint7_radial_3317_70098" cx="0" cy="0" r="1" gradientUnits="userSpaceOnUse" gradientTransform="translate(220 164.564) rotate(90) scale(238.564 282)">
<stop stop-color="white" stop-opacity="0.5"/>
<stop offset="0.907665" stop-color="white" stop-opacity="0"/>
</radialGradient>
<radialGradient id="paint8_radial_3317_70098" cx="0" cy="0" r="1" gradientUnits="userSpaceOnUse" gradientTransform="translate(220 164.564) rotate(90) scale(238.564 282)">
<stop stop-color="white" stop-opacity="0.5"/>
<stop offset="0.907665" stop-color="white" stop-opacity="0"/>
</radialGradient>
<radialGradient id="paint9_radial_3317_70098" cx="0" cy="0" r="1" gradientUnits="userSpaceOnUse" gradientTransform="translate(220 164.564) rotate(90) scale(238.564 282)">
<stop stop-color="white" stop-opacity="0.5"/>
<stop offset="0.907665" stop-color="white" stop-opacity="0"/>
</radialGradient>
<radialGradient id="paint10_radial_3317_70098" cx="0" cy="0" r="1" gradientUnits="userSpaceOnUse" gradientTransform="translate(220 164.564) rotate(90) scale(238.564 282)">
<stop stop-color="white" stop-opacity="0.5"/>
<stop offset="0.907665" stop-color="white" stop-opacity="0"/>
</radialGradient>
<radialGradient id="paint11_radial_3317_70098" cx="0" cy="0" r="1" gradientUnits="userSpaceOnUse" gradientTransform="translate(220 164.564) rotate(90) scale(238.564 282)">
<stop stop-color="white" stop-opacity="0.5"/>
<stop offset="0.907665" stop-color="white" stop-opacity="0"/>
</radialGradient>
<radialGradient id="paint12_radial_3317_70098" cx="0" cy="0" r="1" gradientUnits="userSpaceOnUse" gradientTransform="translate(220 164.564) rotate(90) scale(238.564 282)">
<stop stop-color="white" stop-opacity="0.5"/>
<stop offset="0.907665" stop-color="white" stop-opacity="0"/>
</radialGradient>
<radialGradient id="paint13_radial_3317_70098" cx="0" cy="0" r="1" gradientUnits="userSpaceOnUse" gradientTransform="translate(220 164.564) rotate(90) scale(238.564 282)">
<stop stop-color="white" stop-opacity="0.5"/>
<stop offset="0.907665" stop-color="white" stop-opacity="0"/>
</radialGradient>
<radialGradient id="paint14_radial_3317_70098" cx="0" cy="0" r="1" gradientUnits="userSpaceOnUse" gradientTransform="translate(220 164.564) rotate(90) scale(238.564 282)">
<stop stop-color="white" stop-opacity="0.5"/>
<stop offset="0.907665" stop-color="white" stop-opacity="0"/>
</radialGradient>
<radialGradient id="paint15_radial_3317_70098" cx="0" cy="0" r="1" gradientUnits="userSpaceOnUse" gradientTransform="translate(220 164.564) rotate(90) scale(238.564 282)">
<stop stop-color="white" stop-opacity="0.5"/>
<stop offset="0.907665" stop-color="white" stop-opacity="0"/>
</radialGradient>
<radialGradient id="paint16_radial_3317_70098" cx="0" cy="0" r="1" gradientUnits="userSpaceOnUse" gradientTransform="translate(220 164.564) rotate(90) scale(238.564 282)">
<stop stop-color="white" stop-opacity="0.5"/>
<stop offset="0.907665" stop-color="white" stop-opacity="0"/>
</radialGradient>
<radialGradient id="paint17_radial_3317_70098" cx="0" cy="0" r="1" gradientUnits="userSpaceOnUse" gradientTransform="translate(220.5 160.5) rotate(90) scale(108.5)">
<stop offset="0.33" stop-color="#200B26"/>
<stop offset="0.925" stop-color="#200B26" stop-opacity="0"/>
</radialGradient>
<clipPath id="clip0_3317_70098">
<rect width="440" height="492" rx="16" fill="white"/>
</clipPath>
</defs>
</svg>
