<svg width="90" height="90" viewBox="0 0 90 90" fill="none" xmlns="http://www.w3.org/2000/svg">
<rect width="90" height="90" rx="45" fill="#8EC9ED" fill-opacity="0.2"/>
<path fill-rule="evenodd" clip-rule="evenodd" d="M67.7562 35.4473C67.4934 35.8393 67.0832 36.1186 66.6102 36.2191C64.8601 36.5911 63.7341 38.2712 64.0906 39.9484C64.4495 41.637 66.1435 42.7105 67.8809 42.3604C68.8596 42.162 69.8304 42.6472 70.032 43.5961L71.2846 49.4891C72.339 54.4493 69.0554 59.3519 63.9471 60.4377L56.2373 62.0765C55.4403 62.2459 54.6613 61.7559 54.4968 60.9817L53.442 56.0191C53.2369 55.0542 52.2953 54.4619 51.302 54.673C50.3323 54.8791 49.6894 55.8082 49.8945 56.7732L50.9493 61.7357C51.1139 62.5099 50.6016 63.2744 49.807 63.4433L33.5337 66.9023C28.449 67.9831 23.4321 64.8472 22.3773 59.8847L21.1247 53.9917C20.923 53.0428 21.6124 52.2047 22.5872 51.9879C24.3192 51.6005 25.4277 49.9314 25.0688 48.2427C24.7221 46.6115 23.0867 45.6624 21.2893 46.0445C20.8163 46.145 20.3279 46.0567 19.9284 45.8055C19.529 45.5542 19.247 45.1579 19.1493 44.6984L17.8845 38.748C16.8317 33.7946 20.142 28.8551 25.2409 27.7713L41.4905 24.3174C42.2851 24.1485 43.0641 24.6385 43.2286 25.4127L44.4788 31.2942C44.679 32.2362 45.6491 32.8464 46.6188 32.6403C47.6121 32.4292 48.2265 31.4821 48.0262 30.5402L46.7761 24.6587C46.6115 23.8844 47.1238 23.12 47.9208 22.9506L55.6306 21.3118C60.7389 20.226 65.7322 23.3669 66.787 28.3294L68.0176 34.119C68.1153 34.5785 68.0189 35.0553 67.7562 35.4473ZM50.3541 50.216C51.3474 50.0049 51.9618 49.0578 51.7616 48.1159L49.8082 38.926C49.608 37.984 48.6615 37.3688 47.6682 37.5799C46.6986 37.786 46.0606 38.7381 46.2608 39.68L48.2142 48.8699C48.4144 49.8119 49.3845 50.4221 50.3541 50.216Z" fill="#8EC9ED"/>
</svg>
