<svg width="74" height="74" viewBox="0 0 74 74" fill="none" xmlns="http://www.w3.org/2000/svg">
<path fill-rule="evenodd" clip-rule="evenodd" d="M37 0C44.3179 1.7913e-05 51.4716 2.17006 57.5562 6.23568C63.6408 10.3013 68.383 16.0799 71.1835 22.8407C73.9839 29.6016 74.7166 37.0411 73.2889 44.2183C71.8613 51.3956 68.3374 57.9884 63.1629 63.1629C57.9883 68.3375 51.3957 71.8614 44.2184 73.289C37.0411 74.7167 29.6016 73.9839 22.8408 71.1835C16.0799 68.3831 10.3014 63.6408 6.23573 57.5562C2.17012 51.4715 1.7913e-05 44.318 0 37.0001C1.92164e-05 27.1871 3.89811 17.7759 10.837 10.8371C17.7758 3.89822 27.187 1.92164e-05 37 0Z" fill="#140718"/>
<path style="mix-blend-mode:screen" fill-rule="evenodd" clip-rule="evenodd" d="M13.8071 13.9779C15.2331 12.5502 16.7843 11.2533 18.4419 10.1026C23.292 6.73733 28.9462 4.71559 34.8305 4.24255C39.3238 3.87535 43.8453 4.41166 48.128 5.8199C45.6074 4.91958 42.9909 4.3143 40.331 4.01613C38.5051 3.81139 36.6656 3.75417 34.8305 3.84509C30.6887 4.04458 26.6209 5.01824 22.8377 6.71564C15.6015 9.97774 9.80721 15.7722 6.54511 23.0084C4.84767 26.7917 3.87391 30.8596 3.67434 35.0014C3.58357 36.8364 3.64078 38.6758 3.84549 40.5016C4.14325 43.1615 4.74845 45.778 5.64892 48.2985C3.69075 42.3842 3.41677 36.0417 4.85754 29.9805C6.29831 23.9193 9.39698 18.3784 13.8071 13.9779Z" fill="url(#paint0_radial_4019_18335)"/>
<path style="mix-blend-mode:screen" fill-rule="evenodd" clip-rule="evenodd" d="M64.4063 56.0667C62.0986 59.3872 59.2167 62.269 55.8962 64.5768C51.046 67.9418 45.3918 69.9635 39.5076 70.4367C35.0143 70.8038 30.4929 70.2676 26.2101 68.8595C28.7307 69.7599 31.3471 70.3651 34.0071 70.6631C35.833 70.8679 37.6725 70.9251 39.5076 70.8343C43.6494 70.6348 47.7172 69.6612 51.5004 67.9638C58.7366 64.7017 64.5311 58.9072 67.7932 51.671C69.4906 47.8877 70.4642 43.8198 70.6638 39.6779C70.7545 37.8429 70.6973 36.0036 70.4926 34.1778C70.1946 31.5178 69.5893 28.9014 68.6887 26.3809C70.3248 31.3223 70.7896 36.5766 70.0464 41.7285C69.3032 46.8805 67.3723 51.7891 64.4063 56.0667Z" fill="url(#paint1_radial_4019_18335)"/>
<path d="M23.6548 42.288C22.2868 42.288 21.1468 42.006 20.2348 41.442C19.3228 40.866 18.7108 40.092 18.3988 39.12L21.4768 37.338C21.8968 38.406 22.6528 38.94 23.7448 38.94C24.5608 38.94 24.9688 38.724 24.9688 38.292C24.9688 38.172 24.9388 38.064 24.8788 37.968C24.8188 37.872 24.7048 37.788 24.5368 37.716C24.3688 37.644 24.2188 37.59 24.0868 37.554C23.9668 37.506 23.7508 37.44 23.4388 37.356C23.1268 37.272 22.8928 37.206 22.7368 37.158C20.2288 36.402 18.9748 35.052 18.9748 33.108C18.9748 31.956 19.3888 31.002 20.2168 30.246C21.0568 29.49 22.1548 29.112 23.5107 29.112C24.5788 29.112 25.5328 29.364 26.3728 29.868C27.2248 30.372 27.8488 31.098 28.2448 32.046L25.2568 33.792C24.9088 32.904 24.3328 32.46 23.5288 32.46C23.2168 32.46 22.9768 32.526 22.8088 32.658C22.6528 32.778 22.5748 32.934 22.5748 33.126C22.5748 33.39 22.7128 33.594 22.9888 33.738C23.2768 33.882 23.8228 34.068 24.6268 34.296C25.2268 34.476 25.7188 34.65 26.1028 34.818C26.4868 34.974 26.8888 35.202 27.3087 35.502C27.7288 35.79 28.0408 36.168 28.2448 36.636C28.4608 37.092 28.5688 37.632 28.5688 38.256C28.5688 39.54 28.1248 40.536 27.2368 41.244C26.3608 41.94 25.1668 42.288 23.6548 42.288ZM35.21 32.748C36.422 32.748 37.412 33.198 38.18 34.098C38.948 34.998 39.332 36.132 39.332 37.5C39.332 38.868 38.948 40.002 38.18 40.902C37.412 41.802 36.422 42.252 35.21 42.252C34.178 42.252 33.374 41.898 32.798 41.19V45.6H29.468V33H32.798V33.81C33.374 33.102 34.178 32.748 35.21 32.748ZM33.23 38.706C33.53 39.03 33.92 39.192 34.4 39.192C34.88 39.192 35.264 39.03 35.552 38.706C35.852 38.382 36.002 37.98 36.002 37.5C36.002 37.02 35.852 36.618 35.552 36.294C35.264 35.97 34.88 35.808 34.4 35.808C33.92 35.808 33.53 35.97 33.23 36.294C32.942 36.618 32.798 37.02 32.798 37.5C32.798 37.98 32.942 38.382 33.23 38.706ZM42.0581 32.316C41.5541 32.316 41.1161 32.136 40.7441 31.776C40.3841 31.404 40.2041 30.972 40.2041 30.48C40.2041 29.988 40.3841 29.562 40.7441 29.202C41.1161 28.83 41.5541 28.644 42.0581 28.644C42.5501 28.644 42.9761 28.83 43.3361 29.202C43.7081 29.562 43.8941 29.988 43.8941 30.48C43.8941 30.972 43.7081 31.404 43.3361 31.776C42.9761 32.136 42.5501 32.316 42.0581 32.316ZM40.3841 42V33H43.7141V42H40.3841ZM50.8897 32.748C51.8737 32.748 52.6597 33.09 53.2477 33.774C53.8477 34.446 54.1477 35.454 54.1477 36.798V42H50.8177V37.158C50.8177 36.354 50.4457 35.952 49.7017 35.952C49.3057 35.952 48.9997 36.078 48.7837 36.33C48.5797 36.582 48.4777 36.93 48.4777 37.374V42H45.1477V33H48.4777V33.882C49.0297 33.126 49.8337 32.748 50.8897 32.748Z" fill="#FDEB56"/>
<defs>
<radialGradient id="paint0_radial_4019_18335" cx="0" cy="0" r="1" gradientUnits="userSpaceOnUse" gradientTransform="translate(12.5289 -4.31775) scale(60.7138 60.7137)">
<stop stop-color="#FFF696"/>
<stop offset="0.03977" stop-color="#F0E88D"/>
<stop offset="0.24904" stop-color="#A9A563"/>
<stop offset="0.44619" stop-color="#6C6D40"/>
<stop offset="0.62529" stop-color="#3E4224"/>
<stop offset="0.78294" stop-color="#1C2210"/>
<stop offset="0.91325" stop-color="#070F04"/>
<stop offset="1" stop-color="#000800"/>
</radialGradient>
<radialGradient id="paint1_radial_4019_18335" cx="0" cy="0" r="1" gradientUnits="userSpaceOnUse" gradientTransform="translate(70.5975 76.7968) scale(57.9401 57.9402)">
<stop stop-color="#FFF696"/>
<stop offset="0.03977" stop-color="#F0E88D"/>
<stop offset="0.24904" stop-color="#A9A563"/>
<stop offset="0.44619" stop-color="#6C6D40"/>
<stop offset="0.62529" stop-color="#3E4224"/>
<stop offset="0.78294" stop-color="#1C2210"/>
<stop offset="0.91325" stop-color="#070F04"/>
<stop offset="1" stop-color="#000800"/>
</radialGradient>
</defs>
</svg>
