<svg width="70" height="70" viewBox="0 0 70 70" fill="none" xmlns="http://www.w3.org/2000/svg">
<rect width="70" height="70" rx="7" fill="#634B3B"/>
<rect x="0.4375" y="0.4375" width="69.125" height="69.125" rx="6.5625" stroke="url(#paint0_linear_3312_42080)" stroke-opacity="0.3" stroke-width="0.875"/>
<path d="M21.3489 47.9502C21.2369 48.1129 21.0521 48.2101 20.8546 48.2101H16.1826C15.6914 48.2101 15.4083 47.6521 15.6984 47.2558L24.3865 35.3843C24.4478 35.3006 24.4808 35.1996 24.4808 35.0959C24.4808 34.988 24.445 34.8831 24.3791 34.7977L18.8806 27.6692C18.5764 27.2748 18.8576 26.7028 19.3557 26.7028H24.0044C24.1937 26.7028 24.3719 26.7921 24.4852 26.9438L28.2732 32.0179C28.3331 32.0982 28.4274 32.1454 28.5275 32.1454C28.632 32.1454 28.7298 32.094 28.789 32.0078L35.4883 22.2602C35.6002 22.0973 35.7852 22 35.9828 22H40.6604C41.1505 22 41.4338 22.5558 41.146 22.9524L32.4747 34.9014C32.4141 34.9848 32.3814 35.0854 32.3814 35.1885C32.3814 35.297 32.4175 35.4024 32.484 35.4881L37.9517 42.5397C38.2573 42.9339 37.9764 43.5073 37.4775 43.5073H32.8347C32.6443 43.5073 32.4652 43.417 32.3521 43.2638L28.5887 38.168C28.529 38.0872 28.4346 38.0396 28.3341 38.0396C28.23 38.0396 28.1325 38.0908 28.0734 38.1766L21.3489 47.9502Z" fill="#FDEB56"/>
<path d="M43.914 42.9073C43.914 43.2387 43.6454 43.5073 43.314 43.5073H39.7987C39.4673 43.5073 39.1987 43.2387 39.1987 42.9073V27.3028C39.1987 26.9714 39.4673 26.7028 39.7987 26.7028H48.5039C52.4918 26.7028 55 28.9852 55 32.9731C55 36.9611 52.4918 39.2686 48.5039 39.2686H44.514C44.1826 39.2686 43.914 39.5372 43.914 39.8686V42.9073ZM47.9772 30.9415H44.514C44.1826 30.9415 43.914 31.2102 43.914 31.5415V34.4298C43.914 34.7612 44.1826 35.0298 44.514 35.0298H47.9772C49.6326 35.0298 50.3098 34.7037 50.3098 32.9731C50.3098 31.2676 49.6326 30.9415 47.9772 30.9415Z" fill="#FDEB56"/>
<defs>
<linearGradient id="paint0_linear_3312_42080" x1="35" y1="0" x2="35" y2="70" gradientUnits="userSpaceOnUse">
<stop stop-color="#FDEB56"/>
<stop offset="1" stop-color="#FDEB56" stop-opacity="0"/>
</linearGradient>
</defs>
</svg>
