<svg width="90" height="60" viewBox="0 0 90 60" fill="none" xmlns="http://www.w3.org/2000/svg">
<g id="XP">
<path d="M12.6209 58.8667C12.1328 59.5762 11.3268 60 10.4656 60H2.87349C0.731698 60 -0.502652 57.5671 0.762254 55.8387L19.2044 30.6393C19.3446 30.4478 19.4201 30.2165 19.4201 29.9791C19.4201 29.7321 19.3383 29.492 19.1874 29.2964L8.14434 14.9797C6.81764 13.2597 8.0437 10.7655 10.2159 10.7655H17.7065C18.532 10.7655 19.3091 11.1552 19.8029 11.8167L28.1018 22.933C28.2389 23.1167 28.4547 23.2249 28.6839 23.2249C28.9231 23.2249 29.147 23.1071 29.2826 22.9099L44.2482 1.1344C44.7362 0.424276 45.5426 0 46.4043 0H54.0211C56.1581 0 57.3936 2.42329 56.1385 4.15283L37.7197 29.5337C37.581 29.7248 37.5063 29.9549 37.5063 30.1911C37.5063 30.4394 37.5889 30.6807 37.741 30.8769L48.7036 45.0151C50.0365 46.7342 48.8113 49.2344 46.636 49.2344H39.171C38.3407 49.2344 37.5597 48.8403 37.0665 48.1725L28.8239 37.0117C28.6873 36.8268 28.4711 36.7177 28.2412 36.7177C28.0028 36.7177 27.7796 36.835 27.6444 37.0315L12.6209 58.8667Z" fill="#FDEB56"/>
<path d="M63.9065 46.6182C63.9065 48.0631 62.7352 49.2344 61.2903 49.2344H55.7285C54.2836 49.2344 53.1123 48.0631 53.1123 46.6182V13.3818C53.1123 11.9369 54.2836 10.7655 55.7285 10.7655H74.4137C83.5429 10.7655 89.2845 15.9904 89.2845 25.1196C89.2845 34.2488 83.5429 39.5311 74.4137 39.5311H66.5228C65.0779 39.5311 63.9065 40.7024 63.9065 42.1473V46.6182ZM73.208 20.4689H66.5228C65.0779 20.4689 63.9065 21.6402 63.9065 23.0851V27.2115C63.9065 28.6564 65.0779 29.8277 66.5228 29.8277H73.208C76.9974 29.8277 78.5477 29.0813 78.5477 25.1196C78.5477 21.2153 76.9974 20.4689 73.208 20.4689Z" fill="#FDEB56"/>
</g>
</svg>
