<svg width="18" height="19" viewBox="0 0 18 19" fill="none" xmlns="http://www.w3.org/2000/svg">
<g id="Iconly/Light/3 User">
<g id="3 User">
<path id="Stroke 1" d="M13.416 9.0058C14.4623 8.8588 15.2678 7.9618 15.27 6.87505C15.27 5.80405 14.4893 4.91605 13.4655 4.74805" stroke="white" stroke-opacity="0.7" stroke-linecap="round" stroke-linejoin="round"/>
<path id="Stroke 3" d="M14.7969 11.521C15.8101 11.6725 16.5174 12.0272 16.5174 12.7585C16.5174 13.2617 16.1844 13.5887 15.6459 13.7942" stroke="white" stroke-opacity="0.7" stroke-linecap="round" stroke-linejoin="round"/>
<path id="Stroke 5" fill-rule="evenodd" clip-rule="evenodd" d="M8.91554 11.8311C6.50504 11.8311 4.44629 12.1963 4.44629 13.6551C4.44629 15.1131 6.49229 15.4888 8.91554 15.4888C11.326 15.4888 13.384 15.1273 13.384 13.6678C13.384 12.2083 11.3388 11.8311 8.91554 11.8311Z" stroke="white" stroke-opacity="0.7" stroke-linecap="round" stroke-linejoin="round"/>
<path id="Stroke 7" fill-rule="evenodd" clip-rule="evenodd" d="M8.91505 9.74925C10.4968 9.74925 11.7793 8.4675 11.7793 6.885C11.7793 5.30325 10.4968 4.02075 8.91505 4.02075C7.3333 4.02075 6.0508 5.30325 6.0508 6.885C6.0448 8.4615 7.31755 9.744 8.89405 9.74925H8.91505Z" stroke="white" stroke-opacity="0.7" stroke-linecap="round" stroke-linejoin="round"/>
<path id="Stroke 9" d="M4.41357 9.0058C3.36657 8.8588 2.56182 7.9618 2.55957 6.87505C2.55957 5.80405 3.34032 4.91605 4.36407 4.74805" stroke="white" stroke-opacity="0.7" stroke-linecap="round" stroke-linejoin="round"/>
<path id="Stroke 11" d="M3.033 11.521C2.01975 11.6725 1.3125 12.0272 1.3125 12.7585C1.3125 13.2617 1.6455 13.5887 2.184 13.7942" stroke="white" stroke-opacity="0.7" stroke-linecap="round" stroke-linejoin="round"/>
</g>
</g>
</svg>
