<svg width="60" height="60" viewBox="0 0 60 60" fill="none" xmlns="http://www.w3.org/2000/svg">
<circle cx="30" cy="30" r="30" fill="#3D2644"/>
<g clip-path="url(#clip0_167_29089)">
<path fill-rule="evenodd" clip-rule="evenodd" d="M10 10H50V50H10V10Z" fill="white"/>
<path fill-rule="evenodd" clip-rule="evenodd" d="M13.146 43.1743H18.5696L19.9963 39.8911L25.5621 40.0341L27.1311 43.3158H32.5554L22.8511 16.3424L13.146 43.1743ZM21.4244 34.8973C21.4244 34.8973 22.5672 29.9006 22.7073 30.3297C22.8503 30.7574 23.9924 34.7521 23.9924 34.7521L21.4244 34.8973ZM35.9817 33.8975C35.9817 26.9035 43.6894 30.3305 43.6894 30.3305L46.8288 26.7612C44.1171 24.191 39.9778 24.3355 39.9778 24.3355C37.8375 24.3355 31.7002 25.0485 30.8434 34.4682C34.2704 49.4546 46.9719 41.463 46.9719 41.463L43.8317 37.8952C43.8317 37.8937 35.9817 40.8901 35.9817 33.8975Z" fill="black"/>
<path fill-rule="evenodd" clip-rule="evenodd" d="M102.777 22.9081L100.493 18.3397H75.3742L70.2367 31.9002L64.3848 18.1974H38.8373L36.1255 22.9081H47.6849V43.1743H53.1085V22.9081H60.5301L70.0937 47.1697L79.5134 22.9081H102.777Z" fill="black"/>
</g>
<defs>
<clipPath id="clip0_167_29089">
<rect x="10" y="10" width="40" height="40" rx="20" fill="white"/>
</clipPath>
</defs>
</svg>
