<svg width="48" height="48" viewBox="0 0 48 48" fill="none" xmlns="http://www.w3.org/2000/svg">
<g id="add_photo_alternate_FILL1_wght400_GRAD0_opsz48 1">
<path id="Vector" d="M36.4913 17.1C36.0638 17.1 35.7083 16.9563 35.425 16.6687C35.1417 16.3813 35 16.025 35 15.6V13.05H32.45C32.025 13.05 31.6688 12.9054 31.3813 12.6163C31.0938 12.3271 30.95 11.9687 30.95 11.5413C30.95 11.1138 31.0938 10.7583 31.3813 10.475C31.6688 10.1917 32.025 10.05 32.45 10.05H35V7.5C35 7.075 35.1446 6.71875 35.4338 6.43125C35.7229 6.14375 36.0813 6 36.5087 6C36.9363 6 37.2917 6.14375 37.575 6.43125C37.8583 6.71875 38 7.075 38 7.5V10.05H40.55C40.975 10.05 41.3312 10.1946 41.6188 10.4837C41.9062 10.7729 42.05 11.1313 42.05 11.5587C42.05 11.9862 41.9062 12.3417 41.6188 12.625C41.3312 12.9083 40.975 13.05 40.55 13.05H38V15.6C38 16.025 37.8554 16.3813 37.5663 16.6687C37.2771 16.9563 36.9187 17.1 36.4913 17.1ZM13.55 33.9H34.5C34.7833 33.9 34.9958 33.7667 35.1375 33.5C35.2792 33.2333 35.2667 32.9667 35.1 32.7L29.4 25.1C29.2333 24.9 29.0333 24.8 28.8 24.8C28.5667 24.8 28.3667 24.9 28.2 25.1L22.45 32.65L18.35 27.25C18.1833 27.05 17.9833 26.95 17.75 26.95C17.5167 26.95 17.3167 27.05 17.15 27.25L12.95 32.7C12.75 32.9667 12.725 33.2333 12.875 33.5C13.025 33.7667 13.25 33.9 13.55 33.9ZM9 42C8.175 42 7.46875 41.7062 6.88125 41.1188C6.29375 40.5312 6 39.825 6 39V9C6 8.175 6.29375 7.46875 6.88125 6.88125C7.46875 6.29375 8.175 6 9 6H27.95C28.375 6 28.7313 6.14375 29.0188 6.43125C29.3062 6.71875 29.45 7.075 29.45 7.5V13.05C29.45 13.475 29.5938 13.8313 29.8813 14.1188C30.1688 14.4062 30.525 14.55 30.95 14.55H33.5V17.1C33.5 17.525 33.6438 17.8813 33.9312 18.1687C34.2188 18.4563 34.575 18.6 35 18.6H40.5C40.925 18.6 41.2812 18.7438 41.5688 19.0312C41.8563 19.3188 42 19.675 42 20.1V39C42 39.825 41.7062 40.5312 41.1188 41.1188C40.5312 41.7062 39.825 42 39 42H9Z" fill="#FDEB56"/>
</g>
</svg>
