<svg width="18" height="18" viewBox="0 0 18 18" fill="none" xmlns="http://www.w3.org/2000/svg">
<path fill-rule="evenodd" clip-rule="evenodd" d="M2.44011 0.666748H15.5598C16.5396 0.666748 17.3333 1.48429 17.3333 2.49363V3.76988C17.3333 4.25952 17.142 4.72972 16.8022 5.07265L11.3813 10.5559C11.2878 10.6514 11.1608 10.7044 11.0296 10.7035L6.49074 10.6894C6.3526 10.6894 6.22132 10.6302 6.12694 10.5268L1.14539 5.0479C0.837368 4.70939 0.666626 4.26217 0.666626 3.79816V2.49451C0.666626 1.48518 1.46028 0.666748 2.44011 0.666748ZM6.73338 12.1869L10.7789 12.1992C11.0311 12.2001 11.2353 12.4114 11.2353 12.6703V14.9462C11.2353 15.206 11.0877 15.4411 10.8578 15.5498L7.18554 17.2742C7.09974 17.314 7.0088 17.3334 6.91785 17.3334C6.79687 17.3334 6.67589 17.2981 6.57036 17.2282C6.38589 17.1063 6.27435 16.8959 6.27435 16.6705V12.6579C6.27435 12.3972 6.48027 12.186 6.73338 12.1869Z" fill="#F71756"/>
</svg>
