<svg width="20" height="20" viewBox="0 0 20 20" fill="none" xmlns="http://www.w3.org/2000/svg">
<path fill-rule="evenodd" clip-rule="evenodd" d="M3.44011 1.66675H16.5598C17.5396 1.66675 18.3333 2.48429 18.3333 3.49363V4.76988C18.3333 5.25952 18.142 5.72972 17.8022 6.07265L12.3813 11.5559C12.2878 11.6514 12.1608 11.7044 12.0296 11.7035L7.49074 11.6894C7.3526 11.6894 7.22132 11.6302 7.12694 11.5268L2.14539 6.0479C1.83737 5.70939 1.66663 5.26217 1.66663 4.79816V3.49451C1.66663 2.48518 2.46028 1.66675 3.44011 1.66675ZM7.73338 13.1869L11.7789 13.1992C12.0311 13.2001 12.2353 13.4114 12.2353 13.6703V15.9462C12.2353 16.206 12.0877 16.4411 11.8578 16.5498L8.18554 18.2742C8.09974 18.314 8.0088 18.3334 7.91785 18.3334C7.79687 18.3334 7.67589 18.2981 7.57036 18.2282C7.38589 18.1063 7.27435 17.8959 7.27435 17.6705V13.6579C7.27435 13.3972 7.48027 13.186 7.73338 13.1869Z" fill="white"/>
</svg>
