<?xml version="1.0" encoding="UTF-8"?><svg id="Layer_1" xmlns="http://www.w3.org/2000/svg" viewBox="0 0 214 54"><defs><style>.cls-1,.cls-2,.cls-3{fill:#fccf15;stroke-width:0px;}.cls-2{fill-rule:evenodd;}.cls-3{opacity:.55;}</style></defs><path class="cls-3" d="m213.68,0l-27.39,42.52c-4.61,7.15-12.54,11.48-21.05,11.48H48.77c-8.51,0-16.44-4.33-21.05-11.48L.32,0h213.35Z"/><path class="cls-2" d="m144.67,13.04h24.67c1.84,0,3.33,1.54,3.33,3.44v2.4c0,.92-.36,1.8-1,2.45l-10.19,10.31c-.18.18-.41.28-.66.28l-8.53-.03c-.26,0-.51-.11-.68-.31l-9.37-10.3c-.58-.64-.9-1.48-.9-2.35v-2.45c0-1.9,1.49-3.44,3.33-3.44Zm8.07,21.66l7.61.02c.47,0,.86.4.86.89v4.28c0,.49-.28.93-.71,1.13l-6.9,3.24c-.16.07-.33.11-.5.11-.23,0-.46-.07-.65-.2-.35-.23-.56-.62-.56-1.05v-7.54c0-.49.39-.89.86-.89Z"/><path class="cls-1" d="m64.09,14.3h3.4v23.38h4.08v2.71h-7.48V14.3Z"/><path class="cls-1" d="m71.01,37.68h2.15c.83,0,1.7.04,2.62.13-1.63-1.2-2.44-3.26-2.44-6.18,0-2.59.8-4.73,2.4-6.41,1.66-1.75,3.85-2.62,6.56-2.62,2.51,0,4.47.66,5.89,1.97,1.57,1.47,2.35,3.67,2.35,6.61s-.96,5.23-2.87,6.63c1.25-.08,2.32-.13,3.22-.13h2.55v2.71h-22.42v-2.71Zm14.56-1.52c1.02-1.12,1.54-2.71,1.54-4.77,0-4.07-1.71-6.11-5.11-6.11-1.46,0-2.66.49-3.6,1.46-1.08,1.1-1.62,2.63-1.62,4.61,0,4.22,1.73,6.32,5.18,6.32,1.48,0,2.69-.51,3.61-1.52Zm-4.91-17.78c-.39-.39-.58-.86-.58-1.41s.19-1.05.58-1.45.86-.6,1.41-.6,1.05.19,1.45.58c.4.4.6.88.6,1.46s-.2,1.02-.6,1.41-.88.58-1.45.58-1.02-.19-1.41-.58Z"/><path class="cls-1" d="m92.87,37.68h5.19V14.3h3.4v26.09h-8.58v-2.71Z"/><path class="cls-1" d="m108.46,14.3h3.4v26.09h-3.4V14.3Z"/></svg>