<?xml version="1.0" encoding="UTF-8"?><svg id="Layer_1" xmlns="http://www.w3.org/2000/svg" viewBox="0 0 214 54"><defs><style>.cls-1,.cls-2,.cls-3{fill:#fccf15;stroke-width:0px;}.cls-2{fill-rule:evenodd;}.cls-3{opacity:.55;}</style></defs><path class="cls-3" d="m213.68,0l-27.39,42.52c-4.61,7.15-12.54,11.48-21.05,11.48H48.77c-8.51,0-16.44-4.33-21.05-11.48L.32,0h213.35Z"/><path class="cls-2" d="m50.67,13.04h24.67c1.84,0,3.33,1.54,3.33,3.44v2.4c0,.92-.36,1.8-1,2.45l-10.19,10.31c-.18.18-.41.28-.66.28l-8.53-.03c-.26,0-.51-.11-.68-.31l-9.37-10.3c-.58-.64-.9-1.48-.9-2.35v-2.45c0-1.9,1.49-3.44,3.33-3.44Zm8.07,21.66l7.61.02c.47,0,.86.4.86.89v4.28c0,.49-.28.93-.71,1.13l-6.9,3.24c-.16.07-.33.11-.5.11-.23,0-.46-.07-.65-.2-.35-.23-.56-.62-.56-1.05v-7.54c0-.49.39-.89.86-.89Z"/><path class="cls-1" d="m102.25,36.94l-1.88-5.17h-10.37l-1.88,5.17h-3.26l8.59-23.03h3.46l8.59,23.03h-3.26Zm-11.19-8.03h8.26l-4.15-11.35-4.11,11.35Zm16.87,8.03V12.92h2.86v24.02h-2.86Zm16.31-16.88c2.3,0,4.27.84,5.89,2.53,1.62,1.67,2.43,3.71,2.43,6.12s-.81,4.46-2.43,6.15c-1.62,1.67-3.59,2.5-5.89,2.5-2.72,0-4.79-1.09-6.22-3.26v9.41h-2.86v-23.03h2.86v2.83c1.43-2.17,3.5-3.26,6.22-3.26Zm-.36,14.54c1.65,0,3.03-.56,4.15-1.68,1.12-1.14,1.68-2.54,1.68-4.21s-.56-3.06-1.68-4.18c-1.12-1.14-2.5-1.71-4.15-1.71s-3.06.57-4.18,1.71c-1.12,1.12-1.68,2.51-1.68,4.18s.56,3.07,1.68,4.21c1.12,1.12,2.51,1.68,4.18,1.68Zm20.3-14.54c1.93,0,3.48.61,4.64,1.84,1.16,1.21,1.74,2.85,1.74,4.94v10.1h-2.86v-9.94c0-1.34-.36-2.37-1.09-3.09-.72-.75-1.72-1.12-2.99-1.12-1.43,0-2.58.45-3.46,1.35-.88.88-1.32,2.24-1.32,4.08v8.72h-2.86V13.9h2.86v8.95c1.16-1.86,2.94-2.8,5.33-2.8Zm24,.43h2.86v16.45h-2.86v-2.83c-1.43,2.17-3.5,3.26-6.22,3.26-2.3,0-4.27-.83-5.89-2.5-1.62-1.69-2.43-3.74-2.43-6.15s.81-4.45,2.43-6.12c1.62-1.69,3.59-2.53,5.89-2.53,2.72,0,4.79,1.09,6.22,3.26v-2.83Zm-5.86,14.12c1.67,0,3.06-.56,4.18-1.68,1.12-1.14,1.68-2.54,1.68-4.21s-.56-3.06-1.68-4.18c-1.12-1.14-2.51-1.71-4.18-1.71s-3.03.57-4.15,1.71c-1.12,1.12-1.68,2.51-1.68,4.18s.56,3.07,1.68,4.21c1.12,1.12,2.5,1.68,4.15,1.68Z"/></svg>