<svg xmlns="http://www.w3.org/2000/svg" width="25" height="24" viewBox="0 0 25 24" fill="none">
  <path d="M20.9523 7.82799C20.8539 7.88959 18.5115 9.18959 18.5115 12.072C18.6219 15.3592 21.4675 16.512 21.5163 16.512C21.4675 16.5736 21.0867 18.0824 19.9587 19.664C19.0635 21.0264 18.0699 22.4 16.5611 22.4C15.1259 22.4 14.6107 21.492 12.9547 21.492C11.1763 21.492 10.6731 22.4 9.31153 22.4C7.80273 22.4 6.73553 20.9528 5.79153 19.6032C4.56513 17.8368 3.52273 15.0648 3.48593 12.4032C3.46113 10.9928 3.73153 9.60639 4.41793 8.42879C5.38673 6.78479 7.11633 5.66879 9.00513 5.63199C10.4523 5.58319 11.7403 6.62559 12.6235 6.62559C13.4699 6.62559 15.0523 5.63199 16.8427 5.63199C17.6155 5.63279 19.6763 5.86559 20.9523 7.82799ZM12.5011 5.35039C12.2435 4.06239 12.9547 2.77439 13.6171 1.95279C14.4635 0.95919 15.8003 0.28479 16.9531 0.28479C17.0267 1.57279 16.5603 2.83599 15.7267 3.75599C14.9787 4.74959 13.6907 5.49759 12.5011 5.35039Z" fill="#948798"/>
</svg>