<svg width="30" height="30" viewBox="0 0 30 30" fill="none" xmlns="http://www.w3.org/2000/svg">
<path fill-rule="evenodd" clip-rule="evenodd" d="M8.66554 4.8C8.05803 4.8 7.56554 5.29249 7.56554 5.9V14.5H9.26531V11.4C9.26531 9.79837 10.5637 8.5 12.1653 8.5H21.2653V8.4C21.2653 7.79249 20.7728 7.3 20.1653 7.3H17.8062C17.2018 7.3 16.6125 7.11114 16.1206 6.75983L13.6637 5.00489C13.4772 4.87164 13.2536 4.8 13.0244 4.8H8.66554ZM23.0653 8.64236V8.4C23.0653 6.79837 21.7669 5.5 20.1653 5.5H17.8062C17.577 5.5 17.3534 5.42836 17.1669 5.29511L14.71 3.54017C14.2181 3.18886 13.6288 3 13.0244 3H8.66554C7.06391 3 5.76554 4.29837 5.76554 5.9V15.1036C3.41638 18.3302 2.70604 21.2386 3.1045 23.459C3.51418 25.7419 5.13882 27.3 7.16554 27.3C8.19866 27.3 9.12674 26.8418 9.87017 26.2927C10.6209 25.7381 11.2601 25.0349 11.7369 24.4082C12.0381 24.0123 12.4454 23.8 12.8262 23.8H17.8467C18.2611 23.8 18.7042 24.0605 19.0066 24.5463C20.2934 26.6128 21.9776 27.3 23.165 27.3C24.8107 27.3 25.9995 26.6401 26.6921 25.5001C27.3413 24.4315 27.4751 23.069 27.3751 21.7685C27.2736 20.4472 26.9214 19.0664 26.4693 17.8581C26.0716 16.7948 25.5771 15.8134 25.0655 15.0988V11.4C25.0655 10.1124 24.2264 9.02102 23.0653 8.64236ZM23.2655 14.5V11.4C23.2655 10.7926 22.773 10.3 22.1653 10.3H12.1653C11.5578 10.3 11.0653 10.7925 11.0653 11.4V14.6751C11.2565 14.7525 11.4382 14.8546 11.6053 14.9799L12.6722 15.78C12.8626 15.9228 13.0942 16 13.3321 16H16.9989C17.2369 16 17.4685 15.9228 17.6589 15.78L18.5922 15.08C19.0942 14.7035 19.7047 14.5 20.3322 14.5H23.2655ZM23.7079 16.3H20.3322C20.0942 16.3 19.8626 16.3772 19.6722 16.52L18.7389 17.22C18.2369 17.5965 17.6263 17.8 16.9989 17.8H13.3321C12.7047 17.8 12.0942 17.5965 11.5923 17.2201L10.5254 16.42C10.4215 16.3421 10.2951 16.3 10.1653 16.3H7.12187C5.04076 19.2115 4.59623 21.5809 4.8762 23.141C5.16639 24.7581 6.19175 25.5 7.16554 25.5C7.66551 25.5 8.22157 25.2726 8.80069 24.8448C9.37254 24.4224 9.89429 23.8573 10.3043 23.3184C10.8722 22.5719 11.7716 22 12.8262 22H17.8467C19.0325 22 19.9913 22.7223 20.5346 23.5948C21.5297 25.1928 22.6659 25.5 23.165 25.5C24.2693 25.5 24.8305 25.0974 25.1537 24.5655C25.5202 23.9623 25.6678 23.0435 25.5804 21.9065C25.4946 20.7903 25.1907 19.5773 24.7834 18.4888C24.4507 17.5993 24.0653 16.8364 23.7079 16.3Z" fill="#A99FAC"/>
<path d="M8.66504 17.9C8.66504 17.6239 8.8889 17.4 9.16504 17.4C9.44118 17.4 9.66504 17.6239 9.66504 17.9V20.9C9.66504 21.1762 9.44118 21.4 9.16504 21.4C8.8889 21.4 8.66504 21.1762 8.66504 20.9V17.9Z" fill="#A99FAC"/>
<path d="M7.66504 19.9C7.3889 19.9 7.16504 19.6762 7.16504 19.4C7.16504 19.1239 7.3889 18.9 7.66504 18.9H10.665C10.9412 18.9 11.165 19.1239 11.165 19.4C11.165 19.6762 10.9412 19.9 10.665 19.9H7.66504Z" fill="#A99FAC"/>
<path d="M20.565 19.5546C20.565 19.9412 20.2516 20.2546 19.865 20.2546C19.4784 20.2546 19.165 19.9412 19.165 19.5546C19.165 19.168 19.4784 18.8546 19.865 18.8546C20.2516 18.8546 20.565 19.168 20.565 19.5546Z" fill="#A99FAC"/>
<path d="M22.0196 21.0091C22.0196 21.3957 21.7062 21.7091 21.3196 21.7091C20.933 21.7091 20.6196 21.3957 20.6196 21.0091C20.6196 20.6225 20.933 20.3091 21.3196 20.3091C21.7062 20.3091 22.0196 20.6225 22.0196 21.0091Z" fill="#A99FAC"/>
<path d="M23.4741 19.5546C23.4741 19.9412 23.1607 20.2546 22.7741 20.2546C22.3875 20.2546 22.0741 19.9412 22.0741 19.5546C22.0741 19.168 22.3875 18.8546 22.7741 18.8546C23.1607 18.8546 23.4741 19.168 23.4741 19.5546Z" fill="#A99FAC"/>
<path d="M22.0196 18.1C22.0196 18.4866 21.7062 18.8 21.3196 18.8C20.933 18.8 20.6196 18.4866 20.6196 18.1C20.6196 17.7134 20.933 17.4 21.3196 17.4C21.7062 17.4 22.0196 17.7134 22.0196 18.1Z" fill="#A99FAC"/>
</svg>
