<svg width="20" height="20" viewBox="0 0 20 20" fill="none" xmlns="http://www.w3.org/2000/svg">
<path fill-rule="evenodd" clip-rule="evenodd" d="M16.4675 10.0008C16.4675 10.6787 17.0241 11.2303 17.7083 11.2303C18.0533 11.2303 18.3333 11.5078 18.3333 11.8496V14.0799C18.3333 15.9658 16.785 17.5 14.8816 17.5H5.11913C3.21579 17.5 1.66663 15.9658 1.66663 14.0799V11.8496C1.66663 11.5078 1.94663 11.2303 2.29163 11.2303C2.97663 11.2303 3.53329 10.6787 3.53329 10.0008C3.53329 9.34025 2.99913 8.84317 2.29163 8.84317C2.12579 8.84317 1.96746 8.77794 1.84996 8.66151C1.73246 8.54508 1.66663 8.38737 1.66663 8.22388L1.66829 5.92095C1.66829 4.03501 3.21663 2.5 5.11996 2.5H14.88C16.7833 2.5 18.3325 4.03501 18.3325 5.92095L18.3333 8.15204C18.3333 8.31553 18.2675 8.47407 18.1508 8.58967C18.0333 8.7061 17.875 8.77133 17.7083 8.77133C17.0241 8.77133 16.4675 9.32291 16.4675 10.0008ZM11.8766 10.54L12.8591 9.59209C13.03 9.4286 13.0891 9.18749 13.015 8.96455C12.9416 8.74161 12.75 8.58307 12.5183 8.55086L11.1608 8.35434L10.5533 7.13558C10.4491 6.92585 10.2375 6.79539 10.0016 6.79456H9.99996C9.76496 6.79456 9.55329 6.92502 9.44746 7.13476L8.83996 8.35434L7.48496 8.55004C7.25079 8.58307 7.05913 8.74161 6.98496 8.96455C6.91163 9.18749 6.97079 9.4286 7.14079 9.59209L8.12329 10.54L7.89163 11.8802C7.85163 12.1114 7.94579 12.3409 8.13746 12.4788C8.24579 12.5556 8.37163 12.5952 8.49913 12.5952C8.59663 12.5952 8.69496 12.5713 8.78496 12.5242L9.99996 11.8917L11.2125 12.5226C11.4225 12.634 11.6716 12.6167 11.8625 12.478C12.055 12.3409 12.1491 12.1114 12.1091 11.8802L11.8766 10.54Z" fill="#D4CFD6"/>
</svg>
