<svg width="32" height="32" viewBox="0 0 32 32" fill="none" xmlns="http://www.w3.org/2000/svg">
<circle cx="16" cy="16" r="15.3158" fill="#68566E" stroke="#FDEB56" stroke-width="1.36842"/>
<g style="mix-blend-mode:multiply" opacity="0.95">
<path d="M18.1379 22.842C17.0689 21.0848 17.3206 13.9653 17.8449 12.5321C17.9958 12.054 18.2807 11.6294 18.6658 11.3084C19.0508 10.9874 19.5198 10.7836 20.0172 10.7212C20.8349 10.6742 21.6537 10.589 22.4719 10.6209C25.0363 10.7211 26.0169 13.8258 25.8456 15.8611C25.789 16.7035 25.4798 17.5092 24.9584 18.1731C24.437 18.8371 23.7276 19.3285 22.9227 19.5832C22.3299 19.6925 21.7245 19.715 21.1253 19.6501C21.1328 20.4689 21.1891 21.2866 21.2939 22.0988C21.3093 22.2648 21.2865 22.4322 21.2273 22.588C21.1681 22.7439 21.0741 22.8842 20.9524 22.9982C20.719 23.1931 18.436 23.3321 18.1379 22.842ZM22.4022 14.7525C22.3912 14.3945 22.2518 14.0524 22.0094 13.7886C21.8675 13.6935 21.703 13.6375 21.5325 13.6263C21.362 13.615 21.1916 13.6489 21.0383 13.7245C20.8032 13.8275 20.8014 14.1795 20.7851 14.4264C20.7652 14.7351 20.7214 17.2036 20.9713 17.2487C22.4974 17.5237 22.5243 15.7463 22.4022 14.7525ZM6.64268 22.8823C6.75833 21.8597 7.06117 20.8672 7.53609 19.9542C8.10308 18.9312 8.77044 17.967 9.52831 17.0761C8.87831 16.2055 8.29526 15.2869 7.78419 14.3282C7.28002 13.4308 6.92938 12.4555 6.74676 11.4425C6.7368 11.3011 6.77518 11.1605 6.8556 11.0437C7.04207 10.7362 8.03742 10.5154 10.0904 10.6589C10.2001 10.6702 10.3048 10.7102 10.3941 10.7749C10.4834 10.8396 10.5541 10.9267 10.599 11.0274C10.7544 11.4711 10.9649 12.1699 11.2178 12.8692C11.3453 13.2106 11.4961 13.5428 11.669 13.8635C12.0102 12.9971 12.2203 12.0846 12.2923 11.1562C12.3144 10.9285 12.3986 10.6092 13.0612 10.6139C14.038 10.5472 15.0184 10.6704 15.9482 10.9769C16.0403 11.4694 16.0326 11.9754 15.9256 12.4649C15.3768 14.0499 14.5879 15.5411 13.5864 16.8866C14.5312 18.1191 15.3151 19.4668 15.9192 20.8974C16.0667 21.5256 16.0724 22.1789 15.9358 22.8096C15.807 23.3229 12.5585 23.2714 12.4432 22.7703C12.217 21.7444 11.854 20.7535 11.3639 19.8242C11.0584 20.3134 10.8061 20.8339 10.6114 21.3768C10.4282 21.8978 10.2878 22.4153 10.0883 22.9778C9.98282 23.2742 6.60644 23.2377 6.64268 22.8823Z" fill="#776537"/>
</g>
<path d="M17.9517 21.9293C16.826 20.0795 17.0911 12.5854 17.6431 11.0766C17.8019 10.5734 18.1019 10.1264 18.5072 9.78851C18.9126 9.45065 19.4063 9.23617 19.9299 9.17052C20.7903 9.12087 21.6523 9.03137 22.5138 9.06493C25.2128 9.17028 26.2451 12.4385 26.0648 14.581C26.0053 15.4676 25.6799 16.3157 25.1311 17.0146C24.5823 17.7135 23.8356 18.2308 22.9884 18.4989C22.3644 18.6139 21.7269 18.6376 21.0961 18.5691C21.1039 19.4311 21.1632 20.2919 21.2738 21.1468C21.2899 21.3216 21.2659 21.4978 21.2036 21.6619C21.1413 21.826 21.0423 21.9737 20.9142 22.0937C20.6682 22.2987 18.2654 22.4449 17.9517 21.9293ZM22.4401 13.4137C22.4284 13.0369 22.2817 12.6768 22.0267 12.3991C21.8772 12.2992 21.7041 12.2403 21.5247 12.2284C21.3452 12.2166 21.1658 12.2522 21.0045 12.3316C20.7569 12.44 20.7549 12.8105 20.7382 13.0706C20.7171 13.3955 20.6712 15.994 20.9341 16.0415C22.5405 16.3309 22.5686 14.46 22.4401 13.4137ZM6.3927 21.9716C6.51471 20.8952 6.83358 19.8505 7.33341 18.8896C7.93021 17.8126 8.63263 16.7976 9.4303 15.8596C8.74611 14.9434 8.13244 13.9765 7.59457 12.9674C7.06373 12.0227 6.69453 10.9959 6.50225 9.92953C6.49172 9.78078 6.53222 9.63288 6.61704 9.51023C6.81341 9.18637 7.86133 8.95376 10.0221 9.10479C10.1375 9.11675 10.2477 9.15891 10.3416 9.22705C10.4355 9.29518 10.5098 9.38687 10.557 9.49287C10.721 9.95961 10.9423 10.6954 11.2088 11.4316C11.3432 11.7909 11.5019 12.1405 11.6837 12.4783C12.0429 11.5662 12.2639 10.6056 12.3396 9.62828C12.363 9.38856 12.4516 9.05269 13.1491 9.05759C14.1773 8.98711 15.2094 9.11685 16.1882 9.43961C16.285 9.958 16.277 10.4905 16.1646 11.0058C15.587 12.6743 14.7564 14.2441 13.7019 15.6602C14.6962 16.9576 15.5213 18.3763 16.1573 19.8821C16.3126 20.5435 16.3186 21.2311 16.1749 21.8951C16.0397 22.4355 12.6203 22.3813 12.4984 21.8537C12.2604 20.7738 11.8784 19.7307 11.3628 18.7524C11.0409 19.2672 10.7753 19.8152 10.5708 20.3869C10.3774 20.9354 10.23 21.4801 10.0199 22.072C9.90893 22.3842 6.35459 22.3456 6.3927 21.9716Z" fill="#FFBC06"/>
<path style="mix-blend-mode:screen" fill-rule="evenodd" clip-rule="evenodd" d="M19.9435 9.46882C19.4784 9.53156 19.0408 9.72587 18.6823 10.0289C18.3239 10.3319 18.0595 10.731 17.9202 11.1793C17.8355 11.4402 17.7745 11.7082 17.7379 11.98C17.67 12.4036 17.6241 12.8337 17.5869 13.2612C17.5109 14.1355 17.4731 15.0208 17.465 15.9016C17.457 16.7709 20.449 15.7261 20.4243 14.5377C20.4176 14.2296 20.4172 13.921 20.421 13.613C20.4232 13.4278 20.4245 13.2358 20.4365 13.0513C20.4607 12.6788 20.4829 12.2323 20.881 12.0579C21.1358 11.9439 21.4183 11.9062 21.6941 11.9494C21.8896 11.9755 22.074 12.0553 22.227 12.1798C22.4704 12.4193 22.6305 12.7306 22.6838 13.0679C22.8863 14.0482 25.6331 11.8532 24.7681 10.6547C24.518 10.2762 24.1821 9.96202 23.7877 9.73766C23.3933 9.5133 22.9516 9.3851 22.4984 9.36346C21.6469 9.33025 20.7933 9.41987 19.9435 9.46882ZM15.0613 9.4701C14.4247 9.39631 13.7845 9.35833 13.1436 9.35635C12.9883 9.34219 12.8327 9.37915 12.7004 9.46159C12.6573 9.51764 12.6339 9.58633 12.6338 9.65703C12.5551 10.6649 12.3264 11.6554 11.9551 12.5957L11.7085 13.1717L11.4162 12.6176C11.2275 12.2678 11.0631 11.9054 10.9243 11.533C10.6915 10.8895 10.4979 10.2359 10.2717 9.59153C10.2436 9.54116 10.2043 9.49794 10.1568 9.46524C10.1093 9.43254 10.0549 9.41123 9.99783 9.40297C9.54111 9.37092 9.08078 9.35169 8.62255 9.35728C8.29505 9.35853 7.96795 9.38017 7.64315 9.42208C7.44192 9.44545 7.24398 9.4915 7.05311 9.55936C6.98572 9.58268 6.92333 9.6185 6.86922 9.66495C6.82347 9.73042 6.79761 9.80772 6.79474 9.88754C6.98273 10.9199 7.34137 11.9138 7.85594 12.8283C8.38932 13.8235 8.99526 14.778 9.66884 15.6842L9.80204 15.8676L9.66126 16.0454C9.43902 16.3256 9.21316 16.609 8.99174 16.8972C8.15557 17.9851 14.7592 17.7594 14.0679 16.734C13.864 16.431 13.6574 16.1297 13.4517 15.8286L13.33 15.6509L13.4606 15.4792C13.6763 15.1949 13.8767 14.8909 14.0683 14.5897C14.31 14.2087 14.5416 13.8212 14.763 13.4271C15.0272 12.9584 15.2817 12.4768 15.5041 11.9866C15.6665 11.662 15.7877 11.3184 15.865 10.9638C15.944 10.5241 15.9673 10.0762 15.9343 9.63069C15.6481 9.55387 15.3562 9.50016 15.0613 9.4701Z" fill="#FF6057"/>
<path style="mix-blend-mode:multiply" fill-rule="evenodd" clip-rule="evenodd" d="M10.0199 22.072C10.23 21.4801 10.3774 20.9354 10.5708 20.3869C10.7753 19.8152 11.0409 19.2672 11.3628 18.7524C10.853 19.4924 10.0122 21.3919 9.69567 21.6712C8.77976 22.1283 7.7293 22.2385 6.73847 21.9813L6.68055 21.968C6.62813 21.9553 6.5823 21.9236 6.55201 21.8789C6.51952 21.8198 6.50244 21.7534 6.50237 21.686C6.49421 21.5128 6.51298 21.3391 6.5181 21.1657C6.46212 21.4319 6.42025 21.7009 6.3927 21.9716C6.38549 22.0422 6.50644 22.1009 6.70806 22.1476C7.8042 22.3652 8.93479 22.3394 10.0199 22.072ZM12.4984 21.8538C12.6064 22.3218 15.3116 22.4173 16.0137 22.0553C16.0502 22.0412 16.0834 22.0197 16.1112 21.9922C16.1389 21.9646 16.1606 21.9316 16.1749 21.8951C16.3186 21.2312 16.3126 20.5435 16.1573 19.8821C15.6014 18.5247 14.8714 17.2453 13.9857 16.076C13.8914 15.9378 13.7968 15.7992 13.7019 15.6603C14.6142 14.3921 15.384 13.0273 15.9972 11.5905C16.0729 11.4019 16.129 11.2059 16.1646 11.0058C16.1732 10.9464 16.1815 10.8839 16.1902 10.8196C15.5841 12.4733 14.661 13.9929 13.4727 15.2929C13.1049 15.7266 13.1345 15.7163 13.5382 16.1604C14.7372 17.4648 15.5524 19.0751 15.894 20.8135C15.9569 21.0943 15.922 21.3882 15.7951 21.6464C15.4069 21.8963 14.9658 22.0523 14.5068 22.1021C14.0478 22.1518 13.5835 22.0939 13.1508 21.933C12.781 21.6944 12.4776 21.3661 12.269 20.9786C12.3508 21.255 12.4273 21.546 12.4984 21.8538Z" fill="#C1BAA0"/>
<path style="mix-blend-mode:multiply" fill-rule="evenodd" clip-rule="evenodd" d="M20.7172 21.5497C20.3267 21.8176 19.8674 21.9675 19.3941 21.9815C18.9208 21.9956 18.4534 21.8731 18.0478 21.6287C17.9037 21.5016 17.7794 21.3535 17.6793 21.1895C17.6587 21.1568 17.6388 21.1233 17.619 21.0898C17.6542 21.2184 17.692 21.339 17.7319 21.4506C17.7893 21.6171 17.8632 21.7774 17.9525 21.9291C18.2662 22.4448 20.669 22.2986 20.915 22.0936C21.1187 21.9112 21.2437 21.657 21.2637 21.3844C21.2727 21.3055 21.2763 21.2261 21.2747 21.1467C21.2622 20.5428 21.1653 20.1009 21.1137 19.5908C21.0779 19.2513 21.0723 18.9094 21.097 18.569C21.7278 18.6375 22.3652 18.6138 22.9892 18.4988C23.6711 18.304 24.2917 17.9375 24.7915 17.4343C25.2913 16.9312 25.6536 16.3082 25.8437 15.6249C25.9202 15.3975 25.9796 15.1636 26.021 14.9273C25.9727 15.0575 25.9193 15.1859 25.8607 15.3125C24.9883 17.1998 23.0274 18.627 21.2754 18.1836C21.1367 18.1486 21.1043 17.1285 21.0332 17.6348C20.9738 18.1003 20.9507 18.5697 20.9641 19.0388C20.9753 19.7236 21.1612 21.0087 20.7172 21.5497ZM22.4327 14.8543C22.3014 15.6001 21.9074 16.2166 20.935 16.0413C20.8532 16.0265 20.8013 15.7666 20.7695 15.4053C20.7744 15.5677 20.7851 15.7299 20.7841 15.8924C20.7784 15.9796 20.7948 16.0668 20.8317 16.1459C20.8686 16.2251 20.9248 16.2937 20.9953 16.3454C21.0657 16.3971 21.148 16.4303 21.2346 16.4418C21.3212 16.4533 21.4093 16.4428 21.4907 16.4113C21.7079 16.375 21.9106 16.2791 22.0764 16.1343C22.2422 15.9895 22.3645 15.8015 22.4297 15.5913C22.5745 15.0159 22.5912 14.4159 22.4789 13.8334C22.5016 14.1743 22.4861 14.5167 22.4327 14.8543Z" fill="#C1BAA0"/>
<path style="mix-blend-mode:screen" fill-rule="evenodd" clip-rule="evenodd" d="M17.818 12.1719C17.7509 12.6273 17.9827 12.9986 18.3494 12.6643C18.8636 12.1951 19.1967 11.5496 19.7133 11.0826C20.1229 10.7676 20.5597 10.4897 21.0185 10.2522C21.6941 9.8327 20.9099 9.59811 20.4844 9.58005C19.8773 9.53907 19.2772 9.72972 18.8051 10.1136C18.2466 10.6639 17.8976 11.3918 17.818 12.1719Z" fill="#FFD9B7"/>
<path style="mix-blend-mode:screen" fill-rule="evenodd" clip-rule="evenodd" d="M8.44324 9.47107C8.16547 9.47402 7.88814 9.49384 7.61278 9.53039C6.65389 9.63749 6.8026 9.87348 7.06935 10.7265C7.22516 11.2929 7.45098 11.8375 7.74156 12.348C7.89714 12.5813 8.10271 12.4681 8.10201 12.16C8.03379 11.5562 8.01253 10.948 8.03838 10.3409C8.06014 10.1947 8.11628 10.0558 8.20221 9.93547C8.28813 9.81519 8.40138 9.71701 8.53264 9.64903C8.54798 9.63599 8.55901 9.61861 8.56429 9.59918C8.56957 9.57976 8.56885 9.55919 8.56222 9.54018C8.54993 9.51947 8.53255 9.50224 8.51172 9.49014C8.49089 9.47804 8.46732 9.47148 8.44324 9.47107Z" fill="#FFD9B7"/>
<path style="mix-blend-mode:screen" fill-rule="evenodd" clip-rule="evenodd" d="M13.0983 9.43677C13.0069 9.43545 12.9162 9.45224 12.8313 9.48618C12.7876 9.51301 12.7557 9.55541 12.7421 9.60482C12.7161 9.67777 12.5983 10.3888 12.539 10.7922C12.4855 11.1579 12.5819 11.3089 12.9202 10.9592C13.2071 10.6233 13.4756 10.2721 13.7247 9.90724C14.0482 9.42127 13.8061 9.4074 13.0983 9.43677Z" fill="#FFD9B7"/>
</svg>
