<svg width="52" height="52" viewBox="0 0 52 52" fill="none" xmlns="http://www.w3.org/2000/svg">
<rect width="52" height="52" rx="26" fill="#393755"/>
<rect x="0.5" y="0.5" width="51" height="51" rx="25.5" stroke="url(#paint0_linear_7571_14802)" stroke-opacity="0.3"/>
<path d="M16 24.75V29.75C16 33.8748 16 35.9371 17.2814 37.2186C18.5628 38.5 20.6252 38.5 24.75 38.5H27.25C31.3748 38.5 33.4371 38.5 34.7186 37.2186C36 35.9371 36 33.8748 36 29.75V24.75" fill="#496C81"/>
<path d="M16 24.75V29.75C16 33.8747 16 35.9371 17.2814 37.2186C18.5628 38.5 20.6252 38.5 24.75 38.5H27.25C31.3747 38.5 33.4371 38.5 34.7186 37.2186C36 35.9371 36 33.8747 36 29.75V24.75" stroke="#8EC9ED" stroke-width="1.875" stroke-linecap="round" stroke-linejoin="round"/>
<path d="M14.75 22.25C14.75 21.3154 14.75 20.8481 15.0012 20.5C15.1658 20.272 15.4025 20.0826 15.6875 19.951C16.1226 19.75 16.7067 19.75 17.875 19.75H34.125C35.2932 19.75 35.8774 19.75 36.3125 19.951C36.5975 20.0826 36.8342 20.272 36.9987 20.5C37.25 20.8481 37.25 21.3154 37.25 22.25C37.25 23.1846 37.25 23.6519 36.9987 24C36.8342 24.228 36.5975 24.4174 36.3125 24.549C35.8774 24.75 35.2932 24.75 34.125 24.75H17.875C16.7067 24.75 16.1226 24.75 15.6875 24.549C15.4025 24.4174 15.1658 24.228 15.0012 24C14.75 23.6519 14.75 23.1846 14.75 22.25Z" fill="#496C81" stroke="#8EC9ED" stroke-width="1.875" stroke-linejoin="round"/>
<path d="M18.5 15.7321C18.5 14.4994 19.4994 13.5 20.7321 13.5H21.1786C23.8414 13.5 26 15.6586 26 18.3214V19.75H22.5179C20.2988 19.75 18.5 17.9511 18.5 15.7321Z" fill="#496C81" stroke="#8EC9ED" stroke-width="1.875" stroke-linejoin="round"/>
<path d="M33.5 15.7321C33.5 14.4994 32.5006 13.5 31.2679 13.5H30.8214C28.1586 13.5 26 15.6586 26 18.3214V19.75H29.4821C31.7011 19.75 33.5 17.9511 33.5 15.7321Z" fill="#496C81" stroke="#8EC9ED" stroke-width="1.875" stroke-linejoin="round"/>
<path d="M26 26L26 38" stroke="#8EC9ED" stroke-width="1.875" stroke-linecap="round" stroke-linejoin="round"/>
<defs>
<linearGradient id="paint0_linear_7571_14802" x1="26" y1="0" x2="26" y2="52" gradientUnits="userSpaceOnUse">
<stop stop-color="#8EC9ED"/>
<stop offset="1" stop-color="#8EC9ED" stop-opacity="0"/>
</linearGradient>
</defs>
</svg>
