<svg xmlns="http://www.w3.org/2000/svg" width="28" height="28" viewBox="0 0 28 28" fill="none">
<path fill-rule="evenodd" clip-rule="evenodd" d="M19.0132 18.1281C19.1076 20.2655 17.3826 22.0729 15.1606 22.1637C14.9969 22.1706 7.01807 22.1545 7.01807 22.1545C4.80683 22.3224 2.87154 20.7334 2.69713 18.6041C2.68399 18.4454 2.68757 9.88426 2.68757 9.88426C2.58961 7.74455 4.31225 5.93253 6.53544 5.83825C6.70149 5.8302 14.6696 5.84514 14.6696 5.84514C16.8916 5.67958 18.8328 7.28005 19.0049 9.41976C19.0168 9.57383 19.0132 18.1281 19.0132 18.1281Z" stroke="#2A0D32" stroke-width="2" stroke-linecap="round" stroke-linejoin="round"/>
<path d="M19.0176 11.6432L22.8594 8.49906C23.8114 7.71972 25.2394 8.39872 25.2382 9.62722L25.2242 18.2011C25.2231 19.4296 23.7939 20.1027 22.8442 19.3234L19.0176 16.1792" stroke="#2A0D32" stroke-width="2" stroke-linecap="round" stroke-linejoin="round"/>
</svg>