<svg width="20" height="21" viewBox="0 0 20 21" fill="none" xmlns="http://www.w3.org/2000/svg">
<g id="Close Square">
<path id="Close Square_2" fill-rule="evenodd" clip-rule="evenodd" d="M5.66976 0.499023H14.3398C17.7298 0.499023 19.9998 2.87902 19.9998 6.41902V14.59C19.9998 18.12 17.7298 20.499 14.3398 20.499H5.66976C2.27976 20.499 -0.000244141 18.12 -0.000244141 14.59V6.41902C-0.000244141 2.87902 2.27976 0.499023 5.66976 0.499023ZM13.0098 13.499C13.3498 13.16 13.3498 12.61 13.0098 12.27L11.2298 10.49L13.0098 8.70902C13.3498 8.37002 13.3498 7.81002 13.0098 7.47002C12.6698 7.12902 12.1198 7.12902 11.7698 7.47002L9.99976 9.24902L8.21976 7.47002C7.86976 7.12902 7.31976 7.12902 6.97976 7.47002C6.63976 7.81002 6.63976 8.37002 6.97976 8.70902L8.75976 10.49L6.97976 12.26C6.63976 12.61 6.63976 13.16 6.97976 13.499C7.14976 13.669 7.37976 13.76 7.59976 13.76C7.82976 13.76 8.04976 13.669 8.21976 13.499L9.99976 11.73L11.7798 13.499C11.9498 13.68 12.1698 13.76 12.3898 13.76C12.6198 13.76 12.8398 13.669 13.0098 13.499Z" fill="#F71756"/>
</g>
</svg>
