<svg width="20" height="20" viewBox="0 0 20 20" fill="none" xmlns="http://www.w3.org/2000/svg">
<g id="cancel_FILL1_wght400_GRAD0_opsz24 (5) 1">
<path id="Vector" d="M9.99996 11.1667L12.4166 13.5833C12.5694 13.7361 12.7638 13.8125 13 13.8125C13.2361 13.8125 13.4305 13.7361 13.5833 13.5833C13.7361 13.4306 13.8125 13.2361 13.8125 13C13.8125 12.7639 13.7361 12.5694 13.5833 12.4167L11.1666 10L13.5833 7.58333C13.7361 7.43055 13.8125 7.23611 13.8125 7C13.8125 6.76389 13.7361 6.56944 13.5833 6.41666C13.4305 6.26389 13.2361 6.1875 13 6.1875C12.7638 6.1875 12.5694 6.26389 12.4166 6.41666L9.99996 8.83333L7.58329 6.41666C7.43051 6.26389 7.23607 6.1875 6.99996 6.1875C6.76385 6.1875 6.5694 6.26389 6.41663 6.41666C6.26385 6.56944 6.18746 6.76389 6.18746 7C6.18746 7.23611 6.26385 7.43055 6.41663 7.58333L8.83329 10L6.41663 12.4167C6.26385 12.5694 6.18746 12.7639 6.18746 13C6.18746 13.2361 6.26385 13.4306 6.41663 13.5833C6.5694 13.7361 6.76385 13.8125 6.99996 13.8125C7.23607 13.8125 7.43051 13.7361 7.58329 13.5833L9.99996 11.1667ZM9.99996 18.3333C8.84718 18.3333 7.76385 18.1146 6.74996 17.6771C5.73607 17.2396 4.85413 16.6458 4.10413 15.8958C3.35413 15.1458 2.76038 14.2639 2.32288 13.25C1.88538 12.2361 1.66663 11.1528 1.66663 10C1.66663 8.84722 1.88538 7.76389 2.32288 6.75C2.76038 5.73611 3.35413 4.85416 4.10413 4.10416C4.85413 3.35416 5.73607 2.76041 6.74996 2.32291C7.76385 1.88541 8.84718 1.66666 9.99996 1.66666C11.1527 1.66666 12.2361 1.88541 13.25 2.32291C14.2638 2.76041 15.1458 3.35416 15.8958 4.10416C16.6458 4.85416 17.2395 5.73611 17.677 6.75C18.1145 7.76389 18.3333 8.84722 18.3333 10C18.3333 11.1528 18.1145 12.2361 17.677 13.25C17.2395 14.2639 16.6458 15.1458 15.8958 15.8958C15.1458 16.6458 14.2638 17.2396 13.25 17.6771C12.2361 18.1146 11.1527 18.3333 9.99996 18.3333Z" fill="#2A0D32"/>
</g>
</svg>
