<svg width="27" height="20" viewBox="0 0 27 20" fill="none" xmlns="http://www.w3.org/2000/svg">
<path d="M19.1346 11.8657C20.1648 6.8208 16.9103 1.89593 11.8654 0.865682C6.82054 -0.164563 1.89567 3.08995 0.865424 8.13483C-0.164821 13.1797 3.08969 18.1046 8.13458 19.1348C13.1795 20.1651 18.1043 16.9106 19.1346 11.8657Z" fill="#FFDF34"/>
<path fill-rule="evenodd" clip-rule="evenodd" d="M1.09287 10.1228C1.09006 9.90265 1.09534 9.68088 1.10895 9.45777C1.12256 9.23466 1.14429 9.01389 1.17384 8.79575L2.03944 8.913C2.01277 9.1099 1.99314 9.3093 1.98084 9.51097C1.96853 9.71264 1.96377 9.91295 1.9663 10.1116L1.09287 10.1228ZM1.72242 6.70365C1.88765 6.28856 2.08297 5.88944 2.30552 5.50883L3.05958 5.94974C2.85894 6.29289 2.68289 6.65264 2.53399 7.02671L1.72242 6.70365ZM1.81651 13.5229C1.64189 13.1181 1.49654 12.6982 1.383 12.266L2.22783 12.0441C2.33015 12.4335 2.46115 12.8119 2.61859 13.1769L1.81651 13.5229ZM3.61562 3.78832C3.92502 3.47059 4.25769 3.17618 4.61068 2.90771L5.13948 3.60297C4.82091 3.84526 4.52066 4.11098 4.24143 4.39772L3.61562 3.78832ZM3.78831 16.385C3.47058 16.0756 3.17617 15.7429 2.9077 15.3899L3.60296 14.8611C3.84525 15.1797 4.11097 15.48 4.39771 15.7592L3.78831 16.385ZM6.47772 1.81652C6.88256 1.6419 7.30246 1.49655 7.73457 1.38301L7.95656 2.22784C7.56716 2.33016 7.18868 2.46116 6.82368 2.6186L6.47772 1.81652ZM6.70364 18.2782C6.28854 18.113 5.88943 17.9176 5.50882 17.6951L5.94973 16.941C6.29288 17.1417 6.65263 17.3177 7.0267 17.4666L6.70364 18.2782ZM9.87785 1.09288C10.098 1.09007 10.3197 1.09535 10.5428 1.10896C10.766 1.12257 10.9867 1.1443 11.2049 1.17385L11.0876 2.03945C10.8907 2.01278 10.6913 1.99315 10.4896 1.98084C10.288 1.96854 10.0877 1.96378 9.88898 1.96631L9.87785 1.09288ZM9.45776 18.8917C9.23465 18.8781 9.01388 18.8563 8.79574 18.8268L8.91299 17.9612C9.10989 17.9878 9.30929 18.0075 9.51096 18.0198C9.71263 18.0321 9.91294 18.0368 10.1116 18.0343L10.1228 18.9077C9.90264 18.9106 9.68087 18.9053 9.45776 18.8917ZM13.297 1.72242C13.7121 1.88766 14.1112 2.08298 14.4918 2.30553L14.0509 3.0596C13.7077 2.85895 13.348 2.6829 12.9739 2.534L13.297 1.72242ZM13.5229 18.1841C13.118 18.3587 12.6981 18.5041 12.266 18.6176L12.044 17.7728C12.4335 17.6705 12.8119 17.5395 13.1769 17.382L13.5229 18.1841ZM16.2123 3.61563C16.53 3.92503 16.8244 4.2577 17.0929 4.61069L16.3976 5.13949C16.1554 4.82092 15.8896 4.52067 15.6029 4.24144L16.2123 3.61563ZM16.385 16.2123C16.0756 16.53 15.7429 16.8244 15.3899 17.0929L14.8611 16.3977C15.1797 16.1554 15.4799 15.8896 15.7592 15.6029L16.385 16.2123ZM18.1841 6.47773C18.3587 6.88257 18.5041 7.30248 18.6176 7.73459L17.7728 7.95657C17.6705 7.56717 17.5395 7.18869 17.382 6.82369L18.1841 6.47773ZM18.2782 13.297C18.113 13.7121 17.9176 14.1112 17.6951 14.4918L16.941 14.0509C17.1417 13.7077 17.3177 13.348 17.4666 12.9739L18.2782 13.297ZM18.8917 10.5429C18.878 10.766 18.8563 10.9867 18.8268 11.2049L17.9612 11.0876C17.9878 10.8907 18.0075 10.6913 18.0198 10.4897C18.0321 10.288 18.0368 10.0877 18.0343 9.88899L18.9077 9.87786C18.9105 10.098 18.9053 10.3197 18.8917 10.5429Z" fill="#FFBC06"/>
<path d="M9.999 17.4585C8.27352 17.4584 6.60144 16.8601 5.26765 15.7655C3.93386 14.6708 3.02089 13.1475 2.6843 11.4552C2.34771 9.76289 2.60833 8.00621 3.42174 6.4845C4.23516 4.96278 5.55104 3.77018 7.14518 3.1099C8.73933 2.44962 10.5131 2.36251 12.1643 2.86342C13.8154 3.36433 15.2418 4.42227 16.2004 5.85697C17.159 7.29167 17.5905 9.01436 17.4213 10.7315C17.2522 12.4487 16.4929 14.0541 15.2727 15.2741C14.5818 15.9688 13.7599 16.5196 12.8547 16.8945C11.9494 17.2695 10.9788 17.4612 9.999 17.4585Z" fill="#FFBC06"/>
<path d="M9.76669 15.3562V4.62036H10.4545V15.3562H9.76669ZM12.0816 7.84112C12.0313 7.41616 11.8272 7.08626 11.4693 6.85141C11.1115 6.61656 10.6725 6.49914 10.1525 6.49914C9.77228 6.49914 9.43958 6.56065 9.15441 6.68366C8.87204 6.80668 8.65117 6.97582 8.49181 7.1911C8.33524 7.40638 8.25696 7.65101 8.25696 7.925C8.25696 8.15425 8.31148 8.35136 8.42051 8.51631C8.53235 8.67847 8.67493 8.81406 8.84827 8.9231C9.02161 9.02934 9.20334 9.11741 9.39345 9.1873C9.58357 9.2544 9.7583 9.30892 9.91766 9.35086L10.79 9.5857C11.0136 9.64441 11.2624 9.72549 11.5364 9.82894C11.8132 9.93238 12.0774 10.0736 12.329 10.2525C12.5835 10.4286 12.7931 10.6551 12.9581 10.9319C13.123 11.2087 13.2055 11.5484 13.2055 11.9509C13.2055 12.4151 13.0839 12.8344 12.8407 13.2091C12.6002 13.5837 12.248 13.8814 11.7839 14.1023C11.3226 14.3232 10.762 14.4336 10.1022 14.4336C9.48711 14.4336 8.95451 14.3344 8.50439 14.1359C8.05706 13.9374 7.70479 13.6606 7.44758 13.3055C7.19316 12.9504 7.04917 12.5381 7.01562 12.0684H8.08921C8.11717 12.3927 8.22621 12.6611 8.41632 12.8736C8.60923 13.0832 8.85247 13.2398 9.14602 13.3433C9.44238 13.4439 9.7611 13.4942 10.1022 13.4942C10.4992 13.4942 10.8557 13.4299 11.1716 13.3013C11.4875 13.1699 11.7377 12.9882 11.9223 12.7561C12.1068 12.5213 12.199 12.2473 12.199 11.9342C12.199 11.649 12.1194 11.417 11.96 11.238C11.8006 11.0591 11.591 10.9137 11.3309 10.8019C11.0709 10.69 10.79 10.5922 10.488 10.5083L9.4312 10.2064C8.7602 10.0135 8.229 9.73807 7.83759 9.38021C7.44618 9.02235 7.25047 8.55405 7.25047 7.97532C7.25047 7.49444 7.38048 7.07507 7.64049 6.71721C7.90329 6.35655 8.25556 6.07697 8.6973 5.87847C9.14183 5.67717 9.63808 5.57653 10.1861 5.57653C10.7396 5.57653 11.2317 5.67578 11.6622 5.87428C12.0928 6.06998 12.4339 6.33838 12.6855 6.67947C12.9399 7.02056 13.0741 7.40777 13.0881 7.84112H12.0816Z" fill="#FAFCFB"/>
<line x1="26.5" y1="2" x2="26.5" y2="18" stroke="white" stroke-opacity="0.08"/>
</svg>
