<svg width="177" height="90" viewBox="0 0 177 90" fill="none" xmlns="http://www.w3.org/2000/svg">
<g clip-path="url(#clip0_1410_26794)">
<path d="M164.302 0.293945H12.6969C11.068 0.293942 9.45502 0.614893 7.9501 1.23848C6.44518 1.86206 5.07779 2.77606 3.92597 3.9283C2.77416 5.08053 1.86049 6.44843 1.23714 7.9539C0.613791 9.45936 0.292958 11.0729 0.292969 12.7024V77.2265C0.292961 78.856 0.61379 80.4696 1.23714 81.9751C1.8605 83.4805 2.77416 84.8484 3.92597 86.0007C5.07779 87.1529 6.44518 88.0669 7.9501 88.6905C9.45502 89.3141 11.068 89.6351 12.6969 89.6351H71.0169H81.4628H91.9087H164.302C167.591 89.6351 170.746 88.3277 173.073 86.0007C175.399 83.6736 176.706 80.5175 176.706 77.2265V12.7024C176.706 11.0729 176.385 9.45936 175.761 7.95389C175.138 6.44842 174.224 5.08052 173.073 3.92829C171.921 2.77605 170.553 1.86205 169.048 1.23847C167.543 0.614887 165.931 0.293939 164.302 0.293945Z" fill="#3D2644" stroke="#533E59" stroke-width="1.5721" stroke-miterlimit="10"/>
<path d="M40.1798 66.0942H15.5V69.1528H40.1798V66.0942Z" fill="#68566E"/>
<path d="M107.981 66.0947H50.2363V69.1533H107.981V66.0947Z" fill="#68566E"/>
<path d="M162.481 66.0942H118.037V69.1528H162.481V66.0942Z" fill="#68566E"/>
<path d="M87.7045 75.1533H32.5303V78.212H87.7045V75.1533Z" fill="#68566E"/>
<path d="M145.451 75.1533H97.1143V78.212H145.451V75.1533Z" fill="#68566E"/>
<path d="M86.1663 34.0002L82.583 30.4168C82.2775 30.1113 81.8886 29.9585 81.4163 29.9585C80.9441 29.9585 80.5552 30.1113 80.2497 30.4168C79.9441 30.7224 79.7913 31.1113 79.7913 31.5835C79.7913 32.0557 79.9441 32.4446 80.2497 32.7502L84.9997 37.5002C85.333 37.8335 85.7219 38.0002 86.1663 38.0002C86.6108 38.0002 86.9997 37.8335 87.333 37.5002L96.7497 28.0835C97.0552 27.7779 97.208 27.3891 97.208 26.9168C97.208 26.4446 97.0552 26.0557 96.7497 25.7502C96.4441 25.4446 96.0552 25.2918 95.583 25.2918C95.1108 25.2918 94.7219 25.4446 94.4163 25.7502L86.1663 34.0002ZM88.4997 47.6668C86.1941 47.6668 84.0275 47.2293 81.9997 46.3543C79.9719 45.4793 78.208 44.2918 76.708 42.7918C75.208 41.2918 74.0205 39.5279 73.1455 37.5002C72.2705 35.4724 71.833 33.3057 71.833 31.0002C71.833 28.6946 72.2705 26.5279 73.1455 24.5002C74.0205 22.4724 75.208 20.7085 76.708 19.2085C78.208 17.7085 79.9719 16.521 81.9997 15.646C84.0275 14.771 86.1941 14.3335 88.4997 14.3335C90.8052 14.3335 92.9719 14.771 94.9997 15.646C97.0275 16.521 98.7913 17.7085 100.291 19.2085C101.791 20.7085 102.979 22.4724 103.854 24.5002C104.729 26.5279 105.166 28.6946 105.166 31.0002C105.166 33.3057 104.729 35.4724 103.854 37.5002C102.979 39.5279 101.791 41.2918 100.291 42.7918C98.7913 44.2918 97.0275 45.4793 94.9997 46.3543C92.9719 47.2293 90.8052 47.6668 88.4997 47.6668ZM88.4997 44.3335C92.2219 44.3335 95.3747 43.0418 97.958 40.4585C100.541 37.8752 101.833 34.7224 101.833 31.0002C101.833 27.2779 100.541 24.1252 97.958 21.5418C95.3747 18.9585 92.2219 17.6668 88.4997 17.6668C84.7775 17.6668 81.6247 18.9585 79.0413 21.5418C76.458 24.1252 75.1663 27.2779 75.1663 31.0002C75.1663 34.7224 76.458 37.8752 79.0413 40.4585C81.6247 43.0418 84.7775 44.3335 88.4997 44.3335Z" fill="#A99FAC"/>
</g>
<defs>
<clipPath id="clip0_1410_26794">
<rect width="177" height="90" fill="white"/>
</clipPath>
</defs>
</svg>
