<svg width="18" height="18" viewBox="0 0 18 18" fill="none" xmlns="http://www.w3.org/2000/svg">
<path d="M7.83268 10.5L6.04102 8.70833C5.88824 8.55555 5.69379 8.47917 5.45768 8.47917C5.22157 8.47917 5.02713 8.55555 4.87435 8.70833C4.72157 8.86111 4.64518 9.05555 4.64518 9.29167C4.64518 9.52778 4.72157 9.72222 4.87435 9.875L7.24935 12.25C7.41602 12.4167 7.61046 12.5 7.83268 12.5C8.0549 12.5 8.24935 12.4167 8.41602 12.25L13.1243 7.54167C13.2771 7.38889 13.3535 7.19444 13.3535 6.95833C13.3535 6.72222 13.2771 6.52778 13.1243 6.375C12.9716 6.22222 12.7771 6.14583 12.541 6.14583C12.3049 6.14583 12.1105 6.22222 11.9577 6.375L7.83268 10.5ZM8.99935 17.3333C7.84657 17.3333 6.76324 17.1146 5.74935 16.6771C4.73546 16.2396 3.85352 15.6458 3.10352 14.8958C2.35352 14.1458 1.75977 13.2639 1.32227 12.25C0.884766 11.2361 0.666016 10.1528 0.666016 9C0.666016 7.84722 0.884766 6.76389 1.32227 5.75C1.75977 4.73611 2.35352 3.85417 3.10352 3.10417C3.85352 2.35417 4.73546 1.76042 5.74935 1.32292C6.76324 0.885416 7.84657 0.666666 8.99935 0.666666C10.1521 0.666666 11.2355 0.885416 12.2493 1.32292C13.2632 1.76042 14.1452 2.35417 14.8952 3.10417C15.6452 3.85417 16.2389 4.73611 16.6764 5.75C17.1139 6.76389 17.3327 7.84722 17.3327 9C17.3327 10.1528 17.1139 11.2361 16.6764 12.25C16.2389 13.2639 15.6452 14.1458 14.8952 14.8958C14.1452 15.6458 13.2632 16.2396 12.2493 16.6771C11.2355 17.1146 10.1521 17.3333 8.99935 17.3333Z" fill="#1FD031"/>
</svg>
