<svg width="20" height="20" viewBox="0 0 20 20" fill="none" xmlns="http://www.w3.org/2000/svg">
<g id="add_FILL1_wght400_GRAD0_opsz24">
<path id="Vector" d="M9.1665 10.8334H4.99984C4.76373 10.8334 4.56581 10.7535 4.40609 10.5938C4.24637 10.434 4.1665 10.2361 4.1665 10C4.1665 9.76391 4.24637 9.56599 4.40609 9.40627C4.56581 9.24655 4.76373 9.16669 4.99984 9.16669H9.1665V5.00002C9.1665 4.76391 9.24637 4.56599 9.40609 4.40627C9.56581 4.24655 9.76373 4.16669 9.99984 4.16669C10.2359 4.16669 10.4339 4.24655 10.5936 4.40627C10.7533 4.56599 10.8332 4.76391 10.8332 5.00002V9.16669H14.9998C15.2359 9.16669 15.4339 9.24655 15.5936 9.40627C15.7533 9.56599 15.8332 9.76391 15.8332 10C15.8332 10.2361 15.7533 10.434 15.5936 10.5938C15.4339 10.7535 15.2359 10.8334 14.9998 10.8334H10.8332V15C10.8332 15.2361 10.7533 15.434 10.5936 15.5938C10.4339 15.7535 10.2359 15.8334 9.99984 15.8334C9.76373 15.8334 9.56581 15.7535 9.40609 15.5938C9.24637 15.434 9.1665 15.2361 9.1665 15V10.8334Z" fill="#E9E6EA"/>
</g>
</svg>
