<svg width="29" height="28" viewBox="0 0 29 28" fill="none" xmlns="http://www.w3.org/2000/svg">
<path fill-rule="evenodd" clip-rule="evenodd" d="M3.5 5.23352C3.5 3.4477 4.9477 2 6.73352 2H19.3191C21.1049 2 22.5526 3.44769 22.5526 5.23352V12.4702H21.1198V5.23352C21.1198 4.23902 20.3136 3.43282 19.3191 3.43282H6.73352C5.73902 3.43282 4.93282 4.23902 4.93282 5.23352V22.3814C4.93282 23.3759 5.73902 24.1821 6.73352 24.1821H13.4983V25.6149H6.73352C4.9477 25.6149 3.5 24.1672 3.5 22.3814V5.23352Z" fill="url(#paint0_linear_2456_29301)"/>
<path d="M7.32613 11.6312V2.75674H13.7432V11.6312C13.7432 12.1503 13.1588 12.4546 12.7335 12.1569L10.9027 10.8753C10.6817 10.7206 10.3876 10.7206 10.1667 10.8753L8.33584 12.1569C7.91053 12.4546 7.32613 12.1503 7.32613 11.6312Z" fill="url(#paint1_linear_2456_29301)"/>
<path fill-rule="evenodd" clip-rule="evenodd" d="M7.06945 2.50006H13.9999V11.6312C13.9999 12.358 13.1818 12.784 12.5863 12.3672L10.7555 11.0856C10.6229 10.9928 10.4465 10.9928 10.3139 11.0856L8.48304 12.3672C7.88761 12.784 7.06945 12.358 7.06945 11.6312V2.50006ZM7.58282 3.01343V11.6312C7.58282 11.9427 7.93346 12.1252 8.18865 11.9466L10.0195 10.665C10.3288 10.4485 10.7406 10.4485 11.0499 10.665L12.8807 11.9466C13.1359 12.1252 13.4866 11.9427 13.4866 11.6312V3.01343H7.58282Z" fill="url(#paint2_linear_2456_29301)"/>
<path fill-rule="evenodd" clip-rule="evenodd" d="M19.5827 26.3342C23.1267 26.3342 25.9998 23.4612 25.9998 19.9171C25.9998 16.373 23.1267 13.5 19.5827 13.5C16.0386 13.5 13.1655 16.373 13.1655 19.9171C13.1655 23.4612 16.0386 26.3342 19.5827 26.3342ZM17.9784 17.9937V21.8696C17.9784 22.2611 18.4209 22.4888 18.7394 22.2612L21.8401 20.0464C22.1304 19.8391 22.1021 19.399 21.7877 19.2305L18.6869 17.5694C18.3663 17.3977 17.9784 17.6299 17.9784 17.9937Z" fill="url(#paint3_linear_2456_29301)"/>
<defs>
<linearGradient id="paint0_linear_2456_29301" x1="3.5" y1="2" x2="27.8349" y2="3.99951" gradientUnits="userSpaceOnUse">
<stop stop-color="#F71756"/>
<stop offset="1" stop-color="#FDEB56"/>
</linearGradient>
<linearGradient id="paint1_linear_2456_29301" x1="3.5" y1="2" x2="27.8349" y2="3.99951" gradientUnits="userSpaceOnUse">
<stop stop-color="#F71756"/>
<stop offset="1" stop-color="#FDEB56"/>
</linearGradient>
<linearGradient id="paint2_linear_2456_29301" x1="3.5" y1="2" x2="27.8349" y2="3.99951" gradientUnits="userSpaceOnUse">
<stop stop-color="#F71756"/>
<stop offset="1" stop-color="#FDEB56"/>
</linearGradient>
<linearGradient id="paint3_linear_2456_29301" x1="3.5" y1="2" x2="27.8349" y2="3.99951" gradientUnits="userSpaceOnUse">
<stop stop-color="#F71756"/>
<stop offset="1" stop-color="#FDEB56"/>
</linearGradient>
</defs>
</svg>
