<svg width="20" height="20" viewBox="0 0 20 20" fill="none" xmlns="http://www.w3.org/2000/svg">
<g id="Iconly/Bold/Paper">
<g id="Paper">
<path id="Paper_2" fill-rule="evenodd" clip-rule="evenodd" d="M7.43912 13.6577H11.9276C12.2659 13.6577 12.5464 13.3743 12.5464 13.0327C12.5464 12.691 12.2659 12.416 11.9276 12.416H7.43912C7.10084 12.416 6.82031 12.691 6.82031 13.0327C6.82031 13.3743 7.10084 13.6577 7.43912 13.6577ZM10.2279 8.24933H7.43912C7.10084 8.24933 6.82031 8.53266 6.82031 8.87433C6.82031 9.216 7.10084 9.491 7.43912 9.491H10.2279C10.5662 9.491 10.8467 9.216 10.8467 8.87433C10.8467 8.53266 10.5662 8.24933 10.2279 8.24933ZM16.1125 7.52069C16.3064 7.51845 16.5176 7.51602 16.7094 7.51602C16.9157 7.51602 17.0807 7.68268 17.0807 7.89102V14.591C17.0807 16.6577 15.4223 18.3327 13.3761 18.3327H6.80845C4.66324 18.3327 2.91406 16.5743 2.91406 14.4077V5.42435C2.91406 3.35768 4.58073 1.66602 6.63518 1.66602H11.0411C11.2556 1.66602 11.4207 1.84102 11.4207 2.04935V4.73268C11.4207 6.25768 12.6665 7.50768 14.1764 7.51602C14.5291 7.51602 14.84 7.51865 15.1121 7.52096C15.3238 7.52275 15.512 7.52435 15.6781 7.52435C15.7955 7.52435 15.9478 7.52259 16.1125 7.52069ZM16.342 6.30438C15.6638 6.30688 14.8643 6.30438 14.2892 6.29854C13.3766 6.29854 12.625 5.53938 12.625 4.61771V2.42104C12.625 2.06188 13.0565 1.88354 13.3032 2.14271C13.7497 2.61164 14.3634 3.25623 14.9742 3.89787C15.5834 4.53788 16.1899 5.17496 16.625 5.63188C16.8659 5.88438 16.6894 6.30354 16.342 6.30438Z" fill="#948798"/>
</g>
</g>
</svg>
