<svg width="29" height="28" viewBox="0 0 29 28" fill="none" xmlns="http://www.w3.org/2000/svg">
<path fill-rule="evenodd" clip-rule="evenodd" d="M3.5 5.23352C3.5 3.4477 4.9477 2 6.73352 2H19.3191C21.1049 2 22.5526 3.44769 22.5526 5.23352V12.4702H21.1198V5.23352C21.1198 4.23902 20.3136 3.43282 19.3191 3.43282H6.73352C5.73902 3.43282 4.93282 4.23902 4.93282 5.23352V22.3814C4.93282 23.3759 5.73902 24.1821 6.73352 24.1821H13.4983V25.6149H6.73352C4.9477 25.6149 3.5 24.1672 3.5 22.3814V5.23352Z" fill="#A99FAC"/>
<path fill-rule="evenodd" clip-rule="evenodd" d="M7.27575 11.4189V2.7164H8.70857V11.2516L10.3669 10.0908C10.8302 9.76642 11.4469 9.76642 11.9103 10.0908L13.5685 11.2516V2.7164H15.0014V11.4189C15.0014 12.5076 13.7759 13.1457 12.884 12.5213L11.1386 11.2995L9.39314 12.5213C8.50125 13.1457 7.27575 12.5076 7.27575 11.4189Z" fill="#A99FAC"/>
<path fill-rule="evenodd" clip-rule="evenodd" d="M19.6335 24.5672C22.3176 24.5672 24.4935 22.3913 24.4935 19.7072C24.4935 17.0231 22.3176 14.8473 19.6335 14.8473C16.9494 14.8473 14.7736 17.0231 14.7736 19.7072C14.7736 22.3913 16.9494 24.5672 19.6335 24.5672ZM19.6335 26C23.1089 26 25.9263 23.1826 25.9263 19.7072C25.9263 16.2318 23.1089 13.4144 19.6335 13.4144C16.1581 13.4144 13.3407 16.2318 13.3407 19.7072C13.3407 23.1826 16.1581 26 19.6335 26Z" fill="#A99FAC"/>
<path fill-rule="evenodd" clip-rule="evenodd" d="M18.777 18.2289V21.1464L21.111 19.4792L18.777 18.2289ZM17.3441 17.8206C17.3441 16.9225 18.302 16.349 19.0937 16.7731L22.1343 18.402C22.9108 18.818 22.9807 19.9045 22.2639 20.4165L19.2232 22.5884C18.4367 23.1502 17.3441 22.588 17.3441 21.6214V17.8206Z" fill="#A99FAC"/>
</svg>
