<svg width="36" height="36" viewBox="0 0 36 36" fill="none" xmlns="http://www.w3.org/2000/svg">
<g id="Frame" clip-path="url(#clip0_4173_3480)">
<g id="customer-support-1--customer-headset-help-microphone-phone-support">
<path id="Union" fill-rule="evenodd" clip-rule="evenodd" d="M17.9646 3.85729C16.8897 3.83788 15.8214 4.03063 14.8211 4.42453C13.8207 4.81843 12.9078 5.40573 12.1347 6.15283C11.3616 6.89993 10.7434 7.79215 10.3154 8.77845C9.88753 9.76474 9.65831 10.8257 9.6409 11.9007V23.143C9.6409 23.825 9.36999 24.479 8.88775 24.9613C8.40551 25.4435 7.75146 25.7144 7.06948 25.7144H3.85519C2.83221 25.7144 1.85113 25.3081 1.12778 24.5847C0.404423 23.8613 -0.00195312 22.8803 -0.00195312 21.8573L-0.00195312 16.7144C-0.00195312 15.6915 0.404423 14.7104 1.12778 13.987C1.85113 13.2637 2.83221 12.8573 3.85519 12.8573H5.78376V11.8544C5.80722 10.274 6.14179 8.7137 6.76834 7.2626C7.3949 5.81149 8.30118 4.49803 9.43541 3.39723C10.5696 2.29642 11.9096 1.42983 13.3788 0.846955C14.848 0.264078 16.4176 -0.0236699 17.998 0.000145532C19.5785 -0.0236699 21.1481 0.264078 22.6173 0.846955C24.0865 1.42983 25.4264 2.29642 26.5607 3.39723C27.6949 4.49803 28.6012 5.81149 29.2278 7.2626C29.8543 8.7137 30.1889 10.274 30.2123 11.8544V11.8801V12.8573H32.1409C33.1639 12.8573 34.145 13.2637 34.8683 13.987C35.5917 14.7104 35.998 15.6915 35.998 16.7144V21.8573C35.998 22.8803 35.5917 23.8613 34.8683 24.5847C34.145 25.3081 33.1639 25.7144 32.1409 25.7144H30.2123V27.0001C30.2127 28.7378 29.5732 30.4148 28.4159 31.711C27.2587 33.0072 25.6646 33.832 23.938 34.0279C23.6027 34.6265 23.1138 35.1249 22.5217 35.4716C21.9295 35.8183 21.2556 36.0007 20.5695 36.0001H16.7123C15.6894 36.0001 14.7083 35.5938 13.9849 34.8704C13.2616 34.1471 12.8552 33.166 12.8552 32.143C12.8552 31.12 13.2616 30.1389 13.9849 29.4156C14.7083 28.6922 15.6894 28.2859 16.7123 28.2859H20.5695C21.9632 28.2859 23.1846 29.0239 23.8609 30.1321C24.5697 29.9692 25.2022 29.5708 25.6553 29.0019C26.1083 28.4331 26.3551 27.7274 26.3552 27.0001V11.8981C26.3376 10.8176 26.1059 9.75133 25.6737 8.76088C25.2414 7.77043 24.6171 6.87549 23.8369 6.12778C23.0567 5.38007 22.136 4.79443 21.128 4.40471C20.1201 4.015 19.0449 3.82894 17.9646 3.85729Z" fill="#2A0D32"/>
</g>
</g>
<defs>
<clipPath id="clip0_4173_3480">
<rect width="36" height="36" fill="white"/>
</clipPath>
</defs>
</svg>
