<svg width="257" height="200" viewBox="0 0 257 200" fill="none" xmlns="http://www.w3.org/2000/svg">
<g clip-path="url(#clip0_3371_18226)">
<path d="M216.025 95.5755C219.971 88.877 221.402 80.9944 220.061 73.3386C220.008 73.0354 219.946 72.7331 219.873 72.4315C219.315 69.8011 218.887 67.6645 217.614 65.4302C217.485 65.1509 217.351 64.8735 217.214 64.5981C217.076 64.3228 216.934 64.0494 216.787 63.7781C214.09 58.9087 210.195 54.8061 205.469 51.8575C200.743 48.9089 195.343 47.2115 189.779 46.9256C187.891 29.0589 175.389 12.7191 158.624 6.20653C141.859 -0.305961 121.588 3.30319 108.109 15.2006C93.8676 4.54664 74.1898 1.58835 57.4388 7.58293C40.6878 13.5775 27.3691 28.344 23.143 45.607C21.8506 50.886 21.3118 56.4799 18.615 61.1999C16.5797 64.7622 13.4614 67.5555 10.7961 70.6758C6.52589 75.6748 3.4018 81.5459 1.64269 87.8777C-0.116427 94.2095 -0.468014 100.849 0.612559 107.331C1.69313 113.813 4.17973 119.98 7.89813 125.401C11.6165 130.822 16.4768 135.365 22.1384 138.713C13.1285 151.072 16.2898 170.538 28.7492 179.42C35.9046 184.521 45.4489 186.473 50.9013 193.36C53.2205 196.29 54.5641 199.862 56.5768 203.009C63.4194 213.71 78.6247 218.091 90.1228 212.675L151.195 197.171C171.973 198.736 192.548 192.191 208.593 178.915C214.449 174.022 219.712 168.087 222.249 160.895C224.785 153.703 224.181 145.091 219.311 139.219C230.81 127.392 229.165 105.552 216.025 95.5755Z" fill="#321D2A"/>
<path d="M65.1191 14.7065C65.6712 14.3574 66.2675 14.0835 66.8921 13.8923L67.2242 12.1138L70.215 11.9999L70.6817 13.7477C71.3192 13.8907 71.9347 14.1184 72.5118 14.4246L74.0035 13.4023L76.1989 15.4366L75.2934 17.0016C75.6427 17.5538 75.9165 18.1502 76.1076 18.7751L77.8858 19.1072L77.9998 22.0979L76.2521 22.5647C76.109 23.202 75.8814 23.8174 75.5752 24.3945L76.5973 25.8863L74.5633 28.0818L72.9982 27.1762C72.446 27.5254 71.8496 27.7992 71.2248 27.9904L70.8926 29.7688L67.9019 29.8827L67.4352 28.1349C66.7978 27.9917 66.1824 27.7641 65.6053 27.458L64.1136 28.4802L61.9181 26.446L62.8237 24.8809C62.4744 24.3288 62.2005 23.7324 62.0093 23.1076L60.231 22.7755L60.1171 19.7848L61.8649 19.3179C62.0081 18.6806 62.2357 18.0652 62.5418 17.4881L61.5196 15.9963L63.5537 13.8009L65.1191 14.7065ZM66.7959 18.6593C66.3643 19.1252 66.0805 19.7085 65.9804 20.3356C65.8804 20.9626 65.9685 21.6053 66.2337 22.1823C66.4989 22.7593 66.9292 23.2447 67.4703 23.5771C68.0113 23.9095 68.6388 24.074 69.2734 24.0498C69.9079 24.0256 70.521 23.8138 71.0352 23.4411C71.5494 23.0685 71.9415 22.5517 72.1619 21.9562C72.3824 21.3607 72.4213 20.7132 72.2738 20.0955C72.1263 19.4779 71.7989 18.9179 71.3331 18.4863C71.0238 18.1998 70.6611 17.9769 70.2657 17.8305C69.8703 17.6841 69.45 17.617 69.0286 17.6331C68.6073 17.6492 68.1933 17.7481 67.8102 17.9242C67.4271 18.1002 67.0824 18.3501 66.7959 18.6593Z" fill="#492D3F"/>
<path d="M48.6444 25.972C49.0467 25.7176 49.4811 25.5181 49.9362 25.3787L50.1783 24.0829L52.3574 23.9999L52.6975 25.2734C53.162 25.3776 53.6104 25.5435 54.0309 25.7666L55.1178 25.0217L56.7175 26.504L56.0577 27.6442C56.3122 28.0466 56.5117 28.4812 56.651 28.9365L57.9466 29.1785L58.0297 31.3576L56.7562 31.6977C56.6519 32.1621 56.4861 32.6105 56.263 33.031L57.0078 34.118L55.5257 35.7177L54.3853 35.0578C53.983 35.3123 53.5484 35.5118 53.0932 35.6511L52.8511 36.9469L50.672 37.0299L50.332 35.7564C49.8675 35.652 49.4191 35.4862 48.9986 35.2631L47.9117 36.008L46.312 34.5257L46.9718 33.3854C46.7173 32.9831 46.5178 32.5485 46.3785 32.0933L45.0828 31.8513L44.9998 29.6722L46.2733 29.332C46.3776 28.8676 46.5434 28.4193 46.7665 27.9988L46.0217 26.9118L47.5038 25.3122L48.6444 25.972ZM49.8661 28.8522C49.5517 29.1916 49.3449 29.6166 49.272 30.0735C49.1991 30.5304 49.2633 30.9987 49.4565 31.4191C49.6498 31.8395 49.9633 32.1932 50.3575 32.4354C50.7518 32.6776 51.209 32.7975 51.6713 32.7798C52.1337 32.7622 52.5804 32.6079 52.955 32.3363C53.3297 32.0648 53.6154 31.6883 53.776 31.2543C53.9366 30.8204 53.965 30.3486 53.8575 29.8986C53.75 29.4486 53.5115 29.0406 53.1721 28.7261C52.9467 28.5173 52.6824 28.3549 52.3944 28.2483C52.1063 28.1416 51.8 28.0927 51.493 28.1044C51.186 28.1162 50.8843 28.1882 50.6052 28.3165C50.326 28.4448 50.0749 28.6268 49.8661 28.8522Z" fill="#492D3F"/>
<path d="M123.385 54.2736C123.385 54.2736 121.996 71.2373 130.329 73.7401C138.661 76.2429 168.021 103.55 175.325 96.8218C189.213 84.0296 190.046 82.6391 184.213 76.7991C179.726 72.3064 134.495 58.7231 134.495 58.7231C134.495 58.7231 130.328 48.1555 123.94 48.1555C117.552 48.1555 123.385 54.2736 123.385 54.2736Z" fill="#ECB3B0"/>
<path d="M131.207 52.8766C129.393 50.4351 126.907 48.1555 123.94 48.1555C117.552 48.1555 123.384 54.2736 123.384 54.2736C123.384 54.2736 122.143 69.4988 129.103 73.2241C129.865 66.448 130.589 59.6676 131.207 52.8766Z" fill="#B47F7B"/>
<path d="M109.219 106.833C109.219 106.833 165.326 73.1839 171.436 75.1306C174.511 76.1081 177.292 77.8423 179.524 80.1743C181.756 82.5063 183.368 85.3617 184.213 88.479C184.213 88.479 169.214 107.946 140.883 122.963C112.552 137.98 109.219 106.833 109.219 106.833Z" fill="#ECB3B0"/>
<path d="M138.24 90.1393C123.375 98.3435 109.219 106.833 109.219 106.833C109.219 106.833 112.552 137.98 140.883 122.963C145.863 120.321 150.694 117.408 155.354 114.236C150.125 105.893 144.115 97.992 138.24 90.1393Z" fill="#B47F7B"/>
<path d="M111.441 98.7685C111.441 98.7685 130.884 89.8695 135.883 88.479C135.883 88.479 146.994 114.342 148.382 125.465C148.382 125.465 131.439 137.423 118.385 142.985C105.33 148.547 111.441 98.7685 111.441 98.7685Z" fill="#FDEB56"/>
<path d="M110.583 107.849C109.53 121.93 108.914 147.021 118.385 142.985C124.313 140.46 131.038 136.617 136.619 133.172C130.781 124.239 124.639 115.514 117.436 107.661C115.151 107.519 112.857 107.581 110.583 107.849Z" fill="#D7C74A"/>
<path d="M81.7209 79.8581C81.7209 79.8581 83.3875 95.1533 75.3325 99.8809C67.2776 104.608 51.1676 95.9875 47.0013 117.957C42.8349 139.926 114.496 105.721 114.496 105.721L105.886 78.7457L81.7209 79.8581Z" fill="#ECB3B0"/>
<path d="M84.7761 79.8678C84.7408 84.409 84.0746 89.1254 84.8359 93.6347C85.536 97.7815 87.4673 101.235 89.9337 104.583C92.2078 107.739 94.8939 110.576 97.9205 113.017C107.457 109.08 114.496 105.721 114.496 105.721L105.886 78.7457L84.7471 79.7188C84.7637 79.7669 84.7735 79.817 84.7761 79.8678Z" fill="#B47F7B"/>
<path d="M72.5549 100.159C72.5549 100.159 90.0536 116.288 108.941 108.641L123.662 97.0999C123.662 97.0999 126.815 138.197 133.661 182.196C139.263 218.194 64.5 184.143 64.5 184.143C64.5 184.143 39.7796 125.743 47.0013 111.561C54.223 97.378 72.5549 100.159 72.5549 100.159Z" fill="#FDEB56"/>
<path d="M132.952 177.795C131.432 177.739 129.914 177.644 128.398 177.49C115.621 176.193 103.544 170.619 93.2401 163.07C82.7742 155.403 74.3511 145.411 66.8426 134.895C60.4628 126.075 54.9593 116.652 50.4106 106.76C49.0417 108.181 47.8926 109.799 47.0013 111.561C39.7796 125.743 64.5 184.143 64.5 184.143C64.5 184.143 137.899 213.414 133.661 182.196C133.461 180.719 133.183 179.258 132.952 177.795Z" fill="#D7C74A"/>
<path d="M69.777 141.595C69.777 141.595 71.4436 166.067 70.3325 173.576C70.3325 173.576 121.205 182.08 131.76 185.417C142.315 188.755 145.401 198.392 145.401 198.392C145.401 198.392 65.8884 201.663 50.6118 197.77C35.3352 193.876 38.946 137.145 38.946 137.145L69.777 141.595Z" fill="#ECB3B0"/>
<path d="M70.5366 156.523C70.2647 148.758 69.777 141.595 69.777 141.595L38.946 137.145C38.946 137.145 38.514 143.941 38.5815 152.987C48.4362 156.876 59.7146 157.576 70.5366 156.523Z" fill="#B47F7B"/>
<path d="M57.556 102.384C57.556 102.384 33.1134 106.277 35.3354 147.713C35.3354 147.713 57.556 155.5 75.6102 149.938C75.6102 149.938 76.999 101.827 57.556 102.384Z" fill="#FDEB56"/>
<path d="M109.496 40.0908C109.496 40.0908 133.106 39.8127 128.939 60.1135C124.773 80.4143 125.884 96.5437 120.885 100.993C115.885 105.443 86.7204 107.111 85.8871 79.0238C85.0539 50.9364 90.0535 39.2565 109.496 40.0908Z" fill="#ECB3B0"/>
<path d="M86.1642 71.2373C86.1642 71.2373 87.8307 61.7821 80.0539 62.0602C72.2773 62.3383 78.3875 84.3076 84.4978 81.2486C90.608 78.1896 86.1642 71.2373 86.1642 71.2373Z" fill="#ECB3B0"/>
<path d="M76.3046 68.1782C76.3046 68.1782 76.3046 64.0068 79.6377 62.6164C81.8135 61.7087 84.8598 63.6591 85.4706 66.6487C86.7205 72.7668 77.6934 96.9608 94.0811 105.582L93.9422 104.33C93.9422 104.33 98.8029 108.919 108.941 108.641L109.219 106.833L109.774 108.919C109.774 108.919 122.412 108.641 123.801 100.437L123.107 103.635C123.107 103.635 126.023 102.662 126.579 96.4047C126.863 92.2147 126.583 88.0055 125.745 83.8905C125.745 83.8905 123.107 97.0999 121.162 96.6828C119.218 96.2656 122.69 83.0562 119.357 82.3609C116.024 81.6657 97.1364 77.7724 97.1364 84.7247C97.1364 84.7247 100.608 95.8485 96.1642 95.1533C91.7201 94.458 89.3592 92.6504 89.9147 80.6924C90.3607 72.6323 91.2415 64.6022 92.5534 56.6373C92.5534 56.6373 99.2196 57.7497 99.9139 47.7384C99.9139 47.7384 109.358 59.8354 123.801 58.4449C123.801 58.4449 114.08 57.0545 109.635 52.605C109.635 52.605 127.551 63.0335 142.272 51.4926L137.411 51.7707C137.411 51.7707 144.077 49.1288 142.966 39.3955C142.966 39.3955 140.883 44.2622 137.828 45.2355C137.828 45.2355 142.272 42.1765 141.161 36.6146C141.161 36.6146 137.133 42.1765 133.106 43.1498C133.106 43.1498 140.328 42.4546 139.078 32.3042L134.078 35.2242C134.078 35.2242 137.411 33.4166 137.411 29.9404C137.411 29.9404 128.384 34.668 121.024 32.3042C113.663 29.9404 95.1921 21.8757 90.0536 38.0051C90.0536 38.0051 83.3874 33.8337 76.7212 40.647C70.0551 47.4602 76.3046 68.1782 76.3046 68.1782Z" fill="#1D0F22"/>
<path d="M73.8047 41.0641C74.913 39.9463 76.1594 38.9748 77.5137 38.1732C77.8529 37.9716 78.1988 37.7809 78.5499 37.5984C78.9039 37.4217 79.2612 37.25 79.6275 37.0966C79.9939 36.9446 80.3636 36.7959 80.7441 36.6763C81.1209 36.5457 81.5096 36.4503 81.8985 36.3568L82.4875 36.2362L83.0841 36.1509C83.4842 36.1011 83.8869 36.0747 84.2901 36.0721C84.6951 36.0674 85.1001 36.0839 85.5034 36.1216C85.9068 36.17 86.3072 36.2411 86.7027 36.3347C87.0989 36.4277 87.4898 36.5423 87.8736 36.678C88.2542 36.8221 88.6269 36.9861 88.9903 37.1694C89.3553 37.3486 89.7091 37.5498 90.0498 37.7718C90.3986 37.9815 90.7123 38.2391 91.0438 38.4736L90.3169 39.0276C89.9464 38.0574 89.7649 37.0252 89.7821 35.9867C89.7879 34.9565 89.9829 33.9362 90.3573 32.9766L90.6528 32.2645C90.7701 32.0372 90.9067 31.8203 91.0336 31.5979C91.2888 31.1561 91.5832 30.7383 91.9134 30.3494C92.5578 29.5722 93.2949 28.877 94.1082 28.2793C94.3092 28.1306 94.4968 27.9589 94.7094 27.8295L95.3447 27.4368C95.7586 27.1614 96.1905 26.9141 96.6373 26.6964L97.975 26.0533L98.1422 25.973C98.2398 25.9294 98.2665 25.924 98.3321 25.8976L98.6708 25.7692C98.9018 25.687 99.1105 25.5901 99.3599 25.5199C100.325 25.2144 101.32 25.0113 102.328 24.914C103.324 24.8299 104.326 24.8422 105.32 24.9507C106.303 25.0581 107.278 25.2343 108.236 25.4782C109.191 25.7156 110.128 25.9976 111.048 26.3242C112.891 26.9629 114.679 27.7034 116.478 28.3774C117.377 28.7152 118.282 29.0306 119.201 29.2828C120.114 29.5518 121.049 29.7361 121.996 29.8332C122.942 29.922 123.897 29.8502 124.82 29.621C125.749 29.3761 126.627 28.9662 127.412 28.4109C126.667 29.0434 125.809 29.5268 124.882 29.8347C123.942 30.1304 122.959 30.2653 121.974 30.2336C120.018 30.1089 118.09 29.7071 116.247 29.0401C114.396 28.4476 112.597 27.7438 110.766 27.1824C109.853 26.8958 108.936 26.6363 108.011 26.4252C107.093 26.2101 106.161 26.0597 105.222 25.9754C104.292 25.8959 103.357 25.8977 102.428 25.9807C101.513 26.0761 100.609 26.2649 99.7324 26.5442C99.5162 26.6036 99.2845 26.7107 99.0613 26.7916L98.7234 26.9223C98.6772 26.9412 98.5882 26.9723 98.5771 26.9812L98.4183 27.0589L97.1482 27.6799C96.7281 27.8882 96.3206 28.121 95.9278 28.3772L95.3275 28.7417C95.1261 28.8616 94.9551 29.0196 94.7672 29.1565C94.0186 29.6979 93.3392 30.3293 92.7444 31.0366C92.4461 31.3821 92.1802 31.7543 91.9499 32.1485C91.8365 32.3452 91.7121 32.5367 91.6064 32.7371L91.3365 33.3604C90.9894 34.1995 90.8 35.0956 90.778 36.0035C90.7468 36.9033 90.8827 37.801 91.1788 38.6511L91.7378 40.1488L90.4518 39.2051C90.1492 38.9831 89.8664 38.7294 89.5501 38.5274C89.2424 38.3124 88.9219 38.1164 88.5903 37.9405C88.2612 37.7611 87.9229 37.599 87.5769 37.4548C87.2277 37.3191 86.8714 37.2024 86.5096 37.1053C86.1471 37.0078 85.7797 36.9297 85.4089 36.8716C85.0357 36.8203 84.6601 36.7885 84.2836 36.7762C83.9053 36.7619 83.5264 36.7698 83.1491 36.8001L82.5818 36.8557L82.0175 36.9455C81.6432 37.0173 81.2685 37.0954 80.8998 37.1998C80.5277 37.2919 80.1626 37.4137 79.7989 37.5389C79.4352 37.6657 79.078 37.8113 78.7222 37.9623C78.369 38.1194 78.0192 38.2851 77.6745 38.4626C76.9844 38.8202 76.316 39.2183 75.6728 39.6549C75.021 40.0847 74.3971 40.5554 73.8047 41.0641Z" fill="#1D0F22"/>
<path d="M72.416 31.748C73.3547 31.6565 74.298 31.6198 75.241 31.638C76.186 31.6453 77.13 31.7006 78.0695 31.8035C78.5393 31.857 79.0089 31.9165 79.4761 31.994C79.9442 32.0646 80.4096 32.1558 80.8733 32.2543C81.3379 32.3507 81.7975 32.4695 82.257 32.5906C82.7129 32.7244 83.1704 32.8559 83.6158 33.0255C84.0662 33.1795 84.5045 33.3698 84.9413 33.5604L85.5898 33.8644L86.2219 34.2031C86.4359 34.3102 86.6328 34.4482 86.8392 34.5695C87.046 34.6906 87.2464 34.8223 87.4396 34.9643C87.8397 35.2297 88.2083 35.5387 88.5811 35.8422C88.9417 36.1615 89.2843 36.5005 89.6075 36.8576C89.9324 37.2143 90.2325 37.5926 90.5059 37.9902C90.7754 38.3902 91.0199 38.8067 91.2379 39.2371C91.4567 39.6662 91.6519 40.1071 91.8227 40.5576L91.3633 40.7841C90.7215 39.7024 90.1565 38.5768 89.6726 37.4157C89.1864 36.2551 88.8136 35.05 88.5593 33.8175C88.4954 33.5093 88.4464 33.1974 88.4056 32.885C88.3632 32.5724 88.3385 32.2577 88.3216 31.9425C88.307 31.6267 88.3098 31.3103 88.33 30.9949C88.349 30.6791 88.3892 30.3649 88.4503 30.0545C88.4859 29.9002 88.5158 29.7449 88.5561 29.5923L88.6993 29.1403C88.8091 28.8444 88.9437 28.5584 89.1017 28.2852C89.1766 28.1469 89.2624 28.0147 89.3583 27.8901C89.4444 27.7588 89.5427 27.636 89.6519 27.5232C89.8604 27.291 90.0877 27.0764 90.3314 26.8814C90.1036 27.0919 89.8935 27.3209 89.7033 27.5659C89.6048 27.6846 89.5162 27.8112 89.4384 27.9444C89.3511 28.0711 89.2742 28.2046 89.2084 28.3436C89.0692 28.617 88.9532 28.9016 88.8619 29.1945L88.7466 29.6392C88.7156 29.789 88.6948 29.9412 88.6683 30.0916C88.6253 30.3946 88.6027 30.7002 88.6007 31.0063C88.5889 31.3119 88.6071 31.6186 88.625 31.9239C88.6514 32.2295 88.6853 32.5341 88.7365 32.837C88.7862 33.1397 88.8436 33.4417 88.9159 33.7404C89.2091 34.937 89.6086 36.1049 90.1095 37.2303C90.5956 38.3616 91.1601 39.4575 91.7991 40.5098L91.3398 40.7363C91.1718 40.3079 90.9807 39.8889 90.7673 39.4813C90.5553 39.0735 90.3183 38.6793 90.0577 38.3009C89.7905 37.9273 89.5034 37.5684 89.1977 37.2257C88.8927 36.8814 88.569 36.554 88.2281 36.2453C87.8735 35.951 87.5237 35.6503 87.1409 35.3908C86.9563 35.2518 86.7645 35.1227 86.5662 35.0041C86.3681 34.885 86.18 34.7493 85.9736 34.6435L85.3647 34.3088L84.7379 34.0068C84.315 33.817 83.8903 33.6268 83.4518 33.4717C83.0177 33.3051 82.5747 33.1616 82.1325 33.0149C81.6858 32.8817 81.2382 32.7503 80.7842 32.6407C80.331 32.5288 79.8752 32.424 79.4153 32.3393C78.9566 32.2479 78.4943 32.174 78.0312 32.106C77.1039 31.9769 76.1716 31.8688 75.2344 31.81C74.2975 31.7519 73.3572 31.7227 72.416 31.748Z" fill="#1D0F22"/>
<path d="M99.6362 86.1152C99.6362 86.1152 102.553 76.9381 117.135 89.3133L99.6362 86.1152Z" fill="white"/>
<path d="M117.134 64.2849C117.26 65.765 117.301 67.2442 117.322 68.7224L117.318 70.9392L117.258 73.1545C117.193 74.6304 117.116 76.1067 116.982 77.5808C116.919 78.3187 116.845 79.0555 116.759 79.791C116.663 80.5289 116.556 81.2647 116.439 81.9985L116.347 82.5734L115.852 82.3264C115.396 82.0987 114.938 81.874 114.487 81.6362L113.129 80.9285C112.229 80.4461 111.33 79.961 110.448 79.4385C111.424 79.7511 112.384 80.1011 113.342 80.4538L114.772 80.9988C115.25 81.1785 115.722 81.3713 116.195 81.5612L115.608 81.8891C115.65 81.1563 115.702 80.4259 115.766 79.6979C115.806 78.9647 115.845 78.2303 115.904 77.4984C115.966 76.7672 115.982 76.0296 116.046 75.297L116.202 73.0945C116.319 71.6265 116.439 70.1575 116.588 68.6891C116.668 67.9552 116.738 67.2205 116.833 66.4867C116.916 65.7525 117.021 65.019 117.134 64.2849Z" fill="#B47F7B"/>
<path d="M82.276 78.1896C81.9733 77.8069 81.7252 77.3841 81.5386 76.9331C81.4918 76.8191 81.4507 76.7028 81.4156 76.5847C81.3799 76.4655 81.3514 76.3442 81.3302 76.2216C81.3098 76.097 81.2988 75.9711 81.2973 75.8449C81.2977 75.7161 81.311 75.5878 81.337 75.4617C81.3653 75.3335 81.4095 75.2093 81.4686 75.092C81.5305 74.9749 81.6061 74.8655 81.6936 74.7662C81.791 74.6784 81.8881 74.5875 81.9894 74.5038L82.3306 74.3207C82.4432 74.261 82.5628 74.2158 82.6867 74.1862L83.0508 74.0769L83.7913 73.9677L83.6167 74.1243C83.7418 73.2482 83.8025 72.3532 83.8453 71.4667C83.8855 70.5815 83.8673 69.6947 83.7906 68.8119C83.732 67.9434 83.5391 67.0892 83.2188 66.2799C83.0633 65.8934 82.8411 65.5373 82.5624 65.2278C82.2859 64.9359 81.9332 64.7274 81.5444 64.6258C80.7319 64.4388 79.8787 64.5694 79.1591 64.991C78.8124 65.2148 78.5273 65.5222 78.3302 65.885C78.1294 66.2626 77.9931 66.6711 77.9269 67.0937C77.8065 67.9689 77.8138 68.857 77.9486 69.7301C78.0717 70.6172 78.265 71.4932 78.5265 72.3497C78.18 71.5161 77.9141 70.6512 77.7325 69.7668C77.5294 68.8732 77.4739 67.9522 77.5684 67.0406C77.6212 66.5713 77.7523 66.1142 77.956 65.6883C78.1685 65.2474 78.4927 64.87 78.8963 64.5937C79.3046 64.3287 79.764 64.153 80.2448 64.0779C80.72 63.9852 81.2096 63.9959 81.6803 64.1091C82.1652 64.2328 82.6061 64.4892 82.9537 64.8495C83.2813 65.2043 83.5434 65.6145 83.728 66.061C84.068 66.9251 84.2694 67.8375 84.3248 68.7646C84.3938 69.6726 84.3951 70.5844 84.3289 71.4926C84.2696 72.3977 84.1566 73.2984 83.9904 74.1901L83.9647 74.3316L83.8157 74.3468L83.1177 74.418L82.7837 74.5031C82.6713 74.5238 82.5622 74.5592 82.4591 74.6086L82.1538 74.7537L81.8981 74.9616C81.8227 75.0402 81.755 75.1258 81.6959 75.2173C81.6393 75.312 81.5946 75.4133 81.563 75.519C81.5323 75.6277 81.5125 75.7392 81.5039 75.8519C81.497 75.9673 81.4987 76.083 81.5091 76.1982C81.5206 76.3151 81.5392 76.4312 81.5647 76.5459C81.5901 76.6619 81.6214 76.7765 81.6585 76.8893C81.8113 77.346 82.0186 77.7826 82.276 78.1896Z" fill="#B47F7B"/>
<path d="M118.107 60.3916L118.423 60.8555C118.522 60.9975 118.648 61.1651 118.786 61.3506C118.925 61.5366 119.078 61.7403 119.255 61.9515C119.415 62.1697 119.625 62.3805 119.812 62.6119C120.028 62.8268 120.222 63.0679 120.461 63.282C120.582 63.3884 120.683 63.512 120.806 63.6182C120.933 63.722 121.057 63.8279 121.176 63.9405C121.417 64.1637 121.7 64.3476 121.951 64.5646C122.229 64.7554 122.506 64.9461 122.779 65.1338C123.075 65.2922 123.344 65.4912 123.629 65.6523C123.92 65.8014 124.199 65.9619 124.467 66.1231C124.743 66.2634 125.013 66.3917 125.26 66.5282C125.485 66.661 125.715 66.7826 125.952 66.8924C126.164 66.9948 126.349 67.1013 126.504 67.1858C126.814 67.3578 126.995 67.483 126.995 67.483C126.814 67.5408 126.63 67.588 126.444 67.6243C126.268 67.6592 126.051 67.7055 125.802 67.7389C125.677 67.7567 125.543 67.7744 125.403 67.7846C125.263 67.7839 125.116 67.7833 124.962 67.7826C124.654 67.7729 124.316 67.7622 123.962 67.72C123.612 67.6518 123.241 67.5703 122.86 67.469C122.472 67.3414 122.092 67.1898 121.723 67.015C121.346 66.8144 120.981 66.5929 120.629 66.3515C120.29 66.0859 119.971 65.7959 119.675 65.4838C119.387 65.1818 119.132 64.8503 118.915 64.4947C118.706 64.1689 118.528 63.8249 118.382 63.4669C118.257 63.1466 118.158 62.8167 118.087 62.4804C118.026 62.1988 117.989 61.9125 117.977 61.6247C117.967 61.4032 117.974 61.1813 117.996 60.9608C118.011 60.7674 118.048 60.5764 118.107 60.3916Z" fill="#1A141C"/>
<path d="M113.662 59.9745C113.579 60.2069 113.471 60.4299 113.341 60.6395C113.195 60.883 113.032 61.1157 112.853 61.3358C112.621 61.6244 112.366 61.8942 112.091 62.1429C111.764 62.4378 111.413 62.7059 111.042 62.9447C110.843 63.0709 110.632 63.1894 110.418 63.3169C110.2 63.4363 109.964 63.5275 109.729 63.6357C109.493 63.7498 109.247 63.8427 108.994 63.9135C108.74 63.9928 108.482 64.0707 108.219 64.1408C107.685 64.2558 107.144 64.3383 106.6 64.3879L105.781 64.4067C105.511 64.4202 105.241 64.4092 104.973 64.3738C104.708 64.3483 104.445 64.317 104.187 64.2808C103.931 64.2573 103.678 64.2109 103.431 64.1423C102.943 64.0181 102.475 63.8896 102.041 63.7497C101.617 63.5751 101.222 63.4002 100.864 63.2317C100.687 63.1449 100.518 63.0618 100.356 62.9825C100.203 62.8852 100.058 62.7931 99.921 62.7062C99.6501 62.5312 99.4224 62.3637 99.2352 62.2297C98.8619 61.9589 98.6641 61.7821 98.6641 61.7821C98.6641 61.7821 98.9392 61.7806 99.3935 61.8165C99.6202 61.8359 99.895 61.8546 100.2 61.8932L100.684 61.9572C100.855 61.9686 101.035 61.9806 101.223 61.9932C101.595 62.0227 101.991 62.0623 102.404 62.1145C102.821 62.1345 103.256 62.1495 103.7 62.1876C104.143 62.2372 104.6 62.1873 105.059 62.2173C105.289 62.2271 105.519 62.2218 105.748 62.2014L106.439 62.1696C106.669 62.1604 106.897 62.1378 107.123 62.1019C107.349 62.0676 107.58 62.066 107.802 62.0269C108.239 61.927 108.691 61.8943 109.104 61.7709L109.727 61.622C109.927 61.5612 110.121 61.4955 110.317 61.4424C110.517 61.3958 110.694 61.3148 110.877 61.2533C111.056 61.1869 111.24 61.1357 111.402 61.0609C111.736 60.9254 112.05 60.7991 112.32 60.6674C112.6 60.5472 112.833 60.4208 113.036 60.3222C113.226 60.2114 113.394 60.1361 113.496 60.0706C113.604 60.008 113.662 59.9745 113.662 59.9745Z" fill="#1A141C"/>
<path d="M106.425 68.7997C106.152 70.5447 105.348 71.8678 104.628 71.7549C103.908 71.6421 103.546 70.1361 103.818 68.3911C104.091 66.6461 104.896 65.3229 105.616 65.4358C106.336 65.5486 106.698 67.0547 106.425 68.7997Z" fill="#1A141C"/>
<path d="M122.257 71.5806C121.985 73.3256 121.18 74.6487 120.46 74.5359C119.74 74.4231 119.378 72.917 119.651 71.172C119.923 69.427 120.728 68.1039 121.448 68.2167C122.168 68.3296 122.53 69.8356 122.257 71.5806Z" fill="#1A141C"/>
<path d="M102.553 70.2639L102.606 70.6877C102.637 70.9561 102.702 71.3376 102.791 71.7853C102.838 72.009 102.897 72.2477 102.964 72.4964C103.038 72.7511 103.129 73.0004 103.238 73.2424C103.345 73.4842 103.495 73.7051 103.679 73.8948C103.848 74.0695 104.078 74.173 104.321 74.1841C104.563 74.1706 104.793 74.0761 104.974 73.9157C105.188 73.741 105.381 73.5434 105.551 73.3265C105.865 72.9179 106.15 72.4877 106.403 72.0391C106.629 71.6404 106.82 71.3032 106.939 71.0607C107.064 70.8191 107.135 70.6811 107.135 70.6811C107.031 71.192 106.882 71.6928 106.69 72.1776C106.497 72.6848 106.247 73.1683 105.944 73.6186C105.766 73.885 105.553 74.1259 105.31 74.3347C105.029 74.5872 104.667 74.7306 104.29 74.7391C103.914 74.7138 103.562 74.5486 103.302 74.276C103.076 74.0325 102.901 73.7459 102.789 73.4334C102.685 73.16 102.609 72.877 102.561 72.5886C102.518 72.3361 102.49 72.0814 102.476 71.8258C102.446 71.3039 102.472 70.7804 102.553 70.2639Z" fill="#B47F7B"/>
<path d="M118.801 73.1839C118.801 73.1839 118.82 73.32 118.853 73.5582C118.879 73.7954 118.942 74.1323 119.013 74.5294C119.091 74.9738 119.205 75.411 119.355 75.8366C119.433 76.0592 119.543 76.2695 119.681 76.4611C119.736 76.5455 119.807 76.6178 119.891 76.6736C119.975 76.7295 120.069 76.7677 120.168 76.7861L120.202 76.7965L120.21 76.7993L120.214 76.8007C120.224 76.8012 120.141 76.7994 120.178 76.8001L120.181 76.8L120.206 76.7989L120.308 76.7948C120.369 76.7887 120.462 76.7984 120.485 76.7725C120.521 76.7552 120.559 76.7417 120.599 76.7323L120.734 76.6486C120.826 76.5843 120.914 76.5128 120.995 76.4349C121.07 76.3422 121.155 76.2626 121.222 76.1629C121.479 75.7952 121.701 75.404 121.885 74.9944C122.052 74.6279 122.192 74.3156 122.274 74.0915L122.412 73.7401C122.412 73.7401 122.409 73.8786 122.378 74.1184C122.336 74.4509 122.271 74.78 122.185 75.1037C122.064 75.5738 121.875 76.0237 121.625 76.4397C121.475 76.6942 121.275 76.9158 121.038 77.0911C120.97 77.1351 120.906 77.1808 120.832 77.2214C120.744 77.2557 120.653 77.287 120.562 77.3138C120.489 77.3355 120.413 77.3462 120.338 77.3456L120.236 77.3522L120.21 77.3539L120.164 77.3532L120.156 77.3515L120.139 77.3482L120.074 77.3339C119.907 77.3006 119.748 77.2345 119.606 77.1392C119.464 77.044 119.343 76.9216 119.249 76.7791C119.086 76.5383 118.966 76.2718 118.892 75.9909C118.82 75.7444 118.77 75.4919 118.743 75.2364C118.714 75.0125 118.698 74.7871 118.697 74.5614C118.693 74.2268 118.709 73.8922 118.745 73.5595C118.772 73.3193 118.801 73.1839 118.801 73.1839Z" fill="#B47F7B"/>
<path d="M202.678 199.471H135.356L160.829 143.763H228.151L202.678 199.471Z" fill="#200B26"/>
<path d="M144.681 193.463H97.8281V199.471H144.681V193.463Z" fill="#200B26"/>
<path d="M207.227 199.471H139.904L165.378 143.763H232.7L207.227 199.471Z" fill="#2A0D32"/>
<line x1="256.441" y1="199.489" x2="-0.558594" y2="199.489" stroke="#3D2644" stroke-width="1.21212"/>
<path d="M207.75 43.5965L212.861 45.7398C212.861 45.7398 214.661 41.4477 219.154 43.2409C220.026 43.5703 220.774 44.1633 221.293 44.9374C221.813 45.7115 222.078 46.6283 222.052 47.5602C222.041 48.3434 221.846 49.1129 221.481 49.8059C221.116 50.4989 220.592 51.0958 219.952 51.5478C218.486 52.6139 216.041 53.1166 212.851 51.0653L208.018 62.5912L213.073 64.7104L215.904 57.9588C215.904 57.9588 223.761 59.0985 227.037 51.2859C230.17 43.811 224.195 39.2644 221.326 38.0614C219.131 37.1415 211.434 34.5379 207.75 43.5965Z" fill="#F71756"/>
<path d="M212.139 67.1104L207.009 64.9597L205 69.7507L210.13 71.9014L212.139 67.1104Z" fill="#F71756"/>
<path d="M3.60862 143.532L5.95142 141.922C5.95142 141.922 4.59903 139.955 6.61903 138.514C7.00309 138.229 7.46638 138.071 7.94447 138.062C8.42257 138.052 8.89169 138.192 9.28661 138.462C9.62147 138.684 9.8991 138.982 10.0968 139.331C10.2945 139.681 10.4068 140.073 10.4243 140.474C10.4774 141.402 10.016 142.597 8.24591 143.404L11.8776 148.686L14.1942 147.094L12.0668 143.999C12.0668 143.999 14.7384 140.926 12.2767 137.345C9.92141 133.919 6.30221 135.236 4.98714 136.14C3.98152 136.831 0.722844 139.43 3.60862 143.532Z" fill="#492D3F"/>
<path d="M14.9703 148.162L12.6193 149.779L14.1289 151.975L16.4799 150.358L14.9703 148.162Z" fill="#492D3F"/>
<path d="M5.43458 51.8317L10.7182 62.9104C10.927 63.3481 11.2886 63.6944 11.735 63.8841C12.1814 64.0737 12.6817 64.0936 13.1418 63.94C13.6253 63.7785 14.0283 63.4375 14.2674 62.9873C14.5066 62.5371 14.5637 62.0123 14.4268 61.5212L11.102 49.5897C11.0426 49.3767 10.9386 49.1788 10.797 49.009C10.6553 48.8393 10.4792 48.7016 10.2802 48.6051C10.0813 48.5086 9.86416 48.4555 9.64315 48.4494C9.42214 48.4432 9.20235 48.4841 8.99835 48.5693L6.24106 49.7213C6.04611 49.8027 5.86975 49.9229 5.72267 50.0746C5.57559 50.2263 5.46085 50.4062 5.38543 50.6036C5.31002 50.801 5.27548 51.0116 5.28393 51.2227C5.29238 51.4338 5.34363 51.641 5.43458 51.8317Z" fill="#F71756"/>
<path d="M18.7222 69.1241C18.7584 69.7143 18.6187 70.3019 18.3209 70.8128C18.0231 71.3236 17.5805 71.7347 17.0491 71.9939C16.5177 72.2532 15.9213 72.3491 15.3354 72.2695C14.7495 72.1898 14.2003 71.9382 13.7574 71.5465C13.3145 71.1547 12.9977 70.6404 12.847 70.0686C12.6964 69.4968 12.7187 68.8932 12.9111 68.3341C13.1035 67.775 13.4574 67.2855 13.9281 66.9275C14.3987 66.5695 14.9649 66.3591 15.5551 66.3229C15.947 66.2988 16.3398 66.3522 16.711 66.48C17.0823 66.6077 17.4248 66.8074 17.7189 67.0675C18.013 67.3276 18.2529 67.6431 18.4251 67.996C18.5973 68.3488 18.6982 68.7322 18.7222 69.1241Z" fill="#F71756"/>
<path d="M228.039 109.649L225.477 116.881C225.376 117.167 225.383 117.48 225.496 117.761C225.61 118.042 225.822 118.272 226.093 118.407C226.378 118.55 226.707 118.577 227.012 118.484C227.317 118.391 227.574 118.184 227.73 117.906L231.534 111.163C231.602 111.043 231.644 110.91 231.656 110.772C231.669 110.634 231.652 110.496 231.606 110.365C231.561 110.234 231.489 110.115 231.394 110.015C231.299 109.914 231.183 109.835 231.056 109.783L229.328 109.073C229.206 109.023 229.075 108.998 228.942 109C228.81 109.002 228.68 109.031 228.56 109.085C228.439 109.139 228.331 109.217 228.241 109.314C228.152 109.411 228.083 109.525 228.039 109.649Z" fill="#492D3F"/>
<path d="M226.269 123.165C226.024 123.442 225.702 123.64 225.345 123.734C224.987 123.828 224.61 123.814 224.261 123.694C223.911 123.574 223.605 123.353 223.381 123.058C223.158 122.764 223.026 122.41 223.004 122.041C222.981 121.672 223.068 121.305 223.254 120.986C223.44 120.667 223.717 120.41 224.049 120.248C224.381 120.085 224.754 120.026 225.12 120.075C225.487 120.125 225.83 120.282 226.107 120.527C226.291 120.69 226.441 120.887 226.548 121.108C226.656 121.328 226.719 121.568 226.734 121.813C226.749 122.058 226.716 122.303 226.636 122.535C226.556 122.767 226.431 122.981 226.269 123.165Z" fill="#492D3F"/>
<path d="M187.307 107L181.62 117.316L183.631 117.787L180 127.138L186.834 115.51L184.76 115.023L187.307 107Z" fill="#492D3F"/>
<path d="M49 76.9418L56.272 86.2085L57.4918 84.5419L64.6788 91.5394L56.648 80.7039L55.3893 82.4225L49 76.9418Z" fill="#492D3F"/>
<path d="M151.525 12.0042C151.886 11.0891 152.449 10.267 153.171 9.59848C153.893 8.92998 154.756 8.43216 155.696 8.14177C157.316 7.67935 159.223 7.86056 160.486 6.74595C161.087 6.2162 161.442 5.46462 161.971 4.86383C162.987 3.83594 164.336 3.20385 165.775 3.08111C170.53 2.44006 174.89 5.69357 176.624 9.5007C178.568 10.7857 180.544 12.0997 182.012 13.91C183.479 15.7204 184.384 18.1386 183.84 20.4047C183.441 22.0689 182.316 23.4866 181.905 25.1482C181.531 26.6649 181.781 28.2602 181.66 29.8178C181.539 31.3753 180.877 33.084 179.422 33.6532C177.629 34.355 175.406 33.034 173.749 34.0165C172.622 34.6844 172.261 36.146 171.341 37.0783C169.746 38.6957 167.058 38.2799 164.911 37.5367C162.428 36.6765 160.05 35.5376 157.823 34.1419C156.332 33.2808 155.012 32.1527 153.93 30.814C153.393 30.1416 152.996 29.3686 152.762 28.5404C152.528 27.7122 152.462 26.8456 152.568 25.9916C152.741 24.9584 153.236 23.9873 153.301 22.9417C153.414 21.1007 152.202 19.479 151.547 17.7547C150.825 15.9073 150.817 13.8572 151.525 12.0042Z" fill="#492D3F"/>
<path d="M155.078 31.9812L159.72 35.1801L159.727 35.1862L154.977 36.8696L155.078 31.9812Z" fill="#492D3F"/>
<path d="M171.219 20.4514C171.219 20.8301 171.331 21.2003 171.542 21.5152C171.752 21.8301 172.051 22.0755 172.401 22.2204C172.751 22.3653 173.136 22.4033 173.507 22.3294C173.879 22.2555 174.22 22.0731 174.488 21.8054C174.755 21.5376 174.938 21.1964 175.012 20.825C175.085 20.4536 175.048 20.0686 174.903 19.7188C174.758 19.3689 174.512 19.0698 174.197 18.8594C173.883 18.6491 173.512 18.5367 173.134 18.5367C172.626 18.5367 172.139 18.7385 171.78 19.0975C171.421 19.4566 171.219 19.9436 171.219 20.4514Z" fill="#FDEB56"/>
<path d="M165.273 20.4514C165.273 20.8301 165.385 21.2003 165.595 21.5152C165.806 21.83 166.105 22.0754 166.455 22.2204C166.805 22.3653 167.189 22.4032 167.561 22.3293C167.932 22.2554 168.273 22.0731 168.541 21.8053C168.809 21.5375 168.991 21.1964 169.065 20.825C169.139 20.4536 169.101 20.0686 168.956 19.7187C168.811 19.3689 168.566 19.0698 168.251 18.8594C167.936 18.649 167.566 18.5367 167.187 18.5367C166.68 18.5367 166.193 18.7385 165.833 19.0976C165.474 19.4566 165.273 19.9436 165.273 20.4514Z" fill="#FDEB56"/>
<path d="M159.326 20.4514C159.326 20.8301 159.439 21.2003 159.649 21.5152C159.859 21.8301 160.158 22.0755 160.508 22.2204C160.858 22.3653 161.243 22.4033 161.615 22.3294C161.986 22.2555 162.327 22.0731 162.595 21.8054C162.863 21.5376 163.045 21.1964 163.119 20.825C163.193 20.4536 163.155 20.0686 163.01 19.7187C162.865 19.3688 162.62 19.0698 162.305 18.8594C161.99 18.649 161.62 18.5367 161.241 18.5367C160.733 18.5367 160.246 18.7385 159.887 19.0976C159.528 19.4566 159.326 19.9436 159.326 20.4514Z" fill="#FDEB56"/>
</g>
<defs>
<clipPath id="clip0_3371_18226">
<rect width="257" height="200" fill="white"/>
</clipPath>
</defs>
</svg>
