<svg width="36" height="37" viewBox="0 0 36 37" fill="none" xmlns="http://www.w3.org/2000/svg">
<rect y="0.5" width="36" height="36" rx="4" fill="#FDEB56" fill-opacity="0.15"/>
<path d="M8.5 11.002H27.5" stroke="#FDEB56" stroke-width="1.5" stroke-linecap="round" stroke-linejoin="round"/>
<path d="M10.5 11.002V22.001C10.5 24.3298 10.9306 25.0903 12.9275 26.2885L15.942 28.0972C16.9447 28.6987 17.446 28.9996 18 28.9996C18.554 28.9996 19.0553 28.6987 20.058 28.0972L23.0725 26.2885C25.0694 25.0903 25.5 24.3298 25.5 22.001V11.002" stroke="#FDEB56" stroke-width="1.5" stroke-linecap="round" stroke-linejoin="round"/>
<path d="M18.6047 16.0055L19.2206 17.2475C19.3046 17.4204 19.5286 17.5863 19.7175 17.618L20.8339 17.805C21.5478 17.925 21.7158 18.4472 21.2014 18.9624L20.3335 19.8374C20.1865 19.9856 20.106 20.2715 20.1515 20.4761L20.4 21.5594C20.5959 22.4168 20.1445 22.7485 19.3921 22.3004L18.3457 21.6758C18.1567 21.5629 17.8452 21.5629 17.6528 21.6758L16.6064 22.3004C15.8575 22.7485 15.4025 22.4133 15.5985 21.5594L15.847 20.4761C15.8925 20.2715 15.812 19.9856 15.665 19.8374L14.7971 18.9624C14.2862 18.4472 14.4506 17.925 15.1646 17.805L16.2809 17.618C16.4664 17.5863 16.6904 17.4204 16.7744 17.2475L17.3903 16.0055C17.7263 15.3315 18.2722 15.3315 18.6047 16.0055Z" stroke="#FDEB56" stroke-width="1.5" stroke-linecap="round" stroke-linejoin="round"/>
</svg>
