<svg width="60" height="60" viewBox="0 0 60 60" fill="none" xmlns="http://www.w3.org/2000/svg">
<circle cx="30" cy="30" r="30" fill="#3D2644"/>
<path d="M43.3346 20.0001C43.3346 20.0001 39.5138 17.0101 35.0013 16.6667L34.5946 17.4801C38.6746 18.4784 40.5463 19.9092 42.5013 21.6667C39.1305 19.9459 35.8021 18.3334 30.0013 18.3334C24.2005 18.3334 20.8721 19.9459 17.5013 21.6667C19.4563 19.9092 21.683 18.3209 25.408 17.4801L25.0013 16.6667C20.2671 17.1142 16.668 20.0001 16.668 20.0001C16.668 20.0001 12.4005 26.1876 11.668 38.3334C15.9696 43.2942 22.5013 43.3334 22.5013 43.3334L23.8671 41.5126C21.5488 40.7067 18.9305 39.2676 16.668 36.6667C19.3663 38.7084 23.4388 40.8334 30.0013 40.8334C36.5638 40.8334 40.6363 38.7084 43.3346 36.6667C41.0721 39.2676 38.4538 40.7067 36.1355 41.5126L37.5013 43.3334C37.5013 43.3334 44.033 43.2942 48.3346 38.3334C47.6021 26.1876 43.3346 20.0001 43.3346 20.0001ZM24.5846 35.0001C22.9738 35.0001 21.668 33.5076 21.668 31.6667C21.668 29.8259 22.9738 28.3334 24.5846 28.3334C26.1955 28.3334 27.5013 29.8259 27.5013 31.6667C27.5013 33.5076 26.1955 35.0001 24.5846 35.0001ZM35.418 35.0001C33.8071 35.0001 32.5013 33.5076 32.5013 31.6667C32.5013 29.8259 33.8071 28.3334 35.418 28.3334C37.0288 28.3334 38.3346 29.8259 38.3346 31.6667C38.3346 33.5076 37.0288 35.0001 35.418 35.0001Z" fill="#8C9EFF"/>
</svg>
