<?xml version="1.0" encoding="UTF-8"?><svg id="Layer_2" xmlns="http://www.w3.org/2000/svg" viewBox="0 0 24 24"><defs><style>.cls-1{fill:#5865f2;stroke-width:0px;}</style></defs><g id="_图层_2"><g id="Discord_Logos"><g id="Discord_Logo_-_Large_-_White"><path class="cls-1" d="m18.94,5.69c-1.31-.6-2.7-1.03-4.13-1.27-.19.35-.37.71-.53,1.07-1.52-.23-3.06-.23-4.58,0-.16-.37-.33-.73-.53-1.07-1.43.24-2.81.67-4.13,1.27-2.61,3.86-3.32,7.63-2.97,11.34h0c1.53,1.13,3.24,1.99,5.06,2.54.41-.55.77-1.14,1.08-1.75-.59-.22-1.16-.49-1.71-.81.14-.1.28-.21.42-.31,3.2,1.51,6.91,1.51,10.12,0,.14.11.28.22.42.31-.54.32-1.12.59-1.71.82.31.61.67,1.2,1.08,1.75,1.82-.55,3.53-1.41,5.06-2.54h0c.42-4.31-.71-8.04-2.97-11.35Zm-10.26,9.06c-.99,0-1.8-.9-1.8-2s.79-2,1.8-2,1.82.9,1.8,2-.79,2-1.8,2Zm6.64,0c-.99,0-1.8-.9-1.8-2s.79-2,1.8-2,1.82.9,1.8,2-.79,2-1.8,2Z"/></g></g></g></svg>