<svg width="20" height="21" viewBox="0 0 20 21" fill="none" xmlns="http://www.w3.org/2000/svg">
<path d="M16.6498 4.42521C15.0576 3.14396 12.5389 2.92677 12.4311 2.91896C12.2639 2.9049 12.1045 2.99865 12.0357 3.15333C12.0295 3.16271 11.9748 3.28927 11.9139 3.48615C12.967 3.66427 14.2607 4.02208 15.4311 4.74865C15.6186 4.86427 15.6764 5.11115 15.5607 5.29865C15.4842 5.42208 15.3545 5.48927 15.2201 5.48927C15.1482 5.48927 15.0748 5.46896 15.0092 5.42833C12.9967 4.1799 10.4842 4.1174 9.99981 4.1174C9.51543 4.1174 7.00137 4.1799 4.99043 5.42833C4.80293 5.54552 4.55606 5.48771 4.44043 5.30021C4.32324 5.11115 4.38106 4.86583 4.56856 4.74865C5.73887 4.02365 7.03262 3.66427 8.08574 3.48771C8.02481 3.28927 7.97012 3.16427 7.96543 3.15333C7.89512 2.99865 7.73731 2.90177 7.56856 2.91896C7.46074 2.92677 4.94199 3.14396 3.32793 4.4424C2.48574 5.22208 0.799805 9.77833 0.799805 13.7174C0.799805 13.7877 0.818555 13.8549 0.85293 13.9158C2.01543 15.9596 5.18887 16.494 5.91231 16.5174C5.91543 16.5174 5.92012 16.5174 5.92481 16.5174C6.05293 16.5174 6.17324 16.4565 6.24824 16.3533L6.97949 15.3471C5.00605 14.8377 3.99824 13.9721 3.94043 13.9205C3.77481 13.7752 3.75918 13.5221 3.90605 13.3565C4.05137 13.1908 4.30449 13.1752 4.47012 13.3205C4.49356 13.3424 6.34981 14.9174 9.99981 14.9174C13.6561 14.9174 15.5123 13.3361 15.5311 13.3205C15.6967 13.1768 15.9482 13.1908 16.0951 13.358C16.2404 13.5236 16.2248 13.7752 16.0592 13.9205C16.0014 13.9721 14.9936 14.8377 13.0201 15.3471L13.7514 16.3533C13.8264 16.4565 13.9467 16.5174 14.0748 16.5174C14.0795 16.5174 14.0842 16.5174 14.0873 16.5174C14.8107 16.494 17.9842 15.9596 19.1467 13.9158C19.1811 13.8549 19.1998 13.7877 19.1998 13.7174C19.1998 9.77833 17.5139 5.22208 16.6498 4.42521ZM7.39981 12.1174C6.62637 12.1174 5.9998 11.4018 5.9998 10.5174C5.9998 9.63302 6.62637 8.9174 7.39981 8.9174C8.17324 8.9174 8.79981 9.63302 8.79981 10.5174C8.79981 11.4018 8.17324 12.1174 7.39981 12.1174ZM12.5998 12.1174C11.8264 12.1174 11.1998 11.4018 11.1998 10.5174C11.1998 9.63302 11.8264 8.9174 12.5998 8.9174C13.3732 8.9174 13.9998 9.63302 13.9998 10.5174C13.9998 11.4018 13.3732 12.1174 12.5998 12.1174Z" fill="white" fill-opacity="0.5"/>
</svg>
