<svg width="24" height="24" viewBox="0 0 24 24" fill="none" xmlns="http://www.w3.org/2000/svg">
<path opacity="0.3" d="M15.45 6C15.4032 4.94955 14.9446 3.95979 14.1736 3.24488C13.4025 2.52996 12.3809 2.14741 11.33 2.18H6.99997C5.9422 2.13662 4.91037 2.51434 4.1306 3.23038C3.35083 3.94641 2.88672 4.94237 2.83997 6V18C2.88414 19.0594 3.34714 20.0579 4.12719 20.7761C4.90725 21.4943 5.94054 21.8733 6.99997 21.83H11.37C12.4158 21.8519 13.4285 21.4632 14.1912 20.7472C14.9539 20.0313 15.4057 19.0451 15.45 18V6Z" fill="#9C9C9C"/>
<path d="M8.68994 11.25H18.5999L16.9999 9.60999C16.8595 9.46936 16.7806 9.27874 16.7806 9.07999C16.7806 8.88123 16.8595 8.69061 16.9999 8.54999C17.0689 8.47923 17.1513 8.42299 17.2423 8.38459C17.3334 8.3462 17.4311 8.32642 17.5299 8.32642C17.6287 8.32642 17.7265 8.3462 17.8176 8.38459C17.9086 8.42299 17.991 8.47923 18.0599 8.54999L20.9899 11.47C21.1304 11.6106 21.2093 11.8012 21.2093 12C21.2093 12.1987 21.1304 12.3894 20.9899 12.53L17.9999 15.45C17.931 15.5206 17.8486 15.5764 17.7575 15.6142C17.6664 15.6521 17.5686 15.671 17.4699 15.67C17.3714 15.6705 17.2738 15.6512 17.1827 15.6135C17.0917 15.5757 17.0092 15.5201 16.9399 15.45C16.7995 15.3094 16.7206 15.1187 16.7206 14.92C16.7206 14.7212 16.7995 14.5306 16.9399 14.39L18.5899 12.75H8.68994C8.49103 12.75 8.30026 12.671 8.15961 12.5303C8.01896 12.3897 7.93994 12.1989 7.93994 12C7.93994 11.8011 8.01896 11.6103 8.15961 11.4697C8.30026 11.329 8.49103 11.25 8.68994 11.25Z" fill="#9C9C9C"/>
</svg>
