<svg xmlns="http://www.w3.org/2000/svg" width="40" height="40" viewBox="0 0 40 40" fill="none">
  <path d="M33.4199 10.125C33.3658 10.04 33.3041 9.97329 33.2233 9.91245C32.5824 9.43079 29.3308 7.12995 25.1691 6.68329C25.1608 6.68245 25.1291 6.68079 25.1216 6.68079C25.0399 6.68079 24.9691 6.72829 24.9349 6.79745L24.7108 7.24579C24.6966 7.27329 24.6883 7.30495 24.6883 7.33829C24.6883 7.42912 24.7466 7.50662 24.8283 7.53495C24.8333 7.53662 24.8683 7.54412 24.8808 7.54662C28.4366 8.40329 30.5999 9.95495 32.5049 11.6675C29.1324 9.94579 25.8016 8.33329 19.9974 8.33329C14.1933 8.33329 10.8633 9.94662 7.48994 11.6675C9.39494 9.95495 11.5583 8.40329 15.1141 7.54662C15.1266 7.54329 15.1616 7.53662 15.1666 7.53495C15.2483 7.50662 15.3066 7.42912 15.3066 7.33829C15.3066 7.30495 15.2991 7.27329 15.2849 7.24579L15.0599 6.79745C15.0258 6.72829 14.9558 6.68079 14.8733 6.68079C14.8658 6.68079 14.8333 6.68245 14.8258 6.68329C10.6641 7.12995 7.41244 9.43079 6.77161 9.91245C6.69077 9.97329 6.62994 10.04 6.57494 10.125C5.98494 11.0475 2.36744 17.115 1.66494 28.1516C1.65744 28.27 1.69827 28.3925 1.77744 28.4808C5.60411 32.7675 11.0958 33.2741 12.2674 33.3333C12.4066 33.34 12.5399 33.2791 12.6233 33.1675L13.6916 31.7433C13.7749 31.6316 13.7299 31.475 13.5991 31.4275C11.3449 30.6058 8.83494 29.1775 6.65577 26.6725C9.35661 28.7141 13.4308 30.8333 19.9974 30.8333C26.5641 30.8333 30.6383 28.7141 33.3383 26.6725C31.1583 29.1775 28.6491 30.605 26.3949 31.4275C26.2641 31.475 26.2191 31.6316 26.3024 31.7433L27.3708 33.1675C27.4549 33.2791 27.5874 33.3408 27.7266 33.3333C28.8991 33.2733 34.3899 32.7675 38.2166 28.4808C38.2958 28.3925 38.3366 28.27 38.3291 28.1516C37.6274 17.115 34.0099 11.0475 33.4199 10.125Z" fill="url(#paint0_radial_1130_85096)"/>
  <path opacity="0.05" d="M25.4141 25.8333C27.4851 25.8333 29.1641 23.9679 29.1641 21.6667C29.1641 19.3655 27.4851 17.5 25.4141 17.5C23.343 17.5 21.6641 19.3655 21.6641 21.6667C21.6641 23.9679 23.343 25.8333 25.4141 25.8333Z" fill="black"/>
  <path opacity="0.05" d="M25.4193 25.4166C27.2602 25.4166 28.7526 23.7377 28.7526 21.6666C28.7526 19.5956 27.2602 17.9166 25.4193 17.9166C23.5783 17.9166 22.0859 19.5956 22.0859 21.6666C22.0859 23.7377 23.5783 25.4166 25.4193 25.4166Z" fill="black"/>
  <path d="M25.4167 25C27.0275 25 28.3333 23.5077 28.3333 21.6667C28.3333 19.8258 27.0275 18.3334 25.4167 18.3334C23.8058 18.3334 22.5 19.8258 22.5 21.6667C22.5 23.5077 23.8058 25 25.4167 25Z" fill="white"/>
  <path opacity="0.05" d="M14.5859 25.8333C16.657 25.8333 18.3359 23.9679 18.3359 21.6667C18.3359 19.3655 16.657 17.5 14.5859 17.5C12.5149 17.5 10.8359 19.3655 10.8359 21.6667C10.8359 23.9679 12.5149 25.8333 14.5859 25.8333Z" fill="black"/>
  <path opacity="0.05" d="M14.5833 25.4166C16.4243 25.4166 17.9167 23.7377 17.9167 21.6666C17.9167 19.5956 16.4243 17.9166 14.5833 17.9166C12.7424 17.9166 11.25 19.5956 11.25 21.6666C11.25 23.7377 12.7424 25.4166 14.5833 25.4166Z" fill="black"/>
  <path d="M14.5807 25C16.1916 25 17.4974 23.5077 17.4974 21.6667C17.4974 19.8258 16.1916 18.3334 14.5807 18.3334C12.9699 18.3334 11.6641 19.8258 11.6641 21.6667C11.6641 23.5077 12.9699 25 14.5807 25Z" fill="white"/>
  <defs>
    <radialGradient id="paint0_radial_1130_85096" cx="0" cy="0" r="1" gradientUnits="userSpaceOnUse" gradientTransform="translate(19.9974 8.34079) scale(26.8767)">
      <stop stop-color="#8C9EFF"/>
      <stop offset="0.368" stop-color="#889AF8"/>
      <stop offset="0.889" stop-color="#7E8FE6"/>
      <stop offset="1" stop-color="#7B8CE1"/>
    </radialGradient>
  </defs>
</svg>