<svg width="24" height="24" viewBox="0 0 24 24" fill="none" xmlns="http://www.w3.org/2000/svg">
<path d="M10.6667 2L13.3333 2C13.8856 2 14.3333 2.44772 14.3333 3L14.3333 13.1043C14.3333 13.2148 14.4229 13.3043 14.5333 13.3043L18.5822 13.3043C18.7502 13.3043 18.8434 13.4989 18.738 13.6298L12.1558 21.8065C12.0757 21.9059 11.9243 21.9059 11.8442 21.8065L5.26196 13.6298C5.15662 13.4989 5.24977 13.3043 5.41775 13.3043L9.46667 13.3043C9.57712 13.3043 9.66667 13.2148 9.66667 13.1043L9.66667 3C9.66667 2.44771 10.1144 2 10.6667 2Z" stroke="#BEB6C0"/>
</svg>
