<svg width="18" height="18" viewBox="0 0 18 18" fill="none" xmlns="http://www.w3.org/2000/svg">
<g id="dollar-circle">
<path id="Vector" d="M16.5 9C16.5 13.1421 13.1421 16.5 9 16.5C4.85786 16.5 1.5 13.1421 1.5 9C1.5 4.85786 4.85786 1.5 9 1.5C13.1421 1.5 16.5 4.85786 16.5 9Z" stroke="white" stroke-opacity="0.7"/>
<path id="Vector_2" d="M11.0326 7.54582C10.9583 6.97383 10.3015 6.04966 9.1206 6.04964C7.7484 6.04962 7.17102 6.80959 7.05386 7.18958C6.87108 7.69785 6.90764 8.74282 8.51602 8.85675C10.5265 8.99925 11.332 9.23655 11.2295 10.467C11.127 11.6974 10.0063 11.9632 9.1206 11.9347C8.23485 11.9062 6.78573 11.4994 6.72949 10.405M8.98005 5.24854V6.05236M8.98005 11.9273V12.7485" stroke="white" stroke-opacity="0.7" stroke-linecap="round"/>
</g>
</svg>
