<svg xmlns="http://www.w3.org/2000/svg" width="28" height="28" viewBox="0 0 28 28" fill="none">
<path d="M25.6258 16.3741C26.937 9.95335 22.7949 3.68534 16.3742 2.37412C9.95341 1.06289 3.6854 5.205 2.37418 11.6258C1.06296 18.0465 5.20506 24.3145 11.6258 25.6258C18.0466 26.937 24.3146 22.7949 25.6258 16.3741Z" fill="#FFDF34"/>
<path fill-rule="evenodd" clip-rule="evenodd" d="M2.66418 14.1558C2.66061 13.8757 2.66732 13.5934 2.68465 13.3095C2.70198 13.0255 2.72963 12.7445 2.76724 12.4669L3.86891 12.6161C3.83497 12.8667 3.80999 13.1205 3.79432 13.3772C3.77866 13.6338 3.7726 13.8888 3.77583 14.1417L2.66418 14.1558ZM3.46543 9.80423C3.67572 9.27592 3.92432 8.76796 4.20756 8.28354L5.16728 8.8447C4.91191 9.28144 4.68785 9.7393 4.49834 10.2154L3.46543 9.80423ZM3.58518 18.4833C3.36294 17.968 3.17795 17.4336 3.03345 16.8836L4.10869 16.6011C4.23891 17.0967 4.40563 17.5784 4.60601 18.043L3.58518 18.4833ZM5.87495 6.0938C6.26873 5.68942 6.69214 5.31471 7.1414 4.97302L7.81441 5.8579C7.40896 6.16628 7.02682 6.50446 6.67144 6.86941L5.87495 6.0938ZM6.09474 22.1259C5.69036 21.7322 5.31566 21.3088 4.97396 20.8595L5.85885 20.1865C6.16722 20.5919 6.5054 20.9741 6.87035 21.3295L6.09474 22.1259ZM9.51763 3.58424C10.0329 3.36199 10.5673 3.17701 11.1173 3.0325L11.3998 4.10774C10.9042 4.23796 10.4225 4.40469 9.95794 4.60506L9.51763 3.58424ZM9.80517 24.5355C9.27686 24.3252 8.7689 24.0766 8.28448 23.7933L8.84565 22.8336C9.28238 23.089 9.74024 23.313 10.2163 23.5026L9.80517 24.5355ZM13.8451 2.66324C14.1252 2.65967 14.4075 2.66638 14.6914 2.68371C14.9754 2.70103 15.2564 2.72869 15.534 2.76629L15.3848 3.86797C15.1342 3.83403 14.8804 3.80904 14.6237 3.79338C14.367 3.77772 14.1121 3.77166 13.8592 3.77488L13.8451 2.66324ZM13.3104 25.3162C13.0264 25.2989 12.7455 25.2713 12.4678 25.2337L12.6171 24.132C12.8677 24.1659 13.1214 24.1909 13.3781 24.2066C13.6348 24.2222 13.8897 24.2283 14.1426 24.2251L14.1568 25.3367C13.8766 25.3403 13.5944 25.3336 13.3104 25.3162ZM18.1967 3.46448C18.725 3.67478 19.2329 3.92337 19.7174 4.20662L19.1562 5.16633C18.7194 4.91096 18.2616 4.68691 17.7855 4.4974L18.1967 3.46448ZM18.4842 24.4157C17.969 24.638 17.4345 24.8229 16.8846 24.9674L16.602 23.8922C17.0976 23.762 17.5793 23.5953 18.0439 23.3949L18.4842 24.4157ZM21.9071 5.87401C22.3115 6.26779 22.6862 6.6912 23.0279 7.14046L22.143 7.81347C21.8346 7.40802 21.4964 7.02588 21.1315 6.6705L21.9071 5.87401ZM22.1269 21.9062C21.7331 22.3105 21.3097 22.6852 20.8604 23.0269L20.1874 22.142C20.5929 21.8337 20.975 21.4955 21.3304 21.1305L22.1269 21.9062ZM24.4167 9.51669C24.6389 10.0319 24.8239 10.5664 24.9684 11.1163L23.8931 11.3988C23.7629 10.9032 23.5962 10.4215 23.3958 9.957L24.4167 9.51669ZM24.5364 18.1957C24.3261 18.724 24.0775 19.232 23.7943 19.7164L22.8346 19.1552C23.0899 18.7185 23.314 18.2607 23.5035 17.7846L24.5364 18.1957ZM25.3172 14.6905C25.2999 14.9744 25.2722 15.2554 25.2346 15.5331L24.1329 15.3838C24.1669 15.1332 24.1918 14.8794 24.2075 14.6228C24.2232 14.3661 24.2292 14.1112 24.226 13.8583L25.3377 13.8441C25.3412 14.1243 25.3345 14.4065 25.3172 14.6905Z" fill="#FFBC06"/>
<path d="M13.9998 23.4922C11.8037 23.4922 9.67562 22.7307 7.97807 21.3375C6.28053 19.9443 5.11857 18.0056 4.69018 15.8517C4.26179 13.6979 4.59348 11.4621 5.62874 9.52536C6.66399 7.58863 8.33875 6.07077 10.3677 5.23041C12.3966 4.39006 14.6541 4.2792 16.7556 4.91672C18.8571 5.55424 20.6725 6.9007 21.8925 8.72668C23.1125 10.5527 23.6617 12.7452 23.4464 14.9307C23.2311 17.1161 22.2647 19.1594 20.7118 20.7122C19.8324 21.5963 18.7864 22.2973 17.6343 22.7745C16.4821 23.2517 15.2468 23.4957 13.9998 23.4922Z" fill="#FFBC06"/>
<path d="M13.7006 20.8165V7.15271H14.5759V20.8165H13.7006ZM16.6468 11.2519C16.5828 10.711 16.323 10.2911 15.8676 9.99223C15.4121 9.69333 14.8535 9.54388 14.1916 9.54388C13.7077 9.54388 13.2843 9.62216 12.9213 9.77873C12.5619 9.93529 12.2808 10.1506 12.078 10.4246C11.8787 10.6985 11.7791 11.0099 11.7791 11.3586C11.7791 11.6504 11.8485 11.9012 11.9873 12.1112C12.1296 12.3176 12.3111 12.4901 12.5317 12.6289C12.7523 12.7641 12.9836 12.8762 13.2255 12.9652C13.4675 13.0506 13.6899 13.12 13.8927 13.1733L15.0029 13.4722C15.2876 13.547 15.6043 13.6501 15.953 13.7818C16.3052 13.9135 16.6415 14.0932 16.9617 14.3209C17.2856 14.5451 17.5524 14.8333 17.7624 15.1856C17.9723 15.5378 18.0773 15.9702 18.0773 16.4825C18.0773 17.0732 17.9225 17.607 17.6129 18.0838C17.3069 18.5606 16.8586 18.9395 16.2679 19.2207C15.6808 19.5018 14.9673 19.6423 14.1276 19.6423C13.3447 19.6423 12.6669 19.516 12.094 19.2634C11.5247 19.0107 11.0763 18.6584 10.749 18.2065C10.4252 17.7546 10.2419 17.2298 10.1992 16.632H11.5656C11.6012 17.0448 11.74 17.3864 11.9819 17.6568C12.2274 17.9237 12.537 18.1229 12.9106 18.2546C13.2878 18.3827 13.6935 18.4467 14.1276 18.4467C14.6328 18.4467 15.0865 18.3649 15.4886 18.2012C15.8907 18.034 16.2092 17.8027 16.444 17.5073C16.6789 17.2084 16.7963 16.8597 16.7963 16.4612C16.7963 16.0983 16.6949 15.8029 16.4921 15.5752C16.2892 15.3475 16.0224 15.1624 15.6914 15.0201C15.3605 14.8778 15.0029 14.7532 14.6186 14.6465L13.2736 14.2622C12.4196 14.0167 11.7435 13.6662 11.2454 13.2107C10.7472 12.7552 10.4981 12.1592 10.4981 11.4227C10.4981 10.8106 10.6636 10.2769 10.9945 9.82143C11.329 9.36241 11.7773 9.00658 12.3395 8.75394C12.9053 8.49774 13.5369 8.36965 14.2343 8.36965C14.9389 8.36965 15.5651 8.49596 16.1131 8.7486C16.6611 8.99768 17.0952 9.33928 17.4154 9.77339C17.7392 10.2075 17.91 10.7003 17.9278 11.2519H16.6468Z" fill="#FAFCFB"/>
</svg>