<svg width="16" height="17" viewBox="0 0 16 17" fill="none" xmlns="http://www.w3.org/2000/svg">
<g id="duble-right">
<g id="arrows">
<g id="duble-right_2">
<path id="Vector" d="M7.80627 13.04C7.71854 13.0405 7.63156 13.0237 7.55034 12.9905C7.46911 12.9573 7.39523 12.9085 7.33294 12.8467C7.27046 12.7847 7.22086 12.711 7.18701 12.6297C7.15317 12.5485 7.13574 12.4613 7.13574 12.3733C7.13574 12.2853 7.15317 12.1982 7.18701 12.117C7.22086 12.0357 7.27046 11.962 7.33294 11.9L10.7396 8.5L7.33294 5.1C7.20741 4.97447 7.13688 4.8042 7.13688 4.62667C7.13688 4.53876 7.15419 4.45172 7.18783 4.3705C7.22147 4.28929 7.27078 4.2155 7.33294 4.15334C7.3951 4.09118 7.46889 4.04187 7.55011 4.00823C7.63132 3.97459 7.71837 3.95728 7.80627 3.95728C7.98381 3.95728 8.15407 4.0278 8.27961 4.15334L12.1529 8.02667C12.2147 8.08896 12.2636 8.16284 12.2968 8.24407C12.33 8.32529 12.3468 8.41227 12.3463 8.5C12.3468 8.58774 12.33 8.67472 12.2968 8.75594C12.2636 8.83717 12.2147 8.91104 12.1529 8.97334L8.27961 12.8467C8.21731 12.9085 8.14344 12.9573 8.06221 12.9905C7.98099 13.0237 7.89401 13.0405 7.80627 13.04Z" fill="#FDEB56"/>
<path id="Vector_2" opacity="0.3" d="M4.31995 13.04C4.23221 13.0405 4.14523 13.0237 4.06401 12.9905C3.98278 12.9573 3.90891 12.9085 3.84661 12.8467C3.78413 12.7847 3.73453 12.711 3.70069 12.6297C3.66684 12.5485 3.64941 12.4613 3.64941 12.3733C3.64941 12.2853 3.66684 12.1982 3.70069 12.117C3.73453 12.0357 3.78413 11.962 3.84661 11.9L7.24661 8.5L3.84661 5.1C3.72108 4.97447 3.65055 4.8042 3.65055 4.62667C3.65055 4.44914 3.72108 4.27887 3.84661 4.15334C3.97215 4.0278 4.14241 3.95728 4.31995 3.95728C4.49748 3.95728 4.66774 4.0278 4.79328 4.15334L8.66661 8.02667C8.7284 8.08896 8.77728 8.16284 8.81046 8.24407C8.84364 8.32529 8.86045 8.41227 8.85995 8.5C8.85749 8.67651 8.78843 8.84558 8.66661 8.97334L4.79328 12.8467C4.73099 12.9085 4.65711 12.9573 4.57588 12.9905C4.49466 13.0237 4.40768 13.0405 4.31995 13.04Z" fill="#FDEB56"/>
</g>
</g>
</g>
</svg>
