<svg width="20" height="20" viewBox="0 0 20 20" fill="none" xmlns="http://www.w3.org/2000/svg">
<path d="M9.75809 15.6749C9.64842 15.6756 9.5397 15.6546 9.43817 15.6131C9.33663 15.5716 9.24429 15.5105 9.16642 15.4333C9.08831 15.3558 9.02632 15.2636 8.98401 15.1621C8.9417 15.0605 8.91992 14.9516 8.91992 14.8416C8.91992 14.7316 8.9417 14.6227 8.98401 14.5211C9.02632 14.4196 9.08831 14.3274 9.16642 14.2499L13.4248 9.99994L9.16642 5.74994C9.0095 5.59302 8.92134 5.38019 8.92134 5.15828C8.92134 5.04839 8.94299 4.93959 8.98504 4.83807C9.02709 4.73655 9.08872 4.64431 9.16642 4.56661C9.24412 4.48891 9.33636 4.42728 9.43788 4.38523C9.5394 4.34318 9.6482 4.32153 9.75809 4.32153C9.98001 4.32153 10.1928 4.40969 10.3498 4.56661L15.1914 9.40828C15.2687 9.48614 15.3298 9.57849 15.3712 9.68002C15.4127 9.78155 15.4337 9.89027 15.4331 9.99994C15.4337 10.1096 15.4127 10.2183 15.3712 10.3199C15.3298 10.4214 15.2687 10.5137 15.1914 10.5916L10.3498 15.4333C10.2719 15.5105 10.1795 15.5716 10.078 15.6131C9.97648 15.6546 9.86776 15.6756 9.75809 15.6749Z" fill="#FDEB56"/>
<path opacity="0.3" d="M5.40067 15.6749C5.29099 15.6756 5.18227 15.6546 5.08074 15.6131C4.97921 15.5716 4.88687 15.5105 4.809 15.4333C4.73089 15.3558 4.6689 15.2636 4.62659 15.1621C4.58428 15.0605 4.5625 14.9516 4.5625 14.8416C4.5625 14.7316 4.58428 14.6227 4.62659 14.5211C4.6689 14.4196 4.73089 14.3274 4.809 14.2499L9.059 9.99994L4.809 5.74994C4.65208 5.59302 4.56392 5.38019 4.56392 5.15828C4.56392 4.93636 4.65208 4.72353 4.809 4.56661C4.96592 4.40969 5.17875 4.32153 5.40067 4.32153C5.62258 4.32153 5.83541 4.40969 5.99233 4.56661L10.834 9.40828C10.9112 9.48614 10.9723 9.57849 11.0138 9.68002C11.0553 9.78155 11.0763 9.89027 11.0757 9.99994C11.0726 10.2206 10.9863 10.4319 10.834 10.5916L5.99233 15.4333C5.91447 15.5105 5.82212 15.5716 5.72059 15.6131C5.61906 15.6546 5.51034 15.6756 5.40067 15.6749Z" fill="#FDEB56"/>
</svg>
