<svg width="18" height="18" viewBox="0 0 18 18" fill="none" xmlns="http://www.w3.org/2000/svg">
<path d="M8.78218 14.1075C8.68348 14.108 8.58563 14.0891 8.49425 14.0518C8.40287 14.0145 8.31976 13.9595 8.24968 13.89C8.17938 13.8203 8.12359 13.7373 8.08551 13.6459C8.04744 13.5545 8.02783 13.4565 8.02783 13.3575C8.02783 13.2585 8.04744 13.1604 8.08551 13.069C8.12359 12.9776 8.17938 12.8947 8.24968 12.825L12.0822 8.99997L8.24968 5.17497C8.10845 5.03375 8.02911 4.8422 8.02911 4.64247C8.02911 4.54358 8.04859 4.44565 8.08644 4.35429C8.12428 4.26292 8.17975 4.1799 8.24968 4.10997C8.31961 4.04004 8.40263 3.98457 8.49399 3.94673C8.58536 3.90888 8.68329 3.8894 8.78218 3.8894C8.98191 3.8894 9.17345 3.96875 9.31468 4.10997L13.6722 8.46747C13.7417 8.53755 13.7967 8.62067 13.834 8.71204C13.8713 8.80342 13.8903 8.90127 13.8897 8.99997C13.8903 9.09868 13.8713 9.19652 13.834 9.2879C13.7967 9.37928 13.7417 9.46239 13.6722 9.53247L9.31468 13.89C9.2446 13.9595 9.16149 14.0145 9.07011 14.0518C8.97873 14.0891 8.88089 14.108 8.78218 14.1075Z" fill="#86723C"/>
<path opacity="0.3" d="M4.85982 14.1075C4.76111 14.108 4.66327 14.0891 4.57189 14.0518C4.48051 14.0145 4.3974 13.9595 4.32732 13.89C4.25702 13.8203 4.20123 13.7373 4.16315 13.6459C4.12507 13.5545 4.10547 13.4565 4.10547 13.3575C4.10547 13.2585 4.12507 13.1604 4.16315 13.069C4.20123 12.9776 4.25702 12.8947 4.32732 12.825L8.15232 8.99997L4.32732 5.17497C4.18609 5.03375 4.10675 4.8422 4.10675 4.64247C4.10675 4.44275 4.18609 4.2512 4.32732 4.10997C4.46855 3.96875 4.66009 3.8894 4.85982 3.8894C5.05954 3.8894 5.25109 3.96875 5.39232 4.10997L9.74982 8.46747C9.81933 8.53755 9.87432 8.62067 9.91165 8.71204C9.94897 8.80342 9.96789 8.90127 9.96732 8.99997C9.96455 9.19855 9.88687 9.38875 9.74982 9.53247L5.39232 13.89C5.32224 13.9595 5.23913 14.0145 5.14775 14.0518C5.05637 14.0891 4.95852 14.108 4.85982 14.1075Z" fill="#86723C"/>
</svg>
