<svg width="14" height="14" viewBox="0 0 14 14" fill="none" xmlns="http://www.w3.org/2000/svg">
<path d="M6.83086 10.9725C6.75409 10.973 6.67798 10.9583 6.60691 10.9292C6.53584 10.9002 6.4712 10.8574 6.41669 10.8034C6.36201 10.7491 6.31862 10.6846 6.289 10.6135C6.25939 10.5425 6.24414 10.4662 6.24414 10.3892C6.24414 10.3122 6.25939 10.2359 6.289 10.1649C6.31862 10.0938 6.36201 10.0293 6.41669 9.97503L9.39752 7.00003L6.41669 4.02503C6.30685 3.91519 6.24514 3.76621 6.24514 3.61087C6.24514 3.53395 6.26029 3.45778 6.28972 3.38672C6.31916 3.31566 6.3623 3.25109 6.41669 3.1967C6.47108 3.14231 6.53565 3.09917 6.60671 3.06973C6.67777 3.0403 6.75394 3.02515 6.83086 3.02515C6.9862 3.02515 7.13518 3.08686 7.24502 3.1967L10.6342 6.58587C10.6883 6.64037 10.731 6.70502 10.7601 6.77609C10.7891 6.84716 10.8038 6.92326 10.8034 7.00003C10.8038 7.0768 10.7891 7.15291 10.7601 7.22398C10.731 7.29505 10.6883 7.35969 10.6342 7.4142L7.24502 10.8034C7.19052 10.8574 7.12587 10.9002 7.0548 10.9292C6.98373 10.9583 6.90763 10.973 6.83086 10.9725Z" fill="#948798"/>
<path opacity="0.3" d="M3.78008 10.9725C3.7033 10.973 3.6272 10.9583 3.55613 10.9292C3.48506 10.9002 3.42042 10.8574 3.36591 10.8034C3.31123 10.7491 3.26784 10.6846 3.23822 10.6135C3.20861 10.5425 3.19336 10.4662 3.19336 10.3892C3.19336 10.3122 3.20861 10.2359 3.23822 10.1649C3.26784 10.0938 3.31123 10.0293 3.36591 9.97503L6.34091 7.00003L3.36591 4.02503C3.25606 3.91519 3.19435 3.76621 3.19435 3.61087C3.19435 3.45552 3.25606 3.30654 3.36591 3.1967C3.47575 3.08686 3.62473 3.02515 3.78008 3.02515C3.93542 3.02515 4.0844 3.08686 4.19424 3.1967L7.58341 6.58587C7.63747 6.64037 7.68025 6.70502 7.70928 6.77609C7.7383 6.84716 7.75302 6.92326 7.75257 7.00003C7.75043 7.15448 7.69 7.30241 7.58341 7.4142L4.19424 10.8034C4.13974 10.8574 4.07509 10.9002 4.00402 10.9292C3.93295 10.9583 3.85685 10.973 3.78008 10.9725Z" fill="#948798"/>
</svg>
