<svg width="60" height="60" viewBox="0 0 60 60" fill="none" xmlns="http://www.w3.org/2000/svg">
<circle cx="30" cy="30" r="30" fill="#3D2644"/>
<g clip-path="url(#clip0_167_29117)">
<path d="M30.0009 10C18.9716 10 10 18.9711 10 30.0017C10 41.0269 18.9716 50 30.0009 50C41.0265 50 50 41.0269 50 30.0017C50 18.9711 41.0265 10 30.0009 10ZM30.0021 12.7756C39.5164 12.7756 47.2278 20.4868 47.2278 30.0007C47.2278 39.5146 39.5164 47.2258 30.0021 47.2258C20.4878 47.2258 12.7762 39.5146 12.7762 30.0007C12.7762 20.4868 20.4878 12.7756 30.0021 12.7756Z" fill="white"/>
<path d="M28.5197 29.2596H21.5292L23.1316 26.7541H27.4745L29.0605 24.2578H19.3714L17.7927 26.7541H20.118L16.9514 31.7578H29.9673L34.9111 23.9082L36.6992 26.7505H35.1569L33.58 29.2596H38.2834L39.8658 31.7578H42.8667L34.9111 19.1631L28.5197 29.2596ZM22.5252 19.2559L20.952 21.7523L31.2292 21.7487L32.8043 19.2559L22.5252 19.2559Z" fill="white"/>
<path d="M43.1526 33.2176V33.3068H43.3584V33.7438H43.4603V33.3068H43.6661V33.2176H43.1526Z" fill="white"/>
<path d="M44.2835 33.2176L44.0814 33.5308L43.8756 33.2176H43.7864V33.742H43.8756V33.4179L43.8665 33.3614L43.8975 33.4142L44.065 33.6783H44.0832L44.2507 33.4179L44.2744 33.3614V33.4179V33.742H44.3654V33.2176H44.2835Z" fill="white"/>
<path d="M20.4396 37.2913C20.4396 37.61 20.3286 37.8867 20.1082 38.1089C19.8842 38.331 19.6111 38.4439 19.2943 38.4439H17.945C17.6209 38.4439 17.3495 38.3347 17.1328 38.1198C16.9198 37.905 16.8105 37.6391 16.8105 37.3114V36.776H17.6427L17.7702 37.2713C17.8248 37.4789 17.965 37.5827 18.1926 37.5827H19.1104C19.2269 37.5827 19.3179 37.539 19.3908 37.4588C19.46 37.3733 19.4946 37.264 19.4946 37.1384V36.5484C19.4946 36.2607 19.3689 36.1114 19.1104 36.1114H17.9559C17.6427 36.1114 17.3732 36.0022 17.1456 35.7819C16.9253 35.5524 16.8105 35.2793 16.8105 34.9588V34.1832C16.8105 33.8718 16.9253 33.6023 17.1456 33.3765C17.3732 33.1508 17.6427 33.0415 17.9559 33.0415H19.2943C19.6111 33.0415 19.8806 33.1489 20.0991 33.3602C20.3194 33.575 20.4232 33.8445 20.4232 34.1686V34.6529H19.5965L19.4727 34.2141C19.4072 34.0029 19.2633 33.9009 19.0521 33.9009H18.1489C18.0287 33.9009 17.9359 33.9446 17.8649 34.0302C17.792 34.1122 17.7592 34.2178 17.7592 34.3489V34.8041C17.7592 35.0863 17.8885 35.2283 18.1489 35.2283H19.2943C19.6075 35.2283 19.8806 35.3412 20.1009 35.5706C20.3286 35.7982 20.4396 36.0641 20.4396 36.3773V37.2913Z" fill="white"/>
<path d="M25.16 35.3145C25.16 35.6295 25.0435 35.9008 24.8195 36.1247C24.5919 36.3505 24.3169 36.4634 24.0019 36.4634H22.516V38.4445H21.5601V33.0421H24.0019C24.3169 33.0421 24.5919 33.1549 24.8195 33.3771C25.0435 33.5992 25.16 33.8687 25.16 34.1801V35.3145ZM23.8143 33.9142H22.516V35.5894H23.8143L24.0911 35.4638C24.1621 35.38 24.1967 35.2762 24.1967 35.1433V34.3567C24.1967 34.2256 24.1621 34.1254 24.0911 34.0399L23.8143 33.9142Z" fill="white"/>
<path d="M33.6368 38.4447L32.7591 36.3325H31.8523V38.4447H30.8945V33.0422H33.2854C33.6059 33.0422 33.8754 33.1551 34.0975 33.3754C34.3197 33.6012 34.4344 33.8725 34.4344 34.1803V35.1216C34.4344 35.3674 34.3652 35.5896 34.2323 35.7844C34.0921 35.9811 33.9172 36.1213 33.7024 36.2105L34.6529 38.4447H33.6368ZM33.1051 33.9144H31.8523V35.4585H33.1051L33.3692 35.3383C33.442 35.2564 33.4748 35.1526 33.4748 35.0215V34.3551C33.4748 34.2294 33.442 34.1256 33.3692 34.0382L33.1051 33.9144Z" fill="white"/>
<path d="M38.7504 33.9133H37.3647V38.4436H36.4105V33.9133H35.0339V33.043H38.7504V33.9133Z" fill="white"/>
<path d="M43.0796 37.2913C43.0796 37.61 42.9667 37.8867 42.7482 38.1089C42.5206 38.331 42.2493 38.4439 41.9288 38.4439H40.5795C40.259 38.4439 39.9895 38.3347 39.7692 38.1198C39.5561 37.905 39.4451 37.6391 39.4451 37.3114V36.776H40.279L40.4029 37.2713C40.4611 37.4789 40.6032 37.5827 40.829 37.5827H41.7467C41.8614 37.5827 41.9561 37.539 42.0289 37.4588C42.0981 37.3733 42.1273 37.264 42.1273 37.1384V36.5484C42.1273 36.2607 42.0034 36.1114 41.7467 36.1114H40.5959C40.279 36.1114 40.0059 36.0022 39.7838 35.7819C39.5616 35.5524 39.4451 35.2793 39.4451 34.9588V34.1832C39.4451 33.8718 39.5616 33.6023 39.7838 33.3765C40.0059 33.1508 40.279 33.0415 40.5959 33.0415H41.9288C42.2493 33.0415 42.5169 33.1489 42.7355 33.3602C42.9521 33.575 43.0632 33.8445 43.0632 34.1686V34.6529H42.2347L42.1072 34.2141C42.0417 34.0029 41.9015 33.9009 41.6884 33.9009H40.7816C40.6651 33.9009 40.5667 33.9446 40.5012 34.0302C40.4284 34.1122 40.3956 34.2178 40.3956 34.3489V34.8041C40.3956 35.0863 40.5249 35.2283 40.7816 35.2283H41.9288C42.2456 35.2283 42.5133 35.3412 42.7355 35.5706C42.9667 35.7982 43.0796 36.0641 43.0796 36.3773V37.2913Z" fill="white"/>
<path d="M28.3944 33.9133H27.4766L27.1962 34.039C27.1307 34.1245 27.0943 34.2283 27.0943 34.3576V37.1253C27.0943 37.2527 27.1307 37.3547 27.1962 37.4403L27.4766 37.575H28.3944L28.6712 37.4403C28.744 37.3547 28.7804 37.2527 28.7804 37.1253V34.3576C28.7804 34.2283 28.744 34.1245 28.6712 34.039L28.3944 33.9133ZM29.7328 37.2837C29.7328 37.6114 29.6217 37.8846 29.3977 38.1085C29.1683 38.3288 28.9024 38.4436 28.5783 38.4436H27.2873C26.9686 38.4436 26.6918 38.3288 26.4715 38.1085C26.2494 37.8846 26.1328 37.6114 26.1328 37.2837V34.1773C26.1328 33.8714 26.2494 33.5983 26.4715 33.3762C26.6918 33.1522 26.9686 33.043 27.2873 33.043H28.5783C28.9024 33.043 29.1683 33.1522 29.3977 33.3725C29.6217 33.591 29.7328 33.866 29.7328 34.1773V37.2837Z" fill="white"/>
</g>
<defs>
<clipPath id="clip0_167_29117">
<rect width="40" height="40" fill="white" transform="translate(10 10)"/>
</clipPath>
</defs>
</svg>
