<svg xmlns="http://www.w3.org/2000/svg" width="28" height="28" viewBox="0 0 28 28" fill="none">
  <mask id="mask0_218_3142" style="mask-type:luminance" maskUnits="userSpaceOnUse" x="2" y="2" width="24" height="24">
    <path fill-rule="evenodd" clip-rule="evenodd" d="M2.33398 2.33337H25.0835V25.0842H2.33398V2.33337Z" fill="white"/>
  </mask>
  <g mask="url(#mask0_218_3142)">
    <path fill-rule="evenodd" clip-rule="evenodd" d="M10.2358 13.5318C10.2568 13.5505 10.2767 13.568 10.2965 13.589C11.5553 14.8793 12.2495 16.5885 12.2495 18.4027V23.0507L14.8582 21.6297C15.0635 21.5177 15.1907 21.2983 15.1907 21.0568V18.3887C15.1907 16.5815 15.8778 14.8782 17.125 13.5948L22.7682 7.59234C23.1333 7.20384 23.334 6.69401 23.334 6.15617V5.06417C23.334 4.52284 22.907 4.08301 22.3843 4.08301H5.03482C4.51098 4.08301 4.08398 4.52284 4.08398 5.06417V6.15617C4.08398 6.69401 4.28465 7.20384 4.64982 7.59118L10.2358 13.5318ZM11.8377 25.0842C11.602 25.0842 11.3687 25.0212 11.1563 24.8952C10.7457 24.6502 10.4995 24.2173 10.4995 23.7367V18.4027C10.4995 17.0785 10.006 15.8313 9.10648 14.8758C9.07965 14.8537 9.05282 14.8292 9.02948 14.8035L3.37582 8.79167C2.70382 8.07767 2.33398 7.14084 2.33398 6.15617V5.06417C2.33398 3.55801 3.54615 2.33301 5.03482 2.33301H22.3843C23.8718 2.33301 25.084 3.55801 25.084 5.06417V6.15617C25.084 7.13967 24.7141 8.07534 24.0445 8.79051L18.3897 14.8035C17.4528 15.7695 16.9407 17.04 16.9407 18.3887V21.0568C16.9407 21.9388 16.4635 22.7462 15.6958 23.1662L12.4747 24.9208C12.274 25.0293 12.0558 25.0842 11.8377 25.0842Z" fill="#A99FAC"/>
  </g>
</svg>