<svg xmlns="http://www.w3.org/2000/svg" width="20" height="20" viewBox="0 0 20 20" fill="none">
  <path d="M2.91406 20.0001C2.57031 20.0001 2.27604 19.8759 2.03125 19.6275C1.78646 19.3791 1.66406 19.0805 1.66406 18.7317C1.66406 18.3829 1.7885 18.0869 2.03737 17.8439C2.28625 17.6008 2.58542 17.4793 2.9349 17.4793H17.0807C17.4245 17.4793 17.7187 17.602 17.9635 17.8476C18.2083 18.0931 18.3307 18.3882 18.3307 18.733C18.3307 19.0777 18.2063 19.3751 17.9574 19.6251C17.7085 19.8751 17.4094 20.0001 17.0599 20.0001H2.91406ZM3.9974 15.2709C3.82031 15.2709 3.67187 15.2111 3.55208 15.0913C3.43229 14.9715 3.3724 14.823 3.3724 14.6459V12.7501C3.3724 12.6728 3.38628 12.5979 3.41406 12.5255C3.44184 12.453 3.49045 12.3821 3.5599 12.3126L11.1432 4.72928L13.9141 7.50012L6.33073 15.0834C6.26128 15.1529 6.19033 15.2015 6.11787 15.2293C6.0454 15.2571 5.97052 15.2709 5.89323 15.2709H3.9974ZM4.6224 14.0209H5.5599L12.1224 7.45845L11.1849 6.52095L4.6224 13.0834V14.0209ZM14.8307 6.58345L12.0599 3.81262L13.8099 2.06262C13.9627 1.88206 14.1363 1.78831 14.3307 1.78137C14.5252 1.77442 14.7196 1.86817 14.9141 2.06262L16.5391 3.68762C16.7196 3.86817 16.8099 4.05914 16.8099 4.26053C16.8099 4.46192 16.7335 4.65289 16.5807 4.83345L14.8307 6.58345Z" fill="var(--color_fill,#7E6E83)"/>
</svg>