<svg width="60" height="40" viewBox="0 0 60 40" fill="none" xmlns="http://www.w3.org/2000/svg">
<g id="Frame 1171276214" clip-path="url(#clip0_2206_1286)">
<g id="Layer 1">
<path id="Vector" fill-rule="evenodd" clip-rule="evenodd" d="M47.5234 23.9131V28.6642C49.7983 28.2749 51.6895 27.8284 53.1627 26.7249C54.3268 25.8529 55.486 22.4745 55.3764 21.0216C53.0526 21.0432 50.7664 21.601 48.7012 22.65C48.2207 22.9825 47.8189 23.4134 47.5234 23.9131Z" fill="url(#paint0_radial_2206_1286)"/>
<path id="Vector_2" fill-rule="evenodd" clip-rule="evenodd" d="M47.5235 18.6275L47.5234 23.2453C50.2578 22.7774 52.7946 22.4546 54.5654 21.1281C55.9646 20.0799 57.0943 16.8982 56.9626 15.1519C54.9864 15.0422 50.9144 15.9095 48.9392 17.1093C48.3615 17.5088 47.8786 18.0268 47.5235 18.6275Z" fill="url(#paint1_radial_2206_1286)"/>
<path id="Vector_3" fill-rule="evenodd" clip-rule="evenodd" d="M47.5234 13.3443L47.536 17.8229C50.7294 17.2765 53.692 16.8994 55.7601 15.3503C56.6408 14.5965 57.3458 13.6644 57.8267 12.6176C58.3077 11.5709 58.5534 10.4342 58.547 9.28534C56.239 9.15722 51.4836 10.1701 49.1768 11.5712C48.5022 12.0379 47.9382 12.6428 47.5234 13.3443Z" fill="url(#paint2_radial_2206_1286)"/>
<path id="Vector_4" fill-rule="evenodd" clip-rule="evenodd" d="M13.0242 23.9131V28.6642C10.7493 28.2749 8.85813 27.8284 7.38493 26.7249C6.22086 25.8529 5.06167 22.4745 5.17127 21.0216C7.49502 21.0432 9.78125 21.601 11.8464 22.65C12.3269 22.9825 12.7287 23.4134 13.0242 23.9131Z" fill="url(#paint3_radial_2206_1286)"/>
<path id="Vector_5" fill-rule="evenodd" clip-rule="evenodd" d="M13.0237 18.6275L13.0238 23.2453C10.2894 22.7774 7.75261 22.4546 5.98181 21.1281C4.58261 20.0799 3.45295 16.8982 3.58468 15.1519C5.56088 15.0422 9.63281 15.9095 11.6081 17.1093C12.1857 17.5088 12.6687 18.0268 13.0237 18.6275Z" fill="url(#paint4_radial_2206_1286)"/>
<path id="Vector_6" fill-rule="evenodd" clip-rule="evenodd" d="M13.0237 13.3443L13.011 17.8229C9.81765 17.2765 6.85505 16.8994 4.78699 15.3503C3.9063 14.5965 3.20135 13.6644 2.72036 12.6176C2.23937 11.5709 1.99369 10.4342 2.00012 9.28534C4.30806 9.15722 9.06353 10.1701 11.3703 11.5712C12.0449 12.0379 12.6089 12.6428 13.0237 13.3443Z" fill="url(#paint5_radial_2206_1286)"/>
<path id="Vector_7" fill-rule="evenodd" clip-rule="evenodd" d="M47.8814 12.9822L47.3533 11.0108C47.0526 9.87288 46.4601 8.8301 45.6324 7.98241C44.3126 6.65937 41.682 5.09513 40.0314 4.11707C37.8407 2.81984 35.5706 1.65699 33.2343 0.635152C32.3056 0.216633 31.2961 0 30.2747 0C29.2533 0 28.2439 0.216633 27.3151 0.635152C24.9788 1.65699 22.7088 2.81984 20.518 4.11707C18.8678 5.09468 16.2364 6.65983 14.917 7.98241C14.0894 8.8301 13.4968 9.87289 13.1962 11.0108L12.668 12.9822H47.8814Z" fill="url(#paint6_linear_2206_1286)"/>
<path id="Vector_8" fill-rule="evenodd" clip-rule="evenodd" d="M45.0503 8.94952C41.3899 6.33056 37.4604 4.09704 33.3264 2.28564C32.3686 1.85528 31.3281 1.63257 30.2752 1.63257C29.2224 1.63257 28.1819 1.85528 27.2241 2.28564C23.0901 4.09702 19.1605 6.33054 15.5001 8.94952C14.6427 9.55095 13.9265 10.3268 13.4001 11.2244C12.8737 12.122 12.5493 13.1205 12.449 14.1523C11.9753 18.5827 11.9753 23.0498 12.449 27.4802C12.5493 28.512 12.8736 29.5105 13.4001 30.4081C13.9265 31.3058 14.6427 32.0816 15.5001 32.683C19.1605 35.302 23.09 37.5356 27.2241 39.3469C28.1819 39.7773 29.2224 40 30.2752 40C31.328 40 32.3686 39.7773 33.3263 39.3469C37.4604 37.5356 41.3899 35.302 45.0503 32.683C45.9077 32.0816 46.6239 31.3058 47.1503 30.4081C47.6768 29.5105 48.0011 28.512 48.1014 27.4802C48.5751 23.0498 48.5751 18.5828 48.1014 14.1524C48.0011 13.1206 47.6768 12.1221 47.1504 11.2244C46.624 10.3268 45.9077 9.55095 45.0503 8.94952Z" fill="url(#paint7_radial_2206_1286)"/>
<path id="Vector_9" fill-rule="evenodd" clip-rule="evenodd" d="M42.7108 12.0827C39.2846 9.63304 35.6074 7.54293 31.7394 5.84651C31.2819 5.63231 30.7815 5.52118 30.2749 5.52118C29.7682 5.52118 29.2679 5.63231 28.8103 5.84651C24.9423 7.54291 21.2651 9.63302 17.8388 12.0827C17.4216 12.3658 17.0737 12.7367 16.8204 13.1687C16.567 13.6007 16.4146 14.0828 16.3742 14.5801C15.9325 18.7262 15.9325 22.9064 16.3742 27.0524C16.4146 27.5497 16.567 28.0318 16.8203 28.4638C17.0737 28.8958 17.4216 29.2668 17.8388 29.5498C21.2651 31.9995 24.9422 34.0896 28.8102 35.786C29.2678 36.0002 29.7681 36.1114 30.2748 36.1114C30.7815 36.1114 31.2818 36.0002 31.7394 35.786C35.6074 34.0896 39.2846 31.9995 42.7108 29.5499C43.1281 29.2668 43.476 28.8958 43.7293 28.4639C43.9827 28.0319 44.1351 27.5497 44.1754 27.0525C44.6171 22.9064 44.6171 18.7262 44.1754 14.5801C44.1351 14.0828 43.9827 13.6007 43.7293 13.1687C43.476 12.7367 43.1281 12.3658 42.7108 12.0827Z" fill="url(#paint8_radial_2206_1286)"/>
<path id="Vector_10" fill-rule="evenodd" clip-rule="evenodd" d="M28.781 34.7542C24.8422 33.0267 21.0977 30.8983 17.6088 28.4038C17.0394 28.015 16.6004 27.4682 16.3477 26.833C16.3556 26.9062 16.3636 26.9793 16.3718 27.0524C16.4121 27.5496 16.5645 28.0318 16.8179 28.4638C17.0712 28.8958 17.4192 29.2668 17.8364 29.5498C21.2626 31.9995 24.9398 34.0896 28.8078 35.786C29.2654 36.0002 29.7657 36.1113 30.2724 36.1113C30.779 36.1113 31.2793 36.0002 31.7369 35.786C35.6049 34.0896 39.2821 31.9995 42.7084 29.5498C43.1256 29.2668 43.4735 28.8958 43.7269 28.4638C43.9802 28.0318 44.1326 27.5497 44.173 27.0525C44.1812 26.9794 44.1892 26.9062 44.1971 26.833C43.9444 27.4682 43.5054 28.015 42.936 28.4039C39.447 30.8984 35.7025 33.0267 31.7637 34.7542C31.2978 34.9723 30.7883 35.0854 30.2723 35.0854C29.7564 35.0854 29.2469 34.9723 28.781 34.7542Z" fill="url(#paint9_linear_2206_1286)"/>
<g id="Vector_11" opacity="0.5">
<path fill-rule="evenodd" clip-rule="evenodd" d="M36.8102 26.8175V28.2895C36.8102 28.3165 36.7815 28.3396 36.7193 28.3628C36.1491 28.5754 33.4774 28.7417 30.1945 28.7417C26.9117 28.7417 24.24 28.5754 23.6698 28.3628C23.6075 28.3396 23.5789 28.3165 23.5789 28.2895V26.8175C24.2312 27.3775 36.1579 27.3775 36.8102 26.8175Z" fill="white"/>
<path fill-rule="evenodd" clip-rule="evenodd" d="M34.7187 15.0992C34.4697 15.0992 34.2281 15.1844 34.0334 15.3407C33.8386 15.497 33.7024 15.7152 33.6468 15.9597C33.5913 16.2041 33.6197 16.4603 33.7275 16.6863C33.8353 16.9124 34.0161 17.0949 34.2403 17.204C33.9134 18.3082 33.3839 19.3409 32.6791 20.2486C32.3976 20.6485 32.025 20.9747 31.5926 21.1998C31.1601 21.4249 30.6804 21.5424 30.1936 21.5424C29.7069 21.5424 29.2272 21.4249 28.7947 21.1998C28.3623 20.9747 27.9897 20.6485 27.7082 20.2486C27.0034 19.3409 26.4738 18.3082 26.1469 17.204C26.382 17.0897 26.5691 16.8949 26.6746 16.6544C26.7802 16.414 26.7974 16.1436 26.7231 15.8915C26.6489 15.6395 26.488 15.4222 26.2693 15.2787C26.0506 15.1351 25.7883 15.0746 25.5294 15.1079C25.2704 15.1412 25.0317 15.2662 24.8559 15.4606C24.68 15.6549 24.5786 15.9059 24.5696 16.1686C24.5607 16.4314 24.6448 16.6887 24.807 16.8947C24.9692 17.1007 25.1989 17.2419 25.455 17.293C25.4343 18.5915 24.8089 20.7534 23.7445 21.4051L24.4178 23.903H35.9695L36.6427 21.4051C35.5783 20.7534 34.953 18.5915 34.9323 17.293C35.2002 17.2396 35.4387 17.0877 35.6015 16.8669C35.7643 16.6461 35.8396 16.3722 35.813 16.0986C35.7863 15.8249 35.6595 15.571 35.4573 15.3863C35.255 15.2015 34.9917 15.0992 34.7187 15.0992Z" fill="white"/>
<path d="M30.1936 27.3612C26.5868 27.3612 23.654 27.1197 23.577 26.8194C22.9114 23.4555 22.0509 20.1337 21 16.871C21.4177 16.7657 21.8593 16.819 22.2405 17.0208C22.6216 17.2226 22.9156 17.5587 23.0664 17.9649C23.1732 18.2464 23.1936 18.5537 23.1249 18.847C23.0562 19.1402 22.9017 19.406 22.6812 19.6098C24.6964 23.0777 29.1465 21.3249 29.3519 15.1097H31.0355C31.2408 21.3249 35.691 23.0777 37.7061 19.6098C37.4857 19.406 37.3311 19.1402 37.2625 18.847C37.1938 18.5537 37.2142 18.2464 37.321 17.9649C37.4717 17.5587 37.7657 17.2226 38.1469 17.0208C38.528 16.819 38.9696 16.7657 39.3873 16.871C38.3363 20.1337 37.476 23.4555 36.8106 26.8194C36.7333 27.1197 33.8006 27.3612 30.1936 27.3612Z" fill="white"/>
<path fill-rule="evenodd" clip-rule="evenodd" d="M30.194 12C30.5363 12 30.8709 12.1022 31.1555 12.2937C31.4401 12.4852 31.6619 12.7574 31.7929 13.0759C31.9238 13.3944 31.9581 13.7448 31.8913 14.0829C31.8246 14.421 31.6597 14.7315 31.4177 14.9753C31.1757 15.219 30.8673 15.385 30.5316 15.4523C30.1959 15.5195 29.848 15.485 29.5317 15.3531C29.2155 15.2212 28.9452 14.9978 28.755 14.7112C28.5649 14.4245 28.4634 14.0876 28.4634 13.7429C28.4634 13.514 28.5082 13.2874 28.5951 13.0759C28.6821 12.8644 28.8096 12.6723 28.9703 12.5105C29.131 12.3486 29.3217 12.2202 29.5317 12.1327C29.7417 12.0451 29.9667 12 30.194 12Z" fill="white"/>
</g>
</g>
</g>
<defs>
<radialGradient id="paint0_radial_2206_1286" cx="0" cy="0" r="1" gradientUnits="userSpaceOnUse" gradientTransform="translate(56.0234 22.2343) scale(7.96077 7.83738)">
<stop stop-color="#E8FFF8"/>
<stop offset="1" stop-color="#F7A1F6"/>
</radialGradient>
<radialGradient id="paint1_radial_2206_1286" cx="0" cy="0" r="1" gradientUnits="userSpaceOnUse" gradientTransform="translate(57.5397 18.3651) scale(9.10125 8.96019)">
<stop stop-color="#E8FFF8"/>
<stop offset="1" stop-color="#F7A1F6"/>
</radialGradient>
<radialGradient id="paint2_radial_2206_1286" cx="0" cy="0" r="1" gradientUnits="userSpaceOnUse" gradientTransform="translate(56.3485 9.16798) scale(10.8094 10.6419)">
<stop stop-color="#E8FFF8"/>
<stop offset="1" stop-color="#F7A1F6"/>
</radialGradient>
<radialGradient id="paint3_radial_2206_1286" cx="0" cy="0" r="1" gradientUnits="userSpaceOnUse" gradientTransform="translate(4.52427 22.2343) rotate(180) scale(7.96076 7.83738)">
<stop stop-color="#E8FFF8"/>
<stop offset="1" stop-color="#F7A1F6"/>
</radialGradient>
<radialGradient id="paint4_radial_2206_1286" cx="0" cy="0" r="1" gradientUnits="userSpaceOnUse" gradientTransform="translate(3.00758 18.3651) rotate(180) scale(9.10125 8.96019)">
<stop stop-color="#E8FFF8"/>
<stop offset="1" stop-color="#F7A1F6"/>
</radialGradient>
<radialGradient id="paint5_radial_2206_1286" cx="0" cy="0" r="1" gradientUnits="userSpaceOnUse" gradientTransform="translate(4.19858 9.16798) rotate(180) scale(10.8094 10.6419)">
<stop stop-color="#E8FFF8"/>
<stop offset="1" stop-color="#F7A1F6"/>
</radialGradient>
<linearGradient id="paint6_linear_2206_1286" x1="12.668" y1="6.49108" x2="47.8814" y2="6.49108" gradientUnits="userSpaceOnUse">
<stop stop-color="#E346C9"/>
<stop offset="0.12708" stop-color="#EC57D3"/>
<stop offset="0.22381" stop-color="#F05ED7"/>
<stop offset="0.49416" stop-color="#F880E4"/>
<stop offset="0.50965" stop-color="#EA68D4"/>
<stop offset="0.53262" stop-color="#D94BC1"/>
<stop offset="0.55833" stop-color="#CC33B2"/>
<stop offset="0.58743" stop-color="#C121A6"/>
<stop offset="0.62188" stop-color="#BA149D"/>
<stop offset="0.66686" stop-color="#B50C98"/>
<stop offset="0.76191" stop-color="#B40A97"/>
<stop offset="1" stop-color="#97097F"/>
</linearGradient>
<radialGradient id="paint7_radial_2206_1286" cx="0" cy="0" r="1" gradientUnits="userSpaceOnUse" gradientTransform="translate(18.2171 0.983933) scale(47.8239 47.0826)">
<stop stop-color="#F776E2"/>
<stop offset="1" stop-color="#D70DB5"/>
</radialGradient>
<radialGradient id="paint8_radial_2206_1286" cx="0" cy="0" r="1" gradientUnits="userSpaceOnUse" gradientTransform="translate(21.5801 4.64743) scale(36.5167 35.9507)">
<stop stop-color="#FF8AF3"/>
<stop offset="1" stop-color="#C400A3"/>
</radialGradient>
<linearGradient id="paint9_linear_2206_1286" x1="16.3477" y1="31.4722" x2="44.1971" y2="31.4722" gradientUnits="userSpaceOnUse">
<stop stop-color="#BD16A1"/>
<stop offset="0.18095" stop-color="#D92BBB"/>
<stop offset="0.3361" stop-color="#DA2DBD"/>
<stop offset="0.40951" stop-color="#DF35C2"/>
<stop offset="0.46554" stop-color="#E742CB"/>
<stop offset="0.51276" stop-color="#F254D8"/>
<stop offset="0.52143" stop-color="#F558DB"/>
<stop offset="0.77619" stop-color="#F43CD5"/>
<stop offset="0.88927" stop-color="#F435D4"/>
<stop offset="1" stop-color="#F329D1"/>
</linearGradient>
<clipPath id="clip0_2206_1286">
<rect width="60" height="40" fill="white"/>
</clipPath>
</defs>
</svg>
