<svg width="57" height="40" viewBox="0 0 57 40" fill="none" xmlns="http://www.w3.org/2000/svg">
<path fill-rule="evenodd" clip-rule="evenodd" d="M45.5234 23.9131V28.6642C47.7983 28.2749 49.6895 27.8284 51.1627 26.7249C52.3268 25.8529 53.486 22.4745 53.3764 21.0216C51.0526 21.0432 48.7664 21.601 46.7012 22.65C46.2207 22.9825 45.8189 23.4134 45.5234 23.9131Z" fill="url(#paint0_radial_1992_15057)"/>
<path fill-rule="evenodd" clip-rule="evenodd" d="M45.5235 18.6275L45.5234 23.2453C48.2578 22.7775 50.7946 22.4546 52.5654 21.1281C53.9646 20.0799 55.0943 16.8983 54.9626 15.1519C52.9864 15.0423 48.9144 15.9095 46.9392 17.1093C46.3615 17.5089 45.8786 18.0268 45.5235 18.6275Z" fill="url(#paint1_radial_1992_15057)"/>
<path fill-rule="evenodd" clip-rule="evenodd" d="M45.5234 13.3443L45.536 17.8229C48.7294 17.2765 51.692 16.8994 53.7601 15.3503C54.6408 14.5965 55.3458 13.6644 55.8267 12.6176C56.3077 11.5709 56.5534 10.4342 56.547 9.28534C54.239 9.15722 49.4836 10.1701 47.1768 11.5712C46.5022 12.0379 45.9382 12.6428 45.5234 13.3443Z" fill="url(#paint2_radial_1992_15057)"/>
<path fill-rule="evenodd" clip-rule="evenodd" d="M11.0242 23.913V28.664C8.74933 28.2748 6.85813 27.8283 5.38493 26.7248C4.22086 25.8528 3.06167 22.4743 3.17127 21.0215C5.49502 21.0431 7.78125 21.6008 9.8464 22.6499C10.3269 22.9824 10.7287 23.4133 11.0242 23.913Z" fill="url(#paint3_radial_1992_15057)"/>
<path fill-rule="evenodd" clip-rule="evenodd" d="M11.0237 18.6274L11.0238 23.2452C8.28941 22.7774 5.75261 22.4545 3.98181 21.128C2.58261 20.0798 1.45295 16.8982 1.58468 15.1518C3.56088 15.0421 7.63281 15.9094 9.60808 17.1092C10.1857 17.5088 10.6687 18.0267 11.0237 18.6274Z" fill="url(#paint4_radial_1992_15057)"/>
<path fill-rule="evenodd" clip-rule="evenodd" d="M11.0237 13.3443L11.011 17.8229C7.81765 17.2765 4.85505 16.8994 2.78699 15.3503C1.9063 14.5965 1.20135 13.6644 0.720358 12.6176C0.239371 11.5709 -0.00630551 10.4342 0.000122976 9.28534C2.30806 9.15722 7.06353 10.1701 9.37032 11.5712C10.0449 12.0379 10.6089 12.6428 11.0237 13.3443Z" fill="url(#paint5_radial_1992_15057)"/>
<path fill-rule="evenodd" clip-rule="evenodd" d="M45.8814 12.9822L45.3533 11.0108C45.0526 9.87288 44.4601 8.8301 43.6324 7.98241C42.3126 6.65937 39.682 5.09513 38.0314 4.11707C35.8407 2.81984 33.5706 1.65699 31.2343 0.635152C30.3056 0.216633 29.2961 0 28.2747 0C27.2533 0 26.2439 0.216633 25.3151 0.635152C22.9788 1.65699 20.7088 2.81984 18.518 4.11707C16.8678 5.09468 14.2364 6.65983 12.917 7.98241C12.0894 8.8301 11.4968 9.87289 11.1962 11.0108L10.668 12.9822H45.8814Z" fill="url(#paint6_linear_1992_15057)"/>
<path fill-rule="evenodd" clip-rule="evenodd" d="M43.0503 8.94928C39.3899 6.33032 35.4604 4.09679 31.3264 2.28539C30.3686 1.85504 29.3281 1.63232 28.2752 1.63232C27.2224 1.63232 26.1819 1.85504 25.2241 2.28539C21.0901 4.09677 17.1605 6.3303 13.5001 8.94928C12.6427 9.55071 11.9265 10.3265 11.4001 11.2242C10.8737 12.1218 10.5493 13.1203 10.449 14.1521C9.97533 18.5825 9.97533 23.0496 10.449 27.4799C10.5493 28.5117 10.8736 29.5103 11.4001 30.4079C11.9265 31.3055 12.6427 32.0813 13.5001 32.6828C17.1605 35.3018 21.09 37.5353 25.2241 39.3466C26.1819 39.777 27.2224 39.9998 28.2752 39.9998C29.328 39.9998 30.3686 39.777 31.3263 39.3466C35.4604 37.5353 39.3899 35.3018 43.0503 32.6828C43.9077 32.0813 44.6239 31.3055 45.1503 30.4079C45.6768 29.5103 46.0011 28.5117 46.1014 27.4799C46.5751 23.0496 46.5751 18.5825 46.1014 14.1522C46.0011 13.1204 45.6768 12.1218 45.1504 11.2242C44.624 10.3265 43.9077 9.55071 43.0503 8.94928Z" fill="url(#paint7_radial_1992_15057)"/>
<path fill-rule="evenodd" clip-rule="evenodd" d="M40.7108 12.0825C37.2846 9.63286 33.6074 7.54275 29.7394 5.84632C29.2819 5.63213 28.7815 5.521 28.2749 5.521C27.7682 5.521 27.2679 5.63213 26.8103 5.84632C22.9423 7.54273 19.2651 9.63284 15.8388 12.0825C15.4216 12.3656 15.0737 12.7366 14.8204 13.1685C14.567 13.6005 14.4146 14.0827 14.3742 14.5799C13.9325 18.726 13.9325 22.9062 14.3742 27.0523C14.4146 27.5495 14.567 28.0316 14.8203 28.4636C15.0737 28.8956 15.4216 29.2666 15.8388 29.5496C19.2651 31.9993 22.9422 34.0894 26.8102 35.7858C27.2678 36 27.7681 36.1112 28.2748 36.1112C28.7815 36.1112 29.2818 36 29.7394 35.7858C33.6074 34.0894 37.2846 31.9993 40.7108 29.5497C41.1281 29.2666 41.476 28.8957 41.7293 28.4637C41.9827 28.0317 42.1351 27.5496 42.1754 27.0523C42.6171 22.9062 42.6171 18.726 42.1754 14.5799C42.1351 14.0827 41.9827 13.6005 41.7293 13.1685C41.476 12.7366 41.1281 12.3656 40.7108 12.0825Z" fill="url(#paint8_radial_1992_15057)"/>
<path fill-rule="evenodd" clip-rule="evenodd" d="M26.781 34.7542C22.8422 33.0267 19.0977 30.8983 15.6088 28.4038C15.0394 28.015 14.6004 27.4682 14.3477 26.833C14.3556 26.9062 14.3636 26.9793 14.3718 27.0524C14.4121 27.5496 14.5645 28.0318 14.8179 28.4638C15.0712 28.8958 15.4192 29.2668 15.8364 29.5498C19.2626 31.9995 22.9398 34.0896 26.8078 35.786C27.2654 36.0002 27.7657 36.1113 28.2724 36.1113C28.779 36.1113 29.2793 36.0002 29.7369 35.786C33.6049 34.0896 37.2821 31.9995 40.7084 29.5498C41.1256 29.2668 41.4735 28.8958 41.7269 28.4638C41.9802 28.0318 42.1326 27.5497 42.173 27.0525C42.1812 26.9794 42.1892 26.9062 42.1971 26.833C41.9444 27.4682 41.5054 28.015 40.936 28.4039C37.447 30.8984 33.7025 33.0267 29.7637 34.7542C29.2978 34.9723 28.7883 35.0854 28.2723 35.0854C27.7564 35.0854 27.2469 34.9723 26.781 34.7542Z" fill="url(#paint9_linear_1992_15057)"/>
<defs>
<radialGradient id="paint0_radial_1992_15057" cx="0" cy="0" r="1" gradientUnits="userSpaceOnUse" gradientTransform="translate(54.0234 22.2343) scale(7.96077 7.83738)">
<stop stop-color="#E8FFF8"/>
<stop offset="1" stop-color="#F7A1F6"/>
</radialGradient>
<radialGradient id="paint1_radial_1992_15057" cx="0" cy="0" r="1" gradientUnits="userSpaceOnUse" gradientTransform="translate(55.5397 18.3652) scale(9.10125 8.96019)">
<stop stop-color="#E8FFF8"/>
<stop offset="1" stop-color="#F7A1F6"/>
</radialGradient>
<radialGradient id="paint2_radial_1992_15057" cx="0" cy="0" r="1" gradientUnits="userSpaceOnUse" gradientTransform="translate(54.3485 9.16798) scale(10.8094 10.6419)">
<stop stop-color="#E8FFF8"/>
<stop offset="1" stop-color="#F7A1F6"/>
</radialGradient>
<radialGradient id="paint3_radial_1992_15057" cx="0" cy="0" r="1" gradientUnits="userSpaceOnUse" gradientTransform="translate(2.52427 22.2341) rotate(180) scale(7.96076 7.83738)">
<stop stop-color="#E8FFF8"/>
<stop offset="1" stop-color="#F7A1F6"/>
</radialGradient>
<radialGradient id="paint4_radial_1992_15057" cx="0" cy="0" r="1" gradientUnits="userSpaceOnUse" gradientTransform="translate(1.00758 18.3651) rotate(180) scale(9.10125 8.96019)">
<stop stop-color="#E8FFF8"/>
<stop offset="1" stop-color="#F7A1F6"/>
</radialGradient>
<radialGradient id="paint5_radial_1992_15057" cx="0" cy="0" r="1" gradientUnits="userSpaceOnUse" gradientTransform="translate(2.19858 9.16798) rotate(180) scale(10.8094 10.6419)">
<stop stop-color="#E8FFF8"/>
<stop offset="1" stop-color="#F7A1F6"/>
</radialGradient>
<linearGradient id="paint6_linear_1992_15057" x1="10.668" y1="6.49108" x2="45.8814" y2="6.49108" gradientUnits="userSpaceOnUse">
<stop stop-color="#E346C9"/>
<stop offset="0.12708" stop-color="#EC57D3"/>
<stop offset="0.22381" stop-color="#F05ED7"/>
<stop offset="0.49416" stop-color="#F880E4"/>
<stop offset="0.50965" stop-color="#EA68D4"/>
<stop offset="0.53262" stop-color="#D94BC1"/>
<stop offset="0.55833" stop-color="#CC33B2"/>
<stop offset="0.58743" stop-color="#C121A6"/>
<stop offset="0.62188" stop-color="#BA149D"/>
<stop offset="0.66686" stop-color="#B50C98"/>
<stop offset="0.76191" stop-color="#B40A97"/>
<stop offset="1" stop-color="#97097F"/>
</linearGradient>
<radialGradient id="paint7_radial_1992_15057" cx="0" cy="0" r="1" gradientUnits="userSpaceOnUse" gradientTransform="translate(16.2171 0.983689) scale(47.8239 47.0826)">
<stop stop-color="#F776E2"/>
<stop offset="1" stop-color="#D70DB5"/>
</radialGradient>
<radialGradient id="paint8_radial_1992_15057" cx="0" cy="0" r="1" gradientUnits="userSpaceOnUse" gradientTransform="translate(19.5801 4.64725) scale(36.5167 35.9507)">
<stop stop-color="#FF8AF3"/>
<stop offset="1" stop-color="#C400A3"/>
</radialGradient>
<linearGradient id="paint9_linear_1992_15057" x1="14.3477" y1="31.4722" x2="42.1971" y2="31.4722" gradientUnits="userSpaceOnUse">
<stop stop-color="#BD16A1"/>
<stop offset="0.18095" stop-color="#D92BBB"/>
<stop offset="0.3361" stop-color="#DA2DBD"/>
<stop offset="0.40951" stop-color="#DF35C2"/>
<stop offset="0.46554" stop-color="#E742CB"/>
<stop offset="0.51276" stop-color="#F254D8"/>
<stop offset="0.52143" stop-color="#F558DB"/>
<stop offset="0.77619" stop-color="#F43CD5"/>
<stop offset="0.88927" stop-color="#F435D4"/>
<stop offset="1" stop-color="#F329D1"/>
</linearGradient>
</defs>
</svg>
