<svg width="60" height="60" viewBox="0 0 60 60" fill="none" xmlns="http://www.w3.org/2000/svg">
<circle cx="30" cy="30" r="30" fill="#270A22"/>
<path d="M29.989 35.6153C30.2745 35.6153 30.5157 35.5168 30.7125 35.3196C30.9093 35.1225 31.0077 34.8811 31.0077 34.5956C31.0077 34.31 30.9091 34.0689 30.7119 33.8721C30.5148 33.6753 30.2734 33.5769 29.9879 33.5769C29.7024 33.5769 29.4612 33.6755 29.2644 33.8726C29.0676 34.0698 28.9692 34.3111 28.9692 34.5967C28.9692 34.8822 29.0678 35.1234 29.265 35.3202C29.4621 35.5169 29.7034 35.6153 29.989 35.6153ZM30.0016 39.5C28.6877 39.5 27.4527 39.2506 26.2966 38.752C25.1404 38.2533 24.1347 37.5765 23.2795 36.7217C22.4243 35.8669 21.7472 34.8616 21.2483 33.706C20.7494 32.5504 20.5 31.3156 20.5 30.0017C20.5 28.6877 20.7493 27.4527 21.248 26.2966C21.7467 25.1404 22.4234 24.1347 23.2783 23.2795C24.1331 22.4243 25.1383 21.7472 26.294 21.2483C27.4496 20.7494 28.6844 20.5 29.9983 20.5C31.3122 20.5 32.5473 20.7493 33.7034 21.248C34.8596 21.7467 35.8652 22.4234 36.7205 23.2783C37.5757 24.1331 38.2527 25.1383 38.7516 26.294C39.2505 27.4496 39.5 28.6844 39.5 29.9983C39.5 31.3122 39.2506 32.5473 38.752 33.7034C38.2533 34.8596 37.5765 35.8652 36.7217 36.7205C35.8669 37.5757 34.8616 38.2527 33.706 38.7516C32.5504 39.2505 31.3156 39.5 30.0016 39.5ZM30.081 25.7192C30.5424 25.7192 30.9416 25.8644 31.2788 26.1549C31.616 26.4454 31.7846 26.8085 31.7846 27.2442C31.7846 27.6109 31.6769 27.9391 31.4615 28.2288C31.2461 28.5186 31 28.7885 30.7231 29.0385C30.3601 29.3605 30.0405 29.7147 29.7643 30.1011C29.4881 30.4875 29.3404 30.9179 29.3211 31.3923C29.3147 31.5743 29.3788 31.7269 29.5135 31.85C29.6481 31.973 29.8051 32.0346 29.9846 32.0346C30.1769 32.0346 30.3397 31.9705 30.4731 31.8423C30.6064 31.7141 30.6916 31.557 30.7288 31.3711C30.7955 31.0275 30.9375 30.7215 31.1548 30.4529C31.3721 30.1843 31.6075 29.9289 31.861 29.6867C32.2254 29.3314 32.5435 28.9441 32.8153 28.5247C33.0871 28.1052 33.223 27.6374 33.223 27.1212C33.223 26.3289 32.9109 25.6779 32.2865 25.1683C31.6622 24.6587 30.9333 24.4039 30.1 24.4039C29.5051 24.4039 28.9442 24.5356 28.4173 24.7991C27.8904 25.0625 27.4801 25.4468 27.1865 25.9519C27.0955 26.107 27.0663 26.2703 27.0989 26.4418C27.1315 26.6132 27.2194 26.7433 27.3628 26.8322C27.5453 26.9338 27.7327 26.9628 27.925 26.9192C28.1173 26.8756 28.2807 26.766 28.4154 26.5904C28.6179 26.3275 28.8631 26.1166 29.1509 25.9577C29.4387 25.7987 29.7488 25.7192 30.081 25.7192Z" fill="#F71756"/>
</svg>
