<svg width="60" height="60" viewBox="0 0 60 60" fill="none" xmlns="http://www.w3.org/2000/svg">
<circle cx="30" cy="30" r="30" fill="#270A22"/>
<path d="M29.9835 38.423C30.4118 38.423 30.7735 38.2751 31.0687 37.9794C31.3639 37.6837 31.5115 37.3217 31.5115 36.8934C31.5115 36.4651 31.3636 36.1033 31.0679 35.8082C30.7722 35.513 30.4102 35.3654 29.9819 35.3654C29.5535 35.3654 29.1918 35.5132 28.8966 35.8089C28.6014 36.1047 28.4538 36.4667 28.4538 36.895C28.4538 37.3233 28.6017 37.685 28.8974 37.9802C29.1932 38.2754 29.5552 38.423 29.9835 38.423ZM30.0025 44.2499C28.0316 44.2499 26.179 43.8759 24.4448 43.1279C22.7106 42.3799 21.2021 41.3648 19.9193 40.0826C18.6364 38.8003 17.6208 37.2924 16.8725 35.559C16.1242 33.8255 15.75 31.9734 15.75 30.0025C15.75 28.0316 16.124 26.179 16.872 24.4448C17.62 22.7106 18.6351 21.2021 19.9174 19.9193C21.1997 18.6364 22.7075 17.6208 24.441 16.8725C26.1744 16.1242 28.0266 15.75 29.9975 15.75C31.9684 15.75 33.8209 16.124 35.5551 16.872C37.2893 17.62 38.7979 18.6351 40.0807 19.9174C41.3635 21.1997 42.3791 22.7075 43.1274 24.441C43.8758 26.1744 44.2499 28.0266 44.2499 29.9975C44.2499 31.9684 43.8759 33.8209 43.1279 35.5551C42.3799 37.2893 41.3648 38.7979 40.0826 40.0807C38.8003 41.3635 37.2924 42.3791 35.559 43.1274C33.8255 43.8758 31.9734 44.2499 30.0025 44.2499ZM30.1215 23.5788C30.8135 23.5788 31.4125 23.7967 31.9182 24.2324C32.424 24.6681 32.6769 25.2128 32.6769 25.8663C32.6769 26.4163 32.5154 26.9086 32.1923 27.3432C31.8692 27.7779 31.5 28.1827 31.0846 28.5577C30.5401 29.0407 30.0607 29.572 29.6464 30.1517C29.2321 30.7313 29.0106 31.3769 28.9817 32.0885C28.9721 32.3615 29.0683 32.5903 29.2702 32.775C29.4721 32.9596 29.7077 33.0519 29.9769 33.0519C30.2654 33.0519 30.5096 32.9557 30.7096 32.7634C30.9096 32.5711 31.0374 32.3355 31.0932 32.0567C31.1932 31.5413 31.4062 31.0822 31.7322 30.6793C32.0581 30.2764 32.4112 29.8933 32.7915 29.53C33.3382 28.9972 33.8153 28.4162 34.223 27.787C34.6307 27.1578 34.8345 26.4561 34.8345 25.6817C34.8345 24.4933 34.3663 23.5168 33.4298 22.7524C32.4932 21.988 31.4 21.6058 30.15 21.6058C29.2577 21.6058 28.4163 21.8034 27.6259 22.1986C26.8356 22.5938 26.2202 23.1702 25.7798 23.9279C25.6433 24.1606 25.5994 24.4055 25.6483 24.6626C25.6972 24.9198 25.8292 25.115 26.0442 25.2483C26.3179 25.4007 26.599 25.4442 26.8875 25.3788C27.1759 25.3134 27.4211 25.149 27.623 24.8856C27.9269 24.4913 28.2947 24.175 28.7264 23.9365C29.1581 23.698 29.6231 23.5788 30.1215 23.5788Z" fill="#F71756"/>
</svg>
