<svg width="60" height="60" viewBox="0 0 60 60" fill="none" xmlns="http://www.w3.org/2000/svg">
<circle cx="30" cy="30" r="30" fill="#3D2644"/>
<g clip-path="url(#clip0_167_29151)">
<mask id="mask0_167_29151" style="mask-type:luminance" maskUnits="userSpaceOnUse" x="17" y="19" width="27" height="31">
<path d="M16.9999 49.9991H43.2275L43.2275 19.5644L16.9999 19.5644L16.9999 49.9991Z" fill="white"/>
</mask>
<g mask="url(#mask0_167_29151)">
<path fill-rule="evenodd" clip-rule="evenodd" d="M19.3818 49.9991H40.8458C42.5856 49.9991 43.2276 49.357 43.2276 47.6165V26.6141C43.2276 26.4171 43.2197 26.2341 43.2023 26.0646C43.1627 25.6847 43.1552 25.3165 42.8019 24.8974C42.7674 24.8563 42.4066 24.5879 42.4066 24.5879C42.2126 24.4927 42.0801 24.4226 41.8612 24.3345L31.292 19.9064C30.7434 19.6549 30.5139 19.5569 30.1154 19.5648V19.5647C30.1149 19.5647 30.1144 19.5647 30.1138 19.5647C30.1133 19.5647 30.1128 19.5647 30.1123 19.5647V19.5648C29.7137 19.5569 29.4843 19.6549 28.9356 19.9064L18.3665 24.3345C18.1476 24.4226 18.0151 24.4927 17.821 24.5879C17.821 24.5879 17.4603 24.8563 17.4258 24.8974C17.0725 25.3165 17.065 25.6847 17.0254 26.0646C17.008 26.2341 17 26.4171 17 26.6141V47.6165C17 49.357 17.6421 49.9991 19.3818 49.9991Z" fill="#666666"/>
<path d="M20.8196 28.8839L20.8244 28.8354L20.8292 28.7822L20.839 28.7337L20.8534 28.6853L20.8628 28.6417L20.8774 28.5932L20.8968 28.5496L20.9162 28.5108L20.9352 28.4673L20.9595 28.4285L20.9837 28.3897L21.0125 28.351L21.0367 28.3122L21.0655 28.2784L21.0994 28.2444L21.1282 28.2154L21.1669 28.1814L21.2005 28.1524L21.2393 28.1233L21.2778 28.0994L21.3163 28.0703L21.3599 28.0461L21.4032 28.0267L21.4465 28.0025L21.4949 27.9831L21.5431 27.9637L21.5912 27.9492L21.6394 27.9346L21.683 27.9202L21.7311 27.9105L21.7745 27.9008L21.8178 27.8911L21.8662 27.8814L21.9144 27.8766L21.9577 27.8717L22.0062 27.8668L22.0592 27.862L22.1073 27.8572H22.1555H22.2085H22.2618H22.3099L22.3581 27.862H22.4111L22.4593 27.8668L22.5077 27.8717L22.5607 27.8766L22.6089 27.8862L22.657 27.8911L22.7055 27.9008L22.7537 27.9105L22.8018 27.9202L22.85 27.9298L22.8984 27.9443L22.9417 27.9541L22.9899 27.9686L23.038 27.9831L23.0816 28.0025L23.1297 28.017L23.1731 28.0315L23.2213 28.0509L23.2648 28.0703L23.3082 28.0897L23.3515 28.1136L23.3951 28.133L23.4384 28.1573L23.4769 28.1814L23.5205 28.2057L23.559 28.2299L23.5977 28.2541L23.6362 28.2832L23.6746 28.3122L23.7134 28.3413L23.7519 28.3704L23.7858 28.3994L23.8243 28.4333L23.7952 28.4721L23.7616 28.506L23.7325 28.5448L23.6989 28.5836L23.6698 28.6174L23.641 28.6562L23.6071 28.695L23.5783 28.7289L23.5444 28.7676L23.5156 28.8016L23.4817 28.8403L23.453 28.8791L23.4239 28.913L23.3903 28.9517L23.3612 28.9905L23.3276 29.0244L23.2985 29.0631L23.26 29.0341L23.2167 29.005L23.1779 28.9759L23.1346 28.9468L23.0959 28.9227L23.0525 28.8936L23.0141 28.8694L22.9704 28.85L22.932 28.8258L22.8887 28.8063L22.8451 28.787L22.8018 28.7676L22.7584 28.7531L22.7149 28.7337L22.6667 28.7192L22.6185 28.7047L22.5752 28.6901L22.5267 28.6804L22.4786 28.6707L22.4305 28.6611L22.3774 28.6562L22.3291 28.6465H22.2808L22.2279 28.6417H22.1797H22.1219L22.0689 28.6465L22.0204 28.6562L21.9771 28.6659L21.9338 28.6756L21.895 28.6901L21.8614 28.7095L21.8226 28.7385L21.7939 28.7725L21.7745 28.8113L21.7599 28.8548L21.7551 28.9033V28.913L21.7599 28.9711L21.7793 29.0196L21.8035 29.0535L21.8371 29.0825L21.876 29.1116L21.9144 29.131L21.9577 29.1503L22.0062 29.1697L22.064 29.1939L22.0977 29.2036L22.1361 29.2133L22.1797 29.2279L22.223 29.2375L22.2712 29.2521L22.3197 29.2618L22.3726 29.2763L22.4208 29.286L22.4738 29.3005L22.522 29.3102L22.5704 29.3247L22.6185 29.3344L22.6667 29.349L22.7103 29.3635L22.7584 29.3732L22.8018 29.3877L22.8451 29.4022L22.8887 29.4168L22.9417 29.4362L22.9899 29.4556L23.038 29.475L23.0865 29.4943L23.1297 29.5186L23.1779 29.5428L23.2167 29.5669L23.26 29.5912L23.2985 29.6202L23.3372 29.6444L23.3708 29.6736L23.4047 29.7075L23.4384 29.7414L23.4675 29.7753L23.4962 29.8092L23.5205 29.8431L23.5444 29.8819L23.5686 29.9254L23.588 29.959L23.6026 29.9978L23.6168 30.0414L23.6313 30.0802L23.641 30.1286L23.6507 30.1723L23.6556 30.2207L23.6604 30.2692L23.6652 30.3224V30.3757V30.3854V30.4339L23.6604 30.4823L23.6556 30.5259L23.6507 30.5744L23.641 30.6179L23.6313 30.6615L23.6168 30.7052L23.6071 30.7487L23.588 30.7923L23.5686 30.8359L23.5493 30.8795L23.5253 30.9231L23.5011 30.9667L23.4723 31.0055L23.4432 31.0442L23.4096 31.083L23.3757 31.1169L23.3421 31.1557L23.3033 31.1896L23.2697 31.2138L23.2309 31.2429L23.1924 31.272L23.154 31.2961L23.1104 31.3204L23.0671 31.3398L23.0238 31.3639L22.9802 31.3833L22.932 31.3979L22.8839 31.4172L22.8403 31.4318L22.8018 31.4415L22.7584 31.4512L22.7149 31.4608L22.6667 31.4705L22.6234 31.4803L22.5752 31.4851L22.5267 31.4899L22.4786 31.4948L22.4305 31.4996H22.3823H22.3291H22.276H22.223L22.17 31.4948L22.117 31.4899H22.0689L22.0156 31.4851L21.9674 31.4754L21.9144 31.4705L21.8662 31.4608L21.8226 31.4512L21.7745 31.4415L21.7263 31.4318L21.683 31.4221L21.6346 31.4076L21.5912 31.393L21.5479 31.3833L21.4995 31.3639L21.4562 31.3494L21.4129 31.3301L21.3695 31.3107L21.3211 31.2913L21.2778 31.2671L21.2393 31.2477L21.1957 31.2235L21.1524 31.1993L21.1139 31.175L21.0703 31.146L21.0318 31.1218L20.9931 31.0927L20.9546 31.0636L20.9162 31.0346L20.9449 30.9958L20.9691 30.957L20.9979 30.9183L21.027 30.8795L21.0557 30.8359L21.08 30.7972L21.1091 30.7584L21.1379 30.7197L21.162 30.6809L21.1909 30.6421L21.2199 30.6034L21.2442 30.5646L21.2729 30.521L21.302 30.4823L21.3308 30.4435L21.355 30.4048L21.3838 30.3661L21.4226 30.3951L21.4658 30.4193L21.5043 30.4435L21.5431 30.4726L21.5864 30.4919L21.6252 30.5162L21.6685 30.5356L21.7069 30.555L21.7505 30.5744L21.789 30.5937L21.8323 30.6082L21.871 30.6276L21.9241 30.6421L21.9723 30.6567L22.0204 30.6712L22.0689 30.6809L22.117 30.6906L22.1652 30.7003L22.2133 30.7052L22.2618 30.71L22.3051 30.7148H22.3533H22.4111L22.4641 30.7052L22.5126 30.6955L22.5558 30.6858L22.5943 30.6664L22.6282 30.647L22.6716 30.6082L22.7007 30.5646L22.7197 30.521L22.7246 30.4726V30.4629L22.7197 30.3999L22.6958 30.3466L22.6764 30.3176L22.6428 30.2836L22.5992 30.2594L22.5607 30.2352L22.5126 30.2158L22.4593 30.1964L22.4014 30.1771L22.3629 30.1674L22.3244 30.1529L22.2808 30.1432L22.2376 30.1286L22.1894 30.1189L22.1361 30.1044L22.0831 30.0899L22.0301 30.0753L21.9771 30.0657L21.929 30.0511L21.876 30.0366L21.8275 30.0269L21.7793 30.0124L21.7311 29.9978L21.6878 29.9833L21.6394 29.9688L21.5961 29.9542L21.5528 29.9397L21.4995 29.9206L21.4513 29.8963L21.4032 29.877L21.355 29.8528L21.3114 29.8285L21.2681 29.8044L21.2296 29.7801L21.1909 29.7511L21.1524 29.7269L21.1139 29.6929L21.0752 29.659L21.0415 29.6202L21.0077 29.5864L20.9789 29.5476L20.9498 29.504L20.9258 29.4653L20.9016 29.4216L20.8822 29.3829L20.8677 29.3393L20.8534 29.2957L20.8438 29.2521L20.8341 29.2036L20.8244 29.1552L20.8196 29.1067L20.8147 29.0535V29.0002V28.9905V28.9372L20.8196 28.8839ZM24.2019 27.9152H24.2503H24.2984H24.3466H24.3947H24.4432H24.4914H24.5395H24.5877H24.641H24.6891H24.7372H24.7854H24.8339H24.882H24.9302H24.9784H25.0269H25.075H25.1231H25.1713H25.2195H25.2679H25.3161H25.3642H25.4124H25.4609H25.509H25.5571H25.6102H25.6586H25.7068H25.7549H25.8031H25.8515H25.8997H25.9478H25.996H26.0444H26.0926H26.1407H26.1889H26.2374H26.2855H26.3337H26.3818H26.4303H26.4784H26.5315H26.5796H26.6277H26.6762H26.7244H26.7726H26.8207H26.8691H26.9173H26.9654V27.9637V28.0122V28.0606V28.1088V28.1573V28.2057V28.2541V28.3025V28.351V28.3994V28.4479V28.4963V28.5448V28.5932V28.6417V28.6901V28.7385V28.787V28.8306V28.8791V28.9275V28.9759V29.0244V29.0728V29.1213V29.1697V29.2182V29.2666V29.315V29.3635V29.4119V29.4604V29.5088V29.5573V29.6058V29.6542V29.7026V29.7511V29.7995V29.848V29.8963V29.9446V29.993V30.0414V30.0899V30.1383V30.1868V30.2352V30.2836V30.3321V30.3806V30.429V30.4775V30.5259V30.5695V30.6179V30.6664V30.7148V30.7633V30.8117V30.8602V30.9086V30.957V31.0055V31.0539V31.1024V31.1509V31.1993V31.2477V31.2961V31.3446V31.393V31.4415H26.9173H26.8691H26.8207H26.7726H26.7244H26.6762H26.6277H26.5796H26.5315H26.4833H26.4348H26.3866H26.3385H26.2904H26.2468H26.1986H26.1505H26.1023H26.0538H26.0057H25.9576H25.9094H25.8609H25.8128H25.7646H25.7165H25.668H25.6198H25.5717H25.5235H25.4751H25.4269H25.3788H25.3306H25.2824H25.2339H25.1858H25.1377H25.0895H25.041H24.9929H24.9447H24.8966H24.853H24.8048H24.7567H24.7085H24.66H24.6119H24.5638H24.5156H24.4671H24.419H24.3708H24.3227H24.2742H24.226H24.1779V31.393V31.3494V31.301V31.2525V31.2042V31.1605V31.1121V31.0636V31.02V30.9716V30.9231V30.8795V30.8311V30.7827V30.7342V30.6906V30.6421H24.226H24.2742H24.3227H24.3708H24.419H24.4671H24.5107H24.5589H24.607H24.6552H24.7037H24.7518H24.8H24.8481H24.8966H24.9447H24.9929H25.041H25.0895H25.1328H25.181H25.2292H25.2776H25.3257H25.3739H25.4221H25.4705H25.5187H25.5668H25.615H25.6634H25.7116H25.7549H25.8031H25.8515H25.8997H25.9478H25.996H26.0444V30.5937V30.5453V30.4969V30.4484V30.3999V30.3563V30.3079V30.2594V30.211V30.1625V30.1141V30.0657H25.996H25.9478H25.8997H25.8515H25.8031H25.7549H25.7068H25.6586H25.615H25.5668H25.5187H25.4705H25.4221H25.3739H25.3257H25.2776H25.2292H25.181H25.1328H25.0846H25.0363H24.9881H24.9399H24.8917H24.8433H24.7951H24.7518H24.7037H24.6552H24.607H24.5589H24.5107H24.4623H24.4141H24.366V30.0172V29.9736V29.9254V29.877V29.8334V29.785V29.7365V29.6929V29.6444V29.596V29.5476V29.504V29.4556V29.4071V29.3635V29.315H24.4141H24.4623H24.5107H24.5589H24.607H24.6552H24.7037H24.7518H24.7951H24.8433H24.8917H24.9399H24.9881H25.0363H25.0846H25.1328H25.181H25.2292H25.2776H25.3257H25.3739H25.4221H25.4705H25.5187H25.5668H25.615H25.6586H25.7068H25.7549H25.8031H25.8515H25.8997H25.9478H25.996H26.0444V29.2666V29.2133V29.1649V29.1164V29.0631V29.0146V28.9663V28.913V28.8645V28.8161V28.7628V28.7144H25.996H25.9478H25.8997H25.8515H25.8031H25.7549H25.7068H25.6586H25.6102H25.5571H25.509H25.4609H25.4124H25.3642H25.3161H25.2679H25.2195H25.1713H25.1231H25.075H25.0269H24.9784H24.9302H24.882H24.8339H24.7854H24.7372H24.6891H24.641H24.5877H24.5395H24.4914H24.4432H24.3947H24.3466H24.2984H24.2503H24.2019H24.1537V28.6659V28.6223V28.5738V28.5254V28.4769V28.4333V28.3849V28.3365V28.2929V28.2444V28.196V28.1524V28.1042V28.0558V28.0074V27.9637V27.9152H24.2019ZM27.7258 27.9152H27.7739H27.8221H27.8753H27.9235H27.9717H28.0198H28.0683H28.1165H28.1695H28.2176H28.2658H28.3142H28.3624H28.4105H28.4635H28.512H28.5601H28.6083V27.9637V28.0122V28.0606V28.1091V28.1578V28.2062V28.2547V28.3032V28.3516V28.4V28.4485V28.4972V28.5456V28.5941V28.6425V28.691V28.7397V28.7882V28.8366V28.885V28.9335V28.9819V29.0307V29.0791V29.1276V29.176V29.2244V29.2729V29.3216V29.3701V29.4185V29.4669V29.5154V29.5638V29.6126V29.661V29.7094V29.7579V29.8063V29.8551V29.9035V29.952V30.0004L28.6325 29.9617L28.6613 29.9177L28.6855 29.879L28.7143 29.8402L28.7385 29.7967L28.7676 29.7579L28.7915 29.7191L28.8158 29.6752L28.8445 29.6365L28.8688 29.5977L28.8978 29.559L28.9217 29.5151L28.9508 29.4763L28.9747 29.4376L28.999 29.394L29.0281 29.355L29.052 29.3162L29.0811 29.2726L29.105 29.2338L29.134 29.1951L29.158 29.1512L29.1822 29.1124L29.2112 29.0737L29.2352 29.03L29.2643 28.9911L29.2882 28.9523L29.3173 28.9135L29.3415 28.87L29.3655 28.8309L29.3945 28.7922L29.4184 28.7485L29.4475 28.7098L29.4717 28.6711L29.5005 28.6271L29.5247 28.5884H29.5439L29.5729 28.632L29.5971 28.6711L29.6259 28.7147L29.6502 28.7534L29.6789 28.7969L29.7032 28.836L29.7319 28.8796L29.7562 28.9184L29.7852 28.962L29.8092 29.0007L29.8382 29.0446L29.8621 29.0834L29.8912 29.127L29.9154 29.1657L29.9442 29.2096L29.9685 29.2484L29.9972 29.292L30.0263 29.3307L30.0505 29.3746L30.0793 29.4133L30.1035 29.457L30.1323 29.4957L30.1565 29.5396L30.1853 29.5784L30.2095 29.622L30.2386 29.6607L30.2625 29.7043L30.2916 29.7434L30.3155 29.7869L30.3446 29.8258L30.3688 29.8694L30.3976 29.908L30.4219 29.952L30.4506 29.9907V29.9423V29.8938V29.8454V29.7967V29.7482V29.6998V29.6513V29.6029V29.5541V29.5057V29.4621V29.4137V29.3652V29.3168V29.268V29.2196V29.1712V29.1227V29.0743V29.0258V28.9771V28.9286V28.8802V28.8317V28.7833V28.7348V28.6861V28.6377V28.5892V28.5408V28.4923V28.4437V28.4V28.3516V28.3032V28.2547V28.2062V28.1578V28.1091V28.0606V28.0122V27.9637V27.9152H30.4988H30.5472H30.5954H30.6435H30.6917H30.7401H30.7883H30.8365H30.8846H30.9331H30.9812H31.0294H31.0776H31.126H31.1741H31.2223H31.2705H31.3189H31.3671V27.9637V28.0122V28.0606V28.1088V28.1573V28.2057V28.2541V28.3025V28.351V28.3994V28.4479V28.4963V28.5448V28.5932V28.6417V28.6901V28.7385V28.787V28.8306V28.8791V28.9275V28.9759V29.0244V29.0728V29.1213V29.1697V29.2182V29.2666V29.315V29.3635V29.4119V29.4604V29.5088V29.5573V29.6058V29.6542V29.7026V29.7511V29.7995V29.848V29.8963V29.9446V29.993V30.0414V30.0899V30.1383V30.1868V30.2352V30.2836V30.3321V30.3806V30.429V30.4775V30.5259V30.5695V30.6179V30.6664V30.7148V30.7633V30.8117V30.8602V30.9086V30.957V31.0055V31.0539V31.1024V31.1509V31.1993V31.2477V31.2961V31.3446V31.393V31.4415H31.3189H31.2705H31.2271H31.179H31.1308H31.0824H31.0391H30.9909H30.9425H30.8943H30.851H30.8028H30.7543H30.7062H30.6629H30.6148H30.5663H30.5181H30.4748H30.4267H30.3782L30.3543 31.4027L30.3301 31.3592L30.3013 31.3207L30.2771 31.2771L30.2529 31.2384L30.2289 31.1947L30.2047 31.1562L30.1759 31.1126L30.1517 31.0739L30.1274 31.0351L30.1035 30.9918L30.0793 30.953L30.0505 30.9095L30.0263 30.8707L30.0021 30.8274L29.9781 30.7887L29.9491 30.7499L29.9248 30.7065L29.9009 30.6678L29.8767 30.6242L29.8527 30.5854L29.8237 30.5421L29.7995 30.5034L29.7755 30.4598L29.7513 30.4213L29.7274 30.3826L29.6983 30.339L29.6741 30.3002L29.6502 30.2566L29.6259 30.2181L29.602 30.1745L29.5729 30.1357L29.5487 30.0925L29.5247 30.0537L29.5005 30.0925L29.4763 30.1357L29.4475 30.1745L29.4234 30.2181L29.3994 30.2566L29.3751 30.3002L29.3464 30.339L29.3221 30.3826L29.2979 30.4213L29.274 30.4598L29.2449 30.5034L29.221 30.5421L29.1967 30.5854L29.1726 30.6242L29.1438 30.6678L29.1196 30.7065L29.0953 30.7499L29.0714 30.7887L29.0471 30.8274L29.0183 30.8707L28.9941 30.9095L28.97 30.953L28.946 30.9918L28.9169 31.0351L28.893 31.0739L28.8688 31.1126L28.8445 31.1562L28.8158 31.1947L28.7915 31.2384L28.7676 31.2771L28.7434 31.3207L28.7143 31.3592L28.6904 31.4027L28.6662 31.4415H28.618H28.5698H28.5263H28.478H28.4299H28.3817H28.3381H28.29H28.2418H28.1937H28.1501H28.1019H28.0538H28.0056H27.962H27.9138H27.8657H27.8175H27.7739H27.7258H27.6776V31.393V31.3446V31.2961V31.2477V31.1993V31.1509V31.1024V31.0539V31.0055V30.957V30.9086V30.8602V30.8117V30.7633V30.7148V30.6664V30.6179V30.5695V30.5259V30.4775V30.429V30.3806V30.3321V30.2836V30.2352V30.1868V30.1383V30.0899V30.0414V29.993V29.9446V29.8963V29.848V29.7995V29.7511V29.7026V29.6542V29.6058V29.5573V29.5088V29.4604V29.4119V29.3635V29.315V29.2666V29.2182V29.1697V29.1213V29.0728V29.0244V28.9759V28.9275V28.8791V28.8306V28.787V28.7385V28.6901V28.6417V28.5932V28.5448V28.4963V28.4479V28.3994V28.351V28.3025V28.2541V28.2057V28.1573V28.1088V28.0606V28.0122V27.9637V27.9152H27.7258ZM33.3216 29.3683L33.3362 29.4122L33.3553 29.4607L33.3747 29.5043L33.3892 29.5481L33.4083 29.5917L33.4276 29.6402L33.4422 29.6841L33.4616 29.7277L33.4806 29.7713L33.4952 29.8151L33.5146 29.8636L33.5288 29.9072L33.5482 29.9511L33.5676 29.9947L33.5821 30.0383L33.6012 30.087L33.6206 30.1307L33.6351 30.1742L33.6545 30.2181L33.6736 30.2666L33.6881 30.3105L33.7075 30.3541L33.7266 30.3105L33.7411 30.2666L33.7605 30.2181L33.7799 30.1742L33.7941 30.1307L33.8135 30.087L33.8329 30.0383L33.852 29.9947L33.8666 29.9511L33.8859 29.9072L33.9053 29.8636L33.9196 29.8151L33.9389 29.7713L33.9583 29.7277L33.9728 29.6841L33.9919 29.6402L34.0113 29.5917L34.0307 29.5481L34.0449 29.5043L34.0643 29.4607L34.0837 29.4122L34.0982 29.3683L34.1173 29.3247H34.0691H34.021H33.9728H33.9244H33.8762H33.8281H33.7799H33.7314H33.6881H33.64H33.5915H33.5434H33.4952H33.447H33.3989H33.3505H33.3023L33.3216 29.3683ZM31.807 27.9152H31.8555H31.8988H31.9469H31.9954H32.0435H32.0917H32.135H32.1835H32.2316H32.2798H32.328H32.3764H32.4198H32.4679H32.5161H32.5645H32.6127H32.656H32.7041H32.7526L32.7717 27.9589L32.7862 28.0025L32.8056 28.0461L32.8249 28.0945L32.8392 28.1379L32.8586 28.1814L32.878 28.225L32.8922 28.2686L32.9116 28.3122L32.931 28.3558L32.9455 28.3994L32.9646 28.4479L32.984 28.4915L32.9985 28.5351L33.0179 28.5787H33.0661H33.1142H33.1624H33.2105H33.2541H33.3023H33.3505H33.3989H33.447H33.4952H33.5434H33.5915H33.64H33.6881H33.7314H33.7799H33.8281H33.8762H33.9244H33.9728H34.021H34.0691H34.1173H34.1654H34.2091H34.2572H34.3054H34.3539H34.402L34.4211 28.5351L34.4356 28.4915L34.455 28.4479L34.4743 28.3994L34.4886 28.3558L34.5079 28.3122L34.5274 28.2686L34.5419 28.225L34.561 28.1814L34.5804 28.1379L34.5949 28.0945L34.614 28.0461L34.6334 28.0025L34.6479 27.9589L34.6673 27.9152H34.7154H34.7636H34.8117H34.8602H34.9084H34.9614H35.0095H35.0577H35.1061H35.1543H35.2024H35.2506H35.2991H35.3472H35.3953H35.4483H35.4968H35.5449H35.5932H35.6413L35.6222 27.9589L35.6028 28.0025L35.5835 28.0461L35.5644 28.0945L35.5498 28.1379L35.5304 28.1814L35.5111 28.225L35.492 28.2686L35.4726 28.3122L35.4532 28.3607L35.4341 28.4043L35.4147 28.4479L35.4003 28.4915L35.3809 28.5351L35.3618 28.5787L35.3424 28.6271L35.323 28.6707L35.3039 28.7144L35.2845 28.7579L35.2652 28.8016L35.2506 28.8452L35.2316 28.8936L35.2121 28.9372L35.1928 28.9808L35.1737 29.0244L35.1543 29.068L35.1349 29.1116L35.1158 29.1601L35.1013 29.2036L35.0819 29.2472L35.0625 29.2908L35.0434 29.3344L35.0241 29.3781L35.0047 29.4265L34.9856 29.4701L34.9662 29.5137L34.9517 29.5573L34.9323 29.6008L34.9132 29.6444L34.8938 29.6929L34.8744 29.7365L34.8553 29.7801L34.836 29.8237L34.8166 29.8673L34.8021 29.9109L34.783 29.9542L34.7636 30.0027L34.7443 30.0463L34.7251 30.0899L34.7058 30.1335L34.6864 30.1771L34.6673 30.2207L34.6528 30.2692L34.6334 30.3127L34.614 30.3563L34.5949 30.3999L34.5755 30.4435L34.5562 30.4871L34.537 30.5356L34.5177 30.5791L34.5032 30.6228L34.4838 30.6664L34.4647 30.71L34.4453 30.7536L34.4259 30.802L34.4069 30.8456L34.3875 30.8892L34.368 30.9328L34.3539 30.9764L34.3345 31.02L34.315 31.0685L34.2957 31.1121L34.2766 31.1557L34.2572 31.1993L34.2378 31.2429L34.2187 31.2864L34.2042 31.3349L34.1848 31.3785L34.1654 31.4221L34.1464 31.4657H34.0982H34.0546H34.0065H33.9583H33.9099H33.8666H33.8184H33.7702H33.7217H33.6784H33.6303H33.5821H33.5337H33.4904H33.4422H33.3941H33.3456H33.3023H33.2541L33.2348 31.4221L33.2154 31.3785L33.1963 31.3349L33.1769 31.2864L33.1624 31.2429L33.1433 31.1993L33.1239 31.1557L33.1045 31.1121L33.0851 31.0685L33.0661 31.02L33.0467 30.9764L33.0273 30.9328L33.0131 30.8892L32.9937 30.8456L32.9742 30.802L32.9549 30.7536L32.9358 30.71L32.9165 30.6664L32.897 30.6228L32.878 30.5791L32.8634 30.5356L32.8441 30.4871L32.8249 30.4435L32.8056 30.3999L32.7862 30.3563L32.7668 30.3127L32.7477 30.2692L32.7284 30.2207L32.7138 30.1771L32.6947 30.1335L32.6754 30.0899L32.656 30.0463L32.6366 30.0027L32.6175 29.9542L32.5981 29.9109L32.5788 29.8673L32.5645 29.8237L32.5452 29.7801L32.5258 29.7365L32.5066 29.6929L32.4873 29.6444L32.4679 29.6008L32.4485 29.5573L32.4294 29.5137L32.4149 29.4701L32.3955 29.4265L32.3764 29.3781L32.3571 29.3344L32.3377 29.2908L32.3183 29.2472L32.2992 29.2036L32.2798 29.1601L32.2653 29.1116L32.2462 29.068L32.2269 29.0244L32.2074 28.9808L32.1884 28.9372L32.169 28.8936L32.1496 28.8452L32.1302 28.8016L32.116 28.7579L32.0966 28.7144L32.0771 28.6707L32.0581 28.6271L32.0387 28.5787L32.0194 28.5351L32 28.4915L31.9809 28.4479L31.9663 28.4043L31.9469 28.3607L31.9278 28.3122L31.9085 28.2686L31.8892 28.225L31.8701 28.1814L31.8507 28.1379L31.8313 28.0945L31.8167 28.0461L31.7977 28.0025L31.7783 27.9589L31.7589 27.9152H31.807ZM36.0322 28.3656L36.071 28.3365L36.1047 28.3122L36.1434 28.2832L36.1819 28.259L36.2204 28.2299L36.2591 28.2057L36.2976 28.1814L36.3412 28.1573L36.3845 28.133L36.4279 28.1088L36.4714 28.0897L36.5148 28.0655L36.5629 28.0461L36.6062 28.0267L36.6547 28.0074L36.6979 27.988L36.7413 27.9734L36.7849 27.9589L36.8282 27.9443L36.8763 27.9298L36.9196 27.9152L36.9681 27.9056L37.0115 27.8959L37.0596 27.8862L37.108 27.8766L37.1562 27.8717L37.2092 27.8668L37.2574 27.862L37.3104 27.8572L37.3588 27.8523L37.4118 27.8475H37.4648H37.5179H37.5708H37.6193L37.6674 27.8523L37.7204 27.8572L37.7686 27.862L37.8167 27.8668L37.8652 27.8717L37.9133 27.8814L37.9616 27.8911L38.0048 27.9008L38.0532 27.9105L38.0966 27.925L38.1447 27.9346L38.1884 27.9492L38.2317 27.9686L38.275 27.9831L38.3231 28.0025L38.3667 28.0219L38.41 28.0412L38.4533 28.0606L38.497 28.0848L38.5354 28.1088L38.5787 28.133L38.6175 28.1573L38.656 28.1814L38.6947 28.2106L38.7332 28.2396L38.7717 28.2686L38.8056 28.2977L38.8392 28.3268L38.8731 28.3607L38.9067 28.3897L38.9407 28.4237L38.9743 28.4576L39.0033 28.4915L39.0322 28.5302L39.0612 28.5642L39.0855 28.6029L39.1142 28.6417L39.1384 28.6804L39.1624 28.7192L39.1866 28.7628L39.2108 28.8016L39.2299 28.8452L39.2493 28.8888L39.2686 28.9324L39.2878 28.9759L39.3023 29.0146L39.3217 29.0583L39.3314 29.1019L39.3456 29.1455L39.3553 29.1939L39.3698 29.2375L39.3795 29.286L39.3844 29.3296L39.3941 29.3781L39.3988 29.4216L39.4038 29.4701L39.4083 29.5186L39.4131 29.5669V29.6202V29.6687V29.6784V29.7269L39.4083 29.7801V29.8285L39.4038 29.877L39.3988 29.9303L39.3892 29.9785L39.3844 30.0269L39.3747 30.0705L39.3601 30.1189L39.3504 30.1674L39.3362 30.211L39.3217 30.2594L39.3071 30.303L39.2878 30.3515L39.2686 30.3951L39.2493 30.4387L39.2299 30.4823L39.2108 30.5259L39.1866 30.5695L39.1624 30.6082L39.1384 30.647L39.1142 30.6858L39.09 30.7245L39.0612 30.7633L39.0322 30.802L39.0033 30.8407L38.9743 30.8747L38.9407 30.9086L38.9116 30.9425L38.878 30.9764L38.8441 31.0104L38.8104 31.0394L38.7717 31.0733L38.7381 31.1024L38.6996 31.1314L38.6608 31.1557L38.6224 31.1847L38.5836 31.2089L38.5452 31.2332L38.5018 31.2574L38.4582 31.2816L38.4149 31.3058L38.3716 31.3252L38.328 31.3446L38.2798 31.3689L38.2414 31.3833L38.1932 31.3979L38.1495 31.4172L38.1062 31.427L38.063 31.4415L38.0146 31.4512L37.9712 31.4657L37.9231 31.4754L37.8749 31.4803L37.8264 31.4899L37.7783 31.4948L37.7302 31.4996L37.682 31.5045L37.6335 31.5093H37.5805H37.5323H37.4794H37.4264L37.373 31.5045L37.32 31.4996H37.2719L37.2237 31.4948L37.1707 31.4851L37.1271 31.4803L37.079 31.4705L37.0308 31.4608L36.9872 31.4512L36.9439 31.4415L36.9006 31.4318L36.857 31.4172L36.8137 31.4076L36.7752 31.393L36.7316 31.3785L36.6883 31.3592L36.645 31.3398L36.6014 31.3204L36.558 31.2961L36.5148 31.2768L36.4759 31.2525L36.4326 31.2283L36.3942 31.2042L36.3506 31.1799L36.3121 31.1509L36.2736 31.1266L36.2349 31.0975L36.1964 31.0685L36.1577 31.0346L36.1192 31.0055L36.1483 30.9667L36.1819 30.9328L36.211 30.8941L36.2446 30.8553L36.2736 30.8166L36.3024 30.7827L36.3364 30.7439L36.3651 30.7052L36.3942 30.6712L36.4279 30.6324L36.4569 30.5937L36.4905 30.555L36.5196 30.521L36.5484 30.4823L36.5822 30.4435L36.6111 30.4048L36.645 30.3708L36.6738 30.3321L36.7125 30.3612L36.751 30.3951L36.7897 30.4193L36.8282 30.4484L36.8667 30.4726L36.9054 30.4969L36.9439 30.521L36.9872 30.5453L37.026 30.5646L37.0645 30.584L37.1032 30.5986L37.1465 30.6131L37.1898 30.6276L37.2334 30.6373L37.2816 30.647L37.3297 30.6567L37.3779 30.6615L37.4309 30.6664L37.4842 30.6712H37.5372H37.5854L37.6335 30.6664L37.6771 30.6615L37.7253 30.6518L37.7686 30.6421L37.8122 30.6276L37.8555 30.6131L37.8988 30.5937L37.9422 30.5744L37.9809 30.5501L38.0193 30.5259L38.0581 30.5016L38.0917 30.4726L38.1257 30.4435L38.1593 30.4144L38.1884 30.3806L38.2219 30.3466L38.251 30.3079L38.275 30.274L38.2992 30.2352L38.3231 30.1916L38.3474 30.1529L38.3667 30.1093L38.3813 30.0657L38.4004 30.0221L38.4149 29.9736L38.4246 29.9254L38.4343 29.8819L38.444 29.8285L38.4488 29.7801L38.4533 29.7317V29.6784V29.6687V29.6202L38.4488 29.5718L38.444 29.5282L38.4391 29.4797L38.4294 29.4362L38.4197 29.3925L38.41 29.349L38.3955 29.3054L38.3813 29.2666L38.3618 29.2182L38.3425 29.1746L38.3186 29.131L38.2944 29.0922L38.2701 29.0535L38.2414 29.0146L38.2123 28.9808L38.1787 28.9468L38.1495 28.913L38.116 28.8839L38.0772 28.8548L38.0387 28.8258L38.0003 28.8016L37.9616 28.7773L37.9182 28.7579L37.8749 28.7385L37.8313 28.7192L37.7831 28.7047L37.735 28.6901L37.6865 28.6804L37.6384 28.6707L37.5902 28.6659L37.5372 28.6611H37.4842H37.4264L37.373 28.6659L37.32 28.6707L37.2719 28.6756L37.2237 28.6853L37.1753 28.695L37.1271 28.7095L37.0838 28.7192L37.0405 28.7385L37.0017 28.7579L36.9584 28.7773L36.9246 28.7967L36.886 28.8209V28.8694V28.9178V28.9663V29.0146V29.068V29.1164V29.1649V29.2133V29.2618H36.9342H36.9778H37.026H37.0741H37.1223H37.1659H37.2141H37.2622H37.3104H37.3539H37.4021H37.4503H37.4985H37.542H37.5902V29.3102V29.3538V29.4022V29.4507V29.4991V29.5428V29.5912V29.6397V29.688V29.7317V29.7801V29.8285V29.877V29.9206V29.9688H37.542H37.4936H37.4454H37.3973H37.3491H37.301H37.2525H37.2044H37.1562H37.108H37.0596H37.0115H36.9633H36.9152H36.8667H36.8185H36.7703H36.7222H36.6738H36.6256H36.5774H36.5293H36.4809H36.4326H36.3845H36.3364H36.2879H36.2397H36.1916H36.1434H36.095H36.0468H35.9986V29.9206V29.8722V29.8237V29.7801V29.7317V29.6833V29.6348V29.5864V29.5379V29.4943V29.4459V29.3974V29.349V29.3005V29.2521V29.2036V29.1601V29.1116V29.0631V29.0146V28.9663V28.9178V28.8694V28.8258V28.7773V28.7289V28.6804V28.632V28.5836V28.5399V28.4915V28.4431V28.3946L36.0322 28.3656Z" fill="#666666"/>
<path d="M37.5833 39.4201H35.493V41.0369H37.5833V44.3378H35.4098V45.9546H39.3583V34.2855H35.3767V35.9024H37.5833V39.4201Z" fill="#666666"/>
<path d="M22.6113 39.0698V36.4359C22.6113 35.969 22.8271 35.7525 23.2748 35.7525H23.6068C24.0712 35.7525 24.287 35.969 24.287 36.4359V43.8043C24.287 44.271 24.0712 44.4876 23.6068 44.4876H23.3081C22.8602 44.4876 22.6444 44.271 22.6444 43.8043V41.5202H20.9027V43.9043C20.9027 45.3545 21.5995 46.0547 23.0425 46.0547H23.9054C25.3485 46.0547 26.0621 45.3379 26.0621 43.8875V36.3527C26.0621 34.9022 25.3485 34.1855 23.9054 34.1855H23.026C21.5826 34.1855 20.8694 34.9022 20.8694 36.3527V39.0698H22.6113Z" fill="#666666"/>
<path d="M28.7755 34.2855H27.0002V45.9547H28.7755V34.2855Z" fill="#666666"/>
<path d="M31.3512 40.7702C31.3512 40.3034 31.5667 40.0866 32.0146 40.0866H32.7447V44.3876H32.0146C31.5667 44.3876 31.3512 44.171 31.3512 43.7043V40.7702ZM31.7328 45.9547H34.5198V34.2855H32.7447V38.5198H31.7328C30.2894 38.5198 29.5762 39.2365 29.5762 40.6867V43.7875C29.5762 45.2379 30.2894 45.9547 31.7328 45.9547Z" fill="#666666"/>
<path fill-rule="evenodd" clip-rule="evenodd" d="M35.1707 23.7343H25.009L30.1957 22.0238L35.1707 23.7343Z" fill="#666666"/>
</g>
<mask id="mask1_167_29151" style="mask-type:luminance" maskUnits="userSpaceOnUse" x="17" y="10" width="27" height="31">
<path d="M43.2276 10H17V40.4347H43.2276V10Z" fill="white"/>
</mask>
<g mask="url(#mask1_167_29151)">
<path fill-rule="evenodd" clip-rule="evenodd" d="M40.8458 10H19.3818C17.6421 10 17 10.6421 17 12.3826V33.385C17 33.582 17.0079 33.765 17.0253 33.9344C17.065 34.3144 17.0724 34.6825 17.4257 35.1017C17.4603 35.1428 17.821 35.4112 17.821 35.4112C18.0151 35.5064 18.1476 35.5764 18.3664 35.6645L28.9356 40.0927C29.4843 40.3442 29.7137 40.4422 30.1122 40.4343V40.4344C30.1127 40.4344 30.1132 40.4344 30.1138 40.4344C30.1143 40.4344 30.1148 40.4344 30.1153 40.4344V40.4343C30.5139 40.4422 30.7433 40.3442 31.292 40.0927L41.8612 35.6645C42.0801 35.5764 42.2125 35.5064 42.4066 35.4112C42.4066 35.4112 42.7673 35.1428 42.8018 35.1017C43.1552 34.6825 43.1626 34.3144 43.2022 33.9344C43.2196 33.765 43.2276 33.582 43.2276 33.385V12.3826C43.2276 10.6421 42.5855 10 40.8458 10Z" fill="white"/>
<path d="M39.4083 31.1152L39.4034 31.1636L39.3986 31.2169L39.3888 31.2653L39.3744 31.3137L39.365 31.3573L39.3504 31.4058L39.3311 31.4494L39.3116 31.4882L39.2925 31.5318L39.2684 31.5705L39.2442 31.6093L39.2153 31.6481L39.1911 31.6868L39.1623 31.7207L39.1284 31.7546L39.0996 31.7837L39.0609 31.8176L39.0273 31.8467L38.9885 31.8758L38.95 31.8997L38.9116 31.9287L38.868 31.9529L38.8246 31.9723L38.7813 31.9965L38.7329 32.0159L38.6847 32.0354L38.6366 32.0498L38.5884 32.0644L38.5448 32.0789L38.4967 32.0886L38.4533 32.0983L38.41 32.108L38.3616 32.1177L38.3134 32.1225L38.2701 32.1274L38.2216 32.1322L38.1687 32.1371L38.1205 32.1419H38.0723H38.0193H37.966H37.9179L37.8697 32.1371H37.8167L37.7685 32.1322L37.7201 32.1274L37.6671 32.1225L37.619 32.1128L37.5708 32.108L37.5223 32.0983L37.4741 32.0886L37.426 32.0789L37.3779 32.0692L37.3294 32.0547L37.2861 32.045L37.238 32.0305L37.1898 32.0159L37.1462 31.9965L37.0981 31.982L37.0547 31.9675L37.0065 31.9481L36.963 31.9287L36.9196 31.9093L36.8763 31.8855L36.8327 31.866L36.7894 31.8418L36.7509 31.8176L36.7073 31.7934L36.6688 31.7692L36.6301 31.7449L36.5916 31.7159L36.5532 31.6868L36.5144 31.6577L36.4759 31.6287L36.442 31.5996L36.4036 31.5657L36.4326 31.527L36.4662 31.493L36.4953 31.4542L36.5289 31.4155L36.558 31.3816L36.5868 31.3429L36.6207 31.3041L36.6495 31.2702L36.6834 31.2315L36.7122 31.1975L36.7461 31.1588L36.7749 31.12L36.804 31.0861L36.8376 31.0474L36.8666 31.0086L36.9002 30.9747L36.9293 30.9359L36.9678 30.965L37.0111 30.9941L37.0499 31.0232L37.0932 31.0522L37.1319 31.0764L37.1753 31.1054L37.2137 31.1297L37.2574 31.149L37.2958 31.1733L37.3391 31.1927L37.3827 31.2121L37.426 31.2315L37.4694 31.246L37.5129 31.2653L37.5611 31.2799L37.6093 31.2944L37.6526 31.309L37.7011 31.3187L37.7492 31.3283L37.7973 31.338L37.8504 31.3429L37.8987 31.3526H37.947L37.9999 31.3573H38.0481H38.1059L38.1589 31.3526L38.2074 31.3429L38.2507 31.3332L38.294 31.3235L38.3328 31.309L38.3664 31.2896L38.4052 31.2605L38.4339 31.2266L38.4533 31.1878L38.4679 31.1443L38.4727 31.0958V31.0861L38.4679 31.0279L38.4485 30.9795L38.4243 30.9456L38.3907 30.9165L38.3518 30.8875L38.3134 30.8681L38.2701 30.8487L38.2216 30.8293L38.1638 30.8052L38.1302 30.7954L38.0917 30.7858L38.0481 30.7712L38.0048 30.7615L37.9566 30.747L37.9082 30.7373L37.8552 30.7228L37.807 30.7131L37.754 30.6985L37.7058 30.6889L37.6574 30.6743L37.6093 30.6646L37.5611 30.6501L37.5175 30.6356L37.4694 30.6259L37.426 30.6113L37.3827 30.5968L37.3391 30.5823L37.2861 30.5629L37.238 30.5435L37.1898 30.5241L37.1413 30.5047L37.0981 30.4805L37.0499 30.4563L37.0111 30.4321L36.9678 30.4079L36.9293 30.3788L36.8906 30.3546L36.857 30.3255L36.8231 30.2916L36.7894 30.2577L36.7604 30.2237L36.7316 30.1898L36.7073 30.156L36.6834 30.1172L36.6592 30.0736L36.6398 30.04L36.6252 30.0012L36.611 29.9576L36.5965 29.9189L36.5868 29.8704L36.5771 29.8268L36.5722 29.7784L36.5674 29.7299L36.5626 29.6767V29.6234V29.6137V29.5652L36.5674 29.5168L36.5722 29.4732L36.5771 29.4247L36.5868 29.3812L36.5965 29.3376L36.611 29.2939L36.6207 29.2504L36.6398 29.2067L36.6592 29.1631L36.6785 29.1196L36.7025 29.0759L36.7267 29.0324L36.7555 28.9936L36.7846 28.9548L36.8182 28.9161L36.8521 28.8822L36.8857 28.8434L36.9245 28.8095L36.9581 28.7853L36.9969 28.7562L37.0354 28.7271L37.0738 28.7029L37.1174 28.6787L37.1608 28.6593L37.204 28.6351L37.2476 28.6157L37.2958 28.6012L37.3439 28.5818L37.3875 28.5673L37.426 28.5575L37.4694 28.5479L37.5129 28.5382L37.5611 28.5285L37.6044 28.5188L37.6526 28.514L37.7011 28.5091L37.7492 28.5043L37.7973 28.4995H37.8455H37.8987H37.9518H38.0048L38.0578 28.5043L38.1108 28.5091H38.1589L38.2122 28.514L38.2604 28.5237L38.3134 28.5285L38.3616 28.5382L38.4052 28.5479L38.4533 28.5575L38.5015 28.5673L38.5448 28.577L38.5932 28.5915L38.6366 28.606L38.6799 28.6157L38.7283 28.6351L38.7717 28.6496L38.8149 28.669L38.8583 28.6884L38.9067 28.7078L38.95 28.732L38.9885 28.7514L39.0321 28.7756L39.0754 28.7998L39.1139 28.8241L39.1575 28.8531L39.196 28.8773L39.2348 28.9064L39.2732 28.9355L39.3116 28.9645L39.2829 29.0033L39.2587 29.042L39.2299 29.0808L39.2008 29.1196L39.1721 29.1631L39.1478 29.2019L39.1187 29.2407L39.0899 29.2794L39.0658 29.3182L39.0369 29.3569L39.0079 29.3957L38.9837 29.4344L38.9549 29.478L38.9258 29.5168L38.897 29.5555L38.8728 29.5943L38.844 29.633L38.8053 29.604L38.762 29.5798L38.7235 29.5555L38.6847 29.5265L38.6414 29.5071L38.6026 29.4829L38.5593 29.4634L38.5209 29.4441L38.4773 29.4247L38.4388 29.4054L38.3955 29.3908L38.3568 29.3714L38.3037 29.3569L38.2555 29.3423L38.2074 29.3279L38.1589 29.3182L38.1108 29.3085L38.0626 29.2987L38.0145 29.2939L37.966 29.2891L37.9227 29.2842H37.8746H37.8167L37.7637 29.2939L37.7152 29.3036L37.672 29.3133L37.6335 29.3327L37.5996 29.352L37.5562 29.3908L37.5272 29.4344L37.5082 29.478L37.5032 29.5265V29.5362L37.5082 29.5991L37.532 29.6524L37.5514 29.6815L37.585 29.7154L37.6286 29.7396L37.6671 29.7638L37.7152 29.7832L37.7685 29.8027L37.8264 29.822L37.8649 29.8317L37.9034 29.8462L37.947 29.8559L37.9903 29.8704L38.0384 29.8801L38.0917 29.8946L38.1447 29.9092L38.1978 29.9237L38.2507 29.9334L38.2988 29.9479L38.3518 29.9625L38.4003 29.9721L38.4485 29.9867L38.4967 30.0012L38.54 30.0157L38.5884 30.0303L38.6318 30.0448L38.675 30.0594L38.7283 30.0784L38.7765 30.1027L38.8246 30.122L38.8728 30.1462L38.9164 30.1705L38.9597 30.1947L38.9982 30.2189L39.0369 30.248L39.0754 30.2722L39.1139 30.3062L39.1526 30.34L39.1863 30.3788L39.2202 30.4127L39.2489 30.4515L39.278 30.4951L39.302 30.5338L39.3262 30.5774L39.3456 30.6162L39.3601 30.6598L39.3744 30.7034L39.3841 30.747L39.3937 30.7954L39.4034 30.8439L39.4083 30.8923L39.4131 30.9456V30.9989V31.0086V31.0619L39.4083 31.1152ZM36.0259 32.0838H35.9775H35.9294H35.8812H35.8331H35.7846H35.7364H35.6883H35.6401H35.5869H35.5387H35.4906H35.4424H35.3939H35.3458H35.2976H35.2494H35.201H35.1528H35.1047H35.0565H35.0083H34.9599H34.9118H34.8636H34.8154H34.767H34.7188H34.6707H34.6177H34.5692H34.521H34.4729H34.4247H34.3763H34.3281H34.28H34.2318H34.1834H34.1352H34.0871H34.0389H33.9904H33.9423H33.8941H33.846H33.7976H33.7494H33.6964H33.6482H33.6001H33.5516H33.5035H33.4552H33.4072H33.3587H33.3105H33.2624V32.0354V31.9869V31.9385V31.8903V31.8418V31.7934V31.7449V31.6966V31.6481V31.5996V31.5512V31.5027V31.4542V31.4058V31.3573V31.309V31.2605V31.2121V31.1684V31.12V31.0715V31.0232V30.9747V30.9262V30.8778V30.8293V30.7809V30.7324V30.684V30.6356V30.5871V30.5387V30.4902V30.4418V30.3933V30.3449V30.2964V30.248V30.1996V30.1511V30.1027V30.0545V30.0061V29.9576V29.9092V29.8607V29.8123V29.7638V29.7154V29.667V29.6185V29.5701V29.5216V29.4732V29.4296V29.3812V29.3327V29.2842V29.2358V29.1873V29.1389V29.0904V29.042V28.9936V28.9451V28.8967V28.8482V28.7998V28.7514V28.7029V28.6545V28.606V28.5575H33.3105H33.3587H33.4072H33.4552H33.5035H33.5516H33.6001H33.6482H33.6964H33.7445H33.793H33.8412H33.8893H33.9375H33.981H34.0292H34.0774H34.1255H34.174H34.2221H34.2703H34.3184H34.3669H34.415H34.4632H34.5114H34.5598H34.608H34.6561H34.7043H34.7527H34.801H34.849H34.8972H34.9454H34.9939H35.042H35.0902H35.1383H35.1868H35.2349H35.2831H35.3312H35.3749H35.423H35.4712H35.5193H35.5678H35.6159H35.6641H35.7122H35.7607H35.8088H35.857H35.9052H35.9536H36.0018H36.0499V28.606V28.6496V28.6981V28.7465V28.7949V28.8385V28.887V28.9355V28.979V29.0275V29.0759V29.1196V29.168V29.2164V29.2649V29.3085V29.3569H36.0018H35.9536H35.9052H35.857H35.8088H35.7607H35.7171H35.6689H35.6208H35.5726H35.5242H35.476H35.4278H35.3797H35.3312H35.2831H35.2349H35.1868H35.1383H35.095H35.0468H34.9986H34.9502H34.9021H34.8539H34.8057H34.7573H34.7091H34.661H34.6128H34.5644H34.5162H34.4729H34.4247H34.3763H34.3281H34.28H34.2318H34.1834V29.4054V29.4538V29.5022V29.5507V29.5991V29.6427V29.6912V29.7396V29.7881V29.8365V29.8849V29.9334H34.2318H34.28H34.3281H34.3763H34.4247H34.4729H34.521H34.5692H34.6128H34.661H34.7091H34.7573H34.8057H34.8539H34.9021H34.9502H34.9986H35.0468H35.095H35.1432H35.1916H35.2397H35.2879H35.3361H35.3845H35.4327H35.476H35.5242H35.5726H35.6208H35.6689H35.7171H35.7655H35.8137H35.8618V29.9818V30.0254V30.0736V30.122V30.1657V30.2141V30.2626V30.3062V30.3546V30.403V30.4515V30.4951V30.5435V30.592V30.6356V30.684H35.8137H35.7655H35.7171H35.6689H35.6208H35.5726H35.5242H35.476H35.4327H35.3845H35.3361H35.2879H35.2397H35.1916H35.1432H35.095H35.0468H34.9986H34.9502H34.9021H34.8539H34.8057H34.7573H34.7091H34.661H34.6128H34.5692H34.521H34.4729H34.4247H34.3763H34.3281H34.28H34.2318H34.1834V30.7324V30.7858V30.8342V30.8827V30.9359V30.9844V31.0328V31.0861V31.1345V31.183V31.2363V31.2847H34.2318H34.28H34.3281H34.3763H34.4247H34.4729H34.521H34.5692H34.6177H34.6707H34.7188H34.767H34.8154H34.8636H34.9118H34.9599H35.0083H35.0565H35.1047H35.1528H35.201H35.2494H35.2976H35.3458H35.3939H35.4424H35.4906H35.5387H35.5869H35.6401H35.6883H35.7364H35.7846H35.8331H35.8812H35.9294H35.9775H36.0259H36.0742V31.3332V31.3768V31.4252V31.4737V31.5221V31.5657V31.6141V31.6626V31.7062V31.7546V31.8031V31.8467V31.8949V31.9433V31.9917V32.0354V32.0838H36.0259ZM32.502 32.0838H32.4539H32.4057H32.3525H32.3043H32.2561H32.208H32.1595H32.1114H32.0583H32.0102H31.962H31.9136H31.8654H31.8173H31.7643H31.7158H31.6677H31.6195V32.0354V31.9869V31.9385V31.89V31.8412V31.7928V31.7444V31.6959V31.6475V31.599V31.5506V31.5019V31.4534V31.405V31.3565V31.3081V31.2593V31.2109V31.1625V31.114V31.0656V31.0172V30.9684V30.92V30.8715V30.823V30.7747V30.7262V30.6774V30.629V30.5805V30.5321V30.4837V30.4352V30.3865V30.3381V30.2896V30.2412V30.1927V30.144V30.0956V30.0471V29.9986L31.5953 30.0374L31.5665 30.0813L31.5423 30.1201L31.5135 30.1588L31.4893 30.2024L31.4602 30.2412L31.4363 30.2799L31.412 30.3238L31.3833 30.3626L31.359 30.4013L31.33 30.4401L31.3061 30.484L31.277 30.5227L31.2531 30.5615L31.2288 30.6051L31.1997 30.6441L31.1758 30.6829L31.1467 30.7264L31.1228 30.7652L31.0938 30.804L31.0698 30.8478L31.0456 30.8867L31.0166 30.9254L30.9926 30.969L30.9636 31.008L30.9396 31.0467L30.9105 31.0856L30.8863 31.1291L30.8623 31.1681L30.8333 31.2069L30.8094 31.2505L30.7803 31.2893L30.7561 31.328L30.7273 31.3719L30.7031 31.4107H30.684L30.6549 31.3671L30.6307 31.328L30.6019 31.2844L30.5777 31.2457L30.5489 31.2021L30.5246 31.1631L30.4959 31.1195L30.4716 31.0806L30.4426 31.0371L30.4186 30.9984L30.3896 30.9544L30.3657 30.9157L30.3366 30.8721L30.3124 30.8333L30.2836 30.7894L30.2594 30.7507L30.2306 30.7071L30.2015 30.6683L30.1773 30.6245L30.1485 30.5857L30.1243 30.5421L30.0955 30.5034L30.0713 30.4594L30.0425 30.4207L30.0183 30.3771L29.9892 30.3383L29.9653 30.2947L29.9362 30.2557L29.9123 30.2121L29.8832 30.1733L29.859 30.1297L29.8303 30.091L29.8059 30.0471L29.7772 30.0084V30.0568V30.1052V30.1537V30.2024V30.2509V30.2993V30.3477V30.3962V30.4449V30.4934V30.537V30.5854V30.6339V30.6823V30.731V30.7795V30.8279V30.8763V30.9248V30.9733V31.0219V31.0704V31.1189V31.1673V31.2158V31.2642V31.3129V31.3614V31.4098V31.4583V31.5067V31.5554V31.599V31.6475V31.6959V31.7444V31.7928V31.8412V31.89V31.9385V31.9869V32.0354V32.0838H29.729H29.6806H29.6324H29.5843H29.5361H29.4877H29.4395H29.3914H29.3432H29.2947H29.2466H29.1984H29.1503H29.1018H29.0537H29.0055H28.9573H28.9089H28.8607V32.0354V31.9869V31.9385V31.8903V31.8418V31.7934V31.7449V31.6966V31.6481V31.5996V31.5512V31.5027V31.4542V31.4058V31.3573V31.309V31.2605V31.2121V31.1684V31.12V31.0715V31.0232V30.9747V30.9262V30.8778V30.8293V30.7809V30.7324V30.684V30.6356V30.5871V30.5387V30.4902V30.4418V30.3933V30.3449V30.2964V30.248V30.1996V30.1511V30.1027V30.0545V30.0061V29.9576V29.9092V29.8607V29.8123V29.7638V29.7154V29.667V29.6185V29.5701V29.5216V29.4732V29.4296V29.3812V29.3327V29.2842V29.2358V29.1873V29.1389V29.0904V29.042V28.9936V28.9451V28.8967V28.8482V28.7998V28.7514V28.7029V28.6545V28.606V28.5575H28.9089H28.9573H29.0007H29.0488H29.097H29.1454H29.1887H29.2369H29.2853H29.3335H29.3768H29.425H29.4735H29.5216H29.5649H29.613H29.6615H29.7097H29.753H29.8011H29.8496L29.8735 28.5963L29.8977 28.6399L29.9265 28.6784L29.9507 28.722L29.9749 28.7607L29.9989 28.8044L30.0231 28.8428L30.0519 28.8865L30.0761 28.9252L30.1004 28.964L30.1243 29.0072L30.1485 29.046L30.1773 29.0896L30.2015 29.1284L30.2257 29.1717L30.2497 29.2104L30.2787 29.2491L30.303 29.2925L30.3269 29.3312L30.3511 29.3749L30.3751 29.4136L30.4042 29.4569L30.4284 29.4957L30.4523 29.5393L30.4765 29.5777L30.5005 29.6165L30.5295 29.6601L30.5537 29.6989L30.5777 29.7425L30.6019 29.781L30.6258 29.8246L30.6549 29.8633L30.6791 29.9066L30.7031 29.9454L30.7273 29.9066L30.7515 29.8633L30.7803 29.8246L30.8044 29.781L30.8284 29.7425L30.8527 29.6989L30.8814 29.6601L30.9057 29.6165L30.9299 29.5777L30.9538 29.5393L30.9829 29.4957L31.0068 29.4569L31.0311 29.4136L31.0552 29.3749L31.084 29.3312L31.1082 29.2925L31.1325 29.2491L31.1564 29.2104L31.1807 29.1717L31.2095 29.1284L31.2337 29.0896L31.2579 29.046L31.2819 29.0072L31.3109 28.964L31.3349 28.9252L31.359 28.8865L31.3833 28.8428L31.412 28.8044L31.4363 28.7607L31.4602 28.722L31.4844 28.6784L31.5135 28.6399L31.5375 28.5963L31.5616 28.5575H31.6098H31.658H31.7015H31.7498H31.7979H31.8461H31.8897H31.9379H31.986H32.0342H32.0778H32.1259H32.174H32.2222H32.2658H32.314H32.3621H32.4103H32.4539H32.502H32.5502V28.606V28.6545V28.7029V28.7514V28.7998V28.8482V28.8967V28.9451V28.9936V29.042V29.0904V29.1389V29.1873V29.2358V29.2842V29.3327V29.3812V29.4296V29.4732V29.5216V29.5701V29.6185V29.667V29.7154V29.7638V29.8123V29.8607V29.9092V29.9576V30.0061V30.0545V30.1027V30.1511V30.1996V30.248V30.2964V30.3449V30.3933V30.4418V30.4902V30.5387V30.5871V30.6356V30.684V30.7324V30.7809V30.8293V30.8778V30.9262V30.9747V31.0232V31.0715V31.12V31.1684V31.2121V31.2605V31.309V31.3573V31.4058V31.4542V31.5027V31.5512V31.5996V31.6481V31.6966V31.7449V31.7934V31.8418V31.8903V31.9385V31.9869V32.0354V32.0838H32.502ZM26.9062 30.6307L26.8916 30.5868L26.8725 30.5384L26.8532 30.4948L26.8386 30.4509L26.8195 30.4073L26.8002 30.3588L26.7856 30.315L26.7662 30.2713L26.7472 30.2278L26.7326 30.1839L26.7132 30.1355L26.699 30.0919L26.6796 30.048L26.6602 30.0044L26.6457 29.9607L26.6266 29.9121L26.6072 29.8684L26.5927 29.8249L26.5733 29.781L26.5542 29.7325L26.5397 29.6886L26.5203 29.645L26.5012 29.6886L26.4867 29.7325L26.4673 29.781L26.4479 29.8249L26.4337 29.8684L26.4143 29.9121L26.3949 29.9607L26.3758 30.0044L26.3612 30.048L26.3419 30.0919L26.3225 30.1355L26.3082 30.1839L26.2889 30.2278L26.2695 30.2713L26.255 30.315L26.2359 30.3588L26.2165 30.4073L26.1971 30.4509L26.1829 30.4948L26.1636 30.5384L26.1441 30.5868L26.1296 30.6307L26.1105 30.6743H26.1587H26.2068H26.255H26.3035H26.3516H26.3997H26.4479H26.4964H26.5397H26.5878H26.6363H26.6844H26.7326H26.7808H26.8289H26.8774H26.9255L26.9062 30.6307ZM28.4208 32.0838H28.3723H28.329H28.2809H28.2324H28.1843H28.1361H28.0928H28.0443H27.9962H27.948H27.8998H27.8514H27.8081H27.7599H27.7117H27.6633H27.6151H27.5718H27.5237H27.4752L27.4561 32.0401L27.4416 31.9965L27.4222 31.9529L27.4029 31.9045L27.3886 31.8612L27.3692 31.8176L27.3499 31.774L27.3356 31.7304L27.3162 31.6868L27.2968 31.6432L27.2823 31.5996L27.2632 31.5512L27.2438 31.5076L27.2293 31.464L27.2099 31.4204H27.1617H27.1136H27.0654H27.0173H26.9737H26.9255H26.8774H26.8289H26.7808H26.7326H26.6844H26.6363H26.5878H26.5397H26.4964H26.4479H26.3997H26.3516H26.3035H26.255H26.2068H26.1587H26.1105H26.0624H26.0187H25.9706H25.9224H25.8739H25.8258L25.8068 31.464L25.7922 31.5076L25.7728 31.5512L25.7535 31.5996L25.7392 31.6432L25.7199 31.6868L25.7005 31.7304L25.6859 31.774L25.6669 31.8176L25.6474 31.8612L25.6329 31.9045L25.6138 31.9529L25.5944 31.9965L25.5799 32.0401L25.5605 32.0838H25.5124H25.4642H25.4161H25.3676H25.3195H25.2665H25.2183H25.1701H25.1217H25.0735H25.0254H24.9772H24.9287H24.8806H24.8325H24.7795H24.731H24.6829H24.6346H24.5865L24.6056 32.0401L24.625 31.9965L24.6443 31.9529L24.6635 31.9045L24.678 31.8612L24.6974 31.8176L24.7167 31.774L24.7358 31.7304L24.7552 31.6868L24.7746 31.6384L24.7937 31.5947L24.8131 31.5512L24.8275 31.5076L24.847 31.464L24.866 31.4204L24.8854 31.3719L24.9048 31.3283L24.9239 31.2847L24.9433 31.2411L24.9627 31.1975L24.9772 31.1539L24.9963 31.1054L25.0157 31.0619L25.035 31.0183L25.0541 30.9747L25.0735 30.9311L25.0929 30.8875L25.112 30.839L25.1266 30.7954L25.1459 30.7518L25.1653 30.7082L25.1844 30.6646L25.2038 30.621L25.2231 30.5726L25.2422 30.529L25.2616 30.4854L25.2761 30.4418L25.2955 30.3982L25.3146 30.3546L25.334 30.3062L25.3534 30.2626L25.3725 30.2189L25.3918 30.1753L25.4112 30.1318L25.4257 30.0881L25.4448 30.0448L25.4642 29.9964L25.4836 29.9528L25.5027 29.9092L25.522 29.8656L25.5414 29.822L25.5605 29.7784L25.575 29.7299L25.5944 29.6863L25.6138 29.6427L25.6329 29.5991L25.6523 29.5555L25.6716 29.5119L25.6908 29.4634L25.7101 29.4199L25.7246 29.3763L25.744 29.3327L25.7631 29.2891L25.7825 29.2455L25.8019 29.1971L25.8209 29.1535L25.8404 29.1098L25.8598 29.0662L25.8739 29.0227L25.8934 28.979L25.9128 28.9306L25.9321 28.887L25.9512 28.8434L25.9706 28.7998L25.99 28.7562L26.0091 28.7126L26.0237 28.6642L26.043 28.6206L26.0624 28.577L26.0814 28.5334H26.1296H26.1732H26.2213H26.2695H26.318H26.3612H26.4094H26.4576H26.5061H26.5494H26.5975H26.6457H26.6941H26.7375H26.7856H26.8337H26.8822H26.9255H26.9737L26.9931 28.577L27.0124 28.6206L27.0316 28.6642L27.0509 28.7126L27.0654 28.7562L27.0845 28.7998L27.1039 28.8434L27.1233 28.887L27.1427 28.9306L27.1617 28.979L27.1811 29.0227L27.2006 29.0662L27.2147 29.1098L27.2341 29.1535L27.2536 29.1971L27.2729 29.2455L27.292 29.2891L27.3114 29.3327L27.3308 29.3763L27.3499 29.4199L27.3644 29.4634L27.3837 29.5119L27.4029 29.5555L27.4222 29.5991L27.4416 29.6427L27.461 29.6863L27.4801 29.7299L27.4994 29.7784L27.514 29.822L27.5331 29.8656L27.5524 29.9092L27.5718 29.9528L27.5912 29.9964L27.6103 30.0448L27.6297 30.0881L27.649 30.1318L27.6633 30.1753L27.6827 30.2189L27.702 30.2626L27.7212 30.3062L27.7405 30.3546L27.7599 30.3982L27.7793 30.4418L27.7984 30.4854L27.8129 30.529L27.8323 30.5726L27.8514 30.621L27.8707 30.6646L27.8902 30.7082L27.9095 30.7518L27.9286 30.7954L27.948 30.839L27.9625 30.8875L27.9816 30.9311L28.001 30.9747L28.0204 31.0183L28.0395 31.0619L28.0588 31.1054L28.0782 31.1539L28.0977 31.1975L28.1118 31.2411L28.1313 31.2847L28.1507 31.3283L28.1697 31.3719L28.1891 31.4204L28.2085 31.464L28.2278 31.5076L28.2469 31.5512L28.2615 31.5947L28.2809 31.6384L28.3 31.6868L28.3193 31.7304L28.3386 31.774L28.3578 31.8176L28.3771 31.8612L28.3965 31.9045L28.4111 31.9529L28.4301 31.9965L28.4495 32.0401L28.4689 32.0838H28.4208ZM24.1956 31.6335L24.1568 31.6626L24.1231 31.6868L24.0844 31.7159L24.0459 31.7401L24.0074 31.7692L23.9687 31.7934L23.9302 31.8176L23.8866 31.8418L23.8433 31.866L23.7999 31.8903L23.7564 31.9093L23.7131 31.9336L23.6649 31.9529L23.6216 31.9723L23.5732 31.9917L23.5299 32.0111L23.4865 32.0256L23.4429 32.0401L23.3996 32.0547L23.3515 32.0692L23.3082 32.0838L23.2597 32.0935L23.2164 32.1032L23.1682 32.1128L23.1198 32.1225L23.0716 32.1274L23.0186 32.1322L22.9704 32.1371L22.9174 32.1419L22.869 32.1468L22.816 32.1516H22.763H22.7099H22.657H22.6085L22.5604 32.1468L22.5074 32.1419L22.4592 32.1371L22.4111 32.1322L22.3626 32.1274L22.3145 32.1177L22.2662 32.108L22.223 32.0983L22.1746 32.0886L22.1312 32.0741L22.0831 32.0644L22.0395 32.0498L21.9961 32.0305L21.9528 32.0159L21.9047 31.9965L21.8611 31.9772L21.8178 31.9579L21.7745 31.9385L21.7308 31.9143L21.6924 31.8903L21.6491 31.866L21.6103 31.8418L21.5719 31.8176L21.5331 31.7885L21.4946 31.7595L21.4561 31.7304L21.4222 31.7013L21.3886 31.6723L21.3547 31.6384L21.3211 31.6093L21.2871 31.5754L21.2535 31.5415L21.2245 31.5076L21.1956 31.4688L21.1666 31.4349L21.1424 31.3962L21.1136 31.3573L21.0894 31.3187L21.0654 31.2799L21.0412 31.2363L21.017 31.1975L20.9979 31.1539L20.9785 31.1103L20.9592 31.0667L20.9401 31.0232L20.9255 30.9844L20.9061 30.9407L20.8965 30.8971L20.8822 30.8536L20.8725 30.8052L20.858 30.7615L20.8483 30.7131L20.8434 30.6695L20.8337 30.621L20.829 30.5774L20.824 30.529L20.8195 30.4805L20.8147 30.4321V30.3788V30.3304V30.3207V30.2722L20.8195 30.2189V30.1705L20.824 30.122L20.829 30.0688L20.8386 30.0206L20.8434 29.9721L20.8531 29.9285L20.8676 29.8801L20.8774 29.8317L20.8916 29.7881L20.9061 29.7396L20.9207 29.696L20.9401 29.6476L20.9592 29.604L20.9785 29.5604L20.9979 29.5168L21.017 29.4732L21.0412 29.4296L21.0654 29.3908L21.0894 29.352L21.1136 29.3133L21.1378 29.2745L21.1666 29.2358L21.1956 29.1971L21.2245 29.1583L21.2535 29.1243L21.2871 29.0904L21.3162 29.0565L21.3499 29.0227L21.3837 28.9887L21.4174 28.9597L21.4561 28.9257L21.4898 28.8967L21.5283 28.8676L21.567 28.8434L21.6055 28.8143L21.6442 28.7901L21.6827 28.7659L21.726 28.7417L21.7696 28.7174L21.8129 28.6932L21.8562 28.6738L21.8998 28.6545L21.948 28.6302L21.9865 28.6157L22.0346 28.6012L22.0783 28.5818L22.1216 28.5721L22.1648 28.5575L22.2132 28.5479L22.2566 28.5334L22.3047 28.5237L22.3529 28.5188L22.4014 28.5091L22.4496 28.5043L22.4977 28.4995L22.5458 28.4946L22.5943 28.4897H22.6473H22.6955H22.7484H22.8014L22.8548 28.4946L22.9078 28.4995H22.9559L23.0041 28.5043L23.0571 28.514L23.1007 28.5188L23.1488 28.5285L23.197 28.5382L23.2406 28.5479L23.2839 28.5575L23.3272 28.5673L23.3708 28.5818L23.4141 28.5915L23.4526 28.606L23.4962 28.6206L23.5396 28.6399L23.5828 28.6593L23.6264 28.6787L23.6698 28.7029L23.7131 28.7223L23.7519 28.7465L23.7952 28.7707L23.8336 28.7949L23.8772 28.8192L23.9157 28.8482L23.9542 28.8725L23.9929 28.9015L24.0314 28.9306L24.0701 28.9645L24.1086 28.9936L24.0795 29.0324L24.0459 29.0662L24.0168 29.105L23.9832 29.1437L23.9542 29.1825L23.9254 29.2164L23.8915 29.2551L23.8627 29.2939L23.8336 29.3279L23.7999 29.3666L23.7709 29.4054L23.7373 29.4441L23.7082 29.478L23.6795 29.5168L23.6456 29.5555L23.6167 29.5943L23.5828 29.6282L23.554 29.667L23.5153 29.6379L23.4768 29.604L23.4381 29.5798L23.3996 29.5507L23.3611 29.5265L23.3224 29.5022L23.2839 29.478L23.2406 29.4538L23.2019 29.4344L23.1633 29.4151L23.1246 29.4005L23.0813 29.386L23.038 29.3714L22.9944 29.3618L22.9462 29.352L22.8981 29.3423L22.8499 29.3376L22.7969 29.3327L22.7436 29.3279H22.6906H22.6425L22.5943 29.3327L22.5507 29.3376L22.5026 29.3472L22.4592 29.3569L22.4156 29.3714L22.3723 29.386L22.329 29.4054L22.2857 29.4247L22.2469 29.4489L22.2085 29.4732L22.1697 29.4974L22.1361 29.5265L22.1022 29.5555L22.0686 29.5846L22.0395 29.6185L22.0059 29.6524L21.9768 29.6912L21.9528 29.7251L21.9286 29.7638L21.9047 29.8074L21.8804 29.8462L21.8611 29.8898L21.8466 29.9334L21.8274 29.977L21.8129 30.0254L21.8032 30.0736L21.7935 30.1172L21.7838 30.1705L21.779 30.2189L21.7745 30.2673V30.3207V30.3304V30.3788L21.779 30.4273L21.7838 30.4709L21.7887 30.5193L21.7984 30.5629L21.8081 30.6065L21.8178 30.6501L21.8323 30.6937L21.8466 30.7324L21.866 30.7809L21.8853 30.8245L21.9092 30.8681L21.9334 30.9068L21.9577 30.9456L21.9865 30.9844L22.0155 31.0183L22.0491 31.0522L22.0783 31.0861L22.1118 31.1152L22.1506 31.1443L22.1891 31.1733L22.2275 31.1975L22.2662 31.2217L22.3097 31.2411L22.3529 31.2605L22.3965 31.2799L22.4447 31.2944L22.4928 31.309L22.5413 31.3187L22.5894 31.3283L22.6376 31.3332L22.6906 31.338H22.7436H22.8014L22.8548 31.3332L22.9078 31.3283L22.9559 31.3235L23.0041 31.3137L23.0525 31.3041L23.1007 31.2896L23.144 31.2799L23.1873 31.2605L23.2261 31.2411L23.2694 31.2217L23.3032 31.2024L23.3418 31.1781V31.1297V31.0813V31.0328V30.9844V30.9311V30.8827V30.8342V30.7858V30.7373H23.2936H23.25H23.2019H23.1537H23.1056H23.062H23.0137H22.9656H22.9174H22.8739H22.8257H22.7775H22.7293H22.6858H22.6376V30.6889V30.6453V30.5968V30.5484V30.4999V30.4563V30.4079V30.3594V30.311V30.2673V30.2189V30.1705V30.122V30.0784V30.0303H22.6858H22.7342H22.7824H22.8305H22.8787H22.9268H22.9753H23.0235H23.0716H23.1198H23.1682H23.2164H23.2645H23.3127H23.3611H23.4093H23.4575H23.5056H23.554H23.6023H23.6504H23.6985H23.7469H23.7952H23.8433H23.8915H23.9399H23.9881H24.0363H24.0844H24.1328H24.181H24.2292V30.0784V30.1269V30.1753V30.2189V30.2673V30.3158V30.3642V30.4127V30.4612V30.5047V30.5532V30.6017V30.6501V30.6985V30.747V30.7954V30.839V30.8875V30.9359V30.9844V31.0328V31.0813V31.1297V31.1733V31.2217V31.2702V31.3187V31.3671V31.4155V31.4591V31.5076V31.556V31.6045L24.1956 31.6335Z" fill="#343434"/>
<path d="M22.6444 20.579H24.7347V18.9622H22.6444V15.6613H24.8179V14.0445H20.8694V25.7136H24.851V24.0967H22.6444V20.579Z" fill="#343434"/>
<path d="M37.6163 20.9293V23.5632C37.6163 24.03 37.4005 24.2466 36.9528 24.2466H36.6208C36.1564 24.2466 35.9406 24.03 35.9406 23.5632V16.1948C35.9406 15.728 36.1564 15.5114 36.6208 15.5114H36.9195C37.3674 15.5114 37.5832 15.728 37.5832 16.1948V18.4788H39.3249V16.0947C39.3249 14.6446 38.6281 13.9444 37.1851 13.9444H36.3222C34.8791 13.9444 34.1655 14.6611 34.1655 16.1116V23.6464C34.1655 25.0969 34.8791 25.8136 36.3222 25.8136H37.2016C38.645 25.8136 39.3582 25.0969 39.3582 23.6464V20.9293H37.6163Z" fill="#343434"/>
<path d="M31.4521 25.7136H33.2274V14.0444H31.4521V25.7136Z" fill="#343434"/>
<path d="M28.8763 19.2289C28.8763 19.6956 28.6609 19.9125 28.2129 19.9125H27.4828V15.6115H28.2129C28.6609 15.6115 28.8763 15.8281 28.8763 16.2948V19.2289ZM28.4948 14.0444H25.7078V25.7136H27.4828V21.4792H28.4948C29.9381 21.4792 30.6514 20.7626 30.6514 19.3124V16.2116C30.6514 14.7612 29.9381 14.0444 28.4948 14.0444Z" fill="#343434"/>
<path fill-rule="evenodd" clip-rule="evenodd" d="M25.0569 36.2648H35.2185L30.0318 37.9752L25.0569 36.2648Z" fill="#343434"/>
</g>
<path d="M24.886 42.3607L27.9602 42.361V43.2659H26.9192V46.3991H25.9232V43.2659H24.886V42.3607Z" fill="white"/>
<path d="M23.5491 43.7182H24.4553C24.4553 43.3592 24.4962 42.9662 23.7996 42.549C23.258 42.2245 22.4621 42.3847 22.1562 42.5564C21.632 42.8507 21.497 43.2496 21.5084 43.6786C21.5275 44.392 22.0512 44.5515 22.5411 44.734C22.859 44.8524 23.2188 44.9235 23.4518 45.1377C23.541 45.2198 23.5782 45.3813 23.3844 45.4561C23.1085 45.5623 22.8128 45.5745 22.5055 45.3772C22.4004 45.3097 22.3659 45.2034 22.3659 45.089L21.4065 45.0767C21.4065 45.409 21.4666 45.6824 21.6769 45.9205C21.9798 46.2635 22.3949 46.3649 22.8452 46.3961C23.4095 46.4353 23.7404 46.3365 24.0134 46.1602C24.2912 45.9807 24.4668 45.7075 24.5189 45.3362C24.5506 45.1109 24.5753 44.8901 24.3167 44.5684C24.0847 44.3444 23.6883 44.1227 23.1859 43.9692C22.9453 43.8782 22.5899 43.7801 22.5263 43.6251C22.4612 43.4917 22.5615 43.3584 22.6463 43.3093C22.7836 43.2323 22.9821 43.2315 23.1556 43.297C23.3573 43.3732 23.5491 43.5202 23.5491 43.7182Z" fill="white"/>
<path d="M28.3667 43.6622L28.3579 44.9918C28.3579 46.8378 31.5556 46.8888 31.5556 44.9918V43.6622C31.5556 41.8561 28.3667 41.9924 28.3667 43.6622ZM29.9592 43.1944C30.2703 43.1997 30.5813 43.4017 30.5813 43.7846V44.9499C30.5813 45.7052 29.3369 45.6928 29.3369 44.9499V43.7846C29.3369 43.3806 29.6481 43.1892 29.9592 43.1944Z" fill="white"/>
<path d="M32.3372 42.3521V46.3866H33.3181V44.9477H33.7001L34.4823 46.3813H35.4824V46.0224L34.7603 44.8118C35.7791 44.2234 35.5308 42.3566 34.2399 42.3566L32.3372 42.3521ZM33.3203 43.2146L33.8764 43.2253C34.5099 43.2253 34.475 44.0724 33.8764 44.0764H33.3203V43.2146Z" fill="white"/>
<path d="M36.1489 42.3428L38.7176 42.3401V43.1937H37.1225V43.9439H38.4855V44.7903H37.1075V45.5394H38.77V46.3759H36.1489V42.3428Z" fill="white"/>
</g>
<defs>
<clipPath id="clip0_167_29151">
<rect width="26.2614" height="40" fill="white" transform="translate(17 10)"/>
</clipPath>
</defs>
</svg>
