<svg xmlns="http://www.w3.org/2000/svg" width="248" height="334" viewBox="0 0 248 334" fill="none">
  <path d="M216.082 0L207.89 10.0744H235.097V34.9246L247.83 28.477V0H216.082ZM221.345 6.04464C221.202 6.04473 221.061 6.02195 220.929 5.97768C220.797 5.9334 220.679 5.86855 220.579 5.787C220.48 5.70545 220.403 5.60889 220.352 5.50312C220.302 5.39736 220.278 5.28457 220.284 5.17153C220.252 5.0449 220.256 4.91426 220.296 4.78901C220.336 4.66377 220.41 4.54706 220.513 4.44725C220.617 4.34744 220.747 4.26704 220.895 4.21184C221.042 4.15663 221.203 4.12801 221.366 4.12801C221.53 4.12801 221.691 4.15663 221.838 4.21184C221.986 4.26704 222.116 4.34744 222.22 4.44725C222.323 4.54706 222.397 4.66377 222.437 4.78901C222.477 4.91426 222.481 5.0449 222.449 5.17153C222.467 5.29282 222.452 5.41587 222.405 5.5321C222.357 5.64833 222.278 5.75494 222.173 5.84448C222.068 5.93402 221.939 6.00432 221.796 6.05049C221.653 6.09667 221.499 6.11759 221.345 6.1118V6.04464ZM230.98 6.91776C230.543 6.91776 230.117 6.81534 229.754 6.62346C229.391 6.43158 229.108 6.15886 228.941 5.83978C228.774 5.5207 228.73 5.16959 228.815 4.83085C228.9 4.49212 229.111 4.18098 229.419 3.93676C229.728 3.69255 230.121 3.52623 230.549 3.45885C230.978 3.39147 231.421 3.42605 231.825 3.55822C232.228 3.69039 232.573 3.9142 232.815 4.20137C233.058 4.48854 233.187 4.82616 233.187 5.17153C233.193 5.4021 233.14 5.63122 233.031 5.84514C232.922 6.05907 232.76 6.2534 232.553 6.41647C232.347 6.57954 232.102 6.708 231.831 6.79414C231.561 6.88028 231.271 6.92233 230.98 6.91776ZM240.615 21.2906C240.472 21.2907 240.33 21.2679 240.199 21.2236C240.067 21.1793 239.948 21.1145 239.849 21.0329C239.75 20.9514 239.673 20.8548 239.622 20.7491C239.571 20.6433 239.548 20.5305 239.554 20.4174C239.522 20.2908 239.526 20.1602 239.566 20.0349C239.605 19.9097 239.679 19.793 239.783 19.6932C239.886 19.5934 240.017 19.513 240.164 19.4578C240.312 19.4026 240.473 19.3739 240.636 19.3739C240.799 19.3739 240.96 19.4026 241.108 19.4578C241.255 19.513 241.385 19.5934 241.489 19.6932C241.592 19.793 241.667 19.9097 241.706 20.0349C241.746 20.1602 241.75 20.2908 241.718 20.4174C241.724 20.5334 241.7 20.649 241.646 20.7571C241.593 20.8652 241.512 20.9633 241.408 21.0454C241.305 21.1274 241.181 21.1916 241.044 21.2338C240.907 21.276 240.761 21.2953 240.615 21.2906ZM240.615 14.5743C240.178 14.5743 239.752 14.4719 239.389 14.28C239.026 14.0881 238.743 13.8154 238.576 13.4963C238.409 13.1772 238.365 12.8261 238.45 12.4874C238.535 12.1487 238.745 11.8375 239.054 11.5933C239.363 11.3491 239.756 11.1828 240.184 11.1154C240.612 11.048 241.056 11.0826 241.459 11.2148C241.863 11.3469 242.207 11.5708 242.45 11.8579C242.692 12.1451 242.822 12.4827 242.822 12.8281C242.822 13.0558 242.764 13.2813 242.653 13.4913C242.542 13.7013 242.378 13.8917 242.173 14.0511C241.967 14.2106 241.724 14.3361 241.456 14.4201C241.189 14.5042 240.902 14.5452 240.615 14.5407V14.5743ZM240.615 7.48864C239.849 7.48864 239.115 7.24806 238.574 6.81981C238.033 6.39157 237.729 5.81074 237.729 5.20511C237.729 4.59947 238.033 4.01865 238.574 3.59041C239.115 3.16216 239.849 2.92157 240.615 2.92157C241.38 2.92157 242.114 3.16216 242.656 3.59041C243.197 4.01865 243.501 4.59947 243.501 5.20511C243.501 5.81074 243.197 6.39157 242.656 6.81981C242.114 7.24806 241.38 7.48864 240.615 7.48864Z" fill="#FDEB56"/>
  <path d="M31.9178 0H4.49771e-05V28.6449L13.0727 35.0925V10.2423H40.2368L31.9178 0ZM7.38525 21.2906C7.23873 21.2953 7.09259 21.276 6.95599 21.2338C6.81939 21.1916 6.69532 21.1274 6.59163 21.0454C6.48794 20.9633 6.40689 20.8652 6.35355 20.7571C6.30022 20.649 6.27568 20.5334 6.28167 20.4174C6.28167 20.1859 6.39802 19.9638 6.60497 19.8001C6.81192 19.6363 7.09257 19.5443 7.38525 19.5443C7.67793 19.5443 7.95858 19.6363 8.16553 19.8001C8.37249 19.9638 8.48883 20.1859 8.48883 20.4174C8.48883 20.5321 8.46023 20.6456 8.40477 20.7516C8.34931 20.8575 8.268 20.9538 8.16553 21.0348C8.06306 21.1159 7.9414 21.1802 7.80751 21.2241C7.67363 21.268 7.53017 21.2906 7.38525 21.2906ZM7.38525 14.5743C6.94702 14.581 6.51623 14.4843 6.14773 14.2965C5.77924 14.1087 5.48974 13.8384 5.31616 13.5199C5.14258 13.2015 5.09272 12.8494 5.17303 12.5085C5.25334 12.1675 5.46014 11.8532 5.76705 11.6057C6.07396 11.3581 6.46716 11.1884 6.89641 11.1183C7.32566 11.0481 7.77155 11.0807 8.17732 11.2118C8.58309 11.3429 8.93037 11.5667 9.17482 11.8545C9.41926 12.1424 9.54985 12.4813 9.54993 12.8281C9.53906 13.2796 9.30746 13.7102 8.90384 14.0296C8.50023 14.3489 7.95595 14.5321 7.38525 14.5407V14.5743ZM7.38525 7.48864C6.61979 7.48864 5.88566 7.24806 5.3444 6.81981C4.80313 6.39157 4.49909 5.81074 4.49909 5.20511C4.49909 4.59947 4.80313 4.01865 5.3444 3.59041C5.88566 3.16216 6.61979 2.92157 7.38525 2.92157C8.15071 2.92157 8.88484 3.16216 9.4261 3.59041C9.96737 4.01865 10.2714 4.59947 10.2714 5.20511C10.2714 5.81074 9.96737 6.39157 9.4261 6.81981C8.88484 7.24806 8.15071 7.48864 7.38525 7.48864ZM17.02 6.95134C16.5818 6.95801 16.151 6.86129 15.7825 6.67351C15.414 6.48573 15.1245 6.2154 14.9509 5.89696C14.7773 5.57853 14.7276 5.22641 14.8079 4.88549C14.8882 4.54457 15.095 4.23028 15.4019 3.9827C15.7088 3.73511 16.1019 3.56544 16.5311 3.49529C16.9604 3.42515 17.4063 3.45771 17.812 3.58883C18.2178 3.71996 18.5651 3.9437 18.8095 4.23155C19.054 4.5194 19.1846 4.85832 19.1847 5.20511C19.1738 5.65664 18.9422 6.08728 18.5386 6.40662C18.135 6.72596 17.5907 6.90916 17.02 6.91776V6.95134ZM26.6548 6.1118C26.5083 6.11654 26.362 6.0972 26.2255 6.055C26.0889 6.0128 25.9648 5.94865 25.8611 5.86661C25.7574 5.78457 25.6764 5.68642 25.623 5.57834C25.5697 5.47027 25.5453 5.35462 25.5513 5.23869C25.5513 5.00713 25.6675 4.78504 25.8744 4.6213C26.0814 4.45756 26.3622 4.36557 26.6548 4.36557C26.9475 4.36557 27.2282 4.45756 27.4351 4.6213C27.6421 4.78504 27.7583 5.00713 27.7583 5.23869C27.7583 5.47026 27.6421 5.69233 27.4351 5.85607C27.2282 6.01981 26.9475 6.1118 26.6548 6.1118Z" fill="#FDEB56"/>
  <path d="M235.097 295.986V320.836H203.646L211.838 331.078H248V302.434L235.097 295.986ZM221.345 326.746C221.095 326.707 220.869 326.6 220.708 326.444C220.546 326.288 220.457 326.092 220.457 325.89C220.457 325.688 220.546 325.492 220.708 325.336C220.869 325.18 221.095 325.073 221.345 325.034C221.505 325.009 221.67 325.012 221.829 325.043C221.987 325.074 222.134 325.133 222.261 325.215C222.387 325.297 222.488 325.4 222.558 325.517C222.628 325.634 222.664 325.761 222.664 325.89C222.664 326.019 222.628 326.147 222.558 326.263C222.488 326.38 222.387 326.483 222.261 326.565C222.134 326.647 221.987 326.706 221.829 326.737C221.67 326.768 221.505 326.772 221.345 326.746ZM230.98 327.62C230.542 327.62 230.113 327.516 229.749 327.323C229.386 327.129 229.103 326.855 228.937 326.534C228.771 326.213 228.73 325.86 228.819 325.52C228.908 325.181 229.122 324.869 229.435 324.627C229.748 324.384 230.145 324.22 230.576 324.157C231.007 324.093 231.452 324.133 231.854 324.27C232.257 324.407 232.598 324.636 232.836 324.928C233.073 325.219 233.195 325.56 233.187 325.907C233.187 326.135 233.13 326.36 233.018 326.57C232.907 326.78 232.744 326.97 232.538 327.13C232.333 327.289 232.089 327.415 231.821 327.499C231.554 327.583 231.268 327.624 230.98 327.62ZM240.615 309.788C240.775 309.763 240.94 309.766 241.098 309.797C241.256 309.829 241.404 309.887 241.53 309.969C241.656 310.051 241.758 310.154 241.828 310.271C241.897 310.388 241.934 310.515 241.934 310.644C241.934 310.773 241.897 310.901 241.828 311.017C241.758 311.134 241.656 311.237 241.53 311.319C241.404 311.401 241.256 311.46 241.098 311.491C240.94 311.522 240.775 311.526 240.615 311.5C240.364 311.461 240.139 311.354 239.977 311.198C239.815 311.042 239.727 310.846 239.727 310.644C239.727 310.442 239.815 310.246 239.977 310.09C240.139 309.934 240.364 309.827 240.615 309.788ZM240.615 316.504C241.053 316.497 241.484 316.594 241.852 316.782C242.221 316.97 242.51 317.24 242.684 317.559C242.857 317.877 242.907 318.229 242.827 318.57C242.747 318.911 242.54 319.225 242.233 319.473C241.926 319.72 241.533 319.89 241.104 319.96C240.674 320.03 240.228 319.998 239.823 319.867C239.417 319.736 239.07 319.512 238.825 319.224C238.581 318.936 238.45 318.597 238.45 318.25C238.461 317.799 238.692 317.368 239.096 317.049C239.5 316.73 240.044 316.546 240.615 316.538V316.504ZM240.615 328.157C240.034 328.157 239.466 328.02 238.983 327.764C238.501 327.508 238.126 327.144 237.905 326.719C237.685 326.293 237.629 325.826 237.746 325.375C237.862 324.925 238.145 324.512 238.559 324.189C238.973 323.867 239.499 323.649 240.07 323.563C240.641 323.478 241.231 323.528 241.765 323.709C242.299 323.889 242.754 324.192 243.071 324.577C243.387 324.962 243.552 325.414 243.543 325.873C243.543 326.178 243.468 326.479 243.32 326.76C243.173 327.041 242.958 327.297 242.686 327.512C242.414 327.727 242.091 327.898 241.735 328.014C241.38 328.131 240.999 328.19 240.615 328.19V328.157Z" fill="#FDEB56"/>
  <path d="M13.0727 320.836V295.986L0.127384 302.434V331.078H36.2896L44.4812 320.836H13.0727ZM7.51259 309.788C7.67263 309.763 7.8377 309.766 7.99599 309.797C8.15428 309.829 8.30182 309.887 8.42797 309.969C8.55411 310.051 8.65572 310.154 8.72549 310.271C8.79527 310.388 8.83145 310.515 8.83145 310.644C8.83145 310.773 8.79527 310.901 8.72549 311.017C8.65572 311.134 8.55411 311.237 8.42797 311.319C8.30182 311.401 8.15428 311.46 7.99599 311.491C7.8377 311.522 7.67263 311.526 7.51259 311.5C7.35254 311.526 7.18748 311.522 7.02919 311.491C6.87089 311.46 6.72336 311.401 6.59721 311.319C6.47106 311.237 6.36945 311.134 6.29968 311.017C6.22991 310.901 6.1936 310.773 6.1936 310.644C6.1936 310.515 6.22991 310.388 6.29968 310.271C6.36945 310.154 6.47106 310.051 6.59721 309.969C6.72336 309.887 6.87089 309.829 7.02919 309.797C7.18748 309.766 7.35254 309.763 7.51259 309.788ZM7.51259 316.504C7.94911 316.504 8.37575 316.607 8.73871 316.798C9.10166 316.99 9.38458 317.263 9.55163 317.582C9.71868 317.901 9.76243 318.252 9.67727 318.591C9.59211 318.93 9.38194 319.241 9.07328 319.485C8.76461 319.729 8.37127 319.896 7.94314 319.963C7.51501 320.03 7.07122 319.996 6.66793 319.864C6.26464 319.732 5.91994 319.508 5.67743 319.221C5.43491 318.933 5.30555 318.596 5.30555 318.25C5.30512 317.808 5.52139 317.382 5.90915 317.062C6.29692 316.743 6.826 316.555 7.38526 316.538L7.51259 316.504ZM7.51259 328.157C6.802 328.089 6.14751 327.817 5.67276 327.393C5.19802 326.97 4.93588 326.423 4.93588 325.857C4.93588 325.29 5.19802 324.743 5.67276 324.32C6.14751 323.896 6.802 323.624 7.51259 323.556C8.22318 323.624 8.87767 323.896 9.35241 324.32C9.82716 324.743 10.0893 325.29 10.0893 325.857C10.0893 326.423 9.82716 326.97 9.35241 327.393C8.87767 327.817 8.22318 328.089 7.51259 328.157ZM17.1473 327.586C16.7073 327.593 16.2749 327.495 15.9055 327.306C15.5361 327.116 15.2466 326.844 15.0743 326.524C14.9021 326.203 14.8548 325.849 14.9386 325.508C15.0224 325.166 15.2335 324.852 15.5447 324.605C15.8559 324.359 16.253 324.192 16.685 324.126C17.1171 324.059 17.5643 324.097 17.9693 324.233C18.3743 324.37 18.7185 324.598 18.9577 324.891C19.197 325.183 19.3204 325.525 19.312 325.873C19.3184 326.11 19.2628 326.345 19.1488 326.563C19.0347 326.782 18.8647 326.979 18.6493 327.144C18.434 327.308 18.1781 327.435 17.8977 327.517C17.6173 327.598 17.3184 327.634 17.02 327.62L17.1473 327.586ZM26.7822 326.713C26.6221 326.738 26.4569 326.735 26.2986 326.703C26.1404 326.672 25.9928 326.613 25.8667 326.531C25.7405 326.45 25.6389 326.347 25.5691 326.23C25.4994 326.113 25.4632 325.986 25.4632 325.857C25.4632 325.727 25.4994 325.6 25.5691 325.483C25.6389 325.367 25.7405 325.263 25.8667 325.182C25.9928 325.1 26.1404 325.041 26.2986 325.01C26.4569 324.978 26.6221 324.975 26.7822 325C26.9422 324.975 27.1073 324.978 27.2656 325.01C27.4239 325.041 27.5714 325.1 27.6976 325.182C27.8237 325.263 27.9253 325.367 27.9951 325.483C28.0649 325.6 28.101 325.727 28.101 325.857C28.101 325.986 28.0649 326.113 27.9951 326.23C27.9253 326.347 27.8237 326.45 27.6976 326.531C27.5714 326.613 27.4239 326.672 27.2656 326.703C27.1073 326.735 26.9422 326.738 26.7822 326.713Z" fill="#FDEB56"/>
  <path d="M241.167 299.042H239.044V262.136L227.372 252.901V143.057L240.657 132.546V28.7792H242.779V133.217L229.494 143.762V252.229L241.167 261.464V299.042Z" fill="#FDEB56"/>
  <path d="M8.99812 299.042H6.87592V261.464L18.548 252.229V143.762L5.22061 133.217V28.7792H7.3428V132.546L20.6702 143.057V252.901L8.99812 262.136V299.042Z" fill="#FDEB56"/>
  <path d="M235.479 146.482V249.442L246.472 258.14L248 136.542L235.479 146.482Z" fill="#FDEB56"/>
  <path d="M12.5634 146.482V249.442L1.52798 258.14L0 136.542L12.5634 146.482Z" fill="#FDEB56"/>
  <path d="M180.132 20.2495L189.3 8.76473H58.7L67.8679 20.2495H180.132Z" fill="#FDEB56"/>
  <path d="M193.714 16.1862H154.538V14.5071H192.526L200.675 4.33199H214.554V6.01106H201.863L193.714 16.1862Z" fill="#FDEB56"/>
  <path d="M93.4616 16.1862H54.3283L46.1366 6.01106H33.4883V4.33199H47.325L55.4742 14.5071H93.4616V16.1862Z" fill="#FDEB56"/>
  <path d="M157 334H91.0423L85.8641 327.586H37.2233V325.907H87.0525L92.1882 332.321H155.812L160.99 325.907H210.819V327.586H162.136L157 334Z" fill="#FDEB56"/>
  <path d="M152.119 329.534L154.369 326.713H93.6313L95.8809 329.534H152.119Z" fill="#FDEB56"/>
</svg>