<svg xmlns="http://www.w3.org/2000/svg" width="28" height="28" viewBox="0 0 28 28" fill="none">
<path fill-rule="evenodd" clip-rule="evenodd" d="M5.29634 2.33337H9.23967C10.8847 2.33337 12.203 3.67504 12.203 5.32121V9.29837C12.203 10.955 10.8847 12.285 9.23967 12.285H5.29634C3.66301 12.285 2.33301 10.955 2.33301 9.29837V5.32121C2.33301 3.67504 3.66301 2.33337 5.29634 2.33337ZM5.29634 15.7147H9.23967C10.8847 15.7147 12.203 17.0459 12.203 18.7025V22.6797C12.203 24.3247 10.8847 25.6664 9.23967 25.6664H5.29634C3.66301 25.6664 2.33301 24.3247 2.33301 22.6797V18.7025C2.33301 17.0459 3.66301 15.7147 5.29634 15.7147ZM22.7031 2.33337H18.7598C17.1148 2.33337 15.7965 3.67504 15.7965 5.32121V9.29837C15.7965 10.955 17.1148 12.285 18.7598 12.285H22.7031C24.3365 12.285 25.6665 10.955 25.6665 9.29837V5.32121C25.6665 3.67504 24.3365 2.33337 22.7031 2.33337ZM18.7598 15.7147H22.7031C24.3365 15.7147 25.6665 17.0459 25.6665 18.7025V22.6797C25.6665 24.3247 24.3365 25.6664 22.7031 25.6664H18.7598C17.1148 25.6664 15.7965 24.3247 15.7965 22.6797V18.7025C15.7965 17.0459 17.1148 15.7147 18.7598 15.7147Z" fill="url(#paint0_linear_19_5417)"/>
<defs>
<linearGradient id="paint0_linear_19_5417" x1="2.33301" y1="2.33337" x2="27.5409" y2="4.57353" gradientUnits="userSpaceOnUse">
<stop stop-color="#F71756"/>
<stop offset="1" stop-color="#FDEB56"/>
</linearGradient>
</defs>
</svg>