<svg xmlns="http://www.w3.org/2000/svg" width="24" height="24" viewBox="0 0 24 24" fill="none">
  <path d="M10.011 14.1172C9.436 13.5432 9.086 12.7632 9.086 11.8882C9.086 10.1352 10.498 8.7222 12.25 8.7222C13.117 8.7222 13.915 9.0732 14.48 9.6472" stroke="#7E6E83" stroke-width="1.5" stroke-linecap="round" stroke-linejoin="round"/>
  <path d="M15.3552 12.4493C15.1232 13.7393 14.1072 14.7573 12.8182 14.9913" stroke="#7E6E83" stroke-width="1.5" stroke-linecap="round" stroke-linejoin="round"/>
  <path d="M6.905 17.2227C5.318 15.9767 3.974 14.1567 3 11.8877C3.984 9.60869 5.337 7.77869 6.934 6.52269C8.521 5.26669 10.352 4.58469 12.25 4.58469C14.159 4.58469 15.989 5.27669 17.586 6.54169" stroke="#7E6E83" stroke-width="1.5" stroke-linecap="round" stroke-linejoin="round"/>
  <path d="M19.698 8.74121C20.386 9.65521 20.991 10.7102 21.5 11.8872C19.533 16.4442 16.057 19.1892 12.25 19.1892C11.387 19.1892 10.536 19.0492 9.718 18.7762" stroke="#7E6E83" stroke-width="1.5" stroke-linecap="round" stroke-linejoin="round"/>
  <path d="M20.1374 4L4.3634 19.774" stroke="#7E6E83" stroke-width="1.5" stroke-linecap="round" stroke-linejoin="round"/>
</svg>