<svg width="121" height="120" viewBox="0 0 121 120" fill="none" xmlns="http://www.w3.org/2000/svg">
<circle cx="60.5" cy="60" r="60" fill="#F71756" fill-opacity="0.2"/>
<path fill-rule="evenodd" clip-rule="evenodd" d="M70.232 23.451L98.7879 73.0104C99.4164 74.4897 99.6914 75.6925 99.7699 76.9421C99.927 79.8617 98.9058 82.6996 96.9025 84.8835C94.8993 87.0596 92.189 88.3442 89.2431 88.4999H31.7385C30.5209 88.4259 29.3032 88.1495 28.1641 87.7213C22.4687 85.4246 19.7191 78.9625 22.0366 73.3607L50.7889 23.4159C51.7709 21.6603 53.2635 20.146 55.1096 19.1728C60.4515 16.2103 67.2468 18.1567 70.232 23.451ZM63.9081 56.1117C63.9081 57.9802 62.3762 59.5413 60.4908 59.5413C58.6054 59.5413 57.0343 57.9802 57.0343 56.1117V45.0989C57.0343 43.2265 58.6054 41.7122 60.4908 41.7122C62.3762 41.7122 63.9081 43.2265 63.9081 45.0989V56.1117ZM60.4908 72.8547C58.6054 72.8547 57.0343 71.2937 57.0343 69.429C57.0343 67.5566 58.6054 65.9994 60.4908 65.9994C62.3762 65.9994 63.9081 67.5215 63.9081 69.3862C63.9081 71.2937 62.3762 72.8547 60.4908 72.8547Z" fill="#F71756"/>
</svg>
