<svg width="20" height="20"  fill="none" xmlns="http://www.w3.org/2000/svg">
<path d="M8.83341 11.5001L7.04175 9.70841C6.88897 9.55564 6.69453 9.47925 6.45841 9.47925C6.2223 9.47925 6.02786 9.55564 5.87508 9.70841C5.7223 9.86119 5.64591 10.0556 5.64591 10.2917C5.64591 10.5279 5.7223 10.7223 5.87508 10.8751L8.25008 13.2501C8.41675 13.4167 8.61119 13.5001 8.83341 13.5001C9.05564 13.5001 9.25008 13.4167 9.41675 13.2501L14.1251 8.54175C14.2779 8.38897 14.3542 8.19453 14.3542 7.95841C14.3542 7.7223 14.2779 7.52786 14.1251 7.37508C13.9723 7.2223 13.7779 7.14591 13.5417 7.14591C13.3056 7.14591 13.1112 7.2223 12.9584 7.37508L8.83341 11.5001ZM10.0001 18.3334C8.8473 18.3334 7.76397 18.1147 6.75008 17.6772C5.73619 17.2397 4.85425 16.6459 4.10425 15.8959C3.35425 15.1459 2.7605 14.264 2.323 13.2501C1.8855 12.2362 1.66675 11.1529 1.66675 10.0001C1.66675 8.8473 1.8855 7.76397 2.323 6.75008C2.7605 5.73619 3.35425 4.85425 4.10425 4.10425C4.85425 3.35425 5.73619 2.7605 6.75008 2.323C7.76397 1.8855 8.8473 1.66675 10.0001 1.66675C11.1529 1.66675 12.2362 1.8855 13.2501 2.323C14.264 2.7605 15.1459 3.35425 15.8959 4.10425C16.6459 4.85425 17.2397 5.73619 17.6772 6.75008C18.1147 7.76397 18.3334 8.8473 18.3334 10.0001C18.3334 11.1529 18.1147 12.2362 17.6772 13.2501C17.2397 14.264 16.6459 15.1459 15.8959 15.8959C15.1459 16.6459 14.264 17.2397 13.2501 17.6772C12.2362 18.1147 11.1529 18.3334 10.0001 18.3334Z" fill="#F71756"/>
</svg>
