<svg width="299" height="500" viewBox="0 0 299 500" fill="none" xmlns="http://www.w3.org/2000/svg">
<g opacity="0.5">
<g style="mix-blend-mode:screen">
<path d="M148.572 494.228C110.921 494.228 75.5034 489.075 48.8407 479.717C21.6687 470.182 6.70508 457.295 6.70508 443.432C6.70508 429.569 21.6686 416.683 48.8407 407.147C75.5034 397.79 110.921 392.637 148.572 392.637C186.222 392.637 221.64 397.79 248.303 407.147C275.475 416.683 290.438 429.569 290.438 443.432C290.438 457.295 275.475 470.182 248.303 479.717C221.64 489.075 186.222 494.228 148.572 494.228ZM148.572 395.741C111.263 395.741 76.2088 400.832 49.8685 410.077C24.4105 419.011 9.80979 431.169 9.80979 443.432C9.80979 455.696 24.4105 467.854 49.8685 476.788C76.2088 486.033 111.263 491.123 148.572 491.123C185.88 491.123 220.935 486.033 247.275 476.788C272.733 467.854 287.334 455.695 287.334 443.432C287.334 431.169 272.733 419.011 247.275 410.077C220.935 400.832 185.881 395.741 148.572 395.741Z" fill="url(#paint0_linear_907_10925)"/>
</g>
<g style="mix-blend-mode:multiply">
<path d="M150.814 494.228C113.163 494.228 77.7456 489.075 51.0829 479.717C23.9109 470.182 8.94727 457.295 8.94727 443.432C8.94727 429.569 23.9108 416.683 51.0829 407.147C77.7456 397.79 113.163 392.637 150.814 392.637C188.464 392.637 223.882 397.79 250.545 407.147C277.717 416.683 292.68 429.569 292.68 443.432C292.68 457.295 277.717 470.182 250.545 479.717C223.882 489.075 188.464 494.228 150.814 494.228ZM150.814 395.741C113.505 395.741 78.451 400.832 52.1107 410.077C26.6527 419.011 12.0519 431.169 12.0519 443.432C12.0519 455.696 26.6527 467.854 52.1107 476.788C78.451 486.033 113.505 491.123 150.814 491.123C188.123 491.123 223.177 486.033 249.517 476.788C274.975 467.854 289.576 455.695 289.576 443.432C289.576 431.169 274.975 419.011 249.517 410.077C223.177 400.832 188.123 395.741 150.814 395.741Z" fill="url(#paint1_linear_907_10925)"/>
</g>
<path d="M149.779 494.228C112.128 494.228 76.7104 489.075 50.0477 479.717C22.8757 470.182 7.91211 457.295 7.91211 443.432C7.91211 429.569 22.8757 416.683 50.0477 407.147C76.7104 397.79 112.128 392.637 149.779 392.637C187.429 392.637 222.847 397.79 249.51 407.147C276.682 416.683 291.645 429.569 291.645 443.432C291.645 457.295 276.682 470.182 249.51 479.717C222.847 489.075 187.429 494.228 149.779 494.228ZM149.779 395.741C112.47 395.741 77.4159 400.832 51.0755 410.077C25.6175 419.011 11.0168 431.169 11.0168 443.432C11.0168 455.696 25.6175 467.854 51.0755 476.788C77.4159 486.033 112.47 491.123 149.779 491.123C187.088 491.123 222.142 486.033 248.482 476.788C273.94 467.854 288.541 455.695 288.541 443.432C288.541 431.169 273.94 419.011 248.482 410.077C222.142 400.832 187.087 395.741 149.779 395.741Z" fill="url(#paint2_linear_907_10925)"/>
</g>
<g opacity="0.5">
<g style="mix-blend-mode:screen">
<path d="M149.025 473.705C126.588 473.705 105.481 470.635 89.5922 465.058C73.3996 459.376 64.4824 451.696 64.4824 443.435C64.4824 435.173 73.3997 427.494 89.5922 421.811C105.481 416.235 126.588 413.164 149.025 413.164C171.462 413.164 192.568 416.235 208.457 421.811C224.65 427.494 233.567 435.173 233.567 443.435C233.567 451.696 224.65 459.376 208.457 465.058C192.568 470.635 171.462 473.705 149.025 473.705ZM149.025 415.014C126.791 415.014 105.902 418.048 90.2048 423.557C75.0336 428.882 66.3326 436.127 66.3326 443.435C66.3326 450.743 75.0336 457.988 90.2048 463.312C105.902 468.822 126.791 471.855 149.025 471.855C171.258 471.855 192.148 468.822 207.845 463.312C223.016 457.988 231.717 450.743 231.717 443.435C231.717 436.127 223.016 428.882 207.845 423.557C192.148 418.048 171.258 415.014 149.025 415.014Z" fill="url(#paint3_linear_907_10925)"/>
</g>
<g style="mix-blend-mode:multiply">
<path d="M150.363 473.705C127.926 473.705 106.819 470.635 90.9302 465.058C74.7375 459.376 65.8203 451.696 65.8203 443.435C65.8203 435.173 74.7376 427.494 90.9302 421.811C106.819 416.235 127.926 413.164 150.363 413.164C172.8 413.164 193.906 416.235 209.795 421.811C225.988 427.494 234.905 435.173 234.905 443.435C234.905 451.696 225.988 459.376 209.795 465.058C193.906 470.635 172.8 473.705 150.363 473.705ZM150.363 415.014C128.129 415.014 107.24 418.048 91.5427 423.557C76.3715 428.882 67.6705 436.127 67.6705 443.435C67.6705 450.743 76.3715 457.988 91.5427 463.312C107.24 468.822 128.129 471.855 150.363 471.855C172.596 471.855 193.486 468.822 209.183 463.312C224.354 457.988 233.055 450.743 233.055 443.435C233.055 436.127 224.354 428.882 209.183 423.557C193.486 418.048 172.596 415.014 150.363 415.014Z" fill="url(#paint4_linear_907_10925)"/>
</g>
<path d="M149.744 473.705C127.307 473.705 106.2 470.635 90.311 465.058C74.1183 459.376 65.2012 451.696 65.2012 443.435C65.2012 435.173 74.1184 427.494 90.311 421.811C106.2 416.235 127.307 413.164 149.744 413.164C172.181 413.164 193.287 416.235 209.176 421.811C225.369 427.494 234.286 435.173 234.286 443.435C234.286 451.696 225.369 459.376 209.176 465.058C193.287 470.635 172.18 473.705 149.744 473.705ZM149.744 415.014C127.51 415.014 106.62 418.048 90.9235 423.557C75.7523 428.882 67.0513 436.127 67.0513 443.435C67.0513 450.743 75.7523 457.988 90.9235 463.312C106.62 468.822 127.51 471.855 149.744 471.855C171.977 471.855 192.867 468.822 208.564 463.312C223.735 457.988 232.436 450.743 232.436 443.435C232.436 436.127 223.735 428.882 208.564 423.557C192.867 418.048 171.977 415.014 149.744 415.014Z" fill="url(#paint5_linear_907_10925)"/>
</g>
<path d="M149.779 0C67.8306 0 1.39844 10.8197 1.39844 24.1664V83.6729H298.159V24.1664C298.159 10.8197 231.727 0 149.779 0Z" fill="url(#paint6_linear_907_10925)"/>
<path d="M149.779 107.839C231.727 107.839 298.159 97.019 298.159 83.6722C298.159 70.3255 231.727 59.5059 149.779 59.5059C67.8305 59.5059 1.39844 70.3255 1.39844 83.6722C1.39844 97.019 67.8305 107.839 149.779 107.839Z" fill="url(#paint7_linear_907_10925)"/>
<path style="mix-blend-mode:screen" d="M149.779 60.7603C231.075 60.7603 297.088 71.1325 298.134 83.9899C298.143 83.884 298.159 83.7785 298.159 83.6722C298.159 70.3255 231.727 59.5059 149.779 59.5059C67.8306 59.5059 1.39844 70.3255 1.39844 83.6722C1.39844 83.7785 1.41473 83.884 1.42318 83.9899C2.4689 71.1327 68.4827 60.7603 149.779 60.7603Z" fill="url(#paint8_linear_907_10925)"/>
<path d="M296.993 441.133C298.46 477.22 236.092 496.78 156.895 499.739C67.4121 503.083 -3.03947 473.703 0.232568 441.133V83.6726C5.58467 68.2637 88.964 60.0525 154.1 60.7788C213.87 61.4451 292.078 68.7811 296.993 83.6726V441.133Z" fill="url(#paint9_linear_907_10925)" style="mix-blend-mode:screen"/>
<path d="M105.72 41.8344H98.4551V16.1504H118.599V21.7638H105.72V41.8344ZM105.207 27.4136H117.058V33.0294H105.207V27.4136Z" fill="black"/>
<path d="M122.012 41.8344V16.1504H129.277V41.8344H122.012Z" fill="black"/>
<path d="M134.449 41.835V16.151H146.19C148.272 16.0996 150.341 16.4871 152.263 17.2882C153.873 17.9708 155.245 19.1134 156.207 20.5728C157.162 22.092 157.647 23.8592 157.601 25.6529C157.669 27.4087 157.193 29.1425 156.237 30.6171C155.282 32.0917 153.894 33.2349 152.263 33.8904C150.338 34.6797 148.27 35.0608 146.19 35.0095H138.485L141.714 31.9655V41.8351L134.449 41.835ZM141.714 32.7349L138.485 29.396H145.75C146.964 29.4904 148.171 29.1385 149.145 28.4063C149.523 28.0582 149.819 27.6308 150.012 27.1548C150.206 26.6788 150.292 26.166 150.264 25.6529C150.294 25.1346 150.209 24.6161 150.015 24.1343C149.822 23.6525 149.525 23.2192 149.145 22.8655C148.171 22.1333 146.964 21.7814 145.75 21.8758H138.485L141.714 18.5367V32.7349ZM150.336 41.835L143.952 32.4784H151.695L158.115 41.835H150.336Z" fill="black"/>
<path d="M170.627 42.3524C168.577 42.359 166.534 42.0941 164.554 41.5647C162.869 41.1514 161.264 40.4635 159.803 39.5287L162.187 34.1716C163.43 34.9478 164.768 35.5583 166.169 35.9876C167.621 36.4561 169.137 36.6973 170.663 36.7026C171.479 36.7256 172.295 36.6332 173.085 36.4279C173.589 36.3051 174.051 36.0513 174.424 35.6925C174.7 35.4009 174.852 35.0133 174.847 34.612C174.849 34.3282 174.776 34.049 174.634 33.8034C174.491 33.5578 174.286 33.3549 174.038 33.216C173.389 32.8294 172.684 32.5453 171.948 32.3739C171.091 32.1537 170.143 31.9335 169.104 31.7133C168.049 31.4892 167.008 31.2073 165.985 30.8689C164.984 30.5443 164.029 30.0943 163.142 29.5297C162.286 28.98 161.57 28.2386 161.05 27.3641C160.476 26.328 160.197 25.1543 160.243 23.9707C160.228 22.4797 160.67 21.0199 161.508 19.7872C162.467 18.4482 163.783 17.406 165.306 16.7796C167.307 15.9621 169.457 15.5747 171.618 15.6423C173.291 15.6403 174.959 15.8306 176.589 16.2097C178.113 16.5487 179.578 17.1117 180.937 17.8803L178.699 23.2737C177.548 22.6431 176.329 22.1444 175.067 21.7869C173.932 21.4664 172.759 21.2999 171.58 21.292C170.762 21.267 169.945 21.372 169.159 21.603C168.649 21.7462 168.19 22.0329 167.838 22.4292C167.572 22.7619 167.429 23.1767 167.434 23.6028C167.432 23.8765 167.505 24.1455 167.644 24.3813C167.782 24.6171 167.983 24.8109 168.223 24.9421C168.872 25.3214 169.579 25.5942 170.315 25.7501C171.183 25.959 172.137 26.1731 173.177 26.3924C174.217 26.6126 175.256 26.8872 176.296 27.2164C177.297 27.5301 178.253 27.9743 179.139 28.5375C179.991 29.0856 180.702 29.8276 181.212 30.703C181.771 31.7313 182.043 32.8907 182.001 34.0602C182.007 35.5331 181.566 36.9731 180.735 38.1892C179.786 39.5343 178.476 40.5833 176.956 41.215C174.95 42.0357 172.793 42.4233 170.627 42.3524Z" fill="black"/>
<path d="M190.44 41.8345V21.9115H182.551V16.1504H205.556V21.9115H197.705V41.8345H190.44Z" fill="black"/>
<defs>
<linearGradient id="paint0_linear_907_10925" x1="73.4403" y1="367.919" x2="223.703" y2="518.946" gradientUnits="userSpaceOnUse">
<stop stop-color="#B75500"/>
<stop offset="0.02151" stop-color="#AC4B00"/>
<stop offset="0.09238" stop-color="#8F2D00"/>
<stop offset="0.15325" stop-color="#7D1B00"/>
<stop offset="0.19668" stop-color="#761500"/>
<stop offset="0.31915" stop-color="#DA8107"/>
<stop offset="0.43981" stop-color="#FFC638"/>
<stop offset="0.55437" stop-color="#DA8107"/>
<stop offset="0.66058" stop-color="#963100"/>
<stop offset="0.80424" stop-color="#5A0A00"/>
<stop offset="0.88389" stop-color="#180000"/>
<stop offset="0.98578" stop-color="#963100"/>
</linearGradient>
<linearGradient id="paint1_linear_907_10925" x1="75.6824" y1="367.919" x2="225.945" y2="518.946" gradientUnits="userSpaceOnUse">
<stop stop-color="#B75500"/>
<stop offset="0.02151" stop-color="#AC4B00"/>
<stop offset="0.09238" stop-color="#8F2D00"/>
<stop offset="0.15325" stop-color="#7D1B00"/>
<stop offset="0.19668" stop-color="#761500"/>
<stop offset="0.31915" stop-color="#DA8107"/>
<stop offset="0.43981" stop-color="#FFC638"/>
<stop offset="0.55437" stop-color="#DA8107"/>
<stop offset="0.66058" stop-color="#963100"/>
<stop offset="0.80424" stop-color="#5A0A00"/>
<stop offset="0.88389" stop-color="#180000"/>
<stop offset="0.98578" stop-color="#963100"/>
</linearGradient>
<linearGradient id="paint2_linear_907_10925" x1="74.6473" y1="367.919" x2="224.91" y2="518.946" gradientUnits="userSpaceOnUse">
<stop stop-color="#B75500"/>
<stop offset="0.02151" stop-color="#AC4B00"/>
<stop offset="0.09238" stop-color="#8F2D00"/>
<stop offset="0.15325" stop-color="#7D1B00"/>
<stop offset="0.19668" stop-color="#761500"/>
<stop offset="0.31915" stop-color="#DA8107"/>
<stop offset="0.43981" stop-color="#FFC638"/>
<stop offset="0.55437" stop-color="#DA8107"/>
<stop offset="0.66058" stop-color="#963100"/>
<stop offset="0.80424" stop-color="#5A0A00"/>
<stop offset="0.88389" stop-color="#180000"/>
<stop offset="0.98578" stop-color="#963100"/>
</linearGradient>
<linearGradient id="paint3_linear_907_10925" x1="104.252" y1="398.434" x2="193.798" y2="488.436" gradientUnits="userSpaceOnUse">
<stop stop-color="#B75500"/>
<stop offset="0.02151" stop-color="#AC4B00"/>
<stop offset="0.09238" stop-color="#8F2D00"/>
<stop offset="0.15325" stop-color="#7D1B00"/>
<stop offset="0.19668" stop-color="#761500"/>
<stop offset="0.31915" stop-color="#DA8107"/>
<stop offset="0.43981" stop-color="#FFC638"/>
<stop offset="0.55437" stop-color="#DA8107"/>
<stop offset="0.66058" stop-color="#963100"/>
<stop offset="0.80424" stop-color="#5A0A00"/>
<stop offset="0.88389" stop-color="#180000"/>
<stop offset="0.98578" stop-color="#963100"/>
</linearGradient>
<linearGradient id="paint4_linear_907_10925" x1="105.59" y1="398.434" x2="195.136" y2="488.436" gradientUnits="userSpaceOnUse">
<stop stop-color="#B75500"/>
<stop offset="0.02151" stop-color="#AC4B00"/>
<stop offset="0.09238" stop-color="#8F2D00"/>
<stop offset="0.15325" stop-color="#7D1B00"/>
<stop offset="0.19668" stop-color="#761500"/>
<stop offset="0.31915" stop-color="#DA8107"/>
<stop offset="0.43981" stop-color="#FFC638"/>
<stop offset="0.55437" stop-color="#DA8107"/>
<stop offset="0.66058" stop-color="#963100"/>
<stop offset="0.80424" stop-color="#5A0A00"/>
<stop offset="0.88389" stop-color="#180000"/>
<stop offset="0.98578" stop-color="#963100"/>
</linearGradient>
<linearGradient id="paint5_linear_907_10925" x1="104.971" y1="398.434" x2="194.516" y2="488.436" gradientUnits="userSpaceOnUse">
<stop stop-color="#B75500"/>
<stop offset="0.02151" stop-color="#AC4B00"/>
<stop offset="0.09238" stop-color="#8F2D00"/>
<stop offset="0.15325" stop-color="#7D1B00"/>
<stop offset="0.19668" stop-color="#761500"/>
<stop offset="0.31915" stop-color="#DA8107"/>
<stop offset="0.43981" stop-color="#FFC638"/>
<stop offset="0.55437" stop-color="#DA8107"/>
<stop offset="0.66058" stop-color="#963100"/>
<stop offset="0.80424" stop-color="#5A0A00"/>
<stop offset="0.88389" stop-color="#180000"/>
<stop offset="0.98578" stop-color="#963100"/>
</linearGradient>
<linearGradient id="paint6_linear_907_10925" x1="1.39838" y1="41.8365" x2="298.159" y2="41.8365" gradientUnits="userSpaceOnUse">
<stop stop-color="#D9941A"/>
<stop offset="0.02823" stop-color="#D08515"/>
<stop offset="0.09637" stop-color="#BD6809"/>
<stop offset="0.15492" stop-color="#B25602"/>
<stop offset="0.19668" stop-color="#AE4F00"/>
<stop offset="0.31915" stop-color="#EFB639"/>
<stop offset="0.43981" stop-color="#FFE277"/>
<stop offset="0.55437" stop-color="#EFB639"/>
<stop offset="0.66058" stop-color="#C47100"/>
<stop offset="0.80424" stop-color="#973D00"/>
<stop offset="0.88389" stop-color="#520A00"/>
<stop offset="0.98578" stop-color="#C47100"/>
</linearGradient>
<linearGradient id="paint7_linear_907_10925" x1="13.6609" y1="-80.5258" x2="210.981" y2="157.5" gradientUnits="userSpaceOnUse">
<stop stop-color="#D9941A"/>
<stop offset="0.06208" stop-color="#D08515"/>
<stop offset="0.21195" stop-color="#BD6809"/>
<stop offset="0.34072" stop-color="#B25602"/>
<stop offset="0.43258" stop-color="#AE4F00"/>
<stop offset="0.55437" stop-color="#EFB639"/>
<stop offset="0.66058" stop-color="#C47100"/>
<stop offset="0.80424" stop-color="#973D00"/>
<stop offset="0.88389" stop-color="#520A00"/>
<stop offset="0.98578" stop-color="#C47100"/>
</linearGradient>
<linearGradient id="paint8_linear_907_10925" x1="1.39838" y1="71.748" x2="298.159" y2="71.748" gradientUnits="userSpaceOnUse">
<stop stop-color="#D9941A"/>
<stop offset="0.02823" stop-color="#D08515"/>
<stop offset="0.09637" stop-color="#BD6809"/>
<stop offset="0.15492" stop-color="#B25602"/>
<stop offset="0.19668" stop-color="#AE4F00"/>
<stop offset="0.31915" stop-color="#EFB639"/>
<stop offset="0.43981" stop-color="#FFE277"/>
<stop offset="0.55437" stop-color="#EFB639"/>
<stop offset="0.66058" stop-color="#C47100"/>
<stop offset="0.80424" stop-color="#973D00"/>
<stop offset="0.88389" stop-color="#520A00"/>
<stop offset="0.98578" stop-color="#C47100"/>
</linearGradient>
<linearGradient id="paint9_linear_907_10925" x1="148.571" y1="60.7345" x2="148.571" y2="500" gradientUnits="userSpaceOnUse">
<stop stop-color="#4F4916" stop-opacity="0"/>
<stop offset="1" stop-color="#FDEB56" stop-opacity="0.8"/>
</linearGradient>
</defs>
</svg>
