<svg width="54" height="41" viewBox="0 0 54 41" fill="none" xmlns="http://www.w3.org/2000/svg">
<g clip-path="url(#clip0_2401_7765)">
<path fill-rule="evenodd" clip-rule="evenodd" d="M27.3241 3.9873L34.4745 8.11554L41.6248 12.2438V20.5003V28.7567L34.4745 32.885L27.3241 37.0132L20.1738 32.885L13.0234 28.7567V20.5003V12.2438L20.1738 8.11554L27.3241 3.9873Z" fill="url(#paint0_radial_2401_7765)"/>
<path fill-rule="evenodd" clip-rule="evenodd" d="M27.3205 0.5L35.9808 5.49998L44.641 10.5V30.5L35.9808 35.5L27.3205 40.5L18.6602 35.5L10 30.5V10.5L18.6602 5.49998L27.3205 0.5ZM27.3205 4.48917L34.2534 8.49185L41.1863 12.4946V28.5053L34.2534 32.5081L27.3205 36.5108L20.3875 32.5081L13.4547 28.5053V12.4946L20.3875 8.49185L27.3205 4.48917Z" fill="#999999"/>
<path fill-rule="evenodd" clip-rule="evenodd" d="M19.524 6.99591C22.1228 5.4955 24.7216 3.99505 27.3205 2.49456V0.5L18.6602 5.49998L10 10.5L11.7274 11.4973C14.3263 9.99685 16.9252 8.49638 19.524 6.99591Z" fill="url(#paint1_radial_2401_7765)"/>
<path fill-rule="evenodd" clip-rule="evenodd" d="M27.3197 2.49414C24.721 3.99467 22.1222 5.49512 19.5232 6.99549C16.9243 8.49602 14.3254 9.99649 11.7266 11.4969L13.4539 12.4942L20.3867 8.49143L27.3197 4.48876V2.49414Z" fill="url(#paint2_radial_2401_7765)"/>
<path fill-rule="evenodd" clip-rule="evenodd" d="M27.3203 2.49456C29.9192 3.99508 32.518 5.49554 35.1169 6.99591C37.7158 8.49644 40.3147 9.99691 42.9136 11.4973L44.6409 10.5L35.9807 5.49998L27.3203 0.5V2.49456Z" fill="url(#paint3_radial_2401_7765)"/>
<path fill-rule="evenodd" clip-rule="evenodd" d="M35.1169 6.99549C32.5182 5.49508 29.9193 3.99463 27.3203 2.49414V4.48876L34.2533 8.49143L41.1862 12.4942L42.9136 11.4969C40.3147 9.99643 37.7158 8.49596 35.1169 6.99549Z" fill="url(#paint4_radial_2401_7765)"/>
<path fill-rule="evenodd" clip-rule="evenodd" d="M41.1875 12.4944V28.5051L42.9149 29.5024V11.4971L41.1875 12.4944Z" fill="url(#paint5_radial_2401_7765)"/>
<path fill-rule="evenodd" clip-rule="evenodd" d="M42.918 11.4974V29.5027L44.6453 30.5V10.5L42.918 11.4974Z" fill="url(#paint6_radial_2401_7765)"/>
<path fill-rule="evenodd" clip-rule="evenodd" d="M11.7274 20.5V11.4974L10 10.5V30.5L11.7274 29.5027V20.5Z" fill="url(#paint7_radial_2401_7765)"/>
<path fill-rule="evenodd" clip-rule="evenodd" d="M11.7266 11.4971V29.5024L13.4539 28.5051V12.4944L11.7266 11.4971Z" fill="url(#paint8_radial_2401_7765)"/>
<path fill-rule="evenodd" clip-rule="evenodd" d="M20.3867 32.5086L13.4539 28.5059L11.7266 29.5032C14.3255 31.0036 16.9244 32.5041 19.5232 34.0046C22.122 35.505 24.7208 37.0054 27.3197 38.5059V36.5114L20.3867 32.5086Z" fill="url(#paint9_radial_2401_7765)"/>
<path fill-rule="evenodd" clip-rule="evenodd" d="M19.524 34.0043C16.9251 32.5038 14.3262 31.0034 11.7274 29.5029L10 30.5002L18.6602 35.5003L27.3205 40.5003V38.5056C24.7218 37.0052 22.1229 35.5047 19.524 34.0043Z" fill="url(#paint10_radial_2401_7765)"/>
<path fill-rule="evenodd" clip-rule="evenodd" d="M34.2533 32.5086L27.3203 36.5114V38.5059C29.9192 37.0055 32.518 35.505 35.1169 34.0046C37.7158 32.5041 40.3147 31.0037 42.9136 29.5032L41.1862 28.5059L34.2533 32.5086Z" fill="url(#paint11_radial_2401_7765)"/>
<path fill-rule="evenodd" clip-rule="evenodd" d="M35.1169 34.0033C32.5182 35.5037 29.9193 37.0042 27.3203 38.5047V40.4993L35.9807 35.4993L44.6409 30.4993L42.9136 29.502C40.3147 31.0024 37.7158 32.5028 35.1169 34.0033Z" fill="url(#paint12_radial_2401_7765)"/>
<path style="mix-blend-mode:multiply" fill-rule="evenodd" clip-rule="evenodd" d="M13.457 15.141C14.6759 12.8619 21.5457 8.45334 25.373 6.38749C25.969 6.05469 26.6402 5.87998 27.3229 5.87998C28.0055 5.87998 28.6767 6.05469 29.2728 6.38749C33.1001 8.45334 39.9699 12.8619 41.1887 15.141V12.4947L34.2558 8.49193L27.3228 4.48926L20.3899 8.49193L13.457 12.4947V15.141Z" fill="url(#paint13_radial_2401_7765)"/>
<path style="mix-blend-mode:screen" fill-rule="evenodd" clip-rule="evenodd" d="M18.3477 7.67682L27.1636 2.35733L27.3227 0.727539L27.335 0.759463L27.4549 2.33717L32.5436 5.50937L27.3227 2.72473L18.3477 7.67682Z" fill="url(#paint14_radial_2401_7765)"/>
<path style="mix-blend-mode:screen" fill-rule="evenodd" clip-rule="evenodd" d="M18.0734 7.83301L11.6511 11.2668L10.6055 10.849L11.5234 11.5899L11.7278 21.4739L12.0202 11.6655L18.0734 7.83301Z" fill="url(#paint15_radial_2401_7765)"/>
<path style="mix-blend-mode:screen" fill-rule="evenodd" clip-rule="evenodd" d="M15.625 31.7539L27.1411 38.8354L27.3197 40.0333L27.4805 38.8314L33.3992 34.9961L27.3197 38.1963L15.625 31.7539Z" fill="url(#paint16_radial_2401_7765)"/>
<path style="mix-blend-mode:screen" fill-rule="evenodd" clip-rule="evenodd" d="M22.6486 12.4134C19.9887 13.9491 17.2681 14.5918 15.4515 14.2659C14.7365 14.1377 13.9448 13.5473 15.1993 12.823L26.7281 6.16694C27.9827 5.44261 28.0981 6.4234 27.8517 7.10673C27.2255 8.84293 25.3085 10.8776 22.6486 12.4134Z" fill="url(#paint17_radial_2401_7765)"/>
<path style="mix-blend-mode:color-dodge" fill-rule="evenodd" clip-rule="evenodd" d="M32.937 30.2305C30.566 31.5995 28.7464 33.2212 28.024 34.4843C27.7397 34.9815 27.7174 35.639 28.8357 34.9933L39.1124 29.06C40.2307 28.4144 39.6502 28.1049 39.0775 28.1026C37.6223 28.0966 35.308 28.8616 32.937 30.2305Z" fill="url(#paint18_radial_2401_7765)"/>
<path fill-rule="evenodd" clip-rule="evenodd" d="M27.3224 10.3398L30.3176 16.3768L36.9846 17.3597L32.1692 22.0743L33.2944 28.7189L27.3224 25.5954L21.3504 28.7189L22.4756 22.0743L17.6602 17.3597L24.3272 16.3768L27.3224 10.3398Z" fill="#B05B00"/>
<path fill-rule="evenodd" clip-rule="evenodd" d="M27.3224 20.5001L17.6602 17.3604L22.4756 22.075L27.3224 20.5001Z" fill="url(#paint19_radial_2401_7765)"/>
<path fill-rule="evenodd" clip-rule="evenodd" d="M17.6602 17.3599L27.3224 20.4996L24.3272 16.377L17.6602 17.3599Z" fill="url(#paint20_radial_2401_7765)"/>
<path fill-rule="evenodd" clip-rule="evenodd" d="M24.3242 16.3768L27.3194 20.4994V10.3398L24.3242 16.3768Z" fill="url(#paint21_radial_2401_7765)"/>
<path fill-rule="evenodd" clip-rule="evenodd" d="M27.3203 10.3398V20.4994L30.3155 16.3768L27.3203 10.3398Z" fill="url(#paint22_radial_2401_7765)"/>
<path fill-rule="evenodd" clip-rule="evenodd" d="M30.3155 16.377L27.3203 20.4996L36.9825 17.3599L30.3155 16.377Z" fill="url(#paint23_radial_2401_7765)"/>
<path fill-rule="evenodd" clip-rule="evenodd" d="M36.9825 17.3604L27.3203 20.5001L32.1671 22.075L36.9825 17.3604Z" fill="url(#paint24_radial_2401_7765)"/>
<path fill-rule="evenodd" clip-rule="evenodd" d="M32.1671 22.0749L27.3203 20.5L33.2923 28.7195L32.1671 22.0749Z" fill="url(#paint25_radial_2401_7765)"/>
<path fill-rule="evenodd" clip-rule="evenodd" d="M33.2917 28.7195L27.3203 20.5V25.596L33.2917 28.7195Z" fill="url(#paint26_radial_2401_7765)"/>
<path fill-rule="evenodd" clip-rule="evenodd" d="M27.3196 25.596V20.5L21.3477 28.7195L27.3196 25.596Z" fill="url(#paint27_radial_2401_7765)"/>
<path fill-rule="evenodd" clip-rule="evenodd" d="M21.3477 28.7195L27.3196 20.5L22.4728 22.0749L21.3477 28.7195Z" fill="url(#paint28_radial_2401_7765)"/>
<path style="mix-blend-mode:screen" fill-rule="evenodd" clip-rule="evenodd" d="M19.1328 17.841L26.8393 19.8426C26.6192 19.3952 26.4565 18.9219 26.3547 18.4338L27.3169 10.8115V20.5001L19.1328 17.841Z" fill="url(#paint29_radial_2401_7765)"/>
<path style="mix-blend-mode:screen" fill-rule="evenodd" clip-rule="evenodd" d="M27.3203 20.5002C27.8173 19.8681 28.5229 19.4332 29.3109 19.2735L36.1785 17.6221L27.3203 20.5002Z" fill="url(#paint30_radial_2401_7765)"/>
<path style="mix-blend-mode:screen" fill-rule="evenodd" clip-rule="evenodd" d="M27.3194 20.5C26.3791 21.076 25.552 21.819 24.8787 22.6922L21.3477 28.7193L27.3194 20.5Z" fill="url(#paint31_radial_2401_7765)"/>
</g>
<defs>
<radialGradient id="paint0_radial_2401_7765" cx="0" cy="0" r="1" gradientUnits="userSpaceOnUse" gradientTransform="translate(22.6002 10.4765) scale(27.2387 27.2387)">
<stop stop-color="#12CCFF"/>
<stop offset="0.69856" stop-color="#0068FF"/>
<stop offset="1" stop-color="#0035A8"/>
</radialGradient>
<radialGradient id="paint1_radial_2401_7765" cx="0" cy="0" r="1" gradientUnits="userSpaceOnUse" gradientTransform="translate(24.6515 1.50519) scale(43.4276)">
<stop stop-color="#FFF8C7"/>
<stop offset="1" stop-color="#FFC521"/>
</radialGradient>
<radialGradient id="paint2_radial_2401_7765" cx="0" cy="0" r="1" gradientUnits="userSpaceOnUse" gradientTransform="translate(30.0655 24.143) scale(23.6309 23.6309)">
<stop stop-color="#FF9900"/>
<stop offset="1" stop-color="#C44800"/>
</radialGradient>
<radialGradient id="paint3_radial_2401_7765" cx="0" cy="0" r="1" gradientUnits="userSpaceOnUse" gradientTransform="translate(20.9256 26.1233) scale(36.2969 36.2969)">
<stop stop-color="#FFEB68"/>
<stop offset="1" stop-color="#E67D2D"/>
</radialGradient>
<radialGradient id="paint4_radial_2401_7765" cx="0" cy="0" r="1" gradientUnits="userSpaceOnUse" gradientTransform="translate(22.2895 23.5478) scale(33.9159 33.9159)">
<stop stop-color="#FFC600"/>
<stop offset="1" stop-color="#D64F00"/>
</radialGradient>
<radialGradient id="paint5_radial_2401_7765" cx="0" cy="0" r="1" gradientUnits="userSpaceOnUse" gradientTransform="translate(27.6106 17.4273) scale(28.7252 28.7252)">
<stop stop-color="#FFEB68"/>
<stop offset="1" stop-color="#E67D2D"/>
</radialGradient>
<radialGradient id="paint6_radial_2401_7765" cx="0" cy="0" r="1" gradientUnits="userSpaceOnUse" gradientTransform="translate(19.2791 18.1189) scale(32.7697 32.7698)">
<stop stop-color="#FFC600"/>
<stop offset="1" stop-color="#D64F00"/>
</radialGradient>
<radialGradient id="paint7_radial_2401_7765" cx="0" cy="0" r="1" gradientUnits="userSpaceOnUse" gradientTransform="translate(-5.38225 12.4732) scale(30.3687 30.3687)">
<stop stop-color="#FFEB68"/>
<stop offset="1" stop-color="#E67D2D"/>
</radialGradient>
<radialGradient id="paint8_radial_2401_7765" cx="0" cy="0" r="1" gradientUnits="userSpaceOnUse" gradientTransform="translate(36.9391 19.0403) scale(33.4374 33.4373)">
<stop stop-color="#FFC600"/>
<stop offset="1" stop-color="#D64F00"/>
</radialGradient>
<radialGradient id="paint9_radial_2401_7765" cx="0" cy="0" r="1" gradientUnits="userSpaceOnUse" gradientTransform="translate(30.0463 12.9972) scale(31.1995 31.1995)">
<stop stop-color="#FFEB68"/>
<stop offset="1" stop-color="#E67D2D"/>
</radialGradient>
<radialGradient id="paint10_radial_2401_7765" cx="0" cy="0" r="1" gradientUnits="userSpaceOnUse" gradientTransform="translate(42.1646 11.4206) scale(38.174 38.174)">
<stop stop-color="#FFC600"/>
<stop offset="1" stop-color="#D64F00"/>
</radialGradient>
<radialGradient id="paint11_radial_2401_7765" cx="0" cy="0" r="1" gradientUnits="userSpaceOnUse" gradientTransform="translate(39.1879 38.1146) scale(27.1644 27.1644)">
<stop stop-color="#FFEB68"/>
<stop offset="1" stop-color="#FFAC6B"/>
</radialGradient>
<radialGradient id="paint12_radial_2401_7765" cx="0" cy="0" r="1" gradientUnits="userSpaceOnUse" gradientTransform="translate(20.0807 11.65) scale(33.2537 33.2537)">
<stop stop-color="#FF9900"/>
<stop offset="1" stop-color="#C44800"/>
</radialGradient>
<radialGradient id="paint13_radial_2401_7765" cx="0" cy="0" r="1" gradientUnits="userSpaceOnUse" gradientTransform="translate(27.0924 33.665) scale(36.1409)">
<stop offset="0.25533" stop-color="white"/>
<stop offset="0.3356" stop-color="#F4F5F6"/>
<stop offset="0.47728" stop-color="#D6D9E0"/>
<stop offset="0.66376" stop-color="#A6ACBA"/>
<stop offset="0.88536" stop-color="#646E87"/>
<stop offset="1" stop-color="#3F4C6B"/>
</radialGradient>
<radialGradient id="paint14_radial_2401_7765" cx="0" cy="0" r="1" gradientUnits="userSpaceOnUse" gradientTransform="translate(26.4442 -0.09924) scale(36.1511)">
<stop stop-color="#FFD58C"/>
<stop offset="0.00186" stop-color="#FFEF8F"/>
<stop offset="1"/>
</radialGradient>
<radialGradient id="paint15_radial_2401_7765" cx="0" cy="0" r="1" gradientUnits="userSpaceOnUse" gradientTransform="translate(11.3438 11.6581) scale(17.7564)">
<stop stop-color="#FFD58C"/>
<stop offset="0.00186" stop-color="#FFEF8F"/>
<stop offset="1"/>
</radialGradient>
<radialGradient id="paint16_radial_2401_7765" cx="0" cy="0" r="1" gradientUnits="userSpaceOnUse" gradientTransform="translate(27.354 39.9646) scale(26.7087 26.7087)">
<stop stop-color="#FFD58C"/>
<stop offset="0.00186" stop-color="#FFEF8F"/>
<stop offset="1"/>
</radialGradient>
<radialGradient id="paint17_radial_2401_7765" cx="0" cy="0" r="1" gradientUnits="userSpaceOnUse" gradientTransform="translate(16.8697 2.87165) scale(15.5673 15.5673)">
<stop stop-color="#B8DEFF"/>
<stop offset="1"/>
</radialGradient>
<radialGradient id="paint18_radial_2401_7765" cx="0" cy="0" r="1" gradientUnits="userSpaceOnUse" gradientTransform="translate(37.952 39.5171) scale(14.734 14.734)">
<stop stop-color="#4AACFF"/>
<stop offset="1"/>
</radialGradient>
<radialGradient id="paint19_radial_2401_7765" cx="0" cy="0" r="1" gradientUnits="userSpaceOnUse" gradientTransform="translate(20.2994 6.74985) scale(15.448 15.448)">
<stop stop-color="#FFC600"/>
<stop offset="1" stop-color="#D64F00"/>
</radialGradient>
<radialGradient id="paint20_radial_2401_7765" cx="0" cy="0" r="1" gradientUnits="userSpaceOnUse" gradientTransform="translate(25.1547 13.2936) scale(13.1625 13.1624)">
<stop stop-color="#FFEB68"/>
<stop offset="1" stop-color="#E67D2D"/>
</radialGradient>
<radialGradient id="paint21_radial_2401_7765" cx="0" cy="0" r="1" gradientUnits="userSpaceOnUse" gradientTransform="translate(25.289 13.1822) scale(16.6126 16.6126)">
<stop stop-color="#FFEB68"/>
<stop offset="1" stop-color="#FFAC6B"/>
</radialGradient>
<radialGradient id="paint22_radial_2401_7765" cx="0" cy="0" r="1" gradientUnits="userSpaceOnUse" gradientTransform="translate(18.2853 11.4622) scale(16.316 16.3159)">
<stop stop-color="#FFC600"/>
<stop offset="1" stop-color="#D64F00"/>
</radialGradient>
<radialGradient id="paint23_radial_2401_7765" cx="0" cy="0" r="1" gradientUnits="userSpaceOnUse" gradientTransform="translate(32.6995 9.89946) scale(14.5475 14.5475)">
<stop stop-color="#FFEB68"/>
<stop offset="1" stop-color="#E67D2D"/>
</radialGradient>
<radialGradient id="paint24_radial_2401_7765" cx="0" cy="0" r="1" gradientUnits="userSpaceOnUse" gradientTransform="translate(22.4104 4.43631) scale(19.9098)">
<stop stop-color="#FFC600"/>
<stop offset="1" stop-color="#D64F00"/>
</radialGradient>
<radialGradient id="paint25_radial_2401_7765" cx="0" cy="0" r="1" gradientUnits="userSpaceOnUse" gradientTransform="translate(39.9865 23.5748) scale(15.3656 15.3656)">
<stop stop-color="#FFEB68"/>
<stop offset="1" stop-color="#E67D2D"/>
</radialGradient>
<radialGradient id="paint26_radial_2401_7765" cx="0" cy="0" r="1" gradientUnits="userSpaceOnUse" gradientTransform="translate(37.9164 19.0086) scale(17.4469)">
<stop stop-color="#FFC600"/>
<stop offset="1" stop-color="#D64F00"/>
</radialGradient>
<radialGradient id="paint27_radial_2401_7765" cx="0" cy="0" r="1" gradientUnits="userSpaceOnUse" gradientTransform="translate(13.2533 16.208) scale(17.7741 17.7741)">
<stop stop-color="#FFC600"/>
<stop offset="1" stop-color="#D64F00"/>
</radialGradient>
<radialGradient id="paint28_radial_2401_7765" cx="0" cy="0" r="1" gradientUnits="userSpaceOnUse" gradientTransform="translate(24.4403 28.5367) scale(10.9691 10.9691)">
<stop stop-color="#FFC600"/>
<stop offset="1" stop-color="#D64F00"/>
</radialGradient>
<radialGradient id="paint29_radial_2401_7765" cx="0" cy="0" r="1" gradientUnits="userSpaceOnUse" gradientTransform="translate(28.5825 18.5173) scale(13.8067 13.8067)">
<stop stop-color="#FFD58C"/>
<stop offset="0.00186" stop-color="#FFEF8F"/>
<stop offset="1"/>
</radialGradient>
<radialGradient id="paint30_radial_2401_7765" cx="0" cy="0" r="1" gradientUnits="userSpaceOnUse" gradientTransform="translate(34.3674 14.9821) scale(14.5 14.5)">
<stop stop-color="#FFD58C"/>
<stop offset="0.00186" stop-color="#FFEF8F"/>
<stop offset="1"/>
</radialGradient>
<radialGradient id="paint31_radial_2401_7765" cx="0" cy="0" r="1" gradientUnits="userSpaceOnUse" gradientTransform="translate(19.4021 26.8623) scale(12.4605 12.4605)">
<stop stop-color="#FFD58C"/>
<stop offset="0.00186" stop-color="#FFEF8F"/>
<stop offset="1"/>
</radialGradient>
<clipPath id="clip0_2401_7765">
<rect width="54" height="40" fill="white" transform="translate(0 0.5)"/>
</clipPath>
</defs>
</svg>
