<svg width="54" height="41" viewBox="0 0 54 41" fill="none" xmlns="http://www.w3.org/2000/svg">
<g clip-path="url(#clip0_2401_7713)">
<path fill-rule="evenodd" clip-rule="evenodd" d="M27.0254 3.57617L45.1289 16.7287L38.2138 38.0106H15.837L8.92188 16.7287L27.0254 3.57617Z" fill="url(#paint0_radial_2401_7713)"/>
<path fill-rule="evenodd" clip-rule="evenodd" d="M27.0292 0.5L37.5439 8.13928L48.0585 15.7786L44.0423 28.1393L40.026 40.5H14.0324L10.0162 28.1393L6 15.7786L16.5147 8.13928L27.0292 0.5ZM27.0292 4.77055L43.9969 17.0983L37.5159 37.0451H16.5426L10.0616 17.0983L27.0292 4.77055Z" fill="#808080"/>
<path fill-rule="evenodd" clip-rule="evenodd" d="M8.03085 16.4384C11.1972 14.1378 14.3635 11.8373 17.5299 9.53681C20.6964 7.23629 23.8629 4.93573 27.0292 2.63514V0.5L16.5147 8.13928L6 15.7786L8.03085 16.4384Z" fill="url(#paint1_radial_2401_7713)"/>
<path fill-rule="evenodd" clip-rule="evenodd" d="M17.5303 9.53644C14.364 11.837 11.1977 14.1375 8.03125 16.4381L10.062 17.0979L27.0296 4.77018V2.63477C23.8633 4.93546 20.6969 7.23602 17.5303 9.53644Z" fill="url(#paint2_radial_2401_7713)"/>
<path fill-rule="evenodd" clip-rule="evenodd" d="M27.0312 4.77018L43.999 17.0979L46.0298 16.438C42.8633 14.1374 39.6969 11.8369 36.5306 9.53644C33.3641 7.23592 30.1977 4.93536 27.0312 2.63477V4.77018Z" fill="url(#paint3_radial_2401_7713)"/>
<path fill-rule="evenodd" clip-rule="evenodd" d="M27.0312 2.63514C30.1977 4.93583 33.3641 7.23639 36.5306 9.53681C39.6969 11.8373 42.8633 14.1379 46.0298 16.4384L48.0606 15.7786L37.5459 8.13928L27.0312 0.5V2.63514Z" fill="url(#paint4_radial_2401_7713)"/>
<path fill-rule="evenodd" clip-rule="evenodd" d="M43.9967 17.0983L37.5156 37.0451L38.7707 38.7725C39.9801 35.0502 41.1896 31.3278 42.3991 27.6054C43.6086 23.8831 44.818 20.1608 46.0275 16.4385L43.9967 17.0983Z" fill="url(#paint5_radial_2401_7713)"/>
<path fill-rule="evenodd" clip-rule="evenodd" d="M46.0303 16.4381C44.8207 20.1604 43.6113 23.8827 42.4019 27.6051C41.1925 31.3275 39.983 35.0498 38.7734 38.7722L40.0285 40.4997L44.0448 28.139L48.061 15.7783L46.0303 16.4381Z" fill="url(#paint6_radial_2401_7713)"/>
<path fill-rule="evenodd" clip-rule="evenodd" d="M37.5175 37.0449H16.5442L15.2891 38.7723H38.7725L37.5175 37.0449Z" fill="url(#paint7_radial_2401_7713)"/>
<path fill-rule="evenodd" clip-rule="evenodd" d="M38.7698 38.7725H15.2863L14.0312 40.5H40.0248L38.7698 38.7725Z" fill="url(#paint8_radial_2401_7713)"/>
<path fill-rule="evenodd" clip-rule="evenodd" d="M16.543 37.0452L10.062 17.0984L8.03125 16.4385C9.24062 20.1608 10.4501 23.8831 11.6596 27.6055C12.869 31.3279 14.0785 35.0502 15.2878 38.7726L16.543 37.0452Z" fill="url(#paint9_radial_2401_7713)"/>
<path fill-rule="evenodd" clip-rule="evenodd" d="M15.2874 38.7722C14.078 35.0498 12.8686 31.3275 11.6592 27.6051C10.4497 23.8828 9.24029 20.1605 8.03085 16.4381L6 15.7783L10.0162 28.139L14.0324 40.4997L15.2874 38.7722Z" fill="url(#paint10_radial_2401_7713)"/>
<path style="mix-blend-mode:screen" fill-rule="evenodd" clip-rule="evenodd" d="M21.2585 14.6633C18.1628 16.9124 14.8757 18.063 12.5823 17.8958C11.6797 17.8301 10.622 17.2018 12.0821 16.1409L25.4997 6.39256C26.9597 5.33174 27.2304 6.5319 27.0141 7.41076C26.4644 9.64334 24.3542 12.4142 21.2585 14.6633Z" fill="url(#paint11_radial_2401_7713)"/>
<path style="mix-blend-mode:screen" fill-rule="evenodd" clip-rule="evenodd" d="M32.3466 6.49768L27.204 2.4585L27.031 1.05273L26.8047 2.47418L15.5547 10.9737L27.031 3.01744L32.3466 6.49768Z" fill="url(#paint12_radial_2401_7713)"/>
<path style="mix-blend-mode:screen" fill-rule="evenodd" clip-rule="evenodd" d="M14.9986 11.376L7.92103 16.192L6.46094 15.9282L7.82526 16.579L12.7846 31.069L8.48109 16.5846L14.9986 11.376Z" fill="url(#paint13_radial_2401_7713)"/>
<path style="mix-blend-mode:screen" fill-rule="evenodd" clip-rule="evenodd" d="M19.0703 38.7723L38.4082 38.2784L42.1971 28.2168L39.054 38.8513L39.7513 40.1266L38.7028 39.0591L19.0703 38.7723Z" fill="url(#paint14_radial_2401_7713)"/>
<path style="mix-blend-mode:multiply" fill-rule="evenodd" clip-rule="evenodd" d="M25.4263 6.95168C26.6499 6.23385 27.4103 6.23385 28.634 6.95168C33.1329 9.75661 37.3676 12.9647 41.2857 16.5364C42.5221 17.7007 43.017 18.6841 43.1576 19.6844L43.9978 17.0983L27.0301 4.77051L10.0625 17.0983L10.9027 19.6842C11.0432 18.6841 11.5381 17.7006 12.7744 16.5364C16.6926 12.9647 20.9273 9.75661 25.4263 6.95168Z" fill="url(#paint15_radial_2401_7713)"/>
<path fill-rule="evenodd" clip-rule="evenodd" d="M27.0285 10.1367L30.7064 17.5492L38.8934 18.7567L32.9797 24.5455L34.3614 32.7045L27.0285 28.8692L19.6955 32.7045L21.0772 24.5455L15.1641 18.7567L23.3505 17.5492L27.0285 10.1367Z" fill="#B05B00"/>
<path fill-rule="evenodd" clip-rule="evenodd" d="M27.0285 22.6108L15.1641 18.7559L21.0772 24.5447L27.0285 22.6108Z" fill="url(#paint16_radial_2401_7713)"/>
<path fill-rule="evenodd" clip-rule="evenodd" d="M15.1641 18.7563L27.0285 22.6113L23.3505 17.5488L15.1641 18.7563Z" fill="url(#paint17_radial_2401_7713)"/>
<path fill-rule="evenodd" clip-rule="evenodd" d="M23.3516 17.5492L27.0295 22.6116V10.1367L23.3516 17.5492Z" fill="url(#paint18_radial_2401_7713)"/>
<path fill-rule="evenodd" clip-rule="evenodd" d="M27.0312 10.1367V22.6116L30.7092 17.5492L27.0312 10.1367Z" fill="url(#paint19_radial_2401_7713)"/>
<path fill-rule="evenodd" clip-rule="evenodd" d="M30.7092 17.5488L27.0312 22.6113L38.8962 18.7563L30.7092 17.5488Z" fill="url(#paint20_radial_2401_7713)"/>
<path fill-rule="evenodd" clip-rule="evenodd" d="M38.8962 18.7559L27.0312 22.6108L32.9825 24.5447L38.8962 18.7559Z" fill="url(#paint21_radial_2401_7713)"/>
<path fill-rule="evenodd" clip-rule="evenodd" d="M32.9825 24.5452L27.0312 22.6113L34.3642 32.7043L32.9825 24.5452Z" fill="url(#paint22_radial_2401_7713)"/>
<path fill-rule="evenodd" clip-rule="evenodd" d="M34.3642 32.7043L27.0312 22.6113V28.8689L34.3642 32.7043Z" fill="url(#paint23_radial_2401_7713)"/>
<path fill-rule="evenodd" clip-rule="evenodd" d="M27.0282 28.8689V22.6113L19.6953 32.7043L27.0282 28.8689Z" fill="url(#paint24_radial_2401_7713)"/>
<path fill-rule="evenodd" clip-rule="evenodd" d="M19.6953 32.7043L27.0282 22.6113L21.077 24.5452L19.6953 32.7043Z" fill="url(#paint25_radial_2401_7713)"/>
<path style="mix-blend-mode:screen" fill-rule="evenodd" clip-rule="evenodd" d="M16.9766 19.3463L26.4394 21.8042C26.1692 21.2548 25.9694 20.6737 25.8445 20.0744L27.0259 10.7148V22.6116L16.9766 19.3463Z" fill="url(#paint26_radial_2401_7713)"/>
<path style="mix-blend-mode:screen" fill-rule="evenodd" clip-rule="evenodd" d="M27.0312 22.6113C27.6415 21.835 28.5079 21.3011 29.4756 21.1049L37.9083 19.0771L27.0312 22.6113Z" fill="url(#paint27_radial_2401_7713)"/>
<path style="mix-blend-mode:screen" fill-rule="evenodd" clip-rule="evenodd" d="M27.0281 22.6113C25.8735 23.3186 24.8579 24.2309 24.0312 25.3032L19.6953 32.704L27.0281 22.6113Z" fill="url(#paint28_radial_2401_7713)"/>
</g>
<defs>
<radialGradient id="paint0_radial_2401_7713" cx="0" cy="0" r="1" gradientUnits="userSpaceOnUse" gradientTransform="translate(18.7298 11.1153) scale(31.6708)">
<stop stop-color="#FFAE00"/>
<stop offset="0.57416" stop-color="#FF4400"/>
<stop offset="1" stop-color="#85009C"/>
</radialGradient>
<radialGradient id="paint1_radial_2401_7713" cx="0" cy="0" r="1" gradientUnits="userSpaceOnUse" gradientTransform="translate(23.4276 0.3272) scale(43.635 43.635)">
<stop stop-color="#FFF8C7"/>
<stop offset="1" stop-color="#FFC521"/>
</radialGradient>
<radialGradient id="paint2_radial_2401_7713" cx="0" cy="0" r="1" gradientUnits="userSpaceOnUse" gradientTransform="translate(33.4303 28.3011) scale(40.2041 40.2041)">
<stop stop-color="#FF9900"/>
<stop offset="1" stop-color="#C44800"/>
</radialGradient>
<radialGradient id="paint3_radial_2401_7713" cx="0" cy="0" r="1" gradientUnits="userSpaceOnUse" gradientTransform="translate(27.4284 16.4337) scale(41.1392 41.1392)">
<stop stop-color="#FF9900"/>
<stop offset="1" stop-color="#C44800"/>
</radialGradient>
<radialGradient id="paint4_radial_2401_7713" cx="0" cy="0" r="1" gradientUnits="userSpaceOnUse" gradientTransform="translate(18.4199 24.1387) scale(47.8561 47.8561)">
<stop stop-color="#FFEB68"/>
<stop offset="1" stop-color="#E67D2D"/>
</radialGradient>
<radialGradient id="paint5_radial_2401_7713" cx="0" cy="0" r="1" gradientUnits="userSpaceOnUse" gradientTransform="translate(24.489 19.7707) scale(38.0843 38.0843)">
<stop stop-color="#FFEB68"/>
<stop offset="1" stop-color="#E67D2D"/>
</radialGradient>
<radialGradient id="paint6_radial_2401_7713" cx="0" cy="0" r="1" gradientUnits="userSpaceOnUse" gradientTransform="translate(5.97174 13.9673) scale(45.0204 45.0204)">
<stop stop-color="#FF9900"/>
<stop offset="1" stop-color="#C44800"/>
</radialGradient>
<radialGradient id="paint7_radial_2401_7713" cx="0" cy="0" r="1" gradientUnits="userSpaceOnUse" gradientTransform="translate(36.3634 52.6565) scale(35.7429 35.7429)">
<stop stop-color="#FFEB68"/>
<stop offset="1" stop-color="#E67D2D"/>
</radialGradient>
<radialGradient id="paint8_radial_2401_7713" cx="0" cy="0" r="1" gradientUnits="userSpaceOnUse" gradientTransform="translate(28.065 2.07558) scale(50.9556 50.9556)">
<stop stop-color="#FF9900"/>
<stop offset="1" stop-color="#C44800"/>
</radialGradient>
<radialGradient id="paint9_radial_2401_7713" cx="0" cy="0" r="1" gradientUnits="userSpaceOnUse" gradientTransform="translate(2.26327 55.1424) scale(39.3551 39.3551)">
<stop stop-color="#FF9900"/>
<stop offset="1" stop-color="#C44800"/>
</radialGradient>
<radialGradient id="paint10_radial_2401_7713" cx="0" cy="0" r="1" gradientUnits="userSpaceOnUse" gradientTransform="translate(36.4523 20.6883) scale(39.7174 39.7174)">
<stop stop-color="#FFEB68"/>
<stop offset="1" stop-color="#E67D2D"/>
</radialGradient>
<radialGradient id="paint11_radial_2401_7713" cx="0" cy="0" r="1" gradientUnits="userSpaceOnUse" gradientTransform="translate(10.8088 2.72683) scale(22.3427)">
<stop stop-color="#FFD500"/>
<stop offset="1"/>
</radialGradient>
<radialGradient id="paint12_radial_2401_7713" cx="0" cy="0" r="1" gradientUnits="userSpaceOnUse" gradientTransform="translate(26.2549 -1.82164) scale(26.9588 26.9589)">
<stop stop-color="#FFD58C"/>
<stop offset="0.00186" stop-color="#FFEF8F"/>
<stop offset="1"/>
</radialGradient>
<radialGradient id="paint13_radial_2401_7713" cx="0" cy="0" r="1" gradientUnits="userSpaceOnUse" gradientTransform="translate(8.88619 16.7291) scale(22.9037 22.9037)">
<stop stop-color="#FFD58C"/>
<stop offset="0.00186" stop-color="#FFEF8F"/>
<stop offset="1"/>
</radialGradient>
<radialGradient id="paint14_radial_2401_7713" cx="0" cy="0" r="1" gradientUnits="userSpaceOnUse" gradientTransform="translate(41.003 41.0847) scale(31.772 31.772)">
<stop stop-color="#FFD58C"/>
<stop offset="0.00186" stop-color="#FFEF8F"/>
<stop offset="1"/>
</radialGradient>
<radialGradient id="paint15_radial_2401_7713" cx="0" cy="0" r="1" gradientUnits="userSpaceOnUse" gradientTransform="translate(26.1852 28.4346) scale(32.0587 32.0587)">
<stop offset="0.25533" stop-color="white"/>
<stop offset="0.31965" stop-color="#FCF8F4"/>
<stop offset="0.43326" stop-color="#F6E4D6"/>
<stop offset="0.5828" stop-color="#EAC4A6"/>
<stop offset="0.76264" stop-color="#DB9863"/>
<stop offset="0.96612" stop-color="#C7610F"/>
<stop offset="1" stop-color="#C45700"/>
</radialGradient>
<radialGradient id="paint16_radial_2401_7713" cx="0" cy="0" r="1" gradientUnits="userSpaceOnUse" gradientTransform="translate(18.4049 5.72679) scale(18.9688 18.9688)">
<stop stop-color="#FFC600"/>
<stop offset="1" stop-color="#D64F00"/>
</radialGradient>
<radialGradient id="paint17_radial_2401_7713" cx="0" cy="0" r="1" gradientUnits="userSpaceOnUse" gradientTransform="translate(24.3669 13.7631) scale(16.1621)">
<stop stop-color="#FFEB68"/>
<stop offset="1" stop-color="#E67D2D"/>
</radialGradient>
<radialGradient id="paint18_radial_2401_7713" cx="0" cy="0" r="1" gradientUnits="userSpaceOnUse" gradientTransform="translate(24.5364 13.6268) scale(20.3988 20.3988)">
<stop stop-color="#FFEB68"/>
<stop offset="1" stop-color="#FFAC6B"/>
</radialGradient>
<radialGradient id="paint19_radial_2401_7713" cx="0" cy="0" r="1" gradientUnits="userSpaceOnUse" gradientTransform="translate(15.9374 11.5148) scale(20.0342 20.0342)">
<stop stop-color="#FFC600"/>
<stop offset="1" stop-color="#D64F00"/>
</radialGradient>
<radialGradient id="paint20_radial_2401_7713" cx="0" cy="0" r="1" gradientUnits="userSpaceOnUse" gradientTransform="translate(33.6365 9.59531) scale(17.863 17.863)">
<stop stop-color="#FFEB68"/>
<stop offset="1" stop-color="#E67D2D"/>
</radialGradient>
<radialGradient id="paint21_radial_2401_7713" cx="0" cy="0" r="1" gradientUnits="userSpaceOnUse" gradientTransform="translate(21.0024 2.88598) scale(24.4474 24.4474)">
<stop stop-color="#FFC600"/>
<stop offset="1" stop-color="#D64F00"/>
</radialGradient>
<radialGradient id="paint22_radial_2401_7713" cx="0" cy="0" r="1" gradientUnits="userSpaceOnUse" gradientTransform="translate(42.5841 26.3869) scale(18.8675 18.8675)">
<stop stop-color="#FFEB68"/>
<stop offset="1" stop-color="#E67D2D"/>
</radialGradient>
<radialGradient id="paint23_radial_2401_7713" cx="0" cy="0" r="1" gradientUnits="userSpaceOnUse" gradientTransform="translate(40.0424 20.7801) scale(21.4232 21.4232)">
<stop stop-color="#FFC600"/>
<stop offset="1" stop-color="#D64F00"/>
</radialGradient>
<radialGradient id="paint24_radial_2401_7713" cx="0" cy="0" r="1" gradientUnits="userSpaceOnUse" gradientTransform="translate(9.756 17.3411) scale(21.8251 21.8251)">
<stop stop-color="#FFC600"/>
<stop offset="1" stop-color="#D64F00"/>
</radialGradient>
<radialGradient id="paint25_radial_2401_7713" cx="0" cy="0" r="1" gradientUnits="userSpaceOnUse" gradientTransform="translate(23.4928 32.4797) scale(13.4692 13.4692)">
<stop stop-color="#FFC600"/>
<stop offset="1" stop-color="#D64F00"/>
</radialGradient>
<radialGradient id="paint26_radial_2401_7713" cx="0" cy="0" r="1" gradientUnits="userSpaceOnUse" gradientTransform="translate(28.5799 20.1768) scale(16.9534 16.9534)">
<stop stop-color="#FFD58C"/>
<stop offset="0.00186" stop-color="#FFEF8F"/>
<stop offset="1"/>
</radialGradient>
<radialGradient id="paint27_radial_2401_7713" cx="0" cy="0" r="1" gradientUnits="userSpaceOnUse" gradientTransform="translate(35.6844 15.8355) scale(17.8046)">
<stop stop-color="#FFD58C"/>
<stop offset="0.00186" stop-color="#FFEF8F"/>
<stop offset="1"/>
</radialGradient>
<radialGradient id="paint28_radial_2401_7713" cx="0" cy="0" r="1" gradientUnits="userSpaceOnUse" gradientTransform="translate(17.3063 30.4237) scale(15.3005 15.3005)">
<stop stop-color="#FFD58C"/>
<stop offset="0.00186" stop-color="#FFEF8F"/>
<stop offset="1"/>
</radialGradient>
<clipPath id="clip0_2401_7713">
<rect width="54" height="40" fill="white" transform="translate(0 0.5)"/>
</clipPath>
</defs>
</svg>
