<svg width="54" height="41" viewBox="0 0 54 41" fill="none" xmlns="http://www.w3.org/2000/svg">
<g clip-path="url(#clip0_2401_7915)">
<path fill-rule="evenodd" clip-rule="evenodd" d="M9.90151 20.5415C6.93726 15.7256 4.67124 11.1356 7.53059 6.7832C7.60547 10.8046 11.0365 14.8158 9.90151 20.5415Z" fill="#C4C4C4"/>
<path fill-rule="evenodd" clip-rule="evenodd" d="M7.53059 6.7832C4.67123 11.1356 6.93725 15.7257 9.90163 20.5415C9.11686 15.3338 6.11441 12.1568 7.53059 6.7832Z" fill="url(#paint0_radial_2401_7915)"/>
<path fill-rule="evenodd" clip-rule="evenodd" d="M7.53058 6.7832C6.1144 12.1568 9.11685 15.3338 9.90162 20.5415C11.0365 14.8158 7.60546 10.8046 7.53058 6.7832Z" fill="url(#paint1_radial_2401_7915)"/>
<path fill-rule="evenodd" clip-rule="evenodd" d="M7.17198 8.98047C7.52644 13.6884 9.26237 15.9514 9.89972 20.5421C8.87166 16.2236 6.86629 12.6167 7.17198 8.98047Z" fill="url(#paint2_radial_2401_7915)"/>
<path fill-rule="evenodd" clip-rule="evenodd" d="M4.0745 6.90234C4.52922 13.3377 11.4292 18.1813 11.3922 24.7538C4.53392 19.3318 0.410947 13.5721 4.0745 6.90234Z" fill="#B3B3B3"/>
<path fill-rule="evenodd" clip-rule="evenodd" d="M4.07456 6.90234C0.410901 13.5721 4.53387 19.3318 11.3921 24.7538C9.9217 20.8161 7.43227 19.039 5.50542 15.7576C3.32285 12.0409 3.37241 9.76243 4.07456 6.90234Z" fill="url(#paint3_radial_2401_7915)"/>
<path fill-rule="evenodd" clip-rule="evenodd" d="M5.50675 15.7576C7.4336 19.039 9.92303 20.8161 11.3935 24.7538C11.4305 18.1813 4.5305 13.3377 4.0759 6.90234C3.37375 9.76243 3.32418 12.0409 5.50675 15.7576Z" fill="url(#paint4_radial_2401_7915)"/>
<path fill-rule="evenodd" clip-rule="evenodd" d="M3.64458 9.70996C4.52977 17.2472 9.2664 18.5692 11.3903 24.7538C8.69351 19.2866 3.62588 16.0869 3.64458 9.70996Z" fill="url(#paint5_radial_2401_7915)"/>
<path fill-rule="evenodd" clip-rule="evenodd" d="M13.2587 28.2916C11.62 26.9924 9.91383 25.7808 8.14729 24.6617C4.20135 21.9377 0.711866 19.5742 1.01884 13.999C3.16954 17.3756 7.54858 19.4013 10.228 22.9043C11.5043 24.5368 12.5261 26.3532 13.2587 28.2916Z" fill="#BDBDBD"/>
<path fill-rule="evenodd" clip-rule="evenodd" d="M1.01884 13.999C0.711921 19.5743 4.20134 21.9377 8.14728 24.6616C9.91381 25.7808 11.62 26.9925 13.2587 28.2917C10.4102 24.1286 9.07004 23.5487 5.16477 20.3321C2.33291 17.9995 1.70631 16.6621 1.01884 13.999Z" fill="url(#paint6_radial_2401_7915)"/>
<path fill-rule="evenodd" clip-rule="evenodd" d="M5.16546 20.3321C9.07074 23.5487 10.4109 24.1286 13.2594 28.2917C12.5268 26.3532 11.505 24.5369 10.2287 22.9043C7.54927 19.4013 3.17034 17.3757 1.01953 13.999C1.70701 16.6621 2.33361 17.9995 5.16546 20.3321Z" fill="url(#paint7_radial_2401_7915)"/>
<path fill-rule="evenodd" clip-rule="evenodd" d="M1.94922 16.6836C5.14512 21.3944 9.18565 21.9651 13.26 28.2916C12.7111 27.5989 11.8591 26.5011 11.2551 25.8185C8.38531 22.5764 3.93963 20.6147 1.94922 16.6836Z" fill="url(#paint8_radial_2401_7915)"/>
<path fill-rule="evenodd" clip-rule="evenodd" d="M13.896 29.2484C11.7836 28.3493 9.37345 27.9152 7.54669 27.0636C4.37476 25.5851 2.43077 24.5376 1.4375 19.8457C3.73253 22.4768 6.5981 23.1318 9.59742 24.9034C11.4095 25.9198 12.8992 27.4254 13.896 29.2484Z" fill="#D1D1D1"/>
<path fill-rule="evenodd" clip-rule="evenodd" d="M1.4375 19.8457C2.43077 24.5376 4.37476 25.5851 7.54669 27.0636C9.37345 27.9151 11.7836 28.3493 13.8959 29.2484C11.3368 26.9472 10.0732 26.6992 6.8894 25.047C3.61374 23.3472 2.81319 22.6244 1.4375 19.8457Z" fill="url(#paint9_radial_2401_7915)"/>
<path fill-rule="evenodd" clip-rule="evenodd" d="M1.4375 19.8457C2.81319 22.6244 3.61374 23.3472 6.8894 25.047C10.0732 26.6992 11.3368 26.9472 13.8959 29.2484C12.8991 27.4254 11.4095 25.9197 9.59742 24.9034C6.5981 23.1318 3.73253 22.4768 1.4375 19.8457Z" fill="url(#paint10_radial_2401_7915)"/>
<path fill-rule="evenodd" clip-rule="evenodd" d="M2.57031 21.8242C5.57589 24.9809 10.5678 25.975 13.8983 29.248C10.4621 26.572 4.8593 24.9623 2.57031 21.8242Z" fill="url(#paint11_radial_2401_7915)"/>
<path fill-rule="evenodd" clip-rule="evenodd" d="M13.9951 29.0295C10.0651 30.3166 5.80607 29.9042 3.88281 25.7129C6.40238 27.4299 11.2033 27.4923 13.9951 29.0295Z" fill="#E6E6E6"/>
<path fill-rule="evenodd" clip-rule="evenodd" d="M13.9951 29.0295C10.2045 28.5743 6.376 28.8641 3.88281 25.7129C5.80607 29.9042 10.0651 30.3166 13.9951 29.0295Z" fill="url(#paint12_radial_2401_7915)"/>
<path fill-rule="evenodd" clip-rule="evenodd" d="M3.88281 25.7129C6.376 28.8641 10.2045 28.5743 13.9951 29.0295C11.2033 27.4923 6.40238 27.4299 3.88281 25.7129Z" fill="url(#paint13_radial_2401_7915)"/>
<path fill-rule="evenodd" clip-rule="evenodd" d="M5.09375 26.9141C7.9731 28.6176 10.4628 28.6462 13.9973 29.0297C10.8322 29.0443 7.97747 29.0278 5.09375 26.9141Z" fill="url(#paint14_radial_2401_7915)"/>
<path fill-rule="evenodd" clip-rule="evenodd" d="M44.2612 20.5415C47.2255 15.7256 49.4915 11.1356 46.6322 6.7832C46.5573 10.8046 43.1262 14.8158 44.2612 20.5415Z" fill="#C4C4C4"/>
<path fill-rule="evenodd" clip-rule="evenodd" d="M46.6367 6.7832C49.496 11.1356 47.2299 15.7257 44.2656 20.5415C45.0503 15.3338 48.0528 12.1568 46.6367 6.7832Z" fill="url(#paint15_radial_2401_7915)"/>
<path fill-rule="evenodd" clip-rule="evenodd" d="M46.6322 6.7832C48.0483 12.1568 45.0459 15.3338 44.2612 20.5415C43.1263 14.8158 46.5573 10.8046 46.6322 6.7832Z" fill="url(#paint16_radial_2401_7915)"/>
<path fill-rule="evenodd" clip-rule="evenodd" d="M46.9933 8.98047C46.6389 13.6884 44.9029 15.9514 44.2656 20.5421C45.2936 16.2236 47.299 12.6167 46.9933 8.98047Z" fill="url(#paint17_radial_2401_7915)"/>
<path fill-rule="evenodd" clip-rule="evenodd" d="M50.0913 6.90234C49.6366 13.3377 42.7366 18.1813 42.7736 24.7538C49.6319 19.3318 53.7548 13.5721 50.0913 6.90234Z" fill="#B3B3B3"/>
<path fill-rule="evenodd" clip-rule="evenodd" d="M50.0911 6.90234C53.7547 13.5721 49.6317 19.3318 42.7734 24.7538C44.2439 20.8161 46.7334 19.039 48.6602 15.7576C50.8427 12.0409 50.7932 9.76243 50.0911 6.90234Z" fill="url(#paint18_radial_2401_7915)"/>
<path fill-rule="evenodd" clip-rule="evenodd" d="M48.6603 15.7576C46.7335 19.039 44.2441 20.8161 42.7736 24.7538C42.7366 18.1813 49.6366 13.3377 50.0912 6.90234C50.7933 9.76243 50.8429 12.0409 48.6603 15.7576Z" fill="url(#paint19_radial_2401_7915)"/>
<path fill-rule="evenodd" clip-rule="evenodd" d="M50.5192 9.70996C49.634 17.2472 44.8974 18.5692 42.7734 24.7538C45.4703 19.2866 50.5379 16.0869 50.5192 9.70996Z" fill="url(#paint20_radial_2401_7915)"/>
<path fill-rule="evenodd" clip-rule="evenodd" d="M40.9062 28.2926C42.5449 26.9934 44.2511 25.7817 46.0176 24.6627C49.9636 21.9386 53.453 19.5752 53.146 14C50.9953 17.3766 46.6163 19.4023 43.9369 22.9053C42.6605 24.5378 41.6388 26.3541 40.9062 28.2926Z" fill="#BDBDBD"/>
<path fill-rule="evenodd" clip-rule="evenodd" d="M53.146 14C53.4529 19.5753 49.9636 21.9386 46.0176 24.6626C44.2511 25.7817 42.5449 26.9934 40.9062 28.2926C43.7547 24.1296 45.0949 23.5497 49.0001 20.3331C51.832 18.0004 52.4585 16.6631 53.146 14Z" fill="url(#paint21_radial_2401_7915)"/>
<path fill-rule="evenodd" clip-rule="evenodd" d="M49.0001 20.3331C45.0949 23.5497 43.7547 24.1296 40.9062 28.2926C41.6387 26.3542 42.6605 24.5378 43.9369 22.9053C46.6163 19.4023 50.9952 17.3766 53.146 14C52.4585 16.6631 51.832 18.0004 49.0001 20.3331Z" fill="url(#paint22_radial_2401_7915)"/>
<path fill-rule="evenodd" clip-rule="evenodd" d="M52.2169 16.6836C49.021 21.3944 44.9806 21.9651 40.9062 28.2916C41.4551 27.5989 42.3071 26.5011 42.9111 25.8185C45.7808 22.5764 50.2266 20.6147 52.2169 16.6836Z" fill="url(#paint23_radial_2401_7915)"/>
<path fill-rule="evenodd" clip-rule="evenodd" d="M40.2656 29.2484C42.378 28.3493 44.7882 27.9152 46.6149 27.0636C49.7868 25.5851 51.7308 24.5376 52.7242 19.8457C50.4291 22.4768 47.5635 23.1318 44.5642 24.9034C42.7521 25.9197 41.2625 27.4254 40.2656 29.2484Z" fill="#D1D1D1"/>
<path fill-rule="evenodd" clip-rule="evenodd" d="M52.7241 19.8457C51.7308 24.5376 49.7868 25.5851 46.6149 27.0636C44.7881 27.9151 42.3779 28.3493 40.2656 29.2484C42.8248 26.9472 44.0883 26.6992 47.2721 25.047C50.5478 23.3472 51.3484 22.6244 52.7241 19.8457Z" fill="url(#paint24_radial_2401_7915)"/>
<path fill-rule="evenodd" clip-rule="evenodd" d="M52.7241 19.8457C51.3484 22.6244 50.5478 23.3472 47.2721 25.047C44.0883 26.6992 42.8248 26.9472 40.2656 29.2484C41.2625 27.4254 42.7521 25.9197 44.5642 24.9034C47.5634 23.1318 50.429 22.4768 52.7241 19.8457Z" fill="url(#paint25_radial_2401_7915)"/>
<path fill-rule="evenodd" clip-rule="evenodd" d="M51.5937 21.8242C48.5881 24.9809 43.5961 25.975 40.2656 29.248C43.7019 26.572 49.3047 24.9623 51.5937 21.8242Z" fill="url(#paint26_radial_2401_7915)"/>
<path fill-rule="evenodd" clip-rule="evenodd" d="M40.1719 29.0295C44.1019 30.3166 48.3609 29.9042 50.2841 25.7129C47.7646 27.4299 42.9637 27.4923 40.1719 29.0295Z" fill="#E6E6E6"/>
<path fill-rule="evenodd" clip-rule="evenodd" d="M40.1719 29.0295C43.9624 28.5743 47.791 28.8641 50.2841 25.7129C48.3609 29.9042 44.1019 30.3166 40.1719 29.0295Z" fill="url(#paint27_radial_2401_7915)"/>
<path fill-rule="evenodd" clip-rule="evenodd" d="M50.2841 25.7129C47.791 28.8641 43.9624 28.5743 40.1719 29.0295C42.9637 27.4923 47.7646 27.4299 50.2841 25.7129Z" fill="url(#paint28_radial_2401_7915)"/>
<path fill-rule="evenodd" clip-rule="evenodd" d="M49.0753 26.9141C46.196 28.6176 43.7063 28.6462 40.1719 29.0297C43.3369 29.0443 46.1916 29.0278 49.0753 26.9141Z" fill="url(#paint29_radial_2401_7915)"/>
<path fill-rule="evenodd" clip-rule="evenodd" d="M27.0819 3.9873L34.2323 8.11554L41.3826 12.2438V20.5003V28.7567L34.2323 32.885L27.0819 37.0132L19.9316 32.885L12.7812 28.7567V20.5003V12.2438L19.9316 8.11554L27.0819 3.9873Z" fill="url(#paint30_radial_2401_7915)"/>
<path fill-rule="evenodd" clip-rule="evenodd" d="M27.0822 0.5L35.7425 5.49998L44.4027 10.5V30.5L35.7425 35.5L27.0822 40.5L18.4219 35.5L9.76172 30.5V10.5L18.4219 5.49998L27.0822 0.5ZM27.0822 4.48917L34.0151 8.4919L40.948 12.4946V28.5054L34.0151 32.5081L27.0822 36.5108L20.1492 32.5081L13.2164 28.5054V12.4946L20.1492 8.4919L27.0822 4.48917Z" fill="#999999"/>
<path fill-rule="evenodd" clip-rule="evenodd" d="M19.2857 6.99597C21.8845 5.4955 24.4833 3.99503 27.0822 2.49456V0.5L18.4219 5.49998L9.76172 10.5L11.4891 11.4973C14.0879 9.99691 16.6868 8.49646 19.2857 6.99597Z" fill="url(#paint31_radial_2401_7915)"/>
<path fill-rule="evenodd" clip-rule="evenodd" d="M27.0814 2.49414C24.4826 3.99467 21.8838 5.49514 19.2849 6.99555C16.686 8.49602 14.0871 9.99647 11.4883 11.4969L13.2156 12.4942L20.1485 8.49148L27.0814 4.48875V2.49414Z" fill="url(#paint32_radial_2401_7915)"/>
<path fill-rule="evenodd" clip-rule="evenodd" d="M27.082 2.49456C29.6809 3.99509 32.2798 5.49556 34.8786 6.99597C37.4775 8.49644 40.0764 9.99689 42.6752 11.4973L44.4026 10.5L35.7424 5.49998L27.082 0.5V2.49456Z" fill="url(#paint33_radial_2401_7915)"/>
<path fill-rule="evenodd" clip-rule="evenodd" d="M34.8786 6.99555C32.2798 5.49508 29.681 3.99461 27.082 2.49414V4.48875L34.015 8.49148L40.9479 12.4942L42.6752 11.4969C40.0764 9.99649 37.4775 8.49604 34.8786 6.99555Z" fill="url(#paint34_radial_2401_7915)"/>
<path fill-rule="evenodd" clip-rule="evenodd" d="M40.9492 12.4944V28.5051L42.6766 29.5024V11.4971L40.9492 12.4944Z" fill="url(#paint35_radial_2401_7915)"/>
<path fill-rule="evenodd" clip-rule="evenodd" d="M42.6719 11.4973V29.5027L44.3992 30.5V10.5L42.6719 11.4973Z" fill="url(#paint36_radial_2401_7915)"/>
<path fill-rule="evenodd" clip-rule="evenodd" d="M11.4891 20.5V11.4973L9.76172 10.5V30.5L11.4891 29.5027V20.5Z" fill="url(#paint37_radial_2401_7915)"/>
<path fill-rule="evenodd" clip-rule="evenodd" d="M11.4883 11.4971V29.5024L13.2156 28.5051V12.4944L11.4883 11.4971Z" fill="url(#paint38_radial_2401_7915)"/>
<path fill-rule="evenodd" clip-rule="evenodd" d="M20.1485 32.5076L13.2156 28.5049L11.4883 29.5022C14.0872 31.0026 16.686 32.5031 19.2849 34.0036C21.8837 35.504 24.4825 37.0044 27.0814 38.5049V36.5103L20.1485 32.5076Z" fill="url(#paint39_radial_2401_7915)"/>
<path fill-rule="evenodd" clip-rule="evenodd" d="M19.2857 34.0043C16.6868 32.5038 14.0879 31.0033 11.4891 29.5029L9.76172 30.5002L18.4219 35.5003L27.0822 40.5003V38.5056C24.4834 37.0052 21.8846 35.5047 19.2857 34.0043Z" fill="url(#paint40_radial_2401_7915)"/>
<path fill-rule="evenodd" clip-rule="evenodd" d="M34.015 32.5086L27.082 36.5113V38.5059C29.6809 37.0054 32.2798 35.505 34.8786 34.0046C37.4775 32.504 40.0764 31.0036 42.6752 29.5032L40.9479 28.5059L34.015 32.5086Z" fill="url(#paint41_radial_2401_7915)"/>
<path fill-rule="evenodd" clip-rule="evenodd" d="M34.8786 34.0043C32.2798 35.5047 29.681 37.0052 27.082 38.5056V40.5003L35.7424 35.5003L44.4026 30.5002L42.6752 29.5029C40.0764 31.0033 37.4775 32.5038 34.8786 34.0043Z" fill="url(#paint42_radial_2401_7915)"/>
<path style="mix-blend-mode:multiply" fill-rule="evenodd" clip-rule="evenodd" d="M13.2188 15.141C14.4376 12.862 21.3074 8.45334 25.1347 6.38749C25.7307 6.0547 26.4019 5.87999 27.0846 5.87999C27.7672 5.87999 28.4384 6.0547 29.0344 6.38749C32.8618 8.45334 39.7317 12.862 40.9504 15.141V12.4947L34.0175 8.49199L27.0846 4.48926L20.1516 8.49199L13.2188 12.4947V15.141Z" fill="url(#paint43_radial_2401_7915)"/>
<path style="mix-blend-mode:screen" fill-rule="evenodd" clip-rule="evenodd" d="M18.1094 7.67682L26.9254 2.35733L27.0844 0.727539L27.0973 0.760022L27.2166 2.33717L32.3059 5.50937L27.0844 2.72473L18.1094 7.67682Z" fill="url(#paint44_radial_2401_7915)"/>
<path style="mix-blend-mode:screen" fill-rule="evenodd" clip-rule="evenodd" d="M17.8351 7.83398L11.4128 11.2677L10.3672 10.8499L11.2851 11.5909L11.4896 21.4749L11.7819 11.6665L17.8351 7.83398Z" fill="url(#paint45_radial_2401_7915)"/>
<path style="mix-blend-mode:screen" fill-rule="evenodd" clip-rule="evenodd" d="M15.3867 31.7529L26.9028 38.8344L27.0814 40.0324L27.2427 38.8305L33.1609 34.9951L27.0814 38.1953L15.3867 31.7529Z" fill="url(#paint46_radial_2401_7915)"/>
<path style="mix-blend-mode:screen" fill-rule="evenodd" clip-rule="evenodd" d="M22.4142 12.4134C19.7543 13.9492 17.0337 14.5918 15.2171 14.2659C14.5021 14.1377 13.7104 13.5473 14.9649 12.8231L26.4937 6.16694C27.7482 5.44261 27.8637 6.4234 27.6172 7.10679C26.9911 8.84293 25.0742 10.8777 22.4142 12.4134Z" fill="url(#paint47_radial_2401_7915)"/>
<path style="mix-blend-mode:screen" fill-rule="evenodd" clip-rule="evenodd" d="M32.7026 30.2305C30.3316 31.5995 28.512 33.2212 27.7896 34.4843C27.5053 34.9816 27.4831 35.639 28.6013 34.9934L38.878 29.0601C39.9963 28.4144 39.4158 28.1049 38.8431 28.1026C37.388 28.0966 35.0736 28.8616 32.7026 30.2305Z" fill="url(#paint48_radial_2401_7915)"/>
<path fill-rule="evenodd" clip-rule="evenodd" d="M27.0841 10.3398L30.0793 16.3768L36.7469 17.3597L31.9309 22.0743L33.0561 28.7189L27.0841 25.5954L21.1127 28.7189L22.2373 22.0743L17.4219 17.3597L24.0889 16.3768L27.0841 10.3398Z" fill="#B05B00"/>
<path fill-rule="evenodd" clip-rule="evenodd" d="M27.0841 20.5001L17.4219 17.3604L22.2373 22.075L27.0841 20.5001Z" fill="url(#paint49_radial_2401_7915)"/>
<path fill-rule="evenodd" clip-rule="evenodd" d="M17.4219 17.3599L27.0841 20.4996L24.0889 16.377L17.4219 17.3599Z" fill="url(#paint50_radial_2401_7915)"/>
<path fill-rule="evenodd" clip-rule="evenodd" d="M24.0859 16.3768L27.0812 20.4994V10.3398L24.0859 16.3768Z" fill="url(#paint51_radial_2401_7915)"/>
<path fill-rule="evenodd" clip-rule="evenodd" d="M27.082 10.3398V20.4994L30.0773 16.3768L27.082 10.3398Z" fill="url(#paint52_radial_2401_7915)"/>
<path fill-rule="evenodd" clip-rule="evenodd" d="M30.0773 16.377L27.082 20.4996L36.7448 17.3599L30.0773 16.377Z" fill="url(#paint53_radial_2401_7915)"/>
<path fill-rule="evenodd" clip-rule="evenodd" d="M36.7448 17.3604L27.082 20.5001L31.9288 22.075L36.7448 17.3604Z" fill="url(#paint54_radial_2401_7915)"/>
<path fill-rule="evenodd" clip-rule="evenodd" d="M31.9288 22.0749L27.082 20.5L33.054 28.7195L31.9288 22.0749Z" fill="url(#paint55_radial_2401_7915)"/>
<path fill-rule="evenodd" clip-rule="evenodd" d="M33.054 28.7195L27.082 20.5V25.596L33.054 28.7195Z" fill="url(#paint56_radial_2401_7915)"/>
<path fill-rule="evenodd" clip-rule="evenodd" d="M27.0808 25.596V20.5L21.1094 28.7195L27.0808 25.596Z" fill="url(#paint57_radial_2401_7915)"/>
<path fill-rule="evenodd" clip-rule="evenodd" d="M21.1094 28.7195L27.0808 20.5L22.234 22.0749L21.1094 28.7195Z" fill="url(#paint58_radial_2401_7915)"/>
<path style="mix-blend-mode:screen" fill-rule="evenodd" clip-rule="evenodd" d="M18.8984 17.8409L26.6048 19.8426C26.3849 19.3952 26.2221 18.9219 26.1204 18.4338L27.0826 10.8115V20.5001L18.8984 17.8409Z" fill="url(#paint59_radial_2401_7915)"/>
<path style="mix-blend-mode:screen" fill-rule="evenodd" clip-rule="evenodd" d="M27.082 20.5002C27.579 19.8681 28.2846 19.4333 29.0727 19.2735L35.9402 17.6221L27.082 20.5002Z" fill="url(#paint60_radial_2401_7915)"/>
<path style="mix-blend-mode:screen" fill-rule="evenodd" clip-rule="evenodd" d="M27.0812 20.5C26.1409 21.076 25.3137 21.819 24.6405 22.6923L21.1094 28.7193L27.0812 20.5Z" fill="url(#paint61_radial_2401_7915)"/>
</g>
<defs>
<radialGradient id="paint0_radial_2401_7915" cx="0" cy="0" r="1" gradientUnits="userSpaceOnUse" gradientTransform="translate(8.13505 5.13633) scale(13.5539)">
<stop stop-color="#FFC600"/>
<stop offset="1" stop-color="#D64F00"/>
</radialGradient>
<radialGradient id="paint1_radial_2401_7915" cx="0" cy="0" r="1" gradientUnits="userSpaceOnUse" gradientTransform="translate(8.87434 6.21168) scale(13.4643 13.4643)">
<stop stop-color="#FFEB68"/>
<stop offset="1" stop-color="#E67D2D"/>
</radialGradient>
<radialGradient id="paint2_radial_2401_7915" cx="0" cy="0" r="1" gradientUnits="userSpaceOnUse" gradientTransform="translate(7.71365 9.17327) scale(11.0955 11.0955)">
<stop stop-color="#FF9900"/>
<stop offset="1" stop-color="#C44800"/>
</radialGradient>
<radialGradient id="paint3_radial_2401_7915" cx="0" cy="0" r="1" gradientUnits="userSpaceOnUse" gradientTransform="translate(5.97424 5.53535) scale(16.4607)">
<stop stop-color="#FFC600"/>
<stop offset="1" stop-color="#D64F00"/>
</radialGradient>
<radialGradient id="paint4_radial_2401_7915" cx="0" cy="0" r="1" gradientUnits="userSpaceOnUse" gradientTransform="translate(4.98431 7.302) scale(14.0669 14.0669)">
<stop stop-color="#FFEB68"/>
<stop offset="1" stop-color="#E67D2D"/>
</radialGradient>
<radialGradient id="paint5_radial_2401_7915" cx="0" cy="0" r="1" gradientUnits="userSpaceOnUse" gradientTransform="translate(3.94571 9.80039) scale(14.751 14.751)">
<stop stop-color="#FF9900"/>
<stop offset="1" stop-color="#C44800"/>
</radialGradient>
<radialGradient id="paint6_radial_2401_7915" cx="0" cy="0" r="1" gradientUnits="userSpaceOnUse" gradientTransform="translate(2.9047 11.8512) scale(15.9022 15.9022)">
<stop stop-color="#FFC600"/>
<stop offset="1" stop-color="#D64F00"/>
</radialGradient>
<radialGradient id="paint7_radial_2401_7915" cx="0" cy="0" r="1" gradientUnits="userSpaceOnUse" gradientTransform="translate(1.83945 14.3091) scale(14.3038 14.3038)">
<stop stop-color="#FFEB68"/>
<stop offset="1" stop-color="#E67D2D"/>
</radialGradient>
<radialGradient id="paint8_radial_2401_7915" cx="0" cy="0" r="1" gradientUnits="userSpaceOnUse" gradientTransform="translate(2.99591 16.5539) scale(12.9341 12.9341)">
<stop stop-color="#FF9900"/>
<stop offset="1" stop-color="#C44800"/>
</radialGradient>
<radialGradient id="paint9_radial_2401_7915" cx="0" cy="0" r="1" gradientUnits="userSpaceOnUse" gradientTransform="translate(3.74935 17.3268) scale(15.0747)">
<stop stop-color="#FFC600"/>
<stop offset="1" stop-color="#D64F00"/>
</radialGradient>
<radialGradient id="paint10_radial_2401_7915" cx="0" cy="0" r="1" gradientUnits="userSpaceOnUse" gradientTransform="translate(2.28993 19.7847) scale(12.7628)">
<stop stop-color="#FFEB68"/>
<stop offset="1" stop-color="#E67D2D"/>
</radialGradient>
<radialGradient id="paint11_radial_2401_7915" cx="0" cy="0" r="1" gradientUnits="userSpaceOnUse" gradientTransform="translate(4.25933 21.0427) scale(11.7972 11.7972)">
<stop stop-color="#FF9900"/>
<stop offset="1" stop-color="#C44800"/>
</radialGradient>
<radialGradient id="paint12_radial_2401_7915" cx="0" cy="0" r="1" gradientUnits="userSpaceOnUse" gradientTransform="translate(5.71289 22.1635) scale(10.8284 10.8284)">
<stop stop-color="#FFC600"/>
<stop offset="1" stop-color="#D64F00"/>
</radialGradient>
<radialGradient id="paint13_radial_2401_7915" cx="0" cy="0" r="1" gradientUnits="userSpaceOnUse" gradientTransform="translate(5.09839 25.3741) scale(9.59193 9.59194)">
<stop stop-color="#FFEB68"/>
<stop offset="1" stop-color="#E67D2D"/>
</radialGradient>
<radialGradient id="paint14_radial_2401_7915" cx="0" cy="0" r="1" gradientUnits="userSpaceOnUse" gradientTransform="translate(6.08899 25.6109) scale(9.25038 9.25041)">
<stop stop-color="#FF9900"/>
<stop offset="1" stop-color="#C44800"/>
</radialGradient>
<radialGradient id="paint15_radial_2401_7915" cx="0" cy="0" r="1" gradientUnits="userSpaceOnUse" gradientTransform="translate(46.0322 5.13633) rotate(180) scale(13.5539 13.5539)">
<stop stop-color="#FFC600"/>
<stop offset="1" stop-color="#D64F00"/>
</radialGradient>
<radialGradient id="paint16_radial_2401_7915" cx="0" cy="0" r="1" gradientUnits="userSpaceOnUse" gradientTransform="translate(45.2885 6.21168) rotate(180) scale(13.4643 13.4643)">
<stop stop-color="#FFEB68"/>
<stop offset="1" stop-color="#E67D2D"/>
</radialGradient>
<radialGradient id="paint17_radial_2401_7915" cx="0" cy="0" r="1" gradientUnits="userSpaceOnUse" gradientTransform="translate(46.4517 9.17327) rotate(180) scale(11.0955)">
<stop stop-color="#FF9900"/>
<stop offset="1" stop-color="#C44800"/>
</radialGradient>
<radialGradient id="paint18_radial_2401_7915" cx="0" cy="0" r="1" gradientUnits="userSpaceOnUse" gradientTransform="translate(48.1914 5.53535) rotate(180) scale(16.4607 16.4607)">
<stop stop-color="#FFC600"/>
<stop offset="1" stop-color="#D64F00"/>
</radialGradient>
<radialGradient id="paint19_radial_2401_7915" cx="0" cy="0" r="1" gradientUnits="userSpaceOnUse" gradientTransform="translate(49.1828 7.302) rotate(180) scale(14.0669 14.0669)">
<stop stop-color="#FFEB68"/>
<stop offset="1" stop-color="#E67D2D"/>
</radialGradient>
<radialGradient id="paint20_radial_2401_7915" cx="0" cy="0" r="1" gradientUnits="userSpaceOnUse" gradientTransform="translate(50.2181 9.80039) rotate(180) scale(14.751 14.751)">
<stop stop-color="#FF9900"/>
<stop offset="1" stop-color="#C44800"/>
</radialGradient>
<radialGradient id="paint21_radial_2401_7915" cx="0" cy="0" r="1" gradientUnits="userSpaceOnUse" gradientTransform="translate(51.2602 11.8522) rotate(180) scale(15.9022 15.9022)">
<stop stop-color="#FFC600"/>
<stop offset="1" stop-color="#D64F00"/>
</radialGradient>
<radialGradient id="paint22_radial_2401_7915" cx="0" cy="0" r="1" gradientUnits="userSpaceOnUse" gradientTransform="translate(52.3261 14.3101) rotate(180) scale(14.3038 14.3038)">
<stop stop-color="#FFEB68"/>
<stop offset="1" stop-color="#E67D2D"/>
</radialGradient>
<radialGradient id="paint23_radial_2401_7915" cx="0" cy="0" r="1" gradientUnits="userSpaceOnUse" gradientTransform="translate(51.1703 16.5539) rotate(180) scale(12.9341 12.9341)">
<stop stop-color="#FF9900"/>
<stop offset="1" stop-color="#C44800"/>
</radialGradient>
<radialGradient id="paint24_radial_2401_7915" cx="0" cy="0" r="1" gradientUnits="userSpaceOnUse" gradientTransform="translate(50.4122 17.3268) rotate(180) scale(15.0748 15.0748)">
<stop stop-color="#FFC600"/>
<stop offset="1" stop-color="#D64F00"/>
</radialGradient>
<radialGradient id="paint25_radial_2401_7915" cx="0" cy="0" r="1" gradientUnits="userSpaceOnUse" gradientTransform="translate(51.8717 19.7847) rotate(180) scale(12.7628 12.7628)">
<stop stop-color="#FFEB68"/>
<stop offset="1" stop-color="#E67D2D"/>
</radialGradient>
<radialGradient id="paint26_radial_2401_7915" cx="0" cy="0" r="1" gradientUnits="userSpaceOnUse" gradientTransform="translate(49.9046 21.0427) rotate(180) scale(11.7973 11.7973)">
<stop stop-color="#FF9900"/>
<stop offset="1" stop-color="#C44800"/>
</radialGradient>
<radialGradient id="paint27_radial_2401_7915" cx="0" cy="0" r="1" gradientUnits="userSpaceOnUse" gradientTransform="translate(48.4541 22.1635) rotate(180) scale(10.8284 10.8284)">
<stop stop-color="#FFC600"/>
<stop offset="1" stop-color="#D64F00"/>
</radialGradient>
<radialGradient id="paint28_radial_2401_7915" cx="0" cy="0" r="1" gradientUnits="userSpaceOnUse" gradientTransform="translate(49.0686 25.3741) rotate(180) scale(9.59188 9.59189)">
<stop stop-color="#FFEB68"/>
<stop offset="1" stop-color="#E67D2D"/>
</radialGradient>
<radialGradient id="paint29_radial_2401_7915" cx="0" cy="0" r="1" gradientUnits="userSpaceOnUse" gradientTransform="translate(48.0801 25.6109) rotate(180) scale(9.25033 9.25036)">
<stop stop-color="#FF9900"/>
<stop offset="1" stop-color="#C44800"/>
</radialGradient>
<radialGradient id="paint30_radial_2401_7915" cx="0" cy="0" r="1" gradientUnits="userSpaceOnUse" gradientTransform="translate(22.3581 10.4765) scale(27.2387 27.2387)">
<stop stop-color="#F7FF12"/>
<stop offset="0.69856" stop-color="#FFAA00"/>
<stop offset="1" stop-color="#A82200"/>
</radialGradient>
<radialGradient id="paint31_radial_2401_7915" cx="0" cy="0" r="1" gradientUnits="userSpaceOnUse" gradientTransform="translate(24.4132 1.50519) scale(43.4276 43.4276)">
<stop stop-color="#FFF8C7"/>
<stop offset="1" stop-color="#FFC521"/>
</radialGradient>
<radialGradient id="paint32_radial_2401_7915" cx="0" cy="0" r="1" gradientUnits="userSpaceOnUse" gradientTransform="translate(29.8272 24.143) scale(23.6309)">
<stop stop-color="#FF9900"/>
<stop offset="1" stop-color="#C44800"/>
</radialGradient>
<radialGradient id="paint33_radial_2401_7915" cx="0" cy="0" r="1" gradientUnits="userSpaceOnUse" gradientTransform="translate(20.6873 26.1233) scale(36.2969 36.2969)">
<stop stop-color="#FFEB68"/>
<stop offset="1" stop-color="#E67D2D"/>
</radialGradient>
<radialGradient id="paint34_radial_2401_7915" cx="0" cy="0" r="1" gradientUnits="userSpaceOnUse" gradientTransform="translate(22.0512 23.5478) scale(33.9158 33.9158)">
<stop stop-color="#FFC600"/>
<stop offset="1" stop-color="#D64F00"/>
</radialGradient>
<radialGradient id="paint35_radial_2401_7915" cx="0" cy="0" r="1" gradientUnits="userSpaceOnUse" gradientTransform="translate(27.3728 17.4273) scale(28.7246 28.7246)">
<stop stop-color="#FFEB68"/>
<stop offset="1" stop-color="#E67D2D"/>
</radialGradient>
<radialGradient id="paint36_radial_2401_7915" cx="0" cy="0" r="1" gradientUnits="userSpaceOnUse" gradientTransform="translate(19.0322 18.1188) scale(32.7706 32.7706)">
<stop stop-color="#FFC600"/>
<stop offset="1" stop-color="#D64F00"/>
</radialGradient>
<radialGradient id="paint37_radial_2401_7915" cx="0" cy="0" r="1" gradientUnits="userSpaceOnUse" gradientTransform="translate(-5.62053 12.4732) scale(30.3687 30.3687)">
<stop stop-color="#FFEB68"/>
<stop offset="1" stop-color="#E67D2D"/>
</radialGradient>
<radialGradient id="paint38_radial_2401_7915" cx="0" cy="0" r="1" gradientUnits="userSpaceOnUse" gradientTransform="translate(36.7008 19.0403) scale(33.4374 33.4373)">
<stop stop-color="#FFC600"/>
<stop offset="1" stop-color="#D64F00"/>
</radialGradient>
<radialGradient id="paint39_radial_2401_7915" cx="0" cy="0" r="1" gradientUnits="userSpaceOnUse" gradientTransform="translate(29.808 12.9964) scale(31.1994 31.1994)">
<stop stop-color="#FFEB68"/>
<stop offset="1" stop-color="#E67D2D"/>
</radialGradient>
<radialGradient id="paint40_radial_2401_7915" cx="0" cy="0" r="1" gradientUnits="userSpaceOnUse" gradientTransform="translate(41.9263 11.4206) scale(38.174 38.174)">
<stop stop-color="#FFC600"/>
<stop offset="1" stop-color="#D64F00"/>
</radialGradient>
<radialGradient id="paint41_radial_2401_7915" cx="0" cy="0" r="1" gradientUnits="userSpaceOnUse" gradientTransform="translate(38.9496 38.1145) scale(27.1643 27.1643)">
<stop stop-color="#FFEB68"/>
<stop offset="1" stop-color="#FFAC6B"/>
</radialGradient>
<radialGradient id="paint42_radial_2401_7915" cx="0" cy="0" r="1" gradientUnits="userSpaceOnUse" gradientTransform="translate(19.8424 11.651) scale(33.2537 33.2537)">
<stop stop-color="#FF9900"/>
<stop offset="1" stop-color="#C44800"/>
</radialGradient>
<radialGradient id="paint43_radial_2401_7915" cx="0" cy="0" r="1" gradientUnits="userSpaceOnUse" gradientTransform="translate(26.8542 33.665) scale(36.141 36.141)">
<stop offset="0.25533" stop-color="white"/>
<stop offset="0.31965" stop-color="#FFF9F4"/>
<stop offset="0.43326" stop-color="#FDE8D6"/>
<stop offset="0.5828" stop-color="#FCCCA6"/>
<stop offset="0.76264" stop-color="#F9A663"/>
<stop offset="0.96612" stop-color="#F6750F"/>
<stop offset="1" stop-color="#F56D00"/>
</radialGradient>
<radialGradient id="paint44_radial_2401_7915" cx="0" cy="0" r="1" gradientUnits="userSpaceOnUse" gradientTransform="translate(26.206 -0.0991798) scale(36.151 36.151)">
<stop stop-color="#FFD58C"/>
<stop offset="0.00186" stop-color="#FFEF8F"/>
<stop offset="1"/>
</radialGradient>
<radialGradient id="paint45_radial_2401_7915" cx="0" cy="0" r="1" gradientUnits="userSpaceOnUse" gradientTransform="translate(11.1056 11.659) scale(17.7564 17.7564)">
<stop stop-color="#FFD58C"/>
<stop offset="0.00186" stop-color="#FFEF8F"/>
<stop offset="1"/>
</radialGradient>
<radialGradient id="paint46_radial_2401_7915" cx="0" cy="0" r="1" gradientUnits="userSpaceOnUse" gradientTransform="translate(27.1158 39.9637) scale(26.7087 26.7087)">
<stop stop-color="#FFD58C"/>
<stop offset="0.00186" stop-color="#FFEF8F"/>
<stop offset="1"/>
</radialGradient>
<radialGradient id="paint47_radial_2401_7915" cx="0" cy="0" r="1" gradientUnits="userSpaceOnUse" gradientTransform="translate(16.6353 2.87164) scale(15.5673 15.5673)">
<stop offset="0.00478" stop-color="#FFF2BB"/>
<stop offset="1"/>
</radialGradient>
<radialGradient id="paint48_radial_2401_7915" cx="0" cy="0" r="1" gradientUnits="userSpaceOnUse" gradientTransform="translate(37.7176 39.5171) scale(14.7341 14.7341)">
<stop stop-color="#FF9700"/>
<stop offset="1"/>
</radialGradient>
<radialGradient id="paint49_radial_2401_7915" cx="0" cy="0" r="1" gradientUnits="userSpaceOnUse" gradientTransform="translate(20.0612 6.74985) scale(15.4481)">
<stop stop-color="#FFC600"/>
<stop offset="1" stop-color="#D64F00"/>
</radialGradient>
<radialGradient id="paint50_radial_2401_7915" cx="0" cy="0" r="1" gradientUnits="userSpaceOnUse" gradientTransform="translate(24.9165 13.2937) scale(13.1623)">
<stop stop-color="#FFEB68"/>
<stop offset="1" stop-color="#E67D2D"/>
</radialGradient>
<radialGradient id="paint51_radial_2401_7915" cx="0" cy="0" r="1" gradientUnits="userSpaceOnUse" gradientTransform="translate(25.0508 13.1822) scale(16.6125)">
<stop stop-color="#FFEB68"/>
<stop offset="1" stop-color="#FFAC6B"/>
</radialGradient>
<radialGradient id="paint52_radial_2401_7915" cx="0" cy="0" r="1" gradientUnits="userSpaceOnUse" gradientTransform="translate(18.0471 11.4623) scale(16.3159)">
<stop stop-color="#FFC600"/>
<stop offset="1" stop-color="#D64F00"/>
</radialGradient>
<radialGradient id="paint53_radial_2401_7915" cx="0" cy="0" r="1" gradientUnits="userSpaceOnUse" gradientTransform="translate(32.4613 9.89961) scale(14.5473 14.5473)">
<stop stop-color="#FFEB68"/>
<stop offset="1" stop-color="#E67D2D"/>
</radialGradient>
<radialGradient id="paint54_radial_2401_7915" cx="0" cy="0" r="1" gradientUnits="userSpaceOnUse" gradientTransform="translate(22.1722 4.43631) scale(19.9099 19.9099)">
<stop stop-color="#FFC600"/>
<stop offset="1" stop-color="#D64F00"/>
</radialGradient>
<radialGradient id="paint55_radial_2401_7915" cx="0" cy="0" r="1" gradientUnits="userSpaceOnUse" gradientTransform="translate(39.7483 23.5748) scale(15.3656 15.3656)">
<stop stop-color="#FFEB68"/>
<stop offset="1" stop-color="#E67D2D"/>
</radialGradient>
<radialGradient id="paint56_radial_2401_7915" cx="0" cy="0" r="1" gradientUnits="userSpaceOnUse" gradientTransform="translate(37.6783 19.0086) scale(17.4469 17.4469)">
<stop stop-color="#FFC600"/>
<stop offset="1" stop-color="#D64F00"/>
</radialGradient>
<radialGradient id="paint57_radial_2401_7915" cx="0" cy="0" r="1" gradientUnits="userSpaceOnUse" gradientTransform="translate(13.0144 16.208) scale(17.7742 17.7742)">
<stop stop-color="#FFC600"/>
<stop offset="1" stop-color="#D64F00"/>
</radialGradient>
<radialGradient id="paint58_radial_2401_7915" cx="0" cy="0" r="1" gradientUnits="userSpaceOnUse" gradientTransform="translate(24.2015 28.5367) scale(10.9692 10.9692)">
<stop stop-color="#FFC600"/>
<stop offset="1" stop-color="#D64F00"/>
</radialGradient>
<radialGradient id="paint59_radial_2401_7915" cx="0" cy="0" r="1" gradientUnits="userSpaceOnUse" gradientTransform="translate(28.3481 18.5173) scale(13.8067 13.8067)">
<stop stop-color="#FFD58C"/>
<stop offset="0.00186" stop-color="#FFEF8F"/>
<stop offset="1"/>
</radialGradient>
<radialGradient id="paint60_radial_2401_7915" cx="0" cy="0" r="1" gradientUnits="userSpaceOnUse" gradientTransform="translate(34.129 14.9821) scale(14.5 14.5)">
<stop stop-color="#FFD58C"/>
<stop offset="0.00186" stop-color="#FFEF8F"/>
<stop offset="1"/>
</radialGradient>
<radialGradient id="paint61_radial_2401_7915" cx="0" cy="0" r="1" gradientUnits="userSpaceOnUse" gradientTransform="translate(19.1638 26.8623) scale(12.4606 12.4606)">
<stop stop-color="#FFD58C"/>
<stop offset="0.00186" stop-color="#FFEF8F"/>
<stop offset="1"/>
</radialGradient>
<clipPath id="clip0_2401_7915">
<rect width="54" height="40" fill="white" transform="translate(0 0.5)"/>
</clipPath>
</defs>
</svg>
