<svg width="30" height="30" viewBox="0 0 30 30" fill="none" xmlns="http://www.w3.org/2000/svg">
<circle cx="15" cy="15" r="15" fill="#FDEB56" fill-opacity="0.15"/>
<path d="M14.168 15.8333H10.0013C9.76519 15.8333 9.56727 15.7534 9.40755 15.5937C9.24783 15.434 9.16797 15.2361 9.16797 15C9.16797 14.7638 9.24783 14.5659 9.40755 14.4062C9.56727 14.2465 9.76519 14.1666 10.0013 14.1666H14.168V9.99996C14.168 9.76385 14.2478 9.56593 14.4076 9.40621C14.5673 9.24649 14.7652 9.16663 15.0013 9.16663C15.2374 9.16663 15.4353 9.24649 15.5951 9.40621C15.7548 9.56593 15.8346 9.76385 15.8346 9.99996V14.1666H20.0013C20.2374 14.1666 20.4353 14.2465 20.5951 14.4062C20.7548 14.5659 20.8346 14.7638 20.8346 15C20.8346 15.2361 20.7548 15.434 20.5951 15.5937C20.4353 15.7534 20.2374 15.8333 20.0013 15.8333H15.8346V20C15.8346 20.2361 15.7548 20.434 15.5951 20.5937C15.4353 20.7534 15.2374 20.8333 15.0013 20.8333C14.7652 20.8333 14.5673 20.7534 14.4076 20.5937C14.2478 20.434 14.168 20.2361 14.168 20V15.8333Z" fill="#FDEB56"/>
</svg>
