<svg width="29" height="28" viewBox="0 0 29 28" fill="none" xmlns="http://www.w3.org/2000/svg">
<g id="Course Icon Inactive">
<g id="Vector">
<path fill-rule="evenodd" clip-rule="evenodd" d="M9 3.80487C9 3.55606 8.73206 3.39934 8.51519 3.52131L4.3037 5.88998C3.48412 6.35093 2.97692 7.21812 2.97692 8.15842V21.2825C2.97692 21.6901 3.37575 21.9782 3.76271 21.8502L4.50651 21.6041L4.97041 23.0063L4.2266 23.2524C2.88391 23.6966 1.5 22.6968 1.5 21.2825V8.15842C1.5 6.68452 2.29503 5.32522 3.57969 4.60269L7.79119 2.23403C8.99257 1.55834 10.4769 2.42651 10.4769 3.80487H9Z" fill="url(#paint0_linear_2462_29496)"/>
<path fill-rule="evenodd" clip-rule="evenodd" d="M14.1728 5.23186C14.1728 4.7831 13.6969 4.49426 13.2988 4.70142L8.91862 6.98085C8.05759 7.42893 7.51745 8.31892 7.51745 9.28956V22.706C7.51745 23.0943 7.88179 23.3796 8.25878 23.2865L9.06141 23.0883L9.41551 24.5221L8.61288 24.7204C7.30477 25.0434 6.04053 24.0534 6.04053 22.706V9.28956C6.04053 7.7681 6.88719 6.37306 8.23683 5.67072L12.617 3.39128C13.9983 2.67246 15.6498 3.67472 15.6498 5.23186V5.26719H14.1728V5.23186Z" fill="url(#paint1_linear_2462_29496)"/>
<path fill-rule="evenodd" clip-rule="evenodd" d="M19.7125 7.63221C19.7125 6.8656 18.9135 6.36071 18.2211 6.6898L13.6539 8.86065C12.7466 9.29187 12.1685 10.2067 12.1685 11.2113V22.9221C12.1685 23.6978 12.9848 24.2023 13.6786 23.8554L19.2588 21.0653C19.5369 20.9263 19.7125 20.6421 19.7125 20.3313V19.0675H21.1894V20.3313C21.1894 21.2015 20.6977 21.9971 19.9193 22.3863L14.3391 25.1764C12.6633 26.0143 10.6916 24.7957 10.6916 22.9221V11.2113C10.6916 9.63668 11.5977 8.20267 13.0198 7.52674L17.5871 5.35589C19.2595 4.561 21.1894 5.78053 21.1894 7.63221V9.32275H19.7125V7.63221Z" fill="url(#paint2_linear_2462_29496)"/>
<path fill-rule="evenodd" clip-rule="evenodd" d="M18.3163 13.475C18.1772 13.4926 18.0213 13.5699 17.9193 13.6719C17.8253 13.7659 17.7196 13.9643 17.7196 14.0467C17.7196 14.0981 17.6901 14.1201 17.6208 14.1201C17.5996 14.1201 17.5286 14.1457 17.463 14.177C17.0746 14.3624 16.9419 14.8288 17.1744 15.1922C17.2739 15.3478 17.3992 15.4367 17.5957 15.491C17.7069 15.5218 17.71 15.5245 17.7228 15.5996C17.7551 15.7891 17.9271 16.0004 18.1209 16.0888C18.4093 16.2203 18.7608 16.1354 18.9575 15.8865C19.029 15.796 19.1088 15.6177 19.1088 15.5483C19.1088 15.5211 19.1281 15.5095 19.1897 15.4993C19.3947 15.4655 19.5977 15.3031 19.6954 15.0948C19.7653 14.9455 19.7687 14.6925 19.7025 14.5483C19.5921 14.3072 19.4214 14.1692 19.1636 14.1125C19.1237 14.1037 19.1114 14.0873 19.1019 14.0299C19.0823 13.9121 19.0063 13.7731 18.9072 13.6741C18.7516 13.5185 18.5389 13.4468 18.3163 13.475ZM22.6002 13.5649C22.4433 13.6382 22.3549 13.795 22.3667 13.9792C22.3757 14.1204 22.4375 14.2264 22.557 14.3054C22.6261 14.3512 22.6547 14.3579 22.7804 14.3578C22.9051 14.3576 22.9354 14.3505 23.0052 14.3053C23.0497 14.2765 23.1094 14.2167 23.1381 14.1722C23.183 14.1026 23.1902 14.0717 23.1906 13.9475C23.1909 13.8217 23.1843 13.7933 23.1384 13.724C23.0565 13.6 22.9531 13.5417 22.8029 13.5347C22.7099 13.5304 22.6571 13.5383 22.6002 13.5649ZM18.3373 13.9117C18.3056 13.9211 18.2545 13.9549 18.2238 13.9869C18.1723 14.0406 18.1673 14.0588 18.1579 14.224C18.1428 14.4909 18.078 14.5544 17.8185 14.5567C17.617 14.5585 17.5102 14.6445 17.5102 14.8052C17.5102 14.9723 17.6163 15.0525 17.8376 15.0526C18.074 15.0528 18.1573 15.1396 18.1573 15.386C18.1573 15.5915 18.2419 15.6997 18.4025 15.6995C18.5835 15.6994 18.6711 15.5907 18.6711 15.3662C18.6711 15.142 18.7336 15.0824 18.9851 15.0671C19.0689 15.0621 19.1611 15.0467 19.1902 15.0329C19.2993 14.9813 19.3522 14.807 19.2938 14.6916C19.2469 14.5988 19.1558 14.5578 18.9966 14.5577C18.7514 14.5576 18.682 14.4868 18.6672 14.2216C18.6581 14.0582 18.6305 13.9912 18.5519 13.9414C18.4924 13.9037 18.4055 13.8917 18.3373 13.9117ZM21.7777 14.4119C21.6121 14.472 21.5009 14.6343 21.5028 14.8135C21.504 14.9339 21.5258 14.9915 21.6035 15.0801C21.701 15.1911 21.7939 15.2291 21.9467 15.2205C22.115 15.211 22.2165 15.1452 22.2917 14.9967C22.3755 14.8316 22.355 14.6693 22.2334 14.5344C22.1128 14.4006 21.9382 14.3537 21.7777 14.4119ZM23.4764 14.4222C23.3232 14.4925 23.2207 14.6461 23.2199 14.8065C23.2193 14.9295 23.3015 15.0842 23.4059 15.1566C23.5155 15.2325 23.7073 15.2478 23.8206 15.1895C23.9708 15.1123 24.0596 14.9733 24.0596 14.8156C24.0596 14.6323 23.982 14.5086 23.819 14.4317C23.704 14.3775 23.5813 14.3741 23.4764 14.4222ZM22.6481 15.2721C22.4845 15.3225 22.3639 15.4917 22.3639 15.6711C22.3639 16.0289 22.7777 16.2218 23.0483 15.9901C23.147 15.9056 23.1995 15.7967 23.2 15.6752C23.2009 15.4922 23.0771 15.3213 22.9071 15.2709C22.7941 15.2373 22.7604 15.2375 22.6481 15.2721ZM15.6562 11.9844C16.1828 11.0078 17.2559 10.6123 18.2298 10.734L20.7888 11.0539C20.9039 11.0683 21.0205 11.0659 21.1349 11.0468L22.8321 10.7639C23.702 10.619 24.6795 10.8799 25.2916 11.6586C26.6379 13.3713 27.0774 15.199 27.1047 16.6842C27.1216 17.6088 26.6147 18.3164 25.9018 18.6597C25.215 18.9905 24.3707 18.9742 23.634 18.6059L22.8175 18.1976C22.7391 18.1584 22.6568 18.128 22.5718 18.1067L21.2699 17.7812C21.0788 17.7335 20.8789 17.7335 20.6878 17.7812L19.3858 18.1067C19.3009 18.128 19.2185 18.1584 19.1402 18.1976L18.0289 18.7533C17.3696 19.0829 16.6035 19.1362 15.9451 18.8939C15.2648 18.6434 14.7017 18.0701 14.5735 17.2254C14.2703 15.2273 14.9593 13.2764 15.6562 11.9844ZM20.5903 12.6415L24.2292 13.064L21.6692 12.7668C21.6692 12.7668 20.8589 12.6751 20.5903 12.6415Z" fill="url(#paint3_linear_2462_29496)"/>
</g>
</g>
<defs>
<linearGradient id="paint0_linear_2462_29496" x1="1.5" y1="2" x2="29.1203" y2="4.68055" gradientUnits="userSpaceOnUse">
<stop stop-color="#F71756"/>
<stop offset="1" stop-color="#FDEB56"/>
</linearGradient>
<linearGradient id="paint1_linear_2462_29496" x1="1.5" y1="2" x2="29.1203" y2="4.68055" gradientUnits="userSpaceOnUse">
<stop stop-color="#F71756"/>
<stop offset="1" stop-color="#FDEB56"/>
</linearGradient>
<linearGradient id="paint2_linear_2462_29496" x1="1.5" y1="2" x2="29.1203" y2="4.68055" gradientUnits="userSpaceOnUse">
<stop stop-color="#F71756"/>
<stop offset="1" stop-color="#FDEB56"/>
</linearGradient>
<linearGradient id="paint3_linear_2462_29496" x1="1.5" y1="2" x2="29.1203" y2="4.68055" gradientUnits="userSpaceOnUse">
<stop stop-color="#F71756"/>
<stop offset="1" stop-color="#FDEB56"/>
</linearGradient>
</defs>
</svg>
