<svg width="29" height="28" viewBox="0 0 29 28" fill="none" xmlns="http://www.w3.org/2000/svg">
<path fill-rule="evenodd" clip-rule="evenodd" d="M9 3.80487C9 3.55606 8.73206 3.39934 8.51519 3.52131L4.3037 5.88998C3.48412 6.35093 2.97692 7.21812 2.97692 8.15842V21.2825C2.97692 21.6901 3.37575 21.9782 3.76271 21.8502L4.50651 21.6041L4.97041 23.0063L4.2266 23.2524C2.88391 23.6966 1.5 22.6968 1.5 21.2825V8.15842C1.5 6.68452 2.29503 5.32522 3.57969 4.60269L7.79119 2.23403C8.99257 1.55834 10.4769 2.42651 10.4769 3.80487H9Z" fill="#A99FAC"/>
<path fill-rule="evenodd" clip-rule="evenodd" d="M14.1728 5.23186C14.1728 4.7831 13.6969 4.49426 13.2988 4.70142L8.91862 6.98085C8.05759 7.42893 7.51745 8.31892 7.51745 9.28956V22.706C7.51745 23.0943 7.88179 23.3796 8.25878 23.2865L9.06141 23.0883L9.41551 24.5221L8.61288 24.7204C7.30477 25.0434 6.04053 24.0534 6.04053 22.706V9.28956C6.04053 7.7681 6.88719 6.37306 8.23683 5.67072L12.617 3.39128C13.9983 2.67246 15.6498 3.67472 15.6498 5.23186V5.26719H14.1728V5.23186Z" fill="#A99FAC"/>
<path fill-rule="evenodd" clip-rule="evenodd" d="M19.7125 7.63221C19.7125 6.8656 18.9135 6.36071 18.2211 6.6898L13.6539 8.86065C12.7466 9.29187 12.1685 10.2067 12.1685 11.2113V22.9221C12.1685 23.6978 12.9848 24.2023 13.6786 23.8554L19.2588 21.0653C19.5369 20.9263 19.7125 20.6421 19.7125 20.3313V19.0675H21.1894V20.3313C21.1894 21.2015 20.6977 21.9971 19.9193 22.3863L14.3391 25.1764C12.6633 26.0143 10.6916 24.7957 10.6916 22.9221V11.2113C10.6916 9.63668 11.5977 8.20267 13.0198 7.52674L17.5871 5.35589C19.2595 4.561 21.1894 5.78053 21.1894 7.63221V9.32275H19.7125V7.63221Z" fill="#A99FAC"/>
<path fill-rule="evenodd" clip-rule="evenodd" d="M18.0546 13.2798C17.9154 13.2974 17.7596 13.3747 17.6576 13.4767C17.5636 13.5707 17.4579 13.7691 17.4579 13.8515C17.4578 13.9029 17.4283 13.9249 17.3591 13.9249C17.3379 13.9249 17.2669 13.9505 17.2013 13.9818C16.8129 14.1672 16.6802 14.6336 16.9127 14.997C17.0122 15.1526 17.1375 15.2415 17.3339 15.2958C17.4452 15.3266 17.4482 15.3293 17.4611 15.4044C17.4934 15.5939 17.6654 15.8052 17.8591 15.8936C18.1476 16.0251 18.499 15.9402 18.6958 15.6913C18.7673 15.6008 18.8471 15.4225 18.8471 15.3531C18.8471 15.3259 18.8663 15.3143 18.928 15.3041C19.133 15.2703 19.336 15.1079 19.4336 14.8996C19.5036 14.7503 19.5069 14.4973 19.4408 14.3531C19.3304 14.112 19.1596 13.974 18.9019 13.9173C18.862 13.9085 18.8497 13.8921 18.8402 13.8347C18.8206 13.7169 18.7446 13.5779 18.6455 13.4789C18.4899 13.3233 18.2772 13.2516 18.0546 13.2798ZM22.3385 13.3697C22.1816 13.443 22.0932 13.5998 22.1049 13.784C22.1139 13.9252 22.1758 14.0312 22.2952 14.1102C22.3644 14.156 22.393 14.1627 22.5187 14.1626C22.6434 14.1624 22.6737 14.1553 22.7435 14.1101C22.7879 14.0813 22.8477 14.0215 22.8764 13.977C22.9213 13.9074 22.9285 13.8765 22.9288 13.7523C22.9292 13.6265 22.9225 13.5981 22.8767 13.5288C22.7947 13.4048 22.6914 13.3465 22.5412 13.3395C22.4482 13.3352 22.3953 13.3431 22.3385 13.3697ZM18.0756 13.7165C18.0438 13.7259 17.9928 13.7597 17.9621 13.7917C17.9106 13.8454 17.9056 13.8636 17.8962 14.0288C17.881 14.2957 17.8163 14.3592 17.5568 14.3615C17.3553 14.3633 17.2485 14.4493 17.2485 14.61C17.2485 14.7771 17.3546 14.8573 17.5758 14.8574C17.8123 14.8576 17.8956 14.9444 17.8956 15.1908C17.8956 15.3963 17.9801 15.5045 18.1408 15.5043C18.3218 15.5042 18.4094 15.3955 18.4094 15.171C18.4094 14.9468 18.4719 14.8872 18.7234 14.8719C18.8071 14.8669 18.8994 14.8515 18.9285 14.8377C19.0376 14.7861 19.0905 14.6118 19.0321 14.4964C18.9852 14.4036 18.8941 14.3626 18.7349 14.3625C18.4896 14.3624 18.4203 14.2916 18.4055 14.0264C18.3964 13.863 18.3688 13.796 18.2902 13.7462C18.2307 13.7085 18.1437 13.6965 18.0756 13.7165ZM21.516 14.2167C21.3504 14.2768 21.2392 14.4391 21.241 14.6183C21.2423 14.7387 21.2641 14.7963 21.3418 14.8849C21.4393 14.9959 21.5322 15.0339 21.685 15.0253C21.8533 15.0158 21.9548 14.95 22.03 14.8015C22.1137 14.6364 22.0932 14.4741 21.9717 14.3392C21.8511 14.2054 21.6764 14.1585 21.516 14.2167ZM23.2147 14.227C23.0615 14.2973 22.959 14.4509 22.9582 14.6113C22.9576 14.7343 23.0398 14.889 23.1441 14.9614C23.2538 15.0373 23.4456 15.0526 23.5589 14.9943C23.709 14.9171 23.7979 14.7781 23.7979 14.6204C23.7979 14.4372 23.7203 14.3134 23.5572 14.2365C23.4423 14.1823 23.3196 14.1789 23.2147 14.227ZM22.3864 15.0769C22.2227 15.1273 22.1022 15.2965 22.1022 15.4759C22.1022 15.8337 22.516 16.0266 22.7866 15.7949C22.8853 15.7104 22.9378 15.6015 22.9383 15.48C22.9392 15.297 22.8153 15.1261 22.6454 15.0757C22.5324 15.0421 22.4987 15.0423 22.3864 15.0769Z" fill="#A99FAC"/>
<path fill-rule="evenodd" clip-rule="evenodd" d="M15.3944 12.0768C15.9211 11.1002 16.9942 10.7047 17.968 10.8264L20.5271 11.1463C20.6422 11.1607 20.7588 11.1583 20.8732 11.1392L22.5704 10.8564C23.4403 10.7114 24.4178 10.9724 25.0299 11.751C26.3762 13.4637 26.8157 15.2914 26.8429 16.7766C26.8599 17.7012 26.353 18.4089 25.6401 18.7521C24.9533 19.0829 24.109 19.0666 23.3723 18.6983L22.5557 18.29C22.4774 18.2508 22.3951 18.2204 22.3101 18.1991L21.0082 17.8737C20.8171 17.8259 20.6172 17.8259 20.4261 17.8736L19.1241 18.1991C19.0392 18.2204 18.9568 18.2508 18.8785 18.29L17.7672 18.8457C17.1078 19.1753 16.3418 19.2286 15.6834 18.9863C15.0031 18.7359 14.4399 18.1625 14.3118 17.3178C14.0086 15.3197 14.6976 13.3689 15.3944 12.0768ZM17.7696 12.4141C17.3191 12.3577 16.9574 12.5495 16.8027 12.8363C16.1888 13.9745 15.6635 15.5611 15.8936 17.0777C15.9247 17.2824 16.0402 17.4126 16.2361 17.4848C16.4539 17.5649 16.7615 17.5596 17.0516 17.4146L18.1629 16.8589C18.3457 16.7676 18.5378 16.6965 18.7361 16.6469L20.0381 16.3214C20.4839 16.21 20.9504 16.21 21.3962 16.3214L22.6982 16.6469C22.8964 16.6965 23.0885 16.7675 23.2713 16.8589L24.0879 17.2672C24.4133 17.4299 24.7363 17.4115 24.9459 17.3106C25.1295 17.2222 25.248 17.0686 25.2432 16.806C25.2213 15.6119 24.8699 14.1365 23.772 12.7398C23.5857 12.5029 23.2378 12.3672 22.8334 12.4346L21.1362 12.7175C20.8692 12.762 20.5972 12.7675 20.3286 12.7339L17.7696 12.4141Z" fill="#A99FAC"/>
</svg>
