<svg width="20" height="20" viewBox="0 0 20 20" fill="none" xmlns="http://www.w3.org/2000/svg">
<g id="Iconly/Bold/Game">
<g id="Game">
<path id="Game_2" fill-rule="evenodd" clip-rule="evenodd" d="M12.6341 5.06909C12.8966 5.07269 13.1598 5.0763 13.424 5.079C16.2617 5.079 18.3307 7.10212 18.3307 9.89596V13.4846C18.3307 16.2784 16.2617 18.3015 13.424 18.3015C12.2872 18.3256 11.1505 18.3337 10.0056 18.3337C8.86066 18.3337 7.70757 18.3256 6.57083 18.3015C3.73308 18.3015 1.66406 16.2784 1.66406 13.4846V9.89596C1.66406 7.10212 3.73308 5.079 6.57901 5.079C7.65032 5.06295 8.74617 5.04689 9.85837 5.04689V4.91041C9.85837 4.35646 9.39223 3.90688 8.83613 3.90688H8.02651C7.1024 3.90688 6.35003 3.16828 6.35003 2.26911C6.35003 1.93995 6.62808 1.66699 6.96338 1.66699C7.30685 1.66699 7.57672 1.93995 7.57672 2.26911C7.57672 2.50996 7.78117 2.70264 8.02651 2.70264H8.83613C10.071 2.71067 11.0769 3.69814 11.0851 4.90238V5.05492C11.6006 5.05492 12.1161 5.06199 12.6341 5.06909ZM9.04215 12.2884H8.18347V13.1394C8.18347 13.4685 7.90541 13.7415 7.57012 13.7415C7.22664 13.7415 6.95677 13.4685 6.95677 13.1394V12.2884H6.08991C5.75461 12.2884 5.47656 12.0234 5.47656 11.6862C5.47656 11.3571 5.75461 11.0841 6.08991 11.0841H6.95677V10.2412C6.95677 9.912 7.22664 9.63904 7.57012 9.63904C7.90541 9.63904 8.18347 9.912 8.18347 10.2412V11.0841H9.04215C9.37745 11.0841 9.6555 11.3571 9.6555 11.6862C9.6555 12.0234 9.37745 12.2884 9.04215 12.2884ZM12.5196 10.9316H12.6014C12.9367 10.9316 13.2147 10.6667 13.2147 10.3295C13.2147 10.0003 12.9367 9.72736 12.6014 9.72736H12.5196C12.1761 9.72736 11.9062 10.0003 11.9062 10.3295C11.9062 10.6667 12.1761 10.9316 12.5196 10.9316ZM13.918 13.6933H13.9998C14.3351 13.6933 14.6132 13.4284 14.6132 13.0912C14.6132 12.762 14.3351 12.4891 13.9998 12.4891H13.918C13.5737 12.4891 13.3047 12.762 13.3047 13.0912C13.3047 13.4284 13.5737 13.6933 13.918 13.6933Z" fill="#948798"/>
</g>
</g>
</svg>
