<svg width="24" height="24" viewBox="0 0 24 24" fill="none" xmlns="http://www.w3.org/2000/svg">
<path d="M7.68188 1.44C4.50428 1.44 1.92188 4.0224 1.92188 7.2V16.8C1.92188 19.9776 4.50428 22.56 7.68188 22.56H17.2819C20.4595 22.56 23.0419 19.9776 23.0419 16.8V7.2C23.0419 4.0224 20.4595 1.44 17.2819 1.44H7.68188ZM6.05906 8.67375C6.39506 8.67375 6.645 8.91383 6.645 9.23063C6.645 9.54263 6.39506 9.78281 6.05906 9.78281C5.71826 9.78281 5.46938 9.54263 5.46938 9.23063C5.46938 8.91383 5.71826 8.67375 6.05906 8.67375ZM11.0606 8.9475C12.8126 8.9475 13.8928 10.1709 13.8928 12.1341C13.8928 14.0925 12.8222 15.3263 11.0606 15.3263C9.28943 15.3263 8.21438 14.0973 8.21438 12.1341C8.21438 10.1661 9.31343 8.9475 11.0606 8.9475ZM17.2678 8.9475C18.5014 8.9475 19.403 9.66687 19.4606 10.6941H18.5391C18.4479 10.1325 17.9632 9.78281 17.2528 9.78281C16.504 9.78281 16.0097 10.1374 16.0097 10.6894C16.0097 11.1214 16.3266 11.3712 17.1234 11.5584L17.7909 11.7216C19.0437 12.0144 19.5572 12.5185 19.5572 13.4353C19.5572 14.6017 18.6545 15.3309 17.2097 15.3309C15.8609 15.3309 14.9538 14.6355 14.8866 13.5459H15.8231C15.9047 14.1219 16.4707 14.4909 17.2819 14.4909C18.0403 14.4909 18.5972 14.0977 18.5972 13.5553C18.5972 13.0945 18.2467 12.8164 17.4403 12.6244L16.6528 12.4369C15.5536 12.1777 15.0497 11.645 15.0497 10.7522C15.0497 9.66739 15.9382 8.9475 17.2678 8.9475ZM11.0606 9.82594C9.91343 9.82594 9.18469 10.7229 9.18469 12.1341C9.18469 13.5405 9.88943 14.4478 11.0606 14.4478C12.2174 14.4478 12.9281 13.5405 12.9281 12.1341C12.9281 10.7229 12.2174 9.82594 11.0606 9.82594ZM5.60813 10.5891H6.51094V15.1828H5.60813V10.5891Z" fill="#948798"/>
</svg>
