<svg width="20" height="20" viewBox="0 0 20 20" fill="none" xmlns="http://www.w3.org/2000/svg">
<path d="M6.28644 12.3846C5.76829 11.8867 5.38528 11.2972 5.13742 10.6161C4.88956 9.93506 4.76563 9.27722 4.76563 8.6426C4.76563 8.00799 4.88956 7.35015 5.13742 6.66906C5.38528 5.98797 5.76829 5.39849 6.28644 4.90062L6.87138 5.47754C6.4686 5.88567 6.15449 6.38112 5.92906 6.96392C5.70363 7.54672 5.59092 8.10628 5.59092 8.6426C5.59092 9.14474 5.70443 9.69015 5.93146 10.2788C6.1585 10.8675 6.47181 11.3744 6.87138 11.7996L6.28644 12.3846ZM15.671 14.2852L15.0941 13.7083C15.78 13.0224 16.3051 12.2254 16.6694 11.3173C17.0338 10.4092 17.2159 9.5176 17.2159 8.6426C17.2159 7.7676 17.0338 6.87605 16.6694 5.96794C16.3051 5.05981 15.78 4.2628 15.0941 3.5769L15.671 3C16.4776 3.78418 17.0743 4.67173 17.4611 5.66264C17.8478 6.65356 18.0412 7.64688 18.0412 8.6426C18.0412 9.64687 17.8569 10.6423 17.4883 11.629C17.1197 12.6156 16.514 13.501 15.671 14.2852ZM4.38581 14.2852C3.57384 13.501 2.97581 12.6135 2.59173 11.6226C2.20766 10.6316 2.01562 9.63833 2.01562 8.6426C2.01562 7.64688 2.20766 6.65356 2.59173 5.66264C2.97581 4.67173 3.57384 3.78418 4.38581 3L4.96271 3.5769C4.26293 4.2628 3.73435 5.05981 3.37698 5.96794C3.0196 6.87605 2.84092 7.7676 2.84092 8.6426C2.84092 9.5176 3.0196 10.4092 3.37698 11.3173C3.73435 12.2254 4.26293 13.0224 4.96271 13.7083L4.38581 14.2852ZM13.7704 12.3846L13.1935 11.7996C13.5909 11.3969 13.9023 10.9041 14.1278 10.3213C14.3532 9.73849 14.4659 9.17892 14.4659 8.6426C14.4659 8.15649 14.3497 7.61643 14.1174 7.02242C13.885 6.4284 13.577 5.91344 13.1935 5.47754L13.7704 4.90062C14.28 5.39849 14.6622 5.99063 14.917 6.67706C15.1718 7.36349 15.2966 8.02135 15.2912 8.65062C15.2912 9.27668 15.1665 9.93106 14.917 10.6137C14.6676 11.2964 14.2853 11.8867 13.7704 12.3846ZM6.52204 17.9535L9.11656 10.0929C8.86977 9.94228 8.67613 9.73902 8.53565 9.48315C8.39515 9.22727 8.3249 8.94709 8.3249 8.6426C8.3249 8.16824 8.49023 7.76574 8.8209 7.43508C9.15155 7.10442 9.55406 6.93908 10.0284 6.93908C10.5028 6.93908 10.9053 7.10442 11.2359 7.43508C11.5666 7.76574 11.7319 8.16824 11.7319 8.6426C11.7319 8.94709 11.663 9.22594 11.5252 9.47915C11.3874 9.73234 11.1924 9.93693 10.9403 10.0929L13.5348 17.9535H12.5861L11.998 16.1345H8.07169L7.47875 17.9535H6.52204ZM8.37938 15.1891H11.6775L10.0284 10.1586L8.37938 15.1891Z" fill="#7E6E83"/>
</svg>
