<svg width="148" height="28" viewBox="0 0 148 28" fill="none" xmlns="http://www.w3.org/2000/svg">
<rect width="148" height="28" rx="14" fill="#8EC9ED" fill-opacity="0.15"/>
<path d="M14.0209 14.0208L17.25 17.2499C17.4028 17.4027 17.4792 17.5971 17.4792 17.8333C17.4792 18.0694 17.4028 18.2638 17.25 18.4166C17.0973 18.5694 16.9028 18.6458 16.6667 18.6458C16.4306 18.6458 16.2362 18.5694 16.0834 18.4166L12.25 14.5833C12.1667 14.4999 12.1077 14.4096 12.073 14.3124C12.0382 14.2152 12.0209 14.111 12.0209 13.9999C12.0209 13.8888 12.0382 13.7846 12.073 13.6874C12.1077 13.5902 12.1667 13.4999 12.25 13.4166L16.0834 9.58325C16.25 9.41659 16.448 9.33325 16.6771 9.33325C16.9063 9.33325 17.1042 9.41659 17.2709 9.58325C17.4375 9.74992 17.5209 9.94784 17.5209 10.177C17.5209 10.4062 17.4375 10.6041 17.2709 10.7708L14.0209 14.0208ZM25.9792 13.9791L22.75 10.7499C22.5973 10.5971 22.5209 10.4027 22.5209 10.1666C22.5209 9.93047 22.5973 9.73603 22.75 9.58325C22.9028 9.43047 23.0973 9.35409 23.3334 9.35409C23.5695 9.35409 23.7639 9.43047 23.9167 9.58325L27.75 13.4166C27.8334 13.4999 27.8924 13.5902 27.9271 13.6874C27.9618 13.7846 27.9792 13.8888 27.9792 13.9999C27.9792 14.111 27.9618 14.2152 27.9271 14.3124C27.8924 14.4096 27.8334 14.4999 27.75 14.5833L23.9167 18.4166C23.75 18.5833 23.5556 18.6631 23.3334 18.6562C23.1112 18.6492 22.9167 18.5624 22.75 18.3958C22.5834 18.2291 22.5 18.0312 22.5 17.802C22.5 17.5728 22.5834 17.3749 22.75 17.2083L25.9792 13.9791Z" fill="#8EC9ED"/>
<path d="M49.252 16.744C48.5707 17.3693 47.6887 17.682 46.606 17.682C45.5233 17.682 44.6367 17.3693 43.946 16.744C43.2647 16.1093 42.924 15.2647 42.924 14.21V7.7H44.226V14.154C44.226 14.8447 44.4313 15.3953 44.842 15.806C45.2527 16.2073 45.8407 16.408 46.606 16.408C47.3713 16.408 47.9593 16.2073 48.37 15.806C48.7807 15.3953 48.986 14.8447 48.986 14.154V7.7H50.274V14.21C50.274 15.2647 49.9333 16.1093 49.252 16.744ZM55.6248 10.318C56.4462 10.318 57.1042 10.5793 57.5988 11.102C58.0935 11.6153 58.3408 12.3153 58.3408 13.202V17.5H57.1228V13.272C57.1228 12.7027 56.9688 12.264 56.6608 11.956C56.3528 11.6387 55.9282 11.48 55.3868 11.48C54.7802 11.48 54.2902 11.6713 53.9168 12.054C53.5435 12.4273 53.3568 13.006 53.3568 13.79V17.5H52.1388V10.5H53.3568V11.508C53.8515 10.7147 54.6075 10.318 55.6248 10.318ZM65.8372 7.7H67.0552V17.5H65.8372V16.296C65.2305 17.22 64.3485 17.682 63.1912 17.682C62.2112 17.682 61.3759 17.3273 60.6852 16.618C59.9945 15.8993 59.6492 15.0267 59.6492 14C59.6492 12.9733 59.9945 12.1053 60.6852 11.396C61.3759 10.6773 62.2112 10.318 63.1912 10.318C64.3485 10.318 65.2305 10.78 65.8372 11.704V7.7ZM63.3452 16.506C64.0545 16.506 64.6472 16.268 65.1232 15.792C65.5992 15.3067 65.8372 14.7093 65.8372 14C65.8372 13.2907 65.5992 12.698 65.1232 12.222C64.6472 11.7367 64.0545 11.494 63.3452 11.494C62.6452 11.494 62.0572 11.7367 61.5812 12.222C61.1052 12.698 60.8672 13.2907 60.8672 14C60.8672 14.7093 61.1052 15.3067 61.5812 15.792C62.0572 16.268 62.6452 16.506 63.3452 16.506ZM69.7546 14.56C69.8759 15.1853 70.1606 15.6707 70.6086 16.016C71.0659 16.3613 71.6259 16.534 72.2886 16.534C73.2126 16.534 73.8846 16.1933 74.3046 15.512L75.3406 16.1C74.6592 17.1547 73.6326 17.682 72.2606 17.682C71.1499 17.682 70.2446 17.3367 69.5446 16.646C68.8539 15.946 68.5086 15.064 68.5086 14C68.5086 12.9453 68.8492 12.068 69.5306 11.368C70.2119 10.668 71.0939 10.318 72.1766 10.318C73.2032 10.318 74.0386 10.682 74.6826 11.41C75.3359 12.1287 75.6626 12.9967 75.6626 14.014C75.6626 14.1913 75.6486 14.3733 75.6206 14.56H69.7546ZM72.1766 11.466C71.5232 11.466 70.9819 11.6527 70.5526 12.026C70.1232 12.39 69.8572 12.88 69.7546 13.496H74.4306C74.3279 12.8333 74.0666 12.3293 73.6466 11.984C73.2266 11.6387 72.7366 11.466 72.1766 11.466ZM78.2807 11.676C78.682 10.808 79.41 10.374 80.4647 10.374V11.648C79.8673 11.62 79.354 11.7787 78.9247 12.124C78.4953 12.4693 78.2807 13.0247 78.2807 13.79V17.5H77.0627V10.5H78.2807V11.676ZM89.1044 7.7C90.4391 7.7 91.5451 8.176 92.4224 9.128C93.3091 10.0707 93.7524 11.228 93.7524 12.6C93.7524 13.972 93.3091 15.134 92.4224 16.086C91.5451 17.0287 90.4391 17.5 89.1044 17.5H85.2824V7.7H89.1044ZM89.1044 16.268C90.1031 16.268 90.9198 15.918 91.5544 15.218C92.1891 14.518 92.5064 13.6453 92.5064 12.6C92.5064 11.5547 92.1891 10.682 91.5544 9.982C90.9198 9.282 90.1031 8.932 89.1044 8.932H86.5844V16.268H89.1044ZM96.0593 14.56C96.1806 15.1853 96.4653 15.6707 96.9133 16.016C97.3706 16.3613 97.9306 16.534 98.5933 16.534C99.5173 16.534 100.189 16.1933 100.609 15.512L101.645 16.1C100.964 17.1547 99.9373 17.682 98.5653 17.682C97.4546 17.682 96.5493 17.3367 95.8493 16.646C95.1586 15.946 94.8133 15.064 94.8133 14C94.8133 12.9453 95.1539 12.068 95.8353 11.368C96.5166 10.668 97.3986 10.318 98.4813 10.318C99.5079 10.318 100.343 10.682 100.987 11.41C101.641 12.1287 101.967 12.9967 101.967 14.014C101.967 14.1913 101.953 14.3733 101.925 14.56H96.0593ZM98.4813 11.466C97.8279 11.466 97.2866 11.6527 96.8573 12.026C96.4279 12.39 96.1619 12.88 96.0593 13.496H100.735C100.633 12.8333 100.371 12.3293 99.9513 11.984C99.5313 11.6387 99.0413 11.466 98.4813 11.466ZM107.994 10.5H109.31L106.51 17.5H105.082L102.282 10.5H103.598L105.796 16.198L107.994 10.5ZM110.921 14.56C111.042 15.1853 111.327 15.6707 111.775 16.016C112.232 16.3613 112.792 16.534 113.455 16.534C114.379 16.534 115.051 16.1933 115.471 15.512L116.507 16.1C115.825 17.1547 114.799 17.682 113.427 17.682C112.316 17.682 111.411 17.3367 110.711 16.646C110.02 15.946 109.675 15.064 109.675 14C109.675 12.9453 110.015 12.068 110.697 11.368C111.378 10.668 112.26 10.318 113.343 10.318C114.369 10.318 115.205 10.682 115.849 11.41C116.502 12.1287 116.829 12.9967 116.829 14.014C116.829 14.1913 116.815 14.3733 116.787 14.56H110.921ZM113.343 11.466C112.689 11.466 112.148 11.6527 111.719 12.026C111.289 12.39 111.023 12.88 110.921 13.496H115.597C115.494 12.8333 115.233 12.3293 114.813 11.984C114.393 11.6387 113.903 11.466 113.343 11.466ZM118.229 17.5V7.28H119.447V17.5H118.229ZM127.213 16.618C126.494 17.3273 125.622 17.682 124.595 17.682C123.568 17.682 122.696 17.3273 121.977 16.618C121.268 15.9087 120.913 15.036 120.913 14C120.913 12.964 121.268 12.0913 121.977 11.382C122.696 10.6727 123.568 10.318 124.595 10.318C125.622 10.318 126.494 10.6727 127.213 11.382C127.932 12.0913 128.291 12.964 128.291 14C128.291 15.036 127.932 15.9087 127.213 16.618ZM124.595 16.492C125.295 16.492 125.883 16.254 126.359 15.778C126.835 15.302 127.073 14.7093 127.073 14C127.073 13.2907 126.835 12.698 126.359 12.222C125.883 11.746 125.295 11.508 124.595 11.508C123.904 11.508 123.321 11.746 122.845 12.222C122.369 12.698 122.131 13.2907 122.131 14C122.131 14.7093 122.369 15.302 122.845 15.778C123.321 16.254 123.904 16.492 124.595 16.492ZM133.591 10.318C134.571 10.318 135.406 10.6773 136.097 11.396C136.787 12.1053 137.133 12.9733 137.133 14C137.133 15.0267 136.787 15.8993 136.097 16.618C135.406 17.3273 134.571 17.682 133.591 17.682C132.433 17.682 131.551 17.22 130.945 16.296V20.3H129.727V10.5H130.945V11.704C131.551 10.78 132.433 10.318 133.591 10.318ZM133.437 16.506C134.137 16.506 134.725 16.268 135.201 15.792C135.677 15.3067 135.915 14.7093 135.915 14C135.915 13.2907 135.677 12.698 135.201 12.222C134.725 11.7367 134.137 11.494 133.437 11.494C132.727 11.494 132.135 11.7367 131.659 12.222C131.183 12.698 130.945 13.2907 130.945 14C130.945 14.7093 131.183 15.3067 131.659 15.792C132.135 16.268 132.727 16.506 133.437 16.506Z" fill="#8EC9ED"/>
</svg>
