<svg width="24" height="24" viewBox="0 0 24 24" fill="none" xmlns="http://www.w3.org/2000/svg">
<g clip-path="url(#clip0_179_4977)">
<path d="M7.81344 0.0150056C7.75156 0.0262556 7.68781 0.0375056 7.63344 0.0750056C7.41406 0.223131 7.36531 0.530631 7.51344 0.750006L8.54844 2.29501C6.94906 3.14251 5.75656 4.55063 5.36844 6.24001H18.6284C18.2403 4.55063 17.0478 3.14251 15.4484 2.29501L16.4834 0.750006C16.6316 0.530631 16.5828 0.223131 16.3634 0.0750056C16.1422 -0.0731195 15.8366 -0.00936944 15.6884 0.210006L14.5484 1.89001C13.7572 1.60126 12.8984 1.44001 11.9984 1.44001C11.0984 1.44001 10.2397 1.60126 9.44844 1.89001L8.30844 0.210006C8.19781 0.0450056 7.99719 -0.0206194 7.81344 0.0150056ZM9.35844 3.84001C9.75594 3.84001 10.0784 4.16251 10.0784 4.56001C10.0784 4.95938 9.75594 5.28001 9.35844 5.28001C8.95906 5.28001 8.63844 4.95938 8.63844 4.56001C8.63844 4.16251 8.95906 3.84001 9.35844 3.84001ZM14.6384 3.84001C15.0378 3.84001 15.3584 4.16251 15.3584 4.56001C15.3584 4.95938 15.0378 5.28001 14.6384 5.28001C14.2409 5.28001 13.9184 4.95938 13.9184 4.56001C13.9184 4.16251 14.2409 3.84001 14.6384 3.84001ZM3.83844 7.20001C3.04344 7.20001 2.39844 7.84501 2.39844 8.64001V15.36C2.39844 16.155 3.04344 16.8 3.83844 16.8C4.00719 16.8 4.16844 16.7644 4.31844 16.71V7.29001C4.16844 7.23563 4.00719 7.20001 3.83844 7.20001ZM5.27844 7.20001V17.76C5.27844 18.5531 5.92531 19.2 6.71844 19.2H17.2784C18.0716 19.2 18.7184 18.5531 18.7184 17.76V7.20001H5.27844ZM20.1584 7.20001C19.9897 7.20001 19.8284 7.23563 19.6784 7.29001V16.71C19.8284 16.7625 19.9897 16.8 20.1584 16.8C20.9534 16.8 21.5984 16.155 21.5984 15.36V8.64001C21.5984 7.84501 20.9534 7.20001 20.1584 7.20001ZM7.19844 20.16V22.08C7.19844 23.1394 8.05906 24 9.11844 24C10.1778 24 11.0384 23.1394 11.0384 22.08V20.16H7.19844ZM12.9584 20.16V22.08C12.9584 23.1394 13.8191 24 14.8784 24C15.9378 24 16.7984 23.1394 16.7984 22.08V20.16H12.9584Z" fill="#948798"/>
</g>
<defs>
<clipPath id="clip0_179_4977">
<rect width="24" height="24" fill="white"/>
</clipPath>
</defs>
</svg>
