<svg width="83" height="28" viewBox="0 0 83 28" fill="none" xmlns="http://www.w3.org/2000/svg">
<rect width="83" height="28" rx="14" fill="#FDEB56" fill-opacity="0.15"/>
<path fill-rule="evenodd" clip-rule="evenodd" d="M26.4675 14.0008C26.4675 14.6787 27.0241 15.2303 27.7083 15.2303C28.0533 15.2303 28.3333 15.5078 28.3333 15.8496V18.0799C28.3333 19.9658 26.785 21.5 24.8816 21.5H15.1191C13.2158 21.5 11.6666 19.9658 11.6666 18.0799V15.8496C11.6666 15.5078 11.9466 15.2303 12.2916 15.2303C12.9766 15.2303 13.5333 14.6787 13.5333 14.0008C13.5333 13.3403 12.9991 12.8432 12.2916 12.8432C12.1258 12.8432 11.9675 12.7779 11.85 12.6615C11.7325 12.5451 11.6666 12.3874 11.6666 12.2239L11.6683 9.92095C11.6683 8.03501 13.2166 6.5 15.12 6.5H24.88C26.7833 6.5 28.3325 8.03501 28.3325 9.92095L28.3333 12.152C28.3333 12.3155 28.2675 12.4741 28.1508 12.5897C28.0333 12.7061 27.875 12.7713 27.7083 12.7713C27.0241 12.7713 26.4675 13.3229 26.4675 14.0008ZM21.8766 14.54L22.8591 13.5921C23.03 13.4286 23.0891 13.1875 23.015 12.9645C22.9416 12.7416 22.75 12.5831 22.5183 12.5509L21.1608 12.3543L20.5533 11.1356C20.4491 10.9259 20.2375 10.7954 20.0016 10.7946H20C19.765 10.7946 19.5533 10.925 19.4475 11.1348L18.84 12.3543L17.485 12.55C17.2508 12.5831 17.0591 12.7416 16.985 12.9645C16.9116 13.1875 16.9708 13.4286 17.1408 13.5921L18.1233 14.54L17.8916 15.8802C17.8516 16.1114 17.9458 16.3409 18.1375 16.4788C18.2458 16.5556 18.3716 16.5952 18.4991 16.5952C18.5966 16.5952 18.695 16.5713 18.785 16.5242L20 15.8917L21.2125 16.5226C21.4225 16.634 21.6716 16.6167 21.8625 16.478C22.055 16.3409 22.1491 16.1114 22.1091 15.8802L21.8766 14.54Z" fill="#FDEB56"/>
<path d="M48.65 12.418C49.098 12.6327 49.4527 12.9407 49.714 13.342C49.9847 13.7433 50.12 14.2053 50.12 14.728C50.12 15.512 49.8447 16.17 49.294 16.702C48.7433 17.234 48.0713 17.5 47.278 17.5H43.05V7.7H46.97C47.7353 7.7 48.384 7.95667 48.916 8.47C49.448 8.98333 49.714 9.618 49.714 10.374C49.714 11.242 49.3593 11.9233 48.65 12.418ZM46.97 8.918H44.352V11.914H46.97C47.3807 11.914 47.726 11.7693 48.006 11.48C48.286 11.1907 48.426 10.836 48.426 10.416C48.426 10.0053 48.2813 9.65533 47.992 9.366C47.712 9.06733 47.3713 8.918 46.97 8.918ZM47.278 16.282C47.7167 16.282 48.0853 16.128 48.384 15.82C48.6827 15.512 48.832 15.134 48.832 14.686C48.832 14.2473 48.678 13.874 48.37 13.566C48.0713 13.258 47.7073 13.104 47.278 13.104H44.352V16.282H47.278ZM52.4323 14.56C52.5536 15.1853 52.8383 15.6707 53.2863 16.016C53.7436 16.3613 54.3036 16.534 54.9663 16.534C55.8903 16.534 56.5623 16.1933 56.9823 15.512L58.0183 16.1C57.337 17.1547 56.3103 17.682 54.9383 17.682C53.8276 17.682 52.9223 17.3367 52.2223 16.646C51.5316 15.946 51.1863 15.064 51.1863 14C51.1863 12.9453 51.527 12.068 52.2083 11.368C52.8896 10.668 53.7716 10.318 54.8543 10.318C55.881 10.318 56.7163 10.682 57.3603 11.41C58.0136 12.1287 58.3403 12.9967 58.3403 14.014C58.3403 14.1913 58.3263 14.3733 58.2983 14.56H52.4323ZM54.8543 11.466C54.201 11.466 53.6596 11.6527 53.2303 12.026C52.801 12.39 52.535 12.88 52.4323 13.496H57.1083C57.0056 12.8333 56.7443 12.3293 56.3243 11.984C55.9043 11.6387 55.4143 11.466 54.8543 11.466ZM63.3433 11.676H61.4813V15.47C61.4813 15.8153 61.5467 16.0627 61.6773 16.212C61.8173 16.352 62.0273 16.4267 62.3073 16.436C62.5873 16.436 62.9327 16.4267 63.3433 16.408V17.5C62.2793 17.64 61.5 17.556 61.0053 17.248C60.5107 16.9307 60.2633 16.338 60.2633 15.47V11.676H58.8773V10.5H60.2633V8.904L61.4813 8.54V10.5H63.3433V11.676ZM70.2259 10.5H71.4439V17.5H70.2259V16.296C69.6192 17.22 68.7372 17.682 67.5799 17.682C66.5999 17.682 65.7645 17.3273 65.0739 16.618C64.3832 15.8993 64.0379 15.0267 64.0379 14C64.0379 12.9733 64.3832 12.1053 65.0739 11.396C65.7645 10.6773 66.5999 10.318 67.5799 10.318C68.7372 10.318 69.6192 10.78 70.2259 11.704V10.5ZM67.7339 16.506C68.4432 16.506 69.0359 16.268 69.5119 15.792C69.9879 15.3067 70.2259 14.7093 70.2259 14C70.2259 13.2907 69.9879 12.698 69.5119 12.222C69.0359 11.7367 68.4432 11.494 67.7339 11.494C67.0339 11.494 66.4459 11.7367 65.9699 12.222C65.4939 12.698 65.2559 13.2907 65.2559 14C65.2559 14.7093 65.4939 15.3067 65.9699 15.792C66.4459 16.268 67.0339 16.506 67.7339 16.506Z" fill="#FDEB56"/>
</svg>
