<svg width="24" height="24" viewBox="0 0 24 24" fill="none" xmlns="http://www.w3.org/2000/svg">
<path d="M3.67335 19C3.04002 19 2.54419 18.7875 2.18585 18.3625C1.82752 17.9375 1.69835 17.35 1.79835 16.6L2.99835 8.225C3.13169 7.34167 3.54419 6.58333 4.23585 5.95C4.92752 5.31667 5.71502 5 6.59835 5H17.4234C18.3067 5 19.0942 5.31667 19.7859 5.95C20.4775 6.58333 20.89 7.34167 21.0234 8.225L22.1984 16.6C22.2984 17.35 22.1692 17.9375 21.8109 18.3625C21.4525 18.7875 20.9567 19 20.3234 19C19.94 19 19.615 18.9375 19.3484 18.8125C19.0817 18.6875 18.8567 18.5333 18.6734 18.35L16.0734 15.75H7.92335L5.32335 18.35C5.14002 18.5333 4.91502 18.6875 4.64835 18.8125C4.38169 18.9375 4.05669 19 3.67335 19ZM4.12335 17.4L7.27335 14.25H16.7234L19.8734 17.4C19.9567 17.4833 20.1067 17.5583 20.3234 17.625C20.4734 17.625 20.5859 17.55 20.6609 17.4C20.7359 17.25 20.7567 17.1 20.7234 16.95L19.5234 8.475C19.44 7.89167 19.1942 7.41667 18.7859 7.05C18.3775 6.68333 17.9234 6.5 17.4234 6.5H6.57335C6.07335 6.5 5.61919 6.68333 5.21085 7.05C4.80252 7.41667 4.55669 7.89167 4.47335 8.475L3.27335 16.95C3.24002 17.1 3.26085 17.25 3.33585 17.4C3.41085 17.55 3.52335 17.625 3.67335 17.625C3.79002 17.625 3.94002 17.55 4.12335 17.4ZM17.4984 13C17.765 13 17.9984 12.9 18.1984 12.7C18.3984 12.5 18.4984 12.2667 18.4984 12C18.4984 11.7333 18.3984 11.5 18.1984 11.3C17.9984 11.1 17.765 11 17.4984 11C17.2317 11 16.9984 11.1 16.7984 11.3C16.5984 11.5 16.4984 11.7333 16.4984 12C16.4984 12.2667 16.5984 12.5 16.7984 12.7C16.9984 12.9 17.2317 13 17.4984 13ZM15.3734 9.75C15.64 9.75 15.8734 9.65 16.0734 9.45C16.2734 9.25 16.3734 9.01667 16.3734 8.75C16.3734 8.48333 16.2734 8.25 16.0734 8.05C15.8734 7.85 15.64 7.75 15.3734 7.75C15.1067 7.75 14.8734 7.85 14.6734 8.05C14.4734 8.25 14.3734 8.48333 14.3734 8.75C14.3734 9.01667 14.4734 9.25 14.6734 9.45C14.8734 9.65 15.1067 9.75 15.3734 9.75ZM5.62335 11H6.57335C6.84002 11 7.06085 11.0875 7.23585 11.2625C7.41085 11.4375 7.49835 11.6583 7.49835 11.925C7.49835 12.1917 7.59002 12.4167 7.77335 12.6C7.95669 12.7833 8.18169 12.875 8.44835 12.875H8.74835V11.925C8.74835 11.6583 8.84002 11.4375 9.02335 11.2625C9.20669 11.0875 9.43169 11 9.69835 11C9.96502 11 10.1859 10.9083 10.3609 10.725C10.5359 10.5417 10.6234 10.3167 10.6234 10.05V9.75H9.67335C9.40669 9.75 9.18585 9.65833 9.01085 9.475C8.83585 9.29167 8.74835 9.06667 8.74835 8.8C8.74835 8.53333 8.66085 8.3125 8.48585 8.1375C8.31085 7.9625 8.09002 7.875 7.82335 7.875H7.49835V8.825C7.49835 9.09167 7.41085 9.3125 7.23585 9.4875C7.06085 9.6625 6.84002 9.75 6.57335 9.75C6.30669 9.75 6.08169 9.8375 5.89835 10.0125C5.71502 10.1875 5.62335 10.4083 5.62335 10.675V11Z" fill="#948798"/>
</svg>
