<svg width="90" height="28" viewBox="0 0 90 28" fill="none" xmlns="http://www.w3.org/2000/svg">
<rect width="90" height="28" rx="14" fill="#F71756" fill-opacity="0.15"/>
<path fill-rule="evenodd" clip-rule="evenodd" d="M13.4401 5.66675H26.5598C27.5396 5.66675 28.3333 6.48429 28.3333 7.49363V8.76988C28.3333 9.25952 28.142 9.72972 27.8022 10.0726L22.3813 15.5559C22.2878 15.6514 22.1608 15.7044 22.0296 15.7035L17.4907 15.6894C17.3526 15.6894 17.2213 15.6302 17.1269 15.5268L12.1454 10.0479C11.8374 9.70939 11.6666 9.26217 11.6666 8.79816V7.49451C11.6666 6.48518 12.4603 5.66675 13.4401 5.66675ZM17.7334 17.1869L21.7789 17.1992C22.0311 17.2001 22.2353 17.4114 22.2353 17.6703V19.9462C22.2353 20.206 22.0877 20.4411 21.8578 20.5498L18.1855 22.2742C18.0997 22.314 18.0088 22.3334 17.9178 22.3334C17.7969 22.3334 17.6759 22.2981 17.5704 22.2282C17.3859 22.1063 17.2743 21.8959 17.2743 21.6705V17.6579C17.2743 17.3972 17.4803 17.186 17.7334 17.1869Z" fill="#F71756"/>
<path d="M49.504 17.5L48.706 15.302H44.296L43.498 17.5H42.112L45.766 7.7H47.236L50.89 17.5H49.504ZM44.744 14.084H48.258L46.494 9.254L44.744 14.084ZM51.9201 17.5V7.28H53.1381V17.5H51.9201ZM58.8603 10.318C59.8403 10.318 60.6756 10.6773 61.3663 11.396C62.0569 12.1053 62.4023 12.9733 62.4023 14C62.4023 15.0267 62.0569 15.8993 61.3663 16.618C60.6756 17.3273 59.8403 17.682 58.8603 17.682C57.7029 17.682 56.8209 17.22 56.2143 16.296V20.3H54.9963V10.5H56.2143V11.704C56.8209 10.78 57.7029 10.318 58.8603 10.318ZM58.7063 16.506C59.4063 16.506 59.9943 16.268 60.4703 15.792C60.9463 15.3067 61.1843 14.7093 61.1843 14C61.1843 13.2907 60.9463 12.698 60.4703 12.222C59.9943 11.7367 59.4063 11.494 58.7063 11.494C57.9969 11.494 57.4043 11.7367 56.9283 12.222C56.4523 12.698 56.2143 13.2907 56.2143 14C56.2143 14.7093 56.4523 15.3067 56.9283 15.792C57.4043 16.268 57.9969 16.506 58.7063 16.506ZM67.3416 10.318C68.163 10.318 68.821 10.5793 69.3156 11.102C69.8103 11.6153 70.0576 12.3153 70.0576 13.202V17.5H68.8396V13.272C68.8396 12.7027 68.6856 12.264 68.3776 11.956C68.0696 11.6387 67.645 11.48 67.1036 11.48C66.497 11.48 66.007 11.6713 65.6336 12.054C65.2603 12.4273 65.0736 13.006 65.0736 13.79V17.5H63.8556V7.7H65.0736V11.508C65.5683 10.7147 66.3243 10.318 67.3416 10.318ZM77.554 10.5H78.772V17.5H77.554V16.296C76.9473 17.22 76.0653 17.682 74.908 17.682C73.928 17.682 73.0927 17.3273 72.402 16.618C71.7113 15.8993 71.366 15.0267 71.366 14C71.366 12.9733 71.7113 12.1053 72.402 11.396C73.0927 10.6773 73.928 10.318 74.908 10.318C76.0653 10.318 76.9473 10.78 77.554 11.704V10.5ZM75.062 16.506C75.7713 16.506 76.364 16.268 76.84 15.792C77.316 15.3067 77.554 14.7093 77.554 14C77.554 13.2907 77.316 12.698 76.84 12.222C76.364 11.7367 75.7713 11.494 75.062 11.494C74.362 11.494 73.774 11.7367 73.298 12.222C72.822 12.698 72.584 13.2907 72.584 14C72.584 14.7093 72.822 15.3067 73.298 15.792C73.774 16.268 74.362 16.506 75.062 16.506Z" fill="#F71756"/>
</svg>
