<svg width="109" height="28" viewBox="0 0 109 28" fill="none" xmlns="http://www.w3.org/2000/svg">
<rect width="109" height="28" rx="14" fill="#1FD031" fill-opacity="0.15"/>
<path fill-rule="evenodd" clip-rule="evenodd" d="M22.6366 9.06885C22.8992 9.07245 23.1624 9.07606 23.4265 9.07876C26.2643 9.07876 28.3333 11.1019 28.3333 13.8957V17.4843C28.3333 20.2782 26.2643 22.3013 23.4265 22.3013C22.2898 22.3254 21.1531 22.3334 20.0081 22.3334C18.8632 22.3334 17.7101 22.3254 16.5734 22.3013C13.7356 22.3013 11.6666 20.2782 11.6666 17.4843V13.8957C11.6666 11.1019 13.7356 9.07876 16.5816 9.07876C17.6529 9.0627 18.7487 9.04665 19.8609 9.04665V8.91016C19.8609 8.35622 19.3948 7.90663 18.8387 7.90663H18.0291C17.105 7.90663 16.3526 7.16803 16.3526 6.26887C16.3526 5.93971 16.6306 5.66675 16.9659 5.66675C17.3094 5.66675 17.5793 5.93971 17.5793 6.26887C17.5793 6.50972 17.7837 6.70239 18.0291 6.70239H18.8387C20.0736 6.71042 21.0794 7.6979 21.0876 8.90214V9.05467C21.6032 9.05467 22.1187 9.06174 22.6366 9.06885ZM19.0431 16.2881H18.1845V17.1391C18.1845 17.4683 17.9064 17.7413 17.5711 17.7413C17.2276 17.7413 16.9578 17.4683 16.9578 17.1391V16.2881H16.0909C15.7556 16.2881 15.4776 16.0232 15.4776 15.686C15.4776 15.3569 15.7556 15.0839 16.0909 15.0839H16.9578V14.2409C16.9578 13.9118 17.2276 13.6388 17.5711 13.6388C17.9064 13.6388 18.1845 13.9118 18.1845 14.2409V15.0839H19.0431C19.3784 15.0839 19.6565 15.3569 19.6565 15.686C19.6565 16.0232 19.3784 16.2881 19.0431 16.2881ZM22.5188 14.9314H22.6005C22.9358 14.9314 23.2139 14.6664 23.2139 14.3292C23.2139 14.0001 22.9358 13.7271 22.6005 13.7271H22.5188C22.1753 13.7271 21.9054 14.0001 21.9054 14.3292C21.9054 14.6664 22.1753 14.9314 22.5188 14.9314ZM23.9172 17.6931H23.999C24.3343 17.6931 24.6123 17.4281 24.6123 17.091C24.6123 16.7618 24.3343 16.4888 23.999 16.4888H23.9172C23.5729 16.4888 23.3039 16.7618 23.3039 17.091C23.3039 17.4281 23.5729 17.6931 23.9172 17.6931Z" fill="#1FD031"/>
<path d="M46.606 7.7C47.5113 7.7 48.2627 8.00333 48.86 8.61C49.4667 9.20733 49.77 9.954 49.77 10.85C49.77 11.7367 49.4667 12.4833 48.86 13.09C48.2627 13.6967 47.5113 14 46.606 14H44.352V17.5H43.05V7.7H46.606ZM46.606 12.782C47.1473 12.782 47.5953 12.6 47.95 12.236C48.3047 11.8627 48.482 11.4007 48.482 10.85C48.482 10.29 48.3047 9.828 47.95 9.464C47.5953 9.1 47.1473 8.918 46.606 8.918H44.352V12.782H46.606ZM51.1818 17.5V7.28H52.3998V17.5H51.1818ZM60.054 10.5H61.272V17.5H60.054V16.296C59.4473 17.22 58.5653 17.682 57.408 17.682C56.428 17.682 55.5927 17.3273 54.902 16.618C54.2113 15.8993 53.866 15.0267 53.866 14C53.866 12.9733 54.2113 12.1053 54.902 11.396C55.5927 10.6773 56.428 10.318 57.408 10.318C58.5653 10.318 59.4473 10.78 60.054 11.704V10.5ZM57.562 16.506C58.2713 16.506 58.864 16.268 59.34 15.792C59.816 15.3067 60.054 14.7093 60.054 14C60.054 13.2907 59.816 12.698 59.34 12.222C58.864 11.7367 58.2713 11.494 57.562 11.494C56.862 11.494 56.274 11.7367 55.798 12.222C55.322 12.698 55.084 13.2907 55.084 14C55.084 14.7093 55.322 15.3067 55.798 15.792C56.274 16.268 56.862 16.506 57.562 16.506ZM68.0034 10.5H69.3054L66.4494 17.934C66.1507 18.7273 65.7307 19.3293 65.1894 19.74C64.6574 20.16 64.0414 20.3467 63.3414 20.3V19.166C64.2 19.2313 64.83 18.7553 65.2314 17.738L65.3574 17.472L62.3054 10.5H63.6074L65.9874 15.988L68.0034 10.5ZM75.845 10.5H77.063V17.5H75.845V16.296C75.2383 17.22 74.3563 17.682 73.199 17.682C72.219 17.682 71.3837 17.3273 70.693 16.618C70.0023 15.8993 69.657 15.0267 69.657 14C69.657 12.9733 70.0023 12.1053 70.693 11.396C71.3837 10.6773 72.219 10.318 73.199 10.318C74.3563 10.318 75.2383 10.78 75.845 11.704V10.5ZM73.353 16.506C74.0623 16.506 74.655 16.268 75.131 15.792C75.607 15.3067 75.845 14.7093 75.845 14C75.845 13.2907 75.607 12.698 75.131 12.222C74.655 11.7367 74.0623 11.494 73.353 11.494C72.653 11.494 72.065 11.7367 71.589 12.222C71.113 12.698 70.875 13.2907 70.875 14C70.875 14.7093 71.113 15.3067 71.589 15.792C72.065 16.268 72.653 16.506 73.353 16.506ZM82.7724 10.318C83.7524 10.318 84.5877 10.6773 85.2784 11.396C85.969 12.1053 86.3144 12.9733 86.3144 14C86.3144 15.0267 85.969 15.8993 85.2784 16.618C84.5877 17.3273 83.7524 17.682 82.7724 17.682C81.615 17.682 80.733 17.22 80.1264 16.296V17.5H78.9084V7.7H80.1264V11.704C80.733 10.78 81.615 10.318 82.7724 10.318ZM82.6184 16.506C83.3184 16.506 83.9064 16.268 84.3824 15.792C84.8584 15.3067 85.0964 14.7093 85.0964 14C85.0964 13.2907 84.8584 12.698 84.3824 12.222C83.9064 11.7367 83.3184 11.494 82.6184 11.494C81.909 11.494 81.3164 11.7367 80.8404 12.222C80.3644 12.698 80.1264 13.2907 80.1264 14C80.1264 14.7093 80.3644 15.3067 80.8404 15.792C81.3164 16.268 81.909 16.506 82.6184 16.506ZM87.7677 17.5V7.28H88.9858V17.5H87.7677ZM91.6979 14.56C91.8193 15.1853 92.1039 15.6707 92.5519 16.016C93.0093 16.3613 93.5693 16.534 94.2319 16.534C95.1559 16.534 95.8279 16.1933 96.2479 15.512L97.2839 16.1C96.6026 17.1547 95.5759 17.682 94.2039 17.682C93.0933 17.682 92.1879 17.3367 91.4879 16.646C90.7973 15.946 90.4519 15.064 90.4519 14C90.4519 12.9453 90.7926 12.068 91.4739 11.368C92.1553 10.668 93.0373 10.318 94.1199 10.318C95.1466 10.318 95.9819 10.682 96.6259 11.41C97.2793 12.1287 97.6059 12.9967 97.6059 14.014C97.6059 14.1913 97.5919 14.3733 97.5639 14.56H91.6979ZM94.1199 11.466C93.4666 11.466 92.9253 11.6527 92.4959 12.026C92.0666 12.39 91.8006 12.88 91.6979 13.496H96.3739C96.2713 12.8333 96.0099 12.3293 95.5899 11.984C95.1699 11.6387 94.6799 11.466 94.1199 11.466Z" fill="#1FD031"/>
</svg>
