<svg width="1380" height="363" viewBox="0 0 1380 363" fill="none" xmlns="http://www.w3.org/2000/svg">
<g clip-path="url(#clip0_5610_14168)">
<rect width="1380" height="363" rx="16" fill="#2C1334"/>
<g filter="url(#filter0_f_5610_14168)">
<path d="M441 -63.4999L553.5 -114L523.5 -109.5L-107 -109.5L-107 280L-59 203.5L-46.5 114.5L-46.5 88.5L22.5 22L62.5 3.00002L137.5 -22L191.5 -22L220.5 -38L333 -63.5L441 -63.4999Z" fill="url(#paint0_linear_5610_14168)" fill-opacity="0.7"/>
</g>
<g filter="url(#filter1_f_5610_14168)">
<path d="M927.5 416.5L815 467L845 462.5H1475.5V73L1427.5 149.5L1415 238.5V264.5L1346 331L1306 350L1231 375H1177L1148 391L1035.5 416.5H927.5Z" fill="url(#paint1_linear_5610_14168)" fill-opacity="0.7"/>
</g>
<g filter="url(#filter2_f_5610_14168)">
<path d="M69.4235 341.5C65.1691 325.622 63.042 317.684 65.9954 311.166C66.5361 309.972 67.1927 308.835 67.9558 307.77C72.124 301.953 80.0627 299.826 95.94 295.572L120.088 289.101C135.966 284.847 143.904 282.72 150.422 285.673C151.616 286.214 152.753 286.871 153.818 287.634C159.635 291.802 161.762 299.741 166.016 315.618C170.27 331.495 172.398 339.434 169.444 345.952C168.903 347.145 168.247 348.283 167.484 349.347C163.315 355.164 155.377 357.292 139.5 361.546L115.351 368.016C99.4741 372.271 91.5355 374.398 85.0172 371.444C83.8239 370.904 82.6867 370.247 81.6218 369.484C75.8049 365.316 73.6778 357.377 69.4235 341.5Z" stroke="#8EC9ED" stroke-width="7.5" stroke-linecap="round"/>
<path d="M108.014 292.337L105.426 282.677C104.712 280.01 106.294 277.268 108.962 276.554C111.629 275.839 113.212 273.097 112.497 270.43L111.203 265.6" stroke="#8EC9ED" stroke-width="7.5" stroke-linecap="round" stroke-linejoin="round"/>
<path d="M110.002 338.391L100.816 333.088M100.816 333.088L91.6309 327.785M100.816 333.088L95.5131 342.274M100.816 333.088L106.12 323.902" stroke="#8EC9ED" stroke-width="7.5" stroke-linecap="round"/>
<path d="M143.161 326.918L140.573 317.259" stroke="#8EC9ED" stroke-width="7.5" stroke-linecap="round" stroke-linejoin="round"/>
</g>
<g filter="url(#filter3_f_5610_14168)">
<path d="M1303.93 50.3098C1312.15 36.0745 1316.26 28.957 1322.96 26.4362C1324.19 25.9748 1325.45 25.6349 1326.75 25.4215C1333.81 24.2558 1340.92 28.3651 1355.16 36.5838L1376.81 49.0838C1391.05 57.3026 1398.16 61.4118 1400.68 68.1094C1401.15 69.3354 1401.48 70.6038 1401.7 71.8963C1402.86 78.957 1398.75 86.0745 1390.54 100.31C1382.32 114.545 1378.21 121.663 1371.51 124.183C1370.28 124.645 1369.02 124.985 1367.72 125.198C1360.66 126.364 1353.55 122.254 1339.31 114.036L1317.66 101.536C1303.42 93.317 1296.31 89.2077 1293.79 82.5101C1293.32 81.284 1292.98 80.0157 1292.77 78.7233C1291.61 71.6625 1295.71 64.5451 1303.93 50.3098Z" stroke="#8EC9ED" stroke-width="7.5" stroke-linecap="round"/>
<path d="M1365.99 42.834L1370.99 34.1738C1372.37 31.7823 1375.42 30.9629 1377.82 32.3436C1380.21 33.7244 1383.26 32.9049 1384.65 30.5135L1387.15 26.1834" stroke="#8EC9ED" stroke-width="7.5" stroke-linecap="round" stroke-linejoin="round"/>
<path d="M1334.83 76.8054L1332.08 66.5602M1332.08 66.5602L1329.33 56.315M1332.08 66.5602L1321.83 69.3054M1332.08 66.5602L1342.33 63.815" stroke="#8EC9ED" stroke-width="7.5" stroke-linecap="round"/>
<path d="M1366.39 92.1399L1371.39 83.4796" stroke="#8EC9ED" stroke-width="7.5" stroke-linecap="round" stroke-linejoin="round"/>
</g>
<path d="M279.212 68.25C277.085 60.3113 276.021 56.342 277.498 53.0829C277.768 52.4862 278.096 51.9176 278.478 51.3852C280.562 48.4768 284.531 47.4132 292.47 45.286L304.544 42.0508C312.483 39.9236 316.452 38.8601 319.711 40.3367C320.308 40.6071 320.876 40.9354 321.409 41.317C324.317 43.4011 325.381 47.3703 327.508 55.309C329.635 63.2477 330.699 67.217 329.222 70.4762C328.952 71.0728 328.623 71.6414 328.242 72.1737C326.158 75.0823 322.188 76.1458 314.25 78.273L302.176 81.5082C294.237 83.6354 290.268 84.699 287.009 83.2222C286.412 82.9519 285.843 82.6236 285.311 82.2422C282.402 80.1579 281.339 76.1887 279.212 68.25Z" stroke="#8EC9ED" stroke-width="3.75" stroke-linecap="round"/>
<path d="M298.507 43.6684L297.213 38.8388C296.855 37.5052 297.647 36.1343 298.98 35.7769C300.314 35.4196 301.106 34.0487 300.748 32.7151L300.101 30.3003" stroke="#8EC9ED" stroke-width="3.75" stroke-linecap="round" stroke-linejoin="round"/>
<path d="M299.501 66.6959L294.908 64.0442M294.908 64.0442L290.315 61.3926M294.908 64.0442L292.257 68.637M294.908 64.0442L297.56 59.4514" stroke="#8EC9ED" stroke-width="3.75" stroke-linecap="round"/>
<path d="M316.081 60.9593L314.787 56.1296" stroke="#8EC9ED" stroke-width="3.75" stroke-linecap="round" stroke-linejoin="round"/>
<path d="M1100.97 203.655C1105.08 196.538 1107.13 192.979 1110.48 191.718C1111.09 191.488 1111.73 191.318 1112.37 191.211C1115.9 190.628 1119.46 192.683 1126.58 196.792L1137.41 203.042C1144.52 207.152 1148.08 209.206 1149.34 212.555C1149.57 213.168 1149.74 213.802 1149.85 214.448C1150.43 217.979 1148.38 221.538 1144.27 228.655C1140.16 235.773 1138.1 239.332 1134.76 240.592C1134.14 240.823 1133.51 240.993 1132.86 241.099C1129.33 241.682 1125.77 239.628 1118.66 235.518L1107.83 229.268C1100.71 225.159 1097.15 223.104 1095.89 219.755C1095.66 219.142 1095.49 218.508 1095.39 217.862C1094.8 214.332 1096.86 210.773 1100.97 203.655Z" stroke="#8EC9ED" stroke-width="3.75" stroke-linecap="round"/>
<path d="M1131.99 199.917L1134.49 195.587C1135.18 194.391 1136.71 193.982 1137.91 194.672C1139.1 195.362 1140.63 194.953 1141.32 193.757L1142.57 191.592" stroke="#8EC9ED" stroke-width="3.75" stroke-linecap="round" stroke-linejoin="round"/>
<path d="M1116.41 216.903L1115.04 211.78M1115.04 211.78L1113.67 206.657M1115.04 211.78L1109.92 213.153M1115.04 211.78L1120.16 210.407" stroke="#8EC9ED" stroke-width="3.75" stroke-linecap="round"/>
<path d="M1132.19 224.57L1134.69 220.24" stroke="#8EC9ED" stroke-width="3.75" stroke-linecap="round" stroke-linejoin="round"/>
<path d="M265.062 247.925C263.685 241.061 263.629 235.783 263.935 232.627C264.089 231.034 264.967 229.643 266.364 228.881C274.133 224.646 284.173 221.955 293.018 221.739C294.609 221.7 296.065 222.466 296.995 223.769C298.838 226.349 301.429 230.948 303.668 237.581C305.007 241.549 302.685 244.555 299.891 247.047C298.112 248.635 295.71 246 294.026 243.914C293.105 242.775 291.631 242.31 290.204 242.692L279.278 245.62C277.851 246.002 276.806 247.142 276.579 248.589C276.163 251.238 275.401 254.72 273.066 254.235C269.437 253.481 265.893 252.064 265.062 247.925Z" stroke="#BC5AD7" stroke-width="3" stroke-linecap="round" stroke-linejoin="round"/>
<path d="M264.988 224.529L268.521 222.547M292.034 217.282L287.912 217.351" stroke="#BC5AD7" stroke-width="3" stroke-linecap="round" stroke-linejoin="round"/>
<path d="M277.116 238.879L273.442 236.757M273.442 236.757L269.768 234.636M273.442 236.757L271.32 240.432M273.442 236.757L275.563 233.083" stroke="#BC5AD7" stroke-width="3" stroke-linecap="round"/>
<path d="M289.062 229.466L289.08 229.461" stroke="#BC5AD7" stroke-width="4" stroke-linecap="round" stroke-linejoin="round"/>
<path d="M294.48 234.226L294.498 234.221" stroke="#BC5AD7" stroke-width="4" stroke-linecap="round" stroke-linejoin="round"/>
<path d="M1172.06 93.9249C1170.68 87.0614 1170.63 81.7835 1170.93 78.6272C1171.09 77.0338 1171.97 75.6427 1173.36 74.8811C1181.13 70.6455 1191.17 67.9553 1200.02 67.7391C1201.61 67.7002 1203.06 68.466 1204 69.7688C1205.84 72.3494 1208.43 76.9479 1210.67 83.5806C1212.01 87.5486 1209.69 90.5548 1206.89 93.0472C1205.11 94.6347 1202.71 92.0001 1201.03 89.9142C1200.11 88.7745 1198.63 88.3098 1197.2 88.6921L1186.28 91.62C1184.85 92.0023 1183.81 93.1418 1183.58 94.5889C1183.16 97.2376 1182.4 100.72 1180.07 100.235C1176.44 99.4811 1172.89 98.0639 1172.06 93.9249Z" stroke="#BC5AD7" stroke-width="3" stroke-linecap="round" stroke-linejoin="round"/>
<path d="M1171.99 70.5286L1175.52 68.5466M1199.03 63.2816L1194.91 63.351" stroke="#BC5AD7" stroke-width="3" stroke-linecap="round" stroke-linejoin="round"/>
<path d="M1184.12 84.8786L1180.44 82.7573M1180.44 82.7573L1176.77 80.636M1180.44 82.7573L1178.32 86.4315M1180.44 82.7573L1182.56 79.0831" stroke="#BC5AD7" stroke-width="3" stroke-linecap="round"/>
<path d="M1196.06 75.4659L1196.08 75.4613" stroke="#BC5AD7" stroke-width="4" stroke-linecap="round" stroke-linejoin="round"/>
<path d="M1201.48 80.226L1201.5 80.2213" stroke="#BC5AD7" stroke-width="4" stroke-linecap="round" stroke-linejoin="round"/>
<g filter="url(#filter4_f_5610_14168)">
<path d="M-21.8271 23.4765C-12.1292 8.90815 -2.89715 -0.519947 3.22272 -5.55908C6.31238 -8.10313 10.3233 -9.01032 14.1393 -7.88718C35.3597 -1.64168 57.8639 11.3511 73.8827 26.6057C76.7635 29.349 77.9834 33.2761 77.3248 37.2238C76.0208 45.0434 72.4718 57.7526 64.7042 73.4354C60.0572 82.8173 50.6389 84.0272 41.2938 83.4943C35.3417 83.1548 35.7537 74.252 36.4634 67.5869C36.8511 63.9454 35.0667 60.518 31.8685 58.6715L7.37667 44.5312C4.17822 42.6845 0.318145 42.8531 -2.64174 45.0096C-8.0594 48.9565 -15.5633 53.7648 -18.8334 48.7798C-23.9153 41.0324 -27.6754 32.2619 -21.8271 23.4765Z" stroke="#BC5AD7" stroke-width="7.5" stroke-linecap="round" stroke-linejoin="round"/>
<path d="M19.4004 -18.0144L29.1498 -15.2724M80.0222 16.9856L72.6119 9.8205" stroke="#BC5AD7" stroke-width="7.5" stroke-linecap="round" stroke-linejoin="round"/>
<path d="M15.4708 28.7917L12.7257 18.5465M12.7257 18.5465L9.98047 8.30127M12.7257 18.5465L2.48047 21.2917M12.7257 18.5465L22.9708 15.8013" stroke="#BC5AD7" stroke-width="7.5" stroke-linecap="round"/>
<path d="M53.2295 33.2711L53.2685 33.2936" stroke="#BC5AD7" stroke-width="10" stroke-linecap="round" stroke-linejoin="round"/>
<path d="M54.3916 51.2624L54.4306 51.2849" stroke="#BC5AD7" stroke-width="10" stroke-linecap="round" stroke-linejoin="round"/>
</g>
<g filter="url(#filter5_f_5610_14168)">
<path d="M1040.16 374.812C1036.71 357.653 1036.58 344.458 1037.34 336.568C1037.73 332.584 1039.92 329.107 1043.41 327.202C1062.83 316.614 1087.93 309.888 1110.05 309.348C1114.02 309.25 1117.66 311.165 1119.99 314.422C1124.6 320.873 1131.07 332.369 1136.67 348.951C1140.02 358.871 1134.21 366.387 1127.23 372.618C1122.78 376.586 1116.78 370 1112.57 364.785C1110.27 361.936 1106.58 360.774 1103.01 361.73L1075.7 369.05C1072.13 370.006 1069.52 372.854 1068.95 376.472C1067.91 383.094 1066 391.8 1060.17 390.587C1051.1 388.703 1042.23 385.16 1040.16 374.812Z" stroke="#BC5AD7" stroke-width="7.5" stroke-linecap="round" stroke-linejoin="round"/>
<path d="M1039.97 316.321L1048.8 311.366M1107.59 298.204L1097.28 298.377" stroke="#BC5AD7" stroke-width="7.5" stroke-linecap="round" stroke-linejoin="round"/>
<path d="M1070.29 352.197L1061.1 346.893M1061.1 346.893L1051.92 341.59M1061.1 346.893L1055.8 356.079M1061.1 346.893L1066.41 337.708" stroke="#BC5AD7" stroke-width="7.5" stroke-linecap="round"/>
<path d="M1100.16 328.665L1100.2 328.653" stroke="#BC5AD7" stroke-width="10" stroke-linecap="round" stroke-linejoin="round"/>
<path d="M1113.7 340.565L1113.74 340.553" stroke="#BC5AD7" stroke-width="10" stroke-linecap="round" stroke-linejoin="round"/>
</g>
<g filter="url(#filter6_f_5610_14168)">
<path d="M145.551 145.573C147.025 146.424 147.763 146.85 148.205 147.427C148.795 148.196 149.056 149.168 148.929 150.128C148.834 150.849 148.408 151.587 147.557 153.061C146.706 154.536 146.28 155.273 145.703 155.716C144.934 156.306 143.962 156.566 143.001 156.439C142.281 156.345 141.544 155.919 140.069 155.068L130.574 149.586C129.1 148.735 128.362 148.309 127.92 147.732C127.33 146.963 127.069 145.991 127.196 145.03C127.291 144.31 127.716 143.572 128.568 142.098C129.419 140.623 129.845 139.886 130.422 139.443C131.19 138.853 132.162 138.593 133.123 138.719C133.844 138.814 134.581 139.24 136.056 140.091L145.551 145.573Z" stroke="#FDEB56" stroke-width="3.28903" stroke-linecap="round"/>
<path d="M126.844 162.624L123.047 160.431M123.047 160.431L119.249 158.238M123.047 160.431L120.854 164.229M123.047 160.431L125.239 156.633" stroke="#FDEB56" stroke-width="3.28903" stroke-linecap="round"/>
<path d="M137.141 171.101L139.334 167.303" stroke="#FDEB56" stroke-width="3.28903" stroke-linecap="round" stroke-linejoin="round"/>
<path d="M150.219 165.992L152.412 162.194C156.523 155.073 158.579 151.513 158.206 147.97C158.086 146.826 157.786 145.708 157.318 144.657C155.87 141.403 152.309 139.347 145.189 135.236C138.069 131.125 134.508 129.07 130.966 129.442C129.821 129.562 128.703 129.862 127.652 130.33C124.398 131.779 122.343 135.339 118.232 142.46L116.039 146.257C111.928 153.378 109.872 156.938 110.245 160.481C110.365 161.625 110.665 162.743 111.132 163.794C112.581 167.048 116.142 169.104 123.262 173.215C130.382 177.326 133.943 179.381 137.485 179.009C138.63 178.889 139.748 178.589 140.799 178.121C144.053 176.672 146.109 173.112 150.219 165.992Z" stroke="#FDEB56" stroke-width="3.28903" stroke-linecap="round"/>
</g>
<g filter="url(#filter7_f_5610_14168)">
<path d="M1287.12 223.099C1288.76 222.659 1289.58 222.438 1290.3 222.533C1291.26 222.66 1292.14 223.163 1292.73 223.932C1293.17 224.508 1293.39 225.331 1293.83 226.975C1294.27 228.62 1294.49 229.443 1294.4 230.163C1294.27 231.124 1293.77 231.996 1293 232.585C1292.42 233.028 1291.6 233.248 1289.95 233.689L1279.36 236.527C1277.72 236.967 1276.9 237.188 1276.18 237.093C1275.21 236.966 1274.34 236.463 1273.75 235.694C1273.31 235.118 1273.09 234.295 1272.65 232.65C1272.21 231.006 1271.99 230.183 1272.08 229.463C1272.21 228.502 1272.71 227.63 1273.48 227.04C1274.06 226.598 1274.88 226.377 1276.53 225.937L1287.12 223.099Z" stroke="#FDEB56" stroke-width="3.28903" stroke-linecap="round"/>
<path d="M1285.94 248.383L1281.71 249.518M1281.71 249.518L1277.47 250.653M1281.71 249.518L1282.84 253.754M1281.71 249.518L1280.57 245.282" stroke="#FDEB56" stroke-width="3.28903" stroke-linecap="round"/>
<path d="M1299.22 247.096L1298.08 242.86" stroke="#FDEB56" stroke-width="3.28903" stroke-linecap="round" stroke-linejoin="round"/>
<path d="M1304.85 234.236L1303.72 230C1301.59 222.058 1300.53 218.088 1297.76 215.846C1296.86 215.122 1295.86 214.543 1294.79 214.131C1291.46 212.854 1287.49 213.918 1279.55 216.046C1271.61 218.174 1267.64 219.238 1265.4 222.006C1264.67 222.901 1264.09 223.903 1263.68 224.977C1262.4 228.303 1263.47 232.274 1265.6 240.215L1266.73 244.451C1268.86 252.393 1269.92 256.364 1272.69 258.606C1273.59 259.33 1274.59 259.909 1275.66 260.321C1278.99 261.598 1282.96 260.534 1290.9 258.406C1298.84 256.278 1302.81 255.214 1305.05 252.445C1305.78 251.551 1306.36 250.549 1306.77 249.475C1308.05 246.149 1306.98 242.178 1304.85 234.236Z" stroke="#FDEB56" stroke-width="3.28903" stroke-linecap="round"/>
</g>
<path d="M426.134 345.395C427.135 345.127 427.635 344.993 428.073 345.051C428.657 345.127 429.187 345.433 429.546 345.901C429.815 346.252 429.949 346.752 430.217 347.752C430.485 348.752 430.619 349.252 430.561 349.69C430.484 350.275 430.178 350.805 429.711 351.163C429.36 351.432 428.86 351.566 427.86 351.834L421.42 353.56C420.42 353.828 419.92 353.962 419.482 353.904C418.898 353.827 418.368 353.521 418.009 353.054C417.74 352.703 417.606 352.203 417.338 351.203C417.07 350.203 416.936 349.703 416.994 349.264C417.07 348.68 417.376 348.15 417.844 347.791C418.195 347.522 418.695 347.388 419.695 347.12L426.134 345.395Z" stroke="#FDEB56" stroke-width="2" stroke-linecap="round"/>
<path d="M425.422 360.77L422.847 361.46M422.847 361.46L420.271 362.15M422.847 361.46L423.537 364.036M422.847 361.46L422.156 358.884" stroke="#FDEB56" stroke-width="2" stroke-linecap="round"/>
<path d="M433.494 359.987L432.804 357.411" stroke="#FDEB56" stroke-width="2" stroke-linecap="round" stroke-linejoin="round"/>
<path d="M436.921 352.167L436.231 349.591C434.937 344.762 434.29 342.347 432.607 340.984C432.063 340.544 431.453 340.192 430.8 339.941C428.778 339.165 426.363 339.812 421.534 341.106C416.705 342.4 414.29 343.047 412.927 344.73C412.487 345.274 412.135 345.884 411.884 346.537C411.108 348.559 411.755 350.974 413.049 355.803L413.739 358.379C415.033 363.208 415.68 365.623 417.363 366.986C417.907 367.426 418.517 367.778 419.17 368.029C421.192 368.805 423.607 368.158 428.436 366.864C433.265 365.57 435.68 364.923 437.043 363.24C437.483 362.696 437.835 362.086 438.086 361.433C438.862 359.411 438.215 356.996 436.921 352.167Z" stroke="#FDEB56" stroke-width="2" stroke-linecap="round"/>
<path d="M1079.75 19.0057C1080.75 18.7377 1081.25 18.6037 1081.68 18.6615C1082.27 18.7384 1082.8 19.0443 1083.16 19.5119C1083.43 19.8626 1083.56 20.3626 1083.83 21.3628C1084.1 22.3629 1084.23 22.863 1084.17 23.3012C1084.1 23.8855 1083.79 24.4154 1083.32 24.7741C1082.97 25.0433 1082.47 25.1772 1081.47 25.4452L1075.03 27.1707C1074.03 27.4387 1073.53 27.5727 1073.09 27.515C1072.51 27.4381 1071.98 27.1321 1071.62 26.6646C1071.35 26.3139 1071.22 25.8138 1070.95 24.8137C1070.68 23.8135 1070.55 23.3135 1070.6 22.8752C1070.68 22.2909 1070.99 21.7611 1071.45 21.4023C1071.81 21.1332 1072.31 20.9992 1073.31 20.7312L1079.75 19.0057Z" stroke="#FDEB56" stroke-width="2" stroke-linecap="round"/>
<path d="M1079.03 34.3805L1076.46 35.0707M1076.46 35.0707L1073.88 35.7609M1076.46 35.0707L1077.15 37.6465M1076.46 35.0707L1075.77 32.4949" stroke="#FDEB56" stroke-width="2" stroke-linecap="round"/>
<path d="M1087.11 33.5979L1086.42 31.0221" stroke="#FDEB56" stroke-width="2" stroke-linecap="round" stroke-linejoin="round"/>
<path d="M1090.53 25.778L1089.84 23.2022C1088.55 18.373 1087.9 15.9583 1086.22 14.5951C1085.67 14.1549 1085.06 13.8029 1084.41 13.5522C1082.39 12.776 1079.97 13.423 1075.14 14.717C1070.32 16.011 1067.9 16.658 1066.54 18.3414C1066.1 18.885 1065.75 19.4946 1065.49 20.1477C1064.72 22.17 1065.37 24.5846 1066.66 29.4139L1067.35 31.9897C1068.64 36.8189 1069.29 39.2336 1070.97 40.5968C1071.52 41.0371 1072.13 41.389 1072.78 41.6397C1074.8 42.416 1077.22 41.769 1082.05 40.475C1086.88 39.181 1089.29 38.534 1090.65 36.8506C1091.09 36.3069 1091.45 35.6973 1091.7 35.0442C1092.47 33.022 1091.83 30.6073 1090.53 25.778Z" stroke="#FDEB56" stroke-width="2" stroke-linecap="round"/>
</g>
<rect x="0.5" y="0.5" width="1379" height="362" rx="15.5" stroke="url(#paint2_linear_5610_14168)" stroke-opacity="0.1"/>
<defs>
<filter id="filter0_f_5610_14168" x="-227" y="-234" width="900.5" height="634" filterUnits="userSpaceOnUse" color-interpolation-filters="sRGB">
<feFlood flood-opacity="0" result="BackgroundImageFix"/>
<feBlend mode="normal" in="SourceGraphic" in2="BackgroundImageFix" result="shape"/>
<feGaussianBlur stdDeviation="60" result="effect1_foregroundBlur_5610_14168"/>
</filter>
<filter id="filter1_f_5610_14168" x="695" y="-47" width="900.5" height="634" filterUnits="userSpaceOnUse" color-interpolation-filters="sRGB">
<feFlood flood-opacity="0" result="BackgroundImageFix"/>
<feBlend mode="normal" in="SourceGraphic" in2="BackgroundImageFix" result="shape"/>
<feGaussianBlur stdDeviation="60" result="effect1_foregroundBlur_5610_14168"/>
</filter>
<filter id="filter2_f_5610_14168" x="31" y="233" width="166.969" height="166.969" filterUnits="userSpaceOnUse" color-interpolation-filters="sRGB">
<feFlood flood-opacity="0" result="BackgroundImageFix"/>
<feBlend mode="normal" in="SourceGraphic" in2="BackgroundImageFix" result="shape"/>
<feGaussianBlur stdDeviation="5" result="effect1_foregroundBlur_5610_14168"/>
</filter>
<filter id="filter3_f_5610_14168" x="1261.52" y="-27.4769" width="183.923" height="183.923" filterUnits="userSpaceOnUse" color-interpolation-filters="sRGB">
<feFlood flood-opacity="0" result="BackgroundImageFix"/>
<feBlend mode="normal" in="SourceGraphic" in2="BackgroundImageFix" result="shape"/>
<feGaussianBlur stdDeviation="5" result="effect1_foregroundBlur_5610_14168"/>
</filter>
<filter id="filter4_f_5610_14168" x="-61" y="-60" width="183.923" height="183.923" filterUnits="userSpaceOnUse" color-interpolation-filters="sRGB">
<feFlood flood-opacity="0" result="BackgroundImageFix"/>
<feBlend mode="normal" in="SourceGraphic" in2="BackgroundImageFix" result="shape"/>
<feGaussianBlur stdDeviation="5" result="effect1_foregroundBlur_5610_14168"/>
</filter>
<filter id="filter5_f_5610_14168" x="1000" y="260" width="166.97" height="166.969" filterUnits="userSpaceOnUse" color-interpolation-filters="sRGB">
<feFlood flood-opacity="0" result="BackgroundImageFix"/>
<feBlend mode="normal" in="SourceGraphic" in2="BackgroundImageFix" result="shape"/>
<feGaussianBlur stdDeviation="5" result="effect1_foregroundBlur_5610_14168"/>
</filter>
<filter id="filter6_f_5610_14168" x="94.2822" y="114.283" width="79.8867" height="79.8865" filterUnits="userSpaceOnUse" color-interpolation-filters="sRGB">
<feFlood flood-opacity="0" result="BackgroundImageFix"/>
<feBlend mode="normal" in="SourceGraphic" in2="BackgroundImageFix" result="shape"/>
<feGaussianBlur stdDeviation="2" result="effect1_foregroundBlur_5610_14168"/>
</filter>
<filter id="filter7_f_5610_14168" x="1249" y="201" width="72.4512" height="72.4517" filterUnits="userSpaceOnUse" color-interpolation-filters="sRGB">
<feFlood flood-opacity="0" result="BackgroundImageFix"/>
<feBlend mode="normal" in="SourceGraphic" in2="BackgroundImageFix" result="shape"/>
<feGaussianBlur stdDeviation="2" result="effect1_foregroundBlur_5610_14168"/>
</filter>
<linearGradient id="paint0_linear_5610_14168" x1="553.5" y1="280" x2="-150.081" y2="175.185" gradientUnits="userSpaceOnUse">
<stop stop-color="#8EC9ED"/>
<stop offset="1" stop-color="#BC5AD7"/>
</linearGradient>
<linearGradient id="paint1_linear_5610_14168" x1="815" y1="73" x2="1518.58" y2="177.815" gradientUnits="userSpaceOnUse">
<stop stop-color="#F71756"/>
<stop offset="1" stop-color="#FDEB56"/>
</linearGradient>
<linearGradient id="paint2_linear_5610_14168" x1="690" y1="0" x2="690" y2="363" gradientUnits="userSpaceOnUse">
<stop stop-color="white"/>
<stop offset="1" stop-color="white" stop-opacity="0"/>
</linearGradient>
<clipPath id="clip0_5610_14168">
<rect width="1380" height="363" rx="16" fill="white"/>
</clipPath>
</defs>
</svg>
