<svg width="343" height="279" viewBox="0 0 343 279" fill="none" xmlns="http://www.w3.org/2000/svg">
<g clip-path="url(#clip0_6395_13404)">
<rect y="0.764709" width="343" height="278" rx="10" fill="#2C1334"/>
<g filter="url(#filter0_f_6395_13404)">
<path d="M306.761 -46.833L376.717 -78.2352L358.062 -75.437L-34.0001 -75.4371L-34.0002 166.765L-4.15243 119.195L3.62043 63.8523L3.62043 47.6848L46.5265 6.33324L71.3996 -5.48149L118.037 -21.0272L151.615 -21.0271L169.648 -30.9764L239.604 -46.833L306.761 -46.833Z" fill="url(#paint0_linear_6395_13404)" fill-opacity="0.7"/>
</g>
<g filter="url(#filter1_f_6395_13404)">
<path d="M157.949 302.383L106 325.703L119.853 323.625H411V143.765L388.835 179.09L383.063 220.188V232.194L351.201 262.902L332.73 271.675L298.097 283.22H273.161L259.77 290.608L207.821 302.383H157.949Z" fill="url(#paint1_linear_6395_13404)" fill-opacity="0.7"/>
</g>
<g filter="url(#filter2_f_6395_13404)">
<path d="M-1.77906 226.135C-3.76536 218.722 -4.75849 215.015 -3.37959 211.972C-3.12716 211.415 -2.82061 210.884 -2.46433 210.387C-0.518209 207.671 3.18826 206.678 10.6012 204.692L21.8757 201.671C29.2887 199.684 32.995 198.691 36.0384 200.07C36.5955 200.323 37.1264 200.629 37.6236 200.985C40.3395 202.931 41.3326 206.638 43.3189 214.051C45.3052 221.464 46.2983 225.17 44.9194 228.214C44.667 228.771 44.3604 229.302 44.0042 229.799C42.058 232.515 38.3516 233.508 30.9387 235.494L19.6642 238.515C12.2512 240.501 8.54476 241.495 5.50144 240.116C4.94432 239.863 4.41336 239.557 3.9162 239.2C1.20036 237.254 0.207241 233.548 -1.77906 226.135Z" stroke="#8EC9ED" stroke-width="3.50166" stroke-linecap="round"/>
<path d="M16.2388 203.181L15.0304 198.671C14.6967 197.426 15.4357 196.146 16.6811 195.812C17.9264 195.478 18.6655 194.198 18.3318 192.953L17.7276 190.698" stroke="#8EC9ED" stroke-width="3.50166" stroke-linecap="round" stroke-linejoin="round"/>
<path d="M17.1662 224.684L12.8775 222.208M12.8775 222.208L8.58887 219.732M12.8775 222.208L10.4015 226.496M12.8775 222.208L15.3536 217.919" stroke="#8EC9ED" stroke-width="3.50166" stroke-linecap="round"/>
<path d="M32.6478 219.327L31.4395 214.817" stroke="#8EC9ED" stroke-width="3.50166" stroke-linecap="round" stroke-linejoin="round"/>
</g>
<path d="M55.9723 3.99567C55.228 1.21817 54.8559 -0.170547 55.3726 -1.31081C55.4672 -1.51956 55.582 -1.7185 55.7155 -1.90478C56.4447 -2.92234 57.8334 -3.29445 60.6109 -4.03868L64.8352 -5.17058C67.6127 -5.91481 69.0014 -6.28691 70.1417 -5.77028C70.3504 -5.67568 70.5494 -5.56082 70.7356 -5.42733C71.7532 -4.69817 72.1253 -3.30944 72.8696 -0.53195C73.6138 2.24554 73.9859 3.63425 73.4692 4.77456C73.3747 4.98327 73.2598 5.1822 73.1263 5.36846C72.3971 6.38607 71.0084 6.75817 68.2309 7.5024L64.0066 8.6343C61.2291 9.37852 59.8404 9.75063 58.7001 9.23395C58.4914 9.13939 58.2924 9.02454 58.1062 8.89108C57.0886 8.16187 56.7165 6.77316 55.9723 3.99567Z" stroke="#8EC9ED" stroke-width="1.312" stroke-linecap="round"/>
<path d="M63.0712 3.45183L61.4643 2.5241M61.4643 2.5241L59.8574 1.59637M61.4643 2.5241L60.5366 4.13097M61.4643 2.5241L62.392 0.917232" stroke="#8EC9ED" stroke-width="1.312" stroke-linecap="round"/>
<path d="M68.8717 1.44486L68.4189 -0.244873" stroke="#8EC9ED" stroke-width="1.312" stroke-linecap="round" stroke-linejoin="round"/>
<path d="M251.972 278.996C251.228 276.218 250.856 274.829 251.373 273.689C251.467 273.48 251.582 273.281 251.716 273.095C252.445 272.078 253.833 271.706 256.611 270.961L260.835 269.829C263.613 269.085 265.001 268.713 266.142 269.23C266.35 269.324 266.549 269.439 266.736 269.573C267.753 270.302 268.125 271.691 268.87 274.468C269.614 277.246 269.986 278.634 269.469 279.775C269.375 279.983 269.26 280.182 269.126 280.368C268.397 281.386 267.008 281.758 264.231 282.502L260.007 283.634C257.229 284.378 255.84 284.751 254.7 284.234C254.491 284.139 254.292 284.025 254.106 283.891C253.089 283.162 252.716 281.773 251.972 278.996Z" stroke="#8EC9ED" stroke-width="1.312" stroke-linecap="round"/>
<path d="M258.723 270.395L258.27 268.706C258.145 268.239 258.422 267.759 258.888 267.634C259.355 267.509 259.632 267.03 259.507 266.563L259.281 265.718" stroke="#8EC9ED" stroke-width="1.312" stroke-linecap="round" stroke-linejoin="round"/>
<path d="M259.071 278.452L257.464 277.524M257.464 277.524L255.857 276.596M257.464 277.524L256.537 279.131M257.464 277.524L258.392 275.917" stroke="#8EC9ED" stroke-width="1.312" stroke-linecap="round"/>
<path d="M264.872 276.445L264.419 274.755" stroke="#8EC9ED" stroke-width="1.312" stroke-linecap="round" stroke-linejoin="round"/>
<path d="M12.3104 158.746C11.8181 156.294 11.7983 154.408 11.9076 153.28C11.9627 152.71 12.2764 152.213 12.7756 151.941C15.5517 150.428 19.1395 149.466 22.3004 149.389C22.8688 149.375 23.389 149.649 23.7215 150.114C24.38 151.036 25.3059 152.68 26.1059 155.05C26.5844 156.468 25.7548 157.542 24.7564 158.433C24.1205 159 23.2623 158.059 22.6604 157.313C22.3315 156.906 21.8047 156.74 21.2948 156.876L17.3902 157.923C16.8803 158.059 16.5071 158.467 16.4259 158.984C16.2773 159.93 16.0048 161.175 15.1705 161.001C13.8738 160.732 12.6073 160.225 12.3104 158.746Z" stroke="#BC5AD7" stroke-width="1.07204" stroke-linecap="round" stroke-linejoin="round"/>
<path d="M12.2839 150.386L13.5464 149.677M21.9487 147.796L20.4755 147.821" stroke="#BC5AD7" stroke-width="1.07204" stroke-linecap="round" stroke-linejoin="round"/>
<path d="M16.6181 155.514L15.3052 154.756M15.3052 154.756L13.9922 153.998M15.3052 154.756L14.5471 156.069M15.3052 154.756L16.0632 153.443" stroke="#BC5AD7" stroke-width="1.07204" stroke-linecap="round"/>
<path d="M20.8867 152.15L20.8932 152.148" stroke="#BC5AD7" stroke-width="1.42939" stroke-linecap="round" stroke-linejoin="round"/>
<path d="M22.8232 153.851L22.8298 153.849" stroke="#BC5AD7" stroke-width="1.42939" stroke-linecap="round" stroke-linejoin="round"/>
<path d="M320.31 97.7464C319.818 95.2937 319.798 93.4077 319.908 92.2798C319.963 91.7104 320.276 91.2133 320.776 90.9411C323.552 89.4276 327.139 88.4662 330.3 88.389C330.869 88.3751 331.389 88.6487 331.721 89.1143C332.38 90.0364 333.306 91.6797 334.106 94.0499C334.584 95.4678 333.755 96.5421 332.756 97.4327C332.12 98 331.262 97.0585 330.66 96.3131C330.331 95.9059 329.805 95.7398 329.295 95.8765L325.39 96.9227C324.88 97.0593 324.507 97.4665 324.426 97.9837C324.277 98.9302 324.005 100.175 323.17 100.001C321.874 99.7319 320.607 99.2254 320.31 97.7464Z" stroke="#BC5AD7" stroke-width="1.07204" stroke-linecap="round" stroke-linejoin="round"/>
<path d="M320.284 89.3857L321.546 88.6774M329.949 86.796L328.476 86.8208" stroke="#BC5AD7" stroke-width="1.07204" stroke-linecap="round" stroke-linejoin="round"/>
<path d="M324.618 94.5137L323.305 93.7556M323.305 93.7556L321.992 92.9976M323.305 93.7556L322.547 95.0686M323.305 93.7556L324.063 92.4426" stroke="#BC5AD7" stroke-width="1.07204" stroke-linecap="round"/>
<path d="M328.887 91.15L328.893 91.1482" stroke="#BC5AD7" stroke-width="1.42939" stroke-linecap="round" stroke-linejoin="round"/>
<path d="M330.823 92.851L330.83 92.8492" stroke="#BC5AD7" stroke-width="1.42939" stroke-linecap="round" stroke-linejoin="round"/>
<g filter="url(#filter3_f_6395_13404)">
<path d="M-32.3791 11.0701C-27.8513 4.26828 -23.5409 -0.133591 -20.6836 -2.4863C-19.2411 -3.67409 -17.3685 -4.09765 -15.5868 -3.57327C-5.67927 -0.657313 4.8277 5.40889 12.3067 12.5311C13.6517 13.8119 14.2213 15.6454 13.9138 17.4885C13.305 21.1394 11.648 27.0732 8.02137 34.3953C5.85172 38.7756 1.45442 39.3405 -2.90867 39.0917C-5.68766 38.9332 -5.49528 34.7766 -5.16395 31.6647C-4.98294 29.9645 -5.81604 28.3643 -7.30926 27.5022L-18.7442 20.9003C-20.2375 20.0381 -22.0397 20.1168 -23.4217 21.1236C-25.9511 22.9664 -29.4546 25.2113 -30.9814 22.8839C-33.3541 19.2667 -35.1096 15.1719 -32.3791 11.0701Z" stroke="#BC5AD7" stroke-width="3.50166" stroke-linecap="round" stroke-linejoin="round"/>
<path d="M-13.1305 -8.30172L-8.57861 -7.02148M15.1731 8.03938L11.7134 4.69409" stroke="#BC5AD7" stroke-width="3.50166" stroke-linecap="round" stroke-linejoin="round"/>
<path d="M2.66406 15.643L2.68282 15.6538" stroke="#BC5AD7" stroke-width="4.66889" stroke-linecap="round" stroke-linejoin="round"/>
<path d="M3.20605 24.043L3.22481 24.0538" stroke="#BC5AD7" stroke-width="4.66889" stroke-linecap="round" stroke-linejoin="round"/>
</g>
<g filter="url(#filter4_f_6395_13404)">
<path d="M296.621 248.07C301.149 241.268 305.459 236.866 308.316 234.514C309.759 233.326 311.632 232.902 313.413 233.427C323.321 236.343 333.828 242.409 341.307 249.531C342.652 250.812 343.221 252.645 342.914 254.489C342.305 258.139 340.648 264.073 337.021 271.395C334.852 275.776 330.454 276.341 326.091 276.092C323.312 275.933 323.505 271.777 323.836 268.665C324.017 266.965 323.184 265.364 321.691 264.502L310.256 257.9C308.762 257.038 306.96 257.117 305.578 258.124C303.049 259.966 299.545 262.211 298.019 259.884C295.646 256.267 293.89 252.172 296.621 248.07Z" stroke="#BC5AD7" stroke-width="3.50166" stroke-linecap="round" stroke-linejoin="round"/>
<path d="M315.87 228.698L320.421 229.979M344.173 245.039L340.713 241.694" stroke="#BC5AD7" stroke-width="3.50166" stroke-linecap="round" stroke-linejoin="round"/>
<path d="M314.035 250.552L312.753 245.768M312.753 245.768L311.472 240.985M312.753 245.768L307.97 247.05M312.753 245.768L317.537 244.487" stroke="#BC5AD7" stroke-width="3.50166" stroke-linecap="round"/>
<path d="M331.664 252.643L331.683 252.654" stroke="#BC5AD7" stroke-width="4.66889" stroke-linecap="round" stroke-linejoin="round"/>
<path d="M332.206 261.043L332.225 261.054" stroke="#BC5AD7" stroke-width="4.66889" stroke-linecap="round" stroke-linejoin="round"/>
</g>
<g filter="url(#filter5_f_6395_13404)">
<path d="M13.0693 96.5061C13.7578 96.9036 14.1021 97.1024 14.3086 97.3716C14.5841 97.7306 14.7058 98.1844 14.6466 98.633C14.6024 98.9695 14.4036 99.3137 14.0061 100.002C13.6086 100.691 13.4099 101.035 13.1406 101.242C12.7816 101.517 12.3278 101.639 11.8792 101.58C11.5427 101.535 11.1985 101.337 10.51 100.939L6.07703 98.3797C5.38854 97.9822 5.04429 97.7834 4.8377 97.5141C4.56219 97.1552 4.44063 96.7014 4.49969 96.2528C4.54399 95.9163 4.74274 95.572 5.14024 94.8835C5.53775 94.195 5.7365 93.8508 6.00576 93.6442C6.36476 93.3687 6.81851 93.2471 7.26715 93.3062C7.60365 93.3505 7.94789 93.5492 8.63639 93.9467L13.0693 96.5061Z" stroke="#FDEB56" stroke-width="1.53561" stroke-linecap="round"/>
<path d="M4.3351 104.467L2.56193 103.443M2.56193 103.443L0.788758 102.419M2.56193 103.443L1.53819 105.216M2.56193 103.443L3.58567 101.67" stroke="#FDEB56" stroke-width="1.53561" stroke-linecap="round"/>
<path d="M9.14325 108.425L10.167 106.652" stroke="#FDEB56" stroke-width="1.53561" stroke-linecap="round" stroke-linejoin="round"/>
<path d="M15.2489 106.039L16.2726 104.266C18.192 100.942 19.1517 99.2794 18.9778 97.6253C18.9217 97.0911 18.7818 96.5691 18.5633 96.0784C17.8869 94.559 16.2246 93.5993 12.9002 91.68C9.57572 89.7606 7.91348 88.8009 6.25942 88.9747C5.72523 89.0309 5.2032 89.1708 4.71251 89.3892C3.19313 90.0657 2.23344 91.7279 0.31406 95.0524L-0.709682 96.8256C-2.62904 100.15 -3.58875 101.812 -3.41489 103.466C-3.35876 104.001 -3.21889 104.523 -3.00042 105.013C-2.32394 106.533 -0.661703 107.492 2.66276 109.412C5.98719 111.331 7.64945 112.291 9.30348 112.117C9.83769 112.061 10.3597 111.921 10.8504 111.702C12.3698 111.026 13.3295 109.364 15.2489 106.039Z" stroke="#FDEB56" stroke-width="1.53561" stroke-linecap="round"/>
</g>
<g filter="url(#filter6_f_6395_13404)">
<path d="M344.069 160.506C344.758 160.904 345.102 161.102 345.309 161.372C345.584 161.731 345.706 162.184 345.647 162.633C345.602 162.969 345.404 163.314 345.006 164.002C344.609 164.691 344.41 165.035 344.141 165.242C343.782 165.517 343.328 165.639 342.879 165.58C342.543 165.535 342.198 165.337 341.51 164.939L337.077 162.38C336.389 161.982 336.044 161.783 335.838 161.514C335.562 161.155 335.441 160.701 335.5 160.253C335.544 159.916 335.743 159.572 336.14 158.884C336.538 158.195 336.736 157.851 337.006 157.644C337.365 157.369 337.819 157.247 338.267 157.306C338.604 157.35 338.948 157.549 339.636 157.947L344.069 160.506Z" stroke="#FDEB56" stroke-width="1.53561" stroke-linecap="round"/>
<path d="M335.335 168.467L333.562 167.443M333.562 167.443L331.789 166.419M333.562 167.443L332.538 169.216M333.562 167.443L334.586 165.67" stroke="#FDEB56" stroke-width="1.53561" stroke-linecap="round"/>
<path d="M340.143 172.425L341.167 170.652" stroke="#FDEB56" stroke-width="1.53561" stroke-linecap="round" stroke-linejoin="round"/>
<path d="M346.249 170.039L347.273 168.266C349.192 164.942 350.152 163.279 349.978 161.625C349.922 161.091 349.782 160.569 349.563 160.078C348.887 158.559 347.225 157.599 343.9 155.68C340.576 153.761 338.913 152.801 337.259 152.975C336.725 153.031 336.203 153.171 335.713 153.389C334.193 154.066 333.233 155.728 331.314 159.052L330.29 160.826C328.371 164.15 327.411 165.812 327.585 167.466C327.641 168.001 327.781 168.523 328 169.013C328.676 170.533 330.338 171.492 333.663 173.412C336.987 175.331 338.649 176.291 340.303 176.117C340.838 176.061 341.36 175.921 341.85 175.702C343.37 175.026 344.33 173.364 346.249 170.039Z" stroke="#FDEB56" stroke-width="1.53561" stroke-linecap="round"/>
</g>
<path d="M69.5733 262.782C69.9384 262.684 70.121 262.635 70.2809 262.656C70.4943 262.685 70.6877 262.796 70.8187 262.967C70.9169 263.095 70.9659 263.278 71.0637 263.643C71.1615 264.008 71.2105 264.19 71.1894 264.35C71.1613 264.564 71.0496 264.757 70.8789 264.888C70.7509 264.986 70.5683 265.035 70.2032 265.133L67.8523 265.763C67.4871 265.861 67.3046 265.91 67.1446 265.889C66.9313 265.861 66.7378 265.749 66.6068 265.578C66.5086 265.45 66.4597 265.268 66.3618 264.903C66.264 264.537 66.2151 264.355 66.2361 264.195C66.2642 263.981 66.3759 263.788 66.5466 263.657C66.6746 263.559 66.8572 263.51 67.2223 263.412L69.5733 262.782Z" stroke="#FDEB56" stroke-width="0.730159" stroke-linecap="round"/>
<path d="M69.3134 268.395L68.373 268.647M68.373 268.647L67.4326 268.899M68.373 268.647L68.625 269.588M68.373 268.647L68.121 267.707" stroke="#FDEB56" stroke-width="0.730159" stroke-linecap="round"/>
<path d="M72.2608 268.11L72.0088 267.169" stroke="#FDEB56" stroke-width="0.730159" stroke-linecap="round" stroke-linejoin="round"/>
<path d="M73.5113 265.255L73.2593 264.314C72.7869 262.551 72.5507 261.67 71.9361 261.172C71.7377 261.011 71.5151 260.883 71.2767 260.791C70.5384 260.508 69.6568 260.744 67.8938 261.217C66.1307 261.689 65.2492 261.925 64.7515 262.54C64.5908 262.738 64.4623 262.961 64.3708 263.199C64.0874 263.937 64.3236 264.819 64.796 266.582L65.048 267.522C65.5204 269.286 65.7566 270.167 66.3711 270.665C66.5696 270.825 66.7922 270.954 67.0306 271.046C67.7689 271.329 68.6504 271.093 70.4135 270.62C72.1766 270.148 73.0581 269.912 73.5558 269.297C73.7165 269.099 73.845 268.876 73.9365 268.638C74.2199 267.899 73.9837 267.018 73.5113 265.255Z" stroke="#FDEB56" stroke-width="0.730159" stroke-linecap="round"/>
<g filter="url(#filter7_f_6395_13404)">
<path d="M321.271 33.7532C319.284 26.3403 318.291 22.6338 319.67 19.5905C319.923 19.0334 320.229 18.5024 320.585 18.0053C322.532 15.2894 326.238 14.2963 333.651 12.31L344.925 9.28901C352.338 7.30271 356.045 6.30959 359.088 7.68846C359.645 7.94092 360.176 8.24748 360.673 8.60377C363.389 10.5499 364.382 14.2563 366.369 21.6693C368.355 29.0822 369.348 32.7886 367.969 35.8321C367.717 36.3891 367.41 36.92 367.054 37.4171C365.108 40.1331 361.401 41.1262 353.988 43.1125L342.714 46.1335C335.301 48.1198 331.595 49.1129 328.551 47.7339C327.994 47.4815 327.463 47.175 326.966 46.8188C324.25 44.8726 323.257 41.1662 321.271 33.7532Z" stroke="#8EC9ED" stroke-width="3.50166" stroke-linecap="round"/>
<path d="M339.289 10.7993L338.08 6.28954C337.746 5.0442 338.485 3.76414 339.731 3.43044C340.976 3.09674 341.715 1.81668 341.382 0.571343L340.777 -1.68356" stroke="#8EC9ED" stroke-width="3.50166" stroke-linecap="round" stroke-linejoin="round"/>
<path d="M340.216 32.3021L335.927 29.826M335.927 29.826L331.639 27.35M335.927 29.826L333.451 34.1147M335.927 29.826L338.403 25.5374" stroke="#8EC9ED" stroke-width="3.50166" stroke-linecap="round"/>
</g>
</g>
<rect x="0.5" y="1.26471" width="342" height="277" rx="9.5" stroke="url(#paint2_linear_6395_13404)" stroke-opacity="0.1"/>
<defs>
<filter id="filter0_f_6395_13404" x="-108.619" y="-152.855" width="559.955" height="394.238" filterUnits="userSpaceOnUse" color-interpolation-filters="sRGB">
<feFlood flood-opacity="0" result="BackgroundImageFix"/>
<feBlend mode="normal" in="SourceGraphic" in2="BackgroundImageFix" result="shape"/>
<feGaussianBlur stdDeviation="37.3096" result="effect1_foregroundBlur_6395_13404"/>
</filter>
<filter id="filter1_f_6395_13404" x="50.5874" y="88.3521" width="415.825" height="292.763" filterUnits="userSpaceOnUse" color-interpolation-filters="sRGB">
<feFlood flood-opacity="0" result="BackgroundImageFix"/>
<feBlend mode="normal" in="SourceGraphic" in2="BackgroundImageFix" result="shape"/>
<feGaussianBlur stdDeviation="27.7063" result="effect1_foregroundBlur_6395_13404"/>
</filter>
<filter id="filter2_f_6395_13404" x="-19.7187" y="175.477" width="77.9559" height="77.9561" filterUnits="userSpaceOnUse" color-interpolation-filters="sRGB">
<feFlood flood-opacity="0" result="BackgroundImageFix"/>
<feBlend mode="normal" in="SourceGraphic" in2="BackgroundImageFix" result="shape"/>
<feGaussianBlur stdDeviation="2.33444" result="effect1_foregroundBlur_6395_13404"/>
</filter>
<filter id="filter3_f_6395_13404" x="-50.6689" y="-27.9042" width="85.872" height="85.8716" filterUnits="userSpaceOnUse" color-interpolation-filters="sRGB">
<feFlood flood-opacity="0" result="BackgroundImageFix"/>
<feBlend mode="normal" in="SourceGraphic" in2="BackgroundImageFix" result="shape"/>
<feGaussianBlur stdDeviation="2.33444" result="effect1_foregroundBlur_6395_13404"/>
</filter>
<filter id="filter4_f_6395_13404" x="278.331" y="209.096" width="85.872" height="85.8716" filterUnits="userSpaceOnUse" color-interpolation-filters="sRGB">
<feFlood flood-opacity="0" result="BackgroundImageFix"/>
<feBlend mode="normal" in="SourceGraphic" in2="BackgroundImageFix" result="shape"/>
<feGaussianBlur stdDeviation="2.33444" result="effect1_foregroundBlur_6395_13404"/>
</filter>
<filter id="filter5_f_6395_13404" x="-10.8676" y="81.8972" width="37.2986" height="37.2981" filterUnits="userSpaceOnUse" color-interpolation-filters="sRGB">
<feFlood flood-opacity="0" result="BackgroundImageFix"/>
<feBlend mode="normal" in="SourceGraphic" in2="BackgroundImageFix" result="shape"/>
<feGaussianBlur stdDeviation="0.933777" result="effect1_foregroundBlur_6395_13404"/>
</filter>
<filter id="filter6_f_6395_13404" x="320.132" y="145.897" width="37.2986" height="37.2981" filterUnits="userSpaceOnUse" color-interpolation-filters="sRGB">
<feFlood flood-opacity="0" result="BackgroundImageFix"/>
<feBlend mode="normal" in="SourceGraphic" in2="BackgroundImageFix" result="shape"/>
<feGaussianBlur stdDeviation="0.933777" result="effect1_foregroundBlur_6395_13404"/>
</filter>
<filter id="filter7_f_6395_13404" x="303.331" y="-16.9042" width="77.9559" height="77.9561" filterUnits="userSpaceOnUse" color-interpolation-filters="sRGB">
<feFlood flood-opacity="0" result="BackgroundImageFix"/>
<feBlend mode="normal" in="SourceGraphic" in2="BackgroundImageFix" result="shape"/>
<feGaussianBlur stdDeviation="2.33444" result="effect1_foregroundBlur_6395_13404"/>
</filter>
<linearGradient id="paint0_linear_6395_13404" x1="376.717" y1="166.765" x2="-60.789" y2="101.588" gradientUnits="userSpaceOnUse">
<stop stop-color="#8EC9ED"/>
<stop offset="1" stop-color="#BC5AD7"/>
</linearGradient>
<linearGradient id="paint1_linear_6395_13404" x1="106" y1="143.765" x2="430.894" y2="192.165" gradientUnits="userSpaceOnUse">
<stop stop-color="#F71756"/>
<stop offset="1" stop-color="#FDEB56"/>
</linearGradient>
<linearGradient id="paint2_linear_6395_13404" x1="171.5" y1="0.764709" x2="171.5" y2="278.765" gradientUnits="userSpaceOnUse">
<stop stop-color="white"/>
<stop offset="1" stop-color="white" stop-opacity="0"/>
</linearGradient>
<clipPath id="clip0_6395_13404">
<rect y="0.764709" width="343" height="278" rx="10" fill="white"/>
</clipPath>
</defs>
</svg>
