<svg width="30" height="30" viewBox="0 0 30 30" fill="none" xmlns="http://www.w3.org/2000/svg">
<path d="M12.5 4.15048C8.43816 3.52913 4.59201 3.57006 3.45596 4.70596C0.741077 7.42119 4.28111 25.6175 8.16871 25.239C10.3016 25.0236 11.7903 21.5984 13.5428 20.5285C14.2331 20.107 14.8451 20.5351 15.2775 21.098L19.4613 26.5435C20.1901 27.4924 20.7035 27.7747 21.8026 27.212C23.4924 26.3469 25.0981 24.7389 25.962 23.0523C26.5248 21.9535 26.2424 21.44 25.2938 20.7113L22.5 18.5649" stroke="#A99FAC" stroke-width="1.8" stroke-linecap="round" stroke-linejoin="round"/>
<path d="M21.25 6.25V8.75L23.125 10M27.5 8.75C27.5 12.2018 24.7017 15 21.25 15C17.7983 15 15 12.2018 15 8.75C15 5.29822 17.7983 2.5 21.25 2.5C24.7017 2.5 27.5 5.29822 27.5 8.75Z" stroke="#A99FAC" stroke-width="1.8" stroke-linecap="round" stroke-linejoin="round"/>
</svg>
