<svg width="282" height="223" viewBox="0 0 282 223" fill="none" xmlns="http://www.w3.org/2000/svg">
<g clip-path="url(#clip0_179_5606)">
<path d="M281.822 165.134L281.739 164.378C281.697 163.958 272.9 83.0797 272.9 83.0797C272.893 83.0423 272.885 83.0051 272.877 82.9678C264.017 39.0009 225.92 20.6058 179.448 8.45079C132.976 -3.70413 90.7217 -6.32504 61.3246 27.6356C61.2996 27.6645 61.274 27.6929 61.2489 27.7219C61.2489 27.7219 13.7068 93.8646 13.463 94.2092C13.463 94.2092 13.0186 94.8274 13.0287 94.8359C-3.41314 118.538 -4.32245 146.655 11.8487 160.051C20.9948 167.628 33.7919 168.989 46.8737 165.049C58.4708 161.557 68.6298 154.503 77.0552 145.951C77.9966 144.996 81.8042 141.044 85.3791 137.329C87.4797 135.145 90.1283 133.56 93.0504 132.739C95.9725 131.917 99.0619 131.889 101.999 132.657C121.64 137.795 165.943 149.382 185.621 154.529C188.571 155.302 191.259 156.85 193.404 159.012C195.548 161.173 197.071 163.868 197.813 166.816C201.743 182.373 206.16 197.719 217.707 209.731C227.159 219.565 238.977 224.642 250.68 222.518C271.371 218.764 284.443 193.828 281.822 165.134Z" fill="url(#paint0_linear_179_5606)"/>
<path d="M281.822 165.134L281.739 164.378C281.697 163.958 272.9 83.0797 272.9 83.0797C272.893 83.0423 272.885 83.0051 272.877 82.9678C264.017 39.0009 225.92 20.6058 179.448 8.45079C132.976 -3.70413 90.7217 -6.32504 61.3246 27.6356C61.2996 27.6645 61.274 27.6929 61.2489 27.7219C61.2489 27.7219 13.7068 93.8646 13.463 94.2092C13.463 94.2092 13.0186 94.8274 13.0287 94.8359C-3.41314 118.538 -4.32245 146.655 11.8487 160.051C20.9948 167.628 33.7919 168.989 46.8737 165.049C58.4708 161.557 68.6298 154.503 77.0552 145.951C77.9966 144.996 81.8042 141.044 85.3791 137.329C87.4797 135.145 90.1283 133.56 93.0504 132.739C95.9725 131.917 99.0619 131.889 101.999 132.657C121.64 137.795 165.943 149.382 185.621 154.529C188.571 155.302 191.259 156.85 193.404 159.012C195.548 161.173 197.071 163.868 197.813 166.816C201.743 182.373 206.16 197.719 217.707 209.731C227.159 219.565 238.977 224.642 250.68 222.518C271.371 218.764 284.443 193.828 281.822 165.134Z" fill="url(#paint1_linear_179_5606)"/>
<path d="M234.105 29.7439L186.043 65.9259C182.813 68.3577 179.071 70.0277 175.099 70.8101C171.127 71.5924 167.029 71.4667 163.112 70.4424C159.196 69.4181 155.564 67.522 152.49 64.8968C149.416 62.2715 146.98 58.9856 145.366 55.2866L121.344 0.249695C121.243 0.253248 121.144 0.260969 121.043 0.26474L145.108 55.3984C146.739 59.1364 149.201 62.4569 152.307 65.1098C155.414 67.7627 159.084 69.6788 163.041 70.7139C166.998 71.749 171.14 71.876 175.154 71.0854C179.167 70.2947 182.949 68.6071 186.213 66.1495L234.36 29.904C234.274 29.8515 234.191 29.7963 234.105 29.7439Z" fill="white"/>
<path d="M279.057 193.312C277.55 195.981 276.032 198.668 274.055 201.014C269.752 206.12 263.416 209.333 256.815 210.433C245.67 212.289 234.751 209.059 226.935 200.928C217.74 191.362 213.917 178.413 210.203 163.71C208.903 158.553 206.237 153.839 202.483 150.058C198.73 146.278 194.027 143.57 188.865 142.218L147.077 131.288L105.29 120.359C100.127 119.01 94.6953 119.067 89.562 120.523C84.4288 121.979 79.7819 124.781 76.1062 128.637C65.6214 139.626 55.907 149.034 43.1807 152.867C32.3631 156.124 21.2601 153.594 12.4676 146.523C7.25978 142.335 3.32547 136.436 2.09531 129.882C1.53027 126.872 1.53229 123.788 1.53619 120.726C1.53624 120.677 1.53536 120.628 1.53542 120.579C-1.94152 136.45 1.34955 151.354 11.8487 160.051C20.9948 167.628 33.7919 168.989 46.8737 165.049C58.4708 161.557 68.6298 154.503 77.0552 145.951C77.9966 144.996 81.8042 141.044 85.3791 137.329C87.4797 135.145 90.1282 133.56 93.0504 132.739C95.9725 131.917 99.0619 131.889 101.999 132.657C121.64 137.795 165.943 149.382 185.621 154.529C188.571 155.302 191.259 156.85 193.404 159.012C195.548 161.173 197.071 163.868 197.813 166.816C201.743 182.373 206.16 197.719 217.707 209.731C227.159 219.565 238.977 224.642 250.68 222.518C264.112 220.081 274.327 208.712 279.128 193.187C279.105 193.229 279.08 193.27 279.057 193.312Z" fill="url(#paint2_linear_179_5606)"/>
<path style="mix-blend-mode:multiply" opacity="0.3" d="M279.057 193.312C277.55 195.981 276.032 198.668 274.055 201.014C269.752 206.12 263.416 209.333 256.815 210.433C245.67 212.289 234.751 209.059 226.935 200.928C217.74 191.362 213.917 178.413 210.203 163.71C208.903 158.553 206.237 153.839 202.483 150.058C198.73 146.278 194.027 143.57 188.865 142.218L147.077 131.288L105.29 120.359C100.127 119.01 94.6953 119.067 89.562 120.523C84.4288 121.979 79.7819 124.781 76.1062 128.637C65.6214 139.626 55.907 149.034 43.1807 152.867C32.3631 156.124 21.2601 153.594 12.4676 146.523C7.25978 142.335 3.32547 136.436 2.09531 129.882C1.53027 126.872 1.53229 123.788 1.53619 120.726C1.53624 120.677 1.53536 120.628 1.53542 120.579C-1.94152 136.45 1.34955 151.354 11.8487 160.051C20.9948 167.628 33.7919 168.989 46.8737 165.049C58.4708 161.557 68.6298 154.503 77.0552 145.951C77.9966 144.996 81.8042 141.044 85.3791 137.329C87.4797 135.145 90.1282 133.56 93.0504 132.739C95.9725 131.917 99.0619 131.889 101.999 132.657C121.64 137.795 165.943 149.382 185.621 154.529C188.571 155.302 191.259 156.85 193.404 159.012C195.548 161.173 197.071 163.868 197.813 166.816C201.743 182.373 206.16 197.719 217.707 209.731C227.159 219.565 238.977 224.642 250.68 222.518C264.112 220.081 274.327 208.712 279.128 193.187C279.105 193.229 279.08 193.27 279.057 193.312Z" fill="url(#paint3_linear_179_5606)"/>
<path d="M278.752 193.539L278.68 193.666C277.188 196.337 275.646 199.1 273.666 201.484C269.543 206.449 263.458 209.847 256.532 211.05C251.679 211.931 246.692 211.753 241.915 210.527C236.172 209.013 230.972 205.919 226.911 201.599C217.796 191.956 214.042 178.833 210.402 163.926C209.149 158.674 206.492 153.857 202.713 149.987C198.933 146.117 194.173 143.338 188.937 141.945L147.149 131.016L105.361 120.086C100.113 118.736 94.5969 118.827 89.3969 120.348C84.1968 121.87 79.5072 124.765 75.8256 128.728C65.3049 139.93 55.5635 149.524 42.8701 153.463C37.2024 155.237 31.1478 155.388 25.3985 153.896C20.6334 152.626 16.2016 150.341 12.4088 147.199C6.96947 142.761 3.34443 136.824 2.2014 130.481C1.65259 127.436 1.67111 124.275 1.689 121.218L1.68896 121.143L1.6889 121.069L1.69536 119.85C1.59079 120.301 1.49951 120.75 1.4058 121.2C1.4058 121.206 1.40586 121.213 1.4058 121.219C1.38753 124.336 1.37109 127.474 1.9227 130.535C3.12372 137.2 7.03531 143.185 12.2298 147.423C16.0562 150.587 20.5232 152.889 25.3253 154.174C31.1239 155.69 37.2351 155.538 42.9508 153.737C55.7106 149.777 65.481 140.157 76.03 128.924C79.677 124.999 84.3226 122.131 89.4737 120.624C94.6249 119.117 100.09 119.027 105.288 120.364L147.076 131.293L188.864 142.223C194.051 143.603 198.766 146.355 202.51 150.189C206.254 154.022 208.886 158.794 210.127 163.998C213.777 178.944 217.543 192.105 226.705 201.798C230.795 206.165 236.044 209.288 241.842 210.805C246.658 212.036 251.685 212.216 256.577 211.333C263.192 210.184 269.55 206.884 273.882 201.667C275.872 199.271 277.405 196.529 278.926 193.805L278.934 193.792C279.074 193.354 279.217 192.916 279.349 192.471L278.752 193.539Z" fill="white"/>
<path d="M147.067 115.148C156.141 109.089 158.567 96.8494 152.485 87.8095C146.404 78.7696 134.118 76.3529 125.043 82.4116C115.969 88.4703 113.543 100.71 119.625 109.75C125.707 118.79 137.993 121.207 147.067 115.148Z" fill="url(#paint4_linear_179_5606)"/>
<path d="M137.026 118.204C147.865 117.688 156.231 108.517 155.714 97.7191C155.196 86.9214 145.99 78.5862 135.151 79.1019C124.313 79.6176 115.946 88.7889 116.464 99.5866C116.981 110.384 126.187 118.72 137.026 118.204Z" fill="url(#paint5_linear_179_5606)"/>
<path style="mix-blend-mode:multiply" opacity="0.6" d="M154.476 100.924C157.153 90.7661 151.37 80.4519 141.561 77.8862C131.751 75.3205 121.629 81.475 118.952 91.6325C116.275 101.79 122.058 112.104 131.867 114.67C141.677 117.236 151.799 111.081 154.476 100.924Z" fill="url(#paint6_linear_179_5606)"/>
<path d="M154.881 96.2627C155.506 86.4333 148.014 77.9602 138.148 77.3373C128.281 76.7145 119.776 84.1779 119.151 94.0072C118.525 103.837 126.017 112.31 135.884 112.933C145.75 113.555 154.255 106.092 154.881 96.2627Z" fill="url(#paint7_linear_179_5606)"/>
<path d="M153.176 99.5513C156.21 90.813 151.558 81.2792 142.787 78.257C134.015 75.2348 124.446 79.8685 121.412 88.6068C118.378 97.3451 123.03 106.879 131.801 109.901C140.572 112.923 150.142 108.29 153.176 99.5513Z" fill="#3D2644"/>
<path d="M142.376 105.018C148.44 102.222 151.081 95.0578 148.274 89.0166C145.468 82.9754 138.276 80.3446 132.212 83.1406C126.148 85.9365 123.508 93.1005 126.314 99.1417C129.121 105.183 136.312 107.814 142.376 105.018Z" fill="url(#paint8_linear_179_5606)"/>
<path d="M142.671 104.576C148.491 101.617 150.801 94.5191 147.831 88.7219C144.861 82.9246 137.736 80.6235 131.917 83.5822C126.097 86.5409 123.787 93.639 126.757 99.4363C129.727 105.234 136.852 107.535 142.671 104.576Z" fill="url(#paint9_linear_179_5606)"/>
<path d="M207.068 79.1646C212.723 78.9781 217.155 74.2598 216.968 68.6262C216.781 62.9925 212.045 58.5768 206.39 58.7634C200.735 58.95 196.302 63.6681 196.489 69.3018C196.677 74.9354 201.413 79.3512 207.068 79.1646Z" fill="url(#paint10_linear_179_5606)"/>
<path d="M208.536 78.7303C214.028 77.7559 217.687 72.5309 216.709 67.06C215.731 61.5891 210.486 57.9439 204.994 58.9183C199.503 59.8928 195.844 65.1178 196.822 70.5887C197.8 76.0596 203.045 79.7048 208.536 78.7303Z" fill="url(#paint11_linear_179_5606)"/>
<path d="M211.607 75.4336C215.873 72.9271 217.293 67.4492 214.777 63.1985C212.261 58.9478 206.762 57.5338 202.495 60.0404C198.228 62.5469 196.809 68.0248 199.325 72.2755C201.841 76.5262 207.34 77.9401 211.607 75.4336Z" fill="#FDEB56"/>
<path d="M211.019 73.5968C214.637 71.5095 215.872 66.8955 213.777 63.291C211.682 59.6866 207.05 58.4566 203.432 60.5438C199.814 62.631 198.579 67.2451 200.674 70.8495C202.77 74.454 207.401 75.684 211.019 73.5968Z" fill="url(#paint12_linear_179_5606)"/>
<path d="M212.804 72.0445C215.592 68.9844 215.363 64.2516 212.291 61.4735C209.219 58.6954 204.469 58.924 201.68 61.9841C198.891 65.0442 199.121 69.777 202.193 72.5551C205.264 75.3332 210.015 75.1046 212.804 72.0445Z" fill="#FDEB56"/>
<path d="M244.681 89.0839C250.339 89.0568 254.904 84.4654 254.877 78.8287C254.849 73.192 250.241 68.6446 244.583 68.6717C238.925 68.6988 234.36 73.2902 234.387 78.9269C234.414 84.5636 239.023 89.111 244.681 89.0839Z" fill="url(#paint13_linear_179_5606)"/>
<path d="M246.197 88.6842C251.711 87.8434 255.497 82.7088 254.653 77.2158C253.809 71.7228 248.655 67.9514 243.141 68.7922C237.627 69.6329 233.841 74.7675 234.685 80.2605C235.529 85.7536 240.683 89.525 246.197 88.6842Z" fill="url(#paint14_linear_179_5606)"/>
<path d="M248.26 85.9549C252.865 84.137 255.119 78.9442 253.294 74.3566C251.469 69.769 246.257 67.5237 241.652 69.3417C237.047 71.1596 234.793 76.3524 236.618 80.9401C238.443 85.5277 243.655 87.7729 248.26 85.9549Z" fill="#FDEB56"/>
<path d="M252.453 78.8995C252.833 77.4568 252.775 75.9342 252.287 74.5242C251.799 73.1141 250.901 71.88 249.709 70.978C248.517 70.0759 247.082 69.5464 245.588 69.4564C244.093 69.3663 242.606 69.7198 241.313 70.4722C240.02 71.2245 238.98 72.3418 238.324 73.6829C237.669 75.0241 237.427 76.5287 237.63 78.0065C237.833 79.4844 238.472 80.8691 239.464 81.9856C240.457 83.102 241.76 83.9001 243.208 84.2789C245.15 84.7868 247.215 84.5054 248.949 83.4966C250.683 82.4878 251.943 80.8342 252.453 78.8995Z" fill="url(#paint15_linear_179_5606)"/>
<path d="M252.411 78.8285C252.789 77.3969 252.731 75.886 252.247 74.4869C251.762 73.0877 250.872 71.8632 249.688 70.9681C248.505 70.073 247.082 69.5476 245.599 69.4582C244.116 69.3689 242.64 69.7197 241.357 70.4662C240.074 71.2127 239.042 72.3214 238.392 73.6522C237.741 74.9829 237.502 76.4759 237.703 77.9424C237.904 79.4088 238.538 80.7828 239.523 81.8907C240.508 82.9985 241.801 83.7905 243.238 84.1663C245.165 84.6703 247.214 84.3911 248.934 83.3901C250.655 82.389 251.905 80.7481 252.411 78.8285Z" fill="#FDEB56"/>
<path d="M240.67 58.2344C241.894 52.731 238.407 47.2817 232.883 46.063C227.358 44.8444 221.888 48.3178 220.665 53.8212C219.442 59.3247 222.929 64.7741 228.453 65.9927C233.977 67.2114 239.447 63.7379 240.67 58.2344Z" fill="url(#paint16_linear_179_5606)"/>
<path d="M235.766 64.5984C240.594 61.8144 242.242 55.6587 239.447 50.8494C236.653 46.0401 230.474 44.3983 225.646 47.1823C220.819 49.9664 219.171 56.122 221.965 60.9313C224.76 65.7406 230.939 67.3824 235.766 64.5984Z" fill="url(#paint17_linear_179_5606)"/>
<path d="M237.126 61.3209C240.74 57.9471 240.925 52.2928 237.539 48.6916C234.152 45.0904 228.476 44.906 224.862 48.2798C221.247 51.6536 221.062 57.308 224.448 60.9092C227.835 64.5104 233.511 64.6947 237.126 61.3209Z" fill="#FDEB56"/>
<path d="M238.49 56.0516C238.87 54.6089 238.813 53.0862 238.324 51.6762C237.836 50.2662 236.939 49.0321 235.746 48.1301C234.554 47.228 233.12 46.6985 231.625 46.6084C230.13 46.5184 228.643 46.8719 227.35 47.6242C226.057 48.3765 225.017 49.4939 224.362 50.835C223.706 52.1761 223.465 53.6807 223.668 55.1586C223.87 56.6364 224.509 58.0211 225.502 59.1376C226.495 60.2541 227.797 61.0522 229.246 61.431C230.207 61.6825 231.209 61.7428 232.194 61.6086C233.179 61.4744 234.128 61.1482 234.986 60.6487C235.845 60.1491 236.596 59.4861 237.197 58.6973C237.798 57.9085 238.238 57.0095 238.49 56.0516Z" fill="url(#paint18_linear_179_5606)"/>
<path d="M231.382 61.5611C235.529 61.4518 238.802 58.014 238.693 53.8824C238.583 49.7508 235.132 46.4901 230.985 46.5993C226.838 46.7086 223.564 50.1465 223.674 54.2781C223.784 58.4096 227.235 61.6704 231.382 61.5611Z" fill="#FDEB56"/>
<path d="M225.048 101.445C230.29 99.3241 232.814 93.3709 230.685 88.1485C228.555 82.9261 222.58 80.4121 217.338 82.5333C212.095 84.6545 209.572 90.6077 211.701 95.8301C213.83 101.052 219.806 103.566 225.048 101.445Z" fill="url(#paint19_linear_179_5606)"/>
<path d="M231.123 93.8717C232.244 88.4281 228.723 83.1098 223.259 81.993C217.795 80.8762 212.456 84.3838 211.335 89.8275C210.214 95.2711 213.735 100.589 219.2 101.706C224.664 102.823 230.002 99.3154 231.123 93.8717Z" fill="url(#paint20_linear_179_5606)"/>
<path d="M229.437 94.9523C231.761 90.5945 230.099 85.1848 225.725 82.8693C221.35 80.5539 215.92 82.2096 213.596 86.5674C211.272 90.9252 212.934 96.3349 217.308 98.6503C221.682 100.966 227.113 99.31 229.437 94.9523Z" fill="#F71756"/>
<path d="M222.534 97.5908C226.689 97.1276 229.681 93.3965 229.216 89.2571C228.751 85.1178 225.005 82.1377 220.85 82.6009C216.695 83.0641 213.704 86.7952 214.169 90.9346C214.634 95.0739 218.379 98.054 222.534 97.5908Z" fill="url(#paint21_linear_179_5606)"/>
<path d="M229.214 90.2908C229.353 86.1601 226.105 82.699 221.958 82.5602C217.812 82.4215 214.338 85.6577 214.198 89.7884C214.059 93.9191 217.308 97.3801 221.454 97.5188C225.6 97.6576 229.074 94.4215 229.214 90.2908Z" fill="#F71756"/>
<path opacity="0.15" d="M246.994 47.2355C246.647 47.1447 246.329 46.9675 246.07 46.7207C243.099 43.908 239.93 41.3119 236.586 38.9526C222.782 29.2014 204.112 21.4577 177.832 14.5841C151.551 7.71043 131.471 5.3187 114.639 7.05695C110.564 7.4755 106.524 8.18531 102.551 9.18091C102.281 9.2489 102 9.26322 101.725 9.22308C101.449 9.18293 101.184 9.0891 100.945 8.94692C100.705 8.80475 100.497 8.61704 100.33 8.39448C100.164 8.17193 100.043 7.91888 99.9748 7.64982C99.9065 7.38077 99.8922 7.10096 99.9325 6.82637C99.9728 6.55177 100.067 6.28778 100.21 6.04945C100.352 5.81112 100.541 5.60311 100.764 5.43733C100.988 5.27155 101.242 5.15124 101.512 5.08325C105.682 4.03718 109.923 3.29153 114.202 2.85214C131.558 1.05966 152.119 3.48802 178.909 10.4952C205.7 17.5024 224.806 25.4491 239.04 35.504C242.552 37.9814 245.88 40.7074 248.998 43.6609C249.339 43.9845 249.562 44.4117 249.632 44.8754C249.702 45.339 249.616 45.8128 249.386 46.2221C249.157 46.6315 248.797 46.9531 248.364 47.1366C247.931 47.3201 247.449 47.3549 246.994 47.2355Z" fill="white"/>
<path d="M108.47 65.4995C121.949 61.0674 129.27 46.5884 124.821 33.1599C120.372 19.7313 105.838 12.4384 92.3587 16.8705C78.8794 21.3027 71.5587 35.7816 76.0077 49.2102C80.4566 62.6387 94.9904 69.9317 108.47 65.4995Z" fill="url(#paint22_linear_179_5606)"/>
<path d="M120.957 46.2571C123.939 34.9418 117.193 23.372 105.889 20.4151C94.5846 17.4582 83.0032 24.234 80.0209 35.5492C77.0387 46.8645 83.7849 58.4343 95.089 61.3912C106.393 64.3481 117.974 57.5723 120.957 46.2571Z" fill="url(#paint23_linear_179_5606)"/>
<path d="M108.983 59.8048C119.604 55.1684 124.441 42.8323 119.787 32.2513C115.133 21.6704 102.751 16.8513 92.1295 21.4877C81.5085 26.1241 76.6712 38.4603 81.3252 49.0413C85.9791 59.6222 98.362 64.4412 108.983 59.8048Z" fill="#533E59"/>
<path opacity="0.1" d="M86.202 28.0831C86.1048 28.0575 86.0158 28.0074 85.9437 27.9375C85.8716 27.8677 85.8188 27.7805 85.7904 27.6844C85.762 27.5883 85.759 27.4865 85.7816 27.3889C85.8042 27.2913 85.8517 27.2012 85.9195 27.1272C87.7804 25.1241 90.0376 23.5267 92.549 22.4358C95.0603 21.3449 97.7712 20.7841 100.511 20.7888C103.251 20.7936 105.96 21.3637 108.467 22.4632C110.975 23.5628 113.226 25.1679 115.08 27.1775C115.185 27.2913 115.24 27.4417 115.233 27.5957C115.226 27.7497 115.158 27.8948 115.044 27.999C114.93 28.1032 114.779 28.1581 114.624 28.1515C114.47 28.145 114.324 28.0776 114.219 27.9641C112.475 26.0735 110.356 24.5634 107.997 23.5288C105.638 22.4942 103.089 21.9576 100.511 21.9528C97.9338 21.948 95.383 22.4751 93.0199 23.5009C90.6568 24.5268 88.5326 26.029 86.7811 27.9131C86.7094 27.9915 86.6175 28.0487 86.5154 28.0787C86.4133 28.1086 86.3049 28.1101 86.202 28.0831Z" fill="white"/>
<path d="M250.502 104.388C250.845 103.089 250.793 101.717 250.352 100.446C249.912 99.1762 249.104 98.0644 248.03 97.2517C246.955 96.439 245.663 95.962 244.317 95.8809C242.97 95.7997 241.63 96.1182 240.465 96.796C239.301 97.4738 238.364 98.4805 237.773 99.6887C237.183 100.897 236.965 102.252 237.148 103.584C237.331 104.915 237.906 106.163 238.8 107.169C239.695 108.175 240.869 108.894 242.173 109.235C243.04 109.461 243.942 109.516 244.83 109.395C245.717 109.274 246.572 108.98 247.345 108.53C248.119 108.08 248.795 107.483 249.337 106.772C249.879 106.061 250.275 105.251 250.502 104.388Z" fill="url(#paint24_linear_179_5606)"/>
<path d="M250.433 104.271C250.771 102.99 250.72 101.637 250.286 100.385C249.852 99.1327 249.055 98.0366 247.996 97.2354C246.937 96.4342 245.663 95.9639 244.336 95.8839C243.008 95.804 241.687 96.1179 240.539 96.7861C239.39 97.4543 238.467 98.4467 237.885 99.6379C237.302 100.829 237.088 102.165 237.268 103.478C237.448 104.791 238.015 106.02 238.897 107.012C239.779 108.004 240.936 108.713 242.222 109.049C243.947 109.5 245.781 109.25 247.321 108.354C248.861 107.458 249.98 105.989 250.433 104.271Z" fill="url(#paint25_linear_179_5606)"/>
<path d="M249.143 105.061C250.926 102.298 250.123 98.6175 247.349 96.841C244.575 95.0646 240.881 95.8646 239.098 98.628C237.315 101.391 238.118 105.072 240.892 106.848C243.666 108.625 247.36 107.825 249.143 105.061Z" fill="#200B26"/>
<path d="M249.111 102.677C249.365 101.717 249.326 100.703 249.001 99.7647C248.676 98.826 248.079 98.0044 247.285 97.4039C246.491 96.8034 245.536 96.4509 244.541 96.391C243.546 96.3311 242.556 96.5664 241.695 97.0672C240.834 97.5681 240.142 98.3119 239.706 99.2047C239.269 100.098 239.109 101.099 239.244 102.083C239.379 103.067 239.804 103.989 240.465 104.732C241.126 105.475 241.993 106.007 242.957 106.259C243.597 106.426 244.264 106.466 244.92 106.377C245.576 106.288 246.207 106.07 246.779 105.738C247.35 105.405 247.85 104.964 248.251 104.439C248.651 103.914 248.943 103.315 249.111 102.677Z" fill="#3D2644"/>
<path d="M5.3125 109.215L58.746 72.1791C61.726 70.1143 63.9812 67.1708 65.1944 63.7627C66.4076 60.3545 66.5177 56.6532 65.5093 53.1794L59.0527 30.8941L59.0287 30.8111C58.9715 30.8906 58.9136 30.9712 58.8545 31.0535L65.2838 53.2438C66.2784 56.6709 66.1697 60.3223 64.9729 63.6846C63.776 67.0469 61.5514 69.9508 58.6117 71.988L5.23428 108.985C5.17908 109.117 5.12756 109.249 5.07324 109.38L5.3125 109.215Z" fill="url(#paint26_linear_179_5606)"/>
<path d="M281.455 181.441L253.174 123.033C251.597 119.776 251.084 116.108 251.707 112.546C252.331 108.984 254.06 105.706 256.652 103.174L273.264 86.922L273.326 86.8615C273.337 86.9587 273.347 87.0572 273.358 87.1579L256.816 103.34C254.26 105.838 252.554 109.072 251.939 112.586C251.323 116.101 251.829 119.719 253.385 122.932L281.636 181.279C281.619 181.421 281.599 181.561 281.581 181.702L281.455 181.441Z" fill="url(#paint27_linear_179_5606)"/>
<path d="M58.6552 71.8829C61.586 69.8456 63.8039 66.9462 64.9983 63.5906C66.1926 60.2351 66.3037 56.5914 65.3159 53.1698L58.9089 30.9774C49.3481 44.2789 13.6743 93.9107 13.4631 94.2091C13.4631 94.2091 13.0187 94.8273 13.0288 94.8357C9.93416 99.2825 7.31557 104.04 5.21582 109.03L58.6552 71.8829Z" fill="url(#paint28_linear_179_5606)"/>
<path d="M281.822 165.134L281.74 164.378C281.703 164.013 275.063 102.963 273.318 86.9163L256.681 103.222C254.134 105.719 252.434 108.947 251.819 112.454C251.205 115.962 251.707 119.573 253.256 122.781L281.596 181.519C282.253 176.08 282.328 170.588 281.822 165.134Z" fill="url(#paint29_linear_179_5606)"/>
<path d="M117.914 42.1168L105.683 38.918L108.762 27.237C107.578 26.2135 106.175 25.475 104.659 25.0785C103.143 24.6821 101.556 24.6384 100.021 24.9508L96.9424 36.6318L84.712 33.4329C83.6765 34.5319 82.933 35.8711 82.5488 37.3289C82.1646 38.7868 82.1519 40.3171 82.5119 41.781L94.7424 44.98L91.664 56.6609C92.8473 57.6844 94.2512 58.4229 95.7669 58.8193C97.2826 59.2158 98.8695 59.2595 100.405 58.9471L103.483 47.2661L115.714 50.465C116.749 49.366 117.493 48.0269 117.877 46.569C118.261 45.1112 118.274 43.5808 117.914 42.1168Z" fill="url(#paint30_linear_179_5606)"/>
<path d="M118.302 40.6432L106.072 37.4443L109.283 25.2601C108.115 24.2108 106.712 23.4556 105.191 23.0578C103.671 22.6601 102.076 22.6312 100.542 22.9738L97.3309 35.1581L85.1004 31.9593C84.0472 33.1224 83.2891 34.52 82.8898 36.0351C82.4905 37.5503 82.4616 39.1386 82.8056 40.6672L95.036 43.8661L91.825 56.0504C92.9925 57.0996 94.3955 57.8548 95.9163 58.2526C97.4371 58.6504 99.0315 58.6792 100.566 58.3366L103.777 46.1523L116.007 49.3512C117.061 48.1881 117.819 46.7904 118.218 45.2753C118.617 43.7602 118.646 42.1718 118.302 40.6432Z" fill="url(#paint31_linear_179_5606)"/>
<path d="M104.468 24.8026L101.366 27.2211C101.319 27.2578 101.283 27.3068 101.263 27.3627C101.242 27.4185 101.238 27.479 101.25 27.5372C101.262 27.5955 101.29 27.6493 101.331 27.6924C101.372 27.7356 101.425 27.7665 101.482 27.7816L106.094 28.9877C106.152 29.0028 106.212 29.0015 106.27 28.9841C106.327 28.9666 106.378 28.9336 106.417 28.8887C106.456 28.8439 106.482 28.789 106.492 28.7303C106.501 28.6715 106.494 28.6113 106.471 28.5563L104.962 24.9318C104.943 24.8863 104.914 24.8458 104.877 24.8134C104.839 24.7811 104.795 24.7577 104.747 24.7452C104.699 24.7327 104.649 24.7314 104.601 24.7413C104.553 24.7513 104.507 24.7723 104.468 24.8026Z" fill="url(#paint32_linear_179_5606)"/>
<path d="M96.5091 57.0035L99.6111 54.5851C99.6581 54.5484 99.694 54.4994 99.7145 54.4435C99.7351 54.3877 99.7396 54.3272 99.7275 54.2689C99.7155 54.2106 99.6873 54.1569 99.6462 54.1137C99.6051 54.0706 99.5527 54.0397 99.495 54.0246L94.8835 52.8184C94.8257 52.8033 94.7649 52.8045 94.7078 52.822C94.6507 52.8395 94.5997 52.8726 94.5604 52.9174C94.5212 52.9623 94.4953 53.0171 94.4856 53.0758C94.476 53.1346 94.483 53.1948 94.5059 53.2497L96.0154 56.8744C96.0343 56.9198 96.0635 56.9603 96.1008 56.9927C96.138 57.025 96.1823 57.0484 96.2301 57.0609C96.2779 57.0734 96.328 57.0747 96.3764 57.0647C96.4248 57.0548 96.4702 57.0338 96.5091 57.0035Z" fill="url(#paint33_linear_179_5606)"/>
<path d="M116.65 44.8672L114.222 41.7769C114.186 41.73 114.136 41.6944 114.08 41.6739C114.024 41.6534 113.963 41.6489 113.905 41.661C113.847 41.673 113.793 41.7011 113.749 41.742C113.706 41.7829 113.675 41.8351 113.66 41.8927L112.449 46.4867C112.434 46.5443 112.435 46.6049 112.453 46.6618C112.47 46.7186 112.503 46.7695 112.548 46.8086C112.593 46.8477 112.648 46.8735 112.707 46.8831C112.766 46.8927 112.827 46.8857 112.882 46.8629L116.52 45.3591C116.566 45.3402 116.607 45.3111 116.639 45.274C116.672 45.2369 116.695 45.1928 116.708 45.1452C116.72 45.0976 116.721 45.0477 116.711 44.9995C116.701 44.9512 116.68 44.906 116.65 44.8672Z" fill="url(#paint34_linear_179_5606)"/>
<path d="M84.3269 36.9389L86.7545 40.0292C86.7914 40.076 86.8406 40.1117 86.8966 40.1322C86.9527 40.1527 87.0134 40.1572 87.0719 40.1451C87.1304 40.1331 87.1843 40.105 87.2277 40.0641C87.271 40.0231 87.302 39.971 87.3171 39.9134L88.5278 35.3194C88.543 35.2618 88.5417 35.2012 88.5242 35.1443C88.5066 35.0875 88.4735 35.0366 88.4285 34.9975C88.3835 34.9584 88.3284 34.9326 88.2694 34.923C88.2105 34.9134 88.15 34.9204 88.0949 34.9432L84.4566 36.4469C84.4109 36.4658 84.3702 36.4949 84.3377 36.532C84.3053 36.5692 84.2819 36.6133 84.2693 36.6609C84.2567 36.7085 84.2554 36.7584 84.2654 36.8066C84.2754 36.8548 84.2965 36.9001 84.3269 36.9389Z" fill="url(#paint35_linear_179_5606)"/>
<path opacity="0.1" d="M98.2119 37.1027L91.8423 35.4368C91.7302 35.4071 91.6345 35.3344 91.5761 35.2345C91.5177 35.1347 91.5015 35.0158 91.531 34.9041C91.5604 34.7923 91.6331 34.6967 91.7332 34.6383C91.8333 34.5799 91.9525 34.5634 92.0648 34.5924L98.0107 36.1475L99.7109 29.6959C99.7255 29.6404 99.7508 29.5883 99.7856 29.5425C99.8204 29.4968 99.8639 29.4583 99.9136 29.4293C99.9633 29.4003 100.018 29.3814 100.075 29.3736C100.132 29.3658 100.19 29.3693 100.246 29.3838C100.302 29.3984 100.354 29.4238 100.4 29.4585C100.446 29.4932 100.484 29.5366 100.513 29.5862C100.542 29.6357 100.561 29.6905 100.569 29.7474C100.577 29.8042 100.573 29.8621 100.558 29.9176L98.7469 36.7914C98.7174 36.9033 98.6444 36.999 98.5441 37.0574C98.4438 37.1158 98.3243 37.1321 98.2119 37.1027Z" fill="white"/>
<path opacity="0.1" d="M111.122 40.4794L106.086 39.1624C105.974 39.1328 105.879 39.06 105.82 38.9602C105.762 38.8603 105.746 38.7415 105.775 38.6297C105.805 38.518 105.877 38.4224 105.977 38.364C106.077 38.3056 106.197 38.289 106.309 38.3181L111.344 39.6352C111.456 39.6648 111.552 39.7376 111.611 39.8374C111.669 39.9372 111.685 40.056 111.656 40.1678C111.626 40.2795 111.553 40.375 111.453 40.4335C111.353 40.4919 111.234 40.5084 111.122 40.4794Z" fill="white"/>
<path opacity="0.1" d="M100.594 52.7708C100.482 52.7413 100.386 52.6687 100.327 52.5687C100.269 52.4688 100.252 52.3497 100.282 52.2377L101.604 47.2224C101.633 47.1107 101.706 47.0152 101.807 46.957C101.907 46.8987 102.026 46.8825 102.138 46.9119C102.251 46.9412 102.347 47.0138 102.405 47.1136C102.464 47.2133 102.48 47.3322 102.451 47.4441L101.129 52.4594C101.1 52.5714 101.027 52.6671 100.927 52.7255C100.826 52.7838 100.707 52.8001 100.594 52.7708Z" fill="white"/>
</g>
<defs>
<linearGradient id="paint0_linear_179_5606" x1="257.601" y1="66.9482" x2="37.3278" y2="189.687" gradientUnits="userSpaceOnUse">
<stop stop-color="#E36EFF"/>
<stop offset="1" stop-color="#6A21F7"/>
</linearGradient>
<linearGradient id="paint1_linear_179_5606" x1="0.196289" y1="0.170776" x2="303.378" y2="34.2631" gradientUnits="userSpaceOnUse">
<stop stop-color="#F71756"/>
<stop offset="1" stop-color="#FDEB56"/>
</linearGradient>
<linearGradient id="paint2_linear_179_5606" x1="0.203125" y1="119.388" x2="287.474" y2="188.113" gradientUnits="userSpaceOnUse">
<stop stop-color="#F71756"/>
<stop offset="1" stop-color="#FDEB56"/>
</linearGradient>
<linearGradient id="paint3_linear_179_5606" x1="31.2082" y1="134.504" x2="248.912" y2="191.87" gradientUnits="userSpaceOnUse">
<stop stop-color="white"/>
<stop offset="0.5"/>
<stop offset="0.54256" stop-color="#080808"/>
<stop offset="0.61044" stop-color="#202020"/>
<stop offset="0.69516" stop-color="#464646"/>
<stop offset="0.79341" stop-color="#7A7A7A"/>
<stop offset="0.90157" stop-color="#BCBCBC"/>
<stop offset="1" stop-color="white"/>
</linearGradient>
<linearGradient id="paint4_linear_179_5606" x1="121.851" y1="112.328" x2="146.79" y2="88.3554" gradientUnits="userSpaceOnUse">
<stop stop-color="#E36EFF"/>
<stop offset="1" stop-color="#6A21F7"/>
</linearGradient>
<linearGradient id="paint5_linear_179_5606" x1="115.526" y1="80.0356" x2="158.109" y2="81.7852" gradientUnits="userSpaceOnUse">
<stop stop-color="#F71756"/>
<stop offset="1" stop-color="#FDEB56"/>
</linearGradient>
<linearGradient id="paint6_linear_179_5606" x1="132.534" y1="114.728" x2="137.127" y2="94.3761" gradientUnits="userSpaceOnUse">
<stop stop-color="white"/>
<stop offset="0.11405" stop-color="#FBFBFB"/>
<stop offset="0.23829" stop-color="#EDEDED"/>
<stop offset="0.36737" stop-color="#D8D8D8"/>
<stop offset="0.49974" stop-color="#B9B9B9"/>
<stop offset="0.63476" stop-color="#929292"/>
<stop offset="0.7719" stop-color="#626262"/>
<stop offset="0.90822" stop-color="#2A2A2A"/>
<stop offset="1"/>
</linearGradient>
<linearGradient id="paint7_linear_179_5606" x1="138.694" y1="89.8554" x2="131.992" y2="111.306" gradientUnits="userSpaceOnUse">
<stop stop-color="#371989"/>
<stop offset="1" stop-color="#1B0C44"/>
</linearGradient>
<linearGradient id="paint8_linear_179_5606" x1="132.647" y1="104.453" x2="142.167" y2="83.127" gradientUnits="userSpaceOnUse">
<stop stop-color="#371989"/>
<stop offset="1" stop-color="#1B0C44"/>
</linearGradient>
<linearGradient id="paint9_linear_179_5606" x1="121.38" y1="88.9395" x2="145.153" y2="79.3175" gradientUnits="userSpaceOnUse">
<stop stop-color="#F71756"/>
<stop offset="1" stop-color="#FDEB56"/>
</linearGradient>
<linearGradient id="paint10_linear_179_5606" x1="197.714" y1="73.0859" x2="210.419" y2="67.2333" gradientUnits="userSpaceOnUse">
<stop stop-color="#E36EFF"/>
<stop offset="1" stop-color="#6A21F7"/>
</linearGradient>
<linearGradient id="paint11_linear_179_5606" x1="195.051" y1="60.6827" x2="216.874" y2="58.7582" gradientUnits="userSpaceOnUse">
<stop stop-color="#F71756"/>
<stop offset="1" stop-color="#FDEB56"/>
</linearGradient>
<linearGradient id="paint12_linear_179_5606" x1="200.846" y1="69.7428" x2="214.597" y2="63.9826" gradientUnits="userSpaceOnUse">
<stop stop-color="#FFB6C9"/>
<stop offset="1" stop-color="#FF78C8"/>
</linearGradient>
<linearGradient id="paint13_linear_179_5606" x1="235.615" y1="83.0016" x2="248.321" y2="77.1491" gradientUnits="userSpaceOnUse">
<stop stop-color="#E36EFF"/>
<stop offset="1" stop-color="#6A21F7"/>
</linearGradient>
<linearGradient id="paint14_linear_179_5606" x1="233.157" y1="70.3145" x2="255.021" y2="68.9245" gradientUnits="userSpaceOnUse">
<stop stop-color="#F71756"/>
<stop offset="1" stop-color="#FDEB56"/>
</linearGradient>
<linearGradient id="paint15_linear_179_5606" x1="238.738" y1="79.6422" x2="252.489" y2="73.8821" gradientUnits="userSpaceOnUse">
<stop stop-color="#FFB6C9"/>
<stop offset="1" stop-color="#FF78C8"/>
</linearGradient>
<linearGradient id="paint16_linear_179_5606" x1="221.664" y1="60.1653" x2="234.369" y2="54.3125" gradientUnits="userSpaceOnUse">
<stop stop-color="#E36EFF"/>
<stop offset="1" stop-color="#6A21F7"/>
</linearGradient>
<linearGradient id="paint17_linear_179_5606" x1="216.905" y1="52.2233" x2="236.736" y2="42.9461" gradientUnits="userSpaceOnUse">
<stop stop-color="#F71756"/>
<stop offset="1" stop-color="#FDEB56"/>
</linearGradient>
<linearGradient id="paint18_linear_179_5606" x1="224.775" y1="56.7942" x2="238.526" y2="51.0341" gradientUnits="userSpaceOnUse">
<stop stop-color="#FFB6C9"/>
<stop offset="1" stop-color="#FF78C8"/>
</linearGradient>
<linearGradient id="paint19_linear_179_5606" x1="212.189" y1="96.1277" x2="224.894" y2="90.275" gradientUnits="userSpaceOnUse">
<stop stop-color="#E36EFF"/>
<stop offset="1" stop-color="#6A21F7"/>
</linearGradient>
<linearGradient id="paint20_linear_179_5606" x1="209.306" y1="99.6841" x2="215.548" y2="78.7625" gradientUnits="userSpaceOnUse">
<stop stop-color="#F71756"/>
<stop offset="1" stop-color="#FDEB56"/>
</linearGradient>
<linearGradient id="paint21_linear_179_5606" x1="215.313" y1="92.7691" x2="229.065" y2="87.0088" gradientUnits="userSpaceOnUse">
<stop stop-color="#99F1FF"/>
<stop offset="1" stop-color="#39AFFF"/>
</linearGradient>
<linearGradient id="paint22_linear_179_5606" x1="67.9521" y1="24.8957" x2="122.212" y2="12.1335" gradientUnits="userSpaceOnUse">
<stop stop-color="#F71756"/>
<stop offset="1" stop-color="#FDEB56"/>
</linearGradient>
<linearGradient id="paint23_linear_179_5606" x1="88.42" y1="57.7996" x2="109.561" y2="28.0276" gradientUnits="userSpaceOnUse">
<stop stop-color="#371989"/>
<stop offset="1" stop-color="#1B0C44"/>
</linearGradient>
<linearGradient id="paint24_linear_179_5606" x1="237.902" y1="105.408" x2="246.36" y2="101.512" gradientUnits="userSpaceOnUse">
<stop stop-color="#E36EFF"/>
<stop offset="1" stop-color="#6A21F7"/>
</linearGradient>
<linearGradient id="paint25_linear_179_5606" x1="237.206" y1="95.8717" x2="251.733" y2="97.1675" gradientUnits="userSpaceOnUse">
<stop stop-color="#F71756"/>
<stop offset="1" stop-color="#FDEB56"/>
</linearGradient>
<linearGradient id="paint26_linear_179_5606" x1="69.4177" y1="39.6681" x2="7.91779" y2="111.806" gradientUnits="userSpaceOnUse">
<stop stop-color="#FFB6C9"/>
<stop offset="1" stop-color="#FF78C8"/>
</linearGradient>
<linearGradient id="paint27_linear_179_5606" x1="259.909" y1="89.4931" x2="278.128" y2="182.38" gradientUnits="userSpaceOnUse">
<stop stop-color="#FFB6C9"/>
<stop offset="1" stop-color="#FF78C8"/>
</linearGradient>
<linearGradient id="paint28_linear_179_5606" x1="5.21582" y1="30.9774" x2="71.0682" y2="35.5334" gradientUnits="userSpaceOnUse">
<stop stop-color="#F71756"/>
<stop offset="1" stop-color="#FDEB56"/>
</linearGradient>
<linearGradient id="paint29_linear_179_5606" x1="251.564" y1="86.9163" x2="284.843" y2="87.8725" gradientUnits="userSpaceOnUse">
<stop stop-color="#F71756"/>
<stop offset="1" stop-color="#FDEB56"/>
</linearGradient>
<linearGradient id="paint30_linear_179_5606" x1="82.251" y1="24.745" x2="121.033" y2="28.3432" gradientUnits="userSpaceOnUse">
<stop stop-color="#F71756"/>
<stop offset="1" stop-color="#FDEB56"/>
</linearGradient>
<linearGradient id="paint31_linear_179_5606" x1="82.5674" y1="22.7366" x2="121.428" y2="26.203" gradientUnits="userSpaceOnUse">
<stop stop-color="#F71756"/>
<stop offset="1" stop-color="#FDEB56"/>
</linearGradient>
<linearGradient id="paint32_linear_179_5606" x1="103.675" y1="28.5344" x2="105.101" y2="25.1373" gradientUnits="userSpaceOnUse">
<stop stop-color="#371989"/>
<stop offset="1" stop-color="#1B0C44"/>
</linearGradient>
<linearGradient id="paint33_linear_179_5606" x1="95.9061" y1="56.7999" x2="97.1017" y2="53.7232" gradientUnits="userSpaceOnUse">
<stop stop-color="#371989"/>
<stop offset="1" stop-color="#1B0C44"/>
</linearGradient>
<linearGradient id="paint34_linear_179_5606" x1="114.732" y1="46.7384" x2="113.97" y2="42.1283" gradientUnits="userSpaceOnUse">
<stop stop-color="#371989"/>
<stop offset="1" stop-color="#1B0C44"/>
</linearGradient>
<linearGradient id="paint35_linear_179_5606" x1="85.0605" y1="39.0066" x2="88.6997" y2="35.4078" gradientUnits="userSpaceOnUse">
<stop stop-color="#371989"/>
<stop offset="1" stop-color="#1B0C44"/>
</linearGradient>
<clipPath id="clip0_179_5606">
<rect width="282" height="223" fill="white"/>
</clipPath>
</defs>
</svg>
