<svg width="760" height="146" viewBox="0 0 760 146" fill="none" xmlns="http://www.w3.org/2000/svg">
<g clip-path="url(#clip0_179_5691)">
<path d="M0 39H256.347C266.11 39 275.537 42.571 282.85 49.0401L338.15 97.9599C345.463 104.429 354.89 108 364.653 108H585" stroke="url(#paint0_radial_179_5691)" stroke-width="3"/>
<g filter="url(#filter0_f_179_5691)">
<ellipse cx="44" cy="9.5" rx="44" ry="9.5" transform="matrix(1 0 0 -1 -35 49)" fill="url(#paint1_radial_179_5691)" fill-opacity="0.5"/>
</g>
<g filter="url(#filter1_f_179_5691)">
<ellipse cx="28" cy="6" rx="28" ry="6" transform="matrix(1 0 0 -1 -19 45)" fill="url(#paint2_radial_179_5691)" fill-opacity="0.6"/>
</g>
<ellipse cx="12" cy="2.5" rx="12" ry="2.5" transform="matrix(1 0 0 -1 -3 42)" fill="url(#paint3_radial_179_5691)"/>
<ellipse cx="17" cy="3.5" rx="17" ry="3.5" transform="matrix(1 0 0 -1 -8 43)" fill="url(#paint4_radial_179_5691)" fill-opacity="0.7"/>
<g filter="url(#filter2_f_179_5691)">
<ellipse cx="10" cy="2.5" rx="10" ry="2.5" transform="matrix(1 0 0 -1 -1 42)" fill="url(#paint5_radial_179_5691)"/>
</g>
</g>
<defs>
<filter id="filter0_f_179_5691" x="-45" y="20" width="108" height="39" filterUnits="userSpaceOnUse" color-interpolation-filters="sRGB">
<feFlood flood-opacity="0" result="BackgroundImageFix"/>
<feBlend mode="normal" in="SourceGraphic" in2="BackgroundImageFix" result="shape"/>
<feGaussianBlur stdDeviation="5" result="effect1_foregroundBlur_179_5691"/>
</filter>
<filter id="filter1_f_179_5691" x="-23" y="29" width="64" height="20" filterUnits="userSpaceOnUse" color-interpolation-filters="sRGB">
<feFlood flood-opacity="0" result="BackgroundImageFix"/>
<feBlend mode="normal" in="SourceGraphic" in2="BackgroundImageFix" result="shape"/>
<feGaussianBlur stdDeviation="2" result="effect1_foregroundBlur_179_5691"/>
</filter>
<filter id="filter2_f_179_5691" x="-5" y="33" width="28" height="13" filterUnits="userSpaceOnUse" color-interpolation-filters="sRGB">
<feFlood flood-opacity="0" result="BackgroundImageFix"/>
<feBlend mode="normal" in="SourceGraphic" in2="BackgroundImageFix" result="shape"/>
<feGaussianBlur stdDeviation="2" result="effect1_foregroundBlur_179_5691"/>
</filter>
<radialGradient id="paint0_radial_179_5691" cx="0" cy="0" r="1" gradientUnits="userSpaceOnUse" gradientTransform="translate(1.60533e-05 72.9999) rotate(0.0489292) scale(585.5 4964.02)">
<stop stop-color="#FDEB56"/>
<stop offset="0.401042" stop-color="#CDC372" stop-opacity="0.3"/>
<stop offset="0.75" stop-color="#59542C" stop-opacity="0.18"/>
<stop offset="1" stop-color="#49441B" stop-opacity="0"/>
<stop offset="1" stop-color="#554D0F" stop-opacity="0"/>
</radialGradient>
<radialGradient id="paint1_radial_179_5691" cx="0" cy="0" r="1" gradientUnits="userSpaceOnUse" gradientTransform="translate(44 9.5) rotate(90) scale(9.5 44)">
<stop stop-color="#FDEB56"/>
<stop offset="1" stop-color="#FDEB56" stop-opacity="0"/>
</radialGradient>
<radialGradient id="paint2_radial_179_5691" cx="0" cy="0" r="1" gradientUnits="userSpaceOnUse" gradientTransform="translate(28 6) rotate(90) scale(6 28)">
<stop stop-color="#FDEB56" stop-opacity="0.68"/>
<stop offset="1" stop-color="#FDEB56" stop-opacity="0"/>
</radialGradient>
<radialGradient id="paint3_radial_179_5691" cx="0" cy="0" r="1" gradientUnits="userSpaceOnUse" gradientTransform="translate(12 2.5) rotate(90) scale(2.5 12)">
<stop stop-color="#FDEB56" stop-opacity="0.81"/>
<stop offset="1" stop-color="#FDEB56" stop-opacity="0"/>
</radialGradient>
<radialGradient id="paint4_radial_179_5691" cx="0" cy="0" r="1" gradientUnits="userSpaceOnUse" gradientTransform="translate(17 3.5) rotate(90) scale(3.5 17)">
<stop stop-color="#FDEB56" stop-opacity="0.81"/>
<stop offset="1" stop-color="#FDEB56" stop-opacity="0"/>
</radialGradient>
<radialGradient id="paint5_radial_179_5691" cx="0" cy="0" r="1" gradientUnits="userSpaceOnUse" gradientTransform="translate(10 2.5) rotate(90) scale(2.5 10)">
<stop stop-color="#FDEB56"/>
<stop offset="1" stop-color="#FDEB56" stop-opacity="0"/>
</radialGradient>
<clipPath id="clip0_179_5691">
<rect width="760" height="146" fill="white" transform="matrix(1 0 0 -1 0 146)"/>
</clipPath>
</defs>
</svg>
