<svg width="30" height="30" viewBox="0 0 30 30" fill="none" xmlns="http://www.w3.org/2000/svg">
<path d="M5 13.75V18.75C5 22.8748 5 24.9371 6.28141 26.2186C7.56281 27.5 9.62521 27.5 13.75 27.5H16.25C20.3748 27.5 22.4371 27.5 23.7186 26.2186C25 24.9371 25 22.8748 25 18.75V13.75" fill="#496C81"/>
<path d="M5 13.75V18.75C5 22.8747 5 24.9371 6.28141 26.2186C7.56281 27.5 9.62521 27.5 13.75 27.5H16.25C20.3747 27.5 22.4371 27.5 23.7186 26.2186C25 24.9371 25 22.8747 25 18.75V13.75" stroke="#8EC9ED" stroke-width="1.875" stroke-linecap="round" stroke-linejoin="round"/>
<path d="M3.75 11.25C3.75 10.3154 3.75 9.84807 4.0012 9.5C4.16576 9.27197 4.40246 9.08261 4.6875 8.95096C5.1226 8.75 5.70673 8.75 6.875 8.75H23.125C24.2932 8.75 24.8774 8.75 25.3125 8.95096C25.5975 9.08261 25.8342 9.27197 25.9987 9.5C26.25 9.84807 26.25 10.3154 26.25 11.25C26.25 12.1846 26.25 12.6519 25.9987 13C25.8342 13.228 25.5975 13.4174 25.3125 13.549C24.8774 13.75 24.2932 13.75 23.125 13.75H6.875C5.70673 13.75 5.1226 13.75 4.6875 13.549C4.40246 13.4174 4.16576 13.228 4.0012 13C3.75 12.6519 3.75 12.1846 3.75 11.25Z" fill="#496C81" stroke="#8EC9ED" stroke-width="1.875" stroke-linejoin="round"/>
<path d="M7.5 4.73214C7.5 3.49936 8.49936 2.5 9.73214 2.5H10.1786C12.8414 2.5 15 4.65863 15 7.32142V8.75H11.5179C9.29885 8.75 7.5 6.95114 7.5 4.73214Z" fill="#496C81" stroke="#8EC9ED" stroke-width="1.875" stroke-linejoin="round"/>
<path d="M22.5 4.73214C22.5 3.49936 21.5006 2.5 20.2679 2.5H19.8214C17.1586 2.5 15 4.65863 15 7.32142V8.75H18.4821C20.7011 8.75 22.5 6.95114 22.5 4.73214Z" fill="#496C81" stroke="#8EC9ED" stroke-width="1.875" stroke-linejoin="round"/>
<path d="M15 15L15 27" stroke="#8EC9ED" stroke-width="1.875" stroke-linecap="round" stroke-linejoin="round"/>
</svg>
