<svg width="32" height="32" viewBox="0 0 32 32" fill="none" xmlns="http://www.w3.org/2000/svg">
<path d="M30.0026 10.8L26.6693 12.6334L23.3359 15.8V26.6667H28.0026C29.1073 26.6667 30.0026 25.7714 30.0026 24.6667V10.8Z" fill="#4CAF50"/>
<path d="M2 10.8L4.40933 11.94L8.66667 15.8V26.6667H4C2.89533 26.6667 2 25.7714 2 24.6667V10.8Z" fill="#1E88E5"/>
<path d="M23.3333 7.46655L16 12.9666L8.66667 7.46655L8 11.3332L8.66667 15.7999L16 21.2999L23.3333 15.7999L24 11.3332L23.3333 7.46655Z" fill="#E53935"/>
<path d="M2 8.19859V10.7999L8.66667 15.7999V7.46659L6.584 5.90592C6.088 5.53392 5.48533 5.33325 4.86533 5.33325C3.28267 5.33325 2 6.61592 2 8.19859Z" fill="#C62828"/>
<path d="M30.0026 8.19859V10.7999L23.3359 15.7999V7.46659L25.4186 5.90592C25.9146 5.53392 26.5173 5.33325 27.1373 5.33325C28.7199 5.33325 30.0026 6.61592 30.0026 8.19859Z" fill="#FBC02D"/>
</svg>
