<svg width="60" height="40" viewBox="0 0 60 40" fill="none" xmlns="http://www.w3.org/2000/svg">
<g id="Frame 1171276213" clip-path="url(#clip0_2206_1262)">
<g id="Group">
<g id="Layer 1">
<path id="Vector" fill-rule="evenodd" clip-rule="evenodd" d="M13.9008 11.9008L13.9008 14.7203C11.9367 14.152 10.1223 13.168 8.58468 11.8373C7.64095 10.896 7.24195 8.77414 7.46809 7.56976C9.41944 8.29941 11.2358 9.33961 12.8448 10.6488C13.2451 11.0242 13.5996 11.4443 13.9008 11.9008Z" fill="url(#paint0_radial_2206_1262)"/>
<path id="Vector_2" fill-rule="evenodd" clip-rule="evenodd" d="M13.8992 24.9985L13.8993 29.2608C11.2994 28.8636 9.14755 28.397 7.45455 27.2819C6.08675 26.3809 4.60221 23.5304 4.64954 22.0478C7.31056 22.0708 9.93784 22.6366 12.3655 23.7096C12.9347 24.0675 13.4508 24.5013 13.8992 24.9985Z" fill="url(#paint1_radial_2206_1262)"/>
<path id="Vector_3" fill-rule="evenodd" clip-rule="evenodd" d="M13.9 20.1502L13.9001 24.8627C10.6025 24.0849 7.54305 23.4768 5.40752 21.9286C3.72006 20.7052 2.35766 17.3342 2.51652 15.5666C4.89986 15.6717 9.81052 17.0041 12.1927 18.4454C12.8702 18.8975 13.4504 19.4769 13.9 20.1502Z" fill="url(#paint2_radial_2206_1262)"/>
<path id="Vector_4" fill-rule="evenodd" clip-rule="evenodd" d="M13.8992 14.908L13.8845 19.9126C10.1519 18.9579 6.68908 18.2172 4.27182 16.2628C2.36188 14.7185 0.834546 11.4464 1.01441 9.18341C3.71208 9.28882 9.27042 10.9333 11.9667 12.748C12.7492 13.3356 13.4059 14.0697 13.8992 14.908Z" fill="url(#paint3_radial_2206_1262)"/>
<path id="Vector_5" fill-rule="evenodd" clip-rule="evenodd" d="M13.898 23.0129L13.8981 26.0334C11.824 25.8111 9.84234 25.0693 8.14231 23.8786C6.90514 22.7329 6.17736 21.1527 6.11719 19.4816C8.40666 19.8067 10.6066 20.5808 12.5866 21.7583C13.0744 22.1219 13.5148 22.5433 13.898 23.0129Z" fill="url(#paint4_radial_2206_1262)"/>
<path id="Vector_6" fill-rule="evenodd" clip-rule="evenodd" d="M13.8968 18.1937L13.8969 22.173C11.2881 21.5201 8.85943 20.3043 6.7867 18.6136C5.48853 17.2799 4.77418 15.4976 4.79743 13.6506C7.07943 13.8723 9.80917 14.5013 11.5904 15.7428C12.452 16.4701 13.2259 17.2925 13.8968 18.1937Z" fill="url(#paint5_radial_2206_1262)"/>
<path id="Vector_7" fill-rule="evenodd" clip-rule="evenodd" d="M47.0469 11.9008L47.0469 14.7203C49.0111 14.152 50.8254 13.168 52.363 11.8373C53.3067 10.896 53.7057 8.77414 53.4797 7.56976C51.5283 8.29938 49.7119 9.33958 48.103 10.6488C47.7026 11.0242 47.3482 11.4443 47.0469 11.9008Z" fill="url(#paint6_radial_2206_1262)"/>
<path id="Vector_8" fill-rule="evenodd" clip-rule="evenodd" d="M47.047 24.9985L47.0469 29.2608C49.6467 28.8636 51.7986 28.397 53.4917 27.2819C54.8594 26.3809 56.344 23.5304 56.2967 22.0478C53.6357 22.0708 51.0083 22.6366 48.5806 23.7096C48.0115 24.0676 47.4954 24.5013 47.047 24.9985Z" fill="url(#paint7_radial_2206_1262)"/>
<path id="Vector_9" fill-rule="evenodd" clip-rule="evenodd" d="M47.047 20.1502L47.0469 24.8627C50.3445 24.0849 53.4039 23.4768 55.5395 21.9286C57.227 20.7052 58.5893 17.3342 58.4305 15.5666C56.0471 15.6717 51.1365 17.0041 48.7543 18.4454C48.0768 18.8975 47.4966 19.4769 47.047 20.1502Z" fill="url(#paint8_radial_2206_1262)"/>
<path id="Vector_10" fill-rule="evenodd" clip-rule="evenodd" d="M47.0469 14.908L47.0617 19.9126C50.7942 18.9579 54.257 18.2172 56.6743 16.2628C58.5843 14.7185 60.1115 11.4464 59.9317 9.18341C57.2341 9.28882 51.6757 10.9333 48.9795 12.748C48.197 13.3356 47.5402 14.0697 47.0469 14.908Z" fill="url(#paint9_radial_2206_1262)"/>
<path id="Vector_11" fill-rule="evenodd" clip-rule="evenodd" d="M47.047 23.0129L47.0469 26.0334C49.121 25.8112 51.1026 25.0693 52.8026 23.8786C54.0398 22.7329 54.7676 21.1527 54.8278 19.4816C52.5383 19.8067 50.3384 20.5808 48.3584 21.7583C47.8706 22.1219 47.4302 22.5433 47.047 23.0129Z" fill="url(#paint10_radial_2206_1262)"/>
<path id="Vector_12" fill-rule="evenodd" clip-rule="evenodd" d="M47.047 18.1937L47.0469 22.173C49.6557 21.5202 52.0844 20.3044 54.1571 18.6136C55.4553 17.2799 56.1697 15.4977 56.1464 13.6506C53.8644 13.8723 51.1346 14.5013 49.3534 15.7428C48.4918 16.4701 47.7179 17.2925 47.047 18.1937Z" fill="url(#paint11_radial_2206_1262)"/>
<path id="Vector_13" fill-rule="evenodd" clip-rule="evenodd" d="M48.0806 12.9822L47.5524 11.0108C47.2518 9.87287 46.6592 8.83007 45.8316 7.98241C44.5118 6.65937 41.8812 5.09513 40.2306 4.11707C38.0399 2.81984 35.7698 1.65699 33.4335 0.635152C32.5048 0.216633 31.4953 0 30.4739 0C29.4525 0 28.4431 0.216633 27.5143 0.635152C25.178 1.65701 22.908 2.81985 20.7172 4.11707C19.067 5.09468 16.4357 6.65983 15.1162 7.98241C14.2886 8.83008 13.696 9.87288 13.3954 11.0108L12.8672 12.9822H48.0806Z" fill="url(#paint12_linear_2206_1262)"/>
<path id="Vector_14" fill-rule="evenodd" clip-rule="evenodd" d="M45.2456 8.94952C41.5852 6.33054 37.6557 4.09702 33.5217 2.28564C32.5639 1.85529 31.5234 1.63257 30.4705 1.63257C29.4177 1.63257 28.3772 1.85529 27.4194 2.28564C23.2854 4.09702 19.3559 6.33054 15.6955 8.94952C14.838 9.55095 14.1218 10.3267 13.5954 11.2244C13.069 12.122 12.7446 13.1205 12.6443 14.1523C12.1707 18.5827 12.1707 23.0498 12.6443 27.4802C12.7446 28.512 13.0689 29.5105 13.5954 30.4081C14.1218 31.3058 14.838 32.0816 15.6955 32.683C19.3558 35.302 23.2853 37.5356 27.4193 39.3469C28.3771 39.7773 29.4177 40 30.4705 40C31.5233 40 32.5639 39.7773 33.5217 39.3469C37.6557 37.5356 41.5852 35.302 45.2456 32.683C46.1031 32.0816 46.8193 31.3058 47.3457 30.4081C47.8721 29.5105 48.1964 28.512 48.2967 27.4802C48.7704 23.0498 48.7704 18.5828 48.2967 14.1524C48.1964 13.1206 47.8721 12.1221 47.3457 11.2244C46.8192 10.3268 46.1031 9.55096 45.2456 8.94952Z" fill="url(#paint13_radial_2206_1262)"/>
<path id="Vector_15" fill-rule="evenodd" clip-rule="evenodd" d="M42.91 12.0827C39.4838 9.63302 35.8066 7.54291 31.9386 5.84651C31.481 5.63231 30.9807 5.52118 30.474 5.52118C29.9674 5.52118 29.4671 5.63231 29.0095 5.84651C25.1415 7.54291 21.4643 9.63302 18.038 12.0827C17.6208 12.3658 17.2729 12.7367 17.0196 13.1687C16.7662 13.6007 16.6138 14.0828 16.5734 14.5801C16.1318 18.7262 16.1318 22.9064 16.5734 27.0524C16.6138 27.5497 16.7662 28.0318 17.0195 28.4638C17.2728 28.8958 17.6208 29.2668 18.038 29.5498C21.4643 31.9995 25.1414 34.0896 29.0094 35.786C29.467 36.0002 29.9673 36.1114 30.474 36.1114C30.9807 36.1114 31.481 36.0002 31.9386 35.786C35.8066 34.0896 39.4837 31.9995 42.91 29.5499C43.3272 29.2668 43.6752 28.8958 43.9285 28.4639C44.1819 28.0319 44.3343 27.5497 44.3746 27.0525C44.8163 22.9064 44.8163 18.7262 44.3746 14.5801C44.3342 14.0828 44.1819 13.6007 43.9285 13.1687C43.6752 12.7368 43.3272 12.3658 42.91 12.0827Z" fill="url(#paint14_radial_2206_1262)"/>
<path id="Vector_16" fill-rule="evenodd" clip-rule="evenodd" d="M28.9802 34.7542C25.0414 33.0267 21.2969 30.8983 17.8079 28.4038C17.2386 28.015 16.7996 27.4682 16.5469 26.833C16.5547 26.9062 16.5628 26.9793 16.571 27.0524C16.6114 27.5496 16.7638 28.0318 17.0171 28.4638C17.2704 28.8957 17.6183 29.2667 18.0355 29.5498C21.4618 31.9994 25.139 34.0895 29.007 35.786C29.4646 36.0002 29.9649 36.1113 30.4716 36.1113C30.9783 36.1113 31.4786 36.0002 31.9362 35.786C35.8042 34.0896 39.4813 31.9995 42.9076 29.5498C43.3248 29.2668 43.6727 28.8958 43.9261 28.4638C44.1794 28.0318 44.3318 27.5497 44.3722 27.0525C44.3803 26.9794 44.3884 26.9062 44.3963 26.833C44.1436 27.4682 43.7045 28.015 43.1352 28.4039C39.6462 30.8983 35.9017 33.0267 31.963 34.7542C31.497 34.9723 30.9875 35.0854 30.4716 35.0854C29.9556 35.0854 29.4462 34.9723 28.9802 34.7542Z" fill="url(#paint15_linear_2206_1262)"/>
</g>
<g id="Vector_17" opacity="0.5">
<path fill-rule="evenodd" clip-rule="evenodd" d="M36.8102 26.8175V28.2895C36.8102 28.3165 36.7815 28.3396 36.7193 28.3628C36.1491 28.5754 33.4774 28.7417 30.1945 28.7417C26.9117 28.7417 24.24 28.5754 23.6698 28.3628C23.6075 28.3396 23.5789 28.3165 23.5789 28.2895V26.8175C24.2312 27.3775 36.1579 27.3775 36.8102 26.8175Z" fill="white"/>
<path fill-rule="evenodd" clip-rule="evenodd" d="M34.7187 15.0992C34.4697 15.0992 34.2281 15.1844 34.0334 15.3407C33.8386 15.497 33.7024 15.7152 33.6468 15.9597C33.5913 16.2041 33.6197 16.4603 33.7275 16.6863C33.8353 16.9124 34.0161 17.0949 34.2403 17.204C33.9134 18.3082 33.3839 19.3409 32.6791 20.2486C32.3976 20.6485 32.025 20.9747 31.5926 21.1998C31.1601 21.4249 30.6804 21.5424 30.1936 21.5424C29.7069 21.5424 29.2272 21.4249 28.7947 21.1998C28.3623 20.9747 27.9897 20.6485 27.7082 20.2486C27.0034 19.3409 26.4738 18.3082 26.1469 17.204C26.382 17.0897 26.5691 16.8949 26.6746 16.6544C26.7802 16.414 26.7974 16.1436 26.7231 15.8915C26.6489 15.6395 26.488 15.4222 26.2693 15.2787C26.0506 15.1351 25.7883 15.0746 25.5294 15.1079C25.2704 15.1412 25.0317 15.2662 24.8559 15.4606C24.68 15.6549 24.5786 15.9059 24.5696 16.1686C24.5607 16.4314 24.6448 16.6887 24.807 16.8947C24.9692 17.1007 25.1989 17.2419 25.455 17.293C25.4343 18.5915 24.8089 20.7534 23.7445 21.4051L24.4178 23.903H35.9695L36.6427 21.4051C35.5783 20.7534 34.953 18.5915 34.9323 17.293C35.2002 17.2396 35.4387 17.0877 35.6015 16.8669C35.7643 16.6461 35.8396 16.3722 35.813 16.0986C35.7863 15.8249 35.6595 15.571 35.4573 15.3863C35.255 15.2015 34.9917 15.0992 34.7187 15.0992Z" fill="white"/>
<path d="M30.1936 27.3612C26.5868 27.3612 23.654 27.1197 23.577 26.8194C22.9114 23.4555 22.0509 20.1337 21 16.871C21.4177 16.7657 21.8593 16.819 22.2405 17.0208C22.6216 17.2226 22.9156 17.5587 23.0664 17.9649C23.1732 18.2464 23.1936 18.5537 23.1249 18.847C23.0562 19.1402 22.9017 19.406 22.6812 19.6098C24.6964 23.0777 29.1465 21.3249 29.3519 15.1097H31.0355C31.2408 21.3249 35.691 23.0777 37.7061 19.6098C37.4857 19.406 37.3311 19.1402 37.2625 18.847C37.1938 18.5537 37.2142 18.2464 37.321 17.9649C37.4717 17.5587 37.7657 17.2226 38.1469 17.0208C38.528 16.819 38.9696 16.7657 39.3873 16.871C38.3363 20.1337 37.476 23.4555 36.8106 26.8194C36.7333 27.1197 33.8006 27.3612 30.1936 27.3612Z" fill="white"/>
<path fill-rule="evenodd" clip-rule="evenodd" d="M30.194 12C30.5363 12 30.8709 12.1022 31.1555 12.2937C31.4401 12.4852 31.6619 12.7574 31.7929 13.0759C31.9238 13.3944 31.9581 13.7448 31.8913 14.0829C31.8246 14.421 31.6597 14.7315 31.4177 14.9753C31.1757 15.219 30.8673 15.385 30.5316 15.4523C30.1959 15.5195 29.848 15.485 29.5317 15.3531C29.2155 15.2212 28.9452 14.9978 28.755 14.7112C28.5649 14.4245 28.4634 14.0876 28.4634 13.7429C28.4634 13.514 28.5082 13.2874 28.5951 13.0759C28.6821 12.8644 28.8096 12.6723 28.9703 12.5105C29.131 12.3486 29.3217 12.2202 29.5317 12.1327C29.7417 12.0451 29.9667 12 30.194 12Z" fill="white"/>
</g>
</g>
</g>
<defs>
<radialGradient id="paint0_radial_2206_1262" cx="0" cy="0" r="1" gradientUnits="userSpaceOnUse" gradientTransform="translate(10.3382 6.64419) scale(12.8169 12.6182)">
<stop stop-color="#DEFCFF"/>
<stop offset="1" stop-color="#3DA5F5"/>
</radialGradient>
<radialGradient id="paint1_radial_2206_1262" cx="0" cy="0" r="1" gradientUnits="userSpaceOnUse" gradientTransform="translate(7.38212 18.8214) scale(13.4722 13.2634)">
<stop stop-color="#E8FFF8"/>
<stop offset="1" stop-color="#62B5F5"/>
</radialGradient>
<radialGradient id="paint2_radial_2206_1262" cx="0" cy="0" r="1" gradientUnits="userSpaceOnUse" gradientTransform="translate(3.63028 14.7826) scale(15.0563 14.8229)">
<stop stop-color="#E8FFF8"/>
<stop offset="1" stop-color="#62B5F5"/>
</radialGradient>
<radialGradient id="paint3_radial_2206_1262" cx="0" cy="0" r="1" gradientUnits="userSpaceOnUse" gradientTransform="translate(2.08966 7.48633) scale(15.7558 15.5116)">
<stop stop-color="#E8FFF8"/>
<stop offset="1" stop-color="#62B5F5"/>
</radialGradient>
<radialGradient id="paint4_radial_2206_1262" cx="0" cy="0" r="1" gradientUnits="userSpaceOnUse" gradientTransform="translate(7.16892 17.791) scale(15.2248 14.9888)">
<stop stop-color="#F7FDFF"/>
<stop offset="1" stop-color="#62B5F5"/>
</radialGradient>
<radialGradient id="paint5_radial_2206_1262" cx="0" cy="0" r="1" gradientUnits="userSpaceOnUse" gradientTransform="translate(7.92718 13.3333) scale(15.451 15.2115)">
<stop stop-color="#F7FDFF"/>
<stop offset="1" stop-color="#62B5F5"/>
</radialGradient>
<radialGradient id="paint6_radial_2206_1262" cx="0" cy="0" r="1" gradientUnits="userSpaceOnUse" gradientTransform="translate(50.6095 6.64419) rotate(180) scale(12.8169 12.6182)">
<stop stop-color="#DEFCFF"/>
<stop offset="1" stop-color="#3DA5F5"/>
</radialGradient>
<radialGradient id="paint7_radial_2206_1262" cx="0" cy="0" r="1" gradientUnits="userSpaceOnUse" gradientTransform="translate(53.5641 18.8214) rotate(180) scale(13.4723 13.2634)">
<stop stop-color="#E8FFF8"/>
<stop offset="1" stop-color="#62B5F5"/>
</radialGradient>
<radialGradient id="paint8_radial_2206_1262" cx="0" cy="0" r="1" gradientUnits="userSpaceOnUse" gradientTransform="translate(57.3167 14.7826) rotate(180) scale(15.0563 14.823)">
<stop stop-color="#E8FFF8"/>
<stop offset="1" stop-color="#62B5F5"/>
</radialGradient>
<radialGradient id="paint9_radial_2206_1262" cx="0" cy="0" r="1" gradientUnits="userSpaceOnUse" gradientTransform="translate(58.8564 7.48633) rotate(180) scale(15.7558 15.5116)">
<stop stop-color="#E8FFF8"/>
<stop offset="1" stop-color="#62B5F5"/>
</radialGradient>
<radialGradient id="paint10_radial_2206_1262" cx="0" cy="0" r="1" gradientUnits="userSpaceOnUse" gradientTransform="translate(53.776 17.791) rotate(180) scale(15.2248 14.9888)">
<stop stop-color="#F7FDFF"/>
<stop offset="1" stop-color="#62B5F5"/>
</radialGradient>
<radialGradient id="paint11_radial_2206_1262" cx="0" cy="0" r="1" gradientUnits="userSpaceOnUse" gradientTransform="translate(53.0166 13.3333) rotate(180) scale(15.451 15.2115)">
<stop stop-color="#F7FDFF"/>
<stop offset="1" stop-color="#62B5F5"/>
</radialGradient>
<linearGradient id="paint12_linear_2206_1262" x1="12.8672" y1="6.49108" x2="48.0806" y2="6.49108" gradientUnits="userSpaceOnUse">
<stop stop-color="#2398FF"/>
<stop offset="0.11801" stop-color="#319FFF"/>
<stop offset="0.22381" stop-color="#38A2FF"/>
<stop offset="0.49416" stop-color="#5CCCFF"/>
<stop offset="0.51696" stop-color="#43B2FB"/>
<stop offset="0.54418" stop-color="#2D9AF7"/>
<stop offset="0.57528" stop-color="#1B88F4"/>
<stop offset="0.61213" stop-color="#0F7BF2"/>
<stop offset="0.66023" stop-color="#0873F0"/>
<stop offset="0.76191" stop-color="#0671F0"/>
<stop offset="1" stop-color="#0E56CC"/>
</linearGradient>
<radialGradient id="paint13_radial_2206_1262" cx="0" cy="0" r="1" gradientUnits="userSpaceOnUse" gradientTransform="translate(18.4124 0.983927) scale(47.8238 47.0826)">
<stop stop-color="#6BB8FF"/>
<stop offset="1" stop-color="#057CEA"/>
</radialGradient>
<radialGradient id="paint14_radial_2206_1262" cx="0" cy="0" r="1" gradientUnits="userSpaceOnUse" gradientTransform="translate(21.7793 4.64743) scale(36.5167 35.9507)">
<stop stop-color="#6BD6FF"/>
<stop offset="1" stop-color="#0067DC"/>
</radialGradient>
<linearGradient id="paint15_linear_2206_1262" x1="16.5469" y1="31.4722" x2="44.3963" y2="31.4722" gradientUnits="userSpaceOnUse">
<stop stop-color="#0572DA"/>
<stop offset="0.18095" stop-color="#058CFF"/>
<stop offset="0.32037" stop-color="#078DFF"/>
<stop offset="0.38632" stop-color="#0F90FF"/>
<stop offset="0.43685" stop-color="#1C96FF"/>
<stop offset="0.47925" stop-color="#2E9DFF"/>
<stop offset="0.5166" stop-color="#45A7FF"/>
<stop offset="0.52143" stop-color="#49A9FF"/>
<stop offset="0.77619" stop-color="#2B9CFF"/>
<stop offset="0.88199" stop-color="#2499FF"/>
<stop offset="1" stop-color="#1693FF"/>
</linearGradient>
<clipPath id="clip0_2206_1262">
<rect width="60" height="40" fill="white"/>
</clipPath>
</defs>
</svg>
