<svg width="59" height="40" viewBox="0 0 59 40" fill="none" xmlns="http://www.w3.org/2000/svg">
<path fill-rule="evenodd" clip-rule="evenodd" d="M12.9008 11.9008L12.9008 14.7204C10.9367 14.152 9.12231 13.1681 7.58468 11.8374C6.64095 10.8961 6.24195 8.7742 6.46809 7.56982C8.41944 8.29947 10.2358 9.33967 11.8448 10.6489C12.2451 11.0242 12.5996 11.4444 12.9008 11.9008Z" fill="url(#paint0_radial_1992_15037)"/>
<path fill-rule="evenodd" clip-rule="evenodd" d="M12.8992 24.9985L12.8993 29.2608C10.2994 28.8636 8.14755 28.397 6.45455 27.2818C5.08675 26.3808 3.60221 23.5303 3.64954 22.0477C6.31056 22.0707 8.93784 22.6365 11.3655 23.7095C11.9347 24.0675 12.4508 24.5012 12.8992 24.9985Z" fill="url(#paint1_radial_1992_15037)"/>
<path fill-rule="evenodd" clip-rule="evenodd" d="M12.9 20.15L12.9001 24.8625C9.60246 24.0847 6.54305 23.4766 4.40752 21.9284C2.72006 20.705 1.35766 17.334 1.51652 15.5664C3.89986 15.6715 8.81052 17.0039 11.1927 18.4452C11.8702 18.8973 12.4504 19.4767 12.9 20.15Z" fill="url(#paint2_radial_1992_15037)"/>
<path fill-rule="evenodd" clip-rule="evenodd" d="M12.8992 14.9081L12.8845 19.9127C9.15195 18.9579 5.68908 18.2172 3.27182 16.2629C1.36188 14.7185 -0.165454 11.4465 0.0144126 9.18347C2.71208 9.28888 8.27042 10.9334 10.9667 12.7481C11.7492 13.3356 12.4059 14.0697 12.8992 14.9081Z" fill="url(#paint3_radial_1992_15037)"/>
<path fill-rule="evenodd" clip-rule="evenodd" d="M12.898 23.0128L12.8981 26.0332C10.824 25.811 8.84234 25.0692 7.14231 23.8785C5.90514 22.7328 5.17736 21.1526 5.11719 19.4814C7.40666 19.8065 9.60658 20.5807 11.5866 21.7581C12.0744 22.1218 12.5148 22.5432 12.898 23.0128Z" fill="url(#paint4_radial_1992_15037)"/>
<path fill-rule="evenodd" clip-rule="evenodd" d="M12.8968 18.1935L12.8969 22.1728C10.2881 21.52 7.85943 20.3041 5.7867 18.6134C4.48853 17.2797 3.77418 15.4975 3.79743 13.6504C6.07943 13.8721 8.80917 14.5011 10.5904 15.7426C11.452 16.4699 12.2259 17.2923 12.8968 18.1935Z" fill="url(#paint5_radial_1992_15037)"/>
<path fill-rule="evenodd" clip-rule="evenodd" d="M46.0469 11.9008L46.0469 14.7204C48.0111 14.152 49.8254 13.1681 51.363 11.8374C52.3067 10.8961 52.7057 8.7742 52.4797 7.56982C50.5283 8.29944 48.7119 9.33964 47.103 10.6489C46.7026 11.0242 46.3482 11.4444 46.0469 11.9008Z" fill="url(#paint6_radial_1992_15037)"/>
<path fill-rule="evenodd" clip-rule="evenodd" d="M46.047 24.9985L46.0469 29.2608C48.6467 28.8636 50.7986 28.397 52.4917 27.2818C53.8594 26.3808 55.344 23.5303 55.2967 22.0477C52.6357 22.0707 50.0083 22.6365 47.5806 23.7095C47.0115 24.0675 46.4954 24.5013 46.047 24.9985Z" fill="url(#paint7_radial_1992_15037)"/>
<path fill-rule="evenodd" clip-rule="evenodd" d="M46.047 20.1503L46.0469 24.8628C49.3445 24.0849 52.4039 23.4769 54.5395 21.9286C56.227 20.7053 57.5893 17.3343 57.4305 15.5667C55.0471 15.6717 50.1365 17.0042 47.7543 18.4455C47.0768 18.8976 46.4966 19.4769 46.047 20.1503Z" fill="url(#paint8_radial_1992_15037)"/>
<path fill-rule="evenodd" clip-rule="evenodd" d="M46.0469 14.9081L46.0617 19.9127C49.7942 18.9579 53.257 18.2172 55.6743 16.2629C57.5843 14.7185 59.1115 11.4465 58.9317 9.18347C56.2341 9.28888 50.6757 10.9334 47.9795 12.7481C47.197 13.3356 46.5402 14.0697 46.0469 14.9081Z" fill="url(#paint9_radial_1992_15037)"/>
<path fill-rule="evenodd" clip-rule="evenodd" d="M46.047 23.0129L46.0469 26.0334C48.121 25.8112 50.1026 25.0693 51.8026 23.8786C53.0398 22.7329 53.7676 21.1527 53.8278 19.4816C51.5383 19.8067 49.3384 20.5808 47.3584 21.7583C46.8706 22.1219 46.4302 22.5433 46.047 23.0129Z" fill="url(#paint10_radial_1992_15037)"/>
<path fill-rule="evenodd" clip-rule="evenodd" d="M46.047 18.1937L46.0469 22.1729C48.6557 21.5201 51.0844 20.3043 53.1571 18.6135C54.4553 17.2798 55.1697 15.4976 55.1464 13.6505C52.8644 13.8722 50.1346 14.5013 48.3534 15.7427C47.4918 16.47 46.7179 17.2924 46.047 18.1937Z" fill="url(#paint11_radial_1992_15037)"/>
<path fill-rule="evenodd" clip-rule="evenodd" d="M47.0806 12.9822L46.5524 11.0108C46.2518 9.87287 45.6592 8.83007 44.8316 7.98241C43.5118 6.65937 40.8812 5.09513 39.2306 4.11707C37.0399 2.81984 34.7698 1.65699 32.4335 0.635152C31.5048 0.216633 30.4953 0 29.4739 0C28.4525 0 27.4431 0.216633 26.5143 0.635152C24.178 1.65701 21.908 2.81985 19.7172 4.11707C18.067 5.09468 15.4357 6.65983 14.1162 7.98241C13.2886 8.83008 12.696 9.87288 12.3954 11.0108L11.8672 12.9822H47.0806Z" fill="url(#paint12_linear_1992_15037)"/>
<path fill-rule="evenodd" clip-rule="evenodd" d="M44.2456 8.94928C40.5852 6.3303 36.6557 4.09677 32.5217 2.28539C31.5639 1.85504 30.5234 1.63232 29.4705 1.63232C28.4177 1.63232 27.3772 1.85504 26.4194 2.28539C22.2854 4.09677 18.3559 6.3303 14.6955 8.94928C13.838 9.5507 13.1218 10.3265 12.5954 11.2241C12.069 12.1218 11.7446 13.1203 11.6443 14.1521C11.1707 18.5825 11.1707 23.0496 11.6443 27.4799C11.7446 28.5117 12.0689 29.5103 12.5954 30.4079C13.1218 31.3055 13.838 32.0813 14.6955 32.6828C18.3558 35.3018 22.2853 37.5353 26.4193 39.3466C27.3771 39.777 28.4177 39.9998 29.4705 39.9998C30.5233 39.9998 31.5639 39.777 32.5217 39.3466C36.6557 37.5353 40.5852 35.3018 44.2456 32.6828C45.1031 32.0813 45.8193 31.3055 46.3457 30.4079C46.8721 29.5103 47.1964 28.5117 47.2967 27.4799C47.7704 23.0496 47.7704 18.5825 47.2967 14.1522C47.1964 13.1204 46.8721 12.1218 46.3457 11.2242C45.8192 10.3265 45.1031 9.55072 44.2456 8.94928Z" fill="url(#paint13_radial_1992_15037)"/>
<path fill-rule="evenodd" clip-rule="evenodd" d="M41.91 12.0825C38.4838 9.63284 34.8066 7.54273 30.9386 5.84632C30.481 5.63213 29.9807 5.521 29.474 5.521C28.9674 5.521 28.4671 5.63213 28.0095 5.84632C24.1415 7.54272 20.4643 9.63284 17.038 12.0825C16.6208 12.3656 16.2729 12.7366 16.0196 13.1685C15.7662 13.6005 15.6138 14.0827 15.5734 14.5799C15.1318 18.726 15.1318 22.9062 15.5734 27.0523C15.6138 27.5495 15.7662 28.0316 16.0195 28.4636C16.2728 28.8956 16.6208 29.2666 17.038 29.5496C20.4643 31.9993 24.1414 34.0894 28.0094 35.7858C28.467 36 28.9673 36.1112 29.474 36.1112C29.9807 36.1112 30.481 36 30.9386 35.7858C34.8066 34.0894 38.4837 31.9993 41.91 29.5497C42.3272 29.2666 42.6752 28.8957 42.9285 28.4637C43.1819 28.0317 43.3343 27.5496 43.3746 27.0523C43.8163 22.9062 43.8163 18.726 43.3746 14.5799C43.3342 14.0827 43.1819 13.6005 42.9285 13.1686C42.6752 12.7366 42.3272 12.3656 41.91 12.0825Z" fill="url(#paint14_radial_1992_15037)"/>
<path fill-rule="evenodd" clip-rule="evenodd" d="M27.9802 34.7542C24.0414 33.0267 20.2969 30.8983 16.8079 28.4038C16.2386 28.015 15.7996 27.4682 15.5469 26.833C15.5547 26.9062 15.5628 26.9793 15.571 27.0524C15.6114 27.5496 15.7638 28.0318 16.0171 28.4638C16.2704 28.8957 16.6183 29.2667 17.0355 29.5498C20.4618 31.9994 24.139 34.0895 28.007 35.786C28.4646 36.0002 28.9649 36.1113 29.4716 36.1113C29.9783 36.1113 30.4786 36.0002 30.9362 35.786C34.8042 34.0896 38.4813 31.9995 41.9076 29.5498C42.3248 29.2668 42.6727 28.8958 42.9261 28.4638C43.1794 28.0318 43.3318 27.5497 43.3722 27.0525C43.3803 26.9794 43.3884 26.9062 43.3963 26.833C43.1436 27.4682 42.7045 28.015 42.1352 28.4039C38.6462 30.8983 34.9017 33.0267 30.963 34.7542C30.497 34.9723 29.9875 35.0854 29.4716 35.0854C28.9556 35.0854 28.4462 34.9723 27.9802 34.7542Z" fill="url(#paint15_linear_1992_15037)"/>
<defs>
<radialGradient id="paint0_radial_1992_15037" cx="0" cy="0" r="1" gradientUnits="userSpaceOnUse" gradientTransform="translate(9.33825 6.64425) scale(12.8169 12.6182)">
<stop stop-color="#DEFCFF"/>
<stop offset="1" stop-color="#3DA5F5"/>
</radialGradient>
<radialGradient id="paint1_radial_1992_15037" cx="0" cy="0" r="1" gradientUnits="userSpaceOnUse" gradientTransform="translate(6.38212 18.8214) scale(13.4722 13.2634)">
<stop stop-color="#E8FFF8"/>
<stop offset="1" stop-color="#62B5F5"/>
</radialGradient>
<radialGradient id="paint2_radial_1992_15037" cx="0" cy="0" r="1" gradientUnits="userSpaceOnUse" gradientTransform="translate(2.63028 14.7824) scale(15.0563 14.8229)">
<stop stop-color="#E8FFF8"/>
<stop offset="1" stop-color="#62B5F5"/>
</radialGradient>
<radialGradient id="paint3_radial_1992_15037" cx="0" cy="0" r="1" gradientUnits="userSpaceOnUse" gradientTransform="translate(1.08966 7.48639) scale(15.7558 15.5116)">
<stop stop-color="#E8FFF8"/>
<stop offset="1" stop-color="#62B5F5"/>
</radialGradient>
<radialGradient id="paint4_radial_1992_15037" cx="0" cy="0" r="1" gradientUnits="userSpaceOnUse" gradientTransform="translate(6.16892 17.7909) scale(15.2248 14.9888)">
<stop stop-color="#F7FDFF"/>
<stop offset="1" stop-color="#62B5F5"/>
</radialGradient>
<radialGradient id="paint5_radial_1992_15037" cx="0" cy="0" r="1" gradientUnits="userSpaceOnUse" gradientTransform="translate(6.92718 13.3331) scale(15.451 15.2115)">
<stop stop-color="#F7FDFF"/>
<stop offset="1" stop-color="#62B5F5"/>
</radialGradient>
<radialGradient id="paint6_radial_1992_15037" cx="0" cy="0" r="1" gradientUnits="userSpaceOnUse" gradientTransform="translate(49.6095 6.64425) rotate(180) scale(12.8169 12.6182)">
<stop stop-color="#DEFCFF"/>
<stop offset="1" stop-color="#3DA5F5"/>
</radialGradient>
<radialGradient id="paint7_radial_1992_15037" cx="0" cy="0" r="1" gradientUnits="userSpaceOnUse" gradientTransform="translate(52.5641 18.8214) rotate(180) scale(13.4723 13.2634)">
<stop stop-color="#E8FFF8"/>
<stop offset="1" stop-color="#62B5F5"/>
</radialGradient>
<radialGradient id="paint8_radial_1992_15037" cx="0" cy="0" r="1" gradientUnits="userSpaceOnUse" gradientTransform="translate(56.3167 14.7827) rotate(180) scale(15.0563 14.823)">
<stop stop-color="#E8FFF8"/>
<stop offset="1" stop-color="#62B5F5"/>
</radialGradient>
<radialGradient id="paint9_radial_1992_15037" cx="0" cy="0" r="1" gradientUnits="userSpaceOnUse" gradientTransform="translate(57.8564 7.48639) rotate(180) scale(15.7558 15.5116)">
<stop stop-color="#E8FFF8"/>
<stop offset="1" stop-color="#62B5F5"/>
</radialGradient>
<radialGradient id="paint10_radial_1992_15037" cx="0" cy="0" r="1" gradientUnits="userSpaceOnUse" gradientTransform="translate(52.776 17.791) rotate(180) scale(15.2248 14.9888)">
<stop stop-color="#F7FDFF"/>
<stop offset="1" stop-color="#62B5F5"/>
</radialGradient>
<radialGradient id="paint11_radial_1992_15037" cx="0" cy="0" r="1" gradientUnits="userSpaceOnUse" gradientTransform="translate(52.0166 13.3333) rotate(180) scale(15.451 15.2115)">
<stop stop-color="#F7FDFF"/>
<stop offset="1" stop-color="#62B5F5"/>
</radialGradient>
<linearGradient id="paint12_linear_1992_15037" x1="11.8672" y1="6.49108" x2="47.0806" y2="6.49108" gradientUnits="userSpaceOnUse">
<stop stop-color="#2398FF"/>
<stop offset="0.11801" stop-color="#319FFF"/>
<stop offset="0.22381" stop-color="#38A2FF"/>
<stop offset="0.49416" stop-color="#5CCCFF"/>
<stop offset="0.51696" stop-color="#43B2FB"/>
<stop offset="0.54418" stop-color="#2D9AF7"/>
<stop offset="0.57528" stop-color="#1B88F4"/>
<stop offset="0.61213" stop-color="#0F7BF2"/>
<stop offset="0.66023" stop-color="#0873F0"/>
<stop offset="0.76191" stop-color="#0671F0"/>
<stop offset="1" stop-color="#0E56CC"/>
</linearGradient>
<radialGradient id="paint13_radial_1992_15037" cx="0" cy="0" r="1" gradientUnits="userSpaceOnUse" gradientTransform="translate(17.4124 0.983683) scale(47.8238 47.0826)">
<stop stop-color="#6BB8FF"/>
<stop offset="1" stop-color="#057CEA"/>
</radialGradient>
<radialGradient id="paint14_radial_1992_15037" cx="0" cy="0" r="1" gradientUnits="userSpaceOnUse" gradientTransform="translate(20.7793 4.64725) scale(36.5167 35.9507)">
<stop stop-color="#6BD6FF"/>
<stop offset="1" stop-color="#0067DC"/>
</radialGradient>
<linearGradient id="paint15_linear_1992_15037" x1="15.5469" y1="31.4722" x2="43.3963" y2="31.4722" gradientUnits="userSpaceOnUse">
<stop stop-color="#0572DA"/>
<stop offset="0.18095" stop-color="#058CFF"/>
<stop offset="0.32037" stop-color="#078DFF"/>
<stop offset="0.38632" stop-color="#0F90FF"/>
<stop offset="0.43685" stop-color="#1C96FF"/>
<stop offset="0.47925" stop-color="#2E9DFF"/>
<stop offset="0.5166" stop-color="#45A7FF"/>
<stop offset="0.52143" stop-color="#49A9FF"/>
<stop offset="0.77619" stop-color="#2B9CFF"/>
<stop offset="0.88199" stop-color="#2499FF"/>
<stop offset="1" stop-color="#1693FF"/>
</linearGradient>
</defs>
</svg>
