<svg width="26" height="27" viewBox="0 0 26 27" fill="none" xmlns="http://www.w3.org/2000/svg">
<circle cx="13" cy="13.5" r="12.6579" fill="#68566E" stroke="#FDEB56" stroke-width="0.684211"/>
<g style="mix-blend-mode:multiply" opacity="0.95">
<path d="M14.7385 19.059C13.87 17.6313 14.0745 11.8467 14.5005 10.6822C14.6231 10.2938 14.8546 9.94872 15.1674 9.68792C15.4803 9.42712 15.8614 9.26154 16.2655 9.21082C16.9298 9.17266 17.5951 9.10344 18.2599 9.12939C20.3435 9.21073 21.1402 11.7333 21.001 13.387C20.9551 14.0714 20.7038 14.7261 20.2802 15.2656C19.8565 15.805 19.2801 16.2043 18.6261 16.4112C18.1446 16.5 17.6526 16.5183 17.1658 16.4655C17.1719 17.1309 17.2177 17.7953 17.3028 18.4551C17.3153 18.59 17.2968 18.726 17.2487 18.8527C17.2006 18.9793 17.1242 19.0933 17.0253 19.1859C16.8357 19.3443 14.9808 19.4572 14.7385 19.059ZM18.2033 12.4863C18.1943 12.1954 18.0811 11.9174 17.8842 11.7031C17.7688 11.6258 17.6352 11.5803 17.4966 11.5712C17.3581 11.5621 17.2196 11.5896 17.0951 11.651C16.904 11.7347 16.9026 12.0207 16.8894 12.2213C16.8732 12.4722 16.8376 14.4778 17.0407 14.5144C18.2806 14.7379 18.3025 13.2938 18.2033 12.4863ZM5.39867 19.0917C5.49263 18.2609 5.73869 17.4545 6.12456 16.7127C6.58524 15.8814 7.12747 15.0981 7.74325 14.3742C7.21512 13.6668 6.74139 12.9205 6.32614 12.1415C5.91651 11.4124 5.63161 10.62 5.48323 9.79693C5.47514 9.68203 5.50632 9.56778 5.57167 9.47291C5.72317 9.22303 6.5319 9.04359 8.19993 9.16025C8.28905 9.16942 8.37417 9.20194 8.44672 9.2545C8.51927 9.30707 8.57667 9.37783 8.61315 9.45965C8.73946 9.82013 8.91047 10.3879 9.11594 10.9561C9.21959 11.2335 9.34208 11.5034 9.48257 11.764C9.75979 11.06 9.93047 10.3186 9.98897 9.56429C10.007 9.37927 10.0753 9.11982 10.6137 9.1237C11.4073 9.06945 12.2039 9.16959 12.9594 9.41856C13.0342 9.81876 13.028 10.2299 12.9411 10.6276C12.4952 11.9154 11.8542 13.127 11.0405 14.2202C11.8081 15.2216 12.445 16.3167 12.9359 17.479C13.0557 17.9894 13.0603 18.5202 12.9493 19.0326C12.8447 19.4497 10.2052 19.4079 10.1116 19.0007C9.92776 18.1672 9.63283 17.3621 9.23468 16.607C8.9864 17.0045 8.78142 17.4274 8.62328 17.8685C8.47443 18.2918 8.36033 18.7123 8.19824 19.1694C8.11253 19.4102 5.36922 19.3805 5.39867 19.0917Z" fill="#776537"/>
</g>
<path d="M14.5872 18.3181C13.6726 16.8152 13.888 10.7262 14.3365 9.50036C14.4656 9.09151 14.7093 8.72827 15.0386 8.45375C15.3679 8.17924 15.7691 8.00497 16.1946 7.95163C16.8936 7.91129 17.5939 7.83857 18.294 7.86584C20.4869 7.95144 21.3256 10.6069 21.1791 12.3476C21.1308 13.068 20.8664 13.7571 20.4205 14.325C19.9746 14.8928 19.3679 15.3131 18.6795 15.531C18.1725 15.6244 17.6546 15.6436 17.1421 15.588C17.1484 16.2884 17.1966 16.9877 17.2865 17.6824C17.2996 17.8244 17.28 17.9675 17.2294 18.1009C17.1788 18.2342 17.0983 18.3542 16.9943 18.4517C16.7944 18.6183 14.8421 18.7371 14.5872 18.3181ZM18.234 11.3992C18.2246 11.0931 18.1054 10.8005 17.8982 10.5749C17.7767 10.4936 17.6361 10.4458 17.4903 10.4362C17.3445 10.4266 17.1987 10.4555 17.0677 10.5201C16.8665 10.6081 16.8648 10.9091 16.8513 11.1205C16.8342 11.3845 16.7969 13.4957 17.0105 13.5343C18.3157 13.7695 18.3385 12.2493 18.234 11.3992ZM5.19556 18.3525C5.29469 17.478 5.55378 16.6292 5.95989 15.8483C6.44479 14.9733 7.0155 14.1486 7.66361 13.3865C7.10771 12.6421 6.6091 11.8565 6.17208 11.0366C5.74077 10.269 5.4408 9.43479 5.28457 8.56833C5.27602 8.44747 5.30892 8.32731 5.37784 8.22765C5.53739 7.96451 6.38882 7.77551 8.14444 7.89823C8.23821 7.90794 8.32776 7.9422 8.40406 7.99756C8.48036 8.05292 8.54072 8.12742 8.57906 8.21354C8.71228 8.59277 8.89209 9.19063 9.10864 9.78877C9.21785 10.0807 9.34676 10.3648 9.4945 10.6392C9.78631 9.8981 9.96593 9.11764 10.0274 8.32357C10.0464 8.12879 10.1184 7.8559 10.6851 7.85988C11.5205 7.80261 12.3591 7.90803 13.1544 8.17027C13.233 8.59147 13.2265 9.02414 13.1353 9.44278C12.666 10.7984 11.9911 12.0739 11.1343 13.2245C11.9422 14.2787 12.6126 15.4314 13.1293 16.6548C13.2555 17.1922 13.2603 17.7509 13.1436 18.2904C13.0338 18.7294 10.2555 18.6854 10.1565 18.2567C9.96305 17.3793 9.6527 16.5318 9.23373 15.7369C8.9722 16.1552 8.75646 16.6004 8.59023 17.0649C8.43315 17.5106 8.31336 17.9532 8.14264 18.4341C8.0525 18.6878 5.1646 18.6564 5.19556 18.3525Z" fill="#FFBC06"/>
<path style="mix-blend-mode:screen" fill-rule="evenodd" clip-rule="evenodd" d="M16.2068 8.19339C15.8289 8.24437 15.4734 8.40225 15.1821 8.64845C14.8909 8.89466 14.676 9.21894 14.5629 9.58313C14.494 9.7951 14.4445 10.0129 14.4148 10.2337C14.3596 10.5779 14.3223 10.9273 14.292 11.2747C14.2303 11.9851 14.1996 12.7043 14.193 13.42C14.1866 14.1264 16.6175 13.2774 16.5974 12.3119C16.592 12.0615 16.5916 11.8108 16.5948 11.5605C16.5966 11.41 16.5976 11.2541 16.6074 11.1042C16.6271 10.8015 16.645 10.4387 16.9685 10.297C17.1756 10.2044 17.405 10.1738 17.6291 10.2088C17.788 10.2301 17.9378 10.2949 18.0622 10.396C18.2599 10.5907 18.39 10.8436 18.4333 11.1177C18.5978 11.9142 20.8296 10.1307 20.1268 9.15694C19.9236 8.84939 19.6506 8.59412 19.3302 8.41183C19.0098 8.22954 18.6509 8.12537 18.2827 8.10779C17.5908 8.0808 16.8973 8.15362 16.2068 8.19339ZM12.2401 8.19443C11.7228 8.13448 11.2026 8.10362 10.6819 8.10201C10.5557 8.09051 10.4293 8.12053 10.3218 8.18752C10.2868 8.23306 10.2678 8.28887 10.2677 8.34631C10.2038 9.16521 10.0179 9.96997 9.71623 10.734L9.51587 11.202L9.27839 10.7518C9.12502 10.4676 8.99148 10.1731 8.87872 9.87051C8.68953 9.34774 8.53226 8.81663 8.34847 8.2931C8.32565 8.25217 8.2937 8.21706 8.25511 8.19049C8.21652 8.16391 8.17232 8.1466 8.12595 8.13989C7.75486 8.11385 7.38085 8.09822 7.00853 8.10277C6.74244 8.10378 6.47668 8.12137 6.21277 8.15542C6.04928 8.17441 5.88845 8.21182 5.73336 8.26696C5.67861 8.28591 5.62792 8.31501 5.58395 8.35275C5.54678 8.40594 5.52577 8.46875 5.52344 8.5336C5.67618 9.37241 5.96758 10.1799 6.38567 10.923C6.81904 11.7315 7.31136 12.5071 7.85864 13.2434L7.96687 13.3924L7.85249 13.5368C7.67192 13.7646 7.48841 13.9948 7.3085 14.2289C6.62911 15.1128 11.9945 14.9295 11.4328 14.0964C11.2672 13.8502 11.0993 13.6054 10.9322 13.3607L10.8334 13.2163L10.9394 13.0768C11.1147 12.8458 11.2776 12.5989 11.4332 12.3541C11.6296 12.0445 11.8177 11.7297 11.9977 11.4095C12.2123 11.0286 12.4191 10.6374 12.5998 10.2391C12.7317 9.97538 12.8302 9.6962 12.893 9.40805C12.9572 9.0508 12.9761 8.68689 12.9494 8.32491C12.7168 8.26249 12.4796 8.21886 12.2401 8.19443Z" fill="#FF6057"/>
<path style="mix-blend-mode:multiply" fill-rule="evenodd" clip-rule="evenodd" d="M8.14264 18.4336C8.31336 17.9527 8.43315 17.5102 8.59023 17.0645C8.75646 16.6 8.9722 16.1547 9.23373 15.7364C8.81957 16.3377 8.1364 17.881 7.87922 18.1079C7.13505 18.4794 6.28155 18.5689 5.4765 18.3599L5.42944 18.3491C5.38685 18.3388 5.34961 18.313 5.325 18.2767C5.2986 18.2287 5.28472 18.1748 5.28466 18.1199C5.27804 17.9792 5.29328 17.8381 5.29745 17.6973C5.25196 17.9136 5.21795 18.1321 5.19556 18.352C5.1897 18.4094 5.28798 18.4571 5.45179 18.495C6.34241 18.6718 7.26101 18.6509 8.14264 18.4336ZM10.1565 18.2563C10.2442 18.6366 12.4421 18.7142 13.0126 18.42C13.0423 18.4086 13.0693 18.3911 13.0918 18.3687C13.1144 18.3463 13.132 18.3195 13.1436 18.2899C13.2604 17.7504 13.2555 17.1917 13.1293 16.6544C12.6776 15.5514 12.0845 14.5119 11.3649 13.5618C11.2883 13.4495 11.2114 13.337 11.1343 13.2241C11.8756 12.1937 12.501 11.0848 12.9992 9.91738C13.0607 9.76411 13.1063 9.60492 13.1353 9.44233C13.1422 9.39403 13.149 9.34328 13.156 9.29102C12.6636 10.6347 11.9136 11.8693 10.9481 12.9256C10.6492 13.278 10.6733 13.2696 11.0013 13.6304C11.9754 14.6902 12.6378 15.9986 12.9154 17.4111C12.9665 17.6393 12.9381 17.878 12.835 18.0878C12.5196 18.2909 12.1612 18.4176 11.7883 18.4581C11.4153 18.4985 11.0381 18.4514 10.6865 18.3207C10.3861 18.1268 10.1396 17.86 9.97003 17.5452C10.0365 17.7698 10.0987 18.0062 10.1565 18.2563Z" fill="#C1BAA0"/>
<path style="mix-blend-mode:multiply" fill-rule="evenodd" clip-rule="evenodd" d="M16.8337 18.0097C16.5165 18.2274 16.1433 18.3492 15.7587 18.3606C15.3741 18.372 14.9944 18.2725 14.6649 18.0739C14.5477 17.9707 14.4468 17.8504 14.3655 17.717C14.3487 17.6905 14.3325 17.6633 14.3164 17.6361C14.345 17.7405 14.3758 17.8385 14.4082 17.9292C14.4548 18.0645 14.5148 18.1947 14.5874 18.318C14.8423 18.737 16.7946 18.6182 16.9945 18.4516C17.1599 18.3035 17.2615 18.097 17.2778 17.8755C17.285 17.8113 17.288 17.7468 17.2867 17.6823C17.2766 17.1916 17.1978 16.8326 17.1559 16.4181C17.1268 16.1423 17.1223 15.8645 17.1423 15.5879C17.6548 15.6436 18.1727 15.6244 18.6797 15.5309C19.2338 15.3726 19.738 15.0748 20.1441 14.666C20.5502 14.2572 20.8445 13.751 20.999 13.1959C21.0611 13.0111 21.1094 12.8211 21.1431 12.6291C21.1039 12.7348 21.0604 12.8392 21.0129 12.942C20.304 14.4755 18.7108 15.635 17.2873 15.2748C17.1746 15.2463 17.1482 14.4175 17.0905 14.8289C17.0422 15.2071 17.0235 15.5885 17.0343 15.9697C17.0434 16.5261 17.1945 17.5702 16.8337 18.0097ZM18.2276 12.5697C18.1209 13.1757 17.8007 13.6766 17.0107 13.5342C16.9442 13.5222 16.9021 13.311 16.8762 13.0174C16.8802 13.1494 16.8889 13.2812 16.888 13.4132C16.8834 13.484 16.8967 13.5549 16.9267 13.6192C16.9567 13.6835 17.0024 13.7393 17.0597 13.7813C17.1169 13.8233 17.1837 13.8502 17.2541 13.8596C17.3244 13.8689 17.396 13.8604 17.4622 13.8348C17.6386 13.8053 17.8034 13.7274 17.9381 13.6098C18.0728 13.4921 18.1722 13.3393 18.2251 13.1685C18.3427 12.7011 18.3564 12.2135 18.2651 11.7402C18.2835 12.0173 18.271 12.2955 18.2276 12.5697Z" fill="#C1BAA0"/>
<path style="mix-blend-mode:screen" fill-rule="evenodd" clip-rule="evenodd" d="M14.4781 10.3906C14.4236 10.7606 14.6119 11.0623 14.9099 10.7906C15.3277 10.4094 15.5983 9.88494 16.018 9.50553C16.3508 9.24961 16.7057 9.02383 17.0786 8.83087C17.6275 8.48999 16.9903 8.29939 16.6446 8.28471C16.1513 8.25142 15.6638 8.40632 15.2801 8.7182C14.8264 9.16538 14.5428 9.75679 14.4781 10.3906Z" fill="#FFD9B7"/>
<path style="mix-blend-mode:screen" fill-rule="evenodd" clip-rule="evenodd" d="M6.86113 8.19629C6.63545 8.19869 6.41012 8.21479 6.18639 8.24449C5.40729 8.33151 5.52811 8.52325 5.74485 9.21637C5.87145 9.67649 6.05492 10.119 6.29102 10.5338C6.41743 10.7233 6.58445 10.6314 6.58389 10.381C6.52846 9.89044 6.51118 9.3963 6.53219 8.90304C6.54987 8.78424 6.59548 8.67134 6.6653 8.57361C6.73511 8.47588 6.82713 8.39612 6.93377 8.34088C6.94624 8.33029 6.9552 8.31617 6.95949 8.30038C6.96378 8.2846 6.96319 8.26789 6.95781 8.25244C6.94782 8.23561 6.9337 8.22161 6.91678 8.21178C6.89985 8.20196 6.8807 8.19662 6.86113 8.19629Z" fill="#FFD9B7"/>
<path style="mix-blend-mode:screen" fill-rule="evenodd" clip-rule="evenodd" d="M10.6453 8.16759C10.5711 8.16652 10.4974 8.18016 10.4284 8.20774C10.3929 8.22954 10.367 8.26399 10.3559 8.30414C10.3348 8.36341 10.239 8.9411 10.1909 9.26892C10.1475 9.56605 10.2258 9.68867 10.5007 9.40461C10.7337 9.13162 10.9519 8.84629 11.1543 8.54985C11.4171 8.155 11.2204 8.14373 10.6453 8.16759Z" fill="#FFD9B7"/>
</svg>
