<svg width="32" height="32" viewBox="0 0 32 32" fill="none" xmlns="http://www.w3.org/2000/svg">
<path d="M8.99278 2.67459C7.19678 1.67192 5.07078 2.51859 4.30078 4.21525L16.0848 15.9999L22.0941 9.99059L8.99278 2.67459Z" fill="url(#paint0_linear_4885_1436)"/>
<path d="M22.0941 22.0093L16.0848 16L4.30078 27.7847C5.07145 29.482 7.19745 30.328 8.99278 29.326L22.0941 22.0093Z" fill="url(#paint1_linear_4885_1436)"/>
<path d="M27.6127 18.9286C28.7593 18.2886 29.3327 17.1446 29.3333 15.9999C29.3327 14.8553 28.7593 13.7106 27.6127 13.0713L22.0933 9.9906L16.084 15.9999L22.0933 22.0093L27.6127 18.9286Z" fill="url(#paint2_linear_4885_1436)"/>
<path d="M4.3 4.21533C4.112 4.632 4 5.10133 4 5.60533V26.3913C4 26.8987 4.10933 27.3667 4.3 27.7847L16.0827 15.998L4.3 4.21533Z" fill="url(#paint3_linear_4885_1436)"/>
<defs>
<linearGradient id="paint0_linear_4885_1436" x1="12.0688" y1="2.16259" x2="16.8654" y2="23.1599" gradientUnits="userSpaceOnUse">
<stop stop-color="#35AB4A"/>
<stop offset="0.297" stop-color="#31A145"/>
<stop offset="0.798" stop-color="#288739"/>
<stop offset="1" stop-color="#237A33"/>
</linearGradient>
<linearGradient id="paint1_linear_4885_1436" x1="12.7728" y1="15.908" x2="14.1301" y2="44.6207" gradientUnits="userSpaceOnUse">
<stop stop-color="#F14E5D"/>
<stop offset="0.499" stop-color="#EA3D4F"/>
<stop offset="1" stop-color="#E12138"/>
</linearGradient>
<linearGradient id="paint2_linear_4885_1436" x1="21.962" y1="9.9326" x2="24.3607" y2="29.0746" gradientUnits="userSpaceOnUse">
<stop stop-color="#FFD844"/>
<stop offset="0.519" stop-color="#FFC63F"/>
<stop offset="1" stop-color="#FFB03A"/>
</linearGradient>
<linearGradient id="paint3_linear_4885_1436" x1="9.23533" y1="3.934" x2="10.3813" y2="28.5407" gradientUnits="userSpaceOnUse">
<stop offset="0.003" stop-color="#0090E6"/>
<stop offset="1" stop-color="#0065A0"/>
</linearGradient>
</defs>
</svg>
