<svg width="26" height="26" viewBox="0 0 26 26" fill="none" xmlns="http://www.w3.org/2000/svg">
<g id="Game">
<path id="Fill 1" fill-rule="evenodd" clip-rule="evenodd" d="M9.03125 18.3203C8.54825 18.3203 8.15625 17.9283 8.15625 17.4453V13.0762C8.15625 12.5932 8.54825 12.2012 9.03125 12.2012C9.51425 12.2012 9.90625 12.5932 9.90625 13.0762V17.4453C9.90625 17.9283 9.51425 18.3203 9.03125 18.3203Z" fill="#A99FAC"/>
<path id="Fill 3" fill-rule="evenodd" clip-rule="evenodd" d="M11.2606 16.1348H6.80273C6.31973 16.1348 5.92773 15.7428 5.92773 15.2598C5.92773 14.7768 6.31973 14.3848 6.80273 14.3848H11.2606C11.7436 14.3848 12.1356 14.7768 12.1356 15.2598C12.1356 15.7428 11.7436 16.1348 11.2606 16.1348Z" fill="#A99FAC"/>
<path id="Fill 5" fill-rule="evenodd" clip-rule="evenodd" d="M16.6356 14.084H16.5107C16.0277 14.084 15.6357 13.692 15.6357 13.209C15.6357 12.726 16.0277 12.334 16.5107 12.334H16.6356C17.1186 12.334 17.5106 12.726 17.5106 13.209C17.5106 13.692 17.1186 14.084 16.6356 14.084Z" fill="#A99FAC"/>
<path id="Fill 7" fill-rule="evenodd" clip-rule="evenodd" d="M18.7513 18.2539H18.6265C18.1435 18.2539 17.7515 17.8619 17.7515 17.3789C17.7515 16.8959 18.1435 16.5039 18.6265 16.5039H18.7513C19.2343 16.5039 19.6263 16.8959 19.6263 17.3789C19.6263 17.8619 19.2343 18.2539 18.7513 18.2539Z" fill="#A99FAC"/>
<g id="Group 11">
<mask id="mask0_2479_11575" style="mask-type:luminance" maskUnits="userSpaceOnUse" x="7" y="0" width="8" height="7">
<path id="Clip 10" fill-rule="evenodd" clip-rule="evenodd" d="M7.25049 0.166992H14.2972V6.68621H7.25049V0.166992Z" fill="white"/>
</mask>
<g mask="url(#mask0_2479_11575)">
<path id="Fill 9" fill-rule="evenodd" clip-rule="evenodd" d="M13.4222 6.68633C12.9392 6.68633 12.5472 6.29432 12.5472 5.81133V5.02383C12.5437 4.17916 11.8273 3.48499 10.9512 3.48149H9.72149C8.35999 3.48149 7.25049 2.38716 7.25049 1.04199C7.25049 0.558992 7.64249 0.166992 8.12549 0.166992C8.60965 0.166992 9.00049 0.558992 9.00049 1.04199C9.00049 1.42233 9.32365 1.73149 9.72149 1.73149H10.9547C12.7898 1.73733 14.289 3.21199 14.2972 5.01916V5.81133C14.2972 6.29432 13.9052 6.68633 13.4222 6.68633Z" fill="#A99FAC"/>
</g>
</g>
<g id="Group 14">
<mask id="mask1_2479_11575" style="mask-type:luminance" maskUnits="userSpaceOnUse" x="0" y="5" width="26" height="21">
<path id="Clip 13" fill-rule="evenodd" clip-rule="evenodd" d="M0.166992 5.26953H25.2501V25.2507H0.166992V5.26953Z" fill="white"/>
</mask>
<g mask="url(#mask1_2479_11575)">
<path id="Fill 12" fill-rule="evenodd" clip-rule="evenodd" d="M12.6515 7.01924C10.9295 7.01924 9.22849 7.03441 7.55783 7.06241C4.28299 7.06241 1.91699 9.37007 1.91699 12.5481V17.9731C1.91699 21.1499 4.28299 23.4576 7.54383 23.4576C10.982 23.5147 14.4482 23.5147 17.8595 23.4576H17.8747C21.1343 23.4576 23.5003 21.1499 23.5003 17.9731V12.5481C23.5003 9.37007 21.1343 7.06241 17.8747 7.06241C16.12 7.03441 14.3758 7.01924 12.6515 7.01924ZM12.7133 25.2507C10.9832 25.2507 9.25066 25.2356 7.52866 25.2076C3.26916 25.2076 0.166992 22.1637 0.166992 17.9731V12.5481C0.166992 8.35624 3.26916 5.31241 7.54383 5.31241C10.891 5.25524 14.377 5.25524 17.8887 5.31241C22.1482 5.31241 25.2503 8.35624 25.2503 12.5481V17.9731C25.2503 22.1614 22.1528 25.2041 17.8817 25.2076C16.169 25.2356 14.4423 25.2507 12.7133 25.2507Z" fill="#A99FAC"/>
</g>
</g>
</g>
</svg>
