<svg width="26" height="26" viewBox="0 0 26 26" fill="none" xmlns="http://www.w3.org/2000/svg">
<g clip-path="url(#clip0_116_20382)">
<path d="M13 26C10.4288 26 7.91543 25.2376 5.77759 23.8091C3.63975 22.3807 1.97351 20.3503 0.989572 17.9749C0.00563272 15.5995 -0.251811 12.9856 0.249797 10.4638C0.751405 7.94208 1.98954 5.6257 3.80762 3.80762C5.6257 1.98954 7.94208 0.751405 10.4638 0.249797C12.9856 -0.251811 15.5995 0.00563272 17.9749 0.989572C20.3503 1.97351 22.3807 3.63975 23.8091 5.77759C25.2376 7.91543 26 10.4288 26 13C25.9963 16.4467 24.6254 19.7511 22.1883 22.1883C19.7511 24.6254 16.4467 25.9963 13 26ZM13 2.16667C10.8574 2.16667 8.76286 2.80204 6.98133 3.99242C5.1998 5.1828 3.81126 6.87474 2.99131 8.85427C2.17136 10.8338 1.95683 13.012 2.37483 15.1135C2.79284 17.2149 3.82461 19.1453 5.33968 20.6603C6.85475 22.1754 8.78507 23.2072 10.8865 23.6252C12.988 24.0432 15.1662 23.8287 17.1457 23.0087C19.1253 22.1888 20.8172 20.8002 22.0076 19.0187C23.198 17.2372 23.8333 15.1426 23.8333 13C23.8302 10.1278 22.6878 7.37413 20.6568 5.34317C18.6259 3.31221 15.8722 2.16983 13 2.16667ZM8.66667 15.1667C8.49761 15.1659 8.33071 15.2047 8.17933 15.28C8.02796 15.3553 7.89631 15.465 7.79491 15.6003C7.69352 15.7356 7.62521 15.8928 7.59543 16.0592C7.56565 16.2256 7.57524 16.3967 7.62342 16.5588C8.01157 17.6935 8.73314 18.6848 9.69377 19.4028C10.6544 20.1209 11.8093 20.5323 13.0076 20.5833C14.2063 20.5361 15.3625 20.126 16.3231 19.4073C17.2838 18.6887 18.0036 17.6954 18.3874 16.5588C18.4308 16.3969 18.4368 16.2274 18.4051 16.0629C18.3733 15.8984 18.3046 15.7432 18.2041 15.6092C18.1037 15.4751 17.9741 15.3656 17.8251 15.2889C17.6761 15.2123 17.5117 15.1705 17.3442 15.1667H8.66667ZM6.50001 10.8333C6.50001 11.9167 7.46959 11.9167 8.66667 11.9167C9.86376 11.9167 10.8333 11.9167 10.8333 10.8333C10.8333 10.2587 10.6051 9.7076 10.1987 9.30128C9.79241 8.89495 9.24131 8.66667 8.66667 8.66667C8.09204 8.66667 7.54094 8.89495 7.13461 9.30128C6.72828 9.7076 6.50001 10.2587 6.50001 10.8333ZM15.1667 10.8333C15.1667 11.9167 16.1363 11.9167 17.3333 11.9167C18.5304 11.9167 19.5 11.9167 19.5 10.8333C19.5 10.2587 19.2717 9.7076 18.8654 9.30128C18.4591 8.89495 17.908 8.66667 17.3333 8.66667C16.7587 8.66667 16.2076 8.89495 15.8013 9.30128C15.3949 9.7076 15.1667 10.2587 15.1667 10.8333Z" fill="#A99FAC"/>
</g>
<defs>
<clipPath id="clip0_116_20382">
<rect width="26" height="26" fill="white"/>
</clipPath>
</defs>
</svg>
