<svg width="28" height="28" viewBox="0 0 28 28" fill="none" xmlns="http://www.w3.org/2000/svg">
<path fill-rule="evenodd" clip-rule="evenodd" d="M17.358 6.76294C17.7256 6.76798 18.0941 6.77303 18.4639 6.77681C22.4367 6.77681 25.3333 9.60918 25.3333 13.5206V18.5446C25.3333 22.456 22.4367 25.2884 18.4639 25.2884C16.8724 25.3221 15.281 25.3333 13.6781 25.3333C12.0752 25.3333 10.4609 25.3221 8.86948 25.2884C4.89663 25.2884 2 22.456 2 18.5446V13.5206C2 9.60918 4.89663 6.77681 8.88093 6.77681C10.3808 6.75434 11.915 6.73186 13.472 6.73186V6.54078C13.472 5.76525 12.8194 5.13584 12.0409 5.13584H10.9074C9.61367 5.13584 8.56035 4.1018 8.56035 2.84297C8.56035 2.38215 8.94962 2 9.41904 2C9.8999 2 10.2777 2.38215 10.2777 2.84297C10.2777 3.18015 10.564 3.4499 10.9074 3.4499H12.0409C13.7697 3.46114 15.178 4.84361 15.1894 6.52954V6.7431C15.9112 6.7431 16.6329 6.75299 17.358 6.76294ZM12.3278 16.8702H11.1256V18.0616C11.1256 18.5224 10.7363 18.9045 10.2669 18.9045C9.78605 18.9045 9.40823 18.5224 9.40823 18.0616V16.8702H8.19462C7.72521 16.8702 7.33594 16.4993 7.33594 16.0272C7.33594 15.5664 7.72521 15.1843 8.19462 15.1843H9.40823V14.0041C9.40823 13.5433 9.78605 13.1611 10.2669 13.1611C10.7363 13.1611 11.1256 13.5433 11.1256 14.0041V15.1843H12.3278C12.7972 15.1843 13.1864 15.5664 13.1864 16.0272C13.1864 16.4993 12.7972 16.8702 12.3278 16.8702ZM17.1946 14.9711H17.3091C17.7785 14.9711 18.1678 14.6002 18.1678 14.1281C18.1678 13.6673 17.7785 13.2852 17.3091 13.2852H17.1946C16.7138 13.2852 16.3359 13.6673 16.3359 14.1281C16.3359 14.6002 16.7138 14.9711 17.1946 14.9711ZM19.1477 18.8373H19.2622C19.7317 18.8373 20.1209 18.4664 20.1209 17.9943C20.1209 17.5335 19.7317 17.1514 19.2622 17.1514H19.1477C18.6657 17.1514 18.2891 17.5335 18.2891 17.9943C18.2891 18.4664 18.6657 18.8373 19.1477 18.8373Z" fill="url(#paint0_linear_15_64379)"/>
<defs>
<linearGradient id="paint0_linear_15_64379" x1="2" y1="2" x2="27.2078" y2="4.2401" gradientUnits="userSpaceOnUse">
<stop stop-color="#F71756"/>
<stop offset="1" stop-color="#FDEB56"/>
</linearGradient>
</defs>
</svg>
