<svg width="26" height="26" viewBox="0 0 26 26" fill="none" xmlns="http://www.w3.org/2000/svg">
<circle cx="13" cy="13" r="13" fill="url(#paint0_linear_184_9915)"/>
<path d="M7.8085 15.6134C7.97152 15.5381 8.15126 15.4992 8.33333 15.5H17.6783C17.8587 15.5038 18.0358 15.5456 18.1962 15.6223C18.3567 15.6989 18.4963 15.8084 18.6045 15.9425C18.7127 16.0765 18.7866 16.2317 18.8208 16.3962C18.855 16.5607 18.8485 16.7303 18.8018 16.8921C18.3885 18.0287 17.6133 19.022 16.5787 19.7407C15.5442 20.4593 14.2991 20.8694 13.0082 20.9167C11.7178 20.8656 10.474 20.4542 9.43944 19.7361C8.40492 19.0181 7.62784 18.0269 7.20983 16.8921C7.15794 16.73 7.14762 16.5589 7.17968 16.3925C7.21175 16.2261 7.28533 16.0689 7.39452 15.9336C7.50371 15.7984 7.64548 15.6887 7.8085 15.6134Z" fill="#3D2644"/>
<path d="M8.33333 12.25C7.04417 12.25 6 12.25 6 11.1667C6 10.592 6.24583 10.0409 6.68342 9.6346C7.121 9.22827 7.71449 9 8.33333 9C8.95217 9 9.54566 9.22827 9.98325 9.6346C10.4208 10.0409 10.6667 10.592 10.6667 11.1667C10.6667 12.25 9.6225 12.25 8.33333 12.25Z" fill="#3D2644"/>
<path d="M17.6667 12.25C16.3775 12.25 15.3333 12.25 15.3333 11.1667C15.3333 10.592 15.5792 10.0409 16.0168 9.6346C16.4543 9.22827 17.0478 9 17.6667 9C18.2855 9 18.879 9.22827 19.3166 9.6346C19.7542 10.0409 20 10.592 20 11.1667C20 12.25 18.9558 12.25 17.6667 12.25Z" fill="#3D2644"/>
<defs>
<linearGradient id="paint0_linear_184_9915" x1="0" y1="0" x2="28.0887" y2="2.49611" gradientUnits="userSpaceOnUse">
<stop stop-color="#F71756"/>
<stop offset="1" stop-color="#FDEB56"/>
</linearGradient>
</defs>
</svg>
