<svg width="24" height="24" viewBox="0 0 24 24" fill="none" xmlns="http://www.w3.org/2000/svg">
<path fill-rule="evenodd" clip-rule="evenodd" d="M8.59766 16.5596C8.18366 16.5596 7.84766 16.2236 7.84766 15.8096V12.0646C7.84766 11.6506 8.18366 11.3146 8.59766 11.3146C9.01166 11.3146 9.34766 11.6506 9.34766 12.0646V15.8096C9.34766 16.2236 9.01166 16.5596 8.59766 16.5596Z" fill="#140902"/>
<path fill-rule="evenodd" clip-rule="evenodd" d="M10.5085 14.6865H6.6875C6.2735 14.6865 5.9375 14.3505 5.9375 13.9365C5.9375 13.5225 6.2735 13.1865 6.6875 13.1865H10.5085C10.9225 13.1865 11.2585 13.5225 11.2585 13.9365C11.2585 14.3505 10.9225 14.6865 10.5085 14.6865Z" fill="#140902"/>
<path fill-rule="evenodd" clip-rule="evenodd" d="M15.1158 12.9287H15.0088C14.5948 12.9287 14.2588 12.5927 14.2588 12.1787C14.2588 11.7647 14.5948 11.4287 15.0088 11.4287H15.1158C15.5298 11.4287 15.8658 11.7647 15.8658 12.1787C15.8658 12.5927 15.5298 12.9287 15.1158 12.9287Z" fill="#140902"/>
<path fill-rule="evenodd" clip-rule="evenodd" d="M16.9293 16.5031H16.8223C16.4083 16.5031 16.0723 16.1671 16.0723 15.7531C16.0723 15.3391 16.4083 15.0031 16.8223 15.0031H16.9293C17.3433 15.0031 17.6793 15.3391 17.6793 15.7531C17.6793 16.1671 17.3433 16.5031 16.9293 16.5031Z" fill="#140902"/>
<mask id="mask0_4885_672" style="mask-type:luminance" maskUnits="userSpaceOnUse" x="7" y="1" width="7" height="6">
<path fill-rule="evenodd" clip-rule="evenodd" d="M7.07129 1.00012H13.1113V6.58802H7.07129V1.00012Z" fill="white"/>
</mask>
<g mask="url(#mask0_4885_672)">
<path fill-rule="evenodd" clip-rule="evenodd" d="M12.3613 6.588C11.9473 6.588 11.6113 6.252 11.6113 5.838V5.163C11.6083 4.439 10.9943 3.844 10.2433 3.841H9.18929C8.02229 3.841 7.07129 2.903 7.07129 1.75C7.07129 1.336 7.40729 1 7.82129 1C8.23629 1 8.57129 1.336 8.57129 1.75C8.57129 2.076 8.84829 2.341 9.18929 2.341H10.2463C11.8193 2.346 13.1043 3.61 13.1113 5.159V5.838C13.1113 6.252 12.7753 6.588 12.3613 6.588Z" fill="#140902"/>
</g>
<mask id="mask1_4885_672" style="mask-type:luminance" maskUnits="userSpaceOnUse" x="0" y="5" width="23" height="18">
<path fill-rule="evenodd" clip-rule="evenodd" d="M0.999023 5.37329H22.4988V22.5H0.999023V5.37329Z" fill="white"/>
</mask>
<g mask="url(#mask1_4885_672)">
<path fill-rule="evenodd" clip-rule="evenodd" d="M11.7 6.873C10.224 6.873 8.76602 6.886 7.33402 6.91C4.52702 6.91 2.49902 8.888 2.49902 11.612V16.262C2.49902 18.985 4.52702 20.963 7.32202 20.963C10.269 21.012 13.24 21.012 16.164 20.963H16.177C18.971 20.963 20.999 18.985 20.999 16.262V11.612C20.999 8.888 18.971 6.91 16.177 6.91C14.673 6.886 13.178 6.873 11.7 6.873ZM11.753 22.5C10.27 22.5 8.78502 22.487 7.30902 22.463C3.65802 22.463 0.999023 19.854 0.999023 16.262V11.612C0.999023 8.01904 3.65802 5.41004 7.32202 5.41004C10.191 5.36104 13.179 5.36104 16.189 5.41004C19.84 5.41004 22.499 8.01904 22.499 11.612V16.262C22.499 19.852 19.844 22.46 16.183 22.463C14.715 22.487 13.235 22.5 11.753 22.5Z" fill="#140902"/>
</g>
</svg>
