<svg width="70" height="70" viewBox="0 0 70 70" fill="none" xmlns="http://www.w3.org/2000/svg">
<rect x="0.5" y="0.5" width="69" height="69" rx="3.5" fill="#4A352F"/>
<rect x="0.5" y="0.5" width="69" height="69" rx="3.5" stroke="url(#paint0_linear_1616_46409)"/>
<g clip-path="url(#clip0_1616_46409)">
<g style="mix-blend-mode:multiply" opacity="0.7">
<path opacity="0.04762" d="M34.6974 60.8427C47.2428 60.8427 57.4128 59.0176 57.4128 56.7662C57.4128 54.5147 47.2428 52.6896 34.6974 52.6896C22.1521 52.6896 11.9821 54.5147 11.9821 56.7662C11.9821 59.0176 22.1521 60.8427 34.6974 60.8427Z" fill="#FBF9F8"/>
<path opacity="0.09524" d="M34.6974 60.6854C47.0645 60.6854 57.09 58.9268 57.09 56.7573C57.09 54.5879 47.0645 52.8292 34.6974 52.8292C22.3303 52.8292 12.3048 54.5879 12.3048 56.7573C12.3048 58.9268 22.3303 60.6854 34.6974 60.6854Z" fill="#F7F3F0"/>
<path opacity="0.14286" d="M34.6974 60.5281C46.8862 60.5281 56.7671 58.8359 56.7671 56.7485C56.7671 54.6611 46.8862 52.9689 34.6974 52.9689C22.5085 52.9689 12.6276 54.6611 12.6276 56.7485C12.6276 58.8359 22.5085 60.5281 34.6974 60.5281Z" fill="#F3EDE9"/>
<path opacity="0.19048" d="M34.6974 60.3709C46.7079 60.3709 56.4444 58.7452 56.4444 56.7398C56.4444 54.7343 46.7079 53.1086 34.6974 53.1086C22.6869 53.1086 12.9504 54.7343 12.9504 56.7398C12.9504 58.7452 22.6869 60.3709 34.6974 60.3709Z" fill="#EEE7E2"/>
<path opacity="0.2381" d="M34.6974 60.2136C46.5296 60.2136 56.1216 58.6543 56.1216 56.7309C56.1216 54.8075 46.5296 53.2483 34.6974 53.2483C22.8651 53.2483 13.2732 54.8075 13.2732 56.7309C13.2732 58.6543 22.8651 60.2136 34.6974 60.2136Z" fill="#EAE1DB"/>
<path opacity="0.28571" d="M34.6973 60.0563C46.3513 60.0563 55.7988 58.5636 55.7988 56.7222C55.7988 54.8808 46.3513 53.3881 34.6973 53.3881C23.0434 53.3881 13.5959 54.8808 13.5959 56.7222C13.5959 58.5636 23.0434 60.0563 34.6973 60.0563Z" fill="#E6DCD3"/>
<path opacity="0.33333" d="M34.6974 59.8991C46.1731 59.8991 55.476 58.4728 55.476 56.7134C55.476 54.954 46.1731 53.5277 34.6974 53.5277C23.2217 53.5277 13.9188 54.954 13.9188 56.7134C13.9188 58.4728 23.2217 59.8991 34.6974 59.8991Z" fill="#E2D6CC"/>
<path opacity="0.38095" d="M55.1532 56.7045C55.1532 58.3819 45.9948 59.7417 34.6974 59.7417C23.4 59.7417 14.2416 58.3819 14.2416 56.7045C14.2416 55.0271 23.4 53.6674 34.6974 53.6674C45.9948 53.6674 55.1532 55.0271 55.1532 56.7045Z" fill="#DED0C5"/>
<path opacity="0.42857" d="M34.6973 59.5845C45.8165 59.5845 54.8304 58.2912 54.8304 56.6958C54.8304 55.1004 45.8165 53.8071 34.6973 53.8071C23.5782 53.8071 14.5643 55.1004 14.5643 56.6958C14.5643 58.2912 23.5782 59.5845 34.6973 59.5845Z" fill="#DACABD"/>
<path opacity="0.47619" d="M34.6974 59.4272C45.6383 59.4272 54.5076 58.2004 54.5076 56.687C54.5076 55.1736 45.6383 53.9468 34.6974 53.9468C23.7565 53.9468 14.8872 55.1736 14.8872 56.687C14.8872 58.2004 23.7565 59.4272 34.6974 59.4272Z" fill="#D6C4B6"/>
<path opacity="0.52381" d="M54.1848 56.6782C54.1848 58.1096 45.46 59.27 34.6974 59.27C23.9348 59.27 15.21 58.1096 15.21 56.6782C15.21 55.2469 23.9348 54.0865 34.6974 54.0865C45.46 54.0865 54.1848 55.2469 54.1848 56.6782Z" fill="#D1BEAF"/>
<path opacity="0.57143" d="M34.6974 59.1127C45.2817 59.1127 53.862 58.0188 53.862 56.6694C53.862 55.3201 45.2817 54.2262 34.6974 54.2262C24.1131 54.2262 15.5328 55.3201 15.5328 56.6694C15.5328 58.0188 24.1131 59.1127 34.6974 59.1127Z" fill="#CDB8A8"/>
<path opacity="0.61905" d="M53.5392 56.6606C53.5392 57.928 45.1034 58.9553 34.6974 58.9553C24.2913 58.9553 15.8556 57.928 15.8556 56.6606C15.8556 55.3932 24.2913 54.3658 34.6974 54.3658C45.1034 54.3658 53.5392 55.3932 53.5392 56.6606Z" fill="#C9B2A0"/>
<path opacity="0.66667" d="M34.6974 58.7981C44.9251 58.7981 53.2164 57.8372 53.2164 56.6519C53.2164 55.4665 44.9251 54.5056 34.6974 54.5056C24.4696 54.5056 16.1783 55.4665 16.1783 56.6519C16.1783 57.8372 24.4696 58.7981 34.6974 58.7981Z" fill="#C5AC99"/>
<path opacity="0.71429" d="M34.6974 58.6409C44.7469 58.6409 52.8936 57.7465 52.8936 56.6431C52.8936 55.5398 44.7469 54.6454 34.6974 54.6454C24.6479 54.6454 16.5012 55.5398 16.5012 56.6431C16.5012 57.7465 24.6479 58.6409 34.6974 58.6409Z" fill="#C1A692"/>
<path opacity="0.7619" d="M52.5708 56.6343C52.5708 57.6557 44.5686 58.4836 34.6974 58.4836C24.8262 58.4836 16.824 57.6557 16.824 56.6343C16.824 55.613 24.8262 54.785 34.6974 54.785C44.5686 54.785 52.5708 55.613 52.5708 56.6343Z" fill="#BDA18A"/>
<path opacity="0.80952" d="M52.248 56.6255C52.248 57.5648 44.3903 58.3263 34.6974 58.3263C25.0044 58.3263 17.1467 57.5648 17.1467 56.6255C17.1467 55.6862 25.0044 54.9247 34.6974 54.9247C44.3903 54.9247 52.248 55.6862 52.248 56.6255Z" fill="#B99B83"/>
<path opacity="0.85714" d="M34.6974 58.1691C44.2121 58.1691 51.9252 57.4741 51.9252 56.6168C51.9252 55.7595 44.2121 55.0645 34.6974 55.0645C25.1828 55.0645 17.4696 55.7595 17.4696 56.6168C17.4696 57.4741 25.1828 58.1691 34.6974 58.1691Z" fill="#B4957C"/>
<path opacity="0.90476" d="M51.6024 56.608C51.6024 57.3833 44.0338 58.0118 34.6974 58.0118C25.361 58.0118 17.7924 57.3833 17.7924 56.608C17.7924 55.8326 25.361 55.2041 34.6974 55.2041C44.0338 55.2041 51.6024 55.8326 51.6024 56.608Z" fill="#B08F75"/>
<path opacity="0.95238" d="M51.2795 56.5992C51.2795 57.2925 43.8554 57.8546 34.6973 57.8546C25.5392 57.8546 18.1151 57.2925 18.1151 56.5992C18.1151 55.9059 25.5392 55.3439 34.6973 55.3439C43.8554 55.3439 51.2795 55.9059 51.2795 56.5992Z" fill="#AC896D"/>
<path d="M34.6974 57.6972C43.6773 57.6972 50.9569 57.2017 50.9569 56.5904C50.9569 55.9791 43.6773 55.4835 34.6974 55.4835C25.7176 55.4835 18.438 55.9791 18.438 56.5904C18.438 57.2017 25.7176 57.6972 34.6974 57.6972Z" fill="#A88366"/>
</g>
<path d="M56.8051 51.5657V55.5571C56.8051 56.6555 47.0701 57.5495 35.061 57.5495C29.4796 57.5906 23.8996 57.351 18.3422 56.8316H18.3356C15.1993 56.486 13.3164 56.0396 13.3164 55.5571V51.5657H56.8051Z" fill="url(#paint1_linear_1616_46409)"/>
<g style="mix-blend-mode:color-burn" opacity="0.1">
<path d="M56.8051 51.5657V55.5571C56.8051 56.6555 47.07 57.5495 35.0609 57.5495C29.4795 57.5906 23.8995 57.351 18.3422 56.8316C31.8333 56.3001 22.1402 53.1709 22.1402 53.1709L29.4078 51.5657H56.8051Z" fill="#848484"/>
</g>
<path d="M56.805 51.5665C56.805 51.7479 56.5357 51.9293 56.0347 52.0945C53.5165 52.9421 45.0776 53.5633 35.0618 53.5633C30.5635 53.5633 26.3854 53.4392 22.9154 53.222H22.9004C22.1812 53.1757 21.4934 53.1284 20.8471 53.0715C16.2349 52.7099 13.319 52.1722 13.319 51.5665C13.319 51.2981 13.8982 51.0393 14.9582 50.8071C16.1256 50.5699 17.3042 50.3919 18.4896 50.2738C19.4564 50.1661 20.5371 50.0729 21.7163 49.9904C24.4001 49.7983 27.5849 49.6641 31.0545 49.6076C31.8765 49.5918 32.7198 49.5869 33.5727 49.5811C34.0641 49.5763 34.5603 49.5763 35.0618 49.5763C35.9359 49.5763 36.7995 49.5763 37.6471 49.5869H37.6784C40.6514 49.6173 43.4384 49.7105 45.9151 49.8451C46.5464 49.8761 47.1512 49.9122 47.7402 49.9489C49.3326 50.0517 50.771 50.1762 52.0009 50.3153C53.2633 50.4338 54.5148 50.6483 55.7446 50.9568C56.4324 51.1484 56.805 51.355 56.805 51.5665Z" fill="url(#paint2_linear_1616_46409)"/>
<g style="mix-blend-mode:color-burn" opacity="0.3">
<path d="M56.8051 51.5657C56.8051 52.4005 51.2195 53.1148 43.2897 53.4137C40.7516 53.5086 37.9712 53.5611 35.061 53.5611C30.5627 53.5611 26.3846 53.4384 22.9146 53.2203C39.2246 52.5797 39.4184 50.7569 37.6471 49.5883C42.7087 49.6408 47.2422 49.8554 50.6244 50.1719C54.4498 50.5348 56.8051 51.0244 56.8051 51.5657Z" fill="#848484"/>
</g>
<g style="mix-blend-mode:color-burn" opacity="0.3">
<path d="M33.5727 49.5812L29.9009 51.7223L29.8396 51.7585L29.7517 51.7431L26.4371 51.1016L24.4464 50.714L24.4049 50.7087L24.3171 50.714L21.0228 51.0447H21.0179L15.0301 51.6447L14.0947 51.7431L13.9189 51.7585L14.0324 51.7223L14.6995 51.5052L16.5762 50.895L18.4895 50.2738C19.4564 50.1662 20.5371 50.073 21.7163 49.9904C24.4001 49.7984 27.5849 49.6642 31.0545 49.6077C31.8765 49.5918 32.7198 49.5869 33.5727 49.5812Z" fill="#848484"/>
</g>
<g style="mix-blend-mode:color-burn" opacity="0.3">
<path d="M55.7712 51.0496C55.7712 51.231 55.5019 51.412 55.0003 51.5772L52.5338 51.1017L50.5432 50.7141L50.5017 50.7088L50.4138 50.7141L47.12 51.0447L41.1322 51.6447L40.1909 51.7431L40.0153 51.7586L40.1296 51.7224L40.7962 51.5052L42.6734 50.8951L45.9152 49.8452C46.5465 49.8761 47.1513 49.9123 47.7403 49.949C49.3326 50.0518 50.771 50.1763 52.001 50.3154C53.2633 50.4339 54.5149 50.6483 55.7447 50.9569C55.7606 50.9853 55.7696 51.017 55.7712 51.0496Z" fill="#848484"/>
</g>
<g style="mix-blend-mode:color-burn" opacity="0.1">
<path d="M56.8051 51.5656C56.8051 52.4004 51.2196 53.1147 43.2897 53.4137C43.3149 53.4137 43.3431 53.411 43.3714 53.411C51.5264 52.9457 52.0363 51.4817 50.6244 50.1719C54.4498 50.5348 56.8051 51.0243 56.8051 51.5656Z" fill="#848484"/>
</g>
<path d="M49.462 19.72L49.3433 19.8392L48.5835 20.5787L48.2934 20.8586L47.6166 21.5146L42.1564 26.8459H42.1516L42.0889 26.9077L42.0995 26.9805L43.0615 32.575V32.5803L43.2213 33.5268L43.8005 36.8979L43.8261 37.0635L43.6764 36.9858L39.5345 34.8089L38.1227 34.0641L34.7833 32.3057L34.7105 32.2699L34.6327 32.3057L31.7684 33.816L29.8758 34.8089L26.5612 36.5562L25.7445 36.9858L25.5944 37.0635L25.62 36.8979L25.7908 35.9099L26.1939 33.5683L26.2663 33.1335C26.2663 33.1245 26.2681 33.1157 26.2716 33.1074L27.3214 26.9805L27.332 26.913V26.9077L27.2645 26.8406L22.1866 21.8974L20.0768 19.8392L19.958 19.72L20.1236 19.6948L23.247 19.2397L30.0719 18.2517L30.1495 18.2367L30.191 18.159L32.3989 13.681L33.7176 11.0079L33.971 10.4958L34.6327 9.15147L34.7105 9.00134L34.7833 9.15147L35.5118 10.6251L35.8583 11.3341L39.2396 18.1797L39.2497 18.1952L39.2709 18.2367L39.3897 18.257L46.8304 19.3381L47.9323 19.498L49.2916 19.6948H49.2969L49.462 19.72Z" fill="url(#paint3_linear_1616_46409)"/>
<path d="M34.6327 24.7828V32.3056L31.7684 33.816L29.8758 34.8088L26.5611 36.5562L25.7444 36.9858L27.569 34.4782L29.8294 31.3754L33.3034 26.6026L33.3091 26.5978L34.6327 24.7828Z" fill="url(#paint4_linear_1616_46409)"/>
<path d="M34.5448 24.6429L33.0663 26.6755C33.061 26.6755 33.061 26.6803 33.061 26.6856L31.0178 29.4881L31.013 29.493L31.0081 29.4983V29.5031C31.0018 29.5124 30.9949 29.5213 30.9873 29.5296C30.9824 29.5453 30.9734 29.5595 30.9613 29.5707L27.4039 34.4517L25.6199 36.8979L25.7907 35.9099L26.1938 33.5683L26.2662 33.1334C26.2662 33.1245 26.268 33.1156 26.2715 33.1074L27.3213 26.9805L27.3469 26.9752L27.4714 26.9342L32.6213 25.2636L33.2676 25.0566L34.5448 24.6429Z" fill="url(#paint5_linear_1616_46409)"/>
<path d="M49.3417 19.839L48.2934 20.8602L47.6352 21.5017L42.1542 26.8443L40.2211 26.2187L34.9531 24.513L41.2455 22.4692L49.3417 19.839Z" fill="url(#paint6_linear_1616_46409)"/>
<path d="M43.6763 36.9856L39.5344 34.8089L38.1226 34.0639L34.7831 32.3058V24.7412L36.3595 26.913L41.8513 34.473L43.6763 36.9856Z" fill="url(#paint7_linear_1616_46409)"/>
<path d="M34.4658 24.513L33.591 24.7955L27.2629 26.8407L22.187 21.895L20.079 19.839L34.4658 24.513Z" fill="url(#paint8_linear_1616_46409)"/>
<path d="M43.8002 36.898L42.0222 34.4468L36.3645 26.6648L34.907 24.6536L36.1787 25.0668L40.222 26.3755L42.0995 26.9804L43.0615 32.5748V32.5802L43.2211 33.5269L43.8002 36.898Z" fill="url(#paint9_linear_1616_46409)"/>
<path d="M34.6335 9.15149V24.2833L34.6023 24.239L34.6001 24.2377L30.1906 18.16L32.4007 13.679L33.7185 11.0068L34.6335 9.15149Z" fill="url(#paint10_linear_1616_46409)"/>
<path d="M49.2933 19.6947L42.1212 22.0256L34.9418 24.3587L39.3893 18.2557L46.8313 19.3362L49.2933 19.6947Z" fill="url(#paint11_linear_1616_46409)"/>
<path d="M39.2478 18.1743L39.2414 18.182L34.7831 24.3004V9.13196L35.8635 11.32L39.2478 18.1743Z" fill="url(#paint12_linear_1616_46409)"/>
<path d="M34.5151 24.371L20.1251 19.6947L23.2458 19.2417L30.0717 18.2499L33.9242 23.5568L34.5151 24.371Z" fill="url(#paint13_linear_1616_46409)"/>
<g style="mix-blend-mode:color-burn" opacity="0.1">
<path d="M27.3312 26.9076L27.3333 26.9123V26.9086L27.3312 26.9076Z" fill="#848484"/>
</g>
<g style="mix-blend-mode:color-burn" opacity="0.1">
<path d="M42.1542 26.8442L42.0873 26.9084L42.1542 26.8442Z" fill="#848484"/>
</g>
<g style="mix-blend-mode:color-burn" opacity="0.1">
<path d="M27.2629 26.8411L27.3312 26.9075L27.2629 26.8411Z" fill="#848484"/>
</g>
<g style="mix-blend-mode:color-burn" opacity="0.1">
<path d="M27.3208 26.9812L27.333 26.9116L27.3208 26.9812Z" fill="#848484"/>
</g>
<g style="mix-blend-mode:color-burn" opacity="0.1">
<path d="M37.4922 23.6916L34.9533 24.5136L36.2252 24.9273L40.2223 26.2199L42.1516 26.8459L42.0889 26.9077L42.0995 26.9805L40.2223 26.3753L36.1788 25.0668V25.0614L34.9069 24.6535L36.3647 26.6649L42.0222 34.4469L43.8005 36.8979L43.8261 37.0635L43.6764 36.9858L41.8514 34.4729L36.3594 26.913L34.7833 24.7414V32.3057L34.7105 32.2699L34.6327 32.3057V24.7829L33.3092 26.5978L33.3035 26.6027L29.8295 31.3755L27.5691 34.4782L25.7445 36.9858L25.5944 37.0635L25.62 36.8979L27.404 34.4517L30.9614 29.5707C30.9735 29.5595 30.9825 29.5454 30.9874 29.5297C30.9949 29.5213 31.0019 29.5125 31.0082 29.5032V29.4983L31.0131 29.493L31.0179 29.4882L33.0611 26.6857C33.0611 26.6804 33.0611 26.6755 33.0664 26.6755L34.5449 24.643L33.2677 25.0566L32.6214 25.2637L27.4715 26.9342L27.347 26.9753L27.3214 26.9805L27.332 26.913V26.9077L27.2645 26.8406L33.2214 24.9171L33.4743 24.8346L33.5728 24.8032C33.5781 24.7979 33.5882 24.7979 33.5935 24.7931L34.4667 24.5136L32.1508 23.7587L20.0768 19.8392L19.958 19.72L20.1236 19.6948L32.492 23.7123L34.514 24.3688L33.9246 23.5569L33.8469 23.4541L30.0719 18.2517L30.1495 18.2367L30.191 18.159L33.9661 23.3662L34.6019 24.2394C34.6124 24.25 34.6226 24.2659 34.6327 24.2761V9.15147L34.7105 9.00134L34.7833 9.15147V24.3224L35.5325 23.2933L39.2497 18.1952L39.2709 18.2367L39.3897 18.257L35.6566 23.3812L34.9427 24.3586L37.192 23.6297L42.1202 22.0267L49.2916 19.6948H49.2969L49.462 19.72L49.3433 19.8392L41.2465 22.4713L37.4922 23.6916Z" fill="#848484"/>
</g>
<g style="mix-blend-mode:color-burn" opacity="0.1">
<path d="M37.4922 23.6916L34.9533 24.5136L36.2252 24.9273L40.2223 26.2199L42.1516 26.8459L42.0889 26.9077L42.0995 26.9805L40.2223 26.3753L36.1788 25.0668V25.0614L34.9069 24.6535L36.3647 26.6649L42.0222 34.4469L43.8005 36.8979L43.8261 37.0635L43.6764 36.9858L41.8514 34.4729L36.3594 26.913L34.7833 24.7414V32.3057L34.7105 32.2699L34.6327 32.3057V24.7829L33.3092 26.5978L33.3035 26.6027L29.8295 31.3755L27.5691 34.4782L25.7445 36.9858L25.5944 37.0635L25.62 36.8979L27.404 34.4517L30.9614 29.5707C30.9735 29.5595 30.9825 29.5454 30.9874 29.5297C30.9949 29.5213 31.0019 29.5125 31.0082 29.5032V29.4983L31.0131 29.493L31.0179 29.4882L33.0611 26.6857C33.0611 26.6804 33.0611 26.6755 33.0664 26.6755L34.5449 24.643L33.2677 25.0566L32.6214 25.2637L27.4715 26.9342L27.347 26.9753L27.3214 26.9805L27.332 26.913V26.9077L27.2645 26.8406L33.2214 24.9171L33.4743 24.8346L33.5728 24.8032C33.5781 24.7979 33.5882 24.7979 33.5935 24.7931L34.4667 24.5136L32.1508 23.7587L20.0768 19.8392L19.958 19.72L20.1236 19.6948L32.492 23.7123L34.514 24.3688L33.9246 23.5569L33.8469 23.4541L30.0719 18.2517L30.1495 18.2367L30.191 18.159L33.9661 23.3662L34.6019 24.2394C34.6124 24.25 34.6226 24.2659 34.6327 24.2761V9.15147L34.7105 9.00134L34.7833 9.15147V24.3224L35.5325 23.2933L39.2497 18.1952L39.2709 18.2367L39.3897 18.257L35.6566 23.3812L34.9427 24.3586L37.192 23.6297L42.1202 22.0267L49.2916 19.6948H49.2969L49.462 19.72L49.3433 19.8392L41.2465 22.4713L37.4922 23.6916Z" fill="#848484"/>
</g>
<path style="mix-blend-mode:soft-light" opacity="0.8" d="M35.5125 10.6092C35.5112 10.6123 35.5143 10.6052 35.5125 10.6092C35.5125 10.6092 34.9324 15.9524 34.7832 17.5837C34.7294 18.1655 34.7028 18.6322 34.7051 18.92C34.6936 18.5598 34.6675 18.1607 34.6335 17.7382C34.4548 15.5714 34.2649 12.2427 33.9713 10.4949L34.6335 9.15144L34.7081 9L34.7832 9.15144V9.132L35.5125 10.6092Z" fill="url(#paint14_linear_1616_46409)"/>
<path style="mix-blend-mode:soft-light" opacity="0.8" d="M49.4633 19.7191L49.3419 19.8388L48.5844 20.5769C46.3575 21.0948 43.3299 21.9923 41.2457 22.4691C41.2414 22.4707 41.2369 22.4717 41.2324 22.4722C41.2324 22.4722 41.5728 22.3075 42.1211 22.0254C43.2116 21.4665 47.9341 19.4971 47.9341 19.4971L49.2934 19.6949H49.2956L49.4633 19.7191Z" fill="url(#paint15_linear_1616_46409)"/>
<g style="mix-blend-mode:soft-light" opacity="0.2">
<path d="M34.695 20.9491C34.695 20.9491 34.3096 24.5343 38.033 23.4474C35.5131 24.4217 35.8967 26.0715 36.7585 27.3461C36.7585 27.4613 34.7833 24.3202 32.6598 27.3501C32.6598 27.3501 34.7842 24.7427 31.5142 23.4593C31.6974 23.4734 34.7718 24.9467 34.695 20.9491Z" fill="white"/>
</g>
<g style="mix-blend-mode:color-burn" opacity="0.3">
<path d="M34.7104 24.371C34.6949 24.3542 34.6698 24.3229 34.6336 24.2779C34.623 24.266 34.6137 24.2527 34.6022 24.239L34.6 24.2377L30.1906 18.1598L32.4006 13.6788C32.4478 16.3551 32.7935 21.4122 34.6336 24.2536C34.6587 24.2942 34.6844 24.3326 34.7104 24.371Z" fill="#848484"/>
</g>
<g style="mix-blend-mode:color-burn" opacity="0.2">
<path d="M33.9241 23.5569C30.9923 20.9067 25.7364 19.6909 23.2456 19.2419L30.0718 18.2499L33.9241 23.5569Z" fill="#848484"/>
</g>
<g style="mix-blend-mode:color-burn" opacity="0.1">
<path d="M33.5913 24.7957L27.2631 26.8406L22.187 21.8951C28.0604 26.4221 29.5182 25.1069 33.5913 24.7957Z" fill="#848484"/>
</g>
<g style="mix-blend-mode:color-burn" opacity="0.3">
<path d="M34.7104 24.6455C34.7011 24.6464 34.6936 24.6486 34.6843 24.6495C34.6928 24.6472 34.7016 24.6459 34.7104 24.6455Z" fill="#848484"/>
</g>
<g style="mix-blend-mode:color-burn" opacity="0.3">
<path d="M33.5913 24.7957C33.2478 24.9436 32.9185 25.1038 32.6046 25.2738C31.0814 26.1 29.7369 27.2199 28.6489 28.5686C27.5608 29.9173 26.7507 31.4681 26.2654 33.1317L27.3214 26.9819L27.347 26.9744L33.5913 24.7957Z" fill="#848484"/>
</g>
<g style="mix-blend-mode:soft-light" opacity="0.9">
<path d="M30.9874 29.5297C30.9824 29.5454 30.9735 29.5595 30.9614 29.5707C30.8223 29.803 30.3879 30.4859 29.8294 31.3755C29.2498 32.2955 28.5262 33.439 27.849 34.514C27.3783 35.2588 26.9281 35.9669 26.5612 36.5563L25.7444 36.9858L25.5944 37.0635L25.62 36.8979L25.7908 35.9099L27.0212 34.3952L30.9874 29.5297Z" fill="white"/>
</g>
<g style="mix-blend-mode:color-burn" opacity="0.3">
<path d="M38.1217 34.0628L34.7832 32.3084L34.7082 32.2695L34.6336 32.3084L31.7692 33.8156H31.7666C33.6429 32.2381 34.3841 28.0675 34.6336 26.1555C34.7117 25.5515 34.7417 25.1719 34.7417 25.1719C34.7506 25.4716 34.7638 25.7625 34.7832 26.0442C35.1686 31.6038 37.5999 33.6791 38.1217 34.0628Z" fill="#848484"/>
</g>
<g style="mix-blend-mode:color-burn" opacity="0.3">
<path d="M47.635 21.5018L42.1541 26.8442L40.2213 26.2186C40.2213 26.2186 44.2277 23.756 47.635 21.5018Z" fill="#848484"/>
</g>
<g style="mix-blend-mode:color-burn" opacity="0.3">
<path d="M43.0596 32.5794C42.2276 30.4608 41.2801 28.3893 40.2213 26.3744L42.0998 26.9819L43.0596 32.5794Z" fill="#848484"/>
</g>
<g style="mix-blend-mode:color-burn" opacity="0.4">
<path d="M27.8487 34.5141L29.8758 34.8089L26.5612 36.5561L25.7443 36.9856L25.5942 37.0633L25.62 36.8979L25.7909 35.9097L26.1937 33.5684L26.54 34.2759L26.535 34.2813L26.54 34.2917L26.5612 34.3274L26.6643 34.3437L27.021 34.3952L27.4039 34.4517L27.5689 34.4779L27.8487 34.5141Z" fill="#848484"/>
</g>
<g style="mix-blend-mode:color-burn" opacity="0.3">
<path d="M43.826 37.0634L43.6763 36.9857L39.5344 34.8089L41.8513 34.473L42.0222 34.4468L42.7564 34.3383L42.8228 34.3275L42.859 34.261L43.2211 33.5269L43.8002 36.898L43.826 37.0634Z" fill="#848484"/>
</g>
<path d="M34.7603 36.6157L34.6548 36.7199L33.7392 37.6118L28.3218 42.8936L28.3319 42.9563L29.8166 51.6141L29.84 51.758L29.7093 51.6887L24.8588 49.1383L21.9441 47.6068L21.8788 47.5724L21.8139 47.6068L19.3134 48.922C19.3112 48.9207 19.3103 48.922 19.3103 48.922L14.7644 51.313L14.0505 51.6887L13.9203 51.758L13.9437 51.6132V51.611L14.0916 50.751L14.5079 48.3269V48.3256L15.4385 42.8962V42.8936L15.4377 42.8914L13.2479 40.7564L10.9469 38.5155L9.10597 36.7199L9 36.6157L9.14701 36.5946L11.8714 36.1994L17.8305 35.3324L17.8989 35.3222L17.9347 35.2542L19.8639 31.3423L21.0149 29.0087L21.8139 27.3893L21.8788 27.2573L21.9441 27.3893L22.884 29.293L25.8367 35.2737L25.842 35.2838L25.8614 35.3222L25.9652 35.3377L32.4628 36.2816L34.6124 36.5946H34.6137L34.7603 36.6157Z" fill="url(#paint16_linear_1616_46409)"/>
<path d="M21.814 41.0342V47.6069L19.3134 48.9221C19.3112 48.9208 19.3103 48.9221 19.3103 48.9221L14.7644 51.3131L14.0505 51.6888L17.6177 46.7919L21.814 41.0342Z" fill="url(#paint17_linear_1616_46409)"/>
<path d="M21.738 40.9163L18.6556 45.1452L18.6534 45.1479L18.6508 45.1527L18.6498 45.1551L18.6477 45.1567L13.9437 51.6111L14.0916 50.7511L14.5079 48.3269V48.3256L15.4298 42.9563L21.738 40.9163Z" fill="url(#paint18_linear_1616_46409)"/>
<path d="M34.6548 36.7198L33.7393 37.6118L33.1647 38.1724L28.3791 42.8364L26.6919 42.2899L22.0925 40.8012L27.5861 39.0164L34.6548 36.7198Z" fill="url(#paint19_linear_1616_46409)"/>
<path d="M29.7095 51.6889L24.8587 49.1383L21.9442 47.6067V41.0015L29.7095 51.6889Z" fill="url(#paint20_linear_1616_46409)"/>
<path d="M21.6672 40.8012L20.9041 41.0476L15.3784 42.8332L10.9471 38.5155L9.10583 36.7198L21.6672 40.8012Z" fill="url(#paint21_linear_1616_46409)"/>
<path d="M29.8166 51.6143L22.0504 40.925L26.6919 42.4264L28.332 42.9562L29.1697 47.8431L29.8166 51.6143Z" fill="url(#paint22_linear_1616_46409)"/>
<path d="M21.8141 27.3895V40.5996L21.7865 40.5616L21.7842 40.5598L17.9348 35.2543L19.8638 31.3425L21.0148 29.0089L21.8141 27.3895Z" fill="url(#paint23_linear_1616_46409)"/>
<path d="M34.6123 36.5947L28.3506 38.629L22.0822 40.6665L25.965 35.3379L32.4627 36.2818L34.6123 36.5947Z" fill="url(#paint24_linear_1616_46409)"/>
<path d="M25.842 35.2669L25.8366 35.2737L21.9442 40.6154V27.3723L22.8872 29.2823L25.842 35.2669Z" fill="url(#paint25_linear_1616_46409)"/>
<path d="M21.7097 40.6768L9.14697 36.5946L11.8716 36.1995L17.8304 35.3324L21.1938 39.9657L21.7097 40.6768Z" fill="url(#paint26_linear_1616_46409)"/>
<g style="mix-blend-mode:color-burn" opacity="0.1">
<path d="M15.438 42.8916L15.4396 42.8963V42.8932L15.438 42.8916Z" fill="#848484"/>
</g>
<g style="mix-blend-mode:color-burn" opacity="0.1">
<path d="M28.3791 42.8364L28.3203 42.8929L28.3791 42.8364Z" fill="#848484"/>
</g>
<g style="mix-blend-mode:color-burn" opacity="0.1">
<path d="M15.3783 42.8336L15.438 42.8915L15.3783 42.8336Z" fill="#848484"/>
</g>
<g style="mix-blend-mode:color-burn" opacity="0.1">
<path d="M15.4294 42.9549L15.4394 42.8956L15.4294 42.9549Z" fill="#848484"/>
</g>
<g style="mix-blend-mode:color-burn" opacity="0.1">
<path d="M27.5862 39.0165L22.0925 40.801L28.3791 42.8362L28.3218 42.8936L28.3319 42.9563L22.0506 40.9251L29.8166 51.6141L29.84 51.758L29.7093 51.6887L21.9441 41.0014V47.6068L21.8788 47.5724L21.8139 47.6068V41.0341L17.6177 46.7918L14.0505 51.6887L13.9203 51.758L13.9437 51.6132V51.611L18.6476 45.1566L18.6498 45.1551L18.6507 45.1526L18.6534 45.1478L18.6556 45.1451L21.738 40.9162L15.4297 42.9563L15.4385 42.8962V42.8936L15.3785 42.8331L21.6669 40.801L9.10597 36.7199L9 36.6157L9.14701 36.5946L21.7097 40.6769L17.8305 35.3324L17.8989 35.3222L17.9347 35.2542L21.8139 40.5996V27.3893L21.8788 27.2573L21.9441 27.3893V40.6323L25.842 35.2838L25.8614 35.3222L25.9652 35.3377L22.0823 40.6663L28.3504 38.6289L34.6124 36.5946H34.6137L34.7603 36.6157L34.6548 36.7199L27.5862 39.0165Z" fill="#848484"/>
</g>
<g style="mix-blend-mode:color-burn" opacity="0.1">
<path d="M27.5862 39.0165L22.0925 40.801L28.3791 42.8362L28.3218 42.8936L28.3319 42.9563L22.0506 40.9251L29.8166 51.6141L29.84 51.758L29.7093 51.6887L21.9441 41.0014V47.6068L21.8788 47.5724L21.8139 47.6068V41.0341L17.6177 46.7918L14.0505 51.6887L13.9203 51.758L13.9437 51.6132V51.611L18.6476 45.1566L18.6498 45.1551L18.6507 45.1526L18.6534 45.1478L18.6556 45.1451L21.738 40.9162L15.4297 42.9563L15.4385 42.8962V42.8936L15.3785 42.8331L21.6669 40.801L9.10597 36.7199L9 36.6157L9.14701 36.5946L21.7097 40.6769L17.8305 35.3324L17.8989 35.3222L17.9347 35.2542L21.8139 40.5996V27.3893L21.8788 27.2573L21.9441 27.3893V40.6323L25.842 35.2838L25.8614 35.3222L25.9652 35.3377L22.0823 40.6663L28.3504 38.6289L34.6124 36.5946H34.6137L34.7603 36.6157L34.6548 36.7199L27.5862 39.0165Z" fill="#848484"/>
</g>
<path style="mix-blend-mode:soft-light" opacity="0.8" d="M22.5812 28.6626C22.5794 28.6647 22.5821 28.659 22.5812 28.6626C22.5812 28.6626 22.0744 33.3267 21.9441 34.7509C21.8973 35.2591 21.8735 35.6666 21.8762 35.9182C21.8656 35.6035 21.843 35.2556 21.8139 34.8861C21.6572 32.9943 21.4917 30.0889 21.2356 28.5619L21.8139 27.3893L21.8788 27.2573L21.9441 27.3893V27.3721L22.5812 28.6626Z" fill="url(#paint27_linear_1616_46409)"/>
<path style="mix-blend-mode:soft-light" opacity="0.8" d="M34.7603 36.6158L34.6548 36.72L33.9935 37.365C32.0492 37.8166 29.4056 38.6003 27.5863 39.0166C27.5822 39.0174 27.5783 39.0184 27.5743 39.0197C27.5743 39.0197 27.871 38.8753 28.3505 38.629C29.3023 38.1411 33.4257 36.422 33.4257 36.422L34.6124 36.5946H34.6137L34.7603 36.6158Z" fill="url(#paint28_linear_1616_46409)"/>
<g style="mix-blend-mode:soft-light" opacity="0.2">
<path d="M21.8673 37.6895C21.8673 37.6895 21.53 40.8196 24.7815 39.8704C22.5811 40.7211 22.9158 42.1612 23.669 43.2742C23.669 43.3744 21.9441 40.6324 20.0904 43.2773C20.0904 43.2773 21.945 41.001 19.09 39.881C19.2493 39.8933 21.934 41.1798 21.8673 37.6895Z" fill="white"/>
</g>
<g style="mix-blend-mode:color-burn" opacity="0.3">
<path d="M21.8806 40.677C21.8674 40.6625 21.8453 40.6351 21.814 40.5958C21.8047 40.5848 21.7968 40.5733 21.7866 40.5618L21.7844 40.56L17.9347 35.2543L19.864 31.3424C19.905 33.6791 20.207 38.0935 21.814 40.575C21.836 40.6104 21.8581 40.6426 21.8806 40.677Z" fill="#848484"/>
</g>
<g style="mix-blend-mode:color-burn" opacity="0.2">
<path d="M21.1936 39.9657C18.6344 37.6519 14.0456 36.5906 11.8713 36.1994L17.8304 35.3324L21.1936 39.9657Z" fill="#848484"/>
</g>
<g style="mix-blend-mode:color-burn" opacity="0.1">
<path d="M20.904 41.0474L15.3784 42.8332L10.9469 38.5155C16.0751 42.4676 17.3479 41.3202 20.904 41.0474Z" fill="#848484"/>
</g>
<g style="mix-blend-mode:color-burn" opacity="0.3">
<path d="M21.8814 40.9163C21.8727 40.9177 21.8658 40.9195 21.858 40.9204C21.8657 40.9183 21.8735 40.9169 21.8814 40.9163Z" fill="#848484"/>
</g>
<g style="mix-blend-mode:color-burn" opacity="0.3">
<path d="M20.9041 41.0474C20.6039 41.1767 20.316 41.3171 20.0423 41.4645C18.7125 42.1861 17.5388 43.1639 16.5889 44.3415C15.639 45.5191 14.9317 46.8732 14.5079 48.3256L15.4298 42.9563L15.4523 42.9497L20.9041 41.0474Z" fill="#848484"/>
</g>
<g style="mix-blend-mode:soft-light" opacity="0.9">
<path d="M18.6508 45.1527L18.6498 45.1552L18.6476 45.1567C18.5876 45.2529 18.1753 45.9072 17.6177 46.7919C16.7603 48.1521 15.5578 50.0597 14.7644 51.3131L14.0505 51.6888L13.9203 51.7581L13.9437 51.6133V51.6111L14.0916 50.7511L18.6508 45.1527Z" fill="white"/>
</g>
<g style="mix-blend-mode:color-burn" opacity="0.3">
<path d="M24.8588 49.1384L21.9441 47.6069L21.8788 47.5725L21.8139 47.6069L19.3134 48.9221C19.3112 48.9208 19.3103 48.9221 19.3103 48.9221C20.9482 47.5451 21.5954 43.9047 21.8139 42.2345C21.8815 41.707 21.9075 41.3759 21.9075 41.3759C21.9159 41.6377 21.9274 41.892 21.9441 42.1383C22.281 46.9915 24.4032 48.8037 24.8588 49.1384Z" fill="#848484"/>
</g>
<g style="mix-blend-mode:color-burn" opacity="0.3">
<path d="M33.1647 38.1725L28.3791 42.8363L26.6918 42.2897C26.6918 42.2897 30.1901 40.1401 33.1647 38.1725Z" fill="#848484"/>
</g>
<g style="mix-blend-mode:color-burn" opacity="0.3">
<path d="M29.1698 47.8431C28.4432 45.9936 27.616 44.1852 26.6918 42.4261L28.3319 42.9563L29.1698 47.8431Z" fill="#848484"/>
</g>
<path d="M60.8579 36.6158L60.7521 36.7198L59.8366 37.6117L54.4194 42.8938L54.4298 42.9562L55.914 51.6143L55.9375 51.7581L55.8073 51.6889L50.957 49.1383L48.042 47.6067L47.9765 47.5723L47.9109 47.6067L45.4109 48.9222H45.4082L40.8617 51.3132L40.1484 51.6889L40.0177 51.7581L40.0412 51.6134V51.6111L40.189 50.7508L40.6054 48.3268V48.3255L41.5362 42.896V42.8938L41.5353 42.8915L39.3446 40.7564L37.044 38.5154L35.204 36.7198L35.0978 36.6158L35.2447 36.5946L37.9694 36.1995L43.929 35.3324L43.9964 35.3224L44.0317 35.2542L45.962 31.3424L47.1126 29.0088L47.9109 27.3895L47.9765 27.2574L48.042 27.3895L48.9823 29.2931L51.9344 35.2736L51.9393 35.284L51.9588 35.3224L52.0628 35.3378L58.5604 36.2817L60.71 36.5946H60.7114L60.8579 36.6158Z" fill="url(#paint29_linear_1616_46409)"/>
<path d="M47.9109 41.0339V47.6066L45.4109 48.9222H45.4082L40.8617 51.3132L40.1483 51.6889L43.7152 46.792L47.9109 41.0339Z" fill="url(#paint30_linear_1616_46409)"/>
<path d="M47.835 40.9164L44.7528 45.1451L44.751 45.1478L44.7478 45.1528L44.7455 45.1564L40.0413 51.6111L40.1891 50.7508L40.6054 48.3268V48.3254L41.5272 42.9561L47.835 40.9164Z" fill="url(#paint31_linear_1616_46409)"/>
<path d="M60.7521 36.7198L59.8367 37.6118L59.2626 38.1724L54.4769 42.8364L52.7893 42.2899L48.1895 40.8012L53.6835 39.0164L60.7521 36.7198Z" fill="url(#paint32_linear_1616_46409)"/>
<path d="M55.8073 51.6889L50.957 49.1383L48.042 47.6067V41.0015L55.8073 51.6889Z" fill="url(#paint33_linear_1616_46409)"/>
<path d="M47.7644 40.8012L47.0009 41.0476L41.4765 42.8332L37.0439 38.5155L35.204 36.7198L47.7644 40.8012Z" fill="url(#paint34_linear_1616_46409)"/>
<path d="M55.914 51.6143L48.1483 40.925L52.7893 42.4264L54.4299 42.9562L55.2676 47.8431L55.914 51.6143Z" fill="url(#paint35_linear_1616_46409)"/>
<path d="M47.9109 27.3895V40.5996L47.8837 40.5616L47.8819 40.5598L44.0316 35.2543L45.962 31.3425L47.1125 29.0089L47.9109 27.3895Z" fill="url(#paint36_linear_1616_46409)"/>
<path d="M60.71 36.5947L54.4479 38.629L48.1794 40.6665L52.0628 35.3379L58.5604 36.2818L60.71 36.5947Z" fill="url(#paint37_linear_1616_46409)"/>
<path d="M51.9393 35.2669L51.9344 35.2737L48.042 40.6154V27.3723L48.9846 29.2823L51.9393 35.2669Z" fill="url(#paint38_linear_1616_46409)"/>
<path d="M47.8079 40.6768L35.2448 36.5946L37.9694 36.1995L43.9291 35.3324L47.2916 39.9657L47.8079 40.6768Z" fill="url(#paint39_linear_1616_46409)"/>
<g style="mix-blend-mode:color-burn" opacity="0.1">
<path d="M41.5363 42.8916L41.5378 42.8963V42.8932L41.5363 42.8916Z" fill="#848484"/>
</g>
<g style="mix-blend-mode:color-burn" opacity="0.1">
<path d="M54.4768 42.8364L54.4189 42.8929L54.4768 42.8364Z" fill="#848484"/>
</g>
<g style="mix-blend-mode:color-burn" opacity="0.1">
<path d="M41.4766 42.8336L41.5362 42.8915L41.4766 42.8336Z" fill="#848484"/>
</g>
<g style="mix-blend-mode:color-burn" opacity="0.1">
<path d="M41.5267 42.9549L41.5376 42.8956L41.5267 42.9549Z" fill="#848484"/>
</g>
<g style="mix-blend-mode:color-burn" opacity="0.1">
<path d="M53.6834 39.0163L48.1894 40.8011L54.4768 42.8364L54.4194 42.8938L54.4298 42.9562L48.1483 40.925L55.914 51.6143L55.9375 51.7581L55.8073 51.6889L48.042 41.0014V47.6067L47.9765 47.5723L47.9109 47.6067V41.034L43.7152 46.792L40.1484 51.6889L40.0177 51.7581L40.0412 51.6134V51.6111L44.7455 45.1564L44.7478 45.1528L44.7509 45.1478L44.7527 45.1451L47.835 40.9164L41.5272 42.9562L41.5362 42.896V42.8938L41.4765 42.8332L47.7644 40.8011L35.204 36.7198L35.0978 36.6158L35.2447 36.5946L47.8078 40.6768L43.929 35.3324L43.9964 35.3224L44.0317 35.2542L47.9109 40.5995V27.3895L47.9765 27.2574L48.042 27.3895V40.6325L51.9393 35.284L51.9588 35.3224L52.0628 35.3378L48.1794 40.6664L54.4479 38.6289L60.71 36.5946H60.7114L60.8579 36.6158L60.7521 36.7198L53.6834 39.0163Z" fill="#848484"/>
</g>
<g style="mix-blend-mode:color-burn" opacity="0.1">
<path d="M53.6834 39.0163L48.1894 40.8011L54.4768 42.8364L54.4194 42.8938L54.4298 42.9562L48.1483 40.925L55.914 51.6143L55.9375 51.7581L55.8073 51.6889L48.042 41.0014V47.6067L47.9765 47.5723L47.9109 47.6067V41.034L43.7152 46.792L40.1484 51.6889L40.0177 51.7581L40.0412 51.6134V51.6111L44.7455 45.1564L44.7478 45.1528L44.7509 45.1478L44.7527 45.1451L47.835 40.9164L41.5272 42.9562L41.5362 42.896V42.8938L41.4765 42.8332L47.7644 40.8011L35.204 36.7198L35.0978 36.6158L35.2447 36.5946L47.8078 40.6768L43.929 35.3324L43.9964 35.3224L44.0317 35.2542L47.9109 40.5995V27.3895L47.9765 27.2574L48.042 27.3895V40.6325L51.9393 35.284L51.9588 35.3224L52.0628 35.3378L48.1794 40.6664L54.4479 38.6289L60.71 36.5946H60.7114L60.8579 36.6158L60.7521 36.7198L53.6834 39.0163Z" fill="#848484"/>
</g>
<path style="mix-blend-mode:soft-light" opacity="0.8" d="M48.6783 28.6626C48.6774 28.6647 48.6801 28.659 48.6783 28.6626C48.6783 28.6626 48.1715 33.3267 48.0421 34.7509C47.9945 35.2591 47.9715 35.6666 47.9733 35.9182C47.9631 35.6035 47.941 35.2556 47.911 34.8861C47.7552 32.9943 47.5896 30.0889 47.3331 28.5619L47.911 27.3893L47.9763 27.2573L48.0421 27.3893V27.3721L48.6783 28.6626Z" fill="url(#paint40_linear_1616_46409)"/>
<path style="mix-blend-mode:soft-light" opacity="0.8" d="M60.8578 36.6158L60.7519 36.72L60.0905 37.365C58.1462 37.8166 55.5031 38.6003 53.6833 39.0166C53.6794 39.0173 53.6756 39.0184 53.6719 39.0197C53.6719 39.0197 53.9685 38.8753 54.448 38.629C55.4002 38.1411 59.5232 36.422 59.5232 36.422L60.7099 36.5946H60.7112L60.8578 36.6158Z" fill="url(#paint41_linear_1616_46409)"/>
<g style="mix-blend-mode:soft-light" opacity="0.2">
<path d="M47.9654 37.6895C47.9654 37.6895 47.6281 40.8196 50.8791 39.8704C48.6793 40.7211 49.0139 42.1612 49.7662 43.2742C49.7662 43.3744 48.0422 40.6324 46.188 43.2773C46.188 43.2773 48.0427 41.001 45.1876 39.881C45.3479 39.8933 48.0321 41.1798 47.9654 37.6895Z" fill="white"/>
</g>
<g style="mix-blend-mode:color-burn" opacity="0.3">
<path d="M47.9773 40.677C47.9645 40.6625 47.942 40.6351 47.911 40.5958C47.9018 40.5848 47.8938 40.5733 47.8836 40.5618L47.8819 40.56L44.0317 35.2543L45.9619 31.3424C46.0021 33.6791 46.3045 38.0935 47.911 40.575C47.9336 40.6104 47.9552 40.6426 47.9773 40.677Z" fill="#848484"/>
</g>
<g style="mix-blend-mode:color-burn" opacity="0.2">
<path d="M47.2916 39.9657C44.7319 37.6519 40.1437 36.5906 37.9694 36.1994L43.9289 35.3324L47.2916 39.9657Z" fill="#848484"/>
</g>
<g style="mix-blend-mode:color-burn" opacity="0.1">
<path d="M47.0007 41.0474L41.4765 42.8332L37.0441 38.5155C42.1727 42.4676 43.4451 41.3202 47.0007 41.0474Z" fill="#848484"/>
</g>
<g style="mix-blend-mode:color-burn" opacity="0.3">
<path d="M47.9781 40.9163C47.9708 40.9177 47.9634 40.9195 47.9552 40.9204C47.9627 40.9184 47.9704 40.917 47.9781 40.9163Z" fill="#848484"/>
</g>
<g style="mix-blend-mode:color-burn" opacity="0.3">
<path d="M47.0007 41.0474C46.7014 41.1767 46.4131 41.3171 46.1394 41.4645C44.8096 42.186 43.6358 43.1638 42.686 44.3414C41.7361 45.519 41.029 46.8731 40.6055 48.3256L41.5273 42.9563L41.5494 42.9497L47.0007 41.0474Z" fill="#848484"/>
</g>
<g style="mix-blend-mode:soft-light" opacity="0.9">
<path d="M44.7478 45.1527L44.7456 45.1567C44.6852 45.2529 44.2732 45.9072 43.7152 46.7919C42.8574 48.1521 41.6553 50.0597 40.8619 51.3131L40.1485 51.6888L40.0178 51.7581L40.0412 51.6133V51.6111L40.1891 50.7511L44.7478 45.1527Z" fill="white"/>
</g>
<g style="mix-blend-mode:color-burn" opacity="0.3">
<path d="M50.9568 49.1384L48.0422 47.6069L47.9764 47.5725L47.9111 47.6069L45.4109 48.9221H45.4083C47.0457 47.5451 47.6938 43.9047 47.9111 42.2345C47.9795 41.707 48.0051 41.3759 48.0051 41.3759C48.013 41.6377 48.0249 41.892 48.0422 42.1383C48.3786 46.9915 50.5008 48.8037 50.9568 49.1384Z" fill="#848484"/>
</g>
<g style="mix-blend-mode:color-burn" opacity="0.3">
<path d="M59.2624 38.1725L54.4768 42.8363L52.7894 42.2897C52.7894 42.2897 56.2873 40.1401 59.2624 38.1725Z" fill="#848484"/>
</g>
<g style="mix-blend-mode:color-burn" opacity="0.3">
<path d="M55.2675 47.8431C54.5409 45.9936 53.7137 44.1852 52.7894 42.4261L54.43 42.9563L55.2675 47.8431Z" fill="#848484"/>
</g>
<path style="mix-blend-mode:color-burn" opacity="0.2" d="M60.7113 36.5946H60.7099L58.5604 36.2816L52.0627 35.3377L51.959 35.3223L51.9395 35.2839L51.9342 35.2737L51.9395 35.2667L48.9847 29.2824L48.0422 27.3721V27.3893L47.9764 27.2574L47.9111 27.3893L47.1124 29.0087L45.9619 31.3423L44.0318 35.2543L43.9964 35.3223L43.9289 35.3324L43.5413 35.389L43.2212 33.5268L43.0614 32.5803V32.5749L42.1749 27.4189L42.0999 26.9819H42.0994V26.9805L42.0888 26.9077L42.1515 26.8459H42.1564L44.4843 24.5727L47.6351 21.5018L48.2934 20.8603L48.4827 20.6758L48.5834 20.5786L49.3432 19.8392L49.439 19.7434L49.4633 19.7191L49.322 19.6988L49.2968 19.6948H49.2933L46.8312 19.3364L39.3892 18.2556L39.3883 18.2565L39.2709 18.2366L39.2497 18.1951L39.2413 18.1828L39.2417 18.1823L39.2479 18.1744L35.8635 11.3199L34.7832 9.132V9.15144L34.7104 9.00131L34.7095 9.00266L34.7082 9L34.6508 9.11608L34.6327 9.15144L34.2203 9.98891L33.7939 10.8538L33.7175 11.0078L32.3988 13.681L30.2104 18.1196L30.191 18.1589L30.1495 18.2366L30.0731 18.2512L30.0718 18.2498L26.8843 18.713L23.247 19.2397L20.1235 19.6948L19.958 19.72L20.0767 19.8392L22.1866 21.8974L25.5961 25.2168L27.2631 26.8406L27.264 26.8401L27.2644 26.8406L27.332 26.9077V26.9081L27.3311 26.9077L27.332 26.9094V26.913L27.3214 26.9805L27.2145 27.603L26.2653 33.1317L26.272 33.1061L26.2715 33.1074C26.2681 33.1156 26.2663 33.1245 26.2662 33.1334L26.1938 33.5683L25.891 35.3267L25.8614 35.3223L25.842 35.2839L25.8367 35.2737L25.842 35.2667L22.8872 29.2824L22.5812 28.6626L21.9441 27.3721V27.3893L21.8788 27.2574L21.8139 27.3893L21.0149 29.0087L19.8639 31.3423L17.9347 35.2543L17.8989 35.3223L17.8305 35.3324L11.8714 36.1995L9.14701 36.5946L9 36.6158L9.10597 36.72L10.9469 38.5155L14.53 42.0063L15.397 42.8517L15.4385 42.8936V42.8963L14.5079 48.3256V48.3269L14.0916 50.7511L14.039 51.057C13.572 51.2195 13.3199 51.3903 13.3194 51.5656H13.3163V55.557C13.3163 56.0395 15.1992 56.4859 18.3355 56.8316H18.3422C23.8995 57.3509 29.4795 57.5905 35.0609 57.5494C47.07 57.5494 56.8051 56.6554 56.8051 55.557V51.5656L56.8042 51.562C56.8026 51.5325 56.7948 51.5036 56.7812 51.4773C56.7728 51.4622 56.7632 51.4477 56.7525 51.434C56.7428 51.4201 56.7321 51.407 56.7203 51.3947C56.7001 51.3731 56.6782 51.353 56.655 51.3347L56.6422 51.3254C56.3847 51.1598 56.1011 51.0388 55.8034 50.9674L54.4299 42.9563L54.4193 42.8936L57.7185 39.677L59.2624 38.1725L59.8367 37.6118L60.0897 37.365H60.0901L60.7519 36.72L60.8579 36.6158L60.7113 36.5946ZM19.3134 48.922L21.8139 47.6068L21.8788 47.5725L21.9441 47.6068L24.8588 49.1383L26.0243 49.7511C24.4844 49.8151 23.039 49.8959 21.7163 49.9904C20.5372 50.073 19.4564 50.1661 18.4896 50.2738C17.6071 50.3705 16.8248 50.4752 16.1493 50.5846L19.3103 48.922C19.3112 48.922 19.3112 48.9207 19.3134 48.922ZM53.1682 50.4619C53.0896 50.4508 53.0062 50.4403 52.9254 50.4297C52.819 50.4155 52.7156 50.4014 52.6058 50.3877C52.5086 50.3753 52.4062 50.3639 52.306 50.352C51.7824 50.2888 51.2239 50.2288 50.6244 50.1719C48.7004 49.9917 46.4034 49.8447 43.8494 49.7419L45.4083 48.922H45.4109L47.9111 47.6068L47.9764 47.5725L48.0422 47.6068L50.9568 49.1383L53.5902 50.5233C53.4525 50.5025 53.3139 50.4818 53.1682 50.4619ZM35.2446 36.5946L35.098 36.6158L35.204 36.72L37.044 38.5155L39.3919 40.8024L41.5025 42.8596L41.5361 42.8936V42.8963L40.6054 48.3256V48.3269L40.3812 49.6332C39.4995 49.6125 38.5986 49.597 37.6784 49.5869H37.6471C36.7995 49.5763 35.9359 49.5763 35.0618 49.5763C34.5603 49.5763 34.0641 49.5763 33.5727 49.5812C32.7198 49.5869 31.8765 49.5918 31.0545 49.6076C30.5212 49.6165 29.9972 49.6275 29.478 49.6399L28.3319 42.9563L28.3218 42.8936L31.6209 39.677L33.1648 38.1725L33.7392 37.6118L33.9921 37.3654L33.9935 37.365L34.6548 36.72L34.7603 36.6158L34.6137 36.5946H34.6124L32.4628 36.2816L28.2445 35.6688L29.8758 34.8089L31.7684 33.816L31.7692 33.8155L34.6336 32.3083L34.6839 32.2818L34.7095 32.2703L34.7832 32.3083L37.3036 33.6327L38.1226 34.0641L39.5344 34.8089L41.2672 35.7196L37.9694 36.1995L35.2446 36.5946Z" fill="url(#paint42_radial_1616_46409)"/>
</g>
<defs>
<linearGradient id="paint0_linear_1616_46409" x1="35" y1="0" x2="35" y2="70" gradientUnits="userSpaceOnUse">
<stop stop-color="#6E5A37"/>
<stop offset="1" stop-color="#4D3830"/>
</linearGradient>
<linearGradient id="paint1_linear_1616_46409" x1="13.3164" y1="54.5576" x2="56.8051" y2="54.5576" gradientUnits="userSpaceOnUse">
<stop stop-color="#FFA91F"/>
<stop offset="1" stop-color="#FF8C2E"/>
</linearGradient>
<linearGradient id="paint2_linear_1616_46409" x1="13.319" y1="51.5698" x2="56.805" y2="51.5698" gradientUnits="userSpaceOnUse">
<stop stop-color="#FFD463"/>
<stop offset="1" stop-color="#FFC531"/>
</linearGradient>
<linearGradient id="paint3_linear_1616_46409" x1="19.958" y1="23.0324" x2="49.462" y2="23.0324" gradientUnits="userSpaceOnUse">
<stop stop-color="#CB7B30"/>
<stop offset="0.44118" stop-color="#FFDA37"/>
<stop offset="1" stop-color="#FEFB80"/>
</linearGradient>
<linearGradient id="paint4_linear_1616_46409" x1="26.6866" y1="29.5668" x2="34.2548" y2="32.4142" gradientUnits="userSpaceOnUse">
<stop stop-color="#FFD463"/>
<stop offset="1" stop-color="#FFC531"/>
</linearGradient>
<linearGradient id="paint5_linear_1616_46409" x1="29.9532" y1="30.086" x2="29.203" y2="26.1101" gradientUnits="userSpaceOnUse">
<stop stop-color="#FFF68B"/>
<stop offset="1" stop-color="#FFE446"/>
</linearGradient>
<linearGradient id="paint6_linear_1616_46409" x1="34.9532" y1="23.3415" x2="49.3419" y2="23.3415" gradientUnits="userSpaceOnUse">
<stop stop-color="#F4A11C"/>
<stop offset="0.9951" stop-color="#FF671B"/>
</linearGradient>
<linearGradient id="paint7_linear_1616_46409" x1="39.3057" y1="30.8098" x2="34.4355" y2="34.2564" gradientUnits="userSpaceOnUse">
<stop stop-color="#F29D1D"/>
<stop offset="1" stop-color="#F2B61D"/>
</linearGradient>
<linearGradient id="paint8_linear_1616_46409" x1="29.1537" y1="27.3721" x2="26.0046" y2="18.6745" gradientUnits="userSpaceOnUse">
<stop offset="0.17157" stop-color="#FFC420"/>
<stop offset="1" stop-color="#FFB820"/>
</linearGradient>
<linearGradient id="paint9_linear_1616_46409" x1="39.3536" y1="32.1068" x2="39.3536" y2="25.6183" gradientUnits="userSpaceOnUse">
<stop offset="0.17157" stop-color="#FFC420"/>
<stop offset="1" stop-color="#FFB820"/>
</linearGradient>
<linearGradient id="paint10_linear_1616_46409" x1="30.7347" y1="17.3672" x2="34.7825" y2="16.6925" gradientUnits="userSpaceOnUse">
<stop stop-color="#FFF68B"/>
<stop offset="1" stop-color="#FFE446"/>
</linearGradient>
<linearGradient id="paint11_linear_1616_46409" x1="38.0369" y1="21.2068" x2="46.2466" y2="22.8563" gradientUnits="userSpaceOnUse">
<stop stop-color="#FFA91F"/>
<stop offset="1" stop-color="#FF8C2E"/>
</linearGradient>
<linearGradient id="paint12_linear_1616_46409" x1="34.5583" y1="16.7392" x2="40.4074" y2="16.1393" gradientUnits="userSpaceOnUse">
<stop stop-color="#F4A11C"/>
<stop offset="1" stop-color="#F4951C"/>
</linearGradient>
<linearGradient id="paint13_linear_1616_46409" x1="25.1333" y1="22.9681" x2="36.5314" y2="18.0939" gradientUnits="userSpaceOnUse">
<stop stop-color="#FFA91F"/>
<stop offset="1" stop-color="#FF8C2E"/>
</linearGradient>
<linearGradient id="paint14_linear_1616_46409" x1="33.9713" y1="13.96" x2="35.5131" y2="13.96" gradientUnits="userSpaceOnUse">
<stop stop-color="white"/>
<stop offset="1" stop-color="white"/>
</linearGradient>
<linearGradient id="paint15_linear_1616_46409" x1="41.2324" y1="20.9846" x2="49.4633" y2="20.9846" gradientUnits="userSpaceOnUse">
<stop stop-color="white"/>
<stop offset="1" stop-color="white"/>
</linearGradient>
<linearGradient id="paint16_linear_1616_46409" x1="9" y1="39.5077" x2="34.7603" y2="39.5077" gradientUnits="userSpaceOnUse">
<stop stop-color="#CB7B30"/>
<stop offset="0.44118" stop-color="#FFDA37"/>
<stop offset="1" stop-color="#FEFB80"/>
</linearGradient>
<linearGradient id="paint17_linear_1616_46409" x1="14.8724" y1="45.2102" x2="21.4852" y2="47.6982" gradientUnits="userSpaceOnUse">
<stop stop-color="#FFD463"/>
<stop offset="1" stop-color="#FFC531"/>
</linearGradient>
<linearGradient id="paint18_linear_1616_46409" x1="17.7282" y1="45.6664" x2="17.0736" y2="42.1971" gradientUnits="userSpaceOnUse">
<stop stop-color="#FFF68B"/>
<stop offset="1" stop-color="#FFE446"/>
</linearGradient>
<linearGradient id="paint19_linear_1616_46409" x1="22.0925" y1="39.7782" x2="34.6548" y2="39.7782" gradientUnits="userSpaceOnUse">
<stop stop-color="#F4A11C"/>
<stop offset="0.9951" stop-color="#FF671B"/>
</linearGradient>
<linearGradient id="paint20_linear_1616_46409" x1="25.894" y1="46.2976" x2="21.6386" y2="49.309" gradientUnits="userSpaceOnUse">
<stop stop-color="#F29D1D"/>
<stop offset="1" stop-color="#F2B61D"/>
</linearGradient>
<linearGradient id="paint21_linear_1616_46409" x1="17.029" y1="43.2971" x2="14.2796" y2="35.7035" gradientUnits="userSpaceOnUse">
<stop offset="0.17157" stop-color="#FFC420"/>
<stop offset="1" stop-color="#FFB820"/>
</linearGradient>
<linearGradient id="paint22_linear_1616_46409" x1="25.9335" y1="47.4316" x2="25.9335" y2="41.7674" gradientUnits="userSpaceOnUse">
<stop offset="0.17157" stop-color="#FFC420"/>
<stop offset="1" stop-color="#FFB820"/>
</linearGradient>
<linearGradient id="paint23_linear_1616_46409" x1="18.4097" y1="34.562" x2="21.9438" y2="33.9729" gradientUnits="userSpaceOnUse">
<stop stop-color="#FFF68B"/>
<stop offset="1" stop-color="#FFE446"/>
</linearGradient>
<linearGradient id="paint24_linear_1616_46409" x1="24.7848" y1="37.9148" x2="31.9524" y2="39.3549" gradientUnits="userSpaceOnUse">
<stop stop-color="#FFA91F"/>
<stop offset="1" stop-color="#FF8C2E"/>
</linearGradient>
<linearGradient id="paint25_linear_1616_46409" x1="21.7478" y1="34.0138" x2="26.8543" y2="33.4901" gradientUnits="userSpaceOnUse">
<stop stop-color="#F4A11C"/>
<stop offset="1" stop-color="#F4951C"/>
</linearGradient>
<linearGradient id="paint26_linear_1616_46409" x1="13.5191" y1="39.4523" x2="23.4698" y2="35.197" gradientUnits="userSpaceOnUse">
<stop stop-color="#FFA91F"/>
<stop offset="1" stop-color="#FF8C2E"/>
</linearGradient>
<linearGradient id="paint27_linear_1616_46409" x1="21.2356" y1="31.5878" x2="22.5814" y2="31.5878" gradientUnits="userSpaceOnUse">
<stop stop-color="white"/>
<stop offset="1" stop-color="white"/>
</linearGradient>
<linearGradient id="paint28_linear_1616_46409" x1="27.5743" y1="37.7208" x2="34.7603" y2="37.7208" gradientUnits="userSpaceOnUse">
<stop stop-color="white"/>
<stop offset="1" stop-color="white"/>
</linearGradient>
<linearGradient id="paint29_linear_1616_46409" x1="35.098" y1="39.5077" x2="60.8579" y2="39.5077" gradientUnits="userSpaceOnUse">
<stop stop-color="#CB7B30"/>
<stop offset="0.44118" stop-color="#FFDA37"/>
<stop offset="1" stop-color="#FEFB80"/>
</linearGradient>
<linearGradient id="paint30_linear_1616_46409" x1="40.9705" y1="45.2104" x2="47.5823" y2="47.698" gradientUnits="userSpaceOnUse">
<stop stop-color="#FFD463"/>
<stop offset="1" stop-color="#FFC531"/>
</linearGradient>
<linearGradient id="paint31_linear_1616_46409" x1="43.8255" y1="45.6663" x2="43.1709" y2="42.197" gradientUnits="userSpaceOnUse">
<stop stop-color="#FFF68B"/>
<stop offset="1" stop-color="#FFE446"/>
</linearGradient>
<linearGradient id="paint32_linear_1616_46409" x1="48.1897" y1="39.7782" x2="60.752" y2="39.7782" gradientUnits="userSpaceOnUse">
<stop stop-color="#F4A11C"/>
<stop offset="0.9951" stop-color="#FF671B"/>
</linearGradient>
<linearGradient id="paint33_linear_1616_46409" x1="51.992" y1="46.2976" x2="47.7366" y2="49.309" gradientUnits="userSpaceOnUse">
<stop stop-color="#F29D1D"/>
<stop offset="1" stop-color="#F2B61D"/>
</linearGradient>
<linearGradient id="paint34_linear_1616_46409" x1="43.1267" y1="43.297" x2="40.3774" y2="35.7035" gradientUnits="userSpaceOnUse">
<stop offset="0.17157" stop-color="#FFC420"/>
<stop offset="1" stop-color="#FFB820"/>
</linearGradient>
<linearGradient id="paint35_linear_1616_46409" x1="52.0312" y1="47.4316" x2="52.0312" y2="41.7674" gradientUnits="userSpaceOnUse">
<stop offset="0.17157" stop-color="#FFC420"/>
<stop offset="1" stop-color="#FFB820"/>
</linearGradient>
<linearGradient id="paint36_linear_1616_46409" x1="44.5067" y1="34.562" x2="48.0409" y2="33.9729" gradientUnits="userSpaceOnUse">
<stop stop-color="#FFF68B"/>
<stop offset="1" stop-color="#FFE446"/>
</linearGradient>
<linearGradient id="paint37_linear_1616_46409" x1="50.8819" y1="37.9148" x2="58.0499" y2="39.3549" gradientUnits="userSpaceOnUse">
<stop stop-color="#FFA91F"/>
<stop offset="1" stop-color="#FF8C2E"/>
</linearGradient>
<linearGradient id="paint38_linear_1616_46409" x1="47.8457" y1="34.0138" x2="52.9517" y2="33.4901" gradientUnits="userSpaceOnUse">
<stop stop-color="#F4A11C"/>
<stop offset="1" stop-color="#F4951C"/>
</linearGradient>
<linearGradient id="paint39_linear_1616_46409" x1="39.6168" y1="39.4523" x2="49.568" y2="35.1969" gradientUnits="userSpaceOnUse">
<stop stop-color="#FFA91F"/>
<stop offset="1" stop-color="#FF8C2E"/>
</linearGradient>
<linearGradient id="paint40_linear_1616_46409" x1="47.3331" y1="31.5878" x2="48.6789" y2="31.5878" gradientUnits="userSpaceOnUse">
<stop stop-color="white"/>
<stop offset="1" stop-color="white"/>
</linearGradient>
<linearGradient id="paint41_linear_1616_46409" x1="53.6719" y1="37.7208" x2="60.8578" y2="37.7208" gradientUnits="userSpaceOnUse">
<stop stop-color="white"/>
<stop offset="1" stop-color="white"/>
</linearGradient>
<radialGradient id="paint42_radial_1616_46409" cx="0" cy="0" r="1" gradientUnits="userSpaceOnUse" gradientTransform="translate(34.9289 33.2747) scale(25.1154 25.1154)">
<stop stop-color="white"/>
<stop offset="0.16509" stop-color="#F0F0F0"/>
<stop offset="0.4826" stop-color="#C9C9C9"/>
<stop offset="0.91677" stop-color="#8A8A8A"/>
<stop offset="1" stop-color="#7D7D7D"/>
</radialGradient>
<clipPath id="clip0_1616_46409">
<rect width="51.8579" height="52" fill="white" transform="translate(9 9)"/>
</clipPath>
</defs>
</svg>
