<svg width="24" height="25" viewBox="0 0 24 25" fill="none" xmlns="http://www.w3.org/2000/svg">
<g id="icons8-facebook (5)">
<path id="Vector" d="M12 2.5C6.477 2.5 2 6.977 2 12.5C2 18.023 6.477 22.5 12 22.5C17.523 22.5 22 18.023 22 12.5C22 6.977 17.523 2.5 12 2.5Z" fill="url(#paint0_linear_876_7240)"/>
<path id="Vector_2" d="M13.3538 15.15H15.9418L16.3483 12.521H13.3538V11.084C13.3538 9.99197 13.7108 9.02347 14.7323 9.02347H16.3738V6.72947C16.0853 6.69047 15.4753 6.60547 14.3228 6.60547C11.9158 6.60547 10.5048 7.87647 10.5048 10.7725V12.5215H8.03027V15.1505H10.5043V22.3765C10.9943 22.4495 11.4908 22.4995 12.0003 22.4995C12.4608 22.4995 12.9103 22.4575 13.3538 22.3975V15.15Z" fill="white"/>
</g>
<defs>
<linearGradient id="paint0_linear_876_7240" x1="4.9965" y1="5.4965" x2="20.3075" y2="20.8075" gradientUnits="userSpaceOnUse">
<stop stop-color="#2AA4F4"/>
<stop offset="1" stop-color="#007AD9"/>
</linearGradient>
</defs>
</svg>
