<svg width="24" height="25" viewBox="0 0 24 25" fill="none" xmlns="http://www.w3.org/2000/svg">
<g id="icons8-youtube (2)">
<path id="Vector" d="M21.6 17.45C21.4 18.5 20.55 19.3 19.5 19.45C17.85 19.7 15.1 20 12 20C8.95 20 6.2 19.7 4.5 19.45C3.45 19.3 2.6 18.5 2.4 17.45C2.2 16.3 2 14.6 2 12.5C2 10.4 2.2 8.7 2.4 7.55C2.6 6.5 3.45 5.7 4.5 5.55C6.15 5.3 8.9 5 12 5C15.1 5 17.8 5.3 19.5 5.55C20.55 5.7 21.4 6.5 21.6 7.55C21.8 8.7 22.05 10.4 22.05 12.5C22 14.6 21.8 16.3 21.6 17.45Z" fill="#FF3D00"/>
<path id="Vector_2" d="M10 16V9L16 12.5L10 16Z" fill="white"/>
</g>
</svg>
