<svg width="20" height="20" viewBox="0 0 20 20" fill="none" xmlns="http://www.w3.org/2000/svg">
<path d="M9.99935 11.1667L12.416 13.5834C12.5688 13.7361 12.7632 13.8125 12.9993 13.8125C13.2355 13.8125 13.4299 13.7361 13.5827 13.5834C13.7355 13.4306 13.8118 13.2361 13.8118 13C13.8118 12.7639 13.7355 12.5695 13.5827 12.4167L11.166 10L13.5827 7.58335C13.7355 7.43058 13.8118 7.23613 13.8118 7.00002C13.8118 6.76391 13.7355 6.56946 13.5827 6.41669C13.4299 6.26391 13.2355 6.18752 12.9993 6.18752C12.7632 6.18752 12.5688 6.26391 12.416 6.41669L9.99935 8.83335L7.58268 6.41669C7.4299 6.26391 7.23546 6.18752 6.99935 6.18752C6.76324 6.18752 6.56879 6.26391 6.41602 6.41669C6.26324 6.56946 6.18685 6.76391 6.18685 7.00002C6.18685 7.23613 6.26324 7.43058 6.41602 7.58335L8.83268 10L6.41602 12.4167C6.26324 12.5695 6.18685 12.7639 6.18685 13C6.18685 13.2361 6.26324 13.4306 6.41602 13.5834C6.56879 13.7361 6.76324 13.8125 6.99935 13.8125C7.23546 13.8125 7.4299 13.7361 7.58268 13.5834L9.99935 11.1667ZM9.99935 18.3334C8.84657 18.3334 7.76324 18.1146 6.74935 17.6771C5.73546 17.2396 4.85352 16.6459 4.10352 15.8959C3.35352 15.1459 2.75977 14.2639 2.32227 13.25C1.88477 12.2361 1.66602 11.1528 1.66602 10C1.66602 8.84724 1.88477 7.76391 2.32227 6.75002C2.75977 5.73613 3.35352 4.85419 4.10352 4.10419C4.85352 3.35419 5.73546 2.76044 6.74935 2.32294C7.76324 1.88544 8.84657 1.66669 9.99935 1.66669C11.1521 1.66669 12.2355 1.88544 13.2493 2.32294C14.2632 2.76044 15.1452 3.35419 15.8952 4.10419C16.6452 4.85419 17.2389 5.73613 17.6764 6.75002C18.1139 7.76391 18.3327 8.84724 18.3327 10C18.3327 11.1528 18.1139 12.2361 17.6764 13.25C17.2389 14.2639 16.6452 15.1459 15.8952 15.8959C15.1452 16.6459 14.2632 17.2396 13.2493 17.6771C12.2355 18.1146 11.1521 18.3334 9.99935 18.3334Z" fill="#F71756"/>
</svg>
