<svg width="20" height="20" viewBox="0 0 20 20" fill="none" xmlns="http://www.w3.org/2000/svg">
<path d="M4.02087 10.0208L7.25004 13.2499C7.40282 13.4027 7.47921 13.5971 7.47921 13.8333C7.47921 14.0694 7.40282 14.2638 7.25004 14.4166C7.09726 14.5694 6.90282 14.6458 6.66671 14.6458C6.4306 14.6458 6.23615 14.5694 6.08337 14.4166L2.25004 10.5833C2.16671 10.4999 2.10768 10.4096 2.07296 10.3124C2.03824 10.2152 2.02087 10.111 2.02087 9.99992C2.02087 9.88881 2.03824 9.78464 2.07296 9.68742C2.10768 9.5902 2.16671 9.49992 2.25004 9.41658L6.08337 5.58325C6.25004 5.41659 6.44796 5.33325 6.67712 5.33325C6.90629 5.33325 7.10421 5.41659 7.27087 5.58325C7.43754 5.74992 7.52087 5.94784 7.52087 6.177C7.52087 6.40617 7.43754 6.60409 7.27087 6.77075L4.02087 10.0208ZM15.9792 9.97908L12.75 6.74992C12.5973 6.59714 12.5209 6.4027 12.5209 6.16659C12.5209 5.93047 12.5973 5.73603 12.75 5.58325C12.9028 5.43047 13.0973 5.35409 13.3334 5.35409C13.5695 5.35409 13.7639 5.43047 13.9167 5.58325L17.75 9.41658C17.8334 9.49992 17.8924 9.5902 17.9271 9.68742C17.9618 9.78464 17.9792 9.88881 17.9792 9.99992C17.9792 10.111 17.9618 10.2152 17.9271 10.3124C17.8924 10.4096 17.8334 10.4999 17.75 10.5833L13.9167 14.4166C13.75 14.5833 13.5556 14.6631 13.3334 14.6562C13.1112 14.6492 12.9167 14.5624 12.75 14.3958C12.5834 14.2291 12.5 14.0312 12.5 13.802C12.5 13.5728 12.5834 13.3749 12.75 13.2083L15.9792 9.97908Z" fill="#3D2644"/>
</svg>
