<?xml version="1.0" encoding="UTF-8"?><svg id="Layer_2" xmlns="http://www.w3.org/2000/svg" xmlns:xlink="http://www.w3.org/1999/xlink" viewBox="0 0 24 24"><defs><style>.cls-1{fill:#fff;}.cls-1,.cls-2,.cls-3,.cls-4,.cls-5{stroke-width:0px;}.cls-2{fill:url(#radial-gradient-2);}.cls-3{fill:url(#radial-gradient);}.cls-4{fill:url(#radial-gradient-3);}.cls-5{fill:url(#radial-gradient-4);}</style><radialGradient id="radial-gradient" cx="231.56" cy="-678.49" fx="231.56" fy="-678.49" r="52.35" gradientTransform="translate(108.09 110.97) rotate(164.25) scale(.24 -.18)" gradientUnits="userSpaceOnUse"><stop offset="0" stop-color="#ff005f"/><stop offset="1" stop-color="#fc01d8"/></radialGradient><radialGradient id="radial-gradient-2" cx="194.4" cy="-519.67" fx="194.4" fy="-519.67" r="52.35" gradientTransform="translate(-160.87 82.92) rotate(-90) scale(.3 -.32)" gradientUnits="userSpaceOnUse"><stop offset="0" stop-color="#fc0"/><stop offset=".12" stop-color="#fc0"/><stop offset=".57" stop-color="#fe4a05"/><stop offset=".69" stop-color="#ff0f3f"/><stop offset="1" stop-color="#fe0657" stop-opacity="0"/></radialGradient><radialGradient id="radial-gradient-3" cx="210.99" cy="-464.48" fx="210.99" fy="-464.48" r="65" gradientTransform="translate(-51.42 9.52) rotate(-59.87) scale(.1 -.13)" gradientUnits="userSpaceOnUse"><stop offset="0" stop-color="#fc0"/><stop offset="1" stop-color="#fc0" stop-opacity="0"/></radialGradient><radialGradient id="radial-gradient-4" cx="184.92" cy="-231.93" fx="184.92" fy="-231.93" r="67.08" gradientTransform="translate(42.23 7.8) rotate(164.27) scale(.19 -.06)" gradientUnits="userSpaceOnUse"><stop offset="0" stop-color="#780cff"/><stop offset="1" stop-color="#820bff" stop-opacity="0"/></radialGradient></defs><path class="cls-3" d="m11.95,2.1c-4.17,0-5.4,0-5.63.02-.86.07-1.39.21-1.97.5-.45.22-.8.48-1.15.84-.63.66-1.02,1.47-1.16,2.43-.07.47-.09.56-.09,2.95,0,.8,0,1.84,0,3.25,0,4.17,0,5.39.02,5.63.07.83.2,1.36.48,1.93.53,1.1,1.54,1.92,2.73,2.23.41.11.87.16,1.45.19.25.01,2.77.02,5.3.02s5.05,0,5.29-.02c.68-.03,1.07-.08,1.5-.2,1.2-.31,2.19-1.12,2.73-2.24.27-.56.41-1.1.47-1.9.01-.17.02-2.92.02-5.66s0-5.49-.02-5.66c-.06-.8-.2-1.34-.48-1.91-.23-.47-.49-.82-.86-1.17-.66-.63-1.47-1.02-2.43-1.16-.47-.07-.56-.09-2.95-.09h-3.25Z"/><path class="cls-2" d="m11.95,2.1c-4.17,0-5.4,0-5.63.02-.86.07-1.39.21-1.97.5-.45.22-.8.48-1.15.84-.63.66-1.02,1.47-1.16,2.43-.07.47-.09.56-.09,2.95,0,.8,0,1.84,0,3.25,0,4.17,0,5.39.02,5.63.07.83.2,1.36.48,1.93.53,1.1,1.54,1.92,2.73,2.23.41.11.87.16,1.45.19.25.01,2.77.02,5.3.02s5.05,0,5.29-.02c.68-.03,1.07-.08,1.5-.2,1.2-.31,2.19-1.12,2.73-2.24.27-.56.41-1.1.47-1.9.01-.17.02-2.92.02-5.66s0-5.49-.02-5.66c-.06-.8-.2-1.34-.48-1.91-.23-.47-.49-.82-.86-1.17-.66-.63-1.47-1.02-2.43-1.16-.47-.07-.56-.09-2.95-.09h-3.25Z"/><path class="cls-4" d="m11.95,2.1c-4.17,0-5.4,0-5.63.02-.86.07-1.39.21-1.97.5-.45.22-.8.48-1.15.84-.63.66-1.02,1.47-1.16,2.43-.07.47-.09.56-.09,2.95,0,.8,0,1.84,0,3.25,0,4.17,0,5.39.02,5.63.07.83.2,1.36.48,1.93.53,1.1,1.54,1.92,2.73,2.23.41.11.87.16,1.45.19.25.01,2.77.02,5.3.02s5.05,0,5.29-.02c.68-.03,1.07-.08,1.5-.2,1.2-.31,2.19-1.12,2.73-2.24.27-.56.41-1.1.47-1.9.01-.17.02-2.92.02-5.66s0-5.49-.02-5.66c-.06-.8-.2-1.34-.48-1.91-.23-.47-.49-.82-.86-1.17-.66-.63-1.47-1.02-2.43-1.16-.47-.07-.56-.09-2.95-.09h-3.25Z"/><path class="cls-5" d="m11.95,2.1c-4.17,0-5.4,0-5.63.02-.86.07-1.39.21-1.97.5-.45.22-.8.48-1.15.84-.63.66-1.02,1.47-1.16,2.43-.07.47-.09.56-.09,2.95,0,.8,0,1.84,0,3.25,0,4.17,0,5.39.02,5.63.07.83.2,1.36.48,1.93.53,1.1,1.54,1.92,2.73,2.23.41.11.87.16,1.45.19.25.01,2.77.02,5.3.02s5.05,0,5.29-.02c.68-.03,1.07-.08,1.5-.2,1.2-.31,2.19-1.12,2.73-2.24.27-.56.41-1.1.47-1.9.01-.17.02-2.92.02-5.66s0-5.49-.02-5.66c-.06-.8-.2-1.34-.48-1.91-.23-.47-.49-.82-.86-1.17-.66-.63-1.47-1.02-2.43-1.16-.47-.07-.56-.09-2.95-.09h-3.25Z"/><path class="cls-1" d="m11.95,4.66c-2.02,0-2.27,0-3.07.04-.79.04-1.33.16-1.8.35-.49.19-.9.44-1.32.86-.41.41-.67.83-.86,1.32-.18.47-.31,1.01-.35,1.8-.04.79-.04,1.05-.04,3.06s0,2.27.04,3.06c.04.79.16,1.33.35,1.8.19.49.44.9.86,1.32.41.41.83.67,1.32.86.47.18,1.01.31,1.81.35.79.04,1.05.04,3.07.04s2.27,0,3.07-.04c.79-.04,1.33-.16,1.81-.35.49-.19.9-.44,1.32-.86.41-.41.67-.83.86-1.32.18-.47.31-1.01.35-1.8.04-.79.04-1.05.04-3.06s0-2.27-.04-3.06c-.04-.79-.16-1.33-.35-1.8-.19-.49-.44-.9-.86-1.32-.41-.41-.83-.67-1.32-.86-.47-.18-1.01-.31-1.81-.35-.79-.04-1.05-.04-3.07-.04h0Zm-.67,1.34c.2,0,.42,0,.67,0,1.99,0,2.22,0,3,.04.73.03,1.12.15,1.38.26.35.13.59.3.85.56.26.26.42.51.56.85.1.26.22.65.26,1.38.04.78.04,1.02.04,3s0,2.22-.04,3c-.03.72-.15,1.12-.26,1.38-.13.35-.3.59-.56.85-.26.26-.51.42-.85.56-.26.1-.66.22-1.38.26-.78.04-1.02.04-3,.04s-2.22,0-3-.04c-.73-.03-1.12-.15-1.38-.26-.35-.13-.59-.3-.86-.56-.26-.26-.42-.51-.56-.85-.1-.26-.22-.65-.26-1.38-.04-.78-.04-1.02-.04-3s0-2.22.04-3c.03-.72.15-1.12.26-1.38.13-.35.3-.59.56-.85.26-.26.51-.42.86-.56.26-.1.66-.22,1.38-.26.69-.03.95-.04,2.34-.04h0Zm4.64,1.23c-.49,0-.89.4-.89.89s.4.89.89.89.89-.4.89-.89-.4-.89-.89-.89h0Zm-3.97,1.04c-2.11,0-3.82,1.71-3.82,3.82s1.71,3.82,3.82,3.82,3.82-1.71,3.82-3.82-1.71-3.82-3.82-3.82h0Zm0,1.34c1.37,0,2.48,1.11,2.48,2.48s-1.11,2.48-2.48,2.48-2.48-1.11-2.48-2.48,1.11-2.48,2.48-2.48h0Z"/></svg>