<svg xmlns="http://www.w3.org/2000/svg" width="40" height="40" viewBox="0 0 40 40" fill="none">
  <path d="M28.348 34.9917L11.6814 35.0075C8.01469 35.0109 5.01219 32.0142 5.00802 28.3475L4.99219 11.6809C4.98886 8.0142 7.98552 5.0117 11.6522 5.00754L28.3189 4.9917C31.9855 4.98837 34.988 7.98504 34.9922 11.6517L35.008 28.3184C35.0122 31.9859 32.0147 34.9884 28.348 34.9917Z" fill="url(#paint0_radial_1130_85088)"/>
  <path d="M28.348 34.9917L11.6814 35.0075C8.01469 35.0109 5.01219 32.0142 5.00802 28.3475L4.99219 11.6809C4.98886 8.0142 7.98552 5.0117 11.6522 5.00754L28.3189 4.9917C31.9855 4.98837 34.988 7.98504 34.9922 11.6517L35.008 28.3184C35.0122 31.9859 32.0147 34.9884 28.348 34.9917Z" fill="url(#paint1_radial_1130_85088)"/>
  <path d="M19.9974 25.8333C16.7816 25.8333 14.1641 23.2166 14.1641 20C14.1641 16.7833 16.7816 14.1666 19.9974 14.1666C23.2132 14.1666 25.8307 16.7833 25.8307 20C25.8307 23.2166 23.2132 25.8333 19.9974 25.8333ZM19.9974 15.8333C17.6999 15.8333 15.8307 17.7025 15.8307 20C15.8307 22.2975 17.6999 24.1666 19.9974 24.1666C22.2949 24.1666 24.1641 22.2975 24.1641 20C24.1641 17.7025 22.2949 15.8333 19.9974 15.8333Z" fill="white"/>
  <path d="M26.25 15C26.9404 15 27.5 14.4404 27.5 13.75C27.5 13.0596 26.9404 12.5 26.25 12.5C25.5596 12.5 25 13.0596 25 13.75C25 14.4404 25.5596 15 26.25 15Z" fill="white"/>
  <path d="M24.9974 30.8333H14.9974C11.7816 30.8333 9.16406 28.2166 9.16406 25V15C9.16406 11.7833 11.7816 9.16663 14.9974 9.16663H24.9974C28.2132 9.16663 30.8307 11.7833 30.8307 15V25C30.8307 28.2166 28.2132 30.8333 24.9974 30.8333ZM14.9974 10.8333C12.6999 10.8333 10.8307 12.7025 10.8307 15V25C10.8307 27.2975 12.6999 29.1666 14.9974 29.1666H24.9974C27.2949 29.1666 29.1641 27.2975 29.1641 25V15C29.1641 12.7025 27.2949 10.8333 24.9974 10.8333H14.9974Z" fill="white"/>
  <defs>
    <radialGradient id="paint0_radial_1130_85088" cx="0" cy="0" r="1" gradientUnits="userSpaceOnUse" gradientTransform="translate(16.1505 35.0292) scale(37.4158 37.4158)">
      <stop stop-color="#FFDD55"/>
      <stop offset="0.328" stop-color="#FF543F"/>
      <stop offset="0.348" stop-color="#FC5245"/>
      <stop offset="0.504" stop-color="#E64771"/>
      <stop offset="0.643" stop-color="#D53E91"/>
      <stop offset="0.761" stop-color="#CC39A4"/>
      <stop offset="0.841" stop-color="#C837AB"/>
    </radialGradient>
    <radialGradient id="paint1_radial_1130_85088" cx="0" cy="0" r="1" gradientUnits="userSpaceOnUse" gradientTransform="translate(9.82219 4.61695) scale(24.8442 16.5537)">
      <stop stop-color="#4168C9"/>
      <stop offset="0.999" stop-color="#4168C9" stop-opacity="0"/>
    </radialGradient>
  </defs>
</svg>