<svg width="20" height="21" viewBox="0 0 20 21" fill="none" xmlns="http://www.w3.org/2000/svg">
<path fill-rule="evenodd" clip-rule="evenodd" d="M5.84044 17.6212L14.1738 17.6133C16.0071 17.6116 17.5059 16.1104 17.5038 14.2766L17.4959 5.94328C17.4938 4.10995 15.9925 2.61162 14.1592 2.61328L5.82585 2.6212C3.99252 2.62328 2.49419 4.12453 2.49585 5.95787L2.50377 14.2912C2.50585 16.1245 4.0071 17.6229 5.84044 17.6212ZM7.50004 15.5341H12.5C14.108 15.5341 15.4167 14.2258 15.4167 12.6174V7.61745C15.4167 6.00912 14.108 4.70078 12.5 4.70078H7.50004C5.89213 4.70078 4.58338 6.00912 4.58338 7.61745V12.6174C4.58338 14.2258 5.89213 15.5341 7.50004 15.5341ZM5.41671 7.61745C5.41671 6.4687 6.35129 5.53412 7.50004 5.53412H12.5C13.6488 5.53412 14.5834 6.4687 14.5834 7.61745V12.6174C14.5834 13.7662 13.6488 14.7008 12.5 14.7008H7.50004C6.35129 14.7008 5.41671 13.7662 5.41671 12.6174V7.61745ZM13.125 7.61745C13.4702 7.61745 13.75 7.33763 13.75 6.99245C13.75 6.64727 13.4702 6.36745 13.125 6.36745C12.7799 6.36745 12.5 6.64727 12.5 6.99245C12.5 7.33763 12.7799 7.61745 13.125 7.61745ZM10 13.0341C8.39213 13.0341 7.08338 11.7258 7.08338 10.1175C7.08338 8.50912 8.39213 7.20078 10 7.20078C11.608 7.20078 12.9167 8.50912 12.9167 10.1175C12.9167 11.7258 11.608 13.0341 10 13.0341ZM10 8.03412C8.85129 8.03412 7.91671 8.9687 7.91671 10.1175C7.91671 11.2662 8.85129 12.2008 10 12.2008C11.1488 12.2008 12.0834 11.2662 12.0834 10.1175C12.0834 8.9687 11.1488 8.03412 10 8.03412Z" fill="white" fill-opacity="0.5"/>
</svg>
