<svg width="24" height="24" viewBox="0 0 24 24" fill="none" xmlns="http://www.w3.org/2000/svg">
<circle cx="12" cy="12" r="12" fill="#FDEB56"/>
<path d="M13.0671 10.6157C14.0619 10.8513 14.8669 11.316 15.4822 12.0098C16.1105 12.6905 16.4246 13.5479 16.4246 14.582C16.4246 15.9565 15.9599 17.0365 15.0306 17.8219C14.1012 18.6073 12.9624 19 11.6141 19C10.567 19 9.62449 18.7578 8.78675 18.2735C7.9621 17.7892 7.36651 17.0823 7 16.1529L8.92419 15.0337C9.32997 16.2118 10.2266 16.8008 11.6141 16.8008C12.3995 16.8008 13.0213 16.6045 13.4794 16.2118C13.9376 15.806 14.1666 15.2627 14.1666 14.582C14.1666 13.9014 13.9376 13.3647 13.4794 12.9719C13.0213 12.5792 12.3995 12.3829 11.6141 12.3829H11.1036L10.2004 11.0281L13.1653 7.12062H7.41233V5H15.8552V6.92426L13.0671 10.6157Z" fill="#3D2644"/>
</svg>
