<svg width="24" height="24" viewBox="0 0 24 24" fill="none" xmlns="http://www.w3.org/2000/svg">
<circle cx="12" cy="12" r="12" fill="#FDEB56"/>
<path d="M7.03928 19V17.2328L11.8313 12.3436C12.9965 11.1786 13.5792 10.1706 13.5792 9.31978C13.5792 8.65217 13.3762 8.13511 12.9704 7.76858C12.5776 7.38897 12.0735 7.19916 11.4581 7.19916C10.306 7.19916 9.45491 7.76858 8.90501 8.90743L7 7.78822C7.43206 6.8719 8.04088 6.17812 8.82646 5.70687C9.61203 5.23562 10.4827 5 11.4385 5C12.643 5 13.6774 5.37962 14.5415 6.13885C15.4056 6.89808 15.8377 7.93221 15.8377 9.24124C15.8377 10.6419 15.0587 12.1342 13.5006 13.7181L10.3976 16.8205H16.093V19H7.03928Z" fill="#3D2644"/>
</svg>
