<svg xmlns="http://www.w3.org/2000/svg" width="25" height="24" viewBox="0 0 25 24" fill="none">
  <path d="M12.5 22C11.1 22 9.79167 21.7375 8.575 21.2125C7.35833 20.6875 6.3 19.975 5.4 19.075C4.5 18.175 3.79167 17.1125 3.275 15.8875C2.75833 14.6625 2.5 13.35 2.5 11.95C2.5 10.55 2.75833 9.24583 3.275 8.0375C3.79167 6.82917 4.5 5.775 5.4 4.875C6.3 3.975 7.35833 3.27083 8.575 2.7625C9.79167 2.25417 11.1 2 12.5 2C13.9 2 15.2083 2.25417 16.425 2.7625C17.6417 3.27083 18.7 3.975 19.6 4.875C20.5 5.775 21.2083 6.82917 21.725 8.0375C22.2417 9.24583 22.5 10.55 22.5 11.95C22.5 13.35 22.2417 14.6625 21.725 15.8875C21.2083 17.1125 20.5 18.175 19.6 19.075C18.7 19.975 17.6417 20.6875 16.425 21.2125C15.2083 21.7375 13.9 22 12.5 22ZM12.5 20.55C13.0833 19.95 13.5708 19.2625 13.9625 18.4875C14.3542 17.7125 14.675 16.7917 14.925 15.725H10.1C10.3333 16.725 10.6458 17.625 11.0375 18.425C11.4292 19.225 11.9167 19.9333 12.5 20.55ZM10.375 20.25C9.95833 19.6167 9.6 18.9333 9.3 18.2C9 17.4667 8.75 16.6417 8.55 15.725H4.8C5.43333 16.9083 6.16667 17.8375 7 18.5125C7.83333 19.1875 8.95833 19.7667 10.375 20.25ZM14.65 20.225C15.85 19.8417 16.9292 19.2667 17.8875 18.5C18.8458 17.7333 19.6167 16.8083 20.2 15.725H16.475C16.2583 16.625 16.0042 17.4417 15.7125 18.175C15.4208 18.9083 15.0667 19.5917 14.65 20.225ZM4.3 14.225H8.275C8.225 13.775 8.19583 13.3708 8.1875 13.0125C8.17917 12.6542 8.175 12.3 8.175 11.95C8.175 11.5333 8.18333 11.1625 8.2 10.8375C8.21667 10.5125 8.25 10.15 8.3 9.75H4.3C4.18333 10.15 4.10417 10.5083 4.0625 10.825C4.02083 11.1417 4 11.5167 4 11.95C4 12.3833 4.02083 12.7708 4.0625 13.1125C4.10417 13.4542 4.18333 13.825 4.3 14.225ZM9.825 14.225H15.2C15.2667 13.7083 15.3083 13.2875 15.325 12.9625C15.3417 12.6375 15.35 12.3 15.35 11.95C15.35 11.6167 15.3417 11.2958 15.325 10.9875C15.3083 10.6792 15.2667 10.2667 15.2 9.75H9.825C9.75833 10.2667 9.71667 10.6792 9.7 10.9875C9.68333 11.2958 9.675 11.6167 9.675 11.95C9.675 12.3 9.68333 12.6375 9.7 12.9625C9.71667 13.2875 9.75833 13.7083 9.825 14.225ZM16.7 14.225H20.7C20.8167 13.825 20.8958 13.4542 20.9375 13.1125C20.9792 12.7708 21 12.3833 21 11.95C21 11.5167 20.9792 11.1417 20.9375 10.825C20.8958 10.5083 20.8167 10.15 20.7 9.75H16.725C16.775 10.3333 16.8083 10.7792 16.825 11.0875C16.8417 11.3958 16.85 11.6833 16.85 11.95C16.85 12.3167 16.8375 12.6625 16.8125 12.9875C16.7875 13.3125 16.75 13.725 16.7 14.225ZM16.45 8.25H20.2C19.65 7.1 18.8958 6.14167 17.9375 5.375C16.9792 4.60833 15.875 4.06667 14.625 3.75C15.0417 4.36667 15.3958 5.03333 15.6875 5.75C15.9792 6.46667 16.2333 7.3 16.45 8.25ZM10.1 8.25H14.95C14.7667 7.36667 14.4583 6.5125 14.025 5.6875C13.5917 4.8625 13.0833 4.13333 12.5 3.5C11.9667 3.95 11.5167 4.54167 11.15 5.275C10.7833 6.00833 10.4333 7 10.1 8.25ZM4.8 8.25H8.575C8.75833 7.35 8.99167 6.54583 9.275 5.8375C9.55833 5.12917 9.91667 4.44167 10.35 3.775C9.1 4.09167 8.00833 4.625 7.075 5.375C6.14167 6.125 5.38333 7.08333 4.8 8.25Z" fill="#948798"/>
</svg>