<svg xmlns="http://www.w3.org/2000/svg" width="28" height="28" viewBox="0 0 28 28" fill="none">
  <path d="M14.0007 25.6667C12.3673 25.6667 10.8409 25.3605 9.42148 24.748C8.00204 24.1355 6.76732 23.3042 5.71732 22.2542C4.66732 21.2042 3.84093 19.9646 3.23815 18.5355C2.63537 17.1063 2.33398 15.575 2.33398 13.9417C2.33398 12.3084 2.63537 10.7868 3.23815 9.37712C3.84093 7.9674 4.66732 6.73754 5.71732 5.68754C6.76732 4.63754 8.00204 3.81601 9.42148 3.22296C10.8409 2.6299 12.3673 2.33337 14.0007 2.33337C15.634 2.33337 17.1604 2.6299 18.5798 3.22296C19.9993 3.81601 21.234 4.63754 22.284 5.68754C23.334 6.73754 24.1604 7.9674 24.7632 9.37712C25.3659 10.7868 25.6673 12.3084 25.6673 13.9417C25.6673 15.575 25.3659 17.1063 24.7632 18.5355C24.1604 19.9646 23.334 21.2042 22.284 22.2542C21.234 23.3042 19.9993 24.1355 18.5798 24.748C17.1604 25.3605 15.634 25.6667 14.0007 25.6667ZM14.0007 23.975C14.6812 23.275 15.25 22.473 15.7069 21.5688C16.1638 20.6646 16.5382 19.5903 16.8298 18.3459H11.2007C11.4729 19.5125 11.8375 20.5625 12.2944 21.4959C12.7513 22.4292 13.3201 23.2556 14.0007 23.975ZM11.5215 23.625C11.0354 22.8862 10.6173 22.0889 10.2673 21.2334C9.91732 20.3778 9.62565 19.4153 9.39232 18.3459H5.01732C5.75621 19.7264 6.61176 20.8105 7.58398 21.598C8.55621 22.3855 9.86871 23.0612 11.5215 23.625ZM16.509 23.5959C17.909 23.1487 19.168 22.4778 20.2861 21.5834C21.4041 20.6889 22.3034 19.6098 22.984 18.3459H18.6382C18.3854 19.3959 18.0888 20.3487 17.7486 21.2042C17.4083 22.0598 16.9951 22.857 16.509 23.5959ZM4.43398 16.5959H9.07148C9.01315 16.0709 8.97912 15.5993 8.9694 15.1813C8.95968 14.7632 8.95482 14.35 8.95482 13.9417C8.95482 13.4556 8.96454 13.023 8.98398 12.6438C9.00343 12.2646 9.04232 11.8417 9.10065 11.375H4.43398C4.29787 11.8417 4.20551 12.2598 4.1569 12.6292C4.10829 12.9987 4.08398 13.4362 4.08398 13.9417C4.08398 14.4473 4.10829 14.8993 4.1569 15.298C4.20551 15.6966 4.29787 16.1292 4.43398 16.5959ZM10.8798 16.5959H17.1507C17.2284 15.9931 17.277 15.5021 17.2965 15.123C17.3159 14.7438 17.3257 14.35 17.3257 13.9417C17.3257 13.5528 17.3159 13.1785 17.2965 12.8188C17.277 12.4591 17.2284 11.9778 17.1507 11.375H10.8798C10.802 11.9778 10.7534 12.4591 10.734 12.8188C10.7145 13.1785 10.7048 13.5528 10.7048 13.9417C10.7048 14.35 10.7145 14.7438 10.734 15.123C10.7534 15.5021 10.802 15.9931 10.8798 16.5959ZM18.9007 16.5959H23.5673C23.7034 16.1292 23.7958 15.6966 23.8444 15.298C23.893 14.8993 23.9173 14.4473 23.9173 13.9417C23.9173 13.4362 23.893 12.9987 23.8444 12.6292C23.7958 12.2598 23.7034 11.8417 23.5673 11.375H18.9298C18.9882 12.0556 19.027 12.5757 19.0465 12.9355C19.0659 13.2952 19.0757 13.6306 19.0757 13.9417C19.0757 14.3695 19.0611 14.773 19.0319 15.1521C19.0027 15.5313 18.959 16.0125 18.9007 16.5959ZM18.609 9.62504H22.984C22.3423 8.28337 21.4625 7.16532 20.3444 6.27087C19.2263 5.37643 17.9382 4.74449 16.4798 4.37504C16.9659 5.09449 17.3791 5.87226 17.7194 6.70837C18.0597 7.54449 18.3562 8.51671 18.609 9.62504ZM11.2007 9.62504H16.859C16.6451 8.59449 16.2854 7.59796 15.7798 6.63546C15.2743 5.67296 14.6812 4.82226 14.0007 4.08337C13.3784 4.60837 12.8534 5.29865 12.4257 6.15421C11.9979 7.00976 11.5895 8.16671 11.2007 9.62504ZM5.01732 9.62504H9.42148C9.63537 8.57504 9.9076 7.63685 10.2382 6.81046C10.5687 5.98407 10.9868 5.18199 11.4923 4.40421C10.034 4.77365 8.76037 5.39587 7.67148 6.27087C6.5826 7.14587 5.69787 8.26393 5.01732 9.62504Z" fill="#2A0D32"/>
</svg>