<svg xmlns="http://www.w3.org/2000/svg" width="24" height="24" viewBox="0 0 24 24" fill="none">
  <path d="M7.68188 1.43994C4.50428 1.43994 1.92188 4.02234 1.92188 7.19994V16.7999C1.92188 19.9775 4.50428 22.5599 7.68188 22.5599H17.2819C20.4595 22.5599 23.0419 19.9775 23.0419 16.7999V7.19994C23.0419 4.02234 20.4595 1.43994 17.2819 1.43994H7.68188ZM6.05906 8.67369C6.39506 8.67369 6.645 8.91377 6.645 9.23057C6.645 9.54257 6.39506 9.78275 6.05906 9.78275C5.71826 9.78275 5.46938 9.54257 5.46938 9.23057C5.46938 8.91377 5.71826 8.67369 6.05906 8.67369ZM11.0606 8.94744C12.8126 8.94744 13.8928 10.1708 13.8928 12.134C13.8928 14.0924 12.8222 15.3262 11.0606 15.3262C9.28943 15.3262 8.21438 14.0972 8.21438 12.134C8.21438 10.166 9.31343 8.94744 11.0606 8.94744ZM17.2678 8.94744C18.5014 8.94744 19.403 9.6668 19.4606 10.694H18.5391C18.4479 10.1324 17.9632 9.78275 17.2528 9.78275C16.504 9.78275 16.0097 10.1373 16.0097 10.6893C16.0097 11.1213 16.3266 11.3712 17.1234 11.5584L17.7909 11.7215C19.0437 12.0143 19.5572 12.5185 19.5572 13.4353C19.5572 14.6017 18.6545 15.3309 17.2097 15.3309C15.8609 15.3309 14.9538 14.6355 14.8866 13.5459H15.8231C15.9047 14.1219 16.4707 14.4909 17.2819 14.4909C18.0403 14.4909 18.5972 14.0977 18.5972 13.5553C18.5972 13.0945 18.2467 12.8163 17.4403 12.6243L16.6528 12.4368C15.5536 12.1776 15.0497 11.6449 15.0497 10.7521C15.0497 9.66733 15.9382 8.94744 17.2678 8.94744ZM11.0606 9.82588C9.91343 9.82588 9.18469 10.7228 9.18469 12.134C9.18469 13.5404 9.88943 14.4478 11.0606 14.4478C12.2174 14.4478 12.9281 13.5404 12.9281 12.134C12.9281 10.7228 12.2174 9.82588 11.0606 9.82588ZM5.60813 10.589H6.51094V15.1828H5.60813V10.589Z" fill="#948798"/>
</svg>