<svg width="16" height="15" viewBox="0 0 16 15" fill="none" xmlns="http://www.w3.org/2000/svg">
<path d="M7.80979 1.20345C7.86966 1.01918 8.13034 1.01918 8.19021 1.20344L9.38794 4.88967C9.54859 5.38409 10.0093 5.71885 10.5292 5.71885H14.4051C14.5989 5.71885 14.6794 5.96677 14.5227 6.08065L11.387 8.35886C10.9664 8.66443 10.7904 9.20608 10.9511 9.7005L12.1488 13.3867C12.2087 13.571 11.9978 13.7242 11.841 13.6103L8.70534 11.3321C8.28476 11.0265 7.71524 11.0265 7.29466 11.3321L4.15897 13.6103C4.00222 13.7242 3.79133 13.571 3.8512 13.3867L5.04893 9.7005C5.20958 9.20607 5.03359 8.66443 4.613 8.35886L1.47731 6.08065C1.32057 5.96677 1.40113 5.71885 1.59487 5.71885H5.47079C5.99067 5.71885 6.45141 5.38409 6.61206 4.88967L7.80979 1.20345Z" fill="#FDEB56" stroke="#FDEB56"/>
</svg>
