<svg width="47" height="60" viewBox="0 0 47 60" fill="none" xmlns="http://www.w3.org/2000/svg">
<path fill-rule="evenodd" clip-rule="evenodd" d="M11.1677 36.2106H35.8319V49.7244L23.4998 59.9999L11.1677 49.7244V36.2106Z" fill="url(#paint0_linear_457_21966)"/>
<path fill-rule="evenodd" clip-rule="evenodd" d="M23.4998 56.8988L11.1677 46.6233V49.7245L23.4998 60L35.8319 49.7245V46.6233L23.4998 56.8988Z" fill="url(#paint1_radial_457_21966)"/>
<path fill-rule="evenodd" clip-rule="evenodd" d="M23.5001 8.60559C26.6971 8.60559 29.8223 9.56033 32.4805 11.3491C35.1387 13.1378 37.2105 15.6802 38.4339 18.6548C39.6573 21.6294 39.9775 24.9025 39.3538 28.0603C38.7301 31.2181 37.1906 34.1187 34.9299 36.3954C32.6693 38.672 29.7892 40.2224 26.6536 40.8505C23.5181 41.4787 20.268 41.1563 17.3144 39.9242C14.3607 38.6921 11.8362 36.6056 10.0601 33.9285C8.28394 31.2515 7.33594 28.1041 7.33594 24.8845C7.33596 20.567 9.03897 16.4265 12.0703 13.3736C15.1017 10.3207 19.2131 8.60562 23.5001 8.60559Z" fill="url(#paint2_radial_457_21966)"/>
<path style="mix-blend-mode:multiply" opacity="0.5" fill-rule="evenodd" clip-rule="evenodd" d="M23.4991 10.6328C27.0024 10.5852 30.4172 11.7414 33.1804 13.9107C35.9436 16.08 37.8903 19.1329 38.6993 22.566C38.1479 18.9038 36.3111 15.562 33.5221 13.1471C30.7332 10.7322 27.1771 9.4043 23.4991 9.4043C19.8211 9.4043 16.2649 10.7322 13.476 13.1471C10.6871 15.562 8.85027 18.9038 8.29883 22.566C9.1079 19.1329 11.0546 16.08 13.8178 13.9107C16.581 11.7414 19.9958 10.5852 23.4991 10.6328Z" fill="url(#paint3_radial_457_21966)"/>
<path fill-rule="evenodd" clip-rule="evenodd" d="M23.4991 6.17151C27.1741 6.1715 30.7667 7.26901 33.8224 9.32524C36.8781 11.3815 39.2597 14.3041 40.6661 17.7235C42.0725 21.1429 42.4405 24.9055 41.7235 28.5355C41.0065 32.1655 39.2368 35.4999 36.6382 38.117C34.0395 40.7341 30.7286 42.5163 27.1242 43.2384C23.5197 43.9604 19.7836 43.5898 16.3883 42.1735C12.993 40.7571 10.091 38.3586 8.04923 35.2812C6.00748 32.2038 4.91772 28.5858 4.91772 24.8847C4.91774 19.9216 6.87542 15.1619 10.3601 11.6525C13.8448 8.1431 18.571 6.17153 23.4991 6.17151ZM23.4991 9.40417C26.5393 9.40416 29.5112 10.3121 32.0391 12.0131C34.5669 13.7141 36.5371 16.1318 37.7006 18.9605C38.864 21.7893 39.1684 24.9019 38.5753 27.9048C37.9822 30.9078 36.5182 33.6661 34.3684 35.8311C32.2187 37.9961 29.4797 39.4705 26.498 40.0678C23.5162 40.6651 20.4255 40.3586 17.6167 39.1869C14.8079 38.0152 12.4072 36.031 10.7182 33.4852C9.02914 30.9395 8.12762 27.9465 8.12763 24.8847C8.12764 20.779 9.74712 16.8415 12.6298 13.9383C15.5125 11.0352 19.4223 9.40418 23.4991 9.40417Z" fill="#808080"/>
<path fill-rule="evenodd" clip-rule="evenodd" d="M23.4991 7.78784C26.8567 7.78784 30.1389 8.79055 32.9307 10.6692C35.7224 12.5478 37.8984 15.218 39.1833 18.342C40.4682 21.466 40.8044 24.9037 40.1493 28.2201C39.4943 31.5366 37.8774 34.5829 35.5032 36.974C33.129 39.365 30.1041 40.9933 26.811 41.653C23.5179 42.3127 20.1045 41.9741 17.0025 40.6801C13.9005 39.3861 11.2491 37.1947 9.38371 34.3832C7.51832 31.5716 6.52269 28.2661 6.52269 24.8847C6.5227 20.3503 8.31128 16.0017 11.495 12.7954C14.6787 9.58913 18.9967 7.78785 23.4991 7.78784ZM23.4991 6.17151C19.824 6.17152 16.2315 7.26904 13.1758 9.32528C10.1201 11.3815 7.73852 14.3041 6.33214 17.7235C4.92577 21.1429 4.5578 24.9055 5.27478 28.5355C5.99175 32.1655 7.76147 35.4999 10.3601 38.117C12.9588 40.7341 16.2697 42.5163 19.8741 43.2384C23.4786 43.9604 27.2147 43.5898 30.61 42.1735C34.0053 40.7571 36.9073 38.3586 38.949 35.2812C40.9908 32.2038 42.0805 28.5858 42.0805 24.8847C42.0805 22.4272 41.5999 19.9938 40.6661 17.7234C39.7323 15.4531 38.3636 13.3901 36.6381 11.6524C34.9127 9.91476 32.8643 8.53636 30.6099 7.59594C28.3555 6.65552 25.9392 6.1715 23.4991 6.17151Z" fill="url(#paint4_linear_457_21966)"/>
<path fill-rule="evenodd" clip-rule="evenodd" d="M40.4764 24.8845C40.4764 21.5031 39.4807 18.1976 37.6153 15.386C35.7499 12.5744 33.0986 10.3831 29.9965 9.08904C26.8945 7.79501 23.4811 7.45643 20.188 8.11611C16.8949 8.77579 13.87 10.4041 11.4958 12.7951C9.12156 15.1862 7.5047 18.2325 6.84965 21.549C6.1946 24.8655 6.53078 28.3031 7.81568 31.4271C9.10059 34.5512 11.2765 37.2214 14.0683 39.1C16.86 40.9786 20.1422 41.9814 23.4999 41.9814C28.0023 41.9814 32.3203 40.1801 35.504 36.9738C38.6878 33.7676 40.4763 29.4189 40.4764 24.8845ZM23.4999 9.40401C26.5401 9.404 29.512 10.3119 32.0398 12.0129C34.5677 13.714 36.5379 16.1317 37.7013 18.9604C38.8648 21.7891 39.1692 24.9017 38.5761 27.9047C37.983 30.9076 36.519 33.666 34.3692 35.831C32.2195 37.996 29.4805 39.4703 26.4987 40.0677C23.517 40.665 20.4263 40.3584 17.6175 39.1867C14.8087 38.015 12.408 36.0308 10.719 33.4851C9.02991 30.9393 8.1284 27.9463 8.12841 24.8845C8.12842 20.7788 9.7479 16.8413 12.6306 13.9382C15.5133 11.035 19.4231 9.40403 23.4999 9.40401Z" fill="url(#paint5_linear_457_21966)"/>
<path style="mix-blend-mode:screen" fill-rule="evenodd" clip-rule="evenodd" d="M11.7197 13.0213C14.0241 10.6752 16.9504 9.04686 20.1491 8.33092C23.3478 7.61498 26.6835 7.8417 29.7577 8.98398C26.6736 7.66605 23.2689 7.30601 19.9802 7.95002C16.6916 8.59403 13.6689 10.2127 11.2999 12.5985C8.93094 14.9843 7.32363 18.0284 6.68416 21.3404C6.04468 24.6524 6.40218 28.0812 7.71082 31.1872C6.57658 28.0912 6.35147 24.7318 7.06237 21.5105C7.77326 18.2891 9.39012 15.342 11.7197 13.0213Z" fill="url(#paint6_radial_457_21966)"/>
<path style="mix-blend-mode:screen" fill-rule="evenodd" clip-rule="evenodd" d="M35.2781 36.7479C32.9738 39.094 30.0475 40.7224 26.8488 41.4383C23.6501 42.1543 20.3144 41.9276 17.2402 40.7853C20.3243 42.1032 23.729 42.4632 27.0177 41.8192C30.3063 41.1752 33.329 39.5565 35.6979 37.1707C38.0669 34.7849 39.6742 31.7408 40.3137 28.4288C40.9531 25.1168 40.5956 21.688 39.287 18.582C40.4212 21.678 40.6464 25.0374 39.9355 28.2587C39.2246 31.4801 37.6077 34.4272 35.2781 36.7479Z" fill="url(#paint7_radial_457_21966)"/>
<path fill-rule="evenodd" clip-rule="evenodd" d="M23.4994 7.78804L19.209 6.67279L23.4994 0L27.7897 6.67279L23.4994 7.78804Z" fill="#999999"/>
<path fill-rule="evenodd" clip-rule="evenodd" d="M23.4994 7.78804L19.209 6.67279L23.4994 0V7.78804Z" fill="url(#paint8_radial_457_21966)"/>
<path fill-rule="evenodd" clip-rule="evenodd" d="M23.5 7.78804L27.7904 6.67279L23.5 0V7.78804Z" fill="url(#paint9_radial_457_21966)"/>
<path fill-rule="evenodd" clip-rule="evenodd" d="M39.646 19.6011L39.373 15.1479L47.0003 17.1946L42.0247 23.3667L39.646 19.6011Z" fill="#999999"/>
<path fill-rule="evenodd" clip-rule="evenodd" d="M39.646 19.6011L39.373 15.1479L47.0003 17.1946L39.646 19.6011Z" fill="url(#paint10_radial_457_21966)"/>
<path fill-rule="evenodd" clip-rule="evenodd" d="M39.6445 19.6019L42.0232 23.3666L46.9988 17.1946L39.6445 19.6019Z" fill="url(#paint11_radial_457_21966)"/>
<path fill-rule="evenodd" clip-rule="evenodd" d="M33.4785 38.7159L37.6003 37.0789L38.0241 45.0164L30.6582 42.1582L33.4785 38.7159Z" fill="#999999"/>
<path fill-rule="evenodd" clip-rule="evenodd" d="M33.4785 38.7159L37.6003 37.0789L38.0241 45.0164L33.4785 38.7159Z" fill="url(#paint12_radial_457_21966)"/>
<path fill-rule="evenodd" clip-rule="evenodd" d="M33.4785 38.7158L30.6582 42.1581L38.0241 45.0163L33.4785 38.7158Z" fill="url(#paint13_radial_457_21966)"/>
<path fill-rule="evenodd" clip-rule="evenodd" d="M13.5213 38.7159L16.3416 42.1582L8.97656 45.0164L9.39957 37.0789L13.5213 38.7159Z" fill="#999999"/>
<path fill-rule="evenodd" clip-rule="evenodd" d="M13.5213 38.7158L16.3416 42.1581L8.97656 45.0163L13.5213 38.7158Z" fill="url(#paint14_radial_457_21966)"/>
<path fill-rule="evenodd" clip-rule="evenodd" d="M13.5213 38.7159L9.39957 37.0789L8.97656 45.0164L13.5213 38.7159Z" fill="url(#paint15_radial_457_21966)"/>
<path fill-rule="evenodd" clip-rule="evenodd" d="M7.35502 19.6018L4.9763 23.3665L0 17.1945L7.62724 15.1478L7.35502 19.6018Z" fill="#999999"/>
<path fill-rule="evenodd" clip-rule="evenodd" d="M7.35502 19.6019L4.9763 23.3666L0 17.1946L7.35502 19.6019Z" fill="url(#paint16_radial_457_21966)"/>
<path fill-rule="evenodd" clip-rule="evenodd" d="M7.35502 19.601L7.62724 15.1478L0 17.1945L7.35502 19.601Z" fill="url(#paint17_radial_457_21966)"/>
<path style="mix-blend-mode:screen" fill-rule="evenodd" clip-rule="evenodd" d="M23.0527 7.67187C23.3386 5.83121 23.4878 3.97165 23.4991 2.10864V7.78791L23.0527 7.67187Z" fill="url(#paint18_radial_457_21966)"/>
<path style="mix-blend-mode:screen" fill-rule="evenodd" clip-rule="evenodd" d="M7.34454 19.617L1.09961 17.5547C3.16803 18.12 5.27582 18.5274 7.40507 18.7734L7.34454 19.617Z" fill="url(#paint19_radial_457_21966)"/>
<path fill-rule="evenodd" clip-rule="evenodd" d="M23.501 41.9812L17.4668 42.5887L23.501 47.6166L29.5352 42.5887L23.501 41.9812Z" fill="#B3B3B3"/>
<path fill-rule="evenodd" clip-rule="evenodd" d="M23.5 41.9812L29.5342 42.5887L23.5 47.6166V41.9812Z" fill="url(#paint20_radial_457_21966)"/>
<path fill-rule="evenodd" clip-rule="evenodd" d="M23.501 41.9812L17.4668 42.5887L23.501 47.6166V41.9812Z" fill="url(#paint21_radial_457_21966)"/>
<path fill-rule="evenodd" clip-rule="evenodd" d="M39.6461 30.168L38.3555 36.1352L44.9681 31.9094L42.0844 24.5762L39.6461 30.168Z" fill="#B3B3B3"/>
<path fill-rule="evenodd" clip-rule="evenodd" d="M39.6445 30.1679L42.0828 24.576L44.9665 31.9093L39.6445 30.1679Z" fill="url(#paint22_radial_457_21966)"/>
<path fill-rule="evenodd" clip-rule="evenodd" d="M39.6461 30.1677L38.3555 36.1349L44.9681 31.9091L39.6461 30.1677Z" fill="url(#paint23_radial_457_21966)"/>
<path fill-rule="evenodd" clip-rule="evenodd" d="M33.4782 11.0526L38.7151 14.1336L36.7679 6.49353L28.9512 6.98963L33.4782 11.0526Z" fill="#B3B3B3"/>
<path fill-rule="evenodd" clip-rule="evenodd" d="M33.4782 11.0526L28.9512 6.98963L36.7679 6.49353L33.4782 11.0526Z" fill="url(#paint24_radial_457_21966)"/>
<path fill-rule="evenodd" clip-rule="evenodd" d="M33.4785 11.0528L38.7154 14.1337L36.7682 6.49365L33.4785 11.0528Z" fill="url(#paint25_radial_457_21966)"/>
<path fill-rule="evenodd" clip-rule="evenodd" d="M13.5213 11.0528L18.0491 6.98975L10.2324 6.49365L8.28516 14.1337L13.5213 11.0528Z" fill="#B3B3B3"/>
<path fill-rule="evenodd" clip-rule="evenodd" d="M13.5213 11.0528L8.28516 14.1337L10.2324 6.49365L13.5213 11.0528Z" fill="url(#paint26_radial_457_21966)"/>
<path fill-rule="evenodd" clip-rule="evenodd" d="M13.5194 11.0528L18.0472 6.98975L10.2305 6.49365L13.5194 11.0528Z" fill="url(#paint27_radial_457_21966)"/>
<path fill-rule="evenodd" clip-rule="evenodd" d="M7.35492 30.1679L4.91589 24.576L2.03296 31.9093L8.6456 36.1351L7.35492 30.1679Z" fill="#B3B3B3"/>
<path fill-rule="evenodd" clip-rule="evenodd" d="M7.35492 30.1676L8.6456 36.1348L2.03296 31.909L7.35492 30.1676Z" fill="url(#paint28_radial_457_21966)"/>
<path fill-rule="evenodd" clip-rule="evenodd" d="M7.35492 30.1679L4.91589 24.576L2.03296 31.9093L7.35492 30.1679Z" fill="url(#paint29_radial_457_21966)"/>
<path style="mix-blend-mode:screen" fill-rule="evenodd" clip-rule="evenodd" d="M13.5208 11.0531L10.5803 6.97729C11.7638 8.3247 13.1611 9.93511 14.2377 10.4096L13.5208 11.0531Z" fill="url(#paint30_radial_457_21966)"/>
<path style="mix-blend-mode:screen" fill-rule="evenodd" clip-rule="evenodd" d="M39.6445 30.1678L42.5551 31.1202C41.5774 30.7599 40.6923 30.1835 39.9649 29.4333L39.6445 30.1678Z" fill="url(#paint31_radial_457_21966)"/>
<path fill-rule="evenodd" clip-rule="evenodd" d="M42.68 31.1668C46.6588 30.2277 46.0725 26.2765 43.9084 23.8145C42.4685 25.3915 40.1979 29.1875 42.68 31.1668Z" fill="url(#paint32_radial_457_21966)"/>
<path style="mix-blend-mode:multiply" fill-rule="evenodd" clip-rule="evenodd" d="M42.6797 31.1668C43.6858 28.8558 44.1079 26.3298 43.9082 23.8145C46.0722 26.2764 46.6586 30.2277 42.6797 31.1668Z" fill="url(#paint33_radial_457_21966)"/>
<path fill-rule="evenodd" clip-rule="evenodd" d="M28.8258 43.2458C32.9311 42.1438 36.6492 39.9091 39.5611 36.7933C42.4528 33.6594 44.0244 29.5179 43.9453 25.2405C42.9554 33.8146 36.7863 39.895 28.5935 42.1643C24.6055 43.2267 20.4635 43.5768 16.3555 43.1988C19.2621 44.5491 25.1452 44.2863 28.8258 43.2458Z" fill="url(#paint34_radial_457_21966)"/>
<path fill-rule="evenodd" clip-rule="evenodd" d="M4.32067 31.1668C0.341798 30.2277 0.928134 26.2765 3.09219 23.8145C4.53203 25.3915 6.80272 29.1875 4.32067 31.1668Z" fill="url(#paint35_radial_457_21966)"/>
<path style="mix-blend-mode:multiply" fill-rule="evenodd" clip-rule="evenodd" d="M4.32067 31.1668C3.31451 28.8558 2.89245 26.3298 3.09219 23.8145C0.928134 26.2764 0.341798 30.2277 4.32067 31.1668Z" fill="url(#paint36_radial_457_21966)"/>
<path fill-rule="evenodd" clip-rule="evenodd" d="M18.1735 43.2457C14.0682 42.1437 10.3501 39.909 7.43819 36.7932C4.54651 33.6593 2.97481 29.5178 3.05387 25.2404C4.04395 33.8144 10.213 39.8949 18.4057 42.1642C22.3937 43.2266 26.5357 43.5767 30.6438 43.1986C27.7371 44.5489 21.8542 44.2862 18.1735 43.2457Z" fill="url(#paint37_radial_457_21966)"/>
<path fill-rule="evenodd" clip-rule="evenodd" d="M6.41857 36.1704C5.29355 37.3171 3.51044 37.0997 2.2988 36.2057C1.05663 35.2588 0.236604 33.8556 0.0175781 32.3023C2.10059 32.2891 6.49011 32.765 6.41857 36.1704Z" fill="url(#paint38_radial_457_21966)"/>
<path fill-rule="evenodd" clip-rule="evenodd" d="M9.50354 37.1825C10.0811 36.7219 10.475 36.0675 10.6134 35.3388C10.7518 34.61 10.6253 33.8554 10.2572 33.2127C9.57031 31.9116 8.43899 30.905 7.07232 30.3787C6.67174 32.3557 6.29954 36.6159 9.50354 37.1825Z" fill="url(#paint39_radial_457_21966)"/>
<path fill-rule="evenodd" clip-rule="evenodd" d="M11.706 40.3727C11.3545 41.0616 10.7727 41.6032 10.0632 41.9021C9.35377 42.201 8.5623 42.2379 7.82846 42.0063C6.35634 41.5777 5.08799 40.6269 4.25781 39.3297C6.18345 38.4901 10.4388 37.1877 11.706 40.3727Z" fill="url(#paint40_radial_457_21966)"/>
<path fill-rule="evenodd" clip-rule="evenodd" d="M14.7696 40.8467C15.2491 40.3815 15.5445 39.7567 15.6008 39.0886C15.657 38.4205 15.4704 37.7545 15.0756 37.2146C14.338 36.1125 13.2294 35.3165 11.9545 34.9736C11.7795 36.7849 11.8429 40.6414 14.7696 40.8467Z" fill="url(#paint41_radial_457_21966)"/>
<path fill-rule="evenodd" clip-rule="evenodd" d="M16.1135 42.5687C16.0301 43.0883 15.7671 43.5616 15.371 43.9049C14.9749 44.2483 14.4711 44.4397 13.9484 44.4454C12.9076 44.4801 11.8894 44.1342 11.082 43.4716C12.1512 42.5212 14.6296 40.7786 16.1135 42.5687Z" fill="url(#paint42_radial_457_21966)"/>
<path style="mix-blend-mode:multiply" fill-rule="evenodd" clip-rule="evenodd" d="M6.41857 36.1702C3.42854 35.1901 1.77773 34.2605 0.0175781 32.302C0.2366 33.8554 1.05663 35.2586 2.2988 36.2056C3.51044 37.0995 5.29355 37.317 6.41857 36.1702Z" fill="url(#paint43_radial_457_21966)"/>
<path style="mix-blend-mode:multiply" fill-rule="evenodd" clip-rule="evenodd" d="M11.7061 40.3726C9.18063 40.9632 6.5275 40.5916 4.25781 39.3296C5.08806 40.6267 6.35641 41.5775 7.82853 42.0061C8.56237 42.2377 9.35384 42.2008 10.0633 41.9019C10.7727 41.6031 11.3546 41.0614 11.7061 40.3726Z" fill="url(#paint44_radial_457_21966)"/>
<path style="mix-blend-mode:multiply" fill-rule="evenodd" clip-rule="evenodd" d="M16.1135 42.5688C15.381 43.0584 14.5564 43.3912 13.6909 43.5465C12.8254 43.7019 11.9374 43.6764 11.082 43.4718C11.8894 44.1344 12.9076 44.4803 13.9485 44.4456C14.4711 44.4399 14.9749 44.2485 15.3711 43.9051C15.7672 43.5617 16.0301 43.0885 16.1135 42.5688Z" fill="url(#paint45_radial_457_21966)"/>
<path style="mix-blend-mode:multiply" fill-rule="evenodd" clip-rule="evenodd" d="M11.9545 34.9739C11.7795 36.7851 11.8428 40.6415 14.7697 40.8469C14.6131 37.9938 13.7113 36.7404 11.9545 34.9739Z" fill="url(#paint46_radial_457_21966)"/>
<path style="mix-blend-mode:multiply" fill-rule="evenodd" clip-rule="evenodd" d="M9.50354 37.1826C9.60912 34.6815 8.73618 32.2385 7.07232 30.3787C6.67174 32.3556 6.29954 36.6159 9.50354 37.1826Z" fill="url(#paint47_radial_457_21966)"/>
<path fill-rule="evenodd" clip-rule="evenodd" d="M7.78668 36.9338C4.34124 35.5302 3.22247 35.5018 0.706787 33.0209C3.50682 35.1132 4.56867 35.2303 7.95379 36.4845C7.98308 36.4956 8.00994 36.5123 8.0328 36.5338C8.05566 36.5553 8.07408 36.5812 8.08703 36.6098C8.09999 36.6385 8.10722 36.6695 8.1083 36.701C8.10937 36.7324 8.10426 36.7638 8.09329 36.7933C8.08231 36.8228 8.06569 36.8499 8.04434 36.8729C8.02299 36.8959 7.99734 36.9145 7.96887 36.9275C7.9404 36.9406 7.90965 36.9478 7.87839 36.9489C7.84712 36.95 7.81597 36.9449 7.78668 36.9338Z" fill="url(#paint48_radial_457_21966)"/>
<path fill-rule="evenodd" clip-rule="evenodd" d="M9.43741 38.1211C9.07055 35.3146 9.22366 34.006 7.69141 31.1484C9.50329 33.5764 9.4661 34.7928 9.90566 38.0326C9.91609 38.095 9.9021 38.159 9.86662 38.2112C9.83115 38.2634 9.77694 38.2998 9.71542 38.3126C9.68463 38.319 9.65287 38.3191 9.62203 38.3129C9.5912 38.3067 9.56194 38.2942 9.53599 38.2764C9.51004 38.2585 9.48791 38.2355 9.47097 38.2088C9.45404 38.1821 9.44263 38.1523 9.43741 38.1211Z" fill="url(#paint49_radial_457_21966)"/>
<path fill-rule="evenodd" clip-rule="evenodd" d="M12.5822 40.4493C9.28797 40.918 8.1913 40.9851 5.13477 39.7734C8.14947 40.3983 9.25424 40.5504 12.4773 39.9813C12.5389 39.9673 12.6035 39.9785 12.6569 40.0125C12.7104 40.0464 12.7482 40.1004 12.7621 40.1624C12.776 40.2245 12.7649 40.2896 12.7311 40.3434C12.6974 40.3972 12.6438 40.4353 12.5822 40.4493Z" fill="url(#paint50_radial_457_21966)"/>
<path fill-rule="evenodd" clip-rule="evenodd" d="M14.6444 41.4586C14.5372 39.404 13.8576 37.4213 12.6836 35.7375C14.4619 37.6912 14.7386 38.7851 15.1131 41.3718C15.1235 41.4343 15.1094 41.4984 15.0737 41.5506C15.038 41.6027 14.9835 41.6388 14.9218 41.6512C14.891 41.6574 14.8592 41.6573 14.8285 41.651C14.7977 41.6446 14.7685 41.6321 14.7426 41.6141C14.7167 41.5962 14.6947 41.5731 14.6778 41.5464C14.661 41.5197 14.6496 41.4899 14.6444 41.4586Z" fill="url(#paint51_radial_457_21966)"/>
<path fill-rule="evenodd" clip-rule="evenodd" d="M16.6315 42.459C15.2208 43.462 13.4763 43.8687 11.7715 43.5922C13.4477 43.6789 15.1007 43.1677 16.4398 42.1487C16.4806 42.1231 16.5299 42.1149 16.5768 42.1259C16.6 42.1313 16.6219 42.1413 16.6413 42.1553C16.6607 42.1693 16.6771 42.1869 16.6897 42.2073C16.7023 42.2277 16.7108 42.2504 16.7147 42.2741C16.7186 42.2977 16.7178 42.3219 16.7124 42.3453C16.707 42.3687 16.697 42.3908 16.6831 42.4103C16.6693 42.4298 16.6517 42.4463 16.6315 42.459Z" fill="url(#paint52_radial_457_21966)"/>
<path fill-rule="evenodd" clip-rule="evenodd" d="M40.5809 36.1704C41.706 37.3171 43.4891 37.0997 44.7007 36.2057C45.9429 35.2588 46.7629 33.8556 46.9819 32.3023C44.8989 32.2891 40.5094 32.765 40.5809 36.1704Z" fill="url(#paint53_radial_457_21966)"/>
<path fill-rule="evenodd" clip-rule="evenodd" d="M37.4946 37.1825C36.917 36.7219 36.5231 36.0675 36.3847 35.3388C36.2464 34.61 36.3728 33.8554 36.7409 33.2127C37.4278 31.9117 38.5592 30.905 39.9258 30.3787C40.3264 32.3557 40.6986 36.6159 37.4946 37.1825Z" fill="url(#paint54_radial_457_21966)"/>
<path fill-rule="evenodd" clip-rule="evenodd" d="M35.2932 40.3727C35.6447 41.0616 36.2266 41.6032 36.936 41.9021C37.6455 42.201 38.4369 42.2379 39.1708 42.0063C40.6429 41.5777 41.9112 40.6269 42.7414 39.3297C40.8158 38.4901 36.5604 37.1877 35.2932 40.3727Z" fill="url(#paint55_radial_457_21966)"/>
<path fill-rule="evenodd" clip-rule="evenodd" d="M32.2298 40.8466C31.7504 40.3814 31.455 39.7566 31.3987 39.0885C31.3425 38.4203 31.5291 37.7544 31.9239 37.2144C32.6614 36.1124 33.7701 35.3164 35.045 34.9735C35.22 36.7848 35.1566 40.6413 32.2298 40.8466Z" fill="url(#paint56_radial_457_21966)"/>
<path fill-rule="evenodd" clip-rule="evenodd" d="M30.8867 42.5687C30.9701 43.0883 31.2331 43.5616 31.6292 43.9049C32.0253 44.2483 32.5291 44.4397 33.0518 44.4454C34.0926 44.4801 35.1108 44.1342 35.9181 43.4716C34.849 42.5212 32.3706 40.7786 30.8867 42.5687Z" fill="url(#paint57_radial_457_21966)"/>
<path style="mix-blend-mode:multiply" fill-rule="evenodd" clip-rule="evenodd" d="M40.582 36.1702C43.5721 35.1901 45.2229 34.2605 46.983 32.302C46.764 33.8554 45.944 35.2586 44.7018 36.2056C43.4902 37.0995 41.7071 37.317 40.582 36.1702Z" fill="url(#paint58_radial_457_21966)"/>
<path style="mix-blend-mode:multiply" fill-rule="evenodd" clip-rule="evenodd" d="M35.2932 40.3726C37.8186 40.9632 40.4718 40.5916 42.7414 39.3296C41.9112 40.6268 40.6429 41.5775 39.1708 42.0061C38.4369 42.2377 37.6454 42.2008 36.936 41.9019C36.2265 41.6031 35.6447 41.0614 35.2932 40.3726Z" fill="url(#paint59_radial_457_21966)"/>
<path style="mix-blend-mode:multiply" fill-rule="evenodd" clip-rule="evenodd" d="M30.8867 42.5688C31.6192 43.0584 32.4438 43.3912 33.3093 43.5465C34.1748 43.7019 35.0628 43.6764 35.9181 43.4718C35.1108 44.1344 34.0926 44.4803 33.0517 44.4456C32.5291 44.4399 32.0253 44.2485 31.6291 43.9051C31.233 43.5617 30.9701 43.0885 30.8867 42.5688Z" fill="url(#paint60_radial_457_21966)"/>
<path style="mix-blend-mode:multiply" fill-rule="evenodd" clip-rule="evenodd" d="M35.0457 34.9739C35.2207 36.7851 35.1573 40.6415 32.2305 40.8469C32.387 37.9938 33.2888 36.7404 35.0457 34.9739Z" fill="url(#paint61_radial_457_21966)"/>
<path style="mix-blend-mode:multiply" fill-rule="evenodd" clip-rule="evenodd" d="M37.4949 37.1826C37.3893 34.6815 38.2623 32.2385 39.9261 30.3787C40.3267 32.3556 40.6989 36.6159 37.4949 37.1826Z" fill="url(#paint62_radial_457_21966)"/>
<path fill-rule="evenodd" clip-rule="evenodd" d="M39.2124 36.9337C42.6579 35.5301 43.7766 35.5016 46.2923 33.0208C43.4923 35.1131 42.4304 35.2302 39.0452 36.4844C39.016 36.4955 38.9891 36.5122 38.9662 36.5337C38.9434 36.5552 38.9249 36.5811 38.912 36.6097C38.899 36.6384 38.8918 36.6694 38.8908 36.7009C38.8897 36.7324 38.8948 36.7637 38.9058 36.7932C38.9168 36.8227 38.9334 36.8498 38.9547 36.8728C38.9761 36.8958 39.0017 36.9144 39.0302 36.9274C39.0587 36.9405 39.0894 36.9477 39.1207 36.9488C39.152 36.9499 39.1831 36.9448 39.2124 36.9337Z" fill="url(#paint63_radial_457_21966)"/>
<path fill-rule="evenodd" clip-rule="evenodd" d="M37.5615 38.1211C37.9283 35.3146 37.7752 34.006 39.3075 31.1484C37.4956 33.5764 37.5328 34.7928 37.0932 38.0326C37.0828 38.095 37.0967 38.159 37.1322 38.2113C37.1677 38.2635 37.2219 38.2998 37.2835 38.3126C37.3143 38.319 37.346 38.3191 37.3769 38.3129C37.4077 38.3067 37.4369 38.2942 37.4629 38.2764C37.4889 38.2585 37.511 38.2355 37.5279 38.2088C37.5449 38.1821 37.5563 38.1523 37.5615 38.1211Z" fill="url(#paint64_radial_457_21966)"/>
<path fill-rule="evenodd" clip-rule="evenodd" d="M34.4181 40.4493C37.7124 40.918 38.809 40.9851 41.8656 39.7734C38.8509 40.3983 37.7461 40.5504 34.5231 39.9813C34.4926 39.9744 34.461 39.9735 34.4302 39.9789C34.3994 39.9842 34.3699 39.9956 34.3434 40.0125C34.317 40.0293 34.2941 40.0512 34.2761 40.0769C34.258 40.1027 34.2452 40.1317 34.2383 40.1624C34.2314 40.1932 34.2306 40.225 34.2359 40.256C34.2412 40.2871 34.2525 40.3167 34.2692 40.3434C34.2859 40.37 34.3077 40.3931 34.3332 40.4112C34.3588 40.4294 34.3876 40.4423 34.4181 40.4493Z" fill="url(#paint65_radial_457_21966)"/>
<path fill-rule="evenodd" clip-rule="evenodd" d="M32.3529 41.4586C32.4601 39.404 33.1397 37.4213 34.3137 35.7375C32.5354 37.6912 32.2587 38.7851 31.8843 41.3718C31.8737 41.4343 31.8878 41.4984 31.9235 41.5506C31.9593 41.6028 32.0138 41.6389 32.0755 41.6512C32.1063 41.6574 32.1381 41.6573 32.1689 41.651C32.1996 41.6446 32.2288 41.6321 32.2547 41.6141C32.2806 41.5962 32.3026 41.5731 32.3195 41.5464C32.3364 41.5197 32.3477 41.4899 32.3529 41.4586Z" fill="url(#paint66_radial_457_21966)"/>
<path fill-rule="evenodd" clip-rule="evenodd" d="M30.3662 42.4591C31.7768 43.462 33.5214 43.8688 35.2262 43.5922C33.5499 43.6789 31.897 43.1678 30.5579 42.1487C30.517 42.1234 30.4679 42.1154 30.4211 42.1264C30.3744 42.1375 30.334 42.1668 30.3086 42.2078C30.2833 42.2488 30.2751 42.2983 30.2859 42.3454C30.2967 42.3925 30.3255 42.4334 30.3662 42.4591Z" fill="url(#paint67_radial_457_21966)"/>
<path fill-rule="evenodd" clip-rule="evenodd" d="M31.3014 30.9678V32.7036C31.3014 32.7354 31.2677 32.7627 31.1943 32.79C30.5219 33.0407 27.3714 33.2368 23.5003 33.2368C19.6292 33.2368 16.4788 33.0407 15.8064 32.79C15.733 32.7627 15.6992 32.7354 15.6992 32.7036V30.9678C16.4684 31.6281 30.5323 31.6281 31.3014 30.9678Z" fill="url(#paint68_linear_457_21966)"/>
<path style="mix-blend-mode:multiply" fill-rule="evenodd" clip-rule="evenodd" d="M17.2788 33.0211V31.3174C16.7386 31.3224 16.2024 31.2232 15.6992 31.0251V32.7037C15.6992 32.7356 15.733 32.7628 15.8064 32.7902C16.2881 32.9173 16.7815 32.9947 17.2788 33.0211Z" fill="url(#paint69_linear_457_21966)"/>
<path style="mix-blend-mode:multiply" fill-rule="evenodd" clip-rule="evenodd" d="M28.3982 31.4101V33.1161C29.3383 33.1021 30.2746 32.9929 31.193 32.7902C31.2663 32.7628 31.3001 32.7356 31.3001 32.7037V31.0251C31.1723 31.1811 30.0662 31.3185 28.3982 31.4101Z" fill="url(#paint70_linear_457_21966)"/>
<path style="mix-blend-mode:screen" opacity="0.65" fill-rule="evenodd" clip-rule="evenodd" d="M30.7019 31.1929C28.292 31.4591 25.8677 31.571 23.4438 31.5279C21.0198 31.571 18.5955 31.4591 16.1855 31.1929C18.5928 31.4944 21.0186 31.6187 23.4438 31.5648C25.8689 31.6187 28.2947 31.4944 30.7019 31.1929Z" fill="url(#paint71_radial_457_21966)"/>
<g style="mix-blend-mode:screen">
<path d="M22.9802 31.8002C26.8935 31.8002 30.0659 31.4275 30.0659 30.9677C30.0659 30.508 26.8935 30.1353 22.9802 30.1353C19.0669 30.1353 15.8945 30.508 15.8945 30.9677C15.8945 31.4275 19.0669 31.8002 22.9802 31.8002Z" fill="#D2E1F7"/>
</g>
<path fill-rule="evenodd" clip-rule="evenodd" d="M28.8351 17.1499C28.5415 17.15 28.2566 17.2504 28.027 17.4347C27.7975 17.619 27.6367 17.8763 27.5712 18.1646C27.5057 18.4528 27.5393 18.7549 27.6664 19.0214C27.7935 19.288 28.0067 19.5032 28.2711 19.6319C27.8856 20.9339 27.2612 22.1517 26.4301 23.222C26.0982 23.6936 25.6588 24.0783 25.1489 24.3437C24.639 24.6092 24.0733 24.7477 23.4993 24.7477C22.9253 24.7477 22.3596 24.6092 21.8497 24.3437C21.3398 24.0783 20.9004 23.6936 20.5684 23.222C19.7374 22.1517 19.1129 20.9339 18.7274 19.6319C19.0046 19.4971 19.2252 19.2674 19.3497 18.9838C19.4742 18.7003 19.4944 18.3814 19.4069 18.0842C19.3193 17.787 19.1296 17.5309 18.8717 17.3616C18.6139 17.1923 18.3046 17.1209 17.9992 17.1602C17.6939 17.1995 17.4124 17.3469 17.205 17.576C16.9977 17.8052 16.8781 18.1011 16.8675 18.4109C16.857 18.7208 16.9562 19.0243 17.1474 19.2672C17.3387 19.5101 17.6095 19.6766 17.9115 19.7369C17.8871 21.268 17.1496 23.8173 15.8945 24.5858L16.6884 27.5313H30.3101L31.104 24.5858C29.8489 23.8173 29.1115 21.268 29.0871 19.7369C29.4029 19.6738 29.6842 19.4947 29.8762 19.2344C30.0681 18.974 30.157 18.6511 30.1256 18.3284C30.0942 18.0056 29.9446 17.7062 29.7061 17.4884C29.4676 17.2706 29.1571 17.1499 28.8351 17.1499Z" fill="url(#paint72_radial_457_21966)"/>
<path style="mix-blend-mode:multiply" fill-rule="evenodd" clip-rule="evenodd" d="M23.4993 24.7475C22.9273 24.7367 22.3654 24.5935 21.8572 24.3289C21.3489 24.0643 20.908 23.6855 20.5684 23.2218C20.0852 22.5919 19.6675 21.9136 19.322 21.1978C19.3079 21.4753 19.2376 21.747 19.1154 21.9962C18.9932 22.2453 18.8217 22.4667 18.6115 22.6467C18.4012 22.8266 18.1566 22.9613 17.8927 23.0426C17.6288 23.1238 17.3512 23.1499 17.077 23.1191C16.8235 23.7077 16.4145 24.2149 15.8945 24.5856L16.6884 27.5311H23.4993V24.7475Z" fill="url(#paint73_radial_457_21966)"/>
<path style="mix-blend-mode:multiply" fill-rule="evenodd" clip-rule="evenodd" d="M23.5 24.7474C24.072 24.7366 24.6339 24.5933 25.1421 24.3288C25.6504 24.0642 26.0913 23.6854 26.4309 23.2217C26.9141 22.5918 27.3318 21.9135 27.6773 21.1976C27.6914 21.4752 27.7617 21.7469 27.8839 21.996C28.0061 22.2452 28.1776 22.4666 28.3878 22.6465C28.5981 22.8265 28.8427 22.9612 29.1066 23.0425C29.3705 23.1237 29.6481 23.1497 29.9223 23.1189C30.1758 23.7076 30.5848 24.2148 31.1048 24.5855L30.3109 27.531H23.5C23.5 27.531 23.5001 25.9353 23.5 24.7474Z" fill="url(#paint74_radial_457_21966)"/>
<path fill-rule="evenodd" clip-rule="evenodd" d="M23.4993 31.609C19.2461 31.609 15.7878 31.3242 15.697 30.9701C14.9121 27.0034 13.8975 23.0863 12.6582 19.239C13.1508 19.1148 13.6715 19.1777 14.121 19.4156C14.5704 19.6536 14.9171 20.0499 15.0949 20.5289C15.2208 20.8608 15.2448 21.2232 15.1639 21.569C15.0829 21.9148 14.9006 22.2282 14.6407 22.4685C17.0169 26.5579 22.2645 24.491 22.5067 17.1621H24.492C24.7341 24.491 29.9817 26.5579 32.3579 22.4685C32.098 22.2282 31.9158 21.9148 31.8348 21.569C31.7538 21.2232 31.7778 20.8608 31.9038 20.5289C32.0815 20.0499 32.4282 19.6536 32.8777 19.4156C33.3271 19.1777 33.8479 19.1148 34.3404 19.239C33.1011 23.0863 32.0865 27.0033 31.302 30.9701C31.2108 31.3242 27.7525 31.609 23.4993 31.609Z" fill="url(#paint75_linear_457_21966)"/>
<mask id="mask0_457_21966" style="mask-type:luminance" maskUnits="userSpaceOnUse" x="12" y="17" width="23" height="15">
<path d="M23.4993 31.609C19.2461 31.609 15.7878 31.3242 15.697 30.9701C14.9121 27.0034 13.8975 23.0863 12.6582 19.239C13.1508 19.1148 13.6715 19.1777 14.121 19.4156C14.5704 19.6536 14.9171 20.0499 15.0949 20.5289C15.2208 20.8608 15.2448 21.2232 15.1639 21.569C15.0829 21.9148 14.9006 22.2282 14.6407 22.4685C17.0169 26.5579 22.2645 24.491 22.5067 17.1621H24.492C24.7341 24.491 29.9817 26.5579 32.3579 22.4685C32.098 22.2282 31.9158 21.9148 31.8348 21.569C31.7538 21.2232 31.7778 20.8608 31.9038 20.5289C32.0815 20.0499 32.4282 19.6536 32.8777 19.4156C33.3271 19.1777 33.8479 19.1148 34.3404 19.239C33.1011 23.0863 32.0865 27.0033 31.302 30.9701C31.2108 31.3242 27.7525 31.609 23.4993 31.609Z" fill="white"/>
</mask>
<g mask="url(#mask0_457_21966)">
<g style="mix-blend-mode:color-dodge">
<path d="M20.3293 23.0591C20.3581 23.329 20.3295 23.5533 20.2654 23.5603C20.2012 23.5672 20.1259 23.3541 20.0972 23.0843C20.0683 22.8144 20.097 22.5901 20.1611 22.5832C20.2252 22.5762 20.3005 22.7893 20.3293 23.0591Z" fill="#D2E1F7"/>
</g>
</g>
<path fill-rule="evenodd" clip-rule="evenodd" d="M23.4997 13.4951C23.9033 13.4951 24.2979 13.6157 24.6335 13.8415C24.9691 14.0673 25.2306 14.3883 25.3851 14.7638C25.5395 15.1394 25.5799 15.5526 25.5012 15.9512C25.4225 16.3499 25.2281 16.7161 24.9427 17.0035C24.6573 17.291 24.2937 17.4867 23.8978 17.566C23.502 17.6453 23.0917 17.6046 22.7188 17.449C22.3459 17.2935 22.0271 17.0301 21.8029 16.6921C21.5787 16.3541 21.459 15.9568 21.459 15.5503C21.459 15.2804 21.5118 15.0132 21.6143 14.7638C21.7169 14.5145 21.8672 14.2879 22.0567 14.097C22.2462 13.9062 22.4711 13.7548 22.7187 13.6515C22.9663 13.5483 23.2317 13.4951 23.4997 13.4951Z" fill="url(#paint76_radial_457_21966)"/>
<path style="mix-blend-mode:screen" fill-rule="evenodd" clip-rule="evenodd" d="M23.2718 13.7644C23.5801 13.7644 23.8815 13.8565 24.1378 14.029C24.3942 14.2015 24.594 14.4467 24.712 14.7335C24.8299 15.0204 24.8608 15.3361 24.8007 15.6406C24.7405 15.9451 24.592 16.2249 24.374 16.4444C24.156 16.664 23.8782 16.8135 23.5759 16.8741C23.2735 16.9346 22.96 16.9035 22.6752 16.7847C22.3904 16.6659 22.1469 16.4647 21.9756 16.2065C21.8043 15.9483 21.7129 15.6448 21.7129 15.3343C21.7129 15.1282 21.7532 14.924 21.8316 14.7335C21.9099 14.5431 22.0247 14.37 22.1695 14.2242C22.3142 14.0784 22.4861 13.9628 22.6752 13.8839C22.8643 13.805 23.067 13.7644 23.2718 13.7644Z" fill="url(#paint77_radial_457_21966)"/>
<g style="mix-blend-mode:multiply" opacity="0.5">
<path fill-rule="evenodd" clip-rule="evenodd" d="M23.4995 23.4591C23.9573 23.43 24.4146 23.5232 24.8251 23.7293C25.2356 23.9355 25.5848 24.2472 25.8372 24.6329C26.2899 25.4409 26.4866 26.369 26.4008 27.2927C26.3907 28.1757 26.0981 29.0319 25.5665 29.7342C25.3099 30.0331 24.9924 30.2729 24.6355 30.4373C24.2787 30.6017 23.8909 30.6868 23.4985 30.6869C23.1062 30.6869 22.7183 30.602 22.3615 30.4377C22.0046 30.2734 21.687 30.0338 21.4302 29.7349C20.8991 29.0322 20.6073 28.1757 20.5981 27.2927C20.5116 26.3692 20.7074 25.4412 21.1593 24.6329C21.4122 24.2471 21.7617 23.9353 22.1727 23.7292C22.5836 23.5231 23.0413 23.4299 23.4995 23.4591Z" fill="#535F6D"/>
</g>
<path fill-rule="evenodd" clip-rule="evenodd" d="M23.5 22.9014C23.9732 22.8713 24.4459 22.9677 24.8702 23.1807C25.2945 23.3938 25.6554 23.7159 25.9163 24.1146C26.3843 24.9498 26.5876 25.9091 26.4989 26.8639C26.4885 27.7766 26.186 28.6616 25.6365 29.3875C25.3713 29.6965 25.0431 29.9443 24.6743 30.1142C24.3054 30.2841 23.9046 30.3721 23.499 30.3722C23.0935 30.3722 22.6926 30.2844 22.3237 30.1147C21.9549 29.9449 21.6266 29.6972 21.3612 29.3883C20.8123 28.6619 20.5107 27.7766 20.5011 26.8639C20.4117 25.9094 20.6141 24.9501 21.0811 24.1146C21.3425 23.7158 21.7039 23.3936 22.1286 23.1806C22.5534 22.9675 23.0265 22.8712 23.5 22.9014Z" fill="url(#paint78_linear_457_21966)"/>
<path fill-rule="evenodd" clip-rule="evenodd" d="M23.499 29.7196C23.187 29.7305 22.8767 29.6688 22.5923 29.5392C22.3079 29.4096 22.057 29.2156 21.8592 28.9725C21.4006 28.354 21.151 27.6039 21.147 26.8321C21.0659 26.0139 21.2322 25.1902 21.6239 24.4688C21.8472 24.1835 22.1318 23.9529 22.4564 23.7944C22.7809 23.6358 23.1369 23.5535 23.4976 23.5535C23.8583 23.5535 24.2143 23.6358 24.5388 23.7944C24.8634 23.9529 25.148 24.1835 25.3713 24.4688C25.764 25.1899 25.9311 26.0137 25.8507 26.8321C25.846 27.6037 25.5956 28.3535 25.1363 28.9711C24.9391 29.2146 24.6887 29.4088 24.4047 29.5386C24.1207 29.6685 23.8107 29.7304 23.499 29.7196Z" fill="url(#paint79_radial_457_21966)"/>
<g style="mix-blend-mode:screen">
<path fill-rule="evenodd" clip-rule="evenodd" d="M23.3706 25.8012C22.9047 26.2662 22.0331 26.6146 21.6951 26.2711C21.357 25.9276 21.6701 24.9375 22.121 24.51C22.325 24.3164 22.5847 24.1928 22.8627 24.157C23.1408 24.1212 23.423 24.175 23.6688 24.3107C24.0158 24.6452 23.8365 25.3361 23.3706 25.8012Z" fill="#C9FFA9"/>
</g>
<path style="mix-blend-mode:screen" fill-rule="evenodd" clip-rule="evenodd" d="M24.1603 28.706C25.0288 28.1544 25.2238 27.5053 25.4095 27.5049C25.663 27.5044 25.5083 28.6236 24.6798 29.233C24.1502 29.6226 23.3192 29.6264 23.1222 29.3265C22.941 29.0505 23.6055 29.0584 24.1603 28.706Z" fill="url(#paint80_radial_457_21966)"/>
<defs>
<linearGradient id="paint0_linear_457_21966" x1="23.4997" y1="60.0001" x2="23.4997" y2="41.9802" gradientUnits="userSpaceOnUse">
<stop stop-color="#FF3385"/>
<stop offset="0.31338" stop-color="#DC1364"/>
<stop offset="0.54494" stop-color="#C70050"/>
<stop offset="1" stop-color="#4B172C"/>
</linearGradient>
<radialGradient id="paint1_radial_457_21966" cx="0" cy="0" r="1" gradientUnits="userSpaceOnUse" gradientTransform="translate(18.4453 53.9203) scale(18.5688 18.7005)">
<stop stop-color="#B8CBE6"/>
<stop offset="0.63089" stop-color="#3E4559"/>
<stop offset="0.73313" stop-color="#4A5268"/>
<stop offset="0.92816" stop-color="#68748E"/>
<stop offset="1" stop-color="#75829E"/>
</radialGradient>
<radialGradient id="paint2_radial_457_21966" cx="0" cy="0" r="1" gradientUnits="userSpaceOnUse" gradientTransform="translate(17.7316 17.0831) scale(25.3144 25.494)">
<stop stop-color="#FF87C3"/>
<stop offset="0.55238" stop-color="#EB1A7C"/>
<stop offset="0.65033" stop-color="#D2156C"/>
<stop offset="0.85771" stop-color="#910943"/>
<stop offset="1" stop-color="#610025"/>
</radialGradient>
<radialGradient id="paint3_radial_457_21966" cx="0" cy="0" r="1" gradientUnits="userSpaceOnUse" gradientTransform="translate(23.4991 24.8654) scale(15.3341 15.4429)">
<stop offset="0.91155" stop-color="white"/>
<stop offset="0.92008" stop-color="#FCF7F8"/>
<stop offset="0.93311" stop-color="#F4E2E6"/>
<stop offset="0.94901" stop-color="#E7BFC8"/>
<stop offset="0.96718" stop-color="#D58F9E"/>
<stop offset="0.98698" stop-color="#BE5269"/>
<stop offset="1" stop-color="#AD2643"/>
</radialGradient>
<linearGradient id="paint4_linear_457_21966" x1="23.4991" y1="43.5979" x2="23.4991" y2="6.17151" gradientUnits="userSpaceOnUse">
<stop stop-color="#4C6E9C"/>
<stop offset="1" stop-color="#CCD8EB"/>
</linearGradient>
<linearGradient id="paint5_linear_457_21966" x1="23.4999" y1="41.9814" x2="23.4999" y2="7.78768" gradientUnits="userSpaceOnUse">
<stop stop-color="#91A4BF"/>
<stop offset="1" stop-color="#693649"/>
</linearGradient>
<radialGradient id="paint6_radial_457_21966" cx="0" cy="0" r="1" gradientUnits="userSpaceOnUse" gradientTransform="translate(13.9622 11.4066) scale(19.7164 19.8563)">
<stop stop-color="#99B2D6"/>
<stop offset="1"/>
</radialGradient>
<radialGradient id="paint7_radial_457_21966" cx="0" cy="0" r="1" gradientUnits="userSpaceOnUse" gradientTransform="translate(30.5635 38.4179) scale(19.6898 19.8294)">
<stop stop-color="#99B2D6"/>
<stop offset="1"/>
</radialGradient>
<radialGradient id="paint8_radial_457_21966" cx="0" cy="0" r="1" gradientUnits="userSpaceOnUse" gradientTransform="translate(22.8923 -0.643074) scale(11.4211 11.5021)">
<stop stop-color="#E6F0FF"/>
<stop offset="1" stop-color="#99B2D6"/>
</radialGradient>
<radialGradient id="paint9_radial_457_21966" cx="0" cy="0" r="1" gradientUnits="userSpaceOnUse" gradientTransform="translate(17.0746 1.12746) scale(11.8005 11.8842)">
<stop stop-color="#A5BEE8"/>
<stop offset="1" stop-color="#46648A"/>
</radialGradient>
<radialGradient id="paint10_radial_457_21966" cx="0" cy="0" r="1" gradientUnits="userSpaceOnUse" gradientTransform="translate(43.7638 9.65629) scale(15.7566 15.8684)">
<stop stop-color="#CEDBF0"/>
<stop offset="1" stop-color="#6D87AB"/>
</radialGradient>
<radialGradient id="paint11_radial_457_21966" cx="0" cy="0" r="1" gradientUnits="userSpaceOnUse" gradientTransform="translate(37.0587 8.9936) scale(15.8407 15.953)">
<stop stop-color="#A5BEE8"/>
<stop offset="1" stop-color="#46648A"/>
</radialGradient>
<radialGradient id="paint12_radial_457_21966" cx="0" cy="0" r="1" gradientUnits="userSpaceOnUse" gradientTransform="translate(44.3221 38.226) scale(13.4037 13.4987)">
<stop stop-color="#CCD8EB"/>
<stop offset="1" stop-color="#4C6E9C"/>
</radialGradient>
<radialGradient id="paint13_radial_457_21966" cx="0" cy="0" r="1" gradientUnits="userSpaceOnUse" gradientTransform="translate(44.0107 37.3849) scale(13.1728 13.2662)">
<stop stop-color="#95B0DE"/>
<stop offset="1" stop-color="#394F6E"/>
</radialGradient>
<radialGradient id="paint14_radial_457_21966" cx="0" cy="0" r="1" gradientUnits="userSpaceOnUse" gradientTransform="translate(6.7806 37.3295) scale(10.4165 10.4904)">
<stop stop-color="#596D8F"/>
<stop offset="1" stop-color="#46648A"/>
</radialGradient>
<radialGradient id="paint15_radial_457_21966" cx="0" cy="0" r="1" gradientUnits="userSpaceOnUse" gradientTransform="translate(-0.342969 34.7955) scale(14.5676 14.671)">
<stop stop-color="#CEDBF0"/>
<stop offset="1" stop-color="#6D87AB"/>
</radialGradient>
<radialGradient id="paint16_radial_457_21966" cx="0" cy="0" r="1" gradientUnits="userSpaceOnUse" gradientTransform="translate(4.83118 13.3646) scale(11.1699 11.2492)">
<stop stop-color="#A5BEE8"/>
<stop offset="1" stop-color="#46648A"/>
</radialGradient>
<radialGradient id="paint17_radial_457_21966" cx="0" cy="0" r="1" gradientUnits="userSpaceOnUse" gradientTransform="translate(5.07749 13.9995) scale(10.1113 10.183)">
<stop stop-color="#CEDBF0"/>
<stop offset="1" stop-color="#6D87AB"/>
</radialGradient>
<radialGradient id="paint18_radial_457_21966" cx="0" cy="0" r="1" gradientUnits="userSpaceOnUse" gradientTransform="translate(24.7042 6.82946) scale(9.56779 9.63551)">
<stop stop-color="#99B2D6"/>
<stop offset="1"/>
</radialGradient>
<radialGradient id="paint19_radial_457_21966" cx="0" cy="0" r="1" gradientUnits="userSpaceOnUse" gradientTransform="translate(9.47155 16.428) scale(10.1621 10.2342)">
<stop stop-color="#99B2D6"/>
<stop offset="1"/>
</radialGradient>
<radialGradient id="paint20_radial_457_21966" cx="0" cy="0" r="1" gradientUnits="userSpaceOnUse" gradientTransform="translate(22.891 39.6535) scale(13.7903 13.8882)">
<stop stop-color="#596D8F"/>
<stop offset="1" stop-color="#30455E"/>
</radialGradient>
<radialGradient id="paint21_radial_457_21966" cx="0" cy="0" r="1" gradientUnits="userSpaceOnUse" gradientTransform="translate(27.4061 37.2467) scale(13.0013 13.0935)">
<stop stop-color="#CEDBF0"/>
<stop offset="1" stop-color="#5C7494"/>
</radialGradient>
<radialGradient id="paint22_radial_457_21966" cx="0" cy="0" r="1" gradientUnits="userSpaceOnUse" gradientTransform="translate(46.1788 17.7859) scale(13.7196 13.817)">
<stop stop-color="#CEDBF0"/>
<stop offset="1" stop-color="#5C7494"/>
</radialGradient>
<radialGradient id="paint23_radial_457_21966" cx="0" cy="0" r="1" gradientUnits="userSpaceOnUse" gradientTransform="translate(45.5349 21.8647) scale(16.4077 16.5241)">
<stop stop-color="#596D8F"/>
<stop offset="1" stop-color="#30455E"/>
</radialGradient>
<radialGradient id="paint24_radial_457_21966" cx="0" cy="0" r="1" gradientUnits="userSpaceOnUse" gradientTransform="translate(35.5514 9.32649) scale(15.4641 15.5738)">
<stop stop-color="#CEDBF0"/>
<stop offset="1" stop-color="#6D87AB"/>
</radialGradient>
<radialGradient id="paint25_radial_457_21966" cx="0" cy="0" r="1" gradientUnits="userSpaceOnUse" gradientTransform="translate(31.7019 1.79296) scale(13.9344 14.0332)">
<stop stop-color="#A5BEE8"/>
<stop offset="1" stop-color="#46648A"/>
</radialGradient>
<radialGradient id="paint26_radial_457_21966" cx="0" cy="0" r="1" gradientUnits="userSpaceOnUse" gradientTransform="translate(7.85419 6.08098) scale(14.9073 15.013)">
<stop stop-color="#A5BEE8"/>
<stop offset="1" stop-color="#46648A"/>
</radialGradient>
<radialGradient id="paint27_radial_457_21966" cx="0" cy="0" r="1" gradientUnits="userSpaceOnUse" gradientTransform="translate(13.6442 11.6781) scale(9.12761 9.19236)">
<stop stop-color="#E6F0FF"/>
<stop offset="1" stop-color="#99B2D6"/>
</radialGradient>
<radialGradient id="paint28_radial_457_21966" cx="0" cy="0" r="1" gradientUnits="userSpaceOnUse" gradientTransform="translate(7.89376 23.0264) scale(15.1887 15.2964)">
<stop stop-color="#596D8F"/>
<stop offset="1" stop-color="#30455E"/>
</radialGradient>
<radialGradient id="paint29_radial_457_21966" cx="0" cy="0" r="1" gradientUnits="userSpaceOnUse" gradientTransform="translate(0.820399 14.3001) scale(17.6137 17.7386)">
<stop stop-color="#CEDBF0"/>
<stop offset="1" stop-color="#6D87AB"/>
</radialGradient>
<radialGradient id="paint30_radial_457_21966" cx="0" cy="0" r="1" gradientUnits="userSpaceOnUse" gradientTransform="translate(14.2769 11.7263) scale(9.06881 9.13314)">
<stop stop-color="#99B2D6"/>
<stop offset="1"/>
</radialGradient>
<radialGradient id="paint31_radial_457_21966" cx="0" cy="0" r="1" gradientUnits="userSpaceOnUse" gradientTransform="translate(41.2647 32.1856) scale(8.54302 8.60362)">
<stop stop-color="#99B2D6"/>
<stop offset="1"/>
</radialGradient>
<radialGradient id="paint32_radial_457_21966" cx="0" cy="0" r="1" gradientUnits="userSpaceOnUse" gradientTransform="translate(43.2595 24.0049) rotate(180) scale(8.57621 8.63706)">
<stop stop-color="#CCD8EB"/>
<stop offset="1" stop-color="#4C6E9C"/>
</radialGradient>
<radialGradient id="paint33_radial_457_21966" cx="0" cy="0" r="1" gradientUnits="userSpaceOnUse" gradientTransform="translate(39.8566 27.1587) rotate(180) scale(6.4858 6.53182)">
<stop stop-color="white"/>
<stop offset="0.11119" stop-color="#F7F8F9"/>
<stop offset="0.28095" stop-color="#E2E4EA"/>
<stop offset="0.48814" stop-color="#BFC4D0"/>
<stop offset="0.72482" stop-color="#8F98AD"/>
<stop offset="0.98325" stop-color="#526080"/>
<stop offset="1" stop-color="#4E5C7D"/>
</radialGradient>
<radialGradient id="paint34_radial_457_21966" cx="0" cy="0" r="1" gradientUnits="userSpaceOnUse" gradientTransform="translate(29.2521 20.6547) scale(26.203 26.3889)">
<stop stop-color="#CCD8EB"/>
<stop offset="1" stop-color="#4C6E9C"/>
</radialGradient>
<radialGradient id="paint35_radial_457_21966" cx="0" cy="0" r="1" gradientUnits="userSpaceOnUse" gradientTransform="translate(3.74107 24.0049) scale(8.57622 8.63706)">
<stop stop-color="#CEDBF0"/>
<stop offset="1" stop-color="#6D87AB"/>
</radialGradient>
<radialGradient id="paint36_radial_457_21966" cx="0" cy="0" r="1" gradientUnits="userSpaceOnUse" gradientTransform="translate(5.71539 26.9374) scale(6.48581 6.53183)">
<stop stop-color="white"/>
<stop offset="0.11119" stop-color="#F7F8F9"/>
<stop offset="0.28095" stop-color="#E2E4EA"/>
<stop offset="0.48814" stop-color="#BFC4D0"/>
<stop offset="0.72482" stop-color="#8F98AD"/>
<stop offset="0.98325" stop-color="#526080"/>
<stop offset="1" stop-color="#4E5C7D"/>
</radialGradient>
<radialGradient id="paint37_radial_457_21966" cx="0" cy="0" r="1" gradientUnits="userSpaceOnUse" gradientTransform="translate(10.0831 28.6219) scale(23.2279 23.3927)">
<stop stop-color="#DDEAFF"/>
<stop offset="1" stop-color="#4C6E9C"/>
</radialGradient>
<radialGradient id="paint38_radial_457_21966" cx="0" cy="0" r="1" gradientUnits="userSpaceOnUse" gradientTransform="translate(1.79009 31.6407) scale(7.55841 7.61202)">
<stop stop-color="#CEDBF0"/>
<stop offset="1" stop-color="#6D87AB"/>
</radialGradient>
<radialGradient id="paint39_radial_457_21966" cx="0" cy="0" r="1" gradientUnits="userSpaceOnUse" gradientTransform="translate(7.91332 30.4056) scale(9.43803 9.50498)">
<stop stop-color="#CEDBF0"/>
<stop offset="1" stop-color="#6D87AB"/>
</radialGradient>
<radialGradient id="paint40_radial_457_21966" cx="0" cy="0" r="1" gradientUnits="userSpaceOnUse" gradientTransform="translate(6.27882 37.9682) scale(8.91827 8.98154)">
<stop stop-color="#CEDBF0"/>
<stop offset="1" stop-color="#6D87AB"/>
</radialGradient>
<radialGradient id="paint41_radial_457_21966" cx="0" cy="0" r="1" gradientUnits="userSpaceOnUse" gradientTransform="translate(12.9844 34.7565) scale(7.01519 7.06497)">
<stop stop-color="#CEDBF0"/>
<stop offset="1" stop-color="#6D87AB"/>
</radialGradient>
<radialGradient id="paint42_radial_457_21966" cx="0" cy="0" r="1" gradientUnits="userSpaceOnUse" gradientTransform="translate(10.8508 40.08) scale(7.56425 7.61789)">
<stop stop-color="#CEDBF0"/>
<stop offset="1" stop-color="#6D87AB"/>
</radialGradient>
<radialGradient id="paint43_radial_457_21966" cx="0" cy="0" r="1" gradientUnits="userSpaceOnUse" gradientTransform="translate(5.25081 31.1979) scale(7.28877 7.34046)">
<stop stop-color="white"/>
<stop offset="0.11119" stop-color="#F7F8F9"/>
<stop offset="0.28095" stop-color="#E2E4EA"/>
<stop offset="0.48814" stop-color="#BFC4D0"/>
<stop offset="0.72482" stop-color="#8F98AD"/>
<stop offset="0.98325" stop-color="#526080"/>
<stop offset="1" stop-color="#4E5C7D"/>
</radialGradient>
<radialGradient id="paint44_radial_457_21966" cx="0" cy="0" r="1" gradientUnits="userSpaceOnUse" gradientTransform="translate(8.7511 36.9688) scale(6.02022 6.06293)">
<stop stop-color="white"/>
<stop offset="0.11119" stop-color="#F7F8F9"/>
<stop offset="0.28095" stop-color="#E2E4EA"/>
<stop offset="0.48814" stop-color="#BFC4D0"/>
<stop offset="0.72482" stop-color="#8F98AD"/>
<stop offset="0.98325" stop-color="#526080"/>
<stop offset="1" stop-color="#4E5C7D"/>
</radialGradient>
<radialGradient id="paint45_radial_457_21966" cx="0" cy="0" r="1" gradientUnits="userSpaceOnUse" gradientTransform="translate(12.8286 39.9698) scale(5.84296 5.88439)">
<stop stop-color="white"/>
<stop offset="0.11119" stop-color="#F7F8F9"/>
<stop offset="0.28095" stop-color="#E2E4EA"/>
<stop offset="0.48814" stop-color="#BFC4D0"/>
<stop offset="0.72482" stop-color="#8F98AD"/>
<stop offset="0.98325" stop-color="#526080"/>
<stop offset="1" stop-color="#4E5C7D"/>
</radialGradient>
<radialGradient id="paint46_radial_457_21966" cx="0" cy="0" r="1" gradientUnits="userSpaceOnUse" gradientTransform="translate(16.081 36.3059) scale(6.49402 6.54011)">
<stop stop-color="white"/>
<stop offset="0.11119" stop-color="#F7F8F9"/>
<stop offset="0.28095" stop-color="#E2E4EA"/>
<stop offset="0.48814" stop-color="#BFC4D0"/>
<stop offset="0.72482" stop-color="#8F98AD"/>
<stop offset="0.98325" stop-color="#526080"/>
<stop offset="1" stop-color="#4E5C7D"/>
</radialGradient>
<radialGradient id="paint47_radial_457_21966" cx="0" cy="0" r="1" gradientUnits="userSpaceOnUse" gradientTransform="translate(12.1136 32.7847) scale(7.66317 7.71755)">
<stop stop-color="white"/>
<stop offset="0.11119" stop-color="#F7F8F9"/>
<stop offset="0.28095" stop-color="#E2E4EA"/>
<stop offset="0.48814" stop-color="#BFC4D0"/>
<stop offset="0.72482" stop-color="#8F98AD"/>
<stop offset="0.98325" stop-color="#526080"/>
<stop offset="1" stop-color="#4E5C7D"/>
</radialGradient>
<radialGradient id="paint48_radial_457_21966" cx="0" cy="0" r="1" gradientUnits="userSpaceOnUse" gradientTransform="translate(4.32526 33.9476) scale(10.5388 10.6135)">
<stop stop-color="#DDEAFF"/>
<stop offset="1" stop-color="#4C6E9C"/>
</radialGradient>
<radialGradient id="paint49_radial_457_21966" cx="0" cy="0" r="1" gradientUnits="userSpaceOnUse" gradientTransform="translate(8.22291 31.9108) scale(12.9883 13.0804)">
<stop stop-color="#DDEAFF"/>
<stop offset="1" stop-color="#4C6E9C"/>
</radialGradient>
<radialGradient id="paint50_radial_457_21966" cx="0" cy="0" r="1" gradientUnits="userSpaceOnUse" gradientTransform="translate(7.2208 38.2764) scale(10.872 10.9491)">
<stop stop-color="#DDEAFF"/>
<stop offset="1" stop-color="#4C6E9C"/>
</radialGradient>
<radialGradient id="paint51_radial_457_21966" cx="0" cy="0" r="1" gradientUnits="userSpaceOnUse" gradientTransform="translate(13.2816 36.58) scale(9.25425 9.31989)">
<stop stop-color="#DDEAFF"/>
<stop offset="1" stop-color="#4C6E9C"/>
</radialGradient>
<radialGradient id="paint52_radial_457_21966" cx="0" cy="0" r="1" gradientUnits="userSpaceOnUse" gradientTransform="translate(11.1952 44.5064) scale(9.99246 10.0633)">
<stop stop-color="#DDEAFF"/>
<stop offset="1" stop-color="#4C6E9C"/>
</radialGradient>
<radialGradient id="paint53_radial_457_21966" cx="0" cy="0" r="1" gradientUnits="userSpaceOnUse" gradientTransform="translate(45.2094 31.6407) rotate(180) scale(7.55838 7.61202)">
<stop stop-color="#CCD8EB"/>
<stop offset="1" stop-color="#4C6E9C"/>
</radialGradient>
<radialGradient id="paint54_radial_457_21966" cx="0" cy="0" r="1" gradientUnits="userSpaceOnUse" gradientTransform="translate(39.0848 30.4056) rotate(180) scale(9.43802 9.50499)">
<stop stop-color="#CCD8EB"/>
<stop offset="1" stop-color="#4C6E9C"/>
</radialGradient>
<radialGradient id="paint55_radial_457_21966" cx="0" cy="0" r="1" gradientUnits="userSpaceOnUse" gradientTransform="translate(40.7204 37.9682) rotate(180) scale(8.91828 8.98153)">
<stop stop-color="#CCD8EB"/>
<stop offset="1" stop-color="#4C6E9C"/>
</radialGradient>
<radialGradient id="paint56_radial_457_21966" cx="0" cy="0" r="1" gradientUnits="userSpaceOnUse" gradientTransform="translate(34.0151 34.7563) rotate(180) scale(7.01519 7.06497)">
<stop stop-color="#CCD8EB"/>
<stop offset="1" stop-color="#4C6E9C"/>
</radialGradient>
<radialGradient id="paint57_radial_457_21966" cx="0" cy="0" r="1" gradientUnits="userSpaceOnUse" gradientTransform="translate(36.1493 40.08) rotate(180) scale(7.56421 7.61787)">
<stop stop-color="#CCD8EB"/>
<stop offset="1" stop-color="#4C6E9C"/>
</radialGradient>
<radialGradient id="paint58_radial_457_21966" cx="0" cy="0" r="1" gradientUnits="userSpaceOnUse" gradientTransform="translate(41.3103 30.3127) rotate(180) scale(7.28874 7.34046)">
<stop stop-color="white"/>
<stop offset="0.11119" stop-color="#F7F8F9"/>
<stop offset="0.28095" stop-color="#E2E4EA"/>
<stop offset="0.48814" stop-color="#BFC4D0"/>
<stop offset="0.72482" stop-color="#8F98AD"/>
<stop offset="0.98325" stop-color="#526080"/>
<stop offset="1" stop-color="#4E5C7D"/>
</radialGradient>
<radialGradient id="paint59_radial_457_21966" cx="0" cy="0" r="1" gradientUnits="userSpaceOnUse" gradientTransform="translate(37.9735 36.4155) rotate(180) scale(6.0202 6.0629)">
<stop stop-color="white"/>
<stop offset="0.11119" stop-color="#F7F8F9"/>
<stop offset="0.28095" stop-color="#E2E4EA"/>
<stop offset="0.48814" stop-color="#BFC4D0"/>
<stop offset="0.72482" stop-color="#8F98AD"/>
<stop offset="0.98325" stop-color="#526080"/>
<stop offset="1" stop-color="#4E5C7D"/>
</radialGradient>
<radialGradient id="paint60_radial_457_21966" cx="0" cy="0" r="1" gradientUnits="userSpaceOnUse" gradientTransform="translate(34.2265 39.4165) rotate(180) scale(5.84296 5.88441)">
<stop stop-color="white"/>
<stop offset="0.11119" stop-color="#F7F8F9"/>
<stop offset="0.28095" stop-color="#E2E4EA"/>
<stop offset="0.48814" stop-color="#BFC4D0"/>
<stop offset="0.72482" stop-color="#8F98AD"/>
<stop offset="0.98325" stop-color="#526080"/>
<stop offset="1" stop-color="#4E5C7D"/>
</radialGradient>
<radialGradient id="paint61_radial_457_21966" cx="0" cy="0" r="1" gradientUnits="userSpaceOnUse" gradientTransform="translate(29.7105 36.5825) rotate(180) scale(6.49406 6.54011)">
<stop stop-color="white"/>
<stop offset="0.11119" stop-color="#F7F8F9"/>
<stop offset="0.28095" stop-color="#E2E4EA"/>
<stop offset="0.48814" stop-color="#BFC4D0"/>
<stop offset="0.72482" stop-color="#8F98AD"/>
<stop offset="0.98325" stop-color="#526080"/>
<stop offset="1" stop-color="#4E5C7D"/>
</radialGradient>
<radialGradient id="paint62_radial_457_21966" cx="0" cy="0" r="1" gradientUnits="userSpaceOnUse" gradientTransform="translate(33.6213 32.4528) rotate(180) scale(7.66318 7.71756)">
<stop stop-color="white"/>
<stop offset="0.11119" stop-color="#F7F8F9"/>
<stop offset="0.28095" stop-color="#E2E4EA"/>
<stop offset="0.48814" stop-color="#BFC4D0"/>
<stop offset="0.72482" stop-color="#8F98AD"/>
<stop offset="0.98325" stop-color="#526080"/>
<stop offset="1" stop-color="#4E5C7D"/>
</radialGradient>
<radialGradient id="paint63_radial_457_21966" cx="0" cy="0" r="1" gradientUnits="userSpaceOnUse" gradientTransform="translate(42.6738 33.9475) rotate(180) scale(7.20048 7.25156)">
<stop stop-color="#CCD8EB"/>
<stop offset="1" stop-color="#4C6E9C"/>
</radialGradient>
<radialGradient id="paint64_radial_457_21966" cx="0" cy="0" r="1" gradientUnits="userSpaceOnUse" gradientTransform="translate(38.776 31.9108) rotate(180) scale(8.85141 8.91416)">
<stop stop-color="#CCD8EB"/>
<stop offset="1" stop-color="#4C6E9C"/>
</radialGradient>
<radialGradient id="paint65_radial_457_21966" cx="0" cy="0" r="1" gradientUnits="userSpaceOnUse" gradientTransform="translate(39.7795 38.2764) rotate(180) scale(8.0411 8.09813)">
<stop stop-color="#CCD8EB"/>
<stop offset="1" stop-color="#4C6E9C"/>
</radialGradient>
<radialGradient id="paint66_radial_457_21966" cx="0" cy="0" r="1" gradientUnits="userSpaceOnUse" gradientTransform="translate(33.7157 36.58) rotate(180) scale(6.51155 6.55774)">
<stop stop-color="#CCD8EB"/>
<stop offset="1" stop-color="#4C6E9C"/>
</radialGradient>
<radialGradient id="paint67_radial_457_21966" cx="0" cy="0" r="1" gradientUnits="userSpaceOnUse" gradientTransform="translate(35.8024 44.5064) rotate(180) scale(7.4451 7.4979)">
<stop stop-color="#CCD8EB"/>
<stop offset="1" stop-color="#4C6E9C"/>
</radialGradient>
<linearGradient id="paint68_linear_457_21966" x1="15.6992" y1="32.1023" x2="31.3014" y2="32.1023" gradientUnits="userSpaceOnUse">
<stop stop-color="#97ADD4"/>
<stop offset="0.28827" stop-color="#D2E1F7"/>
<stop offset="0.36796" stop-color="#C1D0E5"/>
<stop offset="0.52858" stop-color="#95A3B5"/>
<stop offset="0.74092" stop-color="#535F6D"/>
<stop offset="0.77819" stop-color="#586474"/>
<stop offset="0.83287" stop-color="#657488"/>
<stop offset="0.89829" stop-color="#7A8DA8"/>
<stop offset="0.97141" stop-color="#98AFD5"/>
<stop offset="1" stop-color="#A5BEE8"/>
</linearGradient>
<linearGradient id="paint69_linear_457_21966" x1="15.6992" y1="32.0231" x2="17.2788" y2="32.0231" gradientUnits="userSpaceOnUse">
<stop stop-color="#535F6D"/>
<stop offset="0.18481" stop-color="#868F98"/>
<stop offset="0.36944" stop-color="#B2B7BD"/>
<stop offset="0.54688" stop-color="#D3D6DA"/>
<stop offset="0.71509" stop-color="#EBEDEE"/>
<stop offset="0.87027" stop-color="#FAFAFB"/>
<stop offset="1" stop-color="white"/>
</linearGradient>
<linearGradient id="paint70_linear_457_21966" x1="28.3982" y1="32.0706" x2="31.3001" y2="32.0706" gradientUnits="userSpaceOnUse">
<stop stop-color="white"/>
<stop offset="0.12973" stop-color="#FAFAFB"/>
<stop offset="0.28491" stop-color="#EBEDEE"/>
<stop offset="0.45312" stop-color="#D3D6DA"/>
<stop offset="0.63056" stop-color="#B2B7BD"/>
<stop offset="0.81519" stop-color="#868F98"/>
<stop offset="1" stop-color="#535F6D"/>
</linearGradient>
<radialGradient id="paint71_radial_457_21966" cx="0" cy="0" r="1" gradientUnits="userSpaceOnUse" gradientTransform="translate(23.4437 31.3788) scale(11.6103 2.57707)">
<stop stop-color="#B59F8F"/>
<stop offset="1"/>
</radialGradient>
<radialGradient id="paint72_radial_457_21966" cx="0" cy="0" r="1" gradientUnits="userSpaceOnUse" gradientTransform="translate(31.0273 14.044) scale(21.2074 21.3579)">
<stop stop-color="#99A9C7"/>
<stop offset="1" stop-color="#5D738F"/>
</radialGradient>
<radialGradient id="paint73_radial_457_21966" cx="0" cy="0" r="1" gradientUnits="userSpaceOnUse" gradientTransform="translate(16.0749 19.2148) scale(6.2358 6.28004)">
<stop offset="0.67832" stop-color="white"/>
<stop offset="0.72005" stop-color="#FAFAFB"/>
<stop offset="0.76997" stop-color="#EBEDEE"/>
<stop offset="0.82408" stop-color="#D3D6DA"/>
<stop offset="0.88116" stop-color="#B2B7BD"/>
<stop offset="0.94055" stop-color="#868F98"/>
<stop offset="1" stop-color="#535F6D"/>
</radialGradient>
<radialGradient id="paint74_radial_457_21966" cx="0" cy="0" r="1" gradientUnits="userSpaceOnUse" gradientTransform="translate(30.9244 19.2147) rotate(180) scale(6.23582 6.28006)">
<stop offset="0.67832" stop-color="white"/>
<stop offset="0.72005" stop-color="#FAFAFB"/>
<stop offset="0.76997" stop-color="#EBEDEE"/>
<stop offset="0.82408" stop-color="#D3D6DA"/>
<stop offset="0.88116" stop-color="#B2B7BD"/>
<stop offset="0.94055" stop-color="#868F98"/>
<stop offset="1" stop-color="#535F6D"/>
</radialGradient>
<linearGradient id="paint75_linear_457_21966" x1="12.6582" y1="24.3856" x2="34.3404" y2="24.3856" gradientUnits="userSpaceOnUse">
<stop stop-color="#788AA8"/>
<stop offset="0.14529" stop-color="#90A0B9"/>
<stop offset="0.30734" stop-color="#A5B3C7"/>
<stop offset="0.41429" stop-color="#ADBACC"/>
<stop offset="0.52008" stop-color="#A2AFC0"/>
<stop offset="0.71038" stop-color="#8591A1"/>
<stop offset="0.96172" stop-color="#56616E"/>
<stop offset="1" stop-color="#4E5966"/>
</linearGradient>
<radialGradient id="paint76_radial_457_21966" cx="0" cy="0" r="1" gradientUnits="userSpaceOnUse" gradientTransform="translate(22.7658 14.4298) scale(3.66318 3.68915)">
<stop stop-color="#C3D0E8"/>
<stop offset="0.16379" stop-color="#BFCCE5"/>
<stop offset="0.31407" stop-color="#B4C2DA"/>
<stop offset="0.45913" stop-color="#A2B0C8"/>
<stop offset="0.60092" stop-color="#8796B0"/>
<stop offset="0.73921" stop-color="#667690"/>
<stop offset="0.74286" stop-color="#65758F"/>
<stop offset="1" stop-color="#D2E1F7"/>
</radialGradient>
<radialGradient id="paint77_radial_457_21966" cx="0" cy="0" r="1" gradientUnits="userSpaceOnUse" gradientTransform="translate(22.6562 14.4045) scale(3.541 3.5661)">
<stop stop-color="#A5BEE8"/>
<stop offset="0.04671" stop-color="#97AED4"/>
<stop offset="0.18939" stop-color="#6F839D"/>
<stop offset="0.33299" stop-color="#4D5D6D"/>
<stop offset="0.4744" stop-color="#313F46"/>
<stop offset="0.61325" stop-color="#1C2727"/>
<stop offset="0.74877" stop-color="#0C1611"/>
<stop offset="0.87946" stop-color="#030B04"/>
<stop offset="1" stop-color="#000800"/>
</radialGradient>
<linearGradient id="paint78_linear_457_21966" x1="23.5" y1="30.3722" x2="23.5" y2="22.9014" gradientUnits="userSpaceOnUse">
<stop stop-color="#707A85"/>
<stop offset="0.14429" stop-color="#818C99"/>
<stop offset="0.53714" stop-color="#ADBACC"/>
<stop offset="0.83466" stop-color="#C8D6EB"/>
<stop offset="1" stop-color="#D2E1F7"/>
</linearGradient>
<radialGradient id="paint79_radial_457_21966" cx="0" cy="0" r="1" gradientUnits="userSpaceOnUse" gradientTransform="translate(22.5173 24.7695) scale(5.48939 5.52834)">
<stop stop-color="#FF87C3"/>
<stop offset="0.55238" stop-color="#EB1A7C"/>
<stop offset="0.60884" stop-color="#D21268"/>
<stop offset="0.71429" stop-color="#99003A"/>
<stop offset="1" stop-color="#F968AE"/>
</radialGradient>
<radialGradient id="paint80_radial_457_21966" cx="0" cy="0" r="1" gradientUnits="userSpaceOnUse" gradientTransform="translate(22.5812 26.2459) scale(4.27799 4.30834)">
<stop offset="0.67055" stop-color="#080819"/>
<stop offset="0.69918" stop-color="#110C1E"/>
<stop offset="0.74575" stop-color="#29162D"/>
<stop offset="0.80446" stop-color="#512645"/>
<stop offset="0.87297" stop-color="#873D66"/>
<stop offset="0.9488" stop-color="#CC5990"/>
<stop offset="1" stop-color="#FF6EAF"/>
</radialGradient>
</defs>
</svg>
