<svg width="57" height="40" viewBox="0 0 57 40" fill="none" xmlns="http://www.w3.org/2000/svg">
<path fill-rule="evenodd" clip-rule="evenodd" d="M45.5235 23.913L45.5234 28.664C47.7984 28.2748 49.6896 27.8283 51.1627 26.7248C52.3268 25.8528 53.486 22.4743 53.3764 21.0215C51.0527 21.0431 48.7665 21.6008 46.7013 22.6499C46.2208 22.9824 45.819 23.4132 45.5235 23.913Z" fill="url(#paint0_radial_2002_20990)"/>
<path fill-rule="evenodd" clip-rule="evenodd" d="M45.5235 18.6275L45.5234 23.2453C48.2578 22.7775 50.7946 22.4546 52.5654 21.1281C53.9647 20.0799 55.0944 16.8983 54.9626 15.1519C52.9864 15.0423 48.9145 15.9095 46.9392 17.1093C46.3616 17.5089 45.8786 18.0268 45.5235 18.6275Z" fill="url(#paint1_radial_2002_20990)"/>
<path fill-rule="evenodd" clip-rule="evenodd" d="M45.5234 13.3443L45.5361 17.8228C48.7294 17.2764 51.6921 16.8994 53.7601 15.3502C54.6408 14.5965 55.3458 13.6644 55.8268 12.6176C56.3078 11.5709 56.5534 10.4342 56.547 9.28534C54.239 9.15722 49.4836 10.1701 47.1768 11.5712C46.5022 12.0379 45.9382 12.6428 45.5234 13.3443Z" fill="url(#paint2_radial_2002_20990)"/>
<path fill-rule="evenodd" clip-rule="evenodd" d="M11.0242 23.913L11.0243 28.664C8.74939 28.2748 6.85813 27.8283 5.38499 26.7248C4.22093 25.8528 3.06173 22.4743 3.17126 21.0215C5.49501 21.0431 7.78125 21.6008 9.84639 22.6499C10.3269 22.9824 10.7287 23.4132 11.0242 23.913Z" fill="url(#paint3_radial_2002_20990)"/>
<path fill-rule="evenodd" clip-rule="evenodd" d="M11.0238 18.6275L11.0238 23.2453C8.28942 22.7775 5.75262 22.4546 3.98182 21.1281C2.58255 20.0799 1.45295 16.8983 1.58468 15.1519C3.56088 15.0423 7.63275 15.9095 9.60802 17.1093C10.1857 17.5089 10.6686 18.0268 11.0238 18.6275Z" fill="url(#paint4_radial_2002_20990)"/>
<path fill-rule="evenodd" clip-rule="evenodd" d="M11.0237 13.3443L11.0111 17.8228C7.81766 17.2764 4.85506 16.8994 2.78699 15.3502C1.90629 14.5965 1.20133 13.6644 0.720342 12.6176C0.239354 11.5709 -0.00631994 10.4342 0.000123545 9.28534C2.30806 9.15722 7.06346 10.1701 9.37032 11.5712C10.0449 12.0379 10.6089 12.6428 11.0237 13.3443Z" fill="url(#paint5_radial_2002_20990)"/>
<path fill-rule="evenodd" clip-rule="evenodd" d="M45.8815 12.9822L45.3533 11.0108C45.0527 9.87289 44.4601 8.8301 43.6325 7.98243C42.3126 6.65939 39.682 5.09515 38.0315 4.11709C35.8407 2.81986 33.5707 1.65702 31.2344 0.635176C30.3056 0.216641 29.2962 0 28.2748 0C27.2533 0 26.2439 0.216641 25.3152 0.635176C22.9789 1.65703 20.7088 2.81988 18.518 4.11709C16.8679 5.0947 14.2365 6.65985 12.917 7.98243C12.0894 8.8301 11.4969 9.87289 11.1962 11.0108L10.668 12.9822H45.8815Z" fill="url(#paint6_linear_2002_20990)"/>
<path fill-rule="evenodd" clip-rule="evenodd" d="M43.0504 8.94976C41.2242 7.63722 39.3266 6.4238 37.366 5.31492C35.4103 4.19781 33.3941 3.18662 31.3264 2.28588C30.3686 1.85553 29.3281 1.63281 28.2753 1.63281C27.2225 1.63281 26.1819 1.85553 25.2241 2.28588C21.0901 4.09717 17.1605 6.3307 13.5002 8.94976C12.6427 9.55119 11.9265 10.327 11.4001 11.2246C10.8737 12.1223 10.5493 13.1208 10.449 14.1526C9.97533 18.5829 9.97533 23.05 10.449 27.4804C10.5493 28.5122 10.8737 29.5107 11.4001 30.4083C11.9265 31.306 12.6427 32.0818 13.5002 32.6832C17.1605 35.3022 21.09 37.5358 25.2241 39.3472C26.1819 39.7775 27.2224 40.0002 28.2753 40.0002C29.3281 40.0002 30.3686 39.7775 31.3264 39.3472C33.3941 38.4464 35.4103 37.4352 37.366 36.3181C39.3266 35.2092 41.2242 33.9958 43.0504 32.6832C43.9078 32.0818 44.624 31.306 45.1504 30.4084C45.6768 29.5107 46.0012 28.5122 46.1015 27.4804C46.343 25.2671 46.4616 23.0425 46.4567 20.8165C46.4616 18.5905 46.343 16.3659 46.1015 14.1526C46.0012 13.1208 45.6768 12.1223 45.1504 11.2247C44.624 10.327 43.9078 9.5512 43.0504 8.94976Z" fill="url(#paint7_radial_2002_20990)"/>
<path fill-rule="evenodd" clip-rule="evenodd" d="M40.7108 12.0825C39.0021 10.8538 37.2261 9.71859 35.3908 8.68194C33.5612 7.63546 31.6745 6.68882 29.7394 5.84632C29.2818 5.63213 28.7815 5.521 28.2748 5.521C27.7681 5.521 27.2678 5.63213 26.8102 5.84632C22.9422 7.54274 19.2651 9.63286 15.8388 12.0825C15.4216 12.3656 15.0737 12.7366 14.8204 13.1685C14.567 13.6005 14.4146 14.0826 14.3742 14.5799C13.9325 18.726 13.9325 22.9062 14.3742 27.0522C14.4146 27.5495 14.567 28.0316 14.8203 28.4636C15.0737 28.8956 15.4216 29.2666 15.8388 29.5496C19.2651 31.9993 22.9422 34.0894 26.8102 35.7858C27.2678 36 27.7681 36.1112 28.2748 36.1112C28.7815 36.1112 29.2818 36 29.7394 35.7858C31.6746 34.9433 33.5612 33.9967 35.3908 32.9502C37.2261 31.9135 39.0021 30.7783 40.7108 29.5496C41.128 29.2666 41.476 28.8956 41.7293 28.4636C41.9827 28.0317 42.1351 27.5495 42.1754 27.0523C42.4019 24.9811 42.5125 22.8992 42.5067 20.8161C42.5125 18.7329 42.4019 16.6511 42.1754 14.5799C42.1351 14.0826 41.9827 13.6005 41.7293 13.1685C41.476 12.7366 41.128 12.3656 40.7108 12.0825Z" fill="url(#paint8_radial_2002_20990)"/>
<path fill-rule="evenodd" clip-rule="evenodd" d="M26.7811 34.7542C22.8423 33.0267 19.0978 30.8984 15.6088 28.4039C15.0395 28.015 14.6005 27.4683 14.3477 26.8331C14.3556 26.9062 14.3637 26.9794 14.3719 27.0525C14.4122 27.5497 14.5646 28.0319 14.8179 28.4638C15.0713 28.8958 15.4192 29.2668 15.8364 29.5499C19.2627 31.9995 22.9399 34.0896 26.8079 35.786C27.2654 36.0002 27.7657 36.1114 28.2724 36.1114C28.7791 36.1114 29.2794 36.0002 29.737 35.786C31.6722 34.9436 33.5588 33.9969 35.3884 32.9504C37.2237 31.9138 38.9998 30.7785 40.7085 29.5499C41.1257 29.2669 41.4736 28.8959 41.7269 28.4639C41.9803 28.0319 42.1327 27.5498 42.1731 27.0525C42.1812 26.9794 42.1892 26.9063 42.1972 26.8331C41.9444 27.4683 41.5054 28.0151 40.936 28.4039C39.196 29.6551 37.3875 30.8111 35.5186 31.8667C33.6555 32.9323 31.7344 33.8963 29.7638 34.7542C29.2978 34.9723 28.7884 35.0855 28.2724 35.0855C27.7565 35.0855 27.247 34.9723 26.7811 34.7542Z" fill="url(#paint9_linear_2002_20990)"/>
<defs>
<radialGradient id="paint0_radial_2002_20990" cx="0" cy="0" r="1" gradientUnits="userSpaceOnUse" gradientTransform="translate(54.0234 22.2341) scale(7.96076 7.83737)">
<stop stop-color="#FFDA00"/>
<stop offset="1" stop-color="#E57900"/>
</radialGradient>
<radialGradient id="paint1_radial_2002_20990" cx="0" cy="0" r="1" gradientUnits="userSpaceOnUse" gradientTransform="translate(55.5397 18.3652) scale(9.10125 8.96018)">
<stop stop-color="#FFDA00"/>
<stop offset="1" stop-color="#E57900"/>
</radialGradient>
<radialGradient id="paint2_radial_2002_20990" cx="0" cy="0" r="1" gradientUnits="userSpaceOnUse" gradientTransform="translate(54.3486 9.16798) scale(10.8094 10.6418)">
<stop stop-color="#FFDA00"/>
<stop offset="1" stop-color="#E57900"/>
</radialGradient>
<radialGradient id="paint3_radial_2002_20990" cx="0" cy="0" r="1" gradientUnits="userSpaceOnUse" gradientTransform="translate(2.52427 22.2341) rotate(180) scale(7.96077 7.83737)">
<stop stop-color="#FFDA00"/>
<stop offset="1" stop-color="#E57900"/>
</radialGradient>
<radialGradient id="paint4_radial_2002_20990" cx="0" cy="0" r="1" gradientUnits="userSpaceOnUse" gradientTransform="translate(1.00758 18.3652) rotate(180) scale(9.10125 8.96018)">
<stop stop-color="#FFDA00"/>
<stop offset="1" stop-color="#E57900"/>
</radialGradient>
<radialGradient id="paint5_radial_2002_20990" cx="0" cy="0" r="1" gradientUnits="userSpaceOnUse" gradientTransform="translate(2.19858 9.16798) rotate(180) scale(10.8094 10.6418)">
<stop stop-color="#FFDA00"/>
<stop offset="1" stop-color="#E57900"/>
</radialGradient>
<linearGradient id="paint6_linear_2002_20990" x1="10.668" y1="6.49109" x2="45.8815" y2="6.49109" gradientUnits="userSpaceOnUse">
<stop stop-color="#FFC560"/>
<stop offset="0.00555" stop-color="#FFC661"/>
<stop offset="0.13444" stop-color="#FFD96D"/>
<stop offset="0.22381" stop-color="#FFE071"/>
<stop offset="0.49416" stop-color="#FFFFB3"/>
<stop offset="0.50643" stop-color="#FFED99"/>
<stop offset="0.52611" stop-color="#FED677"/>
<stop offset="0.54789" stop-color="#FEC25A"/>
<stop offset="0.57189" stop-color="#FEB142"/>
<stop offset="0.59905" stop-color="#FDA530"/>
<stop offset="0.6312" stop-color="#FD9C23"/>
<stop offset="0.67319" stop-color="#FD961B"/>
<stop offset="0.76191" stop-color="#FD9519"/>
<stop offset="1" stop-color="#AB3911"/>
</linearGradient>
<radialGradient id="paint7_radial_2002_20990" cx="0" cy="0" r="1" gradientUnits="userSpaceOnUse" gradientTransform="translate(16.2171 0.984172) scale(47.8239 47.0826)">
<stop stop-color="#FFC46B"/>
<stop offset="1" stop-color="#F68300"/>
</radialGradient>
<radialGradient id="paint8_radial_2002_20990" cx="0" cy="0" r="1" gradientUnits="userSpaceOnUse" gradientTransform="translate(19.5801 4.64725) scale(36.5167 35.9507)">
<stop stop-color="#FFBD5B"/>
<stop offset="1" stop-color="#E57900"/>
</radialGradient>
<linearGradient id="paint9_linear_2002_20990" x1="14.3477" y1="31.4723" x2="42.1972" y2="31.4723" gradientUnits="userSpaceOnUse">
<stop stop-color="#E7620C"/>
<stop offset="0.2381" stop-color="#FF9700"/>
<stop offset="0.32444" stop-color="#FF9802"/>
<stop offset="0.3653" stop-color="#FF9D0A"/>
<stop offset="0.3966" stop-color="#FFA517"/>
<stop offset="0.42304" stop-color="#FFB029"/>
<stop offset="0.44641" stop-color="#FFBE41"/>
<stop offset="0.46759" stop-color="#FFD05E"/>
<stop offset="0.48674" stop-color="#FFE580"/>
<stop offset="0.50454" stop-color="#FFFDA8"/>
<stop offset="0.50584" stop-color="#FFFFAB"/>
<stop offset="0.77619" stop-color="#FFDD61"/>
<stop offset="0.85945" stop-color="#FFD65D"/>
<stop offset="0.97953" stop-color="#FFC351"/>
<stop offset="1" stop-color="#FFBF4E"/>
</linearGradient>
</defs>
</svg>
