<svg width="60" height="40" viewBox="0 0 60 40" fill="none" xmlns="http://www.w3.org/2000/svg">
<g id="Frame 1171276215">
<g id="Layer 1">
<path id="Vector" fill-rule="evenodd" clip-rule="evenodd" d="M47.5235 23.9131L47.5234 28.6641C49.7984 28.2749 51.6896 27.8284 53.1627 26.7249C54.3268 25.8529 55.486 22.4745 55.3764 21.0216C53.0527 21.0432 50.7665 21.601 48.7013 22.65C48.2208 22.9825 47.819 23.4134 47.5235 23.9131Z" fill="url(#paint0_radial_2206_1303)"/>
<path id="Vector_2" fill-rule="evenodd" clip-rule="evenodd" d="M47.5235 18.6275L47.5234 23.2453C50.2578 22.7775 52.7946 22.4546 54.5654 21.1281C55.9647 20.0799 57.0944 16.8983 56.9626 15.1519C54.9864 15.0423 50.9145 15.9095 48.9392 17.1093C48.3616 17.5089 47.8786 18.0268 47.5235 18.6275Z" fill="url(#paint1_radial_2206_1303)"/>
<path id="Vector_3" fill-rule="evenodd" clip-rule="evenodd" d="M47.5234 13.3443L47.5361 17.8228C50.7294 17.2764 53.6921 16.8994 55.7601 15.3502C56.6408 14.5965 57.3458 13.6644 57.8268 12.6176C58.3078 11.5709 58.5534 10.4342 58.547 9.28534C56.239 9.15722 51.4836 10.1701 49.1768 11.5712C48.5022 12.0379 47.9382 12.6428 47.5234 13.3443Z" fill="url(#paint2_radial_2206_1303)"/>
<path id="Vector_4" fill-rule="evenodd" clip-rule="evenodd" d="M13.0242 23.9131L13.0243 28.6641C10.7494 28.2749 8.85813 27.8284 7.38499 26.7249C6.22093 25.8529 5.06173 22.4745 5.17126 21.0216C7.49501 21.0432 9.78125 21.601 11.8464 22.65C12.3269 22.9825 12.7287 23.4134 13.0242 23.9131Z" fill="url(#paint3_radial_2206_1303)"/>
<path id="Vector_5" fill-rule="evenodd" clip-rule="evenodd" d="M13.0238 18.6275L13.0238 23.2453C10.2894 22.7775 7.75262 22.4546 5.98182 21.1281C4.58255 20.0799 3.45295 16.8983 3.58468 15.1519C5.56088 15.0423 9.63275 15.9095 11.608 17.1093C12.1857 17.5089 12.6686 18.0268 13.0238 18.6275Z" fill="url(#paint4_radial_2206_1303)"/>
<path id="Vector_6" fill-rule="evenodd" clip-rule="evenodd" d="M13.0237 13.3443L13.0111 17.8228C9.81766 17.2764 6.85506 16.8994 4.78699 15.3502C3.90629 14.5965 3.20133 13.6644 2.72034 12.6176C2.23935 11.5709 1.99368 10.4342 2.00012 9.28534C4.30806 9.15722 9.06346 10.1701 11.3703 11.5712C12.0449 12.0379 12.6089 12.6428 13.0237 13.3443Z" fill="url(#paint5_radial_2206_1303)"/>
<path id="Vector_7" fill-rule="evenodd" clip-rule="evenodd" d="M47.8815 12.9822L47.3533 11.0108C47.0527 9.87289 46.4601 8.8301 45.6325 7.98243C44.3126 6.65939 41.682 5.09515 40.0315 4.11709C37.8407 2.81986 35.5707 1.65702 33.2344 0.635176C32.3056 0.216641 31.2962 0 30.2748 0C29.2533 0 28.2439 0.216641 27.3152 0.635176C24.9789 1.65703 22.7088 2.81988 20.518 4.11709C18.8679 5.0947 16.2365 6.65985 14.917 7.98243C14.0894 8.8301 13.4969 9.87289 13.1962 11.0108L12.668 12.9822H47.8815Z" fill="url(#paint6_linear_2206_1303)"/>
<path id="Vector_8" fill-rule="evenodd" clip-rule="evenodd" d="M45.0504 8.94951C43.2242 7.63697 41.3266 6.42356 39.366 5.31468C37.4103 4.19756 35.3941 3.18638 33.3264 2.28564C32.3686 1.85529 31.3281 1.63257 30.2753 1.63257C29.2225 1.63257 28.1819 1.85529 27.2241 2.28564C23.0901 4.09693 19.1605 6.33046 15.5002 8.94951C14.6427 9.55095 13.9265 10.3267 13.4001 11.2244C12.8737 12.122 12.5493 13.1205 12.449 14.1523C11.9753 18.5827 11.9753 23.0498 12.449 27.4802C12.5493 28.5119 12.8737 29.5105 13.4001 30.4081C13.9265 31.3057 14.6427 32.0815 15.5002 32.683C19.1605 35.302 23.09 37.5355 27.2241 39.3469C28.1819 39.7773 29.2224 40 30.2753 40C31.3281 40 32.3686 39.7773 33.3264 39.3469C35.3941 38.4461 37.4103 37.4349 39.366 36.3178C41.3266 35.209 43.2242 33.9955 45.0504 32.683C45.9078 32.0816 46.624 31.3058 47.1504 30.4081C47.6768 29.5105 48.0012 28.5119 48.1015 27.4802C48.343 25.2669 48.4616 23.0423 48.4567 20.8163C48.4616 18.5903 48.343 16.3657 48.1015 14.1524C48.0012 13.1206 47.6768 12.1221 47.1504 11.2244C46.624 10.3268 45.9078 9.55095 45.0504 8.94951Z" fill="url(#paint7_radial_2206_1303)"/>
<path id="Vector_9" fill-rule="evenodd" clip-rule="evenodd" d="M42.7108 12.0828C41.0021 10.8541 39.2261 9.71884 37.3908 8.68219C35.5612 7.6357 33.6745 6.68907 31.7394 5.84657C31.2818 5.63237 30.7815 5.52124 30.2748 5.52124C29.7681 5.52124 29.2678 5.63237 28.8102 5.84657C24.9422 7.54299 21.2651 9.6331 17.8388 12.0828C17.4216 12.3658 17.0737 12.7368 16.8204 13.1688C16.567 13.6008 16.4146 14.0829 16.3742 14.5801C15.9325 18.7262 15.9325 22.9064 16.3742 27.0525C16.4146 27.5497 16.567 28.0319 16.8203 28.4639C17.0737 28.8958 17.4216 29.2668 17.8388 29.5499C21.2651 31.9995 24.9422 34.0896 28.8102 35.786C29.2678 36.0003 29.7681 36.1114 30.2748 36.1114C30.7815 36.1114 31.2818 36.0003 31.7394 35.786C33.6746 34.9436 35.5612 33.9969 37.3908 32.9504C39.2261 31.9138 41.0021 30.7786 42.7108 29.5499C43.128 29.2669 43.476 28.8959 43.7293 28.4639C43.9827 28.0319 44.1351 27.5498 44.1754 27.0525C44.4019 24.9814 44.5125 22.8995 44.5067 20.8163C44.5125 18.7332 44.4019 16.6513 44.1754 14.5801C44.1351 14.0829 43.9827 13.6008 43.7293 13.1688C43.476 12.7368 43.128 12.3658 42.7108 12.0828Z" fill="url(#paint8_radial_2206_1303)"/>
<path id="Vector_10" fill-rule="evenodd" clip-rule="evenodd" d="M28.7811 34.7542C24.8423 33.0267 21.0978 30.8984 17.6088 28.4039C17.0395 28.015 16.6005 27.4683 16.3477 26.8331C16.3556 26.9062 16.3637 26.9794 16.3719 27.0525C16.4122 27.5497 16.5646 28.0319 16.8179 28.4638C17.0713 28.8958 17.4192 29.2668 17.8364 29.5499C21.2627 31.9995 24.9399 34.0896 28.8079 35.786C29.2654 36.0002 29.7657 36.1114 30.2724 36.1114C30.7791 36.1114 31.2794 36.0002 31.737 35.786C33.6722 34.9436 35.5588 33.9969 37.3884 32.9504C39.2237 31.9138 40.9998 30.7785 42.7085 29.5499C43.1257 29.2669 43.4736 28.8959 43.7269 28.4639C43.9803 28.0319 44.1327 27.5498 44.1731 27.0525C44.1812 26.9794 44.1892 26.9063 44.1972 26.8331C43.9444 27.4683 43.5054 28.0151 42.936 28.4039C41.196 29.6551 39.3875 30.8111 37.5186 31.8667C35.6555 32.9323 33.7344 33.8963 31.7638 34.7542C31.2978 34.9723 30.7884 35.0855 30.2724 35.0855C29.7565 35.0855 29.247 34.9723 28.7811 34.7542Z" fill="url(#paint9_linear_2206_1303)"/>
<path id="Star 22" opacity="0.5" d="M30 13L31.7961 18.5279H37.6085L32.9062 21.9443L34.7023 27.4721L30 24.0557L25.2977 27.4721L27.0938 21.9443L22.3915 18.5279H28.2039L30 13Z" fill="white"/>
</g>
</g>
<defs>
<radialGradient id="paint0_radial_2206_1303" cx="0" cy="0" r="1" gradientUnits="userSpaceOnUse" gradientTransform="translate(56.0234 22.2343) scale(7.96076 7.83737)">
<stop stop-color="#FFDA00"/>
<stop offset="1" stop-color="#E57900"/>
</radialGradient>
<radialGradient id="paint1_radial_2206_1303" cx="0" cy="0" r="1" gradientUnits="userSpaceOnUse" gradientTransform="translate(57.5397 18.3652) scale(9.10125 8.96018)">
<stop stop-color="#FFDA00"/>
<stop offset="1" stop-color="#E57900"/>
</radialGradient>
<radialGradient id="paint2_radial_2206_1303" cx="0" cy="0" r="1" gradientUnits="userSpaceOnUse" gradientTransform="translate(56.3486 9.16798) scale(10.8094 10.6418)">
<stop stop-color="#FFDA00"/>
<stop offset="1" stop-color="#E57900"/>
</radialGradient>
<radialGradient id="paint3_radial_2206_1303" cx="0" cy="0" r="1" gradientUnits="userSpaceOnUse" gradientTransform="translate(4.52427 22.2343) rotate(180) scale(7.96077 7.83737)">
<stop stop-color="#FFDA00"/>
<stop offset="1" stop-color="#E57900"/>
</radialGradient>
<radialGradient id="paint4_radial_2206_1303" cx="0" cy="0" r="1" gradientUnits="userSpaceOnUse" gradientTransform="translate(3.00758 18.3652) rotate(180) scale(9.10125 8.96018)">
<stop stop-color="#FFDA00"/>
<stop offset="1" stop-color="#E57900"/>
</radialGradient>
<radialGradient id="paint5_radial_2206_1303" cx="0" cy="0" r="1" gradientUnits="userSpaceOnUse" gradientTransform="translate(4.19858 9.16798) rotate(180) scale(10.8094 10.6418)">
<stop stop-color="#FFDA00"/>
<stop offset="1" stop-color="#E57900"/>
</radialGradient>
<linearGradient id="paint6_linear_2206_1303" x1="12.668" y1="6.49109" x2="47.8815" y2="6.49109" gradientUnits="userSpaceOnUse">
<stop stop-color="#FFC560"/>
<stop offset="0.00555" stop-color="#FFC661"/>
<stop offset="0.13444" stop-color="#FFD96D"/>
<stop offset="0.22381" stop-color="#FFE071"/>
<stop offset="0.49416" stop-color="#FFFFB3"/>
<stop offset="0.50643" stop-color="#FFED99"/>
<stop offset="0.52611" stop-color="#FED677"/>
<stop offset="0.54789" stop-color="#FEC25A"/>
<stop offset="0.57189" stop-color="#FEB142"/>
<stop offset="0.59905" stop-color="#FDA530"/>
<stop offset="0.6312" stop-color="#FD9C23"/>
<stop offset="0.67319" stop-color="#FD961B"/>
<stop offset="0.76191" stop-color="#FD9519"/>
<stop offset="1" stop-color="#AB3911"/>
</linearGradient>
<radialGradient id="paint7_radial_2206_1303" cx="0" cy="0" r="1" gradientUnits="userSpaceOnUse" gradientTransform="translate(18.2171 0.983928) scale(47.8239 47.0826)">
<stop stop-color="#FFC46B"/>
<stop offset="1" stop-color="#F68300"/>
</radialGradient>
<radialGradient id="paint8_radial_2206_1303" cx="0" cy="0" r="1" gradientUnits="userSpaceOnUse" gradientTransform="translate(21.5801 4.64749) scale(36.5167 35.9507)">
<stop stop-color="#FFBD5B"/>
<stop offset="1" stop-color="#E57900"/>
</radialGradient>
<linearGradient id="paint9_linear_2206_1303" x1="16.3477" y1="31.4723" x2="44.1972" y2="31.4723" gradientUnits="userSpaceOnUse">
<stop stop-color="#E7620C"/>
<stop offset="0.2381" stop-color="#FF9700"/>
<stop offset="0.32444" stop-color="#FF9802"/>
<stop offset="0.3653" stop-color="#FF9D0A"/>
<stop offset="0.3966" stop-color="#FFA517"/>
<stop offset="0.42304" stop-color="#FFB029"/>
<stop offset="0.44641" stop-color="#FFBE41"/>
<stop offset="0.46759" stop-color="#FFD05E"/>
<stop offset="0.48674" stop-color="#FFE580"/>
<stop offset="0.50454" stop-color="#FFFDA8"/>
<stop offset="0.50584" stop-color="#FFFFAB"/>
<stop offset="0.77619" stop-color="#FFDD61"/>
<stop offset="0.85945" stop-color="#FFD65D"/>
<stop offset="0.97953" stop-color="#FFC351"/>
<stop offset="1" stop-color="#FFBF4E"/>
</linearGradient>
</defs>
</svg>
