<svg width="177" height="90" viewBox="0 0 177 90" fill="none" xmlns="http://www.w3.org/2000/svg">
<g clip-path="url(#clip0_1410_25601)">
<path d="M164.302 0.293945H12.6969C11.068 0.293942 9.45502 0.614893 7.9501 1.23848C6.44518 1.86206 5.07779 2.77606 3.92597 3.9283C2.77416 5.08053 1.86049 6.44843 1.23714 7.9539C0.613791 9.45936 0.292958 11.0729 0.292969 12.7024V77.2265C0.292961 78.856 0.61379 80.4696 1.23714 81.9751C1.8605 83.4805 2.77416 84.8484 3.92597 86.0007C5.07779 87.1529 6.44518 88.0669 7.9501 88.6905C9.45502 89.3141 11.068 89.6351 12.6969 89.6351H71.0169H81.4628H91.9087H164.302C167.591 89.6351 170.746 88.3277 173.073 86.0007C175.399 83.6736 176.706 80.5175 176.706 77.2265V12.7024C176.706 11.0729 176.385 9.45936 175.761 7.95389C175.138 6.44842 174.224 5.08052 173.073 3.92829C171.921 2.77605 170.553 1.86205 169.048 1.23847C167.543 0.614887 165.931 0.293939 164.302 0.293945Z" fill="#3D2644" stroke="#533E59" stroke-width="1.5721" stroke-miterlimit="10"/>
<path d="M88.481 38.9115C95.6382 38.9115 101.449 33.1109 101.459 25.9555C101.47 18.8001 95.6761 12.9995 88.5189 12.9995C81.3616 12.9995 75.5511 18.8001 75.5406 25.9555C75.5302 33.1109 81.3238 38.9115 88.481 38.9115Z" fill="#533E59"/>
<path d="M88.0775 44.9121H70.9219V47.9708H88.0775V44.9121Z" fill="#8EC9ED"/>
<path d="M106.077 44.9116H91.0771V47.9716H106.077V44.9116Z" fill="#8EC9ED"/>
<rect x="35" y="56.4717" width="107" height="21" rx="3.5" stroke="#533E59"/>
<path d="M46.833 68.6385H43.4997C43.3108 68.6385 43.1525 68.5746 43.0247 68.4468C42.8969 68.3191 42.833 68.1607 42.833 67.9718C42.833 67.783 42.8969 66.6246 43.0247 66.4968C43.1525 66.3691 43.3108 66.3052 43.4997 66.3052H46.833V62.9718C46.833 62.783 46.8969 62.6246 47.0247 62.4968C47.1525 62.3691 47.3108 62.3052 47.4997 62.3052C47.6886 62.3052 48.8469 62.3691 48.9747 62.4968C49.1025 62.6246 49.1663 62.783 49.1663 62.9718V66.3052H52.4997C52.6886 66.3052 52.8469 66.3691 52.9747 66.4968C53.1025 66.6246 53.1663 66.783 53.1663 67.9718C53.1663 68.1607 53.1025 68.3191 52.9747 68.4468C52.8469 68.5746 52.6886 68.6385 52.4997 68.6385H49.1663V71.9718C49.1663 72.1607 49.1025 72.3191 48.9747 72.4468C48.8469 72.5746 47.6886 72.6385 47.4997 72.6385C47.3108 72.6385 47.1525 72.5746 47.0247 72.4468C46.8969 72.3191 46.833 72.1607 46.833 71.9718V68.6385Z" fill="#FDEB56"/>
<path d="M131.921 65.4424H61.5V68.5011H131.921V65.4424Z" fill="#68566E"/>
</g>
<defs>
<clipPath id="clip0_1410_25601">
<rect width="177" height="90" fill="white"/>
</clipPath>
</defs>
</svg>
