<svg width="26" height="26" viewBox="0 0 26 26" fill="none" xmlns="http://www.w3.org/2000/svg">
<g id="location">
<g id="focus">
<path id="Vector" d="M24.6666 12.1249H22.3916C22.1685 9.93408 21.1872 7.88996 19.6173 6.34562C18.0474 4.80129 15.9875 3.85372 13.7933 3.66659V1.33325C13.7933 1.10119 13.7011 0.878628 13.537 0.714534C13.3729 0.550439 13.1503 0.458252 12.9183 0.458252C12.6862 0.458252 12.4636 0.550439 12.2995 0.714534C12.1354 0.878628 12.0433 1.10119 12.0433 1.33325V3.66659C9.88797 3.9 7.87874 4.86825 6.35326 6.4086C4.82779 7.94894 3.87908 9.96747 3.66659 12.1249H1.33325C1.10119 12.1249 0.878628 12.2171 0.714534 12.3812C0.550439 12.5453 0.458252 12.7679 0.458252 12.9999C0.458252 13.232 0.550439 13.4545 0.714534 13.6186C0.878628 13.7827 1.10119 13.8749 1.33325 13.8749H3.66659C3.87908 16.0324 4.82779 18.0509 6.35326 19.5912C7.87874 21.1316 9.88797 22.0998 12.0433 22.3333V24.6666C12.0433 24.8986 12.1354 25.1212 12.2995 25.2853C12.4636 25.4494 12.6862 25.5416 12.9183 25.5416C13.1503 25.5416 13.3729 25.4494 13.537 25.2853C13.7011 25.1212 13.7933 24.8986 13.7933 24.6666V22.3916C15.9965 22.2023 18.0635 21.2464 19.6346 19.6902C21.2057 18.1341 22.1813 16.0762 22.3916 13.8749H24.6666C24.8986 13.8749 25.1212 13.7827 25.2853 13.6186C25.4494 13.4545 25.5416 13.232 25.5416 12.9999C25.5416 12.7679 25.4494 12.5453 25.2853 12.3812C25.1212 12.2171 24.8986 12.1249 24.6666 12.1249ZM12.9999 20.6766C11.4821 20.6743 9.99906 20.2221 8.73817 19.3772C7.47729 18.5322 6.49517 17.3325 5.91593 15.9296C5.33669 14.5266 5.18633 12.9835 5.48385 11.4951C5.78137 10.0068 6.51342 8.64002 7.58749 7.56758C8.66155 6.49515 10.0294 5.76518 11.5182 5.46991C13.007 5.17465 14.55 5.32736 15.952 5.90873C17.3541 6.4901 18.5523 7.47404 19.3953 8.73621C20.2383 9.99837 20.6882 11.4821 20.6883 12.9999C20.6852 15.037 19.8738 16.9895 18.4323 18.4289C16.9908 19.8682 15.037 20.6766 12.9999 20.6766Z" fill="url(#paint0_linear_1104_3336)"/>
<path id="Vector_2" d="M12.9182 17.5499C15.4311 17.5499 17.4682 15.5128 17.4682 13C17.4682 10.4871 15.4311 8.44995 12.9182 8.44995C10.4053 8.44995 8.36816 10.4871 8.36816 13C8.36816 15.5128 10.4053 17.5499 12.9182 17.5499Z" fill="url(#paint1_linear_1104_3336)"/>
</g>
</g>
<defs>
<linearGradient id="paint0_linear_1104_3336" x1="0.458252" y1="0.458252" x2="27.5566" y2="2.86636" gradientUnits="userSpaceOnUse">
<stop stop-color="#F71756"/>
<stop offset="1" stop-color="#FDEB56"/>
</linearGradient>
<linearGradient id="paint1_linear_1104_3336" x1="8.36816" y1="8.44995" x2="18.1992" y2="9.32359" gradientUnits="userSpaceOnUse">
<stop stop-color="#F71756"/>
<stop offset="1" stop-color="#FDEB56"/>
</linearGradient>
</defs>
</svg>
