<svg width="18" height="19" viewBox="0 0 18 19" fill="none" xmlns="http://www.w3.org/2000/svg">
<path d="M11.625 8.91675C11.625 10.3665 10.4497 11.5417 9 11.5417C7.55025 11.5417 6.375 10.3665 6.375 8.91675C6.375 7.467 7.55025 6.29175 9 6.29175C10.4497 6.29175 11.625 7.467 11.625 8.91675Z" stroke="white" stroke-opacity="0.7"/>
<path d="M9 2.16675C12.653 2.16675 15.75 5.19148 15.75 8.8611C15.75 12.5891 12.6025 15.2053 9.69525 16.9843C9.48338 17.1039 9.24375 17.1667 9 17.1667C8.75625 17.1667 8.51662 17.1039 8.30475 16.9843C5.40292 15.1879 2.25 12.602 2.25 8.8611C2.25 5.19148 5.34708 2.16675 9 2.16675Z" stroke="white" stroke-opacity="0.7"/>
</svg>
