<svg width="52" height="40" viewBox="0 0 52 40" fill="none" xmlns="http://www.w3.org/2000/svg">
<path d="M40.8492 28.487V11.0161L25.5252 2.28052L10.2012 11.0161V28.487L25.5252 37.2226L40.8492 28.487Z" fill="#7E6E83"/>
<path d="M25.5249 39.4045L8.28711 29.5781V9.92518L25.5249 0.0986328L42.7628 9.92518V29.5781L25.5249 39.4045ZM12.1148 27.3961L25.5249 35.0406L38.9351 27.3961V12.1071L25.5249 4.46258L12.1148 12.1071V27.3961Z" fill="#533E59"/>
<path d="M25.5249 0.0986328V4.46253L12.1147 12.1072L8.28711 9.92513L25.5249 0.0986328Z" fill="#3D2644"/>
<path d="M42.7632 29.5783L38.9356 27.3962L25.5254 35.0407V39.4046L42.7632 29.5783Z" fill="#3D2644"/>
<path d="M8.28711 29.5783L12.1147 27.3962L25.5249 35.0407V39.4046L8.28711 29.5783Z" fill="#68566E"/>
<path d="M25.5254 0.0986328V4.46253L38.9356 12.1072L42.7632 9.92513L25.5254 0.0986328Z" fill="#68566E"/>
</svg>
