<svg width="24" height="24" viewBox="0 0 24 24" fill="none" xmlns="http://www.w3.org/2000/svg">
<circle cx="12" cy="12" r="12" fill="#3D2644"/>
<path d="M10.8337 13.5003L9.04199 11.7087C8.88921 11.5559 8.69477 11.4795 8.45866 11.4795C8.22255 11.4795 8.0281 11.5559 7.87533 11.7087C7.72255 11.8614 7.64616 12.0559 7.64616 12.292C7.64616 12.5281 7.72255 12.7225 7.87533 12.8753L10.2503 15.2503C10.417 15.417 10.6114 15.5003 10.8337 15.5003C11.0559 15.5003 11.2503 15.417 11.417 15.2503L16.1253 10.542C16.2781 10.3892 16.3545 10.1948 16.3545 9.95866C16.3545 9.72255 16.2781 9.5281 16.1253 9.37533C15.9725 9.22255 15.7781 9.14616 15.542 9.14616C15.3059 9.14616 15.1114 9.22255 14.9587 9.37533L10.8337 13.5003ZM12.0003 20.3337C10.8475 20.3337 9.76421 20.1149 8.75033 19.6774C7.73644 19.2399 6.85449 18.6462 6.10449 17.8962C5.35449 17.1462 4.76074 16.2642 4.32324 15.2503C3.88574 14.2364 3.66699 13.1531 3.66699 12.0003C3.66699 10.8475 3.88574 9.76421 4.32324 8.75033C4.76074 7.73644 5.35449 6.85449 6.10449 6.10449C6.85449 5.35449 7.73644 4.76074 8.75033 4.32324C9.76421 3.88574 10.8475 3.66699 12.0003 3.66699C13.1531 3.66699 14.2364 3.88574 15.2503 4.32324C16.2642 4.76074 17.1462 5.35449 17.8962 6.10449C18.6462 6.85449 19.2399 7.73644 19.6774 8.75033C20.1149 9.76421 20.3337 10.8475 20.3337 12.0003C20.3337 13.1531 20.1149 14.2364 19.6774 15.2503C19.2399 16.2642 18.6462 17.1462 17.8962 17.8962C17.1462 18.6462 16.2642 19.2399 15.2503 19.6774C14.2364 20.1149 13.1531 20.3337 12.0003 20.3337Z" fill="#1FD031"/>
</svg>
