<svg width="60" height="60" viewBox="0 0 60 60" fill="none" xmlns="http://www.w3.org/2000/svg">
<rect width="60" height="60" rx="30" fill="#8EC9ED"/>
<rect x="0.5" y="0.5" width="59" height="59" rx="29.5" stroke="url(#paint0_linear_1401_10392)" stroke-opacity="0.3"/>
<path fill-rule="evenodd" clip-rule="evenodd" d="M30 13.5C29.138 13.4994 28.3022 13.7958 27.6331 14.3393C26.9641 14.8828 26.5027 15.6402 26.3266 16.4839C26.1505 17.3277 26.2705 18.2064 26.6664 18.9721C27.0622 19.7378 27.7097 20.3438 28.5 20.688V23.6295C24.8302 23.6535 22.1137 23.7608 20.2448 23.8695C17.8088 24.0128 15.8363 25.8263 15.6293 28.3095C15.4928 29.9505 15.375 32.2388 15.375 35.25C15.375 38.262 15.4928 40.5495 15.63 42.1905C15.8363 44.6738 17.8088 46.4873 20.2448 46.6305C22.3597 46.7542 25.5608 46.875 30 46.875C34.4393 46.875 37.6402 46.7542 39.7552 46.6297C42.1912 46.4873 44.1637 44.6737 44.3708 42.1897C44.5072 40.5495 44.625 38.262 44.625 35.25C44.625 32.238 44.5072 29.9505 44.37 28.3103C44.1637 25.8263 42.1912 24.0128 39.7552 23.8703C37.8862 23.7608 35.1698 23.6528 31.5 23.6303V20.688C32.2895 20.3432 32.9363 19.7371 33.3315 18.9716C33.7268 18.2061 33.8465 17.3279 33.6705 16.4845C33.4945 15.6412 33.0336 14.8841 32.3651 14.3406C31.6967 13.7971 30.8615 13.5003 30 13.5ZM26.25 31.5C26.25 31.1022 26.092 30.7206 25.8107 30.4393C25.5294 30.158 25.1478 30 24.75 30C24.3522 30 23.9706 30.158 23.6893 30.4393C23.408 30.7206 23.25 31.1022 23.25 31.5V32.25C23.25 32.6478 23.408 33.0294 23.6893 33.3107C23.9706 33.592 24.3522 33.75 24.75 33.75C25.1478 33.75 25.5294 33.592 25.8107 33.3107C26.092 33.0294 26.25 32.6478 26.25 32.25V31.5ZM35.25 30C34.8522 30 34.4706 30.158 34.1893 30.4393C33.908 30.7206 33.75 31.1022 33.75 31.5V32.25C33.75 32.6478 33.908 33.0294 34.1893 33.3107C34.4706 33.592 34.8522 33.75 35.25 33.75C35.6478 33.75 36.0294 33.592 36.3107 33.3107C36.592 33.0294 36.75 32.6478 36.75 32.25V31.5C36.75 31.1022 36.592 30.7206 36.3107 30.4393C36.0294 30.158 35.6478 30 35.25 30ZM24.471 37.9087C25.1955 37.2262 26.0197 37.5285 26.6903 38.0505C26.8027 38.1383 26.9955 38.2725 27.2715 38.412C27.8167 38.6887 28.71 39 30 39C31.29 39 32.1833 38.6887 32.7285 38.412C32.9334 38.3104 33.128 38.1893 33.3097 38.0505C33.9802 37.5285 34.8045 37.2255 35.529 37.908C36.1523 38.4967 36.1328 39.495 35.538 40.083L35.448 40.17C35.3745 40.2368 35.2755 40.3215 35.1517 40.4182C34.8186 40.6749 34.4617 40.8991 34.086 41.088C33.1523 41.5613 31.7962 42 30 42C28.2037 42 26.8477 41.5613 25.914 41.088C25.5383 40.8991 25.1814 40.6749 24.8483 40.4182C24.7464 40.3395 24.6479 40.2567 24.5527 40.17C23.9137 39.5835 23.7885 38.5522 24.471 37.9087Z" fill="#2A0D32"/>
<defs>
<linearGradient id="paint0_linear_1401_10392" x1="30" y1="0" x2="30" y2="60" gradientUnits="userSpaceOnUse">
<stop stop-color="white"/>
<stop offset="1" stop-color="white" stop-opacity="0"/>
</linearGradient>
</defs>
</svg>
