<svg width="18" height="18" viewBox="0 0 18 18" fill="none" xmlns="http://www.w3.org/2000/svg">
<path d="M5.25 10.125C5.5625 10.125 5.82812 10.0156 6.04687 9.79687C6.26562 9.57812 6.375 9.3125 6.375 9C6.375 8.6875 6.26562 8.42187 6.04687 8.20312C5.82812 7.98437 5.5625 7.875 5.25 7.875C4.9375 7.875 4.67187 7.98437 4.45312 8.20312C4.23437 8.42187 4.125 8.6875 4.125 9C4.125 9.3125 4.23437 9.57812 4.45312 9.79687C4.67187 10.0156 4.9375 10.125 5.25 10.125ZM9 10.125C9.3125 10.125 9.57812 10.0156 9.79687 9.79687C10.0156 9.57812 10.125 9.3125 10.125 9C10.125 8.6875 10.0156 8.42187 9.79687 8.20312C9.57812 7.98437 9.3125 7.875 9 7.875C8.6875 7.875 8.42187 7.98437 8.20312 8.20312C7.98437 8.42187 7.875 8.6875 7.875 9C7.875 9.3125 7.98437 9.57812 8.20312 9.79687C8.42187 10.0156 8.6875 10.125 9 10.125ZM12.75 10.125C13.0625 10.125 13.3281 10.0156 13.5469 9.79687C13.7656 9.57812 13.875 9.3125 13.875 9C13.875 8.6875 13.7656 8.42187 13.5469 8.20312C13.3281 7.98437 13.0625 7.875 12.75 7.875C12.4375 7.875 12.1719 7.98437 11.9531 8.20312C11.7344 8.42187 11.625 8.6875 11.625 9C11.625 9.3125 11.7344 9.57812 11.9531 9.79687C12.1719 10.0156 12.4375 10.125 12.75 10.125ZM9 16.5C7.9625 16.5 6.9875 16.3031 6.075 15.9094C5.1625 15.5156 4.36875 14.9812 3.69375 14.3062C3.01875 13.6312 2.48437 12.8375 2.09062 11.925C1.69687 11.0125 1.5 10.0375 1.5 9C1.5 7.9625 1.69687 6.9875 2.09062 6.075C2.48437 5.1625 3.01875 4.36875 3.69375 3.69375C4.36875 3.01875 5.1625 2.48437 6.075 2.09062C6.9875 1.69687 7.9625 1.5 9 1.5C10.0375 1.5 11.0125 1.69687 11.925 2.09062C12.8375 2.48437 13.6312 3.01875 14.3062 3.69375C14.9812 4.36875 15.5156 5.1625 15.9094 6.075C16.3031 6.9875 16.5 7.9625 16.5 9C16.5 10.0375 16.3031 11.0125 15.9094 11.925C15.5156 12.8375 14.9812 13.6312 14.3062 14.3062C13.6312 14.9812 12.8375 15.5156 11.925 15.9094C11.0125 16.3031 10.0375 16.5 9 16.5Z" fill="#FDEB56"/>
</svg>
