<svg width="24" height="24" viewBox="0 0 24 24" fill="none" xmlns="http://www.w3.org/2000/svg">
<circle cx="12" cy="12" r="12" fill="#3D2644"/>
<path d="M11.9993 13.167L14.416 15.5837C14.5688 15.7364 14.7632 15.8128 14.9993 15.8128C15.2355 15.8128 15.4299 15.7364 15.5827 15.5837C15.7355 15.4309 15.8118 15.2364 15.8118 15.0003C15.8118 14.7642 15.7355 14.5698 15.5827 14.417L13.166 12.0003L15.5827 9.58366C15.7355 9.43088 15.8118 9.23644 15.8118 9.00033C15.8118 8.76421 15.7355 8.56977 15.5827 8.41699C15.4299 8.26421 15.2355 8.18783 14.9993 8.18783C14.7632 8.18783 14.5688 8.26421 14.416 8.41699L11.9993 10.8337L9.58268 8.41699C9.4299 8.26421 9.23546 8.18783 8.99935 8.18783C8.76324 8.18783 8.56879 8.26421 8.41602 8.41699C8.26324 8.56977 8.18685 8.76421 8.18685 9.00033C8.18685 9.23644 8.26324 9.43088 8.41602 9.58366L10.8327 12.0003L8.41602 14.417C8.26324 14.5698 8.18685 14.7642 8.18685 15.0003C8.18685 15.2364 8.26324 15.4309 8.41602 15.5837C8.56879 15.7364 8.76324 15.8128 8.99935 15.8128C9.23546 15.8128 9.4299 15.7364 9.58268 15.5837L11.9993 13.167ZM11.9993 20.3337C10.8466 20.3337 9.76324 20.1149 8.74935 19.6774C7.73546 19.2399 6.85352 18.6462 6.10352 17.8962C5.35352 17.1462 4.75977 16.2642 4.32227 15.2503C3.88477 14.2364 3.66602 13.1531 3.66602 12.0003C3.66602 10.8475 3.88477 9.76421 4.32227 8.75033C4.75977 7.73644 5.35352 6.85449 6.10352 6.10449C6.85352 5.35449 7.73546 4.76074 8.74935 4.32324C9.76324 3.88574 10.8466 3.66699 11.9993 3.66699C13.1521 3.66699 14.2355 3.88574 15.2493 4.32324C16.2632 4.76074 17.1452 5.35449 17.8952 6.10449C18.6452 6.85449 19.2389 7.73644 19.6764 8.75033C20.1139 9.76421 20.3327 10.8475 20.3327 12.0003C20.3327 13.1531 20.1139 14.2364 19.6764 15.2503C19.2389 16.2642 18.6452 17.1462 17.8952 17.8962C17.1452 18.6462 16.2632 19.2399 15.2493 19.6774C14.2355 20.1149 13.1521 20.3337 11.9993 20.3337Z" fill="#F71756"/>
</svg>
