<svg width="24" height="24" viewBox="0 0 24 24" fill="none" xmlns="http://www.w3.org/2000/svg">
<circle cx="12" cy="12" r="11.5" fill="#3D2644" stroke="#776149"/>
<path d="M11.9577 17.0003C12.2493 17.0003 12.4959 16.8996 12.6973 16.6982C12.8987 16.4969 12.9993 16.2503 12.9993 15.9587C12.9993 15.667 12.8987 15.4205 12.6973 15.2191C12.4959 15.0177 12.2493 14.917 11.9577 14.917C11.666 14.917 11.4195 15.0177 11.2181 15.2191C11.0167 15.4205 10.916 15.667 10.916 15.9587C10.916 16.2503 11.0167 16.4969 11.2181 16.6982C11.4195 16.8996 11.666 17.0003 11.9577 17.0003ZM11.9993 20.3337C10.8466 20.3337 9.76324 20.1149 8.74935 19.6774C7.73546 19.2399 6.85352 18.6462 6.10352 17.8962C5.35352 17.1462 4.75977 16.2642 4.32227 15.2503C3.88477 14.2364 3.66602 13.1531 3.66602 12.0003C3.66602 10.8475 3.88477 9.76421 4.32227 8.75033C4.75977 7.73644 5.35352 6.85449 6.10352 6.10449C6.85352 5.35449 7.73546 4.76074 8.74935 4.32324C9.76324 3.88574 10.8466 3.66699 11.9993 3.66699C13.1521 3.66699 14.2355 3.88574 15.2493 4.32324C16.2632 4.76074 17.1452 5.35449 17.8952 6.10449C18.6452 6.85449 19.2389 7.73644 19.6764 8.75033C20.1139 9.76421 20.3327 10.8475 20.3327 12.0003C20.3327 13.1531 20.1139 14.2364 19.6764 15.2503C19.2389 16.2642 18.6452 17.1462 17.8952 17.8962C17.1452 18.6462 16.2632 19.2399 15.2493 19.6774C14.2355 20.1149 13.1521 20.3337 11.9993 20.3337ZM12.0827 8.41699C12.4299 8.41699 12.732 8.5281 12.9889 8.75033C13.2459 8.97255 13.3743 9.25033 13.3743 9.58366C13.3743 9.88921 13.2806 10.16 13.0931 10.3962C12.9056 10.6323 12.6938 10.8545 12.4577 11.0628C12.1382 11.3406 11.857 11.6462 11.6139 11.9795C11.3709 12.3128 11.2493 12.6878 11.2493 13.1045C11.2493 13.2989 11.3223 13.4621 11.4681 13.5941C11.6139 13.726 11.7841 13.792 11.9785 13.792C12.1868 13.792 12.3639 13.7225 12.5098 13.5837C12.6556 13.4448 12.7493 13.2712 12.791 13.0628C12.8466 12.7712 12.9716 12.5107 13.166 12.2816C13.3605 12.0524 13.5688 11.8337 13.791 11.6253C14.1105 11.3198 14.3848 10.9864 14.6139 10.6253C14.8431 10.2642 14.9577 9.86144 14.9577 9.41699C14.9577 8.70866 14.6695 8.1288 14.0931 7.67741C13.5167 7.22602 12.8466 7.00033 12.0827 7.00033C11.5549 7.00033 11.0514 7.11144 10.5723 7.33366C10.0931 7.55588 9.72852 7.89616 9.47852 8.35449C9.38129 8.52116 9.35004 8.69824 9.38477 8.88574C9.41949 9.07324 9.51324 9.2156 9.66602 9.31283C9.86046 9.42394 10.0618 9.45866 10.2702 9.41699C10.4785 9.37533 10.6521 9.25727 10.791 9.06283C10.9438 8.85449 11.1348 8.69477 11.3639 8.58366C11.5931 8.47255 11.8327 8.41699 12.0827 8.41699Z" fill="#68566E"/>
</svg>
