<svg width="18" height="18" viewBox="0 0 18 18" fill="none" xmlns="http://www.w3.org/2000/svg">
<path d="M7.95 10.35L6.3375 8.7375C6.2 8.6 6.025 8.53125 5.8125 8.53125C5.6 8.53125 5.425 8.6 5.2875 8.7375C5.15 8.875 5.08125 9.05 5.08125 9.2625C5.08125 9.475 5.15 9.65 5.2875 9.7875L7.425 11.925C7.575 12.075 7.75 12.15 7.95 12.15C8.15 12.15 8.325 12.075 8.475 11.925L12.7125 7.6875C12.85 7.55 12.9188 7.375 12.9188 7.1625C12.9188 6.95 12.85 6.775 12.7125 6.6375C12.575 6.5 12.4 6.43125 12.1875 6.43125C11.975 6.43125 11.8 6.5 11.6625 6.6375L7.95 10.35ZM9 16.5C7.9625 16.5 6.9875 16.3031 6.075 15.9094C5.1625 15.5156 4.36875 14.9813 3.69375 14.3063C3.01875 13.6313 2.48438 12.8375 2.09063 11.925C1.69688 11.0125 1.5 10.0375 1.5 9C1.5 7.9625 1.69688 6.9875 2.09063 6.075C2.48438 5.1625 3.01875 4.36875 3.69375 3.69375C4.36875 3.01875 5.1625 2.48438 6.075 2.09063C6.9875 1.69688 7.9625 1.5 9 1.5C10.0375 1.5 11.0125 1.69688 11.925 2.09063C12.8375 2.48438 13.6313 3.01875 14.3063 3.69375C14.9813 4.36875 15.5156 5.1625 15.9094 6.075C16.3031 6.9875 16.5 7.9625 16.5 9C16.5 10.0375 16.3031 11.0125 15.9094 11.925C15.5156 12.8375 14.9813 13.6313 14.3063 14.3063C13.6313 14.9813 12.8375 15.5156 11.925 15.9094C11.0125 16.3031 10.0375 16.5 9 16.5Z" fill="#1FD031"/>
</svg>
