<svg width="24" height="24" viewBox="0 0 24 24" fill="none" xmlns="http://www.w3.org/2000/svg">
<circle cx="12" cy="12" r="12" fill="#3D2644"/>
<path d="M10.8327 13.5003L9.04102 11.7087C8.88824 11.5559 8.69379 11.4795 8.45768 11.4795C8.22157 11.4795 8.02713 11.5559 7.87435 11.7087C7.72157 11.8614 7.64518 12.0559 7.64518 12.292C7.64518 12.5281 7.72157 12.7225 7.87435 12.8753L10.2493 15.2503C10.416 15.417 10.6105 15.5003 10.8327 15.5003C11.0549 15.5003 11.2493 15.417 11.416 15.2503L16.1243 10.542C16.2771 10.3892 16.3535 10.1948 16.3535 9.95866C16.3535 9.72255 16.2771 9.5281 16.1243 9.37533C15.9716 9.22255 15.7771 9.14616 15.541 9.14616C15.3049 9.14616 15.1105 9.22255 14.9577 9.37533L10.8327 13.5003ZM11.9993 20.3337C10.8466 20.3337 9.76324 20.1149 8.74935 19.6774C7.73546 19.2399 6.85352 18.6462 6.10352 17.8962C5.35352 17.1462 4.75977 16.2642 4.32227 15.2503C3.88477 14.2364 3.66602 13.1531 3.66602 12.0003C3.66602 10.8475 3.88477 9.76421 4.32227 8.75033C4.75977 7.73644 5.35352 6.85449 6.10352 6.10449C6.85352 5.35449 7.73546 4.76074 8.74935 4.32324C9.76324 3.88574 10.8466 3.66699 11.9993 3.66699C13.1521 3.66699 14.2355 3.88574 15.2493 4.32324C16.2632 4.76074 17.1452 5.35449 17.8952 6.10449C18.6452 6.85449 19.2389 7.73644 19.6764 8.75033C20.1139 9.76421 20.3327 10.8475 20.3327 12.0003C20.3327 13.1531 20.1139 14.2364 19.6764 15.2503C19.2389 16.2642 18.6452 17.1462 17.8952 17.8962C17.1452 18.6462 16.2632 19.2399 15.2493 19.6774C14.2355 20.1149 13.1521 20.3337 11.9993 20.3337Z" fill="#FDEB56"/>
</svg>
