<svg width="60" height="40" viewBox="0 0 60 40" fill="none" xmlns="http://www.w3.org/2000/svg">
<g id="Frame 1171276216">
<g id="Layer 1">
<path id="Vector" fill-rule="evenodd" clip-rule="evenodd" d="M47.8814 12.9822L47.3532 11.0109C47.0526 9.87291 46.46 8.83008 45.6324 7.98241C44.3126 6.65937 41.682 5.0952 40.0314 4.11706C37.8406 2.81986 35.5706 1.65702 33.2343 0.635149C32.3055 0.21663 31.2961 0 30.2747 0C29.2533 0 28.2439 0.21663 27.3151 0.635149C24.9788 1.657 22.7088 2.81985 20.518 4.11706C18.8678 5.09467 16.2364 6.65983 14.917 7.98241C14.0893 8.8301 13.4968 9.87292 13.1962 11.0109L12.668 12.9822H47.8814Z" fill="url(#paint0_linear_2206_1320)"/>
<path id="Vector_2" fill-rule="evenodd" clip-rule="evenodd" d="M45.0503 8.94958C41.3899 6.33055 37.4604 4.097 33.3264 2.28563C32.3686 1.85528 31.328 1.63257 30.2752 1.63257C29.2224 1.63257 28.1819 1.85528 27.2241 2.28563C23.0901 4.097 19.1605 6.33055 15.5002 8.94958C14.6427 9.551 13.9265 10.3268 13.4001 11.2244C12.8736 12.1221 12.5493 13.1206 12.449 14.1524C11.9753 18.5828 11.9753 23.0498 12.449 27.4802C12.5493 28.512 12.8736 29.5105 13.4 30.4081C13.9265 31.3058 14.6427 32.0816 15.5002 32.683C17.3263 33.9956 19.2239 35.209 21.1845 36.3178C23.1402 37.435 25.1564 38.4462 27.224 39.3469C28.1818 39.7773 29.2224 40 30.2752 40C31.328 40 32.3686 39.7773 33.3264 39.3469C35.394 38.4462 37.4102 37.435 39.366 36.3178C41.3265 35.209 43.2241 33.9956 45.0503 32.683C45.9078 32.0816 46.624 31.3058 47.1504 30.4081C47.6768 29.5105 48.0011 28.512 48.1014 27.4802C48.5751 23.0498 48.5751 18.5828 48.1014 14.1524C48.0011 13.1206 47.6768 12.1221 47.1503 11.2245C46.6239 10.3268 45.9078 9.55101 45.0503 8.94958Z" fill="url(#paint1_radial_2206_1320)"/>
<path id="Vector_3" fill-rule="evenodd" clip-rule="evenodd" d="M42.7108 12.0827C39.2846 9.63303 35.6074 7.54294 31.7394 5.84659C31.2818 5.63238 30.7815 5.52124 30.2748 5.52124C29.7682 5.52124 29.2679 5.63238 28.8103 5.84659C24.9423 7.54294 21.2651 9.63303 17.8388 12.0827C17.4216 12.3658 17.0737 12.7368 16.8203 13.1687C16.567 13.6007 16.4146 14.0829 16.3742 14.5801C15.9325 18.7262 15.9325 22.9064 16.3742 27.0525C16.4146 27.5497 16.567 28.0318 16.8203 28.4638C17.0736 28.8958 17.4215 29.2668 17.8387 29.5499C19.5475 30.7785 21.3235 31.9138 23.1589 32.9504C24.9884 33.9969 26.8751 34.9436 28.8102 35.786C29.2678 36.0002 29.7681 36.1114 30.2748 36.1114C30.7815 36.1114 31.2818 36.0002 31.7394 35.786C33.6746 34.9436 35.5612 33.9969 37.3908 32.9504C39.2261 31.9138 41.0021 30.7786 42.7108 29.5499C43.128 29.2668 43.476 28.8959 43.7293 28.4639C43.9827 28.0319 44.135 27.5498 44.1754 27.0525C44.6171 22.9064 44.6171 18.7262 44.1754 14.5802C44.135 14.0829 43.9826 13.6008 43.7293 13.1688C43.476 12.7368 43.128 12.3658 42.7108 12.0827Z" fill="url(#paint2_radial_2206_1320)"/>
<path id="Vector_4" fill-rule="evenodd" clip-rule="evenodd" d="M28.7849 34.7542C26.8143 33.8963 24.8932 32.9323 23.0301 31.8667C21.1612 30.8111 19.3526 29.6551 17.6126 28.4039C17.0433 28.015 16.6043 27.4683 16.3516 26.8331C16.3594 26.9062 16.3675 26.9794 16.3757 27.0525C16.4161 27.5497 16.5685 28.0318 16.8218 28.4638C17.0751 28.8958 17.423 29.2668 17.8402 29.5499C19.549 30.7786 21.325 31.9138 23.1604 32.9504C24.9899 33.9969 26.8765 34.9436 28.8117 35.786C29.2693 36.0003 29.7696 36.1114 30.2763 36.1114C30.7829 36.1114 31.2833 36.0003 31.7408 35.786C33.676 34.9436 35.5627 33.9969 37.3922 32.9504C39.2276 31.9138 41.0036 30.7786 42.7123 29.5499C43.1295 29.2669 43.4774 28.8959 43.7308 28.4639C43.9841 28.0319 44.1365 27.5498 44.1769 27.0525C44.185 26.9794 44.1931 26.9063 44.201 26.8331C43.9482 27.4683 43.5092 28.0151 42.9398 28.4039C41.1999 29.6551 39.3914 30.8111 37.5224 31.8667C35.6594 32.9323 33.7382 33.8963 31.7676 34.7542C31.3017 34.9724 30.7922 35.0855 30.2763 35.0855C29.7603 35.0855 29.2509 34.9724 28.7849 34.7542Z" fill="url(#paint3_linear_2206_1320)"/>
<path id="Star 22" opacity="0.5" d="M30 12L31.7961 17.5279H37.6085L32.9062 20.9443L34.7023 26.4721L30 23.0557L25.2977 26.4721L27.0938 20.9443L22.3915 17.5279H28.2039L30 12Z" fill="white"/>
</g>
</g>
<defs>
<linearGradient id="paint0_linear_2206_1320" x1="12.668" y1="6.49111" x2="47.8814" y2="6.49111" gradientUnits="userSpaceOnUse">
<stop stop-color="#939DCE"/>
<stop offset="0.06981" stop-color="#98A2D1"/>
<stop offset="0.22381" stop-color="#9EA9D6"/>
<stop offset="0.49416" stop-color="#CED3F2"/>
<stop offset="0.50444" stop-color="#BFC5E8"/>
<stop offset="0.52788" stop-color="#A2AAD6"/>
<stop offset="0.55413" stop-color="#8A93C7"/>
<stop offset="0.58382" stop-color="#7882BB"/>
<stop offset="0.61898" stop-color="#6B76B3"/>
<stop offset="0.66488" stop-color="#636FAE"/>
<stop offset="0.76191" stop-color="#616DAD"/>
<stop offset="1" stop-color="#38416D"/>
</linearGradient>
<radialGradient id="paint1_radial_2206_1320" cx="0" cy="0" r="1" gradientUnits="userSpaceOnUse" gradientTransform="translate(18.2171 0.983927) scale(47.8239 47.0826)">
<stop stop-color="#B2B8D9"/>
<stop offset="1" stop-color="#444E7D"/>
</radialGradient>
<radialGradient id="paint2_radial_2206_1320" cx="0" cy="0" r="1" gradientUnits="userSpaceOnUse" gradientTransform="translate(21.5801 4.64749) scale(36.5167 35.9507)">
<stop stop-color="#737AA3"/>
<stop offset="1" stop-color="#383F69"/>
</radialGradient>
<linearGradient id="paint3_linear_2206_1320" x1="16.3516" y1="31.4723" x2="44.201" y2="31.4723" gradientUnits="userSpaceOnUse">
<stop stop-color="#515C95"/>
<stop offset="0.2381" stop-color="#56629C"/>
<stop offset="0.33378" stop-color="#58649E"/>
<stop offset="0.37905" stop-color="#606BA3"/>
<stop offset="0.41373" stop-color="#6D77AC"/>
<stop offset="0.44302" stop-color="#7F88BA"/>
<stop offset="0.46889" stop-color="#979FCB"/>
<stop offset="0.492" stop-color="#B4BAE0"/>
<stop offset="0.50584" stop-color="#C9CEF0"/>
<stop offset="0.77619" stop-color="#949DD0"/>
<stop offset="0.92213" stop-color="#8D96CB"/>
<stop offset="1" stop-color="#8790C7"/>
</linearGradient>
</defs>
</svg>
