<svg width="37" height="40" viewBox="0 0 37 40" fill="none" xmlns="http://www.w3.org/2000/svg">
<path fill-rule="evenodd" clip-rule="evenodd" d="M35.8814 12.9822L35.3532 11.0109C35.0526 9.87291 34.46 8.83008 33.6324 7.98241C32.3126 6.65937 29.682 5.0952 28.0314 4.11706C25.8406 2.81986 23.5706 1.65702 21.2343 0.635149C20.3055 0.21663 19.2961 0 18.2747 0C17.2533 0 16.2439 0.21663 15.3151 0.635149C12.9788 1.657 10.7088 2.81985 8.51796 4.11706C6.86783 5.09467 4.23644 6.65983 2.91697 7.98241C2.08933 8.8301 1.49678 9.87292 1.19617 11.0109L0.667969 12.9822H35.8814Z" fill="url(#paint0_linear_1992_15083)"/>
<path fill-rule="evenodd" clip-rule="evenodd" d="M33.0503 8.94934C29.3899 6.33031 25.4604 4.09676 21.3264 2.28539C20.3686 1.85504 19.328 1.63232 18.2752 1.63232C17.2224 1.63232 16.1819 1.85504 15.2241 2.28539C11.0901 4.09676 7.16055 6.33031 3.50016 8.94934C2.64268 9.55076 1.92648 10.3266 1.40006 11.2242C0.873638 12.1218 0.549271 13.1204 0.44895 14.1522C-0.02465 18.5825 -0.02465 23.0496 0.44895 27.4799C0.549265 28.5117 0.873617 29.5102 1.40004 30.4079C1.92646 31.3055 2.64267 32.0813 3.50016 32.6827C5.32632 33.9953 7.22391 35.2087 9.18448 36.3176C11.1402 37.4347 13.1564 38.4459 15.224 39.3467C16.1818 39.777 17.2224 39.9998 18.2752 39.9998C19.328 39.9998 20.3686 39.777 21.3264 39.3467C23.394 38.4459 25.4102 37.4347 27.366 36.3176C29.3265 35.2087 31.2241 33.9953 33.0503 32.6827C33.9078 32.0813 34.624 31.3055 35.1504 30.4079C35.6768 29.5102 36.0011 28.5117 36.1014 27.4799C36.5751 23.0496 36.5751 18.5825 36.1014 14.1522C36.0011 13.1204 35.6768 12.1218 35.1503 11.2242C34.6239 10.3266 33.9078 9.55077 33.0503 8.94934Z" fill="url(#paint1_radial_1992_15083)"/>
<path fill-rule="evenodd" clip-rule="evenodd" d="M30.7108 12.0825C27.2846 9.63279 23.6074 7.54269 19.7394 5.84635C19.2818 5.63214 18.7815 5.521 18.2748 5.521C17.7682 5.521 17.2679 5.63214 16.8103 5.84635C12.9423 7.54269 9.26508 9.63278 5.83883 12.0825C5.42161 12.3655 5.07368 12.7365 4.82033 13.1685C4.56699 13.6005 4.4146 14.0826 4.37423 14.5798C3.93255 18.7259 3.93255 22.9061 4.37423 27.0522C4.4146 27.5494 4.56698 28.0316 4.82031 28.4636C5.07364 28.8956 5.42154 29.2666 5.83875 29.5496C7.54747 30.7783 9.32354 31.9135 11.1589 32.9502C12.9884 33.9967 14.8751 34.9433 16.8102 35.7858C17.2678 36 17.7681 36.1111 18.2748 36.1111C18.7815 36.1111 19.2818 36 19.7394 35.7858C21.6746 34.9433 23.5612 33.9967 25.3908 32.9502C27.2261 31.9135 29.0021 30.7783 30.7108 29.5496C31.128 29.2666 31.476 28.8956 31.7293 28.4636C31.9827 28.0316 32.135 27.5495 32.1754 27.0523C32.6171 22.9062 32.6171 18.726 32.1754 14.5799C32.135 14.0827 31.9826 13.6005 31.7293 13.1685C31.476 12.7365 31.128 12.3655 30.7108 12.0825Z" fill="url(#paint2_radial_1992_15083)"/>
<path fill-rule="evenodd" clip-rule="evenodd" d="M16.781 34.7542C14.8104 33.8963 12.8892 32.9323 11.0262 31.8667C9.15725 30.8111 7.34868 29.6551 5.60872 28.4039C5.03941 28.015 4.60044 27.4683 4.34766 26.8331C4.35552 26.9062 4.36358 26.9794 4.37181 27.0525C4.41218 27.5497 4.56456 28.0318 4.81789 28.4638C5.07122 28.8958 5.41912 29.2668 5.83632 29.5499C7.54505 30.7786 9.32112 31.9138 11.1565 32.9504C12.986 33.9969 14.8726 34.9436 16.8078 35.786C17.2654 36.0003 17.7657 36.1114 18.2724 36.1114C18.779 36.1114 19.2794 36.0003 19.7369 35.786C21.6721 34.9436 23.5588 33.9969 25.3883 32.9504C27.2237 31.9138 28.9997 30.7786 30.7084 29.5499C31.1256 29.2669 31.4735 28.8959 31.7269 28.4639C31.9802 28.0319 32.1326 27.5498 32.173 27.0525C32.1811 26.9794 32.1892 26.9063 32.1971 26.8331C31.9443 27.4683 31.5053 28.0151 30.9359 28.4039C29.196 29.6551 27.3875 30.8111 25.5185 31.8667C23.6555 32.9323 21.7343 33.8963 19.7637 34.7542C19.2978 34.9724 18.7883 35.0855 18.2724 35.0855C17.7564 35.0855 17.247 34.9724 16.781 34.7542Z" fill="url(#paint3_linear_1992_15083)"/>
<defs>
<linearGradient id="paint0_linear_1992_15083" x1="0.667969" y1="6.49111" x2="35.8814" y2="6.49111" gradientUnits="userSpaceOnUse">
<stop stop-color="#939DCE"/>
<stop offset="0.06981" stop-color="#98A2D1"/>
<stop offset="0.22381" stop-color="#9EA9D6"/>
<stop offset="0.49416" stop-color="#CED3F2"/>
<stop offset="0.50444" stop-color="#BFC5E8"/>
<stop offset="0.52788" stop-color="#A2AAD6"/>
<stop offset="0.55413" stop-color="#8A93C7"/>
<stop offset="0.58382" stop-color="#7882BB"/>
<stop offset="0.61898" stop-color="#6B76B3"/>
<stop offset="0.66488" stop-color="#636FAE"/>
<stop offset="0.76191" stop-color="#616DAD"/>
<stop offset="1" stop-color="#38416D"/>
</linearGradient>
<radialGradient id="paint1_radial_1992_15083" cx="0" cy="0" r="1" gradientUnits="userSpaceOnUse" gradientTransform="translate(6.21708 0.983683) scale(47.8239 47.0826)">
<stop stop-color="#B2B8D9"/>
<stop offset="1" stop-color="#444E7D"/>
</radialGradient>
<radialGradient id="paint2_radial_1992_15083" cx="0" cy="0" r="1" gradientUnits="userSpaceOnUse" gradientTransform="translate(9.5801 4.64725) scale(36.5167 35.9507)">
<stop stop-color="#737AA3"/>
<stop offset="1" stop-color="#383F69"/>
</radialGradient>
<linearGradient id="paint3_linear_1992_15083" x1="4.34766" y1="31.4723" x2="32.1971" y2="31.4723" gradientUnits="userSpaceOnUse">
<stop stop-color="#515C95"/>
<stop offset="0.2381" stop-color="#56629C"/>
<stop offset="0.33378" stop-color="#58649E"/>
<stop offset="0.37905" stop-color="#606BA3"/>
<stop offset="0.41373" stop-color="#6D77AC"/>
<stop offset="0.44302" stop-color="#7F88BA"/>
<stop offset="0.46889" stop-color="#979FCB"/>
<stop offset="0.492" stop-color="#B4BAE0"/>
<stop offset="0.50584" stop-color="#C9CEF0"/>
<stop offset="0.77619" stop-color="#949DD0"/>
<stop offset="0.92213" stop-color="#8D96CB"/>
<stop offset="1" stop-color="#8790C7"/>
</linearGradient>
</defs>
</svg>
