<svg width="154" height="154" viewBox="0 0 154 154" fill="none" xmlns="http://www.w3.org/2000/svg">
<rect width="154" height="154" rx="4" fill="#36314E"/>
<g clip-path="url(#clip0_1410_25695)">
<path d="M39.8705 22.94H113.149C116.731 22.94 120.166 24.363 122.699 26.8959C125.232 29.4288 126.655 32.8641 126.655 36.4462V123.128C126.655 124.901 126.306 126.658 125.627 128.296C124.948 129.935 123.953 131.424 122.699 132.678C121.445 133.932 119.956 134.927 118.317 135.606C116.679 136.285 114.922 136.634 113.149 136.634H39.8705C36.2885 136.634 32.8531 135.211 30.3202 132.678C27.7873 130.145 26.3643 126.71 26.3643 123.128V36.4461C26.3643 32.8641 27.7873 29.4287 30.3202 26.8958C32.8531 24.3629 36.2884 22.94 39.8705 22.94Z" fill="#453D57" stroke="#615A70" stroke-width="0.732502"/>
<path d="M38.4512 18.8972L38.4512 30.9175L42.1137 28.0673L45.7762 30.9175V18.8972C45.7762 18.648 45.7282 18.4013 45.6349 18.1711C45.5416 17.941 45.4048 17.7318 45.2324 17.5557C45.06 17.3795 44.8554 17.2398 44.6301 17.1444C44.4049 17.0491 44.1635 17 43.9196 17H40.3078C40.064 17 39.8225 17.0491 39.5973 17.1444C39.372 17.2398 39.1674 17.3795 38.995 17.5557C38.8226 17.7318 38.6858 17.941 38.5925 18.1711C38.4992 18.4013 38.4512 18.648 38.4512 18.8972Z" fill="#8EC9ED"/>
<path d="M108.039 18.8972V30.9175L111.702 28.0673L115.364 30.9175L115.364 18.8972C115.364 18.394 115.168 17.9115 114.82 17.5557C114.472 17.1999 114 17 113.508 17H109.896C109.652 17 109.41 17.0491 109.185 17.1444C108.96 17.2398 108.755 17.3795 108.583 17.5557C108.41 17.7318 108.274 17.941 108.18 18.1711C108.087 18.4013 108.039 18.648 108.039 18.8972Z" fill="#8EC9ED"/>
<path d="M55.4512 85.7227H113.823" stroke="#948798" stroke-width="0.732502" stroke-linecap="round" stroke-linejoin="round"/>
<path d="M55.4512 72.6074H113.823" stroke="#948798" stroke-width="0.732502" stroke-linecap="round" stroke-linejoin="round"/>
<path d="M55.4512 98.8379H113.823" stroke="#948798" stroke-width="0.732502" stroke-linecap="round" stroke-linejoin="round"/>
<path d="M55.4512 111.953H113.823" stroke="#948798" stroke-width="0.732502" stroke-linecap="round" stroke-linejoin="round"/>
<path d="M55.4512 125.068H113.823" stroke="#948798" stroke-width="0.732502" stroke-linecap="round" stroke-linejoin="round"/>
<path d="M39.916 68.4669C39.916 69.3742 40.1851 70.261 40.6891 71.0154C41.1931 71.7697 41.9095 72.3576 42.7477 72.7048C43.5859 73.052 44.5082 73.1428 45.398 72.9658C46.2878 72.7888 47.1051 72.3519 47.7466 71.7104C48.3881 71.0689 48.825 70.2516 49.002 69.3618C49.1789 68.472 49.0881 67.5497 48.7409 66.7115C48.3937 65.8733 47.8058 65.1569 47.0514 64.6529C46.2971 64.1489 45.4103 63.8799 44.503 63.8799C43.9006 63.8799 43.3041 63.9985 42.7476 64.229C42.1911 64.4596 41.6854 64.7974 41.2595 65.2234C40.8335 65.6493 40.4957 66.155 40.2651 66.7116C40.0346 67.2681 39.916 67.8646 39.916 68.4669Z" fill="#8EC9ED" stroke="#533E59" stroke-width="0.732502" stroke-linecap="round" stroke-linejoin="round"/>
<path d="M39.916 82.1983C39.916 83.1056 40.185 83.9924 40.6891 84.7468C41.1931 85.5011 41.9095 86.089 42.7477 86.4362C43.5858 86.7834 44.5081 86.8742 45.3979 86.6973C46.2877 86.5203 47.1051 86.0834 47.7466 85.4419C48.3881 84.8004 48.825 83.983 49.002 83.0932C49.179 82.2034 49.0881 81.2811 48.7409 80.443C48.3937 79.6048 47.8058 78.8884 47.0514 78.3844C46.2971 77.8803 45.4103 77.6113 44.503 77.6113C43.2865 77.6113 42.1198 78.0946 41.2595 78.9548C40.3993 79.8151 39.916 80.9818 39.916 82.1983Z" fill="#8EC9ED" stroke="#533E59" stroke-width="0.732502" stroke-linecap="round" stroke-linejoin="round"/>
<path d="M39.916 95.9298C39.916 96.8371 40.1851 97.7239 40.6891 98.4783C41.1931 99.2326 41.9095 99.8205 42.7477 100.168C43.5859 100.515 44.5082 100.606 45.398 100.429C46.2878 100.252 47.1051 99.8148 47.7466 99.1733C48.3881 98.5318 48.825 97.7144 49.002 96.8246C49.1789 95.9348 49.0881 95.0125 48.7409 94.1744C48.3937 93.3362 47.8058 92.6198 47.0514 92.1158C46.2971 91.6118 45.4103 91.3428 44.503 91.3428C43.9006 91.3428 43.3041 91.4614 42.7476 91.6919C42.1911 91.9224 41.6854 92.2603 41.2595 92.6863C40.8335 93.1122 40.4957 93.6179 40.2651 94.1744C40.0346 94.731 39.916 95.3274 39.916 95.9298Z" fill="#8EC9ED" stroke="#533E59" stroke-width="0.732502" stroke-linecap="round" stroke-linejoin="round"/>
<path d="M39.916 109.661C39.916 110.568 40.185 111.455 40.6891 112.209C41.1931 112.964 41.9095 113.551 42.7477 113.899C43.5858 114.246 44.5081 114.337 45.3979 114.16C46.2877 113.983 47.1051 113.546 47.7466 112.904C48.3881 112.263 48.825 111.445 49.002 110.556C49.179 109.666 49.0881 108.744 48.7409 107.905C48.3937 107.067 47.8058 106.351 47.0514 105.847C46.2971 105.343 45.4103 105.074 44.503 105.074C43.2865 105.074 42.1198 105.557 41.2595 106.417C40.3993 107.277 39.916 108.444 39.916 109.661Z" fill="#8EC9ED" stroke="#533E59" stroke-width="0.732502" stroke-linecap="round" stroke-linejoin="round"/>
<path d="M39.916 123.392C39.916 124.299 40.1851 125.186 40.6891 125.941C41.1931 126.695 41.9095 127.283 42.7477 127.63C43.5859 127.977 44.5082 128.068 45.398 127.891C46.2878 127.714 47.1051 127.277 47.7466 126.636C48.3881 125.994 48.825 125.177 49.002 124.287C49.1789 123.397 49.0881 122.475 48.7409 121.637C48.3937 120.799 47.8058 120.082 47.0514 119.578C46.2971 119.074 45.4103 118.805 44.503 118.805C43.9006 118.805 43.3041 118.924 42.7476 119.154C42.1911 119.385 41.6854 119.723 41.2595 120.149C40.8335 120.575 40.4957 121.08 40.2651 121.637C40.0346 122.193 39.916 122.79 39.916 123.392Z" fill="#8EC9ED" stroke="#533E59" stroke-width="0.732502" stroke-linecap="round" stroke-linejoin="round"/>
<path d="M64.1937 39.7527V51.5127H62.2617V43.1295L58.6833 49.0431H58.4481L54.8697 43.1127V51.5127H52.9377V39.7527H55.0209L58.5657 45.6327L62.1273 39.7527H64.1937ZM70.3857 51.7311C69.1537 51.7311 68.1065 51.3055 67.2441 50.4543C66.3817 49.6031 65.9505 48.5559 65.9505 47.3127C65.9505 46.0695 66.3817 45.0223 67.2441 44.1711C68.1065 43.3199 69.1537 42.8943 70.3857 42.8943C71.6289 42.8943 72.6761 43.3199 73.5273 44.1711C74.3897 45.0223 74.8209 46.0695 74.8209 47.3127C74.8209 48.5559 74.3897 49.6031 73.5273 50.4543C72.6761 51.3055 71.6289 51.7311 70.3857 51.7311ZM68.5209 49.2111C69.0249 49.7151 69.6465 49.9671 70.3857 49.9671C71.1249 49.9671 71.7465 49.7151 72.2505 49.2111C72.7545 48.7071 73.0065 48.0743 73.0065 47.3127C73.0065 46.5511 72.7545 45.9183 72.2505 45.4143C71.7465 44.9103 71.1249 44.6583 70.3857 44.6583C69.6465 44.6583 69.0249 44.9103 68.5209 45.4143C68.0169 45.9183 67.7649 46.5511 67.7649 47.3127C67.7649 48.0743 68.0169 48.7071 68.5209 49.2111ZM80.8799 42.8943C81.8431 42.8943 82.6215 43.2023 83.2151 43.8183C83.8087 44.4343 84.1055 45.2799 84.1055 46.3551V51.5127H82.2911V46.5399C82.2911 45.9127 82.1231 45.4311 81.7871 45.0951C81.4511 44.7591 80.9919 44.5911 80.4095 44.5911C79.7711 44.5911 79.2559 44.7927 78.8639 45.1959C78.4719 45.5879 78.2759 46.1927 78.2759 47.0103V51.5127H76.4615V43.1127H78.2759V44.1879C78.8247 43.3255 79.6927 42.8943 80.8799 42.8943ZM90.7464 44.8599H88.6632V48.8919C88.6632 49.2391 88.7416 49.4911 88.8984 49.6479C89.0552 49.7935 89.2848 49.8775 89.5872 49.8999C89.9008 49.9111 90.2872 49.9055 90.7464 49.8831V51.5127C89.3576 51.6807 88.3608 51.5631 87.756 51.1599C87.1512 50.7455 86.8488 49.9895 86.8488 48.8919V44.8599H85.3032V43.1127H86.8488V41.2983L88.6632 40.7607V43.1127H90.7464V44.8599ZM96.8104 42.8943C97.7736 42.8943 98.552 43.2023 99.1456 43.8183C99.7392 44.4343 100.036 45.2799 100.036 46.3551V51.5127H98.2216V46.5399C98.2216 45.9127 98.0536 45.4311 97.7176 45.0951C97.3816 44.7591 96.9224 44.5911 96.34 44.5911C95.7016 44.5911 95.1864 44.7927 94.7944 45.1959C94.4024 45.5879 94.2064 46.1927 94.2064 47.0103V51.5127H92.392V39.7527H94.2064V44.1879C94.7552 43.3255 95.6232 42.8943 96.8104 42.8943Z" fill="#E9E6EA"/>
<path d="M44.5804 69.081L48.719 64.9424C48.8167 64.8447 48.9326 64.7959 49.0669 64.7959C49.2012 64.7959 49.3172 64.8447 49.4149 64.9424C49.5125 65.0401 49.5614 65.156 49.5614 65.2903C49.5614 65.4246 49.5125 65.5406 49.4149 65.6383L44.9222 70.131C44.8245 70.2286 44.7106 70.2775 44.5804 70.2775C44.4501 70.2775 44.3362 70.2286 44.2385 70.131L42.1387 68.0311C42.041 67.9334 41.9942 67.8175 41.9983 67.6832C42.0024 67.5489 42.0532 67.4329 42.1509 67.3352C42.2486 67.2376 42.3645 67.1887 42.4988 67.1887C42.6331 67.1887 42.7491 67.2376 42.8468 67.3352L44.5804 69.081Z" fill="white"/>
<path d="M44.5804 82.2661L48.719 78.1275C48.8167 78.0298 48.9326 77.981 49.0669 77.981C49.2012 77.981 49.3172 78.0298 49.4149 78.1275C49.5125 78.2251 49.5614 78.3411 49.5614 78.4754C49.5614 78.6097 49.5125 78.7257 49.4149 78.8233L44.9222 83.316C44.8245 83.4137 44.7106 83.4625 44.5804 83.4625C44.4501 83.4625 44.3362 83.4137 44.2385 83.316L42.1387 81.2162C42.041 81.1185 41.9942 81.0025 41.9983 80.8682C42.0024 80.7339 42.0532 80.618 42.1509 80.5203C42.2486 80.4226 42.3645 80.3738 42.4988 80.3738C42.6331 80.3738 42.7491 80.4226 42.8468 80.5203L44.5804 82.2661Z" fill="white"/>
<path d="M44.5804 96.1836L48.719 92.0449C48.8167 91.9473 48.9326 91.8984 49.0669 91.8984C49.2012 91.8984 49.3172 91.9473 49.4149 92.0449C49.5125 92.1426 49.5614 92.2586 49.5614 92.3929C49.5614 92.5272 49.5125 92.6431 49.4149 92.7408L44.9222 97.2335C44.8245 97.3312 44.7106 97.38 44.5804 97.38C44.4501 97.38 44.3362 97.3312 44.2385 97.2335L42.1387 95.1337C42.041 95.036 41.9942 94.92 41.9983 94.7857C42.0024 94.6514 42.0532 94.5354 42.1509 94.4378C42.2486 94.3401 42.3645 94.2913 42.4988 94.2913C42.6331 94.2913 42.7491 94.3401 42.8468 94.4378L44.5804 96.1836Z" fill="white"/>
<path d="M44.5804 109.369L48.719 105.23C48.8167 105.132 48.9326 105.083 49.0669 105.083C49.2012 105.083 49.3172 105.132 49.4149 105.23C49.5125 105.328 49.5614 105.444 49.5614 105.578C49.5614 105.712 49.5125 105.828 49.4149 105.926L44.9222 110.419C44.8245 110.516 44.7106 110.565 44.5804 110.565C44.4501 110.565 44.3362 110.516 44.2385 110.419L42.1387 108.319C42.041 108.221 41.9942 108.105 41.9983 107.971C42.0024 107.836 42.0532 107.721 42.1509 107.623C42.2486 107.525 42.3645 107.476 42.4988 107.476C42.6331 107.476 42.7491 107.525 42.8468 107.623L44.5804 109.369Z" fill="white"/>
<path d="M44.5804 123.286L48.719 119.147C48.8167 119.05 48.9326 119.001 49.0669 119.001C49.2012 119.001 49.3172 119.05 49.4149 119.147C49.5125 119.245 49.5614 119.361 49.5614 119.495C49.5614 119.63 49.5125 119.746 49.4149 119.843L44.9222 124.336C44.8245 124.434 44.7106 124.483 44.5804 124.483C44.4501 124.483 44.3362 124.434 44.2385 124.336L42.1387 122.236C42.041 122.139 41.9942 122.023 41.9983 121.888C42.0024 121.754 42.0532 121.638 42.1509 121.54C42.2486 121.443 42.3645 121.394 42.4988 121.394C42.6331 121.394 42.7491 121.443 42.8468 121.54L44.5804 123.286Z" fill="white"/>
</g>
<defs>
<clipPath id="clip0_1410_25695">
<rect width="101.023" height="120" fill="white" transform="translate(26 17)"/>
</clipPath>
</defs>
</svg>
