<svg width="34" height="20" viewBox="0 0 34 20" fill="none" xmlns="http://www.w3.org/2000/svg">
<path d="M8.832 17.112L3 0.312H6.024L10.488 13.776L14.976 0.312H17.976L12.144 17.112H8.832Z" fill="#FDEB56"/>
<path d="M24.8942 17.424C23.2782 17.424 21.9022 17.056 20.7662 16.32C19.6462 15.584 18.8622 14.576 18.4142 13.296L20.7902 11.904C21.4622 13.792 22.8542 14.736 24.9662 14.736C26.0062 14.736 26.7822 14.536 27.2942 14.136C27.8222 13.72 28.0862 13.184 28.0862 12.528C28.0862 11.84 27.8062 11.32 27.2462 10.968C26.6862 10.6 25.6942 10.2 24.2702 9.768C23.4702 9.528 22.8222 9.304 22.3262 9.096C21.8302 8.888 21.3022 8.6 20.7422 8.232C20.1982 7.848 19.7902 7.376 19.5182 6.816C19.2462 6.256 19.1102 5.6 19.1102 4.848C19.1102 3.36 19.6382 2.184 20.6942 1.32C21.7502 0.44 23.0222 0 24.5102 0C25.8542 0 27.0302 0.328 28.0382 0.984C29.0462 1.64 29.8222 2.544 30.3662 3.696L28.0382 5.04C27.3342 3.472 26.1582 2.688 24.5102 2.688C23.7102 2.688 23.0702 2.88 22.5902 3.264C22.1102 3.632 21.8702 4.136 21.8702 4.776C21.8702 5.4 22.1102 5.896 22.5902 6.264C23.0862 6.616 23.9742 6.992 25.2542 7.392C25.8942 7.6 26.3582 7.76 26.6462 7.872C26.9502 7.968 27.3662 8.128 27.8942 8.352C28.4382 8.576 28.8462 8.8 29.1182 9.024C29.3902 9.248 29.6782 9.528 29.9822 9.864C30.3022 10.2 30.5262 10.584 30.6542 11.016C30.7822 11.448 30.8462 11.936 30.8462 12.48C30.8462 14 30.2942 15.208 29.1902 16.104C28.1022 16.984 26.6702 17.424 24.8942 17.424Z" fill="#FDEB56"/>
</svg>
