<svg width="32" height="32" viewBox="0 0 32 32" fill="none" xmlns="http://www.w3.org/2000/svg">
<path d="M29.3307 15.6667C29.3307 22.8467 23.3641 28.6667 15.9974 28.6667C14.8967 28.6667 13.8307 28.5374 12.8081 28.2907C12.4981 28.2161 12.1741 28.2447 11.8887 28.3874L8.97073 29.8467C8.2174 30.2234 7.33073 29.6754 7.33073 28.8327V26.1494C7.33073 25.7661 7.1594 25.4087 6.87673 25.1501C4.28073 22.7767 2.66406 19.4067 2.66406 15.6667C2.66406 8.48675 8.63073 2.66675 15.9974 2.66675C23.3641 2.66675 29.3307 8.48675 29.3307 15.6667Z" fill="url(#paint0_radial_989_22132)"/>
<path opacity="0.05" d="M23.3295 11.5281C23.0442 11.5281 22.7675 11.6227 22.5295 11.8021L18.7335 14.6121C18.6449 14.6787 18.5469 14.7121 18.4435 14.7121C18.3435 14.7121 18.2495 14.6807 18.1702 14.6214L15.5222 12.6281C14.9835 12.2274 14.3489 12.0161 13.6842 12.0161C12.6335 12.0161 11.6675 12.5434 11.1002 13.4267L10.2929 14.6874L7.54621 19.1507C7.28488 19.5601 7.26488 20.0654 7.49888 20.4934C7.73755 20.9294 8.18821 21.2001 8.67488 21.2001C8.96021 21.2001 9.23688 21.1054 9.47488 20.9261L13.2709 18.1161C13.3595 18.0494 13.4575 18.0161 13.5609 18.0161C13.6609 18.0161 13.7549 18.0474 13.8342 18.1067L16.4822 20.1001C17.0215 20.5014 17.6555 20.7121 18.3202 20.7121C19.3709 20.7121 20.3369 20.1847 20.9042 19.3014L21.7115 18.0407L24.4582 13.5774C24.7195 13.1681 24.7395 12.6627 24.5055 12.2347C24.2669 11.7987 23.8162 11.5281 23.3295 11.5281Z" fill="black"/>
<path opacity="0.07" d="M23.3304 11.8613C23.1177 11.8613 22.9104 11.9327 22.731 12.068L18.933 14.88C18.789 14.9887 18.621 15.0453 18.445 15.0453C18.2724 15.0453 18.109 14.9907 17.9717 14.888L15.323 12.894C14.8437 12.5373 14.2777 12.3493 13.685 12.3493C12.7484 12.3493 11.8877 12.8193 11.3817 13.6073L10.575 14.868L7.83169 19.3267C7.63369 19.6367 7.61836 20.0153 7.79302 20.334C7.97036 20.658 8.31769 20.8673 8.67636 20.8673C8.88902 20.8673 9.09636 20.796 9.27569 20.6607L13.0737 17.8487C13.2177 17.74 13.3857 17.6833 13.5617 17.6833C13.7344 17.6833 13.8977 17.738 14.035 17.8407L16.6837 19.8347C17.163 20.1913 17.729 20.3793 18.3217 20.3793C19.2584 20.3793 20.119 19.9093 20.625 19.1213L21.4317 17.8607L24.175 13.402C24.373 13.092 24.3884 12.7133 24.2137 12.3947C24.0364 12.0707 23.6897 11.8613 23.3304 11.8613Z" fill="black"/>
<path d="M22.9269 12.334L19.1269 15.1473C18.7202 15.454 18.1669 15.454 17.7669 15.154L15.1175 13.16C13.9975 12.3267 12.4109 12.6133 11.6575 13.7867L10.8509 15.0467L8.11086 19.5C7.71086 20.1267 8.47753 20.84 9.07086 20.3933L12.8709 17.58C13.2775 17.2733 13.8309 17.2733 14.2309 17.5733L16.8802 19.5673C18.0002 20.4007 19.5869 20.114 20.3402 18.9407L21.1469 17.6807L23.8869 13.2273C24.2869 12.6007 23.5202 11.8873 22.9269 12.334Z" fill="white"/>
<defs>
<radialGradient id="paint0_radial_989_22132" cx="0" cy="0" r="1" gradientUnits="userSpaceOnUse" gradientTransform="translate(7.38873 28.6521) scale(31.7413 31.7413)">
<stop stop-color="#1292FF"/>
<stop offset="0.079" stop-color="#2982FF"/>
<stop offset="0.23" stop-color="#4E69FF"/>
<stop offset="0.351" stop-color="#6559FF"/>
<stop offset="0.428" stop-color="#6D53FF"/>
<stop offset="0.754" stop-color="#DF47AA"/>
<stop offset="0.946" stop-color="#FF6257"/>
</radialGradient>
</defs>
</svg>
