<svg width="181" height="180" viewBox="0 0 181 180" fill="none" xmlns="http://www.w3.org/2000/svg">
<circle cx="90.5" cy="90" r="90" fill="#201324"/>
<g clip-path="url(#clip0_1568_19864)">
<path fill-rule="evenodd" clip-rule="evenodd" d="M68.5454 128.357L81.9183 131.93V127.258L83.0099 126.159H90.6514V131.655V135.502H82.4641L72.3662 131.105L68.5454 128.357Z" fill="#CDBDB2"/>
<path fill-rule="evenodd" clip-rule="evenodd" d="M112.211 128.357L99.1117 131.93V127.258L98.0201 126.159H90.3785V131.655V135.502H98.5659L108.663 131.105L112.211 128.357Z" fill="#CDBDB2"/>
<path fill-rule="evenodd" clip-rule="evenodd" d="M83.0101 118.189L81.9185 127.258L83.2828 126.159H97.4741L99.1116 127.258L98.02 118.189L95.8367 116.815L84.9202 117.09L83.0101 118.189Z" fill="#393939"/>
<path fill-rule="evenodd" clip-rule="evenodd" d="M75.6411 56.9054L82.191 72.295L85.1932 117.09H95.8365L99.1115 72.295L105.116 56.9054H75.6411Z" fill="#F89C35"/>
<path fill-rule="evenodd" clip-rule="evenodd" d="M46.9857 90.7078L39.3442 112.968L58.448 111.868H70.7288V102.25L70.1829 82.4634L67.4538 84.6619L46.9857 90.7078Z" fill="#F89D35"/>
<path fill-rule="evenodd" clip-rule="evenodd" d="M61.4497 93.1809L83.8284 93.7305L81.3725 105.273L70.7287 102.525L61.4497 93.1809Z" fill="#D87C30"/>
<path fill-rule="evenodd" clip-rule="evenodd" d="M61.4497 93.456L70.7287 102.25V111.044L61.4497 93.456Z" fill="#EA8D3A"/>
<path fill-rule="evenodd" clip-rule="evenodd" d="M70.729 102.525L81.6454 105.273L85.1935 117.09L82.7371 118.464L70.729 111.319V102.525Z" fill="#F89D35"/>
<path fill-rule="evenodd" clip-rule="evenodd" d="M70.7287 111.319L68.5454 128.357L83.0099 118.189L70.7287 111.319Z" fill="#EB8F35"/>
<path fill-rule="evenodd" clip-rule="evenodd" d="M83.8287 93.7306L85.1935 117.09L81.0996 105.136L83.8287 93.7306Z" fill="#EA8E3A"/>
<path fill-rule="evenodd" clip-rule="evenodd" d="M58.1748 111.594L70.7287 111.319L68.5454 128.357L58.1748 111.594Z" fill="#D87C30"/>
<path fill-rule="evenodd" clip-rule="evenodd" d="M45.3483 135.777L68.5455 128.357L58.1749 111.594L39.3442 112.968L45.3483 135.777Z" fill="#EB8F35"/>
<path fill-rule="evenodd" clip-rule="evenodd" d="M82.1909 72.295L70.456 82.1884L61.4497 93.1809L83.8284 94.0056L82.1909 72.295Z" fill="#E8821E"/>
<path fill-rule="evenodd" clip-rule="evenodd" d="M68.5454 128.357L83.0099 118.189L81.9183 126.983V131.93L72.0935 130.006L68.5454 128.357Z" fill="#DFCEC3"/>
<path fill-rule="evenodd" clip-rule="evenodd" d="M112.211 128.357L98.0201 118.189L99.1117 126.983V131.93L108.936 130.006L112.211 128.357Z" fill="#DFCEC3"/>
<path fill-rule="evenodd" clip-rule="evenodd" d="M77.8244 98.6772L80.8267 104.998L70.1829 102.25L77.8244 98.6772Z" fill="#393939"/>
<path fill-rule="evenodd" clip-rule="evenodd" d="M45.0752 43.9894L82.1911 72.295L75.9144 56.9054L45.0752 43.9894Z" fill="#E88F35"/>
<path fill-rule="evenodd" clip-rule="evenodd" d="M45.075 43.9891L40.1626 59.1039L42.8917 75.5928L40.9813 76.6921L43.7104 79.1654L41.5272 81.0891L44.5292 83.8372L42.6188 85.4861L46.9854 90.9824L67.4537 84.6617C77.4604 76.6005 82.3728 72.4782 82.1909 72.295C82.009 72.1118 69.637 62.6765 45.075 43.9891Z" fill="#8E5A30"/>
<path fill-rule="evenodd" clip-rule="evenodd" d="M133.771 90.7078L141.412 112.968L122.308 111.868H110.028V102.25L110.573 82.4634L113.303 84.6619L133.771 90.7078Z" fill="#F89D35"/>
<path fill-rule="evenodd" clip-rule="evenodd" d="M119.307 93.1808L96.9279 93.7305L99.3839 105.273L110.028 102.525L119.307 93.1808Z" fill="#D87C30"/>
<path fill-rule="evenodd" clip-rule="evenodd" d="M119.307 93.4559L110.028 102.25V111.044L119.307 93.4559Z" fill="#EA8D3A"/>
<path fill-rule="evenodd" clip-rule="evenodd" d="M110.027 102.525L99.1109 105.273L95.5628 117.09L98.0193 118.464L110.027 111.319V102.525Z" fill="#F89D35"/>
<path fill-rule="evenodd" clip-rule="evenodd" d="M110.028 111.319L112.211 128.357L98.0196 118.464L110.028 111.319Z" fill="#EB8F35"/>
<path fill-rule="evenodd" clip-rule="evenodd" d="M96.9276 93.7305L95.5628 117.09L99.6567 105.135L96.9276 93.7305Z" fill="#EA8E3A"/>
<path fill-rule="evenodd" clip-rule="evenodd" d="M122.582 111.594L110.028 111.319L112.211 128.357L122.582 111.594Z" fill="#D87C30"/>
<path fill-rule="evenodd" clip-rule="evenodd" d="M135.408 135.777L112.211 128.357L122.581 111.594L141.412 112.968L135.408 135.777Z" fill="#EB8F35"/>
<path fill-rule="evenodd" clip-rule="evenodd" d="M98.5654 72.295L110.3 82.1883L119.307 93.1809L96.9279 94.0056L98.5654 72.295Z" fill="#E8821E"/>
<path fill-rule="evenodd" clip-rule="evenodd" d="M102.932 98.6771L99.9297 104.998L110.573 102.25L102.932 98.6771Z" fill="#393939"/>
<path fill-rule="evenodd" clip-rule="evenodd" d="M135.681 43.9893L98.5653 72.295L104.842 56.9054L135.681 43.9893Z" fill="#E88F35"/>
<path fill-rule="evenodd" clip-rule="evenodd" d="M135.681 43.9891L140.594 59.1039L137.865 75.5927L139.775 76.692L137.046 79.1653L139.229 81.089L136.227 83.8372L138.138 85.4861L133.771 90.9823L113.303 84.6616C103.296 76.6004 98.3835 72.4782 98.5654 72.295C98.7474 72.1118 111.119 62.6765 135.681 43.9891Z" fill="#8E5A30"/>
</g>
<defs>
<clipPath id="clip0_1568_19864">
<rect width="102.857" height="92.3377" fill="white" transform="translate(39.0713 43.7143)"/>
</clipPath>
</defs>
</svg>
