<svg width="23" height="20" viewBox="0 0 23 20" fill="none" xmlns="http://www.w3.org/2000/svg">
<g id="metamask 1" clip-path="url(#clip0_380_18641)">
<g id="Group">
<path id="Vector" fill-rule="evenodd" clip-rule="evenodd" d="M6.42969 18.3334L9.34641 19.1072V18.0953L9.5845 17.8572H11.2512V19.0477V19.881H9.46546L7.26302 18.9286L6.42969 18.3334Z" fill="#CDBDB2"/>
<path id="Vector_2" fill-rule="evenodd" clip-rule="evenodd" d="M15.9531 18.3334L13.096 19.1072V18.0953L12.8579 17.8572H11.1912V19.0477V19.881H12.9769L15.1793 18.9286L15.9531 18.3334Z" fill="#CDBDB2"/>
<path id="Vector_3" fill-rule="evenodd" clip-rule="evenodd" d="M9.5838 16.131L9.3457 18.0953L9.64327 17.8572H12.7385L13.0956 18.0953L12.8576 16.131L12.3814 15.8334L10.0004 15.893L9.5838 16.131Z" fill="#393939"/>
<path id="Vector_4" fill-rule="evenodd" clip-rule="evenodd" d="M7.97656 2.85718L9.40513 6.19051L10.0599 15.8929H12.3813L13.0956 6.19051L14.4051 2.85718H7.97656Z" fill="#F89C35"/>
<path id="Vector_5" fill-rule="evenodd" clip-rule="evenodd" d="M1.72721 10.1787L0.0605469 15L4.22721 14.7619H6.90573V12.6787L6.78668 8.39294L6.19145 8.86913L1.72721 10.1787Z" fill="#F89D35"/>
<path id="Vector_6" fill-rule="evenodd" clip-rule="evenodd" d="M4.88281 10.7144L9.76376 10.8334L9.2281 13.3334L6.90662 12.7382L4.88281 10.7144Z" fill="#D87C30"/>
<path id="Vector_7" fill-rule="evenodd" clip-rule="evenodd" d="M4.88281 10.7739L6.90662 12.6787V14.5834L4.88281 10.7739Z" fill="#EA8D3A"/>
<path id="Vector_8" fill-rule="evenodd" clip-rule="evenodd" d="M6.90625 12.7382L9.2872 13.3334L10.0611 15.893L9.5253 16.1905L6.90625 14.6429V12.7382Z" fill="#F89D35"/>
<path id="Vector_9" fill-rule="evenodd" clip-rule="evenodd" d="M6.90588 14.6429L6.42969 18.3334L9.5845 16.1311L6.90588 14.6429Z" fill="#EB8F35"/>
<path id="Vector_10" fill-rule="evenodd" clip-rule="evenodd" d="M9.76321 10.8334L10.0609 15.893L9.16797 13.3036L9.76321 10.8334Z" fill="#EA8E3A"/>
<path id="Vector_11" fill-rule="evenodd" clip-rule="evenodd" d="M4.16797 14.7025L6.90606 14.6429L6.42987 18.3334L4.16797 14.7025Z" fill="#D87C30"/>
<path id="Vector_12" fill-rule="evenodd" clip-rule="evenodd" d="M1.37007 19.9406L6.42954 18.3334L4.16764 14.7025L0.0605469 15.0001L1.37007 19.9406Z" fill="#EB8F35"/>
<path id="Vector_13" fill-rule="evenodd" clip-rule="evenodd" d="M9.40662 6.19055L6.84715 8.33341L4.88281 10.7144L9.76376 10.893L9.40662 6.19055Z" fill="#E8821E"/>
<path id="Vector_14" fill-rule="evenodd" clip-rule="evenodd" d="M6.42969 18.3334L9.5845 16.1311L9.34641 18.0359V19.1073L7.20355 18.6906L6.42969 18.3334Z" fill="#DFCEC3"/>
<path id="Vector_15" fill-rule="evenodd" clip-rule="evenodd" d="M15.9531 18.3334L12.8579 16.1311L13.096 18.0359V19.1073L15.2388 18.6906L15.9531 18.3334Z" fill="#DFCEC3"/>
<path id="Vector_16" fill-rule="evenodd" clip-rule="evenodd" d="M8.45261 11.9048L9.10742 13.2739L6.78594 12.6786L8.45261 11.9048Z" fill="#393939"/>
<path id="Vector_17" fill-rule="evenodd" clip-rule="evenodd" d="M1.31055 0.0595703L9.40579 6.19047L8.03679 2.85714L1.31055 0.0595703Z" fill="#E88F35"/>
<path id="Vector_18" fill-rule="evenodd" clip-rule="evenodd" d="M1.30971 0.0595703L0.238281 3.33338L0.833519 6.90481L0.416853 7.1429L1.01209 7.67862L0.5359 8.09529L1.19066 8.69052L0.773996 9.04767L1.72638 10.2381L6.19066 8.86909C8.3732 7.12306 9.44463 6.23021 9.40495 6.19052C9.36527 6.15084 6.66685 4.10719 1.30971 0.0595703Z" fill="#8E5A30"/>
<g id="Group_2">
<path id="Vector_19" fill-rule="evenodd" clip-rule="evenodd" d="M20.6556 10.1787L22.3223 15L18.1556 14.7619H15.4771V12.6787L15.5961 8.39294L16.1914 8.86913L20.6556 10.1787Z" fill="#F89D35"/>
<path id="Vector_20" fill-rule="evenodd" clip-rule="evenodd" d="M17.5 10.7144L12.619 10.8334L13.1547 13.3334L15.4762 12.7382L17.5 10.7144Z" fill="#D87C30"/>
<path id="Vector_21" fill-rule="evenodd" clip-rule="evenodd" d="M17.5 10.7739L15.4762 12.6787V14.5834L17.5 10.7739Z" fill="#EA8D3A"/>
<path id="Vector_22" fill-rule="evenodd" clip-rule="evenodd" d="M15.4766 12.7382L13.0956 13.3334L12.3217 15.893L12.8575 16.1905L15.4766 14.6429V12.7382Z" fill="#F89D35"/>
<path id="Vector_23" fill-rule="evenodd" clip-rule="evenodd" d="M15.4769 14.6429L15.9531 18.3334L12.8579 16.1906L15.4769 14.6429Z" fill="#EB8F35"/>
<path id="Vector_24" fill-rule="evenodd" clip-rule="evenodd" d="M12.6196 10.8334L12.3219 15.893L13.2148 13.3036L12.6196 10.8334Z" fill="#EA8E3A"/>
<path id="Vector_25" fill-rule="evenodd" clip-rule="evenodd" d="M18.2148 14.7025L15.4767 14.6429L15.9529 18.3334L18.2148 14.7025Z" fill="#D87C30"/>
<path id="Vector_26" fill-rule="evenodd" clip-rule="evenodd" d="M21.0127 19.9406L15.9533 18.3334L18.2152 14.7025L22.3223 15.0001L21.0127 19.9406Z" fill="#EB8F35"/>
<path id="Vector_27" fill-rule="evenodd" clip-rule="evenodd" d="M12.9762 6.19055L15.5357 8.33341L17.5 10.7144L12.619 10.893L12.9762 6.19055Z" fill="#E8821E"/>
<path id="Vector_28" fill-rule="evenodd" clip-rule="evenodd" d="M13.9302 11.9048L13.2754 13.2739L15.5969 12.6786L13.9302 11.9048Z" fill="#393939"/>
<path id="Vector_29" fill-rule="evenodd" clip-rule="evenodd" d="M21.0723 0.0595703L12.977 6.19047L14.346 2.85714L21.0723 0.0595703Z" fill="#E88F35"/>
<path id="Vector_30" fill-rule="evenodd" clip-rule="evenodd" d="M21.0731 0.0595703L22.1445 3.33338L21.5493 6.90481L21.966 7.1429L21.3707 7.67862L21.8469 8.09529L21.1922 8.69052L21.6088 9.04767L20.6564 10.2381L16.1922 8.86909C14.0096 7.12306 12.9382 6.23021 12.9779 6.19052C13.0175 6.15084 15.716 4.10719 21.0731 0.0595703Z" fill="#8E5A30"/>
</g>
</g>
</g>
<defs>
<clipPath id="clip0_380_18641">
<rect width="22.4339" height="20" fill="white"/>
</clipPath>
</defs>
</svg>
