<svg width="18" height="18" viewBox="0 0 18 18" fill="none" xmlns="http://www.w3.org/2000/svg">
<path d="M8.7825 14.1075C8.6838 14.108 8.58595 14.0891 8.49457 14.0518C8.40319 14.0145 8.32008 13.9595 8.25 13.89C8.1797 13.8203 8.12391 13.7373 8.08583 13.6459C8.04776 13.5545 8.02815 13.4565 8.02815 13.3575C8.02815 13.2585 8.04776 13.1604 8.08583 13.069C8.12391 12.9776 8.1797 12.8947 8.25 12.825L12.0825 8.99997L8.25 5.17497C8.10877 5.03375 8.02943 4.8422 8.02943 4.64247C8.02943 4.54358 8.04891 4.44565 8.08676 4.35429C8.1246 4.26292 8.18007 4.1799 8.25 4.10997C8.31993 4.04004 8.40295 3.98457 8.49431 3.94673C8.58568 3.90888 8.68361 3.8894 8.7825 3.8894C8.98223 3.8894 9.17377 3.96875 9.315 4.10997L13.6725 8.46747C13.742 8.53755 13.797 8.62067 13.8343 8.71204C13.8717 8.80342 13.8906 8.90127 13.89 8.99997C13.8906 9.09868 13.8717 9.19652 13.8343 9.2879C13.797 9.37928 13.742 9.46239 13.6725 9.53247L9.315 13.89C9.24492 13.9595 9.16181 14.0145 9.07043 14.0518C8.97905 14.0891 8.88121 14.108 8.7825 14.1075Z" fill="#86723C"/>
<path opacity="0.3" d="M4.86 14.1075C4.7613 14.108 4.66345 14.0891 4.57207 14.0518C4.48069 14.0145 4.39758 13.9595 4.3275 13.89C4.2572 13.8203 4.20141 13.7373 4.16333 13.6459C4.12526 13.5545 4.10565 13.4565 4.10565 13.3575C4.10565 13.2585 4.12526 13.1604 4.16333 13.069C4.20141 12.9776 4.2572 12.8947 4.3275 12.825L8.1525 8.99997L4.3275 5.17497C4.18627 5.03375 4.10693 4.8422 4.10693 4.64247C4.10693 4.44275 4.18627 4.2512 4.3275 4.10997C4.46873 3.96875 4.66027 3.8894 4.86 3.8894C5.05973 3.8894 5.25127 3.96875 5.3925 4.10997L9.75 8.46747C9.81951 8.53755 9.87451 8.62067 9.91183 8.71204C9.94915 8.80342 9.96807 8.90127 9.9675 8.99997C9.96474 9.19855 9.88705 9.38875 9.75 9.53247L5.3925 13.89C5.32242 13.9595 5.23931 14.0145 5.14793 14.0518C5.05655 14.0891 4.95871 14.108 4.86 14.1075Z" fill="#86723C"/>
</svg>
