<svg width="14" height="13" viewBox="0 0 14 13" fill="none" xmlns="http://www.w3.org/2000/svg">
<path d="M6.80979 1.20344C6.86966 1.01918 7.13034 1.01918 7.19021 1.20344L8.16342 4.19869C8.32407 4.69311 8.78482 5.02786 9.30469 5.02786H12.4541C12.6478 5.02786 12.7284 5.27579 12.5716 5.38967L10.0237 7.24083C9.60314 7.5464 9.42715 8.08804 9.5878 8.58247L10.561 11.5777C10.6209 11.762 10.41 11.9152 10.2532 11.8013L7.70534 9.95015C7.28476 9.64458 6.71524 9.64458 6.29466 9.95016L3.74675 11.8013C3.59001 11.9152 3.37911 11.762 3.43899 11.5777L4.4122 8.58247C4.57285 8.08804 4.39686 7.5464 3.97627 7.24083L1.42837 5.38967C1.27163 5.27579 1.35218 5.02786 1.54593 5.02786H4.69531C5.21518 5.02786 5.67593 4.69311 5.83658 4.19868L6.80979 1.20344Z" fill="#2A0D32" stroke="#2A0D32"/>
</svg>
