<svg width="60" height="60" viewBox="0 0 60 60" fill="none" xmlns="http://www.w3.org/2000/svg">
<circle cx="30" cy="30" r="30" fill="#FDEB56" fill-opacity="0.15"/>
<path d="M33.4664 24.7667C33.4664 23.8111 33.1498 23.0444 32.5164 22.4667C31.8831 21.8889 31.0442 21.6 29.9998 21.6C29.3553 21.6 28.772 21.7389 28.2498 22.0167C27.7275 22.2944 27.2775 22.7 26.8998 23.2333C26.5442 23.7444 26.0609 24.0389 25.4498 24.1167C24.8386 24.1944 24.3109 24.0333 23.8664 23.6333C23.5553 23.3444 23.3831 22.9889 23.3498 22.5667C23.3164 22.1444 23.422 21.7444 23.6664 21.3667C24.3775 20.3 25.2831 19.4722 26.3831 18.8833C27.4831 18.2944 28.6886 18 29.9998 18C32.1553 18 33.9053 18.6111 35.2498 19.8333C36.5942 21.0556 37.2664 22.6556 37.2664 24.6333C37.2664 25.6333 37.0553 26.5333 36.6331 27.3333C36.2109 28.1333 35.4331 29.0778 34.2998 30.1667C33.4775 30.9444 32.922 31.55 32.6331 31.9833C32.3442 32.4167 32.1553 32.9111 32.0664 33.4667C31.9775 34 31.7498 34.4444 31.3831 34.8C31.0164 35.1556 30.5775 35.3333 30.0664 35.3333C29.5553 35.3333 29.1164 35.1611 28.7498 34.8167C28.3831 34.4722 28.1997 34.0444 28.1997 33.5333C28.1997 32.6667 28.3886 31.8722 28.7664 31.15C29.1442 30.4278 29.7775 29.6667 30.6664 28.8667C31.7998 27.8667 32.5498 27.0944 32.9164 26.55C33.2831 26.0056 33.4664 25.4111 33.4664 24.7667ZM29.9998 43.3333C29.2664 43.3333 28.6386 43.0722 28.1164 42.55C27.5942 42.0278 27.3331 41.4 27.3331 40.6667C27.3331 39.9333 27.5942 39.3056 28.1164 38.7833C28.6386 38.2611 29.2664 38 29.9998 38C30.7331 38 31.3609 38.2611 31.8831 38.7833C32.4053 39.3056 32.6664 39.9333 32.6664 40.6667C32.6664 41.4 32.4053 42.0278 31.8831 42.55C31.3609 43.0722 30.7331 43.3333 29.9998 43.3333Z" fill="#FDEB56"/>
</svg>
