<svg width="21" height="21" viewBox="0 0 21 21" fill="none" xmlns="http://www.w3.org/2000/svg">
<path d="M9.66797 11.3337H5.5013C5.26519 11.3337 5.06727 11.2538 4.90755 11.0941C4.74783 10.9344 4.66797 10.7364 4.66797 10.5003C4.66797 10.2642 4.74783 10.0663 4.90755 9.90658C5.06727 9.74685 5.26519 9.66699 5.5013 9.66699H9.66797V5.50033C9.66797 5.26421 9.74783 5.0663 9.90755 4.90658C10.0673 4.74685 10.2652 4.66699 10.5013 4.66699C10.7374 4.66699 10.9353 4.74685 11.0951 4.90658C11.2548 5.0663 11.3346 5.26421 11.3346 5.50033V9.66699H15.5013C15.7374 9.66699 15.9353 9.74685 16.0951 9.90658C16.2548 10.0663 16.3346 10.2642 16.3346 10.5003C16.3346 10.7364 16.2548 10.9344 16.0951 11.0941C15.9353 11.2538 15.7374 11.3337 15.5013 11.3337H11.3346V15.5003C11.3346 15.7364 11.2548 15.9344 11.0951 16.0941C10.9353 16.2538 10.7374 16.3337 10.5013 16.3337C10.2652 16.3337 10.0673 16.2538 9.90755 16.0941C9.74783 15.9344 9.66797 15.7364 9.66797 15.5003V11.3337Z" fill="#3D2644"/>
</svg>
