<svg width="20" height="20" viewBox="0 0 20 20" fill="none" xmlns="http://www.w3.org/2000/svg">
<path d="M10.0013 11.167L12.418 13.5837C12.5707 13.7364 12.7652 13.8128 13.0013 13.8128C13.2374 13.8128 13.4319 13.7364 13.5846 13.5837C13.7374 13.4309 13.8138 13.2364 13.8138 13.0003C13.8138 12.7642 13.7374 12.5698 13.5846 12.417L11.168 10.0003L13.5846 7.58366C13.7374 7.43088 13.8138 7.23644 13.8138 7.00033C13.8138 6.76421 13.7374 6.56977 13.5846 6.41699C13.4319 6.26421 13.2374 6.18783 13.0013 6.18783C12.7652 6.18783 12.5707 6.26421 12.418 6.41699L10.0013 8.83366L7.58464 6.41699C7.43186 6.26421 7.23741 6.18783 7.0013 6.18783C6.76519 6.18783 6.57075 6.26421 6.41797 6.41699C6.26519 6.56977 6.1888 6.76421 6.1888 7.00033C6.1888 7.23644 6.26519 7.43088 6.41797 7.58366L8.83463 10.0003L6.41797 12.417C6.26519 12.5698 6.1888 12.7642 6.1888 13.0003C6.1888 13.2364 6.26519 13.4309 6.41797 13.5837C6.57075 13.7364 6.76519 13.8128 7.0013 13.8128C7.23741 13.8128 7.43186 13.7364 7.58464 13.5837L10.0013 11.167ZM10.0013 18.3337C8.84852 18.3337 7.76519 18.1149 6.7513 17.6774C5.73741 17.2399 4.85547 16.6462 4.10547 15.8962C3.35547 15.1462 2.76172 14.2642 2.32422 13.2503C1.88672 12.2364 1.66797 11.1531 1.66797 10.0003C1.66797 8.84755 1.88672 7.76421 2.32422 6.75033C2.76172 5.73644 3.35547 4.85449 4.10547 4.10449C4.85547 3.35449 5.73741 2.76074 6.7513 2.32324C7.76519 1.88574 8.84852 1.66699 10.0013 1.66699C11.1541 1.66699 12.2374 1.88574 13.2513 2.32324C14.2652 2.76074 15.1471 3.35449 15.8971 4.10449C16.6471 4.85449 17.2409 5.73644 17.6784 6.75033C18.1159 7.76421 18.3346 8.84755 18.3346 10.0003C18.3346 11.1531 18.1159 12.2364 17.6784 13.2503C17.2409 14.2642 16.6471 15.1462 15.8971 15.8962C15.1471 16.6462 14.2652 17.2399 13.2513 17.6774C12.2374 18.1149 11.1541 18.3337 10.0013 18.3337Z" fill="#A99FAC"/>
</svg>
