<svg width="12" height="13" viewBox="0 0 12 13" fill="none" xmlns="http://www.w3.org/2000/svg">
<path fill-rule="evenodd" clip-rule="evenodd" d="M2.06409 1.5H9.93591C10.5238 1.5 11 1.99053 11 2.59613V3.36188C11 3.65566 10.8852 3.93778 10.6813 4.14354L7.42883 7.43351C7.37272 7.49078 7.29653 7.5226 7.21776 7.52207L4.49447 7.51359C4.41158 7.51359 4.33282 7.47806 4.27619 7.41601L1.28726 4.12869C1.10245 3.92559 1 3.65725 1 3.37885V2.59666C1 1.99106 1.47619 1.5 2.06409 1.5ZM4.64005 8.41207L7.06734 8.4195C7.21869 8.42003 7.34121 8.54677 7.34121 8.70214V10.0677C7.34121 10.2236 7.25266 10.3646 7.1147 10.4299L4.91135 11.4645C4.85987 11.4883 4.8053 11.5 4.75073 11.5C4.67815 11.5 4.60556 11.4788 4.54224 11.4369C4.43156 11.3637 4.36463 11.2375 4.36463 11.1023V8.69472C4.36463 8.53828 4.48819 8.41154 4.64005 8.41207Z" fill="#8EC9ED"/>
</svg>
