<svg xmlns="http://www.w3.org/2000/svg" width="28" height="28" viewBox="0 0 28 28" fill="none">
  <path fill-rule="evenodd" clip-rule="evenodd" d="M20.8683 14.1708C20.4389 14.1708 20.0644 13.8547 20.0026 13.4172C19.9361 12.9377 20.2686 12.4955 20.7481 12.429C21.9614 12.2587 22.8773 11.2063 22.8796 9.97901C22.8796 8.76218 22.0069 7.73318 20.8041 7.53601C20.3281 7.45784 20.0049 7.00751 20.0831 6.53034C20.1624 6.05318 20.6093 5.73351 21.0888 5.80934C23.1398 6.14651 24.6296 7.90118 24.6296 9.98134C24.6249 12.0755 23.0604 13.8722 20.9896 14.1627C20.9488 14.1685 20.9079 14.1708 20.8683 14.1708" fill="#A99FAC"/>
  <mask id="mask0_218_3457" style="mask-type:luminance" maskUnits="userSpaceOnUse" x="22" y="16" width="5" height="6">
    <path fill-rule="evenodd" clip-rule="evenodd" d="M22.1416 16.3352H26.5679V21.6197H22.1416V16.3352Z" fill="white"/>
  </mask>
  <g mask="url(#mask0_218_3457)">
    <path fill-rule="evenodd" clip-rule="evenodd" d="M24.3388 21.6197C23.9864 21.6197 23.6539 21.405 23.5209 21.0562C23.3483 20.6047 23.5758 20.0984 24.0273 19.9269C24.8183 19.6259 24.8183 19.2934 24.8183 19.1335C24.8183 18.6225 24.1684 18.2655 22.8874 18.0742C22.4103 18.0019 22.0801 17.5574 22.1513 17.0779C22.2224 16.5995 22.6658 16.281 23.1476 16.3429C25.9744 16.7664 26.5683 18.094 26.5683 19.1335C26.5683 19.7682 26.3186 20.9267 24.6503 21.5625C24.5476 21.601 24.4426 21.6197 24.3388 21.6197" fill="#A99FAC"/>
  </g>
  <path fill-rule="evenodd" clip-rule="evenodd" d="M13.8682 18.5663C11.0962 18.5663 7.79102 18.907 7.79102 20.5286C7.79102 22.1631 11.0962 22.5061 13.8682 22.5061C16.6402 22.5061 19.9442 22.1666 19.9442 20.5485C19.9442 18.9105 16.6402 18.5663 13.8682 18.5663M13.8682 24.2561C11.9327 24.2561 6.04102 24.2561 6.04102 20.5286C6.04102 16.8163 11.9327 16.8163 13.8682 16.8163C15.8037 16.8163 21.6942 16.8163 21.6942 20.5485C21.6942 24.2561 16.009 24.2561 13.8682 24.2561" fill="#A99FAC"/>
  <path fill-rule="evenodd" clip-rule="evenodd" d="M13.868 6.41663C11.894 6.41663 10.2886 8.02313 10.2886 9.99713C10.2851 10.9538 10.6515 11.8486 11.3223 12.5241C11.9931 13.1996 12.8868 13.5741 13.8388 13.5776L13.868 14.4526V13.5776C15.842 13.5776 17.4485 11.9723 17.4485 9.99713C17.4485 8.02313 15.842 6.41663 13.868 6.41663M13.868 15.3276H13.8365C12.4131 15.323 11.0796 14.7653 10.081 13.7573C9.07995 12.7505 8.53279 11.4135 8.53862 9.99363C8.53862 7.05829 10.9291 4.66663 13.868 4.66663C16.808 4.66663 19.1985 7.05829 19.1985 9.99713C19.1985 12.936 16.808 15.3276 13.868 15.3276" fill="#A99FAC"/>
  <path fill-rule="evenodd" clip-rule="evenodd" d="M6.8671 14.1708C6.82743 14.1708 6.7866 14.1685 6.74577 14.1627C4.67493 13.8722 3.1116 12.0755 3.10693 9.98365C3.10693 7.90115 4.59677 6.14648 6.64777 5.80932C7.13893 5.73232 7.5741 6.05548 7.65343 6.53032C7.7316 7.00748 7.40843 7.45782 6.93243 7.53598C5.7296 7.73315 4.85693 8.76215 4.85693 9.98132C4.85927 11.2063 5.7751 12.2598 6.98727 12.429C7.46677 12.4955 7.79927 12.9377 7.73277 13.4172C7.67093 13.8547 7.29643 14.1708 6.8671 14.1708" fill="#A99FAC"/>
  <path fill-rule="evenodd" clip-rule="evenodd" d="M3.39766 21.6197C3.29383 21.6197 3.18883 21.601 3.08616 21.5625C1.41666 20.9255 1.16699 19.767 1.16699 19.1335C1.16699 18.0952 1.76083 16.7664 4.58883 16.3429C5.07066 16.2822 5.51166 16.5995 5.58399 17.0779C5.65516 17.5574 5.32499 18.0019 4.84783 18.0742C3.56683 18.2655 2.91699 18.6225 2.91699 19.1335C2.91699 19.2934 2.91699 19.6247 3.70916 19.9269C4.16066 20.0984 4.38816 20.6047 4.21549 21.0562C4.08249 21.405 3.74999 21.6197 3.39766 21.6197" fill="#A99FAC"/>
</svg>