<svg width="23" height="17" viewBox="0 0 23 17" fill="none" xmlns="http://www.w3.org/2000/svg">
<path fill-rule="evenodd" clip-rule="evenodd" d="M17.3868 8.14651C17.0188 8.14651 16.6978 7.87551 16.6448 7.50051C16.5878 7.08951 16.8728 6.71051 17.2838 6.65351C18.3238 6.50751 19.1088 5.60551 19.1108 4.55351C19.1108 3.51051 18.3628 2.62851 17.3318 2.45951C16.9238 2.39251 16.6468 2.00651 16.7138 1.59751C16.7818 1.18851 17.1648 0.914506 17.5758 0.979506C19.3338 1.26851 20.6108 2.77251 20.6108 4.55551C20.6068 6.35051 19.2658 7.89051 17.4908 8.13951C17.4558 8.14451 17.4208 8.14651 17.3868 8.14651Z" fill="url(#paint0_linear_4194_460)"/>
<mask id="mask0_4194_460" style="mask-type:luminance" maskUnits="userSpaceOnUse" x="18" y="10" width="5" height="5">
<path fill-rule="evenodd" clip-rule="evenodd" d="M18.4781 10.0016H22.2721V14.5312H18.4781V10.0016Z" fill="white"/>
</mask>
<g mask="url(#mask0_4194_460)">
<path fill-rule="evenodd" clip-rule="evenodd" d="M20.3614 14.5312C20.0594 14.5312 19.7744 14.3472 19.6604 14.0482C19.5124 13.6612 19.7074 13.2272 20.0944 13.0802C20.7724 12.8222 20.7724 12.5372 20.7724 12.4002C20.7724 11.9622 20.2154 11.6562 19.1174 11.4922C18.7084 11.4302 18.4254 11.0492 18.4864 10.6382C18.5474 10.2282 18.9274 9.95522 19.3404 10.0082C21.7634 10.3712 22.2724 11.5092 22.2724 12.4002C22.2724 12.9442 22.0584 13.9372 20.6284 14.4822C20.5404 14.5152 20.4504 14.5312 20.3614 14.5312Z" fill="url(#paint1_linear_4194_460)"/>
</g>
<path fill-rule="evenodd" clip-rule="evenodd" d="M11.3867 11.914C9.0107 11.914 6.1777 12.206 6.1777 13.596C6.1777 14.997 9.0107 15.291 11.3867 15.291C13.7627 15.291 16.5947 15 16.5947 13.613C16.5947 12.209 13.7627 11.914 11.3867 11.914ZM11.3867 16.791C9.7277 16.791 4.6777 16.791 4.6777 13.596C4.6777 10.414 9.7277 10.414 11.3867 10.414C13.0457 10.414 18.0947 10.414 18.0947 13.613C18.0947 16.791 13.2217 16.791 11.3867 16.791Z" fill="url(#paint2_linear_4194_460)"/>
<path fill-rule="evenodd" clip-rule="evenodd" d="M11.3867 1.5C9.6947 1.5 8.3187 2.877 8.3187 4.569C8.3157 5.389 8.6297 6.156 9.2047 6.735C9.7797 7.314 10.5457 7.635 11.3617 7.638L11.3867 8.388V7.638C13.0787 7.638 14.4557 6.262 14.4557 4.569C14.4557 2.877 13.0787 1.5 11.3867 1.5ZM11.3867 9.138H11.3597C10.1397 9.134 8.9967 8.656 8.1407 7.792C7.2827 6.929 6.8137 5.783 6.8187 4.566C6.8187 2.05 8.8677 0 11.3867 0C13.9067 0 15.9557 2.05 15.9557 4.569C15.9557 7.088 13.9067 9.138 11.3867 9.138Z" fill="url(#paint3_linear_4194_460)"/>
<path fill-rule="evenodd" clip-rule="evenodd" d="M5.38569 8.14651C5.35169 8.14651 5.31669 8.14451 5.28169 8.13951C3.50669 7.89051 2.16669 6.35051 2.16269 4.55751C2.16269 2.77251 3.43969 1.26851 5.19769 0.979511C5.61869 0.913511 5.99169 1.19051 6.05969 1.59751C6.12669 2.00651 5.84969 2.39251 5.44169 2.45951C4.41069 2.62851 3.66269 3.51051 3.66269 4.55551C3.66469 5.60551 4.44969 6.50851 5.48869 6.65351C5.89969 6.71051 6.18469 7.08951 6.12769 7.50051C6.07469 7.87551 5.75369 8.14651 5.38569 8.14651Z" fill="url(#paint4_linear_4194_460)"/>
<path fill-rule="evenodd" clip-rule="evenodd" d="M2.41209 14.5312C2.32309 14.5312 2.23309 14.5152 2.14509 14.4822C0.714092 13.9362 0.500092 12.9432 0.500092 12.4002C0.500092 11.5102 1.00909 10.3712 3.43309 10.0082C3.84609 9.95619 4.22409 10.2282 4.28609 10.6382C4.34709 11.0492 4.06409 11.4302 3.65509 11.4922C2.55709 11.6562 2.00009 11.9622 2.00009 12.4002C2.00009 12.5372 2.00009 12.8212 2.67909 13.0802C3.06609 13.2272 3.26109 13.6612 3.11309 14.0482C2.99909 14.3472 2.71409 14.5312 2.41209 14.5312Z" fill="url(#paint5_linear_4194_460)"/>
<defs>
<linearGradient id="paint0_linear_4194_460" x1="16.6375" y1="4.76931" x2="20.6108" y2="4.76931" gradientUnits="userSpaceOnUse">
<stop stop-color="#F71756"/>
<stop offset="1" stop-color="#FDEB56"/>
</linearGradient>
<linearGradient id="paint1_linear_4194_460" x1="18.4781" y1="12.3997" x2="22.2724" y2="12.3997" gradientUnits="userSpaceOnUse">
<stop stop-color="#F71756"/>
<stop offset="1" stop-color="#FDEB56"/>
</linearGradient>
<linearGradient id="paint2_linear_4194_460" x1="4.6777" y1="13.7901" x2="18.0947" y2="13.7901" gradientUnits="userSpaceOnUse">
<stop stop-color="#F71756"/>
<stop offset="1" stop-color="#FDEB56"/>
</linearGradient>
<linearGradient id="paint3_linear_4194_460" x1="6.81866" y1="4.83776" x2="15.9557" y2="4.83776" gradientUnits="userSpaceOnUse">
<stop stop-color="#F71756"/>
<stop offset="1" stop-color="#FDEB56"/>
</linearGradient>
<linearGradient id="paint4_linear_4194_460" x1="2.16269" y1="4.76923" x2="6.13494" y2="4.76923" gradientUnits="userSpaceOnUse">
<stop stop-color="#F71756"/>
<stop offset="1" stop-color="#FDEB56"/>
</linearGradient>
<linearGradient id="paint5_linear_4194_460" x1="0.500092" y1="12.3997" x2="4.29436" y2="12.3997" gradientUnits="userSpaceOnUse">
<stop stop-color="#F71756"/>
<stop offset="1" stop-color="#FDEB56"/>
</linearGradient>
</defs>
</svg>
