<svg width="30" height="17" viewBox="0 0 30 17" fill="none" xmlns="http://www.w3.org/2000/svg">
<rect x="1" y="1" width="28" height="15" rx="7.5" fill="#8EC9ED"/>
<rect x="1" y="1" width="28" height="15" rx="7.5" stroke="#19081D" stroke-width="2"/>
<path d="M9.92 5.4H10.84V11H10.12L7.48 7.2V11H6.56V5.4H7.28L9.92 9.2V5.4ZM12.8784 10.12H15.3584V11H11.9584V5.4H15.3184V6.28H12.8784V7.736H15.1184V8.608H12.8784V10.12ZM17.3846 11L15.8006 5.4H16.7686L17.9446 9.776L19.2166 5.4H20.0646L21.3286 9.776L22.5046 5.4H23.4726L21.8886 11H20.8246L19.6406 6.912L18.4486 11H17.3846Z" fill="#17242C"/>
</svg>
