<svg width="33" height="24" viewBox="0 0 33 24" fill="none" xmlns="http://www.w3.org/2000/svg">
<path fill-rule="evenodd" clip-rule="evenodd" d="M21.7872 10.5392C21.6518 10.6708 21.4681 10.7459 21.2747 10.7459C20.559 10.7459 19.9787 11.3096 19.9787 11.9955C19.9787 12.686 20.5522 13.2469 21.2611 13.2544C21.6605 13.2582 22 13.5288 22 13.9168V16.3267C22 18.3551 20.3075 20.0002 18.2186 20.0002H15.0658C14.7398 20.0002 14.4758 19.7437 14.4758 19.4271V17.3977C14.4758 17.0031 14.1567 16.6931 13.7505 16.6931C13.354 16.6931 13.0251 17.0031 13.0251 17.3977V19.4271C13.0251 19.7437 12.7611 20.0002 12.4362 20.0002H5.78143C3.70213 20.0002 2 18.356 2 16.3267V13.9168C2 13.5288 2.33946 13.2582 2.73888 13.2544C3.44874 13.2469 4.02128 12.686 4.02128 11.9955C4.02128 11.3284 3.46035 10.8211 2.72534 10.8211C2.53191 10.8211 2.34816 10.7459 2.21277 10.6144C2.07737 10.4829 2 10.3043 2 10.1164V7.68309C2 5.65749 3.706 4.00018 5.7911 4.00018H12.4362C12.7611 4.00018 13.0251 4.25666 13.0251 4.57328V6.97845C13.0251 7.36365 13.354 7.68309 13.7505 7.68309C14.1567 7.68309 14.4758 7.36365 14.4758 6.97845V4.57328C14.4758 4.25666 14.7398 4.00018 15.0658 4.00018H18.2186C20.3075 4.00018 22 5.64433 22 7.67369V10.0413C22 10.2292 21.9226 10.4077 21.7872 10.5392ZM13.7503 14.8704C14.1565 14.8704 14.4756 14.551 14.4756 14.1658V10.4077C14.4756 10.0225 14.1565 9.70309 13.7503 9.70309C13.3538 9.70309 13.025 10.0225 13.025 10.4077V14.1658C13.025 14.551 13.3538 14.8704 13.7503 14.8704Z" fill="#8EC9ED"/>
<line x1="32.5" y1="2" x2="32.5" y2="22" stroke="white" stroke-opacity="0.08"/>
</svg>
