<svg width="33" height="24" viewBox="0 0 33 24" fill="none" xmlns="http://www.w3.org/2000/svg">
<path d="M3.90639 19.7147C3.77845 19.9007 3.56719 20.0117 3.34147 20.0117H1.35157C0.790208 20.0117 0.466684 19.3741 0.798218 18.9211L5.63192 12.3163C5.66866 12.2661 5.68847 12.2055 5.68847 12.1432C5.68847 12.0785 5.66702 12.0156 5.62747 11.9643L2.73307 8.21186C2.38534 7.76105 2.70669 7.10734 3.27603 7.10734H5.23932C5.45569 7.10734 5.65937 7.20946 5.7888 7.38284L7.96394 10.2964C7.99988 10.3446 8.05643 10.3729 8.11651 10.3729C8.17921 10.3729 8.2379 10.3421 8.27342 10.2904L12.1959 4.583C12.3238 4.39688 12.5352 4.28568 12.761 4.28568H14.7574C15.3175 4.28568 15.6414 4.92082 15.3124 5.37414L10.4848 12.0265C10.4484 12.0766 10.4289 12.1369 10.4289 12.1988C10.4289 12.2639 10.4505 12.3271 10.4904 12.3785L13.3637 16.0842C13.713 16.5347 13.3919 17.1901 12.8218 17.1901H10.8652C10.6476 17.1901 10.4429 17.0868 10.3136 16.9117L8.15321 13.9865C8.11741 13.938 8.06073 13.9094 8.00048 13.9094C7.93798 13.9094 7.87949 13.9402 7.84407 13.9917L3.90639 19.7147Z" fill="#8EC9ED"/>
<path d="M17.3484 16.5044C17.3484 16.8831 17.0414 17.1901 16.6627 17.1901H15.2049C14.8262 17.1901 14.5192 16.8831 14.5192 16.5044V7.79305C14.5192 7.41434 14.8262 7.10734 15.2049 7.10734H20.1023C22.4951 7.10734 24 8.47678 24 10.8696C24 13.2623 22.4951 14.6468 20.1023 14.6468H18.0341C17.6554 14.6468 17.3484 14.9538 17.3484 15.3325V16.5044ZM19.7863 9.65059H18.0341C17.6554 9.65059 17.3484 9.9576 17.3484 10.3363V11.4178C17.3484 11.7966 17.6554 12.1036 18.0341 12.1036H19.7863C20.7795 12.1036 21.1859 11.9079 21.1859 10.8696C21.1859 9.84623 20.7795 9.65059 19.7863 9.65059Z" fill="#8EC9ED"/>
<line x1="32.5" y1="2" x2="32.5" y2="22" stroke="white" stroke-opacity="0.08"/>
</svg>
