<svg width="33" height="24" viewBox="0 0 33 24" fill="none" xmlns="http://www.w3.org/2000/svg">
<path d="M3.90639 19.7147C3.77845 19.9006 3.56719 20.0117 3.34147 20.0117H1.35157C0.790208 20.0117 0.466684 19.374 0.798218 18.921L5.63192 12.3162C5.66866 12.266 5.68847 12.2054 5.68847 12.1432C5.68847 12.0785 5.66702 12.0155 5.62747 11.9643L2.73307 8.21183C2.38534 7.76102 2.70669 7.10731 3.27603 7.10731H5.23932C5.45569 7.10731 5.65937 7.20943 5.7888 7.38281L7.96394 10.2964C7.99988 10.3446 8.05643 10.3729 8.11651 10.3729C8.17921 10.3729 8.2379 10.342 8.27342 10.2904L12.1959 4.58297C12.3238 4.39685 12.5352 4.28564 12.761 4.28564H14.7574C15.3175 4.28564 15.6414 4.92079 15.3124 5.3741L10.4848 12.0265C10.4484 12.0766 10.4289 12.1369 10.4289 12.1988C10.4289 12.2638 10.4505 12.3271 10.4904 12.3785L13.3637 16.0842C13.713 16.5347 13.3919 17.19 12.8218 17.19H10.8652C10.6476 17.19 10.4429 17.0868 10.3136 16.9117L8.15321 13.9865C8.11741 13.938 8.06073 13.9094 8.00048 13.9094C7.93798 13.9094 7.87949 13.9401 7.84407 13.9916L3.90639 19.7147Z" fill="#FDEB56"/>
<path d="M17.3484 16.5043C17.3484 16.883 17.0414 17.19 16.6627 17.19H15.2049C14.8262 17.19 14.5192 16.883 14.5192 16.5043V7.79302C14.5192 7.41431 14.8262 7.10731 15.2049 7.10731H20.1023C22.4951 7.10731 24 8.47675 24 10.8695C24 13.2623 22.4951 14.6468 20.1023 14.6468H18.0341C17.6554 14.6468 17.3484 14.9538 17.3484 15.3325V16.5043ZM19.7863 9.65056H18.0341C17.6554 9.65056 17.3484 9.95757 17.3484 10.3363V11.4178C17.3484 11.7965 17.6554 12.1035 18.0341 12.1035H19.7863C20.7795 12.1035 21.1859 11.9079 21.1859 10.8695C21.1859 9.8462 20.7795 9.65056 19.7863 9.65056Z" fill="#FDEB56"/>
<line x1="32.5" y1="2" x2="32.5" y2="22" stroke="white" stroke-opacity="0.08"/>
</svg>
