<svg width="30" height="30" viewBox="0 0 30 30" fill="none" xmlns="http://www.w3.org/2000/svg">
<g id="newspaper-icon 4">
<g id="Group 1171275547">
<path id="Vector 2" d="M7.98162 10.8261C7.98162 10.8261 7.98096 18.4777 7.98096 23.3478C7.98096 28.2179 2.99977 28.1501 3 23.3478C3.00023 18.5455 3.00044 10.8261 3.00044 10.8261H7.98162ZM7.98162 10.8261L7.98095 3H27C27 3 27 21.7826 27 23.3478C27 24.913 25.6415 27 24.283 27C22.9245 27 5.71678 27 5.71678 27M11.1508 15.5217H16.5848M11.1508 18.1304H16.5848M11.1508 21.2609H16.5848M18.849 15.5217H24.283M18.849 18.1304H24.283M18.849 21.2609H24.283" stroke="#A99FAC" stroke-width="1.8"/>
<g id="NEWS">
<path id="Vector" d="M22.4975 12.2734C22.1327 12.2734 21.8287 12.1982 21.5855 12.0478C21.3423 11.8942 21.1791 11.6878 21.0959 11.4286L21.9167 10.9534C22.0287 11.2382 22.2303 11.3806 22.5215 11.3806C22.7391 11.3806 22.8479 11.323 22.8479 11.2078C22.8479 11.1758 22.8399 11.147 22.8239 11.1214C22.8079 11.0958 22.7775 11.0734 22.7327 11.0542C22.6879 11.035 22.6479 11.0206 22.6127 11.011C22.5807 10.9982 22.5231 10.9806 22.4399 10.9582C22.3567 10.9358 22.2943 10.9182 22.2527 10.9054C21.5839 10.7038 21.2495 10.3438 21.2495 9.82537C21.2495 9.51817 21.3599 9.26377 21.5807 9.06217C21.8047 8.86057 22.0975 8.75977 22.4591 8.75977C22.7439 8.75977 22.9983 8.82697 23.2223 8.96137C23.4495 9.09577 23.6159 9.28937 23.7215 9.54217L22.9247 10.0078C22.8319 9.77097 22.6783 9.65257 22.4639 9.65257C22.3807 9.65257 22.3167 9.67017 22.2719 9.70537C22.2303 9.73737 22.2095 9.77897 22.2095 9.83017C22.2095 9.90057 22.2463 9.95497 22.3199 9.99337C22.3967 10.0318 22.5423 10.0814 22.7567 10.1422C22.9167 10.1902 23.0479 10.2366 23.1503 10.2814C23.2527 10.323 23.3599 10.3838 23.4719 10.4638C23.5839 10.5406 23.6671 10.6414 23.7215 10.7662C23.7791 10.8878 23.8079 11.0318 23.8079 11.1982C23.8079 11.5406 23.6895 11.8062 23.4527 11.995C23.2191 12.1806 22.9007 12.2734 22.4975 12.2734Z" fill="#A99FAC"/>
<path id="Vector_2" d="M17.2451 12.1969L16.2947 8.83691H17.3507L17.8067 10.6849L18.3491 8.83691H19.0883L19.6307 10.6849L20.0867 8.83691H21.1427L20.1923 12.1969H19.2467L18.7187 10.4017L18.1907 12.1969H17.2451Z" fill="#A99FAC"/>
<path id="Vector_3" d="M14.9024 11.3137H16.1504V12.1969H13.9424V8.83691H16.1264V9.71051H14.9024V10.0753H16.0064V10.9393H14.9024V11.3137Z" fill="#A99FAC"/>
<path id="Vector_4" d="M12.5039 8.83691H13.4639V12.1969H12.6959L11.6399 10.6609V12.1969H10.6799V8.83691H11.4479L12.5039 10.3729V8.83691Z" fill="#A99FAC"/>
</g>
</g>
</g>
</svg>
