<svg width="42" height="42" viewBox="0 0 42 42" fill="none" xmlns="http://www.w3.org/2000/svg">
<rect width="42" height="42" rx="4" fill="#BC5AD7" fill-opacity="0.15"/>
<path fill-rule="evenodd" clip-rule="evenodd" d="M30.7872 19.539C30.6518 19.6705 30.4681 19.7457 30.2747 19.7457C29.559 19.7457 28.9787 20.3094 28.9787 20.9952C28.9787 21.6858 29.5522 22.2467 30.2611 22.2542C30.6605 22.258 31 22.5285 31 22.9166V25.3264C31 27.3548 29.3075 28.9999 27.2186 28.9999H24.0658C23.7398 28.9999 23.4758 28.7435 23.4758 28.4268V26.3975C23.4758 26.0029 23.1567 25.6928 22.7505 25.6928C22.354 25.6928 22.0251 26.0029 22.0251 26.3975V28.4268C22.0251 28.7435 21.7611 28.9999 21.4362 28.9999H14.7814C12.7021 28.9999 11 27.3558 11 25.3264V22.9166C11 22.5285 11.3395 22.258 11.7389 22.2542C12.4487 22.2467 13.0213 21.6858 13.0213 20.9952C13.0213 20.3282 12.4603 19.8208 11.7253 19.8208C11.5319 19.8208 11.3482 19.7457 11.2128 19.6142C11.0774 19.4826 11 19.3041 11 19.1162V16.6829C11 14.6572 12.706 12.9999 14.7911 12.9999H21.4362C21.7611 12.9999 22.0251 13.2564 22.0251 13.573V15.9782C22.0251 16.3634 22.354 16.6829 22.7505 16.6829C23.1567 16.6829 23.4758 16.3634 23.4758 15.9782V13.573C23.4758 13.2564 23.7398 12.9999 24.0658 12.9999H27.2186C29.3075 12.9999 31 14.6441 31 16.6735V19.041C31 19.2289 30.9226 19.4075 30.7872 19.539ZM22.7507 23.8701C23.1569 23.8701 23.4761 23.5507 23.4761 23.1655V19.4074C23.4761 19.0222 23.1569 18.7028 22.7507 18.7028C22.3542 18.7028 22.0254 19.0222 22.0254 19.4074V23.1655C22.0254 23.5507 22.3542 23.8701 22.7507 23.8701Z" fill="#BC5AD7"/>
</svg>
