<svg width="42" height="42" viewBox="0 0 42 42" fill="none" xmlns="http://www.w3.org/2000/svg">
<rect width="42" height="42" rx="4" fill="#FDEB56" fill-opacity="0.15"/>
<path d="M12.9064 28.429C12.7784 28.615 12.5672 28.7261 12.3415 28.7261H10.3516C9.79021 28.7261 9.46668 28.0884 9.79822 27.6354L14.6319 21.0306C14.6687 20.9804 14.6885 20.9198 14.6885 20.8576C14.6885 20.7928 14.667 20.7299 14.6275 20.6786L11.7331 16.9262C11.3853 16.4754 11.7067 15.8217 12.276 15.8217H14.2393C14.4557 15.8217 14.6594 15.9238 14.7888 16.0972L16.9639 19.0108C16.9999 19.0589 17.0564 19.0873 17.1165 19.0873C17.1792 19.0873 17.2379 19.0564 17.2734 19.0047L21.1959 13.2973C21.3238 13.1112 21.5352 13 21.761 13H23.7574C24.3175 13 24.6414 13.6351 24.3124 14.0885L19.4848 20.7408C19.4484 20.7909 19.4289 20.8512 19.4289 20.9131C19.4289 20.9782 19.4505 21.0414 19.4904 21.0929L22.3637 24.7985C22.713 25.2491 22.3919 25.9044 21.8218 25.9044H19.8652C19.6476 25.9044 19.4429 25.8011 19.3136 25.6261L17.1532 22.7008C17.1174 22.6523 17.0607 22.6237 17.0005 22.6237C16.938 22.6237 16.8795 22.6545 16.8441 22.706L12.9064 28.429Z" fill="#FDEB56"/>
<path d="M26.3484 25.2187C26.3484 25.5974 26.0414 25.9044 25.6627 25.9044H24.2049C23.8262 25.9044 23.5192 25.5974 23.5192 25.2187V16.5074C23.5192 16.1287 23.8262 15.8217 24.2049 15.8217H29.1023C31.4951 15.8217 33 17.1911 33 19.5839C33 21.9766 31.4951 23.3611 29.1023 23.3611H27.0341C26.6554 23.3611 26.3484 23.6681 26.3484 24.0469V25.2187ZM28.7863 18.3649H27.0341C26.6554 18.3649 26.3484 18.6719 26.3484 19.0506V20.1322C26.3484 20.5109 26.6554 20.8179 27.0341 20.8179H28.7863C29.7795 20.8179 30.1859 20.6222 30.1859 19.5839C30.1859 18.5606 29.7795 18.3649 28.7863 18.3649Z" fill="#FDEB56"/>
</svg>
