<svg width="16" height="17" viewBox="0 0 16 17" fill="none" xmlns="http://www.w3.org/2000/svg">
<path fill-rule="evenodd" clip-rule="evenodd" d="M12.4691 6.36426C12.4691 7.20155 12.6904 7.69506 13.1774 8.26377C13.5465 8.68275 13.6644 9.22057 13.6644 9.80405C13.6644 10.3869 13.4729 10.9401 13.0893 11.3893C12.587 11.9278 11.8788 12.2716 11.1559 12.3314C10.1084 12.4207 9.06016 12.4959 7.99805 12.4959C6.93528 12.4959 5.88775 12.4509 4.84022 12.3314C4.11669 12.2716 3.4084 11.9278 2.90683 11.3893C2.5232 10.9401 2.33105 10.3869 2.33105 9.80405C2.33105 9.22057 2.44966 8.68275 2.81805 8.26377C3.32028 7.69506 3.527 7.20155 3.527 6.36426V6.08024C3.527 4.95893 3.80661 4.22572 4.38238 3.50795C5.23843 2.46117 6.61062 1.83337 7.96824 1.83337H8.02787C9.41464 1.83337 10.8312 2.49139 11.6727 3.58315C12.2187 4.28615 12.4691 4.98848 12.4691 6.08024V6.36426ZM6.0498 13.874C6.0498 13.5382 6.3579 13.3845 6.64281 13.3187C6.97608 13.2482 9.00687 13.2482 9.34015 13.3187C9.62506 13.3845 9.93315 13.5382 9.93315 13.874C9.91659 14.1936 9.72908 14.4769 9.47001 14.6569C9.13409 14.9187 8.73986 15.0846 8.32773 15.1443C8.09981 15.1739 7.87586 15.1745 7.65588 15.1443C7.2431 15.0846 6.84887 14.9187 6.51361 14.6562C6.25388 14.4769 6.06637 14.1936 6.0498 13.874Z" fill="#948798"/>
</svg>
