<svg width="42" height="42" viewBox="0 0 42 42" fill="none" xmlns="http://www.w3.org/2000/svg">
<rect width="42" height="42" rx="4" fill="#FBA178" fill-opacity="0.15"/>
<path d="M28.7141 28.7143C32.9746 24.4538 32.9746 17.5462 28.7141 13.2857C24.4537 9.02523 17.5461 9.02523 13.2856 13.2857C9.02509 17.5462 9.02509 24.4538 13.2856 28.7143C17.5461 32.9748 24.4537 32.9748 28.7141 28.7143Z" fill="url(#paint0_linear_3737_11534)"/>
<path d="M28.5287 18.4465L25.7701 18.0458L25.0163 17.9364L23.2249 17.6759L20.8532 12.8701L18.4813 17.6759L13.1777 18.4465L17.0156 22.1873L16.1096 27.4696L20.8532 24.9758L25.5969 27.4696L24.6908 22.1873L28.5287 18.4465Z" fill="url(#paint1_linear_3737_11534)"/>
<g style="mix-blend-mode:multiply" opacity="0.5">
<path d="M13.1489 18.4466L20.9615 20.4892L16.9865 22.1874L13.1489 18.4466Z" fill="#C10065"/>
</g>
<g style="mix-blend-mode:multiply" opacity="0.5">
<path d="M28.4996 18.4465L20.9614 20.4891L24.662 22.1873L28.4996 18.4465Z" fill="#C10065"/>
</g>
<g style="mix-blend-mode:multiply" opacity="0.7">
<path d="M20.8232 24.9759L20.9606 20.4893L16.0796 27.4697L20.8232 24.9759Z" fill="#C10065"/>
</g>
<g style="mix-blend-mode:multiply" opacity="0.5">
<path d="M25.5673 27.4697L20.9611 20.4893L20.8237 24.9759L25.5673 27.4697Z" fill="#C10065"/>
</g>
<g style="mix-blend-mode:soft-light">
<path d="M20.8237 12.8702L20.9611 20.4892L23.1957 17.676L20.8237 12.8702Z" fill="#F7FFFF"/>
</g>
<g style="mix-blend-mode:soft-light">
<path d="M28.4996 18.4465L20.9614 20.4892L23.196 17.6759L28.4996 18.4465Z" fill="#F7FFFF"/>
</g>
<g style="mix-blend-mode:soft-light">
<path d="M28.4996 18.4465L20.9614 20.4892L23.196 17.6759L28.4996 18.4465Z" fill="#F7FFFF"/>
</g>
<g style="mix-blend-mode:soft-light">
<path d="M18.4525 17.6761L20.9615 20.4894L13.1489 18.4467L18.4525 17.6761Z" fill="#F7FFFF"/>
</g>
<g style="mix-blend-mode:color-dodge" opacity="0.8">
<path d="M23.1978 19.3477C22.8037 19.6811 23.1402 19.8994 23.1402 19.8994L25.1709 19.3491C25.1709 19.3491 24.1089 18.5769 23.1978 19.3477Z" fill="white"/>
</g>
<g style="mix-blend-mode:soft-light" opacity="0.4">
<path d="M14.6484 21.7361C16.0099 23.4821 16.434 27.0664 14.6484 26.2731C12.8629 25.4799 11.4791 20.239 12.5993 20.4948C13.4136 20.6376 14.1448 21.0805 14.6484 21.7361Z" fill="#F7FFFF"/>
</g>
<g style="mix-blend-mode:soft-light" opacity="0.4">
<path d="M18.0345 28.843C19.2859 29.8904 25.4762 29.1647 24.1188 27.9555C22.7614 26.7462 21.158 25.9622 20.1038 26.386C19.0497 26.8097 17.4318 28.3385 18.0345 28.843Z" fill="#F7FFFF"/>
</g>
<g style="mix-blend-mode:soft-light" opacity="0.4">
<path d="M25.6803 22.5904C25.4665 25.0848 26.6295 26.6483 27.9473 25.4759C29.265 24.3035 29.9326 21.841 29.2816 21.153C28.6306 20.4649 25.7755 21.4801 25.6803 22.5904Z" fill="#F7FFFF"/>
</g>
<g style="mix-blend-mode:multiply" opacity="0.3">
<path d="M16.1069 27.4698C16.1069 27.4698 19.705 25.7748 20.8506 25.3028L25.5943 27.4698L20.8506 24.9759L16.1069 27.4698Z" fill="#D01BDC"/>
</g>
<g style="mix-blend-mode:soft-light">
<path d="M17.2583 17.8267C17.8681 17.6513 18.5636 17.509 19.7083 15.1896L18.4812 17.676L17.2583 17.8267Z" fill="#F7FFFF"/>
</g>
<g style="mix-blend-mode:soft-light">
<path d="M21.8579 14.9084C21.8579 14.9084 23.0463 17.3796 24.42 17.8498L23.2238 17.676L21.8579 14.9084Z" fill="#F7FFFF"/>
</g>
<g style="mix-blend-mode:multiply" opacity="0.3">
<path d="M13.1489 18.4466L20.9615 20.4892L16.6718 24.18L13.1489 18.4466Z" fill="#D01BDC"/>
</g>
<g style="mix-blend-mode:multiply" opacity="0.3">
<path d="M28.4996 18.4465L20.9614 20.4891L25.115 24.6713L28.4996 18.4465Z" fill="#D01BDC"/>
</g>
<g style="mix-blend-mode:multiply" opacity="0.3">
<path d="M16.1069 27.4696L20.9606 20.4892L25.5942 27.4696L20.8506 26.7203L16.1069 27.4696Z" fill="#D01BDC"/>
</g>
<g style="mix-blend-mode:soft-light" opacity="0.4">
<path d="M19.0855 16.8449C18.5809 18.2441 20.5031 19.2209 20.7618 18.7907C21.0206 18.3605 20.8563 15.9574 20.5317 15.6328C20.2072 15.3083 19.292 16.2721 19.0855 16.8449Z" fill="#F7FFFF"/>
</g>
<g style="mix-blend-mode:soft-light" opacity="0.4">
<path d="M17.5125 24.0126C18.534 24.1511 19.106 22.9879 19.3211 22.1876C19.6677 20.8981 15.6556 23.7608 17.5125 24.0126Z" fill="#F7FFFF"/>
</g>
<path d="M11.0245 8.97122C11.024 9.00405 11.0256 9.03687 11.0292 9.0695C11.0295 9.07347 11.0296 9.07737 11.0302 9.08172C11.0439 9.18368 11.0679 9.284 11.1018 9.38115L11.1027 9.38432C11.4441 10.1667 11.891 10.8987 12.431 11.5599C12.4355 11.566 12.44 11.5722 12.4446 11.5781C12.5443 11.7073 12.6268 11.811 12.6816 11.8786L12.6828 11.8799C12.7285 11.9366 12.7544 11.968 12.7544 11.968L12.8978 11.968L12.9394 11.9683L12.9395 11.968L13.4213 11.9684C14.0643 11.1084 14.6431 9.55557 14.6501 8.93883C14.6522 8.88474 14.6465 8.83062 14.6333 8.77812C14.5525 8.5671 14.4557 8.36253 14.3439 8.16617C13.8413 7.22494 12.86 5.63293 12.6488 5.65729C12.5162 5.67252 11.8071 6.85108 11.371 7.84761C11.1945 8.20055 11.0774 8.58019 11.0245 8.97122Z" fill="url(#paint2_linear_3737_11534)"/>
<path style="mix-blend-mode:multiply" opacity="0.5" d="M11.0245 8.9711C11.024 9.00392 11.0256 9.03675 11.0292 9.06938C11.0295 9.07334 11.0296 9.07725 11.0302 9.08159C11.0439 9.18356 11.0679 9.28388 11.1018 9.38103L11.1027 9.3842C11.4441 10.1666 11.891 10.8986 12.431 11.5597C12.4355 11.5659 12.44 11.5721 12.4446 11.578C12.5443 11.7072 12.6268 11.8109 12.6816 11.8785L12.6828 11.8798C12.7285 11.9365 12.7544 11.9679 12.7544 11.9679L12.8978 11.9679L12.9394 11.9682L12.9395 11.9679L13.4213 11.9683C14.0643 11.1083 14.6431 9.55545 14.6501 8.93871C14.5848 9.22176 14.4371 9.47911 14.2256 9.67822C14.0141 9.87733 13.7483 10.0093 13.4618 10.0574C13.2684 10.0905 13.0713 10.0973 12.876 10.0778L12.8679 10.0773C12.834 10.0739 12.8009 10.0701 12.7685 10.0658C12.7422 10.0625 12.7165 10.0588 12.6911 10.0548C12.4945 10.0245 12.3016 9.97409 12.1154 9.90425C11.8001 9.69205 11.5612 9.38438 11.4336 9.02639C11.4062 8.60834 11.4723 8.18942 11.627 7.80009C11.8788 7.04672 12.222 6.32705 12.6488 5.65717C12.5162 5.67239 11.8071 6.85095 11.371 7.84748C11.1945 8.20043 11.0774 8.58006 11.0245 8.9711Z" fill="url(#paint3_linear_3737_11534)"/>
<path d="M13.2183 8.85225C13.5218 10.0497 12.9364 11.9681 12.9364 11.9681C12.9364 11.9681 12.9899 10.2039 12.7385 9.30006C12.4871 8.39626 13.1243 8.48128 13.2183 8.85225Z" fill="url(#paint4_linear_3737_11534)"/>
<g style="mix-blend-mode:soft-light">
<path d="M12.666 8.93393C12.9848 10.0031 12.9384 11.9681 12.9384 11.9681L12.666 8.93393Z" fill="#F7FFFF"/>
</g>
<g style="mix-blend-mode:soft-light">
<path d="M14.2627 8.01563C13.8292 8.32738 12.8439 5.89637 13.143 6.19965C13.5477 6.785 13.9214 7.39116 14.2627 8.01563Z" fill="#F7FFFF"/>
</g>
<path style="mix-blend-mode:multiply" opacity="0.5" d="M11.0267 9.06944C11.0271 9.07341 11.0272 9.07731 11.0277 9.08166C11.0384 9.18416 11.0625 9.28482 11.0993 9.3811L11.1002 9.38427C11.455 10.1597 11.9009 10.89 12.4286 11.5598C12.4331 11.566 12.4376 11.5722 12.4421 11.5781C12.5669 11.7435 12.6555 11.8543 12.6792 11.8785L12.6804 11.8799C12.9257 12.1274 12.7091 11.721 11.8276 10.1296C11.4411 9.43198 11.013 8.82695 11.0267 9.06944Z" fill="url(#paint5_linear_3737_11534)"/>
<g style="mix-blend-mode:multiply" opacity="0.5">
<path d="M12.431 11.5599C12.4355 11.5661 12.44 11.5723 12.4446 11.5782C12.5693 11.7436 12.658 11.8544 12.6816 11.8786C12.7289 11.2718 12.732 10.6623 12.6911 10.055C12.562 8.99797 12.401 8.06682 12.1733 7.93599C12.0079 7.83951 11.8184 7.79241 11.627 7.80025C11.5397 7.80266 11.4533 7.81865 11.371 7.84764C11.1945 8.20059 11.0774 8.58022 11.0245 8.97126C11.024 9.00408 11.0256 9.03691 11.0292 9.06954C11.0295 9.0735 11.0296 9.07741 11.0302 9.08175C11.0409 9.18425 11.065 9.28492 11.1018 9.38119L11.1027 9.38436C11.4441 10.1668 11.891 10.8987 12.431 11.5599Z" fill="#C10065"/>
</g>
<path d="M9.26203 14.776C9.29937 14.7768 9.33673 14.7751 9.37383 14.7709L9.37722 14.7704C9.46923 14.7587 9.55993 14.7382 9.64808 14.7093L9.65392 14.7075C10.3346 14.4912 11.294 13.8139 11.8389 13.4023C11.8453 13.3974 11.8515 13.3925 11.8574 13.3881C11.9917 13.2865 12.0994 13.2019 12.1695 13.1463L12.172 13.1439C12.2288 13.0989 12.2601 13.0733 12.2601 13.0733L12.2614 12.9101L12.2617 12.8889L12.2654 12.4087C11.4127 11.762 9.86958 11.1743 9.25497 11.163C9.20115 11.1606 9.14724 11.1658 9.09492 11.1786C8.884 11.2577 8.6794 11.3527 8.48291 11.4629L8.48214 11.4635C8.27559 11.5717 8.03786 11.7027 7.7927 11.8438C6.91992 12.3448 5.95327 12.9699 5.97094 13.1344C5.99201 13.3267 8.4626 14.7548 9.26203 14.776Z" fill="url(#paint6_linear_3737_11534)"/>
<path style="mix-blend-mode:multiply" opacity="0.5" d="M9.2618 14.7761C9.29913 14.7769 9.33649 14.7752 9.37359 14.771L9.37698 14.7705C9.46899 14.7587 9.55969 14.7383 9.64784 14.7094L9.65368 14.7076C10.3343 14.4912 11.2937 13.814 11.8386 13.4024C11.8451 13.3975 11.8512 13.3926 11.8572 13.3882C11.9915 13.2865 12.0992 13.202 12.1693 13.1464L12.1718 13.144C12.2286 13.099 12.2599 13.0734 12.2599 13.0734L12.2612 12.9102L12.2615 12.8889L12.2652 12.4087C11.4124 11.7621 9.86934 11.1744 9.25473 11.1631C9.53637 11.2301 9.79181 11.3791 9.98877 11.5913C10.1857 11.8035 10.3154 12.0693 10.3613 12.3551C10.3859 12.5012 10.3947 12.6496 10.3875 12.7976C10.3858 12.8456 10.3821 12.8926 10.3775 12.9386L10.3769 12.9468C10.3736 12.9805 10.3693 13.0136 10.3652 13.046C10.3351 13.2681 10.2794 13.486 10.1993 13.6953C9.98553 14.0081 9.67716 14.2441 9.31944 14.3687C8.90675 14.4625 7.54225 14.1333 5.9707 13.1345C5.99177 13.3268 8.46236 14.7549 9.2618 14.7761Z" fill="url(#paint7_linear_3737_11534)"/>
<path d="M8.88147 12.7958C10.0551 11.7425 12.261 12.889 12.261 12.889C12.261 12.889 10.5033 12.8234 9.601 13.0676C8.69866 13.3118 8.74069 12.9222 8.88147 12.7958Z" fill="url(#paint8_linear_3737_11534)"/>
<g style="mix-blend-mode:soft-light">
<path d="M9.23779 13.1392C10.3054 12.829 12.2631 12.889 12.2631 12.889L9.23779 13.1392Z" fill="#F7FFFF"/>
</g>
<g style="mix-blend-mode:soft-light">
<path d="M6.51709 12.6459C6.72643 12.8338 7.68692 12.4746 8.22045 12.0846C8.49178 11.8869 8.65277 11.6806 8.54898 11.5345L8.48487 11.4629L8.4841 11.4635L7.79466 11.8438L6.51709 12.6459Z" fill="#F7FFFF"/>
</g>
<path style="mix-blend-mode:multiply" opacity="0.5" d="M10.4208 13.9813C12.0128 13.1141 12.4192 12.901 12.1709 13.144C12.0697 13.2431 10.099 14.7352 9.35887 14.772C9.11701 14.784 9.72293 14.3615 10.4208 13.9813Z" fill="url(#paint9_linear_3737_11534)"/>
<g style="mix-blend-mode:multiply" opacity="0.5">
<path d="M7.79346 11.8438C7.805 11.8478 7.81671 11.8524 7.82842 11.857C7.96866 11.9143 8.10021 11.9909 8.21925 12.0846C8.47358 12.2885 8.69713 12.528 8.88297 12.7958C9.26283 12.6158 9.68407 12.5412 10.1026 12.5798C10.7879 12.6021 11.4682 12.7047 12.1296 12.8853H12.1306L12.1364 12.8863L12.1881 12.8949L12.1885 12.8951C12.2136 12.8993 12.238 12.9047 12.2622 12.9101L12.2625 12.8889L12.2662 12.4087C11.4134 11.762 9.87034 11.1743 9.25573 11.163C9.20191 11.1606 9.14801 11.1658 9.09568 11.1786C8.88476 11.2577 8.68016 11.3527 8.48367 11.4629L8.4829 11.4635C8.27635 11.5717 8.03862 11.7027 7.79346 11.8438Z" fill="#C10065"/>
</g>
<path d="M8.50058 11.4818C9.18403 12.224 12.2387 12.5716 12.2387 12.5716L12.7814 12.0531C12.6345 10.8535 11.897 9.14073 11.4227 8.63382C11.3823 8.58827 11.3355 8.54873 11.2839 8.51641C10.8307 8.25463 7.44086 7.28385 7.24186 7.52353C7.10234 7.69191 7.88885 10.8174 8.50058 11.4818Z" fill="url(#paint10_linear_3737_11534)"/>
<path style="mix-blend-mode:multiply" opacity="0.5" d="M8.50058 11.4818C9.18403 12.224 12.2387 12.5716 12.2387 12.5716L12.7814 12.0531C12.6345 10.8536 11.897 9.14076 11.4227 8.63385C12.3619 10.5002 10.1135 11.3914 10.1135 11.3914C10.1135 11.3914 9.63422 11.5317 8.9455 11.0617C8.55051 10.7922 7.66866 9.58273 7.24186 7.52356C7.10234 7.69195 7.88885 10.8174 8.50058 11.4818Z" fill="url(#paint11_linear_3737_11534)"/>
<path d="M9.79701 9.77356C11.3736 10.2044 12.3878 12.4278 12.3878 12.4278C12.3878 12.4278 11.0583 10.952 10.1506 10.4129C9.24293 9.87384 9.59094 9.71725 9.79701 9.77356Z" fill="url(#paint12_linear_3737_11534)"/>
<g style="mix-blend-mode:soft-light">
<path d="M9.80762 10.1732C10.8988 10.7943 12.3903 12.4278 12.3903 12.4278L9.80762 10.1732Z" fill="#F7FFFF"/>
</g>
<g style="mix-blend-mode:soft-light">
<path d="M10.628 8.26252C10.5182 8.8533 7.59353 7.49798 8.0657 7.58018C8.98403 7.7401 10.628 8.26252 10.628 8.26252Z" fill="#F7FFFF"/>
</g>
<path d="M30.648 8.97122C30.6485 9.00405 30.6469 9.03687 30.6433 9.0695C30.643 9.07347 30.6429 9.07737 30.6423 9.08172C30.6286 9.18368 30.6046 9.284 30.5708 9.38115L30.5698 9.38432C30.2284 10.1667 29.7815 10.8987 29.2415 11.5599C29.237 11.566 29.2325 11.5722 29.2279 11.5781C29.1282 11.7073 29.0457 11.811 28.9909 11.8786L28.9897 11.8799C28.944 11.9366 28.9181 11.968 28.9181 11.968L28.7747 11.968L28.7331 11.9683L28.733 11.968L28.2512 11.9684C27.6083 11.1084 27.0294 9.55557 27.0224 8.93883C27.0203 8.88474 27.026 8.83062 27.0392 8.77812C27.12 8.56711 27.2168 8.36253 27.3286 8.16617C27.8312 7.22494 28.8125 5.63293 29.0237 5.65729C29.1563 5.67252 29.8654 6.85108 30.3015 7.84761C30.478 8.20055 30.5951 8.58019 30.648 8.97122Z" fill="url(#paint13_linear_3737_11534)"/>
<path style="mix-blend-mode:multiply" opacity="0.5" d="M30.6476 8.9711C30.6481 9.00392 30.6465 9.03675 30.6429 9.06938C30.6425 9.07334 30.6424 9.07725 30.6419 9.08159C30.6282 9.18356 30.6042 9.28388 30.5703 9.38103L30.5694 9.3842C30.228 10.1666 29.7811 10.8986 29.2411 11.5597C29.2366 11.5659 29.2321 11.5721 29.2275 11.578C29.1278 11.7072 29.0453 11.8109 28.9905 11.8785L28.9893 11.8798C28.9436 11.9365 28.9177 11.9679 28.9177 11.9679L28.7743 11.9679L28.7327 11.9682L28.7326 11.9679L28.2508 11.9683C27.6079 11.1083 27.029 9.55545 27.022 8.93871C27.0873 9.22176 27.235 9.47911 27.4465 9.67822C27.658 9.87733 27.9238 10.0093 28.2103 10.0574C28.4037 10.0905 28.6008 10.0973 28.7961 10.0778L28.8042 10.0773C28.8381 10.0739 28.8713 10.0701 28.9036 10.0658C28.9299 10.0625 28.9556 10.0588 28.981 10.0548C29.1776 10.0245 29.3705 9.97409 29.5567 9.90425C29.872 9.69205 30.1109 9.38438 30.2385 9.02639C30.2659 8.60834 30.1998 8.18942 30.0451 7.80009C29.7933 7.04672 29.4501 6.32704 29.0233 5.65717C29.1559 5.67239 29.865 6.85095 30.3011 7.84748C30.4776 8.20043 30.5947 8.58006 30.6476 8.9711Z" fill="url(#paint14_linear_3737_11534)"/>
<path d="M28.4491 8.85225C28.1456 10.0497 28.731 11.9681 28.731 11.9681C28.731 11.9681 28.6775 10.2039 28.9289 9.30006C29.1803 8.39626 28.5431 8.48128 28.4491 8.85225Z" fill="url(#paint15_linear_3737_11534)"/>
<g style="mix-blend-mode:soft-light">
<path d="M29.0052 8.93393C28.6864 10.0031 28.7328 11.9681 28.7328 11.9681L29.0052 8.93393Z" fill="#F7FFFF"/>
</g>
<g style="mix-blend-mode:soft-light">
<path d="M27.4067 8.01563C27.8402 8.32738 28.8255 5.89637 28.5265 6.19965C28.1217 6.785 27.748 7.39116 27.4067 8.01563Z" fill="#F7FFFF"/>
</g>
<path style="mix-blend-mode:multiply" opacity="0.5" d="M30.6429 9.06944C30.6425 9.07341 30.6424 9.07731 30.6419 9.08166C30.6311 9.18416 30.6071 9.28482 30.5703 9.3811L30.5694 9.38427C30.2146 10.1597 29.7687 10.89 29.241 11.5598C29.2365 11.566 29.232 11.5722 29.2275 11.5781C29.1027 11.7435 29.0141 11.8543 28.9904 11.8785L28.9893 11.8799C28.7439 12.1274 28.9605 11.721 29.842 10.1296C30.2285 9.43198 30.6566 8.82695 30.6429 9.06944Z" fill="url(#paint16_linear_3737_11534)"/>
<g style="mix-blend-mode:multiply" opacity="0.5">
<path d="M29.2397 11.5599C29.2352 11.5661 29.2307 11.5723 29.2262 11.5782C29.1014 11.7436 29.0128 11.8544 28.9891 11.8786C28.9419 11.2718 28.9387 10.6623 28.9797 10.055C29.1088 8.99797 29.2697 8.06682 29.4975 7.93599C29.6629 7.83951 29.8524 7.79241 30.0437 7.80025C30.131 7.80266 30.2174 7.81865 30.2998 7.84764C30.4763 8.20059 30.5933 8.58022 30.6463 8.97126C30.6467 9.00408 30.6452 9.03691 30.6416 9.06954C30.6412 9.0735 30.6411 9.07741 30.6405 9.08175C30.6298 9.18425 30.6058 9.28492 30.569 9.38119L30.5681 9.38436C30.2266 10.1668 29.7797 10.8987 29.2397 11.5599Z" fill="#C10065"/>
</g>
<path d="M32.4062 14.776C32.3689 14.7768 32.3315 14.7751 32.2944 14.7709L32.291 14.7704C32.199 14.7587 32.1083 14.7382 32.0202 14.7093L32.0143 14.7075C31.3337 14.4912 30.3743 13.8139 29.8294 13.4023C29.8229 13.3974 29.8168 13.3925 29.8109 13.3881C29.6765 13.2865 29.5688 13.2019 29.4987 13.1463L29.4963 13.1439C29.4394 13.0989 29.4082 13.0733 29.4082 13.0733L29.4069 12.9101L29.4065 12.8889L29.4028 12.4087C30.2556 11.762 31.7987 11.1743 32.4133 11.163C32.4671 11.1606 32.521 11.1658 32.5733 11.1786C32.7843 11.2577 32.9888 11.3527 33.1853 11.4629L33.1861 11.4635C33.3927 11.5717 33.6304 11.7027 33.8756 11.8438C34.7483 12.3448 35.715 12.9699 35.6973 13.1344C35.6762 13.3267 33.2056 14.7548 32.4062 14.776Z" fill="url(#paint17_linear_3737_11534)"/>
<path style="mix-blend-mode:multiply" opacity="0.5" d="M32.4062 14.7761C32.3689 14.7769 32.3315 14.7752 32.2944 14.771L32.291 14.7705C32.199 14.7587 32.1083 14.7383 32.0202 14.7094L32.0143 14.7076C31.3337 14.4912 30.3743 13.814 29.8294 13.4024C29.8229 13.3975 29.8168 13.3926 29.8109 13.3882C29.6765 13.2865 29.5688 13.202 29.4987 13.1464L29.4963 13.144C29.4394 13.099 29.4082 13.0734 29.4082 13.0734L29.4069 12.9102L29.4065 12.8889L29.4028 12.4087C30.2556 11.7621 31.7987 11.1744 32.4133 11.1631C32.1317 11.2301 31.8762 11.3791 31.6793 11.5913C31.4823 11.8035 31.3527 12.0693 31.3067 12.3551C31.2821 12.5012 31.2733 12.6496 31.2805 12.7976C31.2823 12.8456 31.2859 12.8926 31.2905 12.9386L31.2911 12.9468C31.2945 12.9805 31.2987 13.0136 31.3028 13.046C31.3329 13.2681 31.3886 13.486 31.4687 13.6953C31.6825 14.0081 31.9908 14.2441 32.3486 14.3687C32.7613 14.4625 34.1258 14.1333 35.6973 13.1345C35.6762 13.3268 33.2056 14.7549 32.4062 14.7761Z" fill="url(#paint18_linear_3737_11534)"/>
<path d="M32.7862 12.7958C31.6126 11.7425 29.4067 12.889 29.4067 12.889C29.4067 12.889 31.1643 12.8234 32.0667 13.0676C32.969 13.3118 32.927 12.9222 32.7862 12.7958Z" fill="url(#paint19_linear_3737_11534)"/>
<g style="mix-blend-mode:soft-light">
<path d="M32.4321 13.1392C31.3645 12.829 29.4067 12.889 29.4067 12.889L32.4321 13.1392Z" fill="#F7FFFF"/>
</g>
<g style="mix-blend-mode:soft-light">
<path d="M35.153 12.646C34.9437 12.8339 33.9832 12.4748 33.4497 12.0848C33.1783 11.887 33.0174 11.6808 33.1211 11.5346L33.1852 11.463L33.186 11.4636L33.8755 11.8439L35.153 12.646Z" fill="#F7FFFF"/>
</g>
<path style="mix-blend-mode:multiply" opacity="0.5" d="M31.2477 13.9813C29.6557 13.1141 29.2492 12.901 29.4976 13.144C29.5988 13.2431 31.5695 14.7352 32.3096 14.772C32.5514 14.784 31.9455 14.3615 31.2477 13.9813Z" fill="url(#paint20_linear_3737_11534)"/>
<g style="mix-blend-mode:multiply" opacity="0.5">
<path d="M33.8756 11.8438C33.864 11.8478 33.8523 11.8524 33.8406 11.857C33.7004 11.9143 33.5688 11.9909 33.4498 12.0846C33.1954 12.2885 32.9719 12.528 32.786 12.7958C32.4062 12.6158 31.9849 12.5412 31.5664 12.5798C30.8811 12.6021 30.2008 12.7047 29.5394 12.8853H29.5384L29.5326 12.8863L29.4809 12.8949L29.4805 12.8951C29.4555 12.8993 29.431 12.9047 29.4069 12.9101L29.4065 12.8889L29.4028 12.4087C30.2556 11.762 31.7987 11.1743 32.4133 11.163C32.4671 11.1606 32.521 11.1658 32.5733 11.1786C32.7843 11.2577 32.9888 11.3527 33.1853 11.4629L33.1861 11.4635C33.3927 11.5717 33.6304 11.7027 33.8756 11.8438Z" fill="#C10065"/>
</g>
<path d="M33.1686 11.4818C32.4851 12.224 29.4305 12.5716 29.4305 12.5716L28.8877 12.0531C29.0346 10.8536 29.7722 9.14076 30.2464 8.63385C30.2869 8.5883 30.3336 8.54876 30.3853 8.51644C30.8384 8.25466 34.2283 7.28388 34.4273 7.52356C34.5668 7.69194 33.7803 10.8174 33.1686 11.4818Z" fill="url(#paint21_linear_3737_11534)"/>
<path style="mix-blend-mode:multiply" opacity="0.5" d="M33.1686 11.4818C32.4851 12.224 29.4305 12.5716 29.4305 12.5716L28.8877 12.0531C29.0346 10.8535 29.7722 9.14073 30.2464 8.63382C29.3072 10.5001 31.5556 11.3913 31.5556 11.3913C31.5556 11.3913 32.0349 11.5316 32.7236 11.0617C33.1186 10.7922 34.0005 9.5827 34.4273 7.52353C34.5668 7.69192 33.7803 10.8174 33.1686 11.4818Z" fill="url(#paint22_linear_3737_11534)"/>
<path d="M31.871 9.7735C30.2944 10.2044 29.2803 12.4278 29.2803 12.4278C29.2803 12.4278 30.6097 10.9519 31.5174 10.4129C32.4251 9.87378 32.0771 9.71719 31.871 9.7735Z" fill="url(#paint23_linear_3737_11534)"/>
<g style="mix-blend-mode:soft-light">
<path d="M31.8629 10.1732C30.7717 10.7943 29.2803 12.4278 29.2803 12.4278L31.8629 10.1732Z" fill="#F7FFFF"/>
</g>
<g style="mix-blend-mode:soft-light">
<path d="M31.043 8.26252C31.1528 8.8533 34.0774 7.49798 33.6052 7.58018C32.6869 7.7401 31.043 8.26252 31.043 8.26252Z" fill="#F7FFFF"/>
</g>
<path d="M11.0245 33.0183C11.024 32.9854 11.0256 32.9526 11.0292 32.92C11.0295 32.916 11.0296 32.9121 11.0302 32.9078C11.0439 32.8058 11.0679 32.7055 11.1018 32.6084L11.1027 32.6052C11.4441 31.8228 11.891 31.0908 12.431 30.4297C12.4355 30.4235 12.44 30.4173 12.4446 30.4114C12.5443 30.2822 12.6268 30.1785 12.6816 30.1109L12.6828 30.1096C12.7285 30.0528 12.7544 30.0214 12.7544 30.0214L12.8978 30.0215L12.9394 30.0212L13.4213 30.0211C14.0643 30.8811 14.6431 32.4339 14.6501 33.0507C14.6522 33.1048 14.6465 33.1589 14.6333 33.2114C14.5525 33.4224 14.4557 33.627 14.3439 33.8233C13.8413 34.7645 12.86 36.3566 12.6488 36.3322C12.5162 36.317 11.8071 35.1384 11.371 34.1419C11.1945 33.7889 11.0774 33.4093 11.0245 33.0183Z" fill="url(#paint24_linear_3737_11534)"/>
<path style="mix-blend-mode:multiply" opacity="0.5" d="M11.0245 33.0183C11.024 32.9854 11.0256 32.9526 11.0292 32.92C11.0295 32.916 11.0296 32.9121 11.0302 32.9078C11.0439 32.8058 11.0679 32.7055 11.1018 32.6084L11.1027 32.6052C11.4441 31.8228 11.891 31.0908 12.431 30.4297C12.4355 30.4235 12.44 30.4173 12.4446 30.4114C12.5443 30.2822 12.6268 30.1785 12.6816 30.1109L12.6828 30.1096C12.7285 30.0528 12.7544 30.0214 12.7544 30.0214L12.8978 30.0215L12.9394 30.0212L13.4213 30.0211C14.0643 30.8811 14.6431 32.4339 14.6501 33.0507C14.5848 32.7676 14.4371 32.5103 14.2256 32.3112C14.0141 32.112 13.7483 31.9801 13.4618 31.932C13.2684 31.8989 13.0713 31.892 12.876 31.9115L12.8679 31.9121C12.834 31.9155 12.8009 31.9193 12.7685 31.9235C12.7422 31.9268 12.7165 31.9306 12.6911 31.9346C12.4945 31.9648 12.3016 32.0153 12.1154 32.0851C11.8001 32.2973 11.5612 32.605 11.4336 32.963C11.4062 33.381 11.4723 33.8 11.627 34.1893C11.8788 34.9427 12.222 35.6623 12.6488 36.3322C12.5162 36.317 11.8071 35.1384 11.371 34.1419C11.1945 33.7889 11.0774 33.4093 11.0245 33.0183Z" fill="url(#paint25_linear_3737_11534)"/>
<path d="M13.2183 33.1372C13.5218 31.9397 12.9364 30.0214 12.9364 30.0214C12.9364 30.0214 12.9899 31.7856 12.7385 32.6894C12.4871 33.5932 13.1243 33.5082 13.2183 33.1372Z" fill="url(#paint26_linear_3737_11534)"/>
<g style="mix-blend-mode:soft-light">
<path d="M12.666 33.0556C12.9848 31.9864 12.9384 30.0214 12.9384 30.0214L12.666 33.0556Z" fill="#F7FFFF"/>
</g>
<g style="mix-blend-mode:soft-light">
<path d="M14.2627 33.9736C13.8292 33.6619 12.8439 36.0929 13.143 35.7896C13.5477 35.2042 13.9214 34.5981 14.2627 33.9736Z" fill="#F7FFFF"/>
</g>
<path style="mix-blend-mode:multiply" opacity="0.5" d="M11.0267 32.9201C11.0271 32.9161 11.0272 32.9122 11.0277 32.9079C11.0384 32.8054 11.0625 32.7047 11.0993 32.6084L11.1002 32.6053C11.4549 31.8299 11.9009 31.0995 12.4286 30.4297C12.4331 30.4235 12.4376 30.4173 12.4421 30.4114C12.5669 30.246 12.6555 30.1353 12.6792 30.111L12.6804 30.1097C12.9257 29.8621 12.7091 30.2685 11.8276 31.8599C11.4411 32.5576 11.013 33.1626 11.0267 32.9201Z" fill="url(#paint27_linear_3737_11534)"/>
<g style="mix-blend-mode:multiply" opacity="0.5">
<path d="M12.431 30.4296C12.4355 30.4234 12.44 30.4172 12.4446 30.4113C12.5693 30.2459 12.658 30.1351 12.6816 30.1108C12.7289 30.7177 12.732 31.3272 12.6911 31.9345C12.562 32.9915 12.401 33.9227 12.1733 34.0535C12.0079 34.15 11.8183 34.1971 11.627 34.1892C11.5397 34.1868 11.4533 34.1708 11.371 34.1418C11.1945 33.7889 11.0774 33.4092 11.0245 33.0182C11.024 32.9854 11.0256 32.9526 11.0292 32.9199C11.0295 32.916 11.0296 32.9121 11.0302 32.9077C11.0409 32.8052 11.065 32.7046 11.1018 32.6083L11.1027 32.6051C11.4441 31.8227 11.891 31.0908 12.431 30.4296Z" fill="#C10065"/>
</g>
<path d="M9.26203 27.2134C9.29937 27.2125 9.33673 27.2142 9.37383 27.2185L9.37722 27.2189C9.46923 27.2307 9.55992 27.2512 9.64808 27.28L9.65392 27.2819C10.3346 27.4982 11.294 28.1755 11.8389 28.587C11.8453 28.592 11.8515 28.5968 11.8574 28.6013C11.9917 28.7029 12.0994 28.7875 12.1695 28.8431L12.172 28.8455C12.2288 28.8904 12.2601 28.9161 12.2601 28.9161L12.2614 29.0793L12.2617 29.1005L12.2654 29.5807C11.4127 30.2273 9.86958 30.815 9.25497 30.8263C9.20114 30.8288 9.14724 30.8235 9.09492 30.8107C8.88399 30.7316 8.67939 30.6366 8.48291 30.5265L8.48214 30.5259C8.27559 30.4176 8.03786 30.2866 7.7927 30.1456C6.91992 29.6445 5.95327 29.0194 5.97094 28.8549C5.99201 28.6626 8.4626 27.2345 9.26203 27.2134Z" fill="url(#paint28_linear_3737_11534)"/>
<path style="mix-blend-mode:multiply" opacity="0.5" d="M9.2618 27.2134C9.29913 27.2125 9.33649 27.2142 9.37359 27.2185L9.37698 27.2189C9.46899 27.2307 9.55969 27.2512 9.64784 27.28L9.65368 27.2819C10.3343 27.4982 11.2937 28.1755 11.8386 28.587C11.8451 28.592 11.8512 28.5968 11.8572 28.6013C11.9915 28.7029 12.0992 28.7875 12.1693 28.8431L12.1718 28.8455C12.2286 28.8904 12.2599 28.9161 12.2599 28.9161L12.2612 29.0793L12.2615 29.1005L12.2652 29.5807C11.4124 30.2273 9.86934 30.815 9.25473 30.8263C9.53637 30.7593 9.79182 30.6103 9.98878 30.3981C10.1857 30.1859 10.3154 29.9201 10.3613 29.6343C10.3859 29.4882 10.3947 29.3398 10.3875 29.1918C10.3858 29.1438 10.3821 29.0969 10.3775 29.0509L10.3769 29.0427C10.3736 29.0089 10.3693 28.9758 10.3652 28.9435C10.3351 28.7213 10.2794 28.5035 10.1993 28.2941C9.98552 27.9814 9.67716 27.7454 9.31944 27.6207C8.90675 27.527 7.54225 27.8562 5.9707 28.8549C5.99177 28.6626 8.46236 27.2345 9.2618 27.2134Z" fill="url(#paint29_linear_3737_11534)"/>
<path d="M8.88147 29.1937C10.0551 30.247 12.261 29.1005 12.261 29.1005C12.261 29.1005 10.5033 29.1661 9.601 28.9219C8.69866 28.6777 8.74068 29.0673 8.88147 29.1937Z" fill="url(#paint30_linear_3737_11534)"/>
<g style="mix-blend-mode:soft-light">
<path d="M9.23779 28.8502C10.3054 29.1604 12.2631 29.1004 12.2631 29.1004L9.23779 28.8502Z" fill="#F7FFFF"/>
</g>
<g style="mix-blend-mode:soft-light">
<path d="M6.51709 29.3435C6.72643 29.1556 7.68692 29.5147 8.22045 29.9048C8.49178 30.1025 8.65277 30.3088 8.54898 30.4549L8.48487 30.5264L8.4841 30.5259L7.79466 30.1456L6.51709 29.3435Z" fill="#F7FFFF"/>
</g>
<path style="mix-blend-mode:multiply" opacity="0.5" d="M10.4208 28.008C12.0128 28.8753 12.4192 29.0883 12.1709 28.8453C12.0697 28.7462 10.099 27.2542 9.35887 27.2174C9.11701 27.2054 9.72293 27.6279 10.4208 28.008Z" fill="url(#paint31_linear_3737_11534)"/>
<g style="mix-blend-mode:multiply" opacity="0.5">
<path d="M7.79346 30.1455C7.805 30.1415 7.81671 30.1369 7.82842 30.1323C7.96866 30.075 8.10021 29.9984 8.21925 29.9047C8.47357 29.7008 8.69712 29.4613 8.88297 29.1935C9.26283 29.3735 9.68408 29.4481 10.1026 29.4095C10.7879 29.3871 11.4682 29.2846 12.1296 29.104L12.1306 29.104L12.1364 29.103L12.1881 29.0944L12.1885 29.0942C12.2136 29.09 12.238 29.0846 12.2622 29.0792L12.2625 29.1004L12.2662 29.5806C11.4134 30.2272 9.87034 30.8149 9.25573 30.8263C9.20191 30.8287 9.148 30.8235 9.09568 30.8106C8.88475 30.7316 8.68016 30.6365 8.48367 30.5264L8.4829 30.5258C8.27635 30.4176 8.03862 30.2866 7.79346 30.1455Z" fill="#C10065"/>
</g>
<path d="M8.50058 30.5078C9.18403 29.7656 12.2387 29.418 12.2387 29.418L12.7814 29.9364C12.6345 31.136 11.897 32.8488 11.4227 33.3557C11.3822 33.4013 11.3355 33.4408 11.2839 33.4732C10.8307 33.7349 7.44086 34.7057 7.24186 34.466C7.10234 34.2976 7.88885 31.1722 8.50058 30.5078Z" fill="url(#paint32_linear_3737_11534)"/>
<path style="mix-blend-mode:multiply" opacity="0.5" d="M8.50058 30.5078C9.18403 29.7656 12.2387 29.418 12.2387 29.418L12.7814 29.9364C12.6345 31.136 11.897 32.8488 11.4227 33.3557C12.3619 31.4894 10.1135 30.5982 10.1135 30.5982C10.1135 30.5982 9.63422 30.4579 8.9455 30.9279C8.55051 31.1973 7.66866 32.4068 7.24186 34.466C7.10234 34.2976 7.88885 31.1722 8.50058 30.5078Z" fill="url(#paint33_linear_3737_11534)"/>
<path d="M9.79702 32.2158C11.3736 31.7849 12.3878 29.5615 12.3878 29.5615C12.3878 29.5615 11.0583 31.0374 10.1506 31.5764C9.24292 32.1156 9.59094 32.2721 9.79702 32.2158Z" fill="url(#paint34_linear_3737_11534)"/>
<g style="mix-blend-mode:soft-light">
<path d="M9.80762 31.8161C10.8988 31.195 12.3903 29.5615 12.3903 29.5615L9.80762 31.8161Z" fill="#F7FFFF"/>
</g>
<g style="mix-blend-mode:soft-light">
<path d="M10.628 33.727C10.5182 33.1362 7.59353 34.4915 8.0657 34.4093C8.98403 34.2494 10.628 33.727 10.628 33.727Z" fill="#F7FFFF"/>
</g>
<path d="M30.648 33.0183C30.6485 32.9854 30.6469 32.9526 30.6433 32.92C30.643 32.916 30.6429 32.9121 30.6423 32.9078C30.6286 32.8058 30.6046 32.7055 30.5708 32.6084L30.5698 32.6052C30.2284 31.8228 29.7815 31.0908 29.2415 30.4297C29.237 30.4235 29.2325 30.4173 29.2279 30.4114C29.1282 30.2822 29.0457 30.1785 28.9909 30.1109L28.9897 30.1096C28.944 30.0528 28.9181 30.0214 28.9181 30.0214L28.7747 30.0215L28.7331 30.0212L28.2512 30.0211C27.6083 30.8811 27.0294 32.4339 27.0224 33.0507C27.0203 33.1048 27.026 33.1589 27.0392 33.2114C27.1201 33.4224 27.2168 33.6269 27.3286 33.8233C27.8312 34.7645 28.8125 36.3566 29.0237 36.3322C29.1563 36.317 29.8654 35.1384 30.3015 34.1419C30.478 33.7889 30.5951 33.4093 30.648 33.0183Z" fill="url(#paint35_linear_3737_11534)"/>
<path style="mix-blend-mode:multiply" opacity="0.5" d="M30.6476 33.0183C30.6481 32.9854 30.6465 32.9526 30.6429 32.92C30.6425 32.916 30.6424 32.9121 30.6419 32.9078C30.6282 32.8058 30.6042 32.7055 30.5703 32.6084L30.5694 32.6052C30.228 31.8228 29.7811 31.0908 29.2411 30.4297C29.2366 30.4235 29.2321 30.4173 29.2275 30.4114C29.1278 30.2822 29.0453 30.1785 28.9905 30.1109L28.9893 30.1096C28.9436 30.0528 28.9177 30.0214 28.9177 30.0214L28.7743 30.0215L28.7327 30.0212L28.2508 30.0211C27.6079 30.8811 27.029 32.4339 27.022 33.0507C27.0873 32.7676 27.235 32.5103 27.4465 32.3112C27.658 32.112 27.9238 31.9801 28.2103 31.932C28.4037 31.8989 28.6008 31.892 28.7961 31.9115L28.8042 31.9121C28.8381 31.9155 28.8713 31.9193 28.9036 31.9235C28.9299 31.9268 28.9556 31.9306 28.981 31.9346C29.1776 31.9648 29.3705 32.0153 29.5567 32.0851C29.872 32.2973 30.1109 32.605 30.2385 32.963C30.2659 33.381 30.1998 33.8 30.0451 34.1893C29.7933 34.9427 29.4501 35.6623 29.0233 36.3322C29.1559 36.317 29.865 35.1384 30.3011 34.1419C30.4776 33.7889 30.5947 33.4093 30.6476 33.0183Z" fill="url(#paint36_linear_3737_11534)"/>
<path d="M28.4491 33.1372C28.1456 31.9397 28.731 30.0214 28.731 30.0214C28.731 30.0214 28.6775 31.7857 28.9289 32.6895C29.1803 33.5933 28.5431 33.5082 28.4491 33.1372Z" fill="url(#paint37_linear_3737_11534)"/>
<g style="mix-blend-mode:multiply" opacity="0.5">
<path d="M29.0052 33.0556C28.6864 31.9864 28.7328 30.0214 28.7328 30.0214L29.0052 33.0556Z" fill="#C10065"/>
</g>
<g style="mix-blend-mode:soft-light">
<path d="M27.4067 33.9736C27.8402 33.6619 28.8255 36.0929 28.5265 35.7896C28.1218 35.2042 27.748 34.5981 27.4067 33.9736Z" fill="#F7FFFF"/>
</g>
<path style="mix-blend-mode:multiply" opacity="0.5" d="M30.6429 32.92C30.6425 32.916 30.6424 32.9121 30.6419 32.9078C30.6311 32.8053 30.6071 32.7046 30.5703 32.6083L30.5694 32.6052C30.2147 31.8298 29.7687 31.0994 29.241 30.4296C29.2365 30.4235 29.232 30.4172 29.2275 30.4113C29.1027 30.2459 29.0141 30.1352 28.9904 30.1109L28.9893 30.1096C28.7439 29.862 28.9605 30.2684 29.842 31.8598C30.2285 32.5575 30.6566 33.1625 30.6429 32.92Z" fill="url(#paint38_linear_3737_11534)"/>
<path style="mix-blend-mode:multiply" opacity="0.5" d="M29.2397 30.4297C29.2352 30.4235 29.2307 30.4173 29.2262 30.4114C29.1014 30.2459 29.0128 30.1352 28.9891 30.1109C28.9419 30.7178 28.9387 31.3273 28.9797 31.9346C29.1088 32.9916 29.2697 33.9227 29.4975 34.0536C29.6629 34.15 29.8524 34.1971 30.0437 34.1893C30.131 34.1869 30.2174 34.1709 30.2998 34.1419C30.4763 33.7889 30.5933 33.4093 30.6463 33.0183C30.6467 32.9854 30.6452 32.9526 30.6416 32.92C30.6412 32.916 30.6411 32.9121 30.6405 32.9078C30.6298 32.8053 30.6058 32.7046 30.569 32.6084L30.5681 32.6052C30.2267 31.8228 29.7797 31.0908 29.2397 30.4297Z" fill="url(#paint39_linear_3737_11534)"/>
<path d="M32.4062 27.2134C32.3689 27.2125 32.3315 27.2142 32.2944 27.2185L32.291 27.2189C32.199 27.2307 32.1083 27.2512 32.0202 27.28L32.0143 27.2819C31.3337 27.4982 30.3743 28.1755 29.8294 28.587C29.8229 28.592 29.8168 28.5968 29.8109 28.6013C29.6765 28.7029 29.5688 28.7875 29.4987 28.8431L29.4963 28.8455C29.4394 28.8904 29.4082 28.9161 29.4082 28.9161L29.4069 29.0793L29.4065 29.1005L29.4028 29.5807C30.2556 30.2273 31.7987 30.815 32.4133 30.8263C32.4671 30.8288 32.521 30.8235 32.5733 30.8107C32.7843 30.7316 32.9889 30.6366 33.1853 30.5265L33.1861 30.5259C33.3927 30.4176 33.6304 30.2866 33.8756 30.1456C34.7483 29.6445 35.715 29.0194 35.6973 28.8549C35.6762 28.6626 33.2056 27.2345 32.4062 27.2134Z" fill="url(#paint40_linear_3737_11534)"/>
<path style="mix-blend-mode:multiply" opacity="0.5" d="M32.4062 27.2134C32.3689 27.2125 32.3315 27.2142 32.2944 27.2185L32.291 27.2189C32.199 27.2307 32.1083 27.2512 32.0202 27.28L32.0143 27.2819C31.3337 27.4982 30.3743 28.1755 29.8294 28.587C29.8229 28.592 29.8168 28.5968 29.8109 28.6013C29.6765 28.7029 29.5688 28.7875 29.4987 28.8431L29.4963 28.8455C29.4394 28.8904 29.4082 28.9161 29.4082 28.9161L29.4069 29.0793L29.4065 29.1005L29.4028 29.5807C30.2556 30.2273 31.7987 30.815 32.4133 30.8263C32.1317 30.7593 31.8762 30.6103 31.6792 30.3981C31.4823 30.1859 31.3527 29.9201 31.3067 29.6343C31.2821 29.4882 31.2733 29.3398 31.2805 29.1918C31.2823 29.1438 31.2859 29.0969 31.2905 29.0509L31.2911 29.0427C31.2945 29.0089 31.2987 28.9758 31.3028 28.9435C31.3329 28.7213 31.3886 28.5035 31.4687 28.2941C31.6825 27.9814 31.9908 27.7454 32.3486 27.6207C32.7613 27.527 34.1258 27.8562 35.6973 28.8549C35.6762 28.6626 33.2056 27.2345 32.4062 27.2134Z" fill="url(#paint41_linear_3737_11534)"/>
<path d="M32.7862 29.1937C31.6126 30.247 29.4067 29.1005 29.4067 29.1005C29.4067 29.1005 31.1643 29.1661 32.0667 28.9219C32.969 28.6777 32.927 29.0673 32.7862 29.1937Z" fill="url(#paint42_linear_3737_11534)"/>
<g style="mix-blend-mode:soft-light">
<path d="M32.4321 28.8503C31.3645 29.1604 29.4067 29.1005 29.4067 29.1005L32.4321 28.8503Z" fill="#F7FFFF"/>
</g>
<g style="mix-blend-mode:soft-light">
<path d="M35.153 29.3433C34.9437 29.1555 33.9832 29.5146 33.4497 29.9046C33.1783 30.1024 33.0174 30.3086 33.1211 30.4547L33.1852 30.5263L33.186 30.5257L33.8755 30.1454L35.153 29.3433Z" fill="#F7FFFF"/>
</g>
<path style="mix-blend-mode:multiply" opacity="0.5" d="M31.2477 28.008C29.6557 28.8753 29.2492 29.0883 29.4976 28.8453C29.5988 28.7462 31.5695 27.2541 32.3096 27.2174C32.5514 27.2053 31.9455 27.6278 31.2477 28.008Z" fill="url(#paint43_linear_3737_11534)"/>
<g style="mix-blend-mode:multiply" opacity="0.5">
<path d="M33.8756 30.1455C33.864 30.1415 33.8523 30.1369 33.8406 30.1323C33.7004 30.075 33.5688 29.9984 33.4498 29.9047C33.1954 29.7008 32.9719 29.4613 32.786 29.1935C32.4062 29.3735 31.9849 29.4481 31.5664 29.4095C30.8811 29.3871 30.2008 29.2846 29.5394 29.104L29.5384 29.104L29.5326 29.103L29.4809 29.0944L29.4805 29.0942C29.4555 29.09 29.431 29.0846 29.4069 29.0792L29.4065 29.1004L29.4028 29.5806C30.2556 30.2272 31.7987 30.8149 32.4133 30.8263C32.4671 30.8287 32.521 30.8235 32.5733 30.8106C32.7843 30.7316 32.9889 30.6365 33.1853 30.5264L33.1861 30.5258C33.3927 30.4176 33.6304 30.2866 33.8756 30.1455Z" fill="#C10065"/>
</g>
<path d="M33.1686 30.5078C32.4851 29.7655 29.4305 29.4179 29.4305 29.4179L28.8877 29.9364C29.0346 31.136 29.7722 32.8488 30.2464 33.3557C30.2869 33.4013 30.3336 33.4408 30.3853 33.4731C30.8384 33.7349 34.2283 34.7057 34.4273 34.466C34.5668 34.2976 33.7803 31.1721 33.1686 30.5078Z" fill="url(#paint44_linear_3737_11534)"/>
<path style="mix-blend-mode:multiply" opacity="0.5" d="M33.1686 30.5078C32.4851 29.7655 29.4305 29.4179 29.4305 29.4179L28.8877 29.9364C29.0346 31.136 29.7722 32.8488 30.2464 33.3557C29.3072 31.4894 31.5556 30.5982 31.5556 30.5982C31.5556 30.5982 32.0349 30.4579 32.7236 30.9278C33.1186 31.1973 34.0005 32.4068 34.4273 34.466C34.5668 34.2976 33.7803 31.1721 33.1686 30.5078Z" fill="url(#paint45_linear_3737_11534)"/>
<path d="M31.871 32.2159C30.2944 31.785 29.2803 29.5616 29.2803 29.5616C29.2803 29.5616 30.6097 31.0374 31.5174 31.5765C32.4251 32.1156 32.0771 32.2722 31.871 32.2159Z" fill="url(#paint46_linear_3737_11534)"/>
<g style="mix-blend-mode:soft-light">
<path d="M31.8629 31.8162C30.7717 31.1952 29.2803 29.5616 29.2803 29.5616L31.8629 31.8162Z" fill="#F7FFFF"/>
</g>
<g style="mix-blend-mode:soft-light">
<path d="M31.043 33.7269C31.1528 33.1361 34.0774 34.4914 33.6052 34.4092C32.6869 34.2493 31.043 33.7269 31.043 33.7269Z" fill="#F7FFFF"/>
</g>
<path d="M35.2406 26.6119C35.3661 26.3127 33.622 23.0681 32.9015 21.7499C32.9316 21.2655 32.9316 20.7796 32.9015 20.2952C33.622 18.977 35.2497 15.768 35.2406 15.4333C35.253 15.229 35.253 15.0241 35.2406 14.8198C35.1176 14.5266 31.4237 13.4838 29.9527 13.0789C29.5333 12.5973 29.0767 12.1495 28.5871 11.7395C28.2181 10.3928 27.108 6.42546 26.804 6.29793C26.4387 6.1448 21.6835 8.77795 21.4037 8.93323C21.2111 8.9241 21.0174 8.91951 20.8226 8.91947C20.6279 8.91947 20.4343 8.92404 20.2418 8.9332C19.9618 8.77785 15.2068 6.1448 14.8415 6.29793C14.5375 6.42546 13.4275 10.3927 13.0584 11.7394C12.5688 12.1494 12.1121 12.5973 11.6927 13.0789C10.2217 13.4838 6.52782 14.5266 6.40486 14.8198C6.39239 15.0241 6.39239 15.229 6.40486 15.4333C6.39575 15.8693 8.02342 18.977 8.74402 20.2952C8.69889 20.779 8.69889 21.266 8.74402 21.7499C8.02342 23.0681 6.27942 26.3127 6.40486 26.6119C6.41679 26.6403 6.37932 27.1644 6.40486 27.2253C6.52782 27.5185 10.2217 28.5613 11.6927 28.9662C12.1121 29.4478 12.5688 29.8957 13.0584 30.3056C13.4275 31.6524 14.5375 35.6197 14.8415 35.7472C15.2068 35.9003 19.9618 33.2672 20.2418 33.1119C20.4342 33.121 20.6278 33.1256 20.8226 33.1256C21.0174 33.1256 21.2111 33.1211 21.4037 33.1119C21.6835 33.2672 26.4387 35.9003 26.804 35.7472C27.108 35.6197 28.2181 31.6522 28.5871 30.3056C29.0767 29.8957 29.5333 29.4478 29.9527 28.9662C31.4237 28.5613 35.1176 27.5185 35.2406 27.2253C35.2661 27.1644 35.2287 26.6403 35.2406 26.6119ZM29.9453 21.0226C29.9458 22.8269 29.4112 24.5909 28.4092 26.0915C27.4071 27.592 25.9826 28.7617 24.3157 29.4526C22.6488 30.1435 20.8145 30.3246 19.0448 29.9729C17.275 29.6212 15.6493 28.7526 14.3732 27.4769C13.0971 26.2012 12.228 24.5758 11.8757 22.8061C11.5235 21.0365 11.7039 19.2021 12.3943 17.535C13.0847 15.8679 14.2539 14.443 15.7541 13.4405C17.2544 12.4379 19.0182 11.9028 20.8226 11.9028C23.2416 11.9027 25.5616 12.8634 27.2723 14.5736C28.9831 16.2839 29.9446 18.6035 29.9453 21.0226Z" fill="url(#paint47_linear_3737_11534)"/>
<path d="M18.7347 32.9531C18.7778 32.9608 18.8209 32.9681 18.8643 32.9751C18.5102 33.227 18.1363 33.4499 17.7463 33.6417L17.7406 33.6447C17.5281 33.75 17.3186 33.8439 17.1172 33.9274C17.1112 33.9297 17.1051 33.9321 17.0988 33.9348C16.5219 34.1745 15.9242 34.3607 15.3132 34.4908L15.3115 34.4911L15.3099 34.4881C14.8744 33.6293 14.5373 32.7241 14.3048 31.7897C14.3039 31.7867 14.3031 31.7837 14.3025 31.7806L14.2954 31.7512C14.2383 31.5234 14.1922 31.3155 14.1558 31.1338C14.1875 31.1548 14.2199 31.1759 14.252 31.1966C14.3045 31.2307 14.3573 31.2643 14.4104 31.2975C14.4545 31.3249 14.4986 31.3522 14.5427 31.3794C15.7897 32.1374 17.1642 32.6624 18.599 32.9287L18.7347 32.9531Z" fill="url(#paint48_linear_3737_11534)"/>
<path d="M18.6779 32.9436C17.6921 33.6078 16.5795 34.0607 15.4101 34.2738C15.4101 34.2738 14.832 33.3673 14.4087 31.2974C14.4528 31.3248 14.4969 31.3521 14.541 31.3792C15.788 32.1373 17.1625 32.6623 18.5973 32.9286L18.6779 32.9436Z" fill="url(#paint49_linear_3737_11534)"/>
<path style="mix-blend-mode:multiply" opacity="0.5" d="M18.734 32.9531C18.4316 33.2193 18.1001 33.4503 17.7456 33.6417L17.7399 33.6448C17.5373 33.75 17.3292 33.8443 17.1165 33.9274C17.1105 33.9298 17.1044 33.9321 17.0981 33.9348C16.5158 34.1593 15.9193 34.345 15.3125 34.4908L15.3108 34.4911L15.3092 34.4881C14.8653 33.633 14.5278 32.7268 14.3041 31.7897C14.3032 31.7867 14.3024 31.7837 14.3018 31.7807L14.2947 31.7512C14.2599 31.5685 14.2453 31.3825 14.2513 31.1966C14.3038 31.2307 14.3566 31.2643 14.4097 31.2975C14.4538 31.3249 14.4979 31.3522 14.542 31.3794C14.7975 32.0963 15.164 32.7686 15.6282 33.3718C16.64 33.487 17.6643 33.3342 18.5983 32.9287L18.734 32.9531Z" fill="url(#paint50_linear_3737_11534)"/>
<path d="M27.4904 31.1338C27.454 31.3156 27.4079 31.5234 27.3508 31.7513C27.3484 31.7613 27.3461 31.771 27.3437 31.7807L27.3414 31.7897C27.1088 32.7241 26.7717 33.6292 26.3364 34.4881L26.3347 34.4911L26.333 34.4908C25.7212 34.3605 25.1227 34.174 24.5451 33.9338L24.5291 33.9275C24.3252 33.8433 24.1134 33.748 23.8985 33.6411C23.5092 33.4493 23.1359 33.2265 22.7822 32.9748C22.8257 32.9682 22.8688 32.9608 22.9115 32.9531L23.0472 32.9287C24.4821 32.6625 25.8566 32.1374 27.1035 31.379C27.1476 31.3523 27.1916 31.3252 27.2355 31.2975C27.2886 31.2644 27.3417 31.2307 27.3942 31.1966C27.4266 31.1759 27.4587 31.1549 27.4904 31.1338Z" fill="url(#paint51_linear_3737_11534)"/>
<path d="M27.2355 31.2974C26.8125 33.3674 26.2344 34.2739 26.2344 34.2739C25.065 34.0608 23.9524 33.6079 22.9666 32.9437H22.9663L23.0472 32.9286C24.4821 32.6624 25.8566 32.1373 27.1035 31.379C27.1476 31.3522 27.1916 31.3251 27.2355 31.2974Z" fill="url(#paint52_linear_3737_11534)"/>
<path style="mix-blend-mode:multiply" opacity="0.5" d="M27.3513 31.7513C27.349 31.7613 27.3467 31.771 27.3443 31.7807L27.342 31.7897C27.1183 32.7268 26.7808 33.633 26.3369 34.4881L26.3353 34.4911L26.3336 34.4908C25.7259 34.345 25.1287 34.1589 24.5457 33.9338L24.5296 33.9275C24.317 33.8442 24.1089 33.7499 23.9062 33.6448L23.8991 33.6411C23.5451 33.45 23.214 33.2192 22.9121 32.9532L23.0478 32.9288C23.9819 33.3343 25.0061 33.4871 26.0178 33.3718C26.4822 32.7686 26.8487 32.0962 27.1041 31.3791C27.1482 31.3524 27.1922 31.3252 27.2361 31.2975C27.2892 31.2644 27.3423 31.2307 27.3948 31.1966C27.4008 31.3825 27.3862 31.5686 27.3513 31.7513Z" fill="url(#paint53_linear_3737_11534)"/>
<path d="M18.7347 9.10549C18.7778 9.09782 18.8209 9.09046 18.8643 9.08344C18.5102 8.83158 18.1363 8.60866 17.7463 8.41684L17.7406 8.41386C17.5281 8.3086 17.3186 8.2147 17.1172 8.13117C17.1112 8.12882 17.1051 8.12651 17.0988 8.12381C16.5219 7.88401 15.9242 7.6979 15.3132 7.56782L15.3115 7.5675L15.3099 7.57052C14.8744 8.42931 14.5372 9.33451 14.3048 10.2689C14.3039 10.2719 14.3031 10.2749 14.3025 10.278L14.2954 10.3073C14.2383 10.5352 14.1922 10.7431 14.1558 10.9248C14.1875 10.9038 14.2199 10.8827 14.252 10.862C14.3045 10.8279 14.3573 10.7943 14.4104 10.7611C14.4545 10.7337 14.4986 10.7064 14.5427 10.6792C15.7897 9.92115 17.1642 9.39616 18.599 9.12989L18.7347 9.10549Z" fill="url(#paint54_linear_3737_11534)"/>
<path d="M18.6779 9.11496C17.6921 8.45074 16.5795 7.99784 15.4101 7.78479C15.4101 7.78479 14.832 8.69129 14.4087 10.7612C14.4528 10.7338 14.4969 10.7065 14.541 10.6793C15.788 9.92126 17.1625 9.39627 18.5973 9.12999L18.6779 9.11496Z" fill="url(#paint55_linear_3737_11534)"/>
<path style="mix-blend-mode:multiply" opacity="0.5" d="M18.734 9.10555C18.4316 8.83936 18.1001 8.60833 17.7456 8.4169L17.7399 8.41392C17.5373 8.3087 17.3292 8.21434 17.1165 8.13123C17.1105 8.12888 17.1044 8.12657 17.0981 8.12387C16.5158 7.89938 15.9193 7.71365 15.3125 7.56788L15.3108 7.56757L15.3092 7.57058C14.8653 8.42569 14.5278 9.33189 14.3041 10.269C14.3032 10.272 14.3024 10.275 14.3018 10.278L14.2947 10.3074C14.2599 10.4901 14.2453 10.6761 14.2513 10.8621C14.3038 10.828 14.3566 10.7944 14.4097 10.7612C14.4538 10.7338 14.4979 10.7065 14.542 10.6793C14.7975 9.96237 15.164 9.29004 15.6282 8.6869C16.64 8.57164 17.6643 8.72443 18.5983 9.12995L18.734 9.10555Z" fill="url(#paint56_linear_3737_11534)"/>
<g style="mix-blend-mode:soft-light">
<path d="M17.4601 7.44162C16.2532 6.9999 14.9755 6.59729 14.9755 6.59729C14.5839 7.20106 13.7416 9.36453 13.7021 9.46576C14.1445 7.96153 14.6504 6.37777 14.8409 6.29792C15.018 6.22372 16.2278 6.80477 17.4588 7.44063L17.4601 7.44162Z" fill="#F7FFFF"/>
</g>
<path d="M22.9153 9.10549C22.8722 9.09782 22.8291 9.09045 22.7856 9.08344C23.1398 8.83159 23.5137 8.60866 23.9036 8.41684L23.9093 8.41386C24.1218 8.3086 24.3313 8.2147 24.5328 8.13117C24.5388 8.12882 24.5448 8.12651 24.5511 8.12381C25.128 7.88401 25.7257 7.6979 26.3367 7.56782L26.3384 7.5675L26.3401 7.57052C26.7756 8.42931 27.1127 9.33451 27.3451 10.2689C27.3461 10.2719 27.3469 10.2749 27.3475 10.278C27.3498 10.2876 27.3522 10.2973 27.3545 10.3073C27.4116 10.5352 27.4578 10.7431 27.4942 10.9248C27.4624 10.9038 27.43 10.8827 27.3979 10.862C27.3455 10.8279 27.2927 10.7943 27.2396 10.7611C27.1955 10.7337 27.1514 10.7064 27.1072 10.6792C25.8602 9.92115 24.4858 9.39616 23.0509 9.12989L22.9153 9.10549Z" fill="url(#paint57_linear_3737_11534)"/>
<path d="M22.9702 9.11499C23.956 8.45077 25.0686 7.99788 26.238 7.78482C26.238 7.78482 26.816 8.69132 27.2394 10.7612C27.1953 10.7338 27.1512 10.7065 27.1071 10.6794C25.86 9.92129 24.4856 9.3963 23.0507 9.13002L22.9702 9.11499Z" fill="url(#paint58_linear_3737_11534)"/>
<path style="mix-blend-mode:multiply" opacity="0.5" d="M22.9141 9.10549C23.2164 8.8393 23.548 8.60827 23.9024 8.41684L23.9081 8.41386C24.1108 8.30864 24.3189 8.21428 24.5316 8.13117C24.5376 8.12882 24.5436 8.12651 24.5499 8.12381C25.1322 7.89932 25.7287 7.71359 26.3355 7.56782L26.3372 7.5675L26.3389 7.57052C26.7827 8.42563 27.1202 9.33183 27.3439 10.2689C27.3449 10.2719 27.3457 10.2749 27.3463 10.278C27.3486 10.2876 27.351 10.2973 27.3533 10.3073C27.3881 10.4901 27.4027 10.6761 27.3967 10.862C27.3443 10.8279 27.2915 10.7943 27.2384 10.7611C27.1943 10.7337 27.1501 10.7064 27.106 10.6792C26.8505 9.96231 26.484 9.28998 26.0198 8.68684C25.008 8.57158 23.9838 8.72437 23.0497 9.12989L22.9141 9.10549Z" fill="url(#paint59_linear_3737_11534)"/>
<g style="mix-blend-mode:soft-light">
<path d="M24.1865 7.44162C25.3934 6.99993 26.6711 6.59729 26.6711 6.59729C27.0627 7.20106 27.905 9.36453 27.9445 9.46576C27.5021 7.96153 26.9962 6.37777 26.8057 6.29792C26.6287 6.22372 25.4188 6.80477 24.1878 7.44063L24.1865 7.44162Z" fill="#F7FFFF"/>
</g>
<path d="M30.6832 14.0195C30.6581 13.9836 30.6327 13.9479 30.6069 13.9124C31.0356 13.9841 31.4577 14.0903 31.8693 14.2298L31.8754 14.2317C32.1002 14.3072 32.3148 14.3887 32.5165 14.4718C32.5224 14.4744 32.5283 14.477 32.5347 14.4796C33.1125 14.7171 33.6671 15.0074 34.1916 15.3468L34.193 15.3477L34.1921 15.351C33.894 16.2666 33.4935 17.1457 32.9982 17.9714C32.9968 17.9742 32.9953 17.9769 32.9936 17.9795L32.9778 18.0053C32.8573 18.207 32.7432 18.3867 32.6406 18.5411C32.633 18.5038 32.6249 18.466 32.6168 18.4287C32.6038 18.3675 32.5901 18.3064 32.576 18.2454C32.5641 18.1948 32.5522 18.1443 32.5401 18.094C32.1924 16.6766 31.5899 15.3343 30.762 14.1326L30.6832 14.0195Z" fill="url(#paint60_linear_3737_11534)"/>
<path d="M30.7158 14.0649C31.8828 14.2907 32.9905 14.7557 33.9689 15.4306C33.9689 15.4306 33.7381 16.4806 32.5762 18.2452C32.5643 18.1947 32.5524 18.1441 32.5403 18.0938C32.1927 16.6765 31.5902 15.3342 30.7622 14.1324L30.7158 14.0649Z" fill="url(#paint61_linear_3737_11534)"/>
<path style="mix-blend-mode:multiply" opacity="0.5" d="M30.6831 14.0195C31.0852 14.0445 31.4831 14.1151 31.8692 14.2298L31.8754 14.2317C32.0932 14.3003 32.3071 14.3805 32.5164 14.4718C32.5223 14.4744 32.5282 14.477 32.5346 14.4796C33.1055 14.7318 33.659 15.0215 34.1916 15.3468L34.193 15.3477L34.192 15.351C33.9024 16.2699 33.5015 17.1499 32.9982 17.9714C32.9968 17.9742 32.9952 17.9769 32.9935 17.9794L32.9777 18.0052C32.8733 18.1592 32.7523 18.3012 32.6168 18.4287C32.6037 18.3675 32.5901 18.3064 32.5759 18.2454C32.564 18.1948 32.5521 18.1443 32.54 18.094C32.8654 17.4059 33.0806 16.671 33.1778 15.9162C32.5428 15.1201 31.7097 14.505 30.7619 14.1326L30.6831 14.0195Z" fill="url(#paint62_linear_3737_11534)"/>
<g style="mix-blend-mode:soft-light">
<path d="M32.7134 13.8729C33.7988 14.3634 34.9057 14.9258 34.9057 14.9258C34.6189 15.8528 34.279 16.7626 33.8877 17.6505C34.5707 16.3679 35.2633 14.9914 35.189 14.815C35.1199 14.651 33.9422 14.2508 32.7149 13.8731L32.7134 13.8729Z" fill="#F7FFFF"/>
</g>
<path d="M30.6832 28.0151C30.6581 28.051 30.6327 28.0867 30.6069 28.1223C31.0356 28.0505 31.4577 27.9444 31.8693 27.8048L31.8754 27.8029C32.1002 27.7274 32.3148 27.6459 32.5165 27.5628C32.5224 27.5602 32.5283 27.5577 32.5347 27.5551C33.1125 27.3175 33.6671 27.0272 34.1916 26.6879L34.193 26.6869L34.1921 26.6836C33.894 25.768 33.4935 24.889 32.9982 24.0632C32.9968 24.0605 32.9953 24.0578 32.9936 24.0552L32.9778 24.0294C32.8573 23.8277 32.7432 23.648 32.6406 23.4936C32.633 23.5309 32.6249 23.5687 32.6168 23.606C32.6038 23.6672 32.5901 23.7283 32.576 23.7893C32.5641 23.8398 32.5521 23.8903 32.5401 23.9407C32.1924 25.358 31.5899 26.7003 30.762 27.9021L30.6832 28.0151Z" fill="url(#paint63_linear_3737_11534)"/>
<path d="M30.7158 27.9696C31.8828 27.7439 32.9905 27.2789 33.9689 26.604C33.9689 26.604 33.7381 25.5539 32.5762 23.7893C32.5643 23.8399 32.5524 23.8904 32.5403 23.9408C32.1927 25.3581 31.5902 26.7004 30.7622 27.9021L30.7158 27.9696Z" fill="url(#paint64_linear_3737_11534)"/>
<path style="mix-blend-mode:multiply" opacity="0.5" d="M30.6831 28.0153C31.0852 27.9903 31.4831 27.9197 31.8692 27.805L31.8754 27.8031C32.0932 27.7344 32.3072 27.6543 32.5164 27.563C32.5223 27.5603 32.5282 27.5578 32.5346 27.5552C33.1055 27.3029 33.659 27.0132 34.1916 26.688L34.193 26.687L34.192 26.6837C33.9024 25.7648 33.5015 24.8848 32.9982 24.0633C32.9968 24.0606 32.9952 24.0579 32.9935 24.0553L32.9777 24.0295C32.8734 23.8755 32.7523 23.7335 32.6168 23.6061C32.6037 23.6673 32.5901 23.7284 32.5759 23.7894C32.564 23.84 32.5521 23.8904 32.54 23.9408C32.8654 24.6289 33.0806 25.3638 33.1778 26.1186C32.5428 26.9147 31.7097 27.5297 30.7619 27.9022L30.6831 28.0153Z" fill="url(#paint65_linear_3737_11534)"/>
<g style="mix-blend-mode:soft-light">
<path d="M32.7134 28.1619C33.7988 27.6713 34.9057 27.1089 34.9057 27.1089C34.6189 26.1819 34.279 25.2722 33.8877 24.3842C34.5707 25.6669 35.2633 27.0433 35.189 27.2197C35.1199 27.3837 33.9422 27.784 32.7149 28.1616L32.7134 28.1619Z" fill="#F7FFFF"/>
</g>
<path d="M10.9093 14.0195C10.9344 13.9836 10.9598 13.9479 10.9855 13.9124C10.5569 13.9841 10.1348 14.0903 9.72319 14.2298L9.71704 14.2317C9.49224 14.3072 9.2776 14.3887 9.07596 14.4718C9.07006 14.4744 9.06414 14.477 9.05776 14.4796C8.47998 14.7171 7.92533 15.0074 7.40084 15.3468L7.39941 15.3477L7.40037 15.351C7.69847 16.2666 8.09894 17.1457 8.59419 17.9714L8.59891 17.9795L8.61471 18.0053C8.73516 18.207 8.84927 18.3867 8.95183 18.5411C8.95944 18.5038 8.96754 18.466 8.97563 18.4287C8.9887 18.3675 9.00233 18.3064 9.01652 18.2454C9.02839 18.1948 9.04028 18.1443 9.0524 18.094C9.40003 16.6766 10.0025 15.3343 10.8305 14.1326L10.9093 14.0195Z" fill="url(#paint66_linear_3737_11534)"/>
<path d="M10.8727 14.0649C9.70571 14.2907 8.59809 14.7557 7.61963 15.4306C7.61963 15.4306 7.85045 16.4806 9.01239 18.2452C9.02425 18.1947 9.03615 18.1441 9.04827 18.0938C9.39589 16.6765 9.99838 15.3342 10.8263 14.1324L10.8727 14.0649Z" fill="url(#paint67_linear_3737_11534)"/>
<path style="mix-blend-mode:multiply" opacity="0.5" d="M10.9093 14.0195C10.5072 14.0445 10.1093 14.1151 9.72319 14.2298L9.71704 14.2317C9.49925 14.3003 9.28525 14.3805 9.07596 14.4718C9.07006 14.4744 9.06414 14.477 9.05776 14.4796C8.48695 14.7318 7.93343 15.0215 7.40084 15.3468L7.39941 15.3477L7.40037 15.351C7.68994 16.2699 8.09086 17.1499 8.59419 17.9714L8.59891 17.9794L8.61471 18.0052C8.71906 18.1592 8.8401 18.3012 8.97563 18.4287C8.9887 18.3675 9.00233 18.3064 9.01652 18.2454C9.02839 18.1948 9.04028 18.1443 9.0524 18.094C8.72704 17.4059 8.51181 16.671 8.4146 15.9162C9.0496 15.1201 9.88274 14.505 10.8305 14.1326L10.9093 14.0195Z" fill="url(#paint68_linear_3737_11534)"/>
<g style="mix-blend-mode:soft-light">
<path d="M8.8766 13.8729C7.79121 14.3634 6.68432 14.9258 6.68432 14.9258C6.97107 15.8528 7.31097 16.7626 7.70232 17.6505C7.01932 16.3679 6.32673 14.9914 6.40099 14.815C6.47008 14.651 7.64782 14.2508 8.87504 13.8731L8.8766 13.8729Z" fill="#F7FFFF"/>
</g>
<path d="M10.9093 28.0151C10.9344 28.051 10.9598 28.0867 10.9855 28.1223C10.5569 28.0505 10.1348 27.9444 9.72319 27.8048L9.71704 27.8029C9.49224 27.7274 9.2776 27.6459 9.07596 27.5628C9.07006 27.5602 9.06414 27.5577 9.05776 27.5551C8.47998 27.3175 7.92533 27.0272 7.40084 26.6879L7.39941 26.6869L7.40037 26.6836C7.69847 25.768 8.09894 24.889 8.59419 24.0632L8.59891 24.0552L8.61471 24.0294C8.73516 23.8277 8.84927 23.648 8.95183 23.4936C8.95944 23.5309 8.96754 23.5687 8.97563 23.606C8.9887 23.6672 9.00233 23.7283 9.01652 23.7893C9.02839 23.8398 9.04034 23.8903 9.0524 23.9407C9.40003 25.358 10.0025 26.7003 10.8305 27.9021L10.9093 28.0151Z" fill="url(#paint69_linear_3737_11534)"/>
<path d="M10.8727 27.9696C9.70571 27.7439 8.59809 27.2789 7.61963 26.604C7.61963 26.604 7.85045 25.5539 9.01239 23.7893C9.02425 23.8399 9.03621 23.8904 9.04827 23.9408C9.3959 25.3581 9.99839 26.7004 10.8263 27.9021L10.8727 27.9696Z" fill="url(#paint70_linear_3737_11534)"/>
<path style="mix-blend-mode:multiply" opacity="0.5" d="M10.9093 28.0153C10.5072 27.9903 10.1093 27.9197 9.72319 27.805L9.71704 27.8031C9.49924 27.7344 9.28524 27.6543 9.07596 27.563C9.07006 27.5603 9.06414 27.5578 9.05776 27.5552C8.48695 27.3029 7.93343 27.0133 7.40084 26.688L7.39941 26.687L7.40037 26.6837C7.68994 25.7648 8.09086 24.8848 8.59419 24.0633L8.59891 24.0553L8.61471 24.0295C8.71905 23.8755 8.84009 23.7335 8.97563 23.6061C8.9887 23.6673 9.00233 23.7284 9.01652 23.7894C9.02839 23.84 9.04034 23.8904 9.0524 23.9408C8.72703 24.6289 8.51181 25.3638 8.4146 26.1186C9.0496 26.9147 9.88274 27.5297 10.8305 27.9022L10.9093 28.0153Z" fill="url(#paint71_linear_3737_11534)"/>
<g style="mix-blend-mode:soft-light">
<path d="M8.8766 28.1619C7.79121 27.6713 6.68432 27.1089 6.68432 27.1089C6.97107 26.1819 7.31097 25.2722 7.70232 24.3842C7.01932 25.6669 6.32673 27.0433 6.40099 27.2197C6.47008 27.3837 7.64782 27.784 8.87504 28.1616L8.8766 28.1619Z" fill="#F7FFFF"/>
</g>
<g style="mix-blend-mode:multiply" opacity="0.5">
<path d="M32.0762 25.4761C31.2069 27.6692 29.7157 29.5606 27.786 30.9176C25.8562 32.2746 23.572 33.0381 21.2141 33.1143C18.8562 33.1905 16.5274 32.5761 14.514 31.3465C12.5006 30.117 10.8904 28.3259 9.88135 26.1935C14.3416 30.3039 23.4102 34.1421 32.0762 25.4761Z" fill="#C10065"/>
</g>
<g style="mix-blend-mode:multiply" opacity="0.5">
<path d="M31.3588 28.5715C30.8128 28.7282 30.3154 28.8665 29.9528 28.9664C29.5334 29.448 29.0768 29.8959 28.5872 30.3059C28.4816 30.6912 28.3153 31.2913 28.1245 31.9545C26.7031 32.9741 25.1143 33.7371 23.43 34.2089C22.4065 33.6673 21.5201 33.1764 21.4038 33.112C21.2113 33.1213 21.0177 33.126 20.8227 33.126C20.6279 33.126 20.4344 33.1214 20.242 33.1123C20.1241 33.1774 19.2129 33.6823 18.1701 34.2333C16.5043 33.8058 14.9355 33.064 13.5481 32.0478C13.3463 31.3477 13.1692 30.7092 13.0586 30.3059C12.569 29.896 12.1124 29.4481 11.693 28.9664C11.39 28.8829 10.9923 28.7726 10.5513 28.647C10.1595 27.8848 9.93128 27.0491 9.88135 26.1935C13.0943 31.5068 23.8754 37.8329 32.0762 25.4761C32.1975 26.5595 31.9444 27.6519 31.3588 28.5715Z" fill="#C10065"/>
</g>
<g style="mix-blend-mode:soft-light">
<path d="M20.8236 8.91959C18.2201 8.91974 15.6859 9.75929 13.5973 11.3136C11.5086 12.868 9.97678 15.0543 9.229 17.5481C11.2091 13.1694 15.7058 11.0624 20.8239 11.0624C26.4059 11.0624 31.051 13.7467 32.7152 18.7704C32.1905 16.0005 30.7153 13.5008 28.5443 11.7024C26.3733 9.90397 23.6427 8.91977 20.8236 8.91959Z" fill="#F7FFFF"/>
</g>
<path d="M20.823 11.0623C18.8535 11.0623 16.9283 11.6463 15.2908 12.7405C13.6532 13.8346 12.3769 15.3898 11.6232 17.2093C10.8696 19.0289 10.6724 21.031 11.0566 22.9626C11.4408 24.8943 12.3892 26.6685 13.7818 28.0612C15.1744 29.4538 16.9487 30.4021 18.8803 30.7864C20.8119 31.1706 22.8141 30.9734 24.6336 30.2197C26.4531 29.466 28.0083 28.1897 29.1025 26.5522C30.1967 24.9147 30.7807 22.9894 30.7807 21.02C30.7806 18.379 29.7315 15.8463 27.8641 13.9789C25.9966 12.1115 23.4639 11.0623 20.823 11.0623ZM20.8226 30.1424C19.0183 30.1423 17.2546 29.6073 15.7544 28.6048C14.2543 27.6024 13.085 26.1776 12.3946 24.5107C11.7042 22.8438 11.5236 21.0095 11.8756 19.2399C12.2276 17.4703 13.0965 15.8449 14.3723 14.5691C15.6482 13.2933 17.2737 12.4245 19.0433 12.0725C20.8129 11.7206 22.6471 11.9013 24.314 12.5918C25.9809 13.2822 27.4056 14.4515 28.408 15.9517C29.4104 17.452 29.9454 19.2157 29.9454 21.02C29.9454 22.218 29.7094 23.4042 29.2509 24.511C28.7925 25.6178 28.1205 26.6235 27.2733 27.4706C26.4262 28.3177 25.4205 28.9896 24.3137 29.4481C23.2069 29.9065 22.0206 30.1424 20.8226 30.1424Z" fill="url(#paint72_linear_3737_11534)"/>
<g style="mix-blend-mode:soft-light">
<path d="M12.8091 26.9299C12.8091 26.9299 15.4772 30.1424 20.8239 30.1424C26.1706 30.1424 28.8391 26.9299 28.8391 26.9299C27.9407 28.2237 26.7425 29.2809 25.3467 30.0109C23.951 30.741 22.3992 31.1224 20.8241 31.1224C19.2489 31.1224 17.6972 30.741 16.3014 30.0109C14.9057 29.2809 13.7075 28.2237 12.8091 26.9299Z" fill="#F7FFFF"/>
</g>
<path d="M12.8091 26.9299C13.7348 28.185 14.9424 29.2053 16.3345 29.9083C17.7267 30.6114 19.2645 30.9777 20.8241 30.9777C22.3837 30.9777 23.9215 30.6114 25.3137 29.9083C26.7058 29.2053 27.9134 28.185 28.8391 26.9299C27.9407 28.2237 26.7425 29.2809 25.3467 30.0109C23.951 30.741 22.3992 31.1224 20.8241 31.1224C19.2489 31.1224 17.6972 30.741 16.3014 30.0109C14.9057 29.2809 13.7075 28.2237 12.8091 26.9299Z" fill="url(#paint73_linear_3737_11534)"/>
<g style="mix-blend-mode:multiply" opacity="0.4">
<path d="M30.4103 18.3106C30.176 18.1773 29.8158 17.9578 29.2869 17.6036L29.2866 17.6033C26.8629 15.7581 23.901 14.7587 20.8548 14.7581C15.2449 14.7581 12.246 17.913 12.246 17.913C11.8881 18.309 11.4957 18.6723 11.0732 18.9986C11.5264 16.8156 12.6988 14.8478 14.4028 13.4101C16.1067 11.9724 18.2438 11.1479 20.4719 11.0686C22.6999 10.9894 24.8902 11.6599 26.692 12.9729C28.4939 14.2859 29.8032 16.1654 30.4103 18.3106Z" fill="#D01BDC"/>
</g>
<path d="M20.8238 10.0779C20.4279 10.5883 23.5868 11.4231 23.9655 11.0623C24.3441 10.7016 23.9877 10.167 23.2749 10.0779C22.5621 9.98877 21.1348 9.67693 20.8238 10.0779Z" fill="#F7FFFF"/>
<path d="M20.1175 31.0981C19.8876 30.6713 22.3771 30.2423 22.7267 30.554C23.0762 30.8658 22.4528 30.9902 22.4528 30.9902L20.1175 31.0981Z" fill="#F7FFFF"/>
<path style="mix-blend-mode:color-dodge" opacity="0.8" d="M25.8594 11.4024C26.3056 9.5215 25.1426 7.63502 23.2618 7.18879C21.3809 6.74255 19.4945 7.90554 19.0482 9.78639C18.602 11.6672 19.765 13.5537 21.6458 14C23.5267 14.4462 25.4132 13.2832 25.8594 11.4024Z" fill="url(#paint74_radial_3737_11534)"/>
<path style="mix-blend-mode:color-dodge" opacity="0.8" d="M18.6406 32.5627C18.443 33.3111 17.3624 33.6748 16.2269 33.375C15.0915 33.0752 14.3312 32.2255 14.5288 31.4771C14.7264 30.7287 15.807 30.365 16.9425 30.6648C18.0779 30.9646 18.8382 31.8143 18.6406 32.5627Z" fill="url(#paint75_radial_3737_11534)"/>
<path d="M35.2409 15.4334C35.2499 15.7682 33.6224 18.9771 32.9016 20.2953L32.8525 19.5104C32.8525 19.5104 34.9017 16.3248 35.1901 14.8149L35.2516 14.9409V14.9412C35.2549 15.1156 35.2406 15.4103 35.2409 15.4334Z" fill="#680A0A"/>
<path d="M35.2409 27.2254C35.2321 27.2425 35.2195 27.2574 35.2041 27.2689C35.1991 27.2529 35.1948 27.2365 35.1901 27.2198C34.6989 25.4275 32.8525 22.5296 32.8525 22.5296L32.9016 21.7501C33.6224 23.0682 35.3665 26.3129 35.2409 26.612C35.2288 26.6404 35.2666 27.1646 35.2409 27.2254Z" fill="url(#paint76_linear_3737_11534)"/>
<path d="M8.74585 21.7501V22.6522C7.79139 24.0769 7.00529 25.6074 6.40328 27.2131C6.38457 27.1135 6.41797 26.6391 6.40661 26.612C6.28099 26.3129 8.02515 23.0682 8.74585 21.7501Z" fill="url(#paint77_linear_3737_11534)"/>
<path d="M8.74402 19.3444V20.2953C8.02332 18.9771 6.39577 15.8694 6.40478 15.4334C6.39312 15.2308 6.39246 15.0278 6.40278 14.8253C6.94831 16.4421 7.73785 17.9661 8.74402 19.3444Z" fill="#680A0A"/>
<path d="M19.7039 33.0694L20.2422 33.1122C19.9622 33.2672 15.2072 35.9005 14.842 35.7471C14.7534 35.71 14.5971 35.3485 14.4106 34.8212C14.4314 34.864 14.7651 35.5496 14.9432 35.5496C15.127 35.5496 19.7039 33.0694 19.7039 33.0694Z" fill="#680A0A"/>
<path d="M27.2329 34.8247C27.0468 35.3503 26.8907 35.7101 26.8025 35.7472C26.4373 35.9006 21.6823 33.2673 21.4023 33.112L22.0766 33.0562C22.0766 33.0562 25.2812 35.0646 26.586 35.4662C26.9161 35.5678 27.2078 34.8845 27.2329 34.8247Z" fill="#680A0A"/>
<defs>
<linearGradient id="paint0_linear_3737_11534" x1="20.9999" y1="11.9631" x2="20.9999" y2="30.214" gradientUnits="userSpaceOnUse">
<stop stop-color="#E5552F"/>
<stop offset="0.13709" stop-color="#E75A34"/>
<stop offset="0.30331" stop-color="#ED6843"/>
<stop offset="0.48402" stop-color="#F77E5B"/>
<stop offset="0.4881" stop-color="#F77F5C"/>
<stop offset="1" stop-color="#F7A66C"/>
</linearGradient>
<linearGradient id="paint1_linear_3737_11534" x1="20.8532" y1="27.7442" x2="20.8532" y2="10.3939" gradientUnits="userSpaceOnUse">
<stop stop-color="#E5552F"/>
<stop offset="0.13709" stop-color="#E75A34"/>
<stop offset="0.30331" stop-color="#ED6843"/>
<stop offset="0.48402" stop-color="#F77E5B"/>
<stop offset="0.4881" stop-color="#F77F5C"/>
<stop offset="1" stop-color="#F7A66C"/>
</linearGradient>
<linearGradient id="paint2_linear_3737_11534" x1="11.0244" y1="8.81272" x2="14.6502" y2="8.81272" gradientUnits="userSpaceOnUse">
<stop stop-color="#E5552F"/>
<stop offset="0.13709" stop-color="#E75A34"/>
<stop offset="0.30331" stop-color="#ED6843"/>
<stop offset="0.48402" stop-color="#F77E5B"/>
<stop offset="0.4881" stop-color="#F77F5C"/>
<stop offset="1" stop-color="#F7A66C"/>
</linearGradient>
<linearGradient id="paint3_linear_3737_11534" x1="11.0244" y1="8.81274" x2="14.6501" y2="8.81274" gradientUnits="userSpaceOnUse">
<stop stop-color="#B01B03"/>
<stop offset="0.17839" stop-color="#B11E06"/>
<stop offset="0.31124" stop-color="#B4260F"/>
<stop offset="0.42931" stop-color="#B83520"/>
<stop offset="0.5389" stop-color="#BE4936"/>
<stop offset="0.64255" stop-color="#C76454"/>
<stop offset="0.74183" stop-color="#D18578"/>
<stop offset="0.83763" stop-color="#DDACA3"/>
<stop offset="0.92817" stop-color="#EBD7D3"/>
<stop offset="1" stop-color="#F7FFFF"/>
</linearGradient>
<linearGradient id="paint4_linear_3737_11534" x1="13.0167" y1="8.64582" x2="12.9114" y2="11.6918" gradientUnits="userSpaceOnUse">
<stop stop-color="#E84E1A"/>
<stop offset="0.50595" stop-color="#D74348"/>
<stop offset="1" stop-color="#C62C15"/>
</linearGradient>
<linearGradient id="paint5_linear_3737_11534" x1="11.0264" y1="10.4809" x2="12.7746" y2="10.4809" gradientUnits="userSpaceOnUse">
<stop stop-color="#B01B03"/>
<stop offset="0.17839" stop-color="#B11E06"/>
<stop offset="0.31124" stop-color="#B4260F"/>
<stop offset="0.42931" stop-color="#B83520"/>
<stop offset="0.5389" stop-color="#BE4936"/>
<stop offset="0.64255" stop-color="#C76454"/>
<stop offset="0.74183" stop-color="#D18578"/>
<stop offset="0.83763" stop-color="#DDACA3"/>
<stop offset="0.92817" stop-color="#EBD7D3"/>
<stop offset="1" stop-color="#F7FFFF"/>
</linearGradient>
<linearGradient id="paint6_linear_3737_11534" x1="5.9707" y1="12.9696" x2="12.2654" y2="12.9696" gradientUnits="userSpaceOnUse">
<stop stop-color="#E5552F"/>
<stop offset="0.13709" stop-color="#E75A34"/>
<stop offset="0.30331" stop-color="#ED6843"/>
<stop offset="0.48402" stop-color="#F77E5B"/>
<stop offset="0.4881" stop-color="#F77F5C"/>
<stop offset="1" stop-color="#F7A66C"/>
</linearGradient>
<linearGradient id="paint7_linear_3737_11534" x1="5.9707" y1="12.9697" x2="12.2652" y2="12.9697" gradientUnits="userSpaceOnUse">
<stop stop-color="#B01B03"/>
<stop offset="0.17839" stop-color="#B11E06"/>
<stop offset="0.31124" stop-color="#B4260F"/>
<stop offset="0.42931" stop-color="#B83520"/>
<stop offset="0.5389" stop-color="#BE4936"/>
<stop offset="0.64255" stop-color="#C76454"/>
<stop offset="0.74183" stop-color="#D18578"/>
<stop offset="0.83763" stop-color="#DDACA3"/>
<stop offset="0.92817" stop-color="#EBD7D3"/>
<stop offset="1" stop-color="#F7FFFF"/>
</linearGradient>
<linearGradient id="paint8_linear_3737_11534" x1="9.15637" y1="12.7794" x2="12.2355" y2="12.5774" gradientUnits="userSpaceOnUse">
<stop stop-color="#E84E1A"/>
<stop offset="0.50595" stop-color="#D74348"/>
<stop offset="1" stop-color="#C62C15"/>
</linearGradient>
<linearGradient id="paint9_linear_3737_11534" x1="9.30469" y1="13.9113" x2="12.2383" y2="13.9113" gradientUnits="userSpaceOnUse">
<stop stop-color="#B01B03"/>
<stop offset="0.17839" stop-color="#B11E06"/>
<stop offset="0.31124" stop-color="#B4260F"/>
<stop offset="0.42931" stop-color="#B83520"/>
<stop offset="0.5389" stop-color="#BE4936"/>
<stop offset="0.64255" stop-color="#C76454"/>
<stop offset="0.74183" stop-color="#D18578"/>
<stop offset="0.83763" stop-color="#DDACA3"/>
<stop offset="0.92817" stop-color="#EBD7D3"/>
<stop offset="1" stop-color="#F7FFFF"/>
</linearGradient>
<linearGradient id="paint10_linear_3737_11534" x1="11.5199" y1="13.0439" x2="9.181" y2="8.49972" gradientUnits="userSpaceOnUse">
<stop stop-color="#E5552F"/>
<stop offset="0.13709" stop-color="#E75A34"/>
<stop offset="0.30331" stop-color="#ED6843"/>
<stop offset="0.48402" stop-color="#F77E5B"/>
<stop offset="0.4881" stop-color="#F77F5C"/>
<stop offset="1" stop-color="#F7A66C"/>
</linearGradient>
<linearGradient id="paint11_linear_3737_11534" x1="7.22559" y1="10.0476" x2="12.7814" y2="10.0476" gradientUnits="userSpaceOnUse">
<stop stop-color="#B01B03"/>
<stop offset="0.17839" stop-color="#B11E06"/>
<stop offset="0.31124" stop-color="#B4260F"/>
<stop offset="0.42931" stop-color="#B83520"/>
<stop offset="0.5389" stop-color="#BE4936"/>
<stop offset="0.64255" stop-color="#C76454"/>
<stop offset="0.74183" stop-color="#D18578"/>
<stop offset="0.83763" stop-color="#DDACA3"/>
<stop offset="0.92817" stop-color="#EBD7D3"/>
<stop offset="1" stop-color="#F7FFFF"/>
</linearGradient>
<linearGradient id="paint12_linear_3737_11534" x1="9.98583" y1="9.96168" x2="12.5309" y2="12.2611" gradientUnits="userSpaceOnUse">
<stop stop-color="#E84E1A"/>
<stop offset="0.50595" stop-color="#D74348"/>
<stop offset="1" stop-color="#C62C15"/>
</linearGradient>
<linearGradient id="paint13_linear_3737_11534" x1="27.0223" y1="8.81272" x2="30.6481" y2="8.81272" gradientUnits="userSpaceOnUse">
<stop stop-color="#E5552F"/>
<stop offset="0.13709" stop-color="#E75A34"/>
<stop offset="0.30331" stop-color="#ED6843"/>
<stop offset="0.48402" stop-color="#F77E5B"/>
<stop offset="0.4881" stop-color="#F77F5C"/>
<stop offset="1" stop-color="#F7A66C"/>
</linearGradient>
<linearGradient id="paint14_linear_3737_11534" x1="27.022" y1="8.81274" x2="30.6477" y2="8.81274" gradientUnits="userSpaceOnUse">
<stop stop-color="#B01B03"/>
<stop offset="0.17839" stop-color="#B11E06"/>
<stop offset="0.31124" stop-color="#B4260F"/>
<stop offset="0.42931" stop-color="#B83520"/>
<stop offset="0.5389" stop-color="#BE4936"/>
<stop offset="0.64255" stop-color="#C76454"/>
<stop offset="0.74183" stop-color="#D18578"/>
<stop offset="0.83763" stop-color="#DDACA3"/>
<stop offset="0.92817" stop-color="#EBD7D3"/>
<stop offset="1" stop-color="#F7FFFF"/>
</linearGradient>
<linearGradient id="paint15_linear_3737_11534" x1="28.6602" y1="8.65393" x2="28.7655" y2="11.7" gradientUnits="userSpaceOnUse">
<stop stop-color="#E84E1A"/>
<stop offset="0.50595" stop-color="#D74348"/>
<stop offset="1" stop-color="#C62C15"/>
</linearGradient>
<linearGradient id="paint16_linear_3737_11534" x1="28.895" y1="10.4809" x2="30.6432" y2="10.4809" gradientUnits="userSpaceOnUse">
<stop stop-color="#B01B03"/>
<stop offset="0.17839" stop-color="#B11E06"/>
<stop offset="0.31124" stop-color="#B4260F"/>
<stop offset="0.42931" stop-color="#B83520"/>
<stop offset="0.5389" stop-color="#BE4936"/>
<stop offset="0.64255" stop-color="#C76454"/>
<stop offset="0.74183" stop-color="#D18578"/>
<stop offset="0.83763" stop-color="#DDACA3"/>
<stop offset="0.92817" stop-color="#EBD7D3"/>
<stop offset="1" stop-color="#F7FFFF"/>
</linearGradient>
<linearGradient id="paint17_linear_3737_11534" x1="29.4028" y1="12.9696" x2="35.6975" y2="12.9696" gradientUnits="userSpaceOnUse">
<stop stop-color="#E5552F"/>
<stop offset="0.13709" stop-color="#E75A34"/>
<stop offset="0.30331" stop-color="#ED6843"/>
<stop offset="0.48402" stop-color="#F77E5B"/>
<stop offset="0.4881" stop-color="#F77F5C"/>
<stop offset="1" stop-color="#F7A66C"/>
</linearGradient>
<linearGradient id="paint18_linear_3737_11534" x1="29.4028" y1="12.9697" x2="35.6973" y2="12.9697" gradientUnits="userSpaceOnUse">
<stop stop-color="#B01B03"/>
<stop offset="0.17839" stop-color="#B11E06"/>
<stop offset="0.31124" stop-color="#B4260F"/>
<stop offset="0.42931" stop-color="#B83520"/>
<stop offset="0.5389" stop-color="#BE4936"/>
<stop offset="0.64255" stop-color="#C76454"/>
<stop offset="0.74183" stop-color="#D18578"/>
<stop offset="0.83763" stop-color="#DDACA3"/>
<stop offset="0.92817" stop-color="#EBD7D3"/>
<stop offset="1" stop-color="#F7FFFF"/>
</linearGradient>
<linearGradient id="paint19_linear_3737_11534" x1="32.4454" y1="12.7937" x2="29.3664" y2="12.5917" gradientUnits="userSpaceOnUse">
<stop stop-color="#E84E1A"/>
<stop offset="0.50595" stop-color="#D74348"/>
<stop offset="1" stop-color="#C62C15"/>
</linearGradient>
<linearGradient id="paint20_linear_3737_11534" x1="29.4302" y1="13.9113" x2="32.3638" y2="13.9113" gradientUnits="userSpaceOnUse">
<stop stop-color="#B01B03"/>
<stop offset="0.17839" stop-color="#B11E06"/>
<stop offset="0.31124" stop-color="#B4260F"/>
<stop offset="0.42931" stop-color="#B83520"/>
<stop offset="0.5389" stop-color="#BE4936"/>
<stop offset="0.64255" stop-color="#C76454"/>
<stop offset="0.74183" stop-color="#D18578"/>
<stop offset="0.83763" stop-color="#DDACA3"/>
<stop offset="0.92817" stop-color="#EBD7D3"/>
<stop offset="1" stop-color="#F7FFFF"/>
</linearGradient>
<linearGradient id="paint21_linear_3737_11534" x1="32.0047" y1="14.5721" x2="31.6706" y2="9.8943" gradientUnits="userSpaceOnUse">
<stop stop-color="#E5552F"/>
<stop offset="0.13709" stop-color="#E75A34"/>
<stop offset="0.30331" stop-color="#ED6843"/>
<stop offset="0.48402" stop-color="#F77E5B"/>
<stop offset="0.4881" stop-color="#F77F5C"/>
<stop offset="1" stop-color="#F7A66C"/>
</linearGradient>
<linearGradient id="paint22_linear_3737_11534" x1="28.8877" y1="10.0475" x2="34.4436" y2="10.0475" gradientUnits="userSpaceOnUse">
<stop stop-color="#B01B03"/>
<stop offset="0.17839" stop-color="#B11E06"/>
<stop offset="0.31124" stop-color="#B4260F"/>
<stop offset="0.42931" stop-color="#B83520"/>
<stop offset="0.5389" stop-color="#BE4936"/>
<stop offset="0.64255" stop-color="#C76454"/>
<stop offset="0.74183" stop-color="#D18578"/>
<stop offset="0.83763" stop-color="#DDACA3"/>
<stop offset="0.92817" stop-color="#EBD7D3"/>
<stop offset="1" stop-color="#F7FFFF"/>
</linearGradient>
<linearGradient id="paint23_linear_3737_11534" x1="31.7121" y1="9.96561" x2="29.1669" y2="12.2651" gradientUnits="userSpaceOnUse">
<stop stop-color="#E84E1A"/>
<stop offset="0.50595" stop-color="#D74348"/>
<stop offset="1" stop-color="#C62C15"/>
</linearGradient>
<linearGradient id="paint24_linear_3737_11534" x1="11.0244" y1="33.1768" x2="14.6502" y2="33.1768" gradientUnits="userSpaceOnUse">
<stop stop-color="#E5552F"/>
<stop offset="0.13709" stop-color="#E75A34"/>
<stop offset="0.30331" stop-color="#ED6843"/>
<stop offset="0.48402" stop-color="#F77E5B"/>
<stop offset="0.4881" stop-color="#F77F5C"/>
<stop offset="1" stop-color="#F7A66C"/>
</linearGradient>
<linearGradient id="paint25_linear_3737_11534" x1="11.0244" y1="33.1766" x2="14.6501" y2="33.1766" gradientUnits="userSpaceOnUse">
<stop stop-color="#B01B03"/>
<stop offset="0.17839" stop-color="#B11E06"/>
<stop offset="0.31124" stop-color="#B4260F"/>
<stop offset="0.42931" stop-color="#B83520"/>
<stop offset="0.5389" stop-color="#BE4936"/>
<stop offset="0.64255" stop-color="#C76454"/>
<stop offset="0.74183" stop-color="#D18578"/>
<stop offset="0.83763" stop-color="#DDACA3"/>
<stop offset="0.92817" stop-color="#EBD7D3"/>
<stop offset="1" stop-color="#F7FFFF"/>
</linearGradient>
<linearGradient id="paint26_linear_3737_11534" x1="13.0702" y1="33.4001" x2="12.9649" y2="30.3541" gradientUnits="userSpaceOnUse">
<stop stop-color="#E84E1A"/>
<stop offset="0.50595" stop-color="#D74348"/>
<stop offset="1" stop-color="#C62C15"/>
</linearGradient>
<linearGradient id="paint27_linear_3737_11534" x1="11.0264" y1="31.5086" x2="12.7746" y2="31.5086" gradientUnits="userSpaceOnUse">
<stop stop-color="#B01B03"/>
<stop offset="0.17839" stop-color="#B11E06"/>
<stop offset="0.31124" stop-color="#B4260F"/>
<stop offset="0.42931" stop-color="#B83520"/>
<stop offset="0.5389" stop-color="#BE4936"/>
<stop offset="0.64255" stop-color="#C76454"/>
<stop offset="0.74183" stop-color="#D18578"/>
<stop offset="0.83763" stop-color="#DDACA3"/>
<stop offset="0.92817" stop-color="#EBD7D3"/>
<stop offset="1" stop-color="#F7FFFF"/>
</linearGradient>
<linearGradient id="paint28_linear_3737_11534" x1="5.9707" y1="29.0198" x2="12.2654" y2="29.0198" gradientUnits="userSpaceOnUse">
<stop stop-color="#E5552F"/>
<stop offset="0.13709" stop-color="#E75A34"/>
<stop offset="0.30331" stop-color="#ED6843"/>
<stop offset="0.48402" stop-color="#F77E5B"/>
<stop offset="0.4881" stop-color="#F77F5C"/>
<stop offset="1" stop-color="#F7A66C"/>
</linearGradient>
<linearGradient id="paint29_linear_3737_11534" x1="5.9707" y1="29.0197" x2="12.2652" y2="29.0197" gradientUnits="userSpaceOnUse">
<stop stop-color="#B01B03"/>
<stop offset="0.17839" stop-color="#B11E06"/>
<stop offset="0.31124" stop-color="#B4260F"/>
<stop offset="0.42931" stop-color="#B83520"/>
<stop offset="0.5389" stop-color="#BE4936"/>
<stop offset="0.64255" stop-color="#C76454"/>
<stop offset="0.74183" stop-color="#D18578"/>
<stop offset="0.83763" stop-color="#DDACA3"/>
<stop offset="0.92817" stop-color="#EBD7D3"/>
<stop offset="1" stop-color="#F7FFFF"/>
</linearGradient>
<linearGradient id="paint30_linear_3737_11534" x1="9.13005" y1="29.1017" x2="12.2091" y2="29.3038" gradientUnits="userSpaceOnUse">
<stop stop-color="#E84E1A"/>
<stop offset="0.50595" stop-color="#D74348"/>
<stop offset="1" stop-color="#C62C15"/>
</linearGradient>
<linearGradient id="paint31_linear_3737_11534" x1="9.30469" y1="28.078" x2="12.2383" y2="28.078" gradientUnits="userSpaceOnUse">
<stop stop-color="#B01B03"/>
<stop offset="0.17839" stop-color="#B11E06"/>
<stop offset="0.31124" stop-color="#B4260F"/>
<stop offset="0.42931" stop-color="#B83520"/>
<stop offset="0.5389" stop-color="#BE4936"/>
<stop offset="0.64255" stop-color="#C76454"/>
<stop offset="0.74183" stop-color="#D18578"/>
<stop offset="0.83763" stop-color="#DDACA3"/>
<stop offset="0.92817" stop-color="#EBD7D3"/>
<stop offset="1" stop-color="#F7FFFF"/>
</linearGradient>
<linearGradient id="paint32_linear_3737_11534" x1="12.4867" y1="33.6601" x2="7.22519" y2="30.3717" gradientUnits="userSpaceOnUse">
<stop stop-color="#E5552F"/>
<stop offset="0.13709" stop-color="#E75A34"/>
<stop offset="0.30331" stop-color="#ED6843"/>
<stop offset="0.48402" stop-color="#F77E5B"/>
<stop offset="0.4881" stop-color="#F77F5C"/>
<stop offset="1" stop-color="#F7A66C"/>
</linearGradient>
<linearGradient id="paint33_linear_3737_11534" x1="7.22559" y1="31.942" x2="12.7814" y2="31.942" gradientUnits="userSpaceOnUse">
<stop stop-color="#B01B03"/>
<stop offset="0.17839" stop-color="#B11E06"/>
<stop offset="0.31124" stop-color="#B4260F"/>
<stop offset="0.42931" stop-color="#B83520"/>
<stop offset="0.5389" stop-color="#BE4936"/>
<stop offset="0.64255" stop-color="#C76454"/>
<stop offset="0.74183" stop-color="#D18578"/>
<stop offset="0.83763" stop-color="#DDACA3"/>
<stop offset="0.92817" stop-color="#EBD7D3"/>
<stop offset="1" stop-color="#F7FFFF"/>
</linearGradient>
<linearGradient id="paint34_linear_3737_11534" x1="10.0752" y1="32.1455" x2="12.6204" y2="29.846" gradientUnits="userSpaceOnUse">
<stop stop-color="#E84E1A"/>
<stop offset="0.50595" stop-color="#D74348"/>
<stop offset="1" stop-color="#C62C15"/>
</linearGradient>
<linearGradient id="paint35_linear_3737_11534" x1="27.0223" y1="33.1768" x2="30.6481" y2="33.1768" gradientUnits="userSpaceOnUse">
<stop stop-color="#E5552F"/>
<stop offset="0.13709" stop-color="#E75A34"/>
<stop offset="0.30331" stop-color="#ED6843"/>
<stop offset="0.48402" stop-color="#F77E5B"/>
<stop offset="0.4881" stop-color="#F77F5C"/>
<stop offset="1" stop-color="#F7A66C"/>
</linearGradient>
<linearGradient id="paint36_linear_3737_11534" x1="27.022" y1="33.1766" x2="30.6477" y2="33.1766" gradientUnits="userSpaceOnUse">
<stop stop-color="#B01B03"/>
<stop offset="0.17839" stop-color="#B11E06"/>
<stop offset="0.31124" stop-color="#B4260F"/>
<stop offset="0.42931" stop-color="#B83520"/>
<stop offset="0.5389" stop-color="#BE4936"/>
<stop offset="0.64255" stop-color="#C76454"/>
<stop offset="0.74183" stop-color="#D18578"/>
<stop offset="0.83763" stop-color="#DDACA3"/>
<stop offset="0.92817" stop-color="#EBD7D3"/>
<stop offset="1" stop-color="#F7FFFF"/>
</linearGradient>
<linearGradient id="paint37_linear_3737_11534" x1="28.6507" y1="33.3437" x2="28.756" y2="30.2977" gradientUnits="userSpaceOnUse">
<stop stop-color="#E84E1A"/>
<stop offset="0.50595" stop-color="#D74348"/>
<stop offset="1" stop-color="#C62C15"/>
</linearGradient>
<linearGradient id="paint38_linear_3737_11534" x1="28.895" y1="31.5085" x2="30.6432" y2="31.5085" gradientUnits="userSpaceOnUse">
<stop stop-color="#B01B03"/>
<stop offset="0.17839" stop-color="#B11E06"/>
<stop offset="0.31124" stop-color="#B4260F"/>
<stop offset="0.42931" stop-color="#B83520"/>
<stop offset="0.5389" stop-color="#BE4936"/>
<stop offset="0.64255" stop-color="#C76454"/>
<stop offset="0.74183" stop-color="#D18578"/>
<stop offset="0.83763" stop-color="#DDACA3"/>
<stop offset="0.92817" stop-color="#EBD7D3"/>
<stop offset="1" stop-color="#F7FFFF"/>
</linearGradient>
<linearGradient id="paint39_linear_3737_11534" x1="28.9471" y1="32.1505" x2="30.6464" y2="32.1505" gradientUnits="userSpaceOnUse">
<stop stop-color="#B01B03"/>
<stop offset="0.17839" stop-color="#B11E06"/>
<stop offset="0.31124" stop-color="#B4260F"/>
<stop offset="0.42931" stop-color="#B83520"/>
<stop offset="0.5389" stop-color="#BE4936"/>
<stop offset="0.64255" stop-color="#C76454"/>
<stop offset="0.74183" stop-color="#D18578"/>
<stop offset="0.83763" stop-color="#DDACA3"/>
<stop offset="0.92817" stop-color="#EBD7D3"/>
<stop offset="1" stop-color="#F7FFFF"/>
</linearGradient>
<linearGradient id="paint40_linear_3737_11534" x1="29.4028" y1="29.0198" x2="35.6975" y2="29.0198" gradientUnits="userSpaceOnUse">
<stop stop-color="#E5552F"/>
<stop offset="0.13709" stop-color="#E75A34"/>
<stop offset="0.30331" stop-color="#ED6843"/>
<stop offset="0.48402" stop-color="#F77E5B"/>
<stop offset="0.4881" stop-color="#F77F5C"/>
<stop offset="1" stop-color="#F7A66C"/>
</linearGradient>
<linearGradient id="paint41_linear_3737_11534" x1="29.4028" y1="29.0197" x2="35.6973" y2="29.0197" gradientUnits="userSpaceOnUse">
<stop stop-color="#B01B03"/>
<stop offset="0.17839" stop-color="#B11E06"/>
<stop offset="0.31124" stop-color="#B4260F"/>
<stop offset="0.42931" stop-color="#B83520"/>
<stop offset="0.5389" stop-color="#BE4936"/>
<stop offset="0.64255" stop-color="#C76454"/>
<stop offset="0.74183" stop-color="#D18578"/>
<stop offset="0.83763" stop-color="#DDACA3"/>
<stop offset="0.92817" stop-color="#EBD7D3"/>
<stop offset="1" stop-color="#F7FFFF"/>
</linearGradient>
<linearGradient id="paint42_linear_3737_11534" x1="32.5113" y1="29.2101" x2="29.4322" y2="29.4122" gradientUnits="userSpaceOnUse">
<stop stop-color="#E84E1A"/>
<stop offset="0.50595" stop-color="#D74348"/>
<stop offset="1" stop-color="#C62C15"/>
</linearGradient>
<linearGradient id="paint43_linear_3737_11534" x1="29.4302" y1="28.078" x2="32.3638" y2="28.078" gradientUnits="userSpaceOnUse">
<stop stop-color="#B01B03"/>
<stop offset="0.17839" stop-color="#B11E06"/>
<stop offset="0.31124" stop-color="#B4260F"/>
<stop offset="0.42931" stop-color="#B83520"/>
<stop offset="0.5389" stop-color="#BE4936"/>
<stop offset="0.64255" stop-color="#C76454"/>
<stop offset="0.74183" stop-color="#D18578"/>
<stop offset="0.83763" stop-color="#DDACA3"/>
<stop offset="0.92817" stop-color="#EBD7D3"/>
<stop offset="1" stop-color="#F7FFFF"/>
</linearGradient>
<linearGradient id="paint44_linear_3737_11534" x1="30.6963" y1="33.8083" x2="32.935" y2="30.066" gradientUnits="userSpaceOnUse">
<stop stop-color="#E5552F"/>
<stop offset="0.13709" stop-color="#E75A34"/>
<stop offset="0.30331" stop-color="#ED6843"/>
<stop offset="0.48402" stop-color="#F77E5B"/>
<stop offset="0.4881" stop-color="#F77F5C"/>
<stop offset="1" stop-color="#F7A66C"/>
</linearGradient>
<linearGradient id="paint45_linear_3737_11534" x1="28.8877" y1="31.942" x2="34.4436" y2="31.942" gradientUnits="userSpaceOnUse">
<stop stop-color="#B01B03"/>
<stop offset="0.17839" stop-color="#B11E06"/>
<stop offset="0.31124" stop-color="#B4260F"/>
<stop offset="0.42931" stop-color="#B83520"/>
<stop offset="0.5389" stop-color="#BE4936"/>
<stop offset="0.64255" stop-color="#C76454"/>
<stop offset="0.74183" stop-color="#D18578"/>
<stop offset="0.83763" stop-color="#DDACA3"/>
<stop offset="0.92817" stop-color="#EBD7D3"/>
<stop offset="1" stop-color="#F7FFFF"/>
</linearGradient>
<linearGradient id="paint46_linear_3737_11534" x1="31.6822" y1="32.0277" x2="29.1371" y2="29.7283" gradientUnits="userSpaceOnUse">
<stop stop-color="#E84E1A"/>
<stop offset="0.50595" stop-color="#D74348"/>
<stop offset="1" stop-color="#C62C15"/>
</linearGradient>
<linearGradient id="paint47_linear_3737_11534" x1="20.8227" y1="32.1723" x2="20.8227" y2="0.587235" gradientUnits="userSpaceOnUse">
<stop stop-color="#E5552F"/>
<stop offset="0.13709" stop-color="#E75A34"/>
<stop offset="0.30331" stop-color="#ED6843"/>
<stop offset="0.48402" stop-color="#F77E5B"/>
<stop offset="0.4881" stop-color="#F77F5C"/>
<stop offset="1" stop-color="#F7A66C"/>
</linearGradient>
<linearGradient id="paint48_linear_3737_11534" x1="16.9454" y1="31.0718" x2="15.3861" y2="34.5913" gradientUnits="userSpaceOnUse">
<stop stop-color="#E84E1A"/>
<stop offset="0.50595" stop-color="#D74348"/>
<stop offset="1" stop-color="#C62C15"/>
</linearGradient>
<linearGradient id="paint49_linear_3737_11534" x1="16.5433" y1="34.2543" x2="16.5433" y2="32.4931" gradientUnits="userSpaceOnUse">
<stop stop-color="#F7632E"/>
<stop offset="1" stop-color="#F7B57E"/>
</linearGradient>
<linearGradient id="paint50_linear_3737_11534" x1="14.2509" y1="32.8439" x2="18.734" y2="32.8439" gradientUnits="userSpaceOnUse">
<stop stop-color="#B01B03"/>
<stop offset="0.17839" stop-color="#B11E06"/>
<stop offset="0.31124" stop-color="#B4260F"/>
<stop offset="0.42931" stop-color="#B83520"/>
<stop offset="0.5389" stop-color="#BE4936"/>
<stop offset="0.64255" stop-color="#C76454"/>
<stop offset="0.74183" stop-color="#D18578"/>
<stop offset="0.83763" stop-color="#DDACA3"/>
<stop offset="0.92817" stop-color="#EBD7D3"/>
<stop offset="1" stop-color="#F7FFFF"/>
</linearGradient>
<linearGradient id="paint51_linear_3737_11534" x1="24.6466" y1="30.8878" x2="26.4384" y2="35.1556" gradientUnits="userSpaceOnUse">
<stop stop-color="#E84E1A"/>
<stop offset="0.50595" stop-color="#D74348"/>
<stop offset="1" stop-color="#C62C15"/>
</linearGradient>
<linearGradient id="paint52_linear_3737_11534" x1="25.1009" y1="34.2544" x2="25.1009" y2="32.4931" gradientUnits="userSpaceOnUse">
<stop stop-color="#F7632E"/>
<stop offset="1" stop-color="#F7B57E"/>
</linearGradient>
<linearGradient id="paint53_linear_3737_11534" x1="22.9121" y1="32.8439" x2="27.3952" y2="32.8439" gradientUnits="userSpaceOnUse">
<stop stop-color="#B01B03"/>
<stop offset="0.17839" stop-color="#B11E06"/>
<stop offset="0.31124" stop-color="#B4260F"/>
<stop offset="0.42931" stop-color="#B83520"/>
<stop offset="0.5389" stop-color="#BE4936"/>
<stop offset="0.64255" stop-color="#C76454"/>
<stop offset="0.74183" stop-color="#D18578"/>
<stop offset="0.83763" stop-color="#DDACA3"/>
<stop offset="0.92817" stop-color="#EBD7D3"/>
<stop offset="1" stop-color="#F7FFFF"/>
</linearGradient>
<linearGradient id="paint54_linear_3737_11534" x1="15.9185" y1="8.70282" x2="17.088" y2="11.2756" gradientUnits="userSpaceOnUse">
<stop stop-color="#E84E1A"/>
<stop offset="0.50595" stop-color="#D74348"/>
<stop offset="1" stop-color="#C62C15"/>
</linearGradient>
<linearGradient id="paint55_linear_3737_11534" x1="15.5689" y1="7.48094" x2="16.5935" y2="10.0649" gradientUnits="userSpaceOnUse">
<stop stop-color="#E5552F"/>
<stop offset="0.13709" stop-color="#E75A34"/>
<stop offset="0.30331" stop-color="#ED6843"/>
<stop offset="0.48402" stop-color="#F77E5B"/>
<stop offset="0.4881" stop-color="#F77F5C"/>
<stop offset="1" stop-color="#F7A66C"/>
</linearGradient>
<linearGradient id="paint56_linear_3737_11534" x1="14.2509" y1="9.21481" x2="18.734" y2="9.21481" gradientUnits="userSpaceOnUse">
<stop stop-color="#B01B03"/>
<stop offset="0.17839" stop-color="#B11E06"/>
<stop offset="0.31124" stop-color="#B4260F"/>
<stop offset="0.42931" stop-color="#B83520"/>
<stop offset="0.5389" stop-color="#BE4936"/>
<stop offset="0.64255" stop-color="#C76454"/>
<stop offset="0.74183" stop-color="#D18578"/>
<stop offset="0.83763" stop-color="#DDACA3"/>
<stop offset="0.92817" stop-color="#EBD7D3"/>
<stop offset="1" stop-color="#F7FFFF"/>
</linearGradient>
<linearGradient id="paint57_linear_3737_11534" x1="25.7314" y1="8.70282" x2="24.562" y2="11.2756" gradientUnits="userSpaceOnUse">
<stop stop-color="#E84E1A"/>
<stop offset="0.50595" stop-color="#D74348"/>
<stop offset="1" stop-color="#C62C15"/>
</linearGradient>
<linearGradient id="paint58_linear_3737_11534" x1="26.0792" y1="7.48097" x2="25.0545" y2="10.0649" gradientUnits="userSpaceOnUse">
<stop stop-color="#E5552F"/>
<stop offset="0.13709" stop-color="#E75A34"/>
<stop offset="0.30331" stop-color="#ED6843"/>
<stop offset="0.48402" stop-color="#F77E5B"/>
<stop offset="0.4881" stop-color="#F77F5C"/>
<stop offset="1" stop-color="#F7A66C"/>
</linearGradient>
<linearGradient id="paint59_linear_3737_11534" x1="22.9141" y1="9.21475" x2="27.3972" y2="9.21475" gradientUnits="userSpaceOnUse">
<stop stop-color="#B01B03"/>
<stop offset="0.17839" stop-color="#B11E06"/>
<stop offset="0.31124" stop-color="#B4260F"/>
<stop offset="0.42931" stop-color="#B83520"/>
<stop offset="0.5389" stop-color="#BE4936"/>
<stop offset="0.64255" stop-color="#C76454"/>
<stop offset="0.74183" stop-color="#D18578"/>
<stop offset="0.83763" stop-color="#DDACA3"/>
<stop offset="0.92817" stop-color="#EBD7D3"/>
<stop offset="1" stop-color="#F7FFFF"/>
</linearGradient>
<linearGradient id="paint60_linear_3737_11534" x1="32.9616" y1="15.7229" x2="30.3169" y2="16.7189" gradientUnits="userSpaceOnUse">
<stop stop-color="#E84E1A"/>
<stop offset="0.50595" stop-color="#D74348"/>
<stop offset="1" stop-color="#C62C15"/>
</linearGradient>
<linearGradient id="paint61_linear_3737_11534" x1="34.071" y1="15.1032" x2="31.521" y2="16.2093" gradientUnits="userSpaceOnUse">
<stop stop-color="#E5552F"/>
<stop offset="0.13709" stop-color="#E75A34"/>
<stop offset="0.30331" stop-color="#ED6843"/>
<stop offset="0.48402" stop-color="#F77E5B"/>
<stop offset="0.4881" stop-color="#F77F5C"/>
<stop offset="1" stop-color="#F7A66C"/>
</linearGradient>
<linearGradient id="paint62_linear_3737_11534" x1="30.6831" y1="16.2241" x2="34.193" y2="16.2241" gradientUnits="userSpaceOnUse">
<stop stop-color="#B01B03"/>
<stop offset="0.17839" stop-color="#B11E06"/>
<stop offset="0.31124" stop-color="#B4260F"/>
<stop offset="0.42931" stop-color="#B83520"/>
<stop offset="0.5389" stop-color="#BE4936"/>
<stop offset="0.64255" stop-color="#C76454"/>
<stop offset="0.74183" stop-color="#D18578"/>
<stop offset="0.83763" stop-color="#DDACA3"/>
<stop offset="0.92817" stop-color="#EBD7D3"/>
<stop offset="1" stop-color="#F7FFFF"/>
</linearGradient>
<linearGradient id="paint63_linear_3737_11534" x1="32.9615" y1="26.3118" x2="30.3169" y2="25.3158" gradientUnits="userSpaceOnUse">
<stop stop-color="#E84E1A"/>
<stop offset="0.50595" stop-color="#D74348"/>
<stop offset="1" stop-color="#C62C15"/>
</linearGradient>
<linearGradient id="paint64_linear_3737_11534" x1="34.071" y1="26.9314" x2="31.521" y2="25.8253" gradientUnits="userSpaceOnUse">
<stop stop-color="#E5552F"/>
<stop offset="0.13709" stop-color="#E75A34"/>
<stop offset="0.30331" stop-color="#ED6843"/>
<stop offset="0.48402" stop-color="#F77E5B"/>
<stop offset="0.4881" stop-color="#F77F5C"/>
<stop offset="1" stop-color="#F7A66C"/>
</linearGradient>
<linearGradient id="paint65_linear_3737_11534" x1="30.6831" y1="25.8107" x2="34.193" y2="25.8107" gradientUnits="userSpaceOnUse">
<stop stop-color="#B01B03"/>
<stop offset="0.17839" stop-color="#B11E06"/>
<stop offset="0.31124" stop-color="#B4260F"/>
<stop offset="0.42931" stop-color="#B83520"/>
<stop offset="0.5389" stop-color="#BE4936"/>
<stop offset="0.64255" stop-color="#C76454"/>
<stop offset="0.74183" stop-color="#D18578"/>
<stop offset="0.83763" stop-color="#DDACA3"/>
<stop offset="0.92817" stop-color="#EBD7D3"/>
<stop offset="1" stop-color="#F7FFFF"/>
</linearGradient>
<linearGradient id="paint66_linear_3737_11534" x1="8.63089" y1="15.7229" x2="11.2755" y2="16.7189" gradientUnits="userSpaceOnUse">
<stop stop-color="#E84E1A"/>
<stop offset="0.50595" stop-color="#D74348"/>
<stop offset="1" stop-color="#C62C15"/>
</linearGradient>
<linearGradient id="paint67_linear_3737_11534" x1="7.51759" y1="15.1032" x2="10.0675" y2="16.2093" gradientUnits="userSpaceOnUse">
<stop stop-color="#E5552F"/>
<stop offset="0.13709" stop-color="#E75A34"/>
<stop offset="0.30331" stop-color="#ED6843"/>
<stop offset="0.48402" stop-color="#F77E5B"/>
<stop offset="0.4881" stop-color="#F77F5C"/>
<stop offset="1" stop-color="#F7A66C"/>
</linearGradient>
<linearGradient id="paint68_linear_3737_11534" x1="7.39941" y1="16.2241" x2="10.9093" y2="16.2241" gradientUnits="userSpaceOnUse">
<stop stop-color="#B01B03"/>
<stop offset="0.17839" stop-color="#B11E06"/>
<stop offset="0.31124" stop-color="#B4260F"/>
<stop offset="0.42931" stop-color="#B83520"/>
<stop offset="0.5389" stop-color="#BE4936"/>
<stop offset="0.64255" stop-color="#C76454"/>
<stop offset="0.74183" stop-color="#D18578"/>
<stop offset="0.83763" stop-color="#DDACA3"/>
<stop offset="0.92817" stop-color="#EBD7D3"/>
<stop offset="1" stop-color="#F7FFFF"/>
</linearGradient>
<linearGradient id="paint69_linear_3737_11534" x1="8.63089" y1="26.3118" x2="11.2755" y2="25.3158" gradientUnits="userSpaceOnUse">
<stop stop-color="#E84E1A"/>
<stop offset="0.50595" stop-color="#D74348"/>
<stop offset="1" stop-color="#C62C15"/>
</linearGradient>
<linearGradient id="paint70_linear_3737_11534" x1="7.51759" y1="26.9314" x2="10.0675" y2="25.8253" gradientUnits="userSpaceOnUse">
<stop stop-color="#E5552F"/>
<stop offset="0.13709" stop-color="#E75A34"/>
<stop offset="0.30331" stop-color="#ED6843"/>
<stop offset="0.48402" stop-color="#F77E5B"/>
<stop offset="0.4881" stop-color="#F77F5C"/>
<stop offset="1" stop-color="#F7A66C"/>
</linearGradient>
<linearGradient id="paint71_linear_3737_11534" x1="7.39941" y1="25.8107" x2="10.9093" y2="25.8107" gradientUnits="userSpaceOnUse">
<stop stop-color="#B01B03"/>
<stop offset="0.17839" stop-color="#B11E06"/>
<stop offset="0.31124" stop-color="#B4260F"/>
<stop offset="0.42931" stop-color="#B83520"/>
<stop offset="0.5389" stop-color="#BE4936"/>
<stop offset="0.64255" stop-color="#C76454"/>
<stop offset="0.74183" stop-color="#D18578"/>
<stop offset="0.83763" stop-color="#DDACA3"/>
<stop offset="0.92817" stop-color="#EBD7D3"/>
<stop offset="1" stop-color="#F7FFFF"/>
</linearGradient>
<linearGradient id="paint72_linear_3737_11534" x1="20.8228" y1="43.7081" x2="20.8228" y2="11.2792" gradientUnits="userSpaceOnUse">
<stop stop-color="#F36134"/>
<stop offset="1" stop-color="#C40721"/>
</linearGradient>
<linearGradient id="paint73_linear_3737_11534" x1="20.8241" y1="31.109" x2="20.8241" y2="26.6634" gradientUnits="userSpaceOnUse">
<stop stop-color="#F7FFEB"/>
<stop offset="1" stop-color="#F7FCB0"/>
</linearGradient>
<radialGradient id="paint74_radial_3737_11534" cx="0" cy="0" r="1" gradientUnits="userSpaceOnUse" gradientTransform="translate(22.4538 10.5944) scale(3.50013)">
<stop stop-color="#F74E24"/>
<stop offset="0.03594" stop-color="#E64921"/>
<stop offset="0.17196" stop-color="#AA3719"/>
<stop offset="0.3075" stop-color="#772811"/>
<stop offset="0.43938" stop-color="#4D1B0B"/>
<stop offset="0.56682" stop-color="#2C1206"/>
<stop offset="0.68874" stop-color="#150B03"/>
<stop offset="0.80269" stop-color="#070601"/>
<stop offset="0.90079" stop-color="#020500"/>
</radialGradient>
<radialGradient id="paint75_radial_3737_11534" cx="0" cy="0" r="1" gradientUnits="userSpaceOnUse" gradientTransform="translate(16.5847 32.0199) rotate(14.7886) scale(2.12641 1.40147)">
<stop offset="0.00397" stop-color="#DF5A29"/>
<stop offset="0.16033" stop-color="#AF4820"/>
<stop offset="0.3809" stop-color="#723015"/>
<stop offset="0.58319" stop-color="#421E0C"/>
<stop offset="0.76022" stop-color="#1F1005"/>
<stop offset="0.90518" stop-color="#0A0801"/>
<stop offset="1" stop-color="#020500"/>
</radialGradient>
<linearGradient id="paint76_linear_3737_11534" x1="34.0513" y1="30.2099" x2="34.0513" y2="21.738" gradientUnits="userSpaceOnUse">
<stop stop-color="#E5552F"/>
<stop offset="0.13709" stop-color="#E75A34"/>
<stop offset="0.30331" stop-color="#ED6843"/>
<stop offset="0.48402" stop-color="#F77E5B"/>
<stop offset="0.4881" stop-color="#F77F5C"/>
<stop offset="1" stop-color="#F7A66C"/>
</linearGradient>
<linearGradient id="paint77_linear_3737_11534" x1="7.57166" y1="30.2099" x2="7.57166" y2="21.738" gradientUnits="userSpaceOnUse">
<stop stop-color="#E5552F"/>
<stop offset="0.13709" stop-color="#E75A34"/>
<stop offset="0.30331" stop-color="#ED6843"/>
<stop offset="0.48402" stop-color="#F77E5B"/>
<stop offset="0.4881" stop-color="#F77F5C"/>
<stop offset="1" stop-color="#F7A66C"/>
</linearGradient>
</defs>
</svg>
