<svg width="22" height="23" viewBox="0 0 22 23" fill="none" xmlns="http://www.w3.org/2000/svg">
<path d="M11.0016 19.5893C10.4516 19.5893 9.97031 19.383 9.55781 18.9705C9.14531 18.558 8.93906 18.0768 8.93906 17.5268C8.93906 16.9768 9.14531 16.4955 9.55781 16.083C9.97031 15.6705 10.4516 15.4643 11.0016 15.4643C11.5516 15.4643 12.0328 15.6705 12.4453 16.083C12.8578 16.4955 13.0641 16.9768 13.0641 17.5268C13.0641 18.0768 12.8578 18.558 12.4453 18.9705C12.0328 19.383 11.5516 19.5893 11.0016 19.5893ZM19.8016 9.75801C18.5335 8.67329 17.1661 7.81391 15.6995 7.17988C14.2328 6.54586 12.6668 6.22884 11.0016 6.22884C10.4363 6.22884 9.89392 6.26322 9.37448 6.33197C8.85503 6.40072 8.41962 6.4962 8.06823 6.61842L6.39531 4.94551C7.06753 4.70106 7.79705 4.51009 8.58385 4.37259C9.37066 4.23509 10.1766 4.16634 11.0016 4.16634C12.9571 4.16634 14.8095 4.54065 16.5589 5.28926C18.3082 6.03787 19.878 7.03856 21.2682 8.29134C21.4821 8.47467 21.5891 8.70766 21.5891 8.9903C21.5891 9.27294 21.4821 9.5212 21.2682 9.73509C21.0696 9.9337 20.829 10.033 20.5464 10.033C20.2637 10.033 20.0155 9.94134 19.8016 9.75801ZM15.9286 13.6309C15.5925 13.3406 15.2564 13.0924 14.9203 12.8861C14.5842 12.6799 14.187 12.4698 13.7286 12.2559L11.1391 9.66634C12.4071 9.6969 13.5453 9.92988 14.5536 10.3653C15.562 10.8007 16.5092 11.408 17.3953 12.1872C17.6092 12.3705 17.7161 12.5997 17.7161 12.8747C17.7161 13.1497 17.6092 13.3941 17.3953 13.608C17.1967 13.8066 16.9561 13.9059 16.6734 13.9059C16.3908 13.9059 16.1425 13.8143 15.9286 13.6309ZM17.9682 20.4143L9.42031 11.8893C8.77865 12.042 8.17517 12.2712 7.6099 12.5768C7.04462 12.8823 6.52517 13.2337 6.05156 13.6309C5.83767 13.8143 5.58941 13.9021 5.30677 13.8945C5.02413 13.8868 4.78351 13.7837 4.5849 13.5851C4.38628 13.3865 4.28698 13.1497 4.28698 12.8747C4.28698 12.5997 4.39392 12.3705 4.60781 12.1872C5.05087 11.79 5.5283 11.4309 6.0401 11.1101C6.55191 10.7893 7.13628 10.499 7.79323 10.2393L5.24948 7.69551C4.69948 7.97051 4.16858 8.2837 3.65677 8.63509C3.14497 8.98648 2.6599 9.36079 2.20156 9.75801C1.98767 9.94134 1.73941 10.033 1.45677 10.033C1.17413 10.033 0.925868 9.92606 0.711979 9.71217C0.513368 9.51356 0.414062 9.27294 0.414062 8.9903C0.414062 8.70766 0.521007 8.47467 0.734896 8.29134C1.19323 7.86356 1.67066 7.47016 2.16719 7.11113C2.66372 6.7521 3.1717 6.43509 3.69115 6.16009L2.06406 4.53301C1.94184 4.41079 1.88073 4.25037 1.88073 4.05176C1.88073 3.85315 1.94948 3.68509 2.08698 3.54759C2.2092 3.42537 2.36962 3.36426 2.56823 3.36426C2.76684 3.36426 2.9349 3.42537 3.0724 3.54759L18.9536 19.4518C19.0759 19.574 19.137 19.7344 19.137 19.933C19.137 20.1316 19.0759 20.292 18.9536 20.4143C18.8161 20.5518 18.6481 20.6205 18.4495 20.6205C18.2509 20.6205 18.0905 20.5518 17.9682 20.4143Z" fill="#D4CFD6"/>
</svg>
