<svg width="22" height="23" viewBox="0 0 22 23" fill="none" xmlns="http://www.w3.org/2000/svg">
<path d="M4.60456 13.6087C4.40595 13.41 4.30283 13.1694 4.29519 12.8868C4.28755 12.6041 4.39067 12.3712 4.60456 12.1878C5.56706 11.3475 6.5754 10.7173 7.62956 10.2972C8.68373 9.87706 9.80665 9.66699 10.9983 9.66699C12.19 9.66699 13.3129 9.87706 14.3671 10.2972C15.4212 10.7173 16.4296 11.3475 17.3921 12.1878C17.606 12.3712 17.7129 12.6003 17.7129 12.8753C17.7129 13.1503 17.606 13.3948 17.3921 13.6087C17.1935 13.8073 16.9566 13.9066 16.6816 13.9066C16.4066 13.9066 16.1622 13.8149 15.9483 13.6316C15.1233 12.9441 14.3021 12.4552 13.4848 12.1649C12.6674 11.8746 11.8386 11.7295 10.9983 11.7295C10.158 11.7295 9.32922 11.8746 8.51185 12.1649C7.69449 12.4552 6.87331 12.9441 6.04831 13.6316C5.83442 13.8149 5.58998 13.9066 5.31498 13.9066C5.03998 13.9066 4.80317 13.8073 4.60456 13.6087ZM0.731645 9.73574C0.533034 9.53713 0.429909 9.29269 0.42227 9.00241C0.414631 8.71213 0.517756 8.47533 0.731645 8.29199C2.12192 7.03921 3.69171 6.03852 5.44102 5.28991C7.19033 4.5413 9.04276 4.16699 10.9983 4.16699C12.9539 4.16699 14.8063 4.5413 16.5556 5.28991C18.3049 6.03852 19.8747 7.03921 21.265 8.29199C21.4789 8.47533 21.5858 8.70831 21.5858 8.99095C21.5858 9.27359 21.4789 9.52185 21.265 9.73574C21.0664 9.93435 20.8257 10.0337 20.5431 10.0337C20.2605 10.0337 20.0122 9.94199 19.7983 9.75866C18.5303 8.67394 17.1629 7.81456 15.6962 7.18053C14.2296 6.54651 12.6636 6.22949 10.9983 6.22949C9.33303 6.22949 7.76706 6.54651 6.3004 7.18053C4.83373 7.81456 3.46637 8.67394 2.19831 9.75866C1.98442 9.94199 1.73616 10.0337 1.45352 10.0337C1.17088 10.0337 0.930256 9.93435 0.731645 9.73574ZM10.9983 19.5899C10.4483 19.5899 9.96706 19.3837 9.55456 18.9712C9.14206 18.5587 8.93581 18.0774 8.93581 17.5274C8.93581 16.9774 9.14206 16.4962 9.55456 16.0837C9.96706 15.6712 10.4483 15.4649 10.9983 15.4649C11.5483 15.4649 12.0296 15.6712 12.4421 16.0837C12.8546 16.4962 13.0608 16.9774 13.0608 17.5274C13.0608 18.0774 12.8546 18.5587 12.4421 18.9712C12.0296 19.3837 11.5483 19.5899 10.9983 19.5899Z" fill="#D4CFD6"/>
</svg>
