<svg width="30" height="30" viewBox="0 0 30 30" fill="none" xmlns="http://www.w3.org/2000/svg">
<path fill-rule="evenodd" clip-rule="evenodd" d="M13.7789 3.03137C11.1988 3.31637 8.8905 4.34473 6.95913 6.06964C6.49938 6.48024 5.73098 7.32391 5.37739 7.80627C5.2725 7.94939 5.12854 8.14596 5.05753 8.24313C4.65748 8.79041 4.02467 10.0074 3.73404 10.7884C3.17612 12.2876 2.9568 13.6771 3.00694 15.3942C3.05936 17.1875 3.44962 18.7384 4.24636 20.3196C4.89223 21.6015 5.61805 22.5913 6.64098 23.5853C8.59992 25.4886 11.1452 26.6757 13.7978 26.923C14.3446 26.974 16.2562 26.9653 16.3099 26.9115C16.3206 26.9008 16.1552 26.4321 15.9424 25.8698L15.5554 24.8476L14.8801 24.5886L14.2047 24.3295V24.8709V25.4122L13.9327 25.3808C13.4007 25.3193 12.478 25.1492 12.265 25.0734C12.2 25.0503 12.0592 25.0091 11.9522 24.9818C11.7607 24.9329 11.7546 24.9247 11.5611 24.4562C11.2265 23.6463 10.5619 21.586 10.5619 21.3589C10.5619 21.3275 10.6612 21.2894 10.7866 21.2727C10.9102 21.2563 11.2242 21.2112 11.4844 21.1725C11.9419 21.1046 13.0104 20.9953 13.8144 20.9342L14.2047 20.9045V21.167C14.2047 21.4724 14.1283 21.4363 15.009 21.5468C15.8444 21.6515 15.7659 21.6806 15.7659 21.2658V20.911H16.2592H16.7525L17.2554 20.1895L17.7583 19.4681L17.5546 19.4373C17.4425 19.4203 16.9942 19.3906 16.5584 19.3712L15.7659 19.3359V18.4666V17.5972L15.3756 17.3457C15.1609 17.2073 14.8097 16.9853 14.595 16.8523L14.2047 16.6105V17.9761V19.3417L13.8617 19.3684C13.6731 19.3831 13.2207 19.4185 12.8564 19.4471C12.4921 19.4757 11.7593 19.5612 11.2279 19.6371C10.6965 19.7129 10.2534 19.7667 10.2433 19.7566C10.1729 19.6862 9.96016 17.8862 9.92402 17.0553C9.90931 16.717 9.88655 16.3072 9.87345 16.1446L9.8496 15.8489H11.767C12.8215 15.8489 13.6854 15.8435 13.6867 15.8371C13.6881 15.8306 13.7011 15.7294 13.7158 15.6123C13.757 15.2826 13.842 15.1601 14.4828 14.5067C15.0764 13.9015 15.3972 13.6743 15.6595 13.6731L15.7659 13.6727V12.1412V10.6097L16.2982 10.5774C17.2815 10.5176 18.3398 10.4003 19.2503 10.25L19.6358 10.1864L19.7348 10.8296C19.918 12.0197 20.0711 13.5017 20.0711 14.0842V14.2877L19.8464 14.2918C19.708 14.2944 20.1192 14.3849 20.9168 14.5274L22.2118 14.7588L22.458 14.5351L22.7042 14.3113L22.1765 14.2877L21.6487 14.264L21.6384 13.9329C21.6131 13.1162 21.3868 11.0634 21.2317 10.2427C21.1874 10.0084 21.184 9.90223 21.2201 9.87976C21.2481 9.8623 21.5793 9.77085 21.9561 9.67651C22.3328 9.58223 22.8737 9.42984 23.158 9.33792C23.4423 9.246 23.6805 9.17782 23.6874 9.18634C23.762 9.27963 24.1761 10.0095 24.3431 10.342C24.6543 10.9616 24.8672 11.5526 25.1316 12.5303C25.1853 12.729 25.1925 12.7352 25.3376 12.7057C25.6524 12.642 26.3463 12.6227 26.5273 12.6727C26.6293 12.7009 26.7221 12.7146 26.7335 12.7032C26.7669 12.6698 26.556 11.8087 26.3861 11.2844C25.8054 9.49281 24.8097 7.87256 23.4552 6.51506C21.6063 4.66218 19.3358 3.51691 16.6721 3.09368C16.1222 3.0063 14.3511 2.96817 13.7789 3.03137ZM13.5948 4.62107C13.1189 4.68143 11.8179 4.97329 11.7581 5.03309C11.6195 5.17166 10.5849 8.64928 10.6599 8.72432C10.74 8.80446 12.8816 9.02407 13.7553 9.04176L14.1811 9.05037L14.1934 6.79617C14.2001 5.55633 14.1895 4.54433 14.1697 4.54731C14.1499 4.55025 13.8912 4.58346 13.5948 4.62107ZM15.7659 6.79872V9.03632H15.8747C16.4927 9.03632 19.2169 8.72361 19.297 8.64346C19.3476 8.59279 18.6826 6.29999 18.3797 5.48101L18.2109 5.02443L17.7572 4.90388C17.2055 4.75727 16.5721 4.6381 16.1103 4.59396L15.7659 4.56108V6.79872ZM9.52 6.06907C8.93307 6.41126 8.35226 6.86065 7.72318 7.45926C7.48678 7.68426 7.31026 7.88273 7.33094 7.90037C7.39244 7.95284 9.05144 8.43365 9.07831 8.40677C9.08489 8.4002 9.15779 8.14 9.24035 7.82851C9.32286 7.51707 9.48059 6.95887 9.59077 6.58806C9.701 6.21724 9.78895 5.91456 9.78621 5.91531C9.78351 5.91612 9.66372 5.98528 9.52 6.06907ZM20.3362 6.44485C20.4254 6.73831 20.576 7.28171 20.671 7.65252C20.802 8.16408 20.8617 8.32663 20.9186 8.32644C21.0003 8.32621 22.3442 7.98033 22.523 7.91357C22.6267 7.87487 22.6048 7.8453 22.1422 7.39979C21.5728 6.85133 20.9992 6.40908 20.3473 6.01585L20.1741 5.91139L20.3362 6.44485ZM6.0233 9.58828C5.28646 10.763 4.74514 12.4101 4.57592 13.992L4.54431 14.2877H6.41176H8.27921L8.30878 14.1398C8.32505 14.0585 8.33835 13.8749 8.33835 13.7317C8.33835 13.1823 8.53823 11.4085 8.74289 10.1418L8.77445 9.94623L8.54457 9.8728C8.41816 9.83245 8.11244 9.74535 7.86525 9.67931C7.61806 9.61326 7.16133 9.47351 6.85032 9.36872C6.53931 9.26397 6.28384 9.1783 6.28261 9.17834C6.28138 9.17839 6.16471 9.36285 6.0233 9.58828ZM10.3058 10.3728C10.1404 11.1982 9.90046 13.365 9.8998 14.0393L9.89956 14.2877H12.0521H14.2047V12.45V10.6124L13.3886 10.5812C12.5242 10.5481 11.5737 10.4577 10.8405 10.3388C10.2887 10.2493 10.3311 10.2466 10.3058 10.3728ZM25.617 13.4112C24.8891 13.5749 24.0163 14.1342 22.9074 15.1477L22.4557 15.5605L21.6774 15.4245C21.2493 15.3497 20.3987 15.2002 19.7872 15.0923C19.1758 14.9843 18.3881 14.8457 18.0368 14.7842C17.6855 14.7227 17.0284 14.6076 16.5766 14.5285C16.0464 14.4357 15.7277 14.3997 15.6778 14.427C15.5222 14.512 14.4413 15.6468 14.4413 15.7252C14.4413 15.8349 14.5973 15.9736 15.0132 16.2336C15.793 16.7209 19.0567 18.7989 19.0941 18.8318C19.1162 18.8512 18.9772 19.0769 18.7851 19.3332C18.4625 19.7639 18.2939 20.0025 17.5327 21.1063C16.8022 22.1654 16.5473 22.5079 16.5016 22.4922C16.4743 22.4827 16.1007 22.4314 15.6713 22.3781C15.242 22.3247 14.7417 22.2609 14.5595 22.2363C13.9044 22.1476 13.8957 22.1499 13.5343 22.5114C13.1917 22.8539 13.1344 23.0051 13.294 23.1453C13.3543 23.1983 15.5505 24.0648 16.0767 24.2433C16.1045 24.2527 16.2682 24.6298 16.4405 25.0813C17.2769 27.2729 17.243 27.2008 17.4382 27.2025C17.5482 27.2034 18.1725 26.6057 18.2076 26.4659C18.2281 26.3842 18.0232 24.6156 17.9193 23.978C17.9005 23.8626 17.9532 23.8127 18.5237 23.4067C18.8674 23.162 19.4998 22.7206 19.9292 22.4258C20.3585 22.1309 20.8694 21.7698 21.0646 21.6232C21.5572 21.2534 21.5338 21.2632 21.6243 21.3898C21.6905 21.4826 22.4723 22.7085 23.1385 23.7641C23.2338 23.9152 23.4928 24.3212 23.7139 24.6664C23.9351 25.0115 24.2068 25.4361 24.3177 25.6099C24.4975 25.8916 24.5357 25.9258 24.6704 25.9258C24.8006 25.9258 24.902 25.8453 25.4032 25.3442C25.9147 24.8326 25.9848 24.7435 25.9848 24.6047C25.9848 24.5179 25.7809 23.2946 25.5318 21.8865C25.2827 20.4783 25.0252 19.0121 24.9596 18.6281L24.8404 17.9302L25.2716 17.4745C26.0125 16.6917 26.6572 15.7536 26.8928 15.1156C26.9718 14.9018 26.9982 14.7248 26.9998 14.3984C27.0018 13.9914 26.9933 13.9528 26.86 13.7639C26.6081 13.407 26.1783 13.285 25.617 13.4112ZM24.9289 14.199L24.7956 14.2504L25.0404 14.3638C25.3455 14.5052 25.8815 15.0354 26.0275 15.3403C26.0867 15.4639 26.1421 15.565 26.1507 15.565C26.1592 15.565 26.1886 15.4604 26.216 15.3325C26.3061 14.9125 26.0914 14.4659 25.7028 14.265C25.5102 14.1654 25.1056 14.1309 24.9289 14.199ZM4.58599 16.05C4.77481 17.6735 5.24965 19.0952 6.03172 20.3788C6.16249 20.5935 6.28213 20.7691 6.29756 20.7691C6.31303 20.7691 6.60284 20.6848 6.94168 20.5818C7.28051 20.4789 7.81908 20.327 8.13846 20.2443C8.61085 20.122 8.71507 20.0797 8.69728 20.0176C8.56297 19.5486 8.29388 16.8863 8.29146 16.0026L8.29104 15.8489H6.42681H4.56258L4.58599 16.05ZM8.15072 21.8414C7.72228 21.9567 7.36169 22.0611 7.34939 22.0734C7.29607 22.1268 8.16836 22.9198 8.81144 23.4025C9.12009 23.6341 9.67678 23.9882 9.6984 23.9665C9.70677 23.9581 9.61987 23.6557 9.50519 23.2945C9.39056 22.9333 9.23609 22.409 9.16196 22.1292C9.08778 21.8495 9.00522 21.6232 8.9784 21.6262C8.95162 21.6292 8.57915 21.7261 8.15072 21.8414Z" fill="#A99FAC"/>
</svg>
