<svg width="14" height="14" viewBox="0 0 14 14" fill="none" xmlns="http://www.w3.org/2000/svg">
<g id="pending_FILL1_wght400_GRAD0_opsz24 1">
<path id="Vector" d="M4.08341 7.87484C4.32647 7.87484 4.53307 7.78977 4.70321 7.61963C4.87335 7.44949 4.95841 7.24289 4.95841 6.99984C4.95841 6.75678 4.87335 6.55018 4.70321 6.38005C4.53307 6.20991 4.32647 6.12484 4.08341 6.12484C3.84036 6.12484 3.63376 6.20991 3.46362 6.38005C3.29348 6.55018 3.20841 6.75678 3.20841 6.99984C3.20841 7.24289 3.29348 7.44949 3.46362 7.61963C3.63376 7.78977 3.84036 7.87484 4.08341 7.87484ZM7.00008 7.87484C7.24314 7.87484 7.44973 7.78977 7.61987 7.61963C7.79001 7.44949 7.87508 7.24289 7.87508 6.99984C7.87508 6.75678 7.79001 6.55018 7.61987 6.38005C7.44973 6.20991 7.24314 6.12484 7.00008 6.12484C6.75703 6.12484 6.55043 6.20991 6.38029 6.38005C6.21015 6.55018 6.12508 6.75678 6.12508 6.99984C6.12508 7.24289 6.21015 7.44949 6.38029 7.61963C6.55043 7.78977 6.75703 7.87484 7.00008 7.87484ZM9.91675 7.87484C10.1598 7.87484 10.3664 7.78977 10.5365 7.61963C10.7067 7.44949 10.7917 7.24289 10.7917 6.99984C10.7917 6.75678 10.7067 6.55018 10.5365 6.38005C10.3664 6.20991 10.1598 6.12484 9.91675 6.12484C9.67369 6.12484 9.4671 6.20991 9.29696 6.38005C9.12682 6.55018 9.04175 6.75678 9.04175 6.99984C9.04175 7.24289 9.12682 7.44949 9.29696 7.61963C9.4671 7.78977 9.67369 7.87484 9.91675 7.87484ZM7.00008 12.8332C6.19314 12.8332 5.4348 12.68 4.72508 12.3738C4.01536 12.0675 3.398 11.6519 2.873 11.1269C2.348 10.6019 1.93237 9.98456 1.62612 9.27484C1.31987 8.56511 1.16675 7.80678 1.16675 6.99984C1.16675 6.19289 1.31987 5.43456 1.62612 4.72484C1.93237 4.01511 2.348 3.39775 2.873 2.87275C3.398 2.34775 4.01536 1.93213 4.72508 1.62588C5.4348 1.31963 6.19314 1.1665 7.00008 1.1665C7.80703 1.1665 8.56536 1.31963 9.27508 1.62588C9.9848 1.93213 10.6022 2.34775 11.1272 2.87275C11.6522 3.39775 12.0678 4.01511 12.374 4.72484C12.6803 5.43456 12.8334 6.19289 12.8334 6.99984C12.8334 7.80678 12.6803 8.56511 12.374 9.27484C12.0678 9.98456 11.6522 10.6019 11.1272 11.1269C10.6022 11.6519 9.9848 12.0675 9.27508 12.3738C8.56536 12.68 7.80703 12.8332 7.00008 12.8332Z" fill="#FDEB56"/>
</g>
</svg>
