<svg xmlns="http://www.w3.org/2000/svg" width="20" height="20" viewBox="0 0 20 20" fill="none">
<path fill-rule="evenodd" clip-rule="evenodd" d="M13.4667 6.86075C13.4667 8.81882 11.9057 10.3889 9.95891 10.3889C8.01216 10.3889 6.45117 8.81882 6.45117 6.86075C6.45117 4.90193 8.01216 3.33337 9.95891 3.33337C11.9057 3.33337 13.4667 4.90193 13.4667 6.86075ZM9.95899 16.6667C7.09967 16.6667 4.6582 16.2134 4.6582 14.4002C4.6582 12.5862 7.084 12.1164 9.95899 12.1164C12.8183 12.1164 15.2598 12.5697 15.2598 14.3837C15.2598 16.1969 12.834 16.6667 9.95899 16.6667ZM14.9649 6.92439C14.9649 7.92257 14.6672 8.85244 14.1449 9.62546C14.0911 9.70502 14.1389 9.81234 14.2336 9.82885C14.3642 9.85137 14.4993 9.86412 14.6366 9.86788C16.0058 9.9039 17.2347 9.01755 17.5742 7.68315C18.0772 5.70107 16.6005 3.92162 14.7202 3.92162C14.5157 3.92162 14.3202 3.94339 14.1299 3.98241C14.1038 3.98842 14.0762 4.00042 14.0613 4.02369C14.0434 4.05221 14.0568 4.09048 14.0747 4.11525C14.6396 4.91154 14.9649 5.88269 14.9649 6.92439ZM17.232 11.2605C18.152 11.4414 18.7571 11.8106 19.0078 12.3472C19.2198 12.7878 19.2198 13.2989 19.0078 13.7387C18.6243 14.571 17.3879 14.8382 16.9074 14.9072C16.8081 14.9222 16.7283 14.8359 16.7387 14.7361C16.9842 12.4298 15.0315 11.3363 14.5263 11.0849C14.5047 11.0736 14.5002 11.0564 14.5025 11.0459C14.504 11.0384 14.5129 11.0264 14.5293 11.0241C15.6225 11.0038 16.7977 11.1539 17.232 11.2605ZM5.36538 9.8678C5.50268 9.86404 5.63699 9.85204 5.76831 9.82877C5.86308 9.81226 5.91083 9.70494 5.85711 9.62538C5.33479 8.85236 5.03707 7.92248 5.03707 6.92431C5.03707 5.88261 5.3624 4.91146 5.92725 4.11517C5.94516 4.0904 5.95784 4.05213 5.94068 4.02361C5.92576 4.00109 5.8974 3.98833 5.87203 3.98233C5.68101 3.9433 5.48552 3.92154 5.28107 3.92154C3.40072 3.92154 1.92405 5.70099 2.42772 7.68307C2.76722 9.01747 3.99616 9.90382 5.36538 9.8678ZM5.4981 11.0454C5.50034 11.0567 5.49586 11.0732 5.47497 11.0852C4.96907 11.3366 3.01634 12.4301 3.26183 14.7357C3.27228 14.8362 3.19318 14.9218 3.09394 14.9075C2.61341 14.8385 1.37701 14.5713 0.993478 13.739C0.78082 13.2984 0.78082 12.7881 0.993478 12.3475C1.24419 11.8109 1.84859 11.4417 2.76861 11.2601C3.20363 11.1542 4.3781 11.0041 5.47198 11.0244C5.4884 11.0267 5.49661 11.0387 5.4981 11.0454Z" fill="#1FD031"/>
</svg>