<svg xmlns="http://www.w3.org/2000/svg" width="28" height="28" viewBox="0 0 28 28" fill="none">
  <path d="M20.8711 12.7129C22.4986 12.4842 23.7516 11.0889 23.7551 9.39839C23.7551 7.73239 22.5406 6.35106 20.9481 6.08972" stroke="#2A0D32" stroke-width="2" stroke-linecap="round" stroke-linejoin="round"/>
  <path d="M23.0195 16.6254C24.5957 16.861 25.6959 17.4129 25.6959 18.5504C25.6959 19.3332 25.1779 19.8419 24.3402 20.1615" stroke="#2A0D32" stroke-width="2" stroke-linecap="round" stroke-linejoin="round"/>
  <path fill-rule="evenodd" clip-rule="evenodd" d="M13.8701 17.1078C10.1205 17.1078 6.91797 17.676 6.91797 19.9451C6.91797 22.2131 10.1006 22.7976 13.8701 22.7976C17.6198 22.7976 20.8211 22.2353 20.8211 19.965C20.8211 17.6946 17.6396 17.1078 13.8701 17.1078Z" stroke="#2A0D32" stroke-width="2" stroke-linecap="round" stroke-linejoin="round"/>
  <path fill-rule="evenodd" clip-rule="evenodd" d="M13.8696 13.8693C16.3301 13.8693 18.3251 11.8754 18.3251 9.41375C18.3251 6.95325 16.3301 4.95825 13.8696 4.95825C11.4091 4.95825 9.4141 6.95325 9.4141 9.41375C9.40476 11.8661 11.3846 13.8611 13.8369 13.8693H13.8696Z" stroke="#2A0D32" stroke-width="2" stroke-linecap="round" stroke-linejoin="round"/>
  <path d="M6.86837 12.7129C5.23971 12.4842 3.98787 11.0889 3.98438 9.39839C3.98438 7.73239 5.19887 6.35106 6.79137 6.08972" stroke="#2A0D32" stroke-width="2" stroke-linecap="round" stroke-linejoin="round"/>
  <path d="M4.7193 16.6254C3.14314 16.861 2.04297 17.4129 2.04297 18.5504C2.04297 19.3332 2.56097 19.8419 3.39864 20.1615" stroke="#2A0D32" stroke-width="2" stroke-linecap="round" stroke-linejoin="round"/>
</svg>