<svg width="20" height="20" viewBox="0 0 20 20" fill="none" xmlns="http://www.w3.org/2000/svg">
<path d="M9.05708 16.1381V14.167H3.28788C2.96108 14.167 2.67906 14.0483 2.44181 13.8111C2.20456 13.5739 2.08594 13.2918 2.08594 12.9651V4.11893C2.08594 3.79214 2.20456 3.51012 2.44181 3.27287C2.67906 3.03562 2.96108 2.91699 3.28788 2.91699H16.7173C17.0441 2.91699 17.3261 3.03562 17.5634 3.27287C17.8006 3.51012 17.9192 3.79214 17.9192 4.11893V12.9651C17.9192 13.2918 17.8006 13.5739 17.5634 13.8111C17.3261 14.0483 17.0441 14.167 16.7173 14.167H10.9481V16.1381H12.2349C12.3691 16.1381 12.4815 16.1837 12.572 16.2749C12.6625 16.3661 12.7077 16.4794 12.7077 16.6147C12.7077 16.75 12.6625 16.8619 12.572 16.9506C12.4815 17.0393 12.3691 17.0836 12.2349 17.0836H7.77023C7.63602 17.0836 7.52367 17.038 7.43319 16.9468C7.34272 16.8556 7.29748 16.7424 7.29748 16.6071C7.29748 16.4718 7.34272 16.3598 7.43319 16.2711C7.52367 16.1825 7.63602 16.1381 7.77023 16.1381H9.05708ZM3.28788 13.2215H16.7173C16.7814 13.2215 16.8402 13.1948 16.8936 13.1413C16.947 13.0879 16.9737 13.0292 16.9737 12.9651V4.11893C16.9737 4.05482 16.947 3.99605 16.8936 3.94262C16.8402 3.8892 16.7814 3.86249 16.7173 3.86249H3.28788C3.22376 3.86249 3.16499 3.8892 3.11156 3.94262C3.05815 3.99605 3.03144 4.05482 3.03144 4.11893V12.9651C3.03144 13.0292 3.05815 13.0879 3.11156 13.1413C3.16499 13.1948 3.22376 13.2215 3.28788 13.2215Z" fill="#7E6E83"/>
</svg>
