<svg width="20" height="20" viewBox="0 0 20 20" fill="none" xmlns="http://www.w3.org/2000/svg">
<path fill-rule="evenodd" clip-rule="evenodd" d="M12.6366 5.06885C12.8992 5.07245 13.1624 5.07606 13.4265 5.07876C16.2643 5.07876 18.3333 7.10188 18.3333 9.89571V13.4843C18.3333 16.2782 16.2643 18.3013 13.4265 18.3013C12.2898 18.3254 11.1531 18.3334 10.0081 18.3334C8.86322 18.3334 7.71013 18.3254 6.5734 18.3013C3.73565 18.3013 1.66663 16.2782 1.66663 13.4843V9.89571C1.66663 7.10188 3.73565 5.07876 6.58158 5.07876C7.65289 5.0627 8.74873 5.04665 9.86093 5.04665V4.91016C9.86093 4.35622 9.39479 3.90663 8.83869 3.90663H8.02907C7.10496 3.90663 6.35259 3.16803 6.35259 2.26887C6.35259 1.93971 6.63064 1.66675 6.96594 1.66675C7.30941 1.66675 7.57929 1.93971 7.57929 2.26887C7.57929 2.50972 7.78373 2.70239 8.02907 2.70239H8.83869C10.0736 2.71042 11.0794 3.6979 11.0876 4.90214V5.05467C11.6032 5.05467 12.1187 5.06174 12.6366 5.06885ZM9.04314 12.2881H8.18445V13.1391C8.18445 13.4683 7.9064 13.7413 7.57111 13.7413C7.22763 13.7413 6.95776 13.4683 6.95776 13.1391V12.2881H6.0909C5.7556 12.2881 5.47755 12.0232 5.47755 11.686C5.47755 11.3569 5.7556 11.0839 6.0909 11.0839H6.95776V10.2409C6.95776 9.91177 7.22763 9.63881 7.57111 9.63881C7.9064 9.63881 8.18445 9.91177 8.18445 10.2409V11.0839H9.04314C9.37844 11.0839 9.65649 11.3569 9.65649 11.686C9.65649 12.0232 9.37844 12.2881 9.04314 12.2881ZM12.5188 10.9314H12.6005C12.9358 10.9314 13.2139 10.6664 13.2139 10.3292C13.2139 10.0001 12.9358 9.72712 12.6005 9.72712H12.5188C12.1753 9.72712 11.9054 10.0001 11.9054 10.3292C11.9054 10.6664 12.1753 10.9314 12.5188 10.9314ZM13.9172 13.6931H13.999C14.3343 13.6931 14.6123 13.4281 14.6123 13.091C14.6123 12.7618 14.3343 12.4888 13.999 12.4888H13.9172C13.5729 12.4888 13.3039 12.7618 13.3039 13.091C13.3039 13.4281 13.5729 13.6931 13.9172 13.6931Z" fill="white"/>
</svg>
