<svg xmlns="http://www.w3.org/2000/svg" width="28" height="28" viewBox="0 0 28 28" fill="none">
  <path fill-rule="evenodd" clip-rule="evenodd" d="M20.8319 23.82C23.017 23.82 24.7892 22.049 24.7904 19.8638V19.8615V16.7115C23.3472 16.7115 22.1782 15.5425 22.177 14.0993C22.177 12.6573 23.346 11.4871 24.7892 11.4871H24.7904V8.33712C24.7927 6.15079 23.0229 4.37746 20.8377 4.37512H20.8307H7.1667C4.98037 4.37512 3.2082 6.14612 3.20703 8.33246V8.33362V11.5886C4.60003 11.5396 5.76787 12.6293 5.81687 14.0223C5.81803 14.048 5.8192 14.0736 5.8192 14.0993C5.82037 15.5401 4.65487 16.7091 3.21403 16.7115H3.20703V19.8615C3.20587 22.0466 4.97803 23.82 7.1632 23.82H7.16436H20.8319Z" stroke="#2A0D32" stroke-width="2" stroke-linecap="round" stroke-linejoin="round"/>
  <path fill-rule="evenodd" clip-rule="evenodd" d="M14.4309 10.5736L15.1496 12.0284C15.2196 12.1707 15.3549 12.2699 15.5124 12.2932L17.1189 12.5277C17.5167 12.5861 17.6742 13.0737 17.3872 13.3526L16.2252 14.4842C16.1109 14.5951 16.0596 14.7549 16.0852 14.9124L16.3594 16.5107C16.4271 16.9062 16.0129 17.2072 15.6582 17.0206L14.2221 16.2657C14.0809 16.1911 13.9129 16.1911 13.7717 16.2657L12.3367 17.0206C11.9809 17.2072 11.5667 16.9062 11.6344 16.5107L11.9086 14.9124C11.9354 14.7549 11.8829 14.5951 11.7686 14.4842L10.6077 13.3526C10.3207 13.0737 10.4782 12.5861 10.8749 12.5277L12.4814 12.2932C12.6389 12.2699 12.7754 12.1707 12.8454 12.0284L13.5629 10.5736C13.7402 10.2142 14.2536 10.2142 14.4309 10.5736Z" stroke="#2A0D32" stroke-width="2" stroke-linecap="round" stroke-linejoin="round"/>
</svg>