<?xml version="1.0" encoding="UTF-8"?><svg id="Objects" xmlns="http://www.w3.org/2000/svg" xmlns:xlink="http://www.w3.org/1999/xlink" viewBox="0 0 73 73"><defs><style>.cls-1{fill:url(#linear-gradient);}.cls-1,.cls-2,.cls-3{stroke-width:0px;}.cls-2{fill:#546f7a;}.cls-3{fill:#dfddde;}</style><linearGradient id="linear-gradient" x1="11.33" y1="63.09" x2="61.87" y2="9.51" gradientUnits="userSpaceOnUse"><stop offset="0" stop-color="#f71e56"/><stop offset=".49" stop-color="#f05551"/><stop offset="1" stop-color="#fcdf56"/></linearGradient></defs><path class="cls-1" d="m36.46,0C16.32,0,0,16.32,0,36.46s16.32,36.46,36.46,36.46,36.46-16.32,36.46-36.46S56.59,0,36.46,0Zm0,69.78c-18.4,0-33.33-14.92-33.33-33.33S18.05,3.13,36.46,3.13s33.33,14.92,33.33,33.33-14.92,33.33-33.33,33.33Z"/><circle class="cls-3" cx="36.46" cy="36.46" r="31.99"/><circle class="cls-3" cx="36.46" cy="36.46" r="31.99"/><path class="cls-2" d="m28.07,45.84c-.2.29-.2.68-.27,1.03-.27,1.46-1.67,2.39-2.95,3.14-4.2,2.45-8.4,4.86-12.5,7.46,5.86,6.72,14.49,10.98,24.11,10.98,10.11,0,19.11-4.69,24.97-12.01-3.55-1.84-7.1-3.68-10.64-5.52-.83-.43-1.67-.87-2.55-1.2-.69-.27-1.42-.49-1.98-.96-.88-.74-.67-1.94-.9-2.96-.06-.28-.13-.57-.31-.79-.42-.52-1.26-.5-1.72-.98-.28-.29-.36-.72-.37-1.13,0-.26.02-.52.14-.75.15-.27.48-.4.71-.59.25-.2.5-.38.76-.56.56-.38,1.07-.79,1.34-1.44.38-.94.63-2.03.74-3.03.12-1.06-.12-2.32.34-3.33.44-.97,1.35-1.4,1.55-2.53.17-.96,0-2.2-.39-3.09-.18-.41-.47-.68-.71-1.03-.26-.38-.09-.83-.04-1.27.16-1.31-.12-2.63-.4-3.92-.1-.46-.2-.92-.37-1.36-.35-.92-1.02-1.7-1.86-2.21-.42-.26-.9-.38-1.32-.63-.46-.27-.94-.5-1.44-.71-1.11-.47-2.24-.88-3.4-1.18-2.28-.57-4.74-.68-6.91.35-1.12.53-2.19,1.48-2.31,2.71-1.59-.45-3.43.29-4.27,1.71-.67,1.13-.8,2.44-.74,3.73.05,1.18.48,2.25.65,3.42.05.32.09.68-.09.95-.15.23-.43.35-.57.59-.1.17-.12.38-.13.59-.09,1.46-.14,3.03.64,4.26.11.17.24.34.4.47.13.1.27.17.41.26.67.42,1.12,1.13,1.36,1.88.23.7.19,1.42.37,2.12.15.57.33,1.19.53,1.74.17.47.48.75.83,1.08.36.34.57.74,1.09.88.03.1.09.2.13.3.11.26.12.55.13.84.02.51.07,1.33-.29,1.75-.44.52-1.35.36-1.77.96Z"/></svg>