<svg width="30" height="30" viewBox="0 0 30 30" fill="none" xmlns="http://www.w3.org/2000/svg">
<path d="M25 12.5C25 7.78595 25 5.42894 23.5355 3.96446C22.0711 2.5 19.714 2.5 15 2.5H12.5C7.78595 2.5 5.42894 2.5 3.96446 3.96446C2.5 5.42894 2.5 7.78595 2.5 12.5V15C2.5 19.714 2.5 22.0711 3.96446 23.5355C5.29334 24.8644 7.35712 24.9875 11.25 24.9989H11.875" stroke="#A99FAC" stroke-width="1.8" stroke-linecap="round" stroke-linejoin="round"/>
<path d="M18.1606 26.3245C16.1015 26.4668 14.0613 16.8636 15.4621 15.4625C16.8631 14.0613 26.467 16.1001 26.3248 18.1592C26.2268 19.5078 23.9441 20.0412 24.0108 21.2397C24.0304 21.5907 24.4738 21.9107 25.3606 22.5505C25.9769 22.9951 26.6051 23.4268 27.2109 23.8857C27.4526 24.0688 27.5481 24.3768 27.4771 24.6671C27.1361 26.0613 26.0675 27.1347 24.6676 27.4771C24.3773 27.5481 24.0694 27.4526 23.8863 27.2107C23.4275 26.605 22.9959 25.9766 22.5513 25.3602C21.9115 24.4732 21.5916 24.0298 21.2406 24.0102C20.0424 23.9436 19.509 26.2265 18.1606 26.3245Z" stroke="#A99FAC" stroke-width="1.8"/>
<path d="M2.5 8.75H25" stroke="#A99FAC" stroke-width="1.8" stroke-linejoin="round"/>
</svg>
