<svg width="29" height="28" viewBox="0 0 29 28" fill="none" xmlns="http://www.w3.org/2000/svg">
<g clip-path="url(#clip0_2166_10077)">
<path fill-rule="evenodd" clip-rule="evenodd" d="M12.34 6.60894C12.7694 6.23323 13.4106 6.23323 13.84 6.60894L14.833 7.47787L15.8237 7.26115C16.6654 7.07703 17.3988 7.85813 17.1621 8.6866L16.4296 11.2504C16.2899 11.7393 15.843 12.0764 15.3346 12.0764H10.8454C10.337 12.0764 9.89008 11.7393 9.75039 11.2504L9.01787 8.6866C8.78117 7.85813 9.51459 7.07703 10.3563 7.26115L11.347 7.47787L12.34 6.60894ZM13.09 7.77671L12.1622 8.58856C11.8903 8.82644 11.5217 8.92124 11.1688 8.84404L10.4452 8.68575L11.0218 10.7037H15.1582L15.7348 8.68575L15.0112 8.84404C14.6583 8.92124 14.2897 8.82644 14.0178 8.58856L13.09 7.77671Z" fill="#FDEB56"/>
<path fill-rule="evenodd" clip-rule="evenodd" d="M7.62746 15.576C7.62746 15.1386 7.98202 14.7841 8.41939 14.7841H17.4701C17.9074 14.7841 18.262 15.1386 18.262 15.576C18.262 16.0134 17.9074 16.3679 17.4701 16.3679H8.41939C7.98202 16.3679 7.62746 16.0134 7.62746 15.576Z" fill="#FDEB56"/>
<path fill-rule="evenodd" clip-rule="evenodd" d="M7.62746 18.4043C7.62746 17.967 7.98202 17.6124 8.41939 17.6124H17.4701C17.9074 17.6124 18.262 17.967 18.262 18.4043C18.262 18.8417 17.9074 19.1963 17.4701 19.1963H8.41939C7.98202 19.1963 7.62746 18.8417 7.62746 18.4043Z" fill="#FDEB56"/>
<path fill-rule="evenodd" clip-rule="evenodd" d="M6.14216 2.28602C5.22105 2.60416 4.40455 3.31252 3.91477 4.21844C3.58758 4.82373 3.58252 4.94859 3.53988 13.4603L3.49662 22.0885H2.20123C1.00064 22.0885 0.888052 22.1157 0.662873 22.4593C0.178311 23.1988 0.824241 24.7431 1.9486 25.5334L2.61248 26H18.7689L19.4775 25.6509C20.4773 25.1582 21.3983 24.1707 21.7605 23.2024C22.0525 22.4221 22.0668 22.0038 22.0668 14.2597V6.13583H24.3577C27.5674 6.13583 27.9151 5.9487 27.5218 4.43273C27.2669 3.44965 26.2832 2.42131 25.3498 2.16224C24.9507 2.05133 21.7848 1.99734 15.8544 2.0001C7.62653 2.00394 6.89639 2.02541 6.14216 2.28602ZM6.34418 3.96704C6.09108 4.12334 5.74595 4.40635 5.57722 4.59594C5.27934 4.93079 5.26921 5.1891 5.22841 13.5146L5.18623 22.0885H10.6933C14.9155 22.0885 16.2359 22.1333 16.3525 22.2803C16.4362 22.3858 16.5527 22.7383 16.6114 23.0639C16.7447 23.8024 17.3474 24.3894 17.9725 24.3894C18.6866 24.3894 19.7162 23.7033 20.1113 22.9639C20.4546 22.3215 20.4565 22.2784 20.5329 13.4986C20.6031 5.42701 20.6327 4.63628 20.882 4.1801L21.1543 3.68158L13.9794 3.68219C7.26238 3.68265 6.7749 3.7009 6.34418 3.96704ZM23.1789 3.98667C22.9048 4.15387 22.6803 4.32613 22.6803 4.36954C22.6803 4.41294 23.3706 4.44853 24.2143 4.44853C25.8189 4.44853 26.0786 4.32045 25.2957 3.91565C24.6724 3.59338 23.7745 3.62344 23.1789 3.98667ZM2.50863 23.9283C2.66095 24.0966 2.99948 24.2865 3.26101 24.3501C3.52255 24.4139 6.33298 24.4316 9.50634 24.3894L15.2763 24.3127L15.0206 23.6224H8.62618C2.24741 23.6224 2.23237 23.6232 2.50863 23.9283Z" fill="#FDEB56"/>
</g>
<defs>
<clipPath id="clip0_2166_10077">
<rect width="28" height="28" fill="white" transform="translate(0.5)"/>
</clipPath>
</defs>
</svg>
