<svg width="29" height="28" viewBox="0 0 29 28" fill="none" xmlns="http://www.w3.org/2000/svg">
<g clip-path="url(#clip0_2166_10084)">
<path d="M9.53248 8.15866L10.265 10.7225C10.3205 10.9167 10.4981 11.0507 10.7001 11.0507H15.1892C15.3913 11.0507 15.5688 10.9167 15.6244 10.7225L16.3569 8.15866C16.4509 7.82946 16.1595 7.51909 15.825 7.59225L14.7192 7.83417C14.5789 7.86484 14.4325 7.82717 14.3245 7.73265L13.2427 6.78608C13.0721 6.63679 12.8173 6.63679 12.6467 6.78608L11.5649 7.73265C11.4569 7.82717 11.3104 7.86484 11.1702 7.83417L10.0643 7.59225C9.72985 7.51909 9.43842 7.82946 9.53248 8.15866Z" fill="url(#paint0_linear_2166_10084)"/>
<path fill-rule="evenodd" clip-rule="evenodd" d="M12.1947 6.26956C12.6241 5.89384 13.2652 5.89384 13.6946 6.26956L14.6877 7.13848L15.6784 6.92177C16.5201 6.73764 17.2535 7.51874 17.0168 8.34721L16.2843 10.911C16.1446 11.3999 15.6977 11.737 15.1892 11.737H10.7001C10.1916 11.737 9.74475 11.3999 9.60505 10.911L8.87254 8.34721C8.63584 7.51874 9.36926 6.73764 10.211 6.92177L11.2017 7.13848L12.1947 6.26956ZM12.9447 7.43733L12.0168 8.24918C11.745 8.48705 11.3764 8.58185 11.0235 8.50465L10.2999 8.34637L10.8765 10.3643H15.0129L15.5894 8.34637L14.8658 8.50465C14.5129 8.58185 14.1444 8.48705 13.8725 8.24918L12.9447 7.43733Z" fill="url(#paint1_linear_2166_10084)"/>
<path fill-rule="evenodd" clip-rule="evenodd" d="M7.6274 15.576C7.6274 15.1386 7.98196 14.7841 8.41934 14.7841H17.47C17.9074 14.7841 18.2619 15.1386 18.2619 15.576C18.2619 16.0134 17.9074 16.3679 17.47 16.3679H8.41934C7.98196 16.3679 7.6274 16.0134 7.6274 15.576Z" fill="url(#paint2_linear_2166_10084)"/>
<path fill-rule="evenodd" clip-rule="evenodd" d="M7.6274 18.4043C7.6274 17.967 7.98196 17.6124 8.41934 17.6124H17.47C17.9074 17.6124 18.2619 17.967 18.2619 18.4043C18.2619 18.8417 17.9074 19.1963 17.47 19.1963H8.41934C7.98196 19.1963 7.6274 18.8417 7.6274 18.4043Z" fill="url(#paint3_linear_2166_10084)"/>
<path fill-rule="evenodd" clip-rule="evenodd" d="M6.14216 2.28602C5.22105 2.60416 4.40455 3.31252 3.91477 4.21844C3.58758 4.82373 3.58252 4.94859 3.53988 13.4603L3.49662 22.0885H2.20123C1.00064 22.0885 0.888052 22.1157 0.662873 22.4593C0.178311 23.1988 0.824241 24.7431 1.9486 25.5334L2.61248 26H18.7689L19.4775 25.6509C20.4773 25.1582 21.3983 24.1707 21.7605 23.2024C22.0525 22.4221 22.0668 22.0038 22.0668 14.2597V6.13583H24.3577C27.5674 6.13583 27.9151 5.9487 27.5218 4.43273C27.2669 3.44965 26.2832 2.42131 25.3498 2.16224C24.9507 2.05133 21.7848 1.99734 15.8544 2.0001C7.62653 2.00394 6.89639 2.02541 6.14216 2.28602ZM6.34418 3.96704C6.09108 4.12334 5.74595 4.40635 5.57722 4.59594C5.27934 4.93079 5.26921 5.1891 5.22841 13.5146L5.18623 22.0885H10.6933C14.9155 22.0885 16.2359 22.1333 16.3525 22.2803C16.4362 22.3858 16.5527 22.7383 16.6114 23.0639C16.7447 23.8024 17.3474 24.3894 17.9725 24.3894C18.6866 24.3894 19.7162 23.7033 20.1113 22.9639C20.4546 22.3215 20.4565 22.2784 20.5329 13.4986C20.6031 5.42701 20.6327 4.63628 20.882 4.1801L21.1543 3.68158L13.9794 3.68219C7.26238 3.68265 6.7749 3.7009 6.34418 3.96704ZM24.2143 4.44853C24.2143 4.44853 24.845 4.2707 24.8237 4.26267L24.2143 4.44853Z" fill="url(#paint4_linear_2166_10084)"/>
</g>
<defs>
<linearGradient id="paint0_linear_2166_10084" x1="0.5" y1="2" x2="29.769" y2="4.9426" gradientUnits="userSpaceOnUse">
<stop stop-color="#F71756"/>
<stop offset="1" stop-color="#FDEB56"/>
</linearGradient>
<linearGradient id="paint1_linear_2166_10084" x1="0.5" y1="2" x2="29.769" y2="4.9426" gradientUnits="userSpaceOnUse">
<stop stop-color="#F71756"/>
<stop offset="1" stop-color="#FDEB56"/>
</linearGradient>
<linearGradient id="paint2_linear_2166_10084" x1="0.5" y1="2" x2="29.769" y2="4.9426" gradientUnits="userSpaceOnUse">
<stop stop-color="#F71756"/>
<stop offset="1" stop-color="#FDEB56"/>
</linearGradient>
<linearGradient id="paint3_linear_2166_10084" x1="0.5" y1="2" x2="29.769" y2="4.9426" gradientUnits="userSpaceOnUse">
<stop stop-color="#F71756"/>
<stop offset="1" stop-color="#FDEB56"/>
</linearGradient>
<linearGradient id="paint4_linear_2166_10084" x1="0.5" y1="2" x2="29.769" y2="4.9426" gradientUnits="userSpaceOnUse">
<stop stop-color="#F71756"/>
<stop offset="1" stop-color="#FDEB56"/>
</linearGradient>
<clipPath id="clip0_2166_10084">
<rect width="28" height="28" fill="white" transform="translate(0.5)"/>
</clipPath>
</defs>
</svg>
