<svg width="40" height="40" viewBox="0 0 40 40" fill="none" xmlns="http://www.w3.org/2000/svg">
<circle cx="20" cy="20" r="20" fill="#792341"/>
<path d="M22 23C22.2833 23 22.5292 22.8958 22.7375 22.6875C22.9458 22.4792 23.05 22.2333 23.05 21.95C23.05 21.6667 22.9458 21.4208 22.7375 21.2125C22.5292 21.0042 22.2833 20.9 22 20.9C21.7167 20.9 21.4708 21.0042 21.2625 21.2125C21.0542 21.4208 20.95 21.6667 20.95 21.95C20.95 22.2333 21.0542 22.4792 21.2625 22.6875C21.4708 22.8958 21.7167 23 22 23ZM22 19.8C22.1833 19.8 22.3542 19.7333 22.5125 19.6C22.6708 19.4667 22.7667 19.2917 22.8 19.075C22.8333 18.875 22.9042 18.6917 23.0125 18.525C23.1208 18.3583 23.3167 18.1333 23.6 17.85C24.1 17.35 24.4333 16.9458 24.6 16.6375C24.7667 16.3292 24.85 15.9667 24.85 15.55C24.85 14.8 24.5875 14.1875 24.0625 13.7125C23.5375 13.2375 22.85 13 22 13C21.45 13 20.95 13.125 20.5 13.375C20.05 13.625 19.6917 13.9833 19.425 14.45C19.325 14.6167 19.3167 14.7917 19.4 14.975C19.4833 15.1583 19.625 15.2917 19.825 15.375C20.0083 15.4583 20.1875 15.4667 20.3625 15.4C20.5375 15.3333 20.6833 15.2167 20.8 15.05C20.95 14.8333 21.125 14.6708 21.325 14.5625C21.525 14.4542 21.75 14.4 22 14.4C22.4 14.4 22.725 14.5125 22.975 14.7375C23.225 14.9625 23.35 15.2667 23.35 15.65C23.35 15.8833 23.2833 16.1042 23.15 16.3125C23.0167 16.5208 22.7833 16.7833 22.45 17.1C21.9667 17.5167 21.6583 17.8375 21.525 18.0625C21.3917 18.2875 21.3083 18.6167 21.275 19.05C21.2583 19.25 21.3208 19.425 21.4625 19.575C21.6042 19.725 21.7833 19.8 22 19.8ZM16 26C15.45 26 14.9792 25.8042 14.5875 25.4125C14.1958 25.0208 14 24.55 14 24V12C14 11.45 14.1958 10.9792 14.5875 10.5875C14.9792 10.1958 15.45 10 16 10H28C28.55 10 29.0208 10.1958 29.4125 10.5875C29.8042 10.9792 30 11.45 30 12V24C30 24.55 29.8042 25.0208 29.4125 25.4125C29.0208 25.8042 28.55 26 28 26H16ZM12 30C11.45 30 10.9792 29.8042 10.5875 29.4125C10.1958 29.0208 10 28.55 10 28V15C10 14.7167 10.0958 14.4792 10.2875 14.2875C10.4792 14.0958 10.7167 14 11 14C11.2833 14 11.5208 14.0958 11.7125 14.2875C11.9042 14.4792 12 14.7167 12 15V28H25C25.2833 28 25.5208 28.0958 25.7125 28.2875C25.9042 28.4792 26 28.7167 26 29C26 29.2833 25.9042 29.5208 25.7125 29.7125C25.5208 29.9042 25.2833 30 25 30H12Z" fill="white"/>
</svg>
