<svg width="27" height="26" viewBox="0 0 27 26" fill="none" xmlns="http://www.w3.org/2000/svg">
<path d="M12.9294 0.756231C13.109 0.203445 13.891 0.203444 14.0706 0.75623L16.733 8.95016C16.8133 9.19737 17.0437 9.36475 17.3036 9.36475H25.9192C26.5005 9.36475 26.7421 10.1085 26.2719 10.4502L19.3017 15.5143C19.0914 15.6671 19.0035 15.9379 19.0838 16.1851L21.7461 24.379C21.9258 24.9318 21.2931 25.3915 20.8228 25.0498L13.8527 19.9857C13.6424 19.8329 13.3576 19.8329 13.1473 19.9857L6.17716 25.0498C5.70693 25.3915 5.07424 24.9318 5.25385 24.379L7.91622 16.1851C7.99655 15.9379 7.90855 15.6671 7.69826 15.5143L0.728091 10.4502C0.257863 10.1085 0.499528 9.36475 1.08076 9.36475H9.69636C9.9563 9.36475 10.1867 9.19737 10.267 8.95016L12.9294 0.756231Z" fill="#FDEB56"/>
</svg>
