<svg width="20" height="20" viewBox="0 0 20 20" fill="none" xmlns="http://www.w3.org/2000/svg">
<g id="cancel_FILL1_wght400_GRAD0_opsz24 (8) 1">
<path id="Vector" d="M9.99984 11.167L12.4165 13.5837C12.5693 13.7364 12.7637 13.8128 12.9998 13.8128C13.2359 13.8128 13.4304 13.7364 13.5832 13.5837C13.7359 13.4309 13.8123 13.2364 13.8123 13.0003C13.8123 12.7642 13.7359 12.5698 13.5832 12.417L11.1665 10.0003L13.5832 7.58366C13.7359 7.43088 13.8123 7.23644 13.8123 7.00033C13.8123 6.76421 13.7359 6.56977 13.5832 6.41699C13.4304 6.26421 13.2359 6.18783 12.9998 6.18783C12.7637 6.18783 12.5693 6.26421 12.4165 6.41699L9.99984 8.83366L7.58317 6.41699C7.43039 6.26421 7.23595 6.18783 6.99984 6.18783C6.76373 6.18783 6.56928 6.26421 6.4165 6.41699C6.26373 6.56977 6.18734 6.76421 6.18734 7.00033C6.18734 7.23644 6.26373 7.43088 6.4165 7.58366L8.83317 10.0003L6.4165 12.417C6.26373 12.5698 6.18734 12.7642 6.18734 13.0003C6.18734 13.2364 6.26373 13.4309 6.4165 13.5837C6.56928 13.7364 6.76373 13.8128 6.99984 13.8128C7.23595 13.8128 7.43039 13.7364 7.58317 13.5837L9.99984 11.167ZM9.99984 18.3337C8.84706 18.3337 7.76373 18.1149 6.74984 17.6774C5.73595 17.2399 4.854 16.6462 4.104 15.8962C3.354 15.1462 2.76025 14.2642 2.32275 13.2503C1.88525 12.2364 1.6665 11.1531 1.6665 10.0003C1.6665 8.84755 1.88525 7.76421 2.32275 6.75033C2.76025 5.73644 3.354 4.85449 4.104 4.10449C4.854 3.35449 5.73595 2.76074 6.74984 2.32324C7.76373 1.88574 8.84706 1.66699 9.99984 1.66699C11.1526 1.66699 12.2359 1.88574 13.2498 2.32324C14.2637 2.76074 15.1457 3.35449 15.8957 4.10449C16.6457 4.85449 17.2394 5.73644 17.6769 6.75033C18.1144 7.76421 18.3332 8.84755 18.3332 10.0003C18.3332 11.1531 18.1144 12.2364 17.6769 13.2503C17.2394 14.2642 16.6457 15.1462 15.8957 15.8962C15.1457 16.6462 14.2637 17.2399 13.2498 17.6774C12.2359 18.1149 11.1526 18.3337 9.99984 18.3337Z" fill="#F71756"/>
</g>
</svg>
