<svg width="177" height="90" viewBox="0 0 177 90" fill="none" xmlns="http://www.w3.org/2000/svg">
<g clip-path="url(#clip0_1410_24087)">
<path d="M164.302 0.293945H12.6969C11.068 0.293942 9.45502 0.614893 7.9501 1.23848C6.44518 1.86206 5.07779 2.77606 3.92597 3.9283C2.77416 5.08053 1.86049 6.44843 1.23714 7.9539C0.613791 9.45936 0.292958 11.0729 0.292969 12.7024V77.2265C0.292961 78.856 0.61379 80.4696 1.23714 81.9751C1.8605 83.4805 2.77416 84.8484 3.92597 86.0007C5.07779 87.1529 6.44518 88.0669 7.9501 88.6905C9.45502 89.3141 11.068 89.6351 12.6969 89.6351H71.0169H81.4628H91.9087H164.302C167.591 89.6351 170.746 88.3277 173.073 86.0007C175.399 83.6736 176.706 80.5175 176.706 77.2265V12.7024C176.706 11.0729 176.385 9.45936 175.761 7.95389C175.138 6.44842 174.224 5.08052 173.073 3.92829C171.921 2.77605 170.553 1.86205 169.048 1.23847C167.543 0.614887 165.931 0.293939 164.302 0.293945Z" fill="#3D2644" stroke="#533E59" stroke-width="1.5721" stroke-miterlimit="10"/>
<path d="M28.6324 39.2186C35.7896 39.2186 41.6001 33.418 41.6106 26.2626C41.6211 19.1072 35.8274 13.3066 28.6702 13.3066C21.513 13.3066 15.7025 19.1072 15.692 26.2626C15.6816 33.418 21.4752 39.2186 28.6324 39.2186Z" fill="#8EC9ED"/>
<path d="M55.6525 14.4917L58.0302 21.6247L65.5467 21.5664L59.5001 26.0327L61.8779 33.1657L55.7629 28.793L49.7162 33.2598L51.9841 26.091L45.8691 21.7183L53.3851 21.6606L55.6525 14.4917Z" fill="#FDEB56"/>
<path d="M79.5919 14.4917L81.9697 21.6247L89.4856 21.5664L83.4396 26.0327L85.8173 33.1657L79.7023 28.793L73.6557 33.2598L75.923 26.091L69.8086 21.7183L77.3246 21.6606L79.5919 14.4917Z" fill="#FDEB56"/>
<path d="M103.531 14.4917L105.909 21.6247L113.425 21.5664L107.378 26.0327L109.756 33.1657L103.642 28.793L97.5951 33.2598L99.8625 26.091L93.748 21.7183L101.264 21.6606L103.531 14.4917Z" fill="#FDEB56"/>
<path d="M127.471 14.4917L129.849 21.6247L137.365 21.5664L131.318 26.0327L133.696 33.1657L127.582 28.793L121.535 33.2598L123.803 26.091L117.688 21.7183L125.204 21.6606L127.471 14.4917Z" fill="#2A0D32"/>
<path d="M151.411 14.4917L153.789 21.6247L161.305 21.5664L155.258 26.0327L157.636 33.1657L151.521 28.793L145.475 33.2598L147.742 26.091L141.627 21.7183L149.143 21.6606L151.411 14.4917Z" fill="#2A0D32"/>
<path d="M26.4526 45.0078H15.0098V48.0665H26.4526V45.0078Z" fill="#8EC9ED"/>
<path d="M46.431 45.0078H29.2754V48.0665H46.431V45.0078Z" fill="#8EC9ED"/>
<path d="M39.6895 54.0942H15.0098V57.1528H39.6895V54.0942Z" fill="#68566E"/>
<path d="M107.491 54.0947H49.7461V57.1533H107.491V54.0947Z" fill="#68566E"/>
<path d="M161.991 54.0942H117.547V57.1528H161.991V54.0942Z" fill="#68566E"/>
<path d="M70.184 63.8301H15.0098V66.8887H70.184V63.8301Z" fill="#68566E"/>
<path d="M161.991 63.8301H134.416V66.8887H161.991V63.8301Z" fill="#68566E"/>
<path d="M127.931 63.8301H79.5938V66.8887H127.931V63.8301Z" fill="#68566E"/>
<path d="M85.4312 73.5659H15.0098V76.6246H85.4312V73.5659Z" fill="#68566E"/>
</g>
<defs>
<clipPath id="clip0_1410_24087">
<rect width="177" height="90" fill="white"/>
</clipPath>
</defs>
</svg>
