<svg width="24" height="24" viewBox="0 0 24 24" fill="none" xmlns="http://www.w3.org/2000/svg">
<g id="Frame 1171276597">
<g id="g5203">
<g id="g5221">
<path id="path5223" d="M13.1487 2.53783C13.5424 3.02714 14.2089 3.20431 14.7938 2.97934C15.6543 2.6475 16.5992 3.19306 16.7398 4.1042C16.8354 4.72569 17.3247 5.21219 17.9434 5.30781C18.8546 5.44842 19.4001 6.39612 19.0683 7.25383C18.8405 7.83876 19.0205 8.50524 19.5098 8.89894C20.2269 9.47543 20.2269 10.5694 19.5098 11.1487C19.0205 11.5424 18.8433 12.2089 19.0683 12.7938C19.4001 13.6543 18.8546 14.5992 17.9434 14.7398C17.3219 14.8354 16.8354 15.3247 16.7398 15.9434C16.5992 16.8546 15.6515 17.4001 14.7938 17.0683C14.2089 16.8405 13.5424 17.0205 13.1487 17.5098C12.5722 18.2269 11.4782 18.2269 10.8989 17.5098C10.5052 17.0205 9.83876 16.8433 9.25383 17.0683C8.3933 17.4001 7.44842 16.8546 7.30781 15.9434C7.21219 15.3219 6.72288 14.8354 6.1042 14.7398C5.19306 14.5992 4.6475 13.6515 4.97934 12.7938C5.20712 12.2089 5.02714 11.5424 4.53783 11.1487C3.82072 10.5722 3.82072 9.47825 4.53783 8.89894C5.02714 8.50524 5.20431 7.83876 4.97934 7.25383C4.6475 6.3933 5.19306 5.44842 6.1042 5.30781C6.72569 5.21219 7.21219 4.72288 7.30781 4.1042C7.44842 3.19306 8.39612 2.6475 9.25383 2.97934C9.83876 3.20712 10.5052 3.02714 10.8989 2.53783C11.4754 1.82072 12.5694 1.82072 13.1487 2.53783Z" stroke="#A99FAC" stroke-width="1.3" stroke-miterlimit="10"/>
</g>
<g id="g5229">
<path id="path5231" d="M12.1795 12.592L14.6275 14.212C14.8355 14.352 15.1075 14.156 15.0395 13.912L14.2555 11.0839C14.2275 10.9799 14.2635 10.8679 14.3475 10.7999L16.6436 8.97188C16.8396 8.81588 16.7356 8.49987 16.4876 8.48787L13.5555 8.35986C13.4475 8.35586 13.3515 8.28386 13.3115 8.18386L12.2835 5.43579C12.1955 5.19979 11.8634 5.19979 11.7754 5.43579L10.7474 8.18386C10.7074 8.28386 10.6154 8.35586 10.5034 8.35986L7.57134 8.48787C7.31933 8.49987 7.21933 8.81588 7.41534 8.97188L9.71139 10.7999C9.79539 10.8679 9.83139 10.9799 9.80339 11.0839L9.01938 13.912C8.95137 14.152 9.22338 14.348 9.43138 14.212L11.8794 12.592C11.9714 12.532 12.0874 12.532 12.1795 12.592Z" stroke="#A99FAC" stroke-width="1.3" stroke-miterlimit="10"/>
</g>
<g id="g5233">
<path id="path5235" d="M7.20697 15.6033L5.09784 19.6922C5.00504 19.8721 5.16533 20.0774 5.36219 20.0324L7.71034 19.4784C7.82283 19.4503 7.94094 19.5122 7.98312 19.619L8.89426 21.8519C8.97019 22.0403 9.23172 22.0516 9.32452 21.8716L11.3746 17.898" stroke="#A99FAC" stroke-width="1.3" stroke-miterlimit="10"/>
</g>
<g id="g5237">
<path id="path5239" d="M12.6733 17.8979L14.7234 21.8715C14.8162 22.0514 15.0777 22.0402 15.1537 21.8518L16.0648 19.6189C16.1098 19.5121 16.2251 19.4502 16.3376 19.4783L18.6857 20.0323C18.8826 20.0773 19.0429 19.872 18.9501 19.692L16.841 15.6031" stroke="#A99FAC" stroke-width="1.3" stroke-miterlimit="10"/>
</g>
</g>
</g>
</svg>
