<svg width="24" height="24" viewBox="0 0 24 24" fill="none" xmlns="http://www.w3.org/2000/svg">
<path d="M13.1487 2.53795C13.5424 3.02726 14.2089 3.20443 14.7938 2.97946C15.6543 2.64762 16.5992 3.19318 16.7398 4.10432C16.8354 4.72581 17.3247 5.21232 17.9434 5.30793C18.8546 5.44854 19.4001 6.39624 19.0683 7.25395C18.8405 7.83888 19.0205 8.50536 19.5098 8.89906C20.2269 9.47556 20.2269 10.5695 19.5098 11.1488C19.0205 11.5425 18.8433 12.209 19.0683 12.7939C19.4001 13.6544 18.8546 14.5993 17.9434 14.7399C17.3219 14.8355 16.8354 15.3249 16.7398 15.9435C16.5992 16.8547 15.6515 17.4002 14.7938 17.0684C14.2089 16.8406 13.5424 17.0206 13.1487 17.5099C12.5722 18.227 11.4782 18.227 10.8989 17.5099C10.5052 17.0206 9.83876 16.8434 9.25383 17.0684C8.3933 17.4002 7.44842 16.8547 7.30781 15.9435C7.21219 15.322 6.72288 14.8355 6.1042 14.7399C5.19306 14.5993 4.6475 13.6516 4.97934 12.7939C5.20712 12.209 5.02714 11.5425 4.53783 11.1488C3.82072 10.5723 3.82072 9.47837 4.53783 8.89906C5.02714 8.50536 5.20431 7.83888 4.97934 7.25395C4.6475 6.39342 5.19306 5.44854 6.1042 5.30793C6.72569 5.21232 7.21219 4.723 7.30781 4.10432C7.44842 3.19318 8.39612 2.64762 9.25383 2.97946C9.83876 3.20724 10.5052 3.02726 10.8989 2.53795C11.4754 1.82085 12.5694 1.82085 13.1487 2.53795Z" fill="url(#paint0_linear_3372_29099)"/>
<path d="M7.20702 15.6033L5.0979 19.6922C5.0051 19.8722 5.16539 20.0775 5.36224 20.0325L7.7104 19.4785C7.82289 19.4504 7.941 19.5123 7.98318 19.6191L8.89432 21.852C8.97025 22.0404 9.23178 22.0516 9.32458 21.8717L11.3746 17.8981" fill="url(#paint1_linear_3372_29099)"/>
<path d="M12.6734 17.898L14.7235 21.8716C14.8163 22.0516 15.0778 22.0403 15.1537 21.8519L16.0649 19.6191C16.1099 19.5122 16.2252 19.4503 16.3376 19.4785L18.6858 20.0325C18.8826 20.0774 19.0429 19.8722 18.9501 19.6922L16.841 15.6033" fill="url(#paint2_linear_3372_29099)"/>
<path d="M7.20702 15.6033L5.0979 19.6922C5.0051 19.8722 5.16539 20.0775 5.36224 20.0325L7.7104 19.4785C7.82289 19.4504 7.941 19.5123 7.98318 19.6191L8.89432 21.852C8.97025 22.0404 9.23178 22.0516 9.32458 21.8717L11.3746 17.8981M12.6734 17.898L14.7235 21.8716C14.8163 22.0516 15.0778 22.0403 15.1537 21.8519L16.0649 19.6191C16.1099 19.5122 16.2252 19.4503 16.3376 19.4785L18.6858 20.0325C18.8826 20.0774 19.0429 19.8722 18.9501 19.6922L16.841 15.6033M13.1487 2.53795C13.5424 3.02726 14.2089 3.20443 14.7938 2.97946C15.6543 2.64762 16.5992 3.19318 16.7398 4.10432C16.8354 4.72581 17.3247 5.21232 17.9434 5.30793C18.8546 5.44854 19.4001 6.39624 19.0683 7.25395C18.8405 7.83888 19.0205 8.50536 19.5098 8.89906C20.2269 9.47556 20.2269 10.5695 19.5098 11.1488C19.0205 11.5425 18.8433 12.209 19.0683 12.7939C19.4001 13.6544 18.8546 14.5993 17.9434 14.7399C17.3219 14.8355 16.8354 15.3249 16.7398 15.9435C16.5992 16.8547 15.6515 17.4002 14.7938 17.0684C14.2089 16.8406 13.5424 17.0206 13.1487 17.5099C12.5722 18.227 11.4782 18.227 10.8989 17.5099C10.5052 17.0206 9.83876 16.8434 9.25383 17.0684C8.3933 17.4002 7.44842 16.8547 7.30781 15.9435C7.21219 15.322 6.72288 14.8355 6.1042 14.7399C5.19306 14.5993 4.6475 13.6516 4.97934 12.7939C5.20712 12.209 5.02714 11.5425 4.53783 11.1488C3.82072 10.5723 3.82072 9.47837 4.53783 8.89906C5.02714 8.50536 5.20431 7.83888 4.97934 7.25395C4.6475 6.39343 5.19306 5.44854 6.1042 5.30793C6.72569 5.21232 7.21219 4.723 7.30781 4.10432C7.44842 3.19318 8.39612 2.64762 9.25383 2.97946C9.83876 3.20724 10.5052 3.02726 10.8989 2.53795C11.4754 1.82085 12.5694 1.82085 13.1487 2.53795Z" stroke="url(#paint3_linear_3372_29099)" stroke-width="1.3" stroke-miterlimit="10"/>
<g filter="url(#filter0_d_3372_29099)">
<path d="M13.1487 2.53783C13.5424 3.02714 14.2089 3.20431 14.7938 2.97934C15.6543 2.6475 16.5992 3.19306 16.7398 4.1042C16.8354 4.72569 17.3247 5.21219 17.9434 5.30781C18.8546 5.44842 19.4001 6.39612 19.0683 7.25383C18.8405 7.83876 19.0205 8.50524 19.5098 8.89894C20.2269 9.47543 20.2269 10.5694 19.5098 11.1487C19.0205 11.5424 18.8433 12.2089 19.0683 12.7938C19.4001 13.6543 18.8546 14.5992 17.9434 14.7398C17.3219 14.8354 16.8354 15.3247 16.7398 15.9434C16.5992 16.8546 15.6515 17.4001 14.7938 17.0683C14.2089 16.8405 13.5424 17.0205 13.1487 17.5098C12.5722 18.2269 11.4782 18.2269 10.8989 17.5098C10.5052 17.0205 9.83876 16.8433 9.25383 17.0683C8.3933 17.4001 7.44842 16.8546 7.30781 15.9434C7.21219 15.3219 6.72288 14.8354 6.1042 14.7398C5.19306 14.5992 4.6475 13.6515 4.97934 12.7938C5.20712 12.2089 5.02714 11.5424 4.53783 11.1487C3.82072 10.5722 3.82072 9.47825 4.53783 8.89894C5.02714 8.50524 5.20431 7.83876 4.97934 7.25383C4.6475 6.3933 5.19306 5.44842 6.1042 5.30781C6.72569 5.21219 7.21219 4.72288 7.30781 4.1042C7.44842 3.19306 8.39612 2.6475 9.25383 2.97934C9.83876 3.20712 10.5052 3.02714 10.8989 2.53783C11.4754 1.82072 12.5694 1.82072 13.1487 2.53783Z" fill="url(#paint4_linear_3372_29099)"/>
<path d="M13.1487 2.53783C13.5424 3.02714 14.2089 3.20431 14.7938 2.97934C15.6543 2.6475 16.5992 3.19306 16.7398 4.1042C16.8354 4.72569 17.3247 5.21219 17.9434 5.30781C18.8546 5.44842 19.4001 6.39612 19.0683 7.25383C18.8405 7.83876 19.0205 8.50524 19.5098 8.89894C20.2269 9.47543 20.2269 10.5694 19.5098 11.1487C19.0205 11.5424 18.8433 12.2089 19.0683 12.7938C19.4001 13.6543 18.8546 14.5992 17.9434 14.7398C17.3219 14.8354 16.8354 15.3247 16.7398 15.9434C16.5992 16.8546 15.6515 17.4001 14.7938 17.0683C14.2089 16.8405 13.5424 17.0205 13.1487 17.5098C12.5722 18.2269 11.4782 18.2269 10.8989 17.5098C10.5052 17.0205 9.83876 16.8433 9.25383 17.0683C8.3933 17.4001 7.44842 16.8546 7.30781 15.9434C7.21219 15.3219 6.72288 14.8354 6.1042 14.7398C5.19306 14.5992 4.6475 13.6515 4.97934 12.7938C5.20712 12.2089 5.02714 11.5424 4.53783 11.1487C3.82072 10.5722 3.82072 9.47825 4.53783 8.89894C5.02714 8.50524 5.20431 7.83876 4.97934 7.25383C4.6475 6.3933 5.19306 5.44842 6.1042 5.30781C6.72569 5.21219 7.21219 4.72288 7.30781 4.1042C7.44842 3.19306 8.39612 2.6475 9.25383 2.97934C9.83876 3.20712 10.5052 3.02714 10.8989 2.53783C11.4754 1.82072 12.5694 1.82072 13.1487 2.53783Z" stroke="url(#paint5_linear_3372_29099)" stroke-width="1.3" stroke-miterlimit="10"/>
</g>
<path d="M12.1795 12.592L14.6275 14.212C14.8355 14.352 15.1075 14.156 15.0395 13.912L14.2555 11.0839C14.2275 10.9799 14.2635 10.8679 14.3475 10.7999L16.6436 8.97188C16.8396 8.81588 16.7356 8.49987 16.4876 8.48787L13.5555 8.35986C13.4475 8.35586 13.3515 8.28386 13.3115 8.18386L12.2835 5.43579C12.1955 5.19979 11.8634 5.19979 11.7754 5.43579L10.7474 8.18386C10.7074 8.28386 10.6154 8.35586 10.5034 8.35986L7.57134 8.48787C7.31933 8.49987 7.21933 8.81588 7.41534 8.97188L9.71139 10.7999C9.79539 10.8679 9.83139 10.9799 9.80339 11.0839L9.01937 13.912C8.95137 14.152 9.22338 14.348 9.43138 14.212L11.8794 12.592C11.9714 12.532 12.0874 12.532 12.1795 12.592Z" fill="#140718" stroke="#140718" stroke-width="0.3" stroke-miterlimit="10"/>
<defs>
<filter id="filter0_d_3372_29099" x="1.3501" y="0.349976" width="21.3474" height="21.3477" filterUnits="userSpaceOnUse" color-interpolation-filters="sRGB">
<feFlood flood-opacity="0" result="BackgroundImageFix"/>
<feColorMatrix in="SourceAlpha" type="matrix" values="0 0 0 0 0 0 0 0 0 0 0 0 0 0 0 0 0 0 127 0" result="hardAlpha"/>
<feOffset dy="1"/>
<feGaussianBlur stdDeviation="1"/>
<feComposite in2="hardAlpha" operator="out"/>
<feColorMatrix type="matrix" values="0 0 0 0 0.0784314 0 0 0 0 0.027451 0 0 0 0 0.0941176 0 0 0 0.3 0"/>
<feBlend mode="normal" in2="BackgroundImageFix" result="effect1_dropShadow_3372_29099"/>
<feBlend mode="normal" in="SourceGraphic" in2="effect1_dropShadow_3372_29099" result="shape"/>
</filter>
<linearGradient id="paint0_linear_3372_29099" x1="4" y1="2.00012" x2="21.3853" y2="3.23976" gradientUnits="userSpaceOnUse">
<stop stop-color="#F71756"/>
<stop offset="1" stop-color="#FDEB56"/>
</linearGradient>
<linearGradient id="paint1_linear_3372_29099" x1="4" y1="2.00012" x2="21.3853" y2="3.23976" gradientUnits="userSpaceOnUse">
<stop stop-color="#F71756"/>
<stop offset="1" stop-color="#FDEB56"/>
</linearGradient>
<linearGradient id="paint2_linear_3372_29099" x1="4" y1="2.00012" x2="21.3853" y2="3.23976" gradientUnits="userSpaceOnUse">
<stop stop-color="#F71756"/>
<stop offset="1" stop-color="#FDEB56"/>
</linearGradient>
<linearGradient id="paint3_linear_3372_29099" x1="4" y1="2.00012" x2="21.3853" y2="3.23976" gradientUnits="userSpaceOnUse">
<stop stop-color="#F71756"/>
<stop offset="1" stop-color="#FDEB56"/>
</linearGradient>
<linearGradient id="paint4_linear_3372_29099" x1="4" y1="2" x2="21.3368" y2="3.54064" gradientUnits="userSpaceOnUse">
<stop stop-color="#F71756"/>
<stop offset="1" stop-color="#FDEB56"/>
</linearGradient>
<linearGradient id="paint5_linear_3372_29099" x1="4" y1="2" x2="21.3368" y2="3.54064" gradientUnits="userSpaceOnUse">
<stop stop-color="#F71756"/>
<stop offset="1" stop-color="#FDEB56"/>
</linearGradient>
</defs>
</svg>
