<svg width="30" height="30" viewBox="0 0 30 30" fill="none" xmlns="http://www.w3.org/2000/svg">
<path fill-rule="evenodd" clip-rule="evenodd" d="M5 3.18182V20.4545C5 20.8182 5.09091 21.0909 5.18182 21.3636C5.36364 21.6364 5.54545 21.9091 5.81818 22.0909L14 28.6364C14.2727 28.9091 14.6364 29 15 29C15.3636 29 15.7273 28.9091 16 28.6364L24.1818 22.0909C24.4545 21.9091 24.6364 21.6364 24.8182 21.3636C25 21.0909 25 20.7273 25 20.4545V3.18182C25 2.63636 24.7273 2.09091 24.3636 1.63636C24 1.18182 23.4545 1 22.8182 1H7.18182C6.54545 1 6 1.18182 5.63636 1.63636C5.27273 2 5 2.54545 5 3.18182Z" fill="#004DE5"/>
<path d="M20.818 11V7.1818C20.818 6.72725 20.6362 6.1818 20.2725 5.81816C19.9089 5.45452 19.4544 5.27271 18.9089 5.27271H10.9998C10.5453 5.36361 10.0907 5.54543 9.7271 5.90907C9.36346 6.27271 9.18164 6.72725 9.18164 7.1818V18.0909C9.18164 18.3636 9.27255 18.6363 9.36346 18.9091C9.45437 19.1818 9.63619 19.3636 9.90891 19.5454L12.7271 21.9091L12.818 22H12.9089L12.9998 21.9091V21.8182V14.0909C12.9998 14 12.9998 14 13.0907 13.9091C13.0907 13.9091 13.1816 13.8182 13.2726 13.8182H15.3635C15.7271 13.8182 16.0907 14 16.3635 14.2727C16.6362 14.5454 16.818 14.9091 16.818 15.2727V21.8182V21.9091L16.9089 22H16.9998C16.9998 22 17.0907 22 17.0907 21.9091L19.9998 19.5454C20.1816 19.3636 20.3635 19.1818 20.5453 18.9091C20.6362 18.6363 20.7271 18.3636 20.7271 18.0909V14.7273C20.7271 14.2727 20.5453 13.7273 20.1816 13.3636C19.818 13 19.3635 12.8182 18.818 12.8182C19.2726 12.8182 19.818 12.6363 20.0907 12.2727C20.6362 12 20.818 11.4545 20.818 11ZM15.4544 11.9091H13.3635C13.2725 11.9091 13.2726 11.9091 13.1816 11.8182C13.1816 11.8182 13.0907 11.7273 13.0907 11.6363V7.45452C13.0907 7.36361 13.1816 7.36361 13.1816 7.27271C13.1816 7.27271 13.2725 7.1818 13.3635 7.1818H16.6362C16.7271 7.1818 16.7271 7.1818 16.818 7.27271C16.818 7.27271 16.9089 7.36361 16.9089 7.45452V10.5454C16.9089 10.9091 16.7271 11.2727 16.4544 11.5454C16.1816 11.8182 15.818 11.9091 15.4544 11.9091Z" fill="url(#paint0_linear_5768_16778)"/>
<defs>
<linearGradient id="paint0_linear_5768_16778" x1="14.9999" y1="5.33325" x2="14.9999" y2="21.9999" gradientUnits="userSpaceOnUse">
<stop stop-color="white"/>
<stop offset="0.4583" stop-color="white"/>
<stop offset="1" stop-color="white"/>
</linearGradient>
</defs>
</svg>
