<svg xmlns="http://www.w3.org/2000/svg" width="29" height="28" viewBox="0 0 29 28" fill="none">
<path d="M13.7056 25C13.5473 25 13.393 24.9844 13.2426 24.9531C13.0923 24.9218 12.9441 24.8644 12.798 24.7809L5.60029 20.8378C5.30821 20.6709 5.0735 20.4427 4.89617 20.1533C4.71883 19.8638 4.63016 19.5391 4.63016 19.1792V12.7952L1.46942 11.074C1.3055 10.981 1.18628 10.8647 1.11175 10.7253C1.03725 10.5858 1 10.4308 1 10.2603C1 10.0898 1.03725 9.93486 1.11175 9.79537C1.18628 9.65588 1.3055 9.53964 1.46942 9.44666L12.798 3.25036C12.9413 3.1669 13.0886 3.10431 13.2398 3.06259C13.3911 3.02086 13.5463 3 13.7056 3C13.8648 3 14.02 3.02086 14.1713 3.06259C14.3225 3.10431 14.4698 3.1669 14.6131 3.25036L27.0057 9.97866C27.1726 10.083 27.2978 10.2078 27.3813 10.3532C27.4647 10.4985 27.5064 10.6553 27.5064 10.8236V19.2418C27.5064 19.5078 27.416 19.7308 27.235 19.9107C27.054 20.0907 26.8297 20.1807 26.5621 20.1807C26.2946 20.1807 26.0721 20.0907 25.8948 19.9107C25.7174 19.7308 25.6288 19.5078 25.6288 19.2418V11.3556L22.781 12.7952V19.1792C22.781 19.5391 22.6923 19.8638 22.515 20.1533C22.3376 20.4427 22.1029 20.6709 21.8108 20.8378L14.6131 24.7809C14.4671 24.8644 14.3189 24.9218 14.1685 24.9531C14.0181 24.9844 13.8638 25 13.7056 25ZM13.7056 15.643L23.5633 10.2603L13.7056 4.97155L3.91039 10.2603L13.7056 15.643ZM13.7056 23.1536L20.9033 19.1792V13.9218L14.6131 17.3016C14.4671 17.385 14.321 17.4424 14.175 17.4737C14.0289 17.505 13.8725 17.5206 13.7056 17.5206C13.5387 17.5206 13.3874 17.505 13.2518 17.4737C13.1162 17.4424 12.9754 17.385 12.8293 17.3016L6.50783 13.8592V19.1792L13.7056 23.1536Z" fill="#A99FAC"/>
</svg>