<svg width="29" height="20" viewBox="0 0 29 20" fill="none" xmlns="http://www.w3.org/2000/svg">
<path d="M10.002 19C14.9737 19 19.004 14.9706 19.004 10C19.004 5.02944 14.9737 1 10.002 1C5.03033 1 1 5.02944 1 10C1 14.9706 5.03033 19 10.002 19Z" fill="#F7C523"/>
<path d="M10.002 19C14.9737 19 19.004 14.9706 19.004 10C19.004 5.02944 14.9737 1 10.002 1C5.03033 1 1 5.02944 1 10C1 14.9706 5.03033 19 10.002 19Z" fill="#F7C523"/>
<path d="M10.6573 5.10963L11.8874 7.60143L14.6379 8.00101C15.2374 8.08811 15.4768 8.82472 15.043 9.2475L13.0527 11.1871L13.5225 13.9258C13.625 14.5228 12.9982 14.9781 12.462 14.6962L10.0019 13.4032L7.54178 14.6962C7.00554 14.9781 6.37881 14.5228 6.48122 13.9258L6.95106 11.1871L4.96079 9.2475C4.52697 8.82472 4.76636 8.08811 5.36589 8.00101L8.11637 7.60143L9.34642 5.10963C9.61454 4.56648 10.3892 4.56648 10.6573 5.10963Z" fill="#E5A31F"/>
<line x1="28.5" y1="2" x2="28.5" y2="18" stroke="white" stroke-opacity="0.08"/>
</svg>
