<svg width="26" height="26" viewBox="0 0 26 26" fill="none" xmlns="http://www.w3.org/2000/svg">
<g clip-path="url(#clip0_2904_4741)">
<path d="M13 25.9942C20.1797 25.9942 26 20.1752 26 12.9971C26 5.81899 20.1797 0 13 0C5.82029 0 0 5.81899 0 12.9971C0 20.1752 5.82029 25.9942 13 25.9942Z" fill="#F7C523"/>
<path d="M13 25.9942C20.1797 25.9942 26 20.1752 26 12.9971C26 5.81899 20.1797 0 13 0C5.82029 0 0 5.81899 0 12.9971C0 20.1752 5.82029 25.9942 13 25.9942Z" fill="#F7C523"/>
<path d="M12.9992 23.4039C18.7481 23.4039 23.4086 18.7445 23.4086 12.9969C23.4086 7.24924 18.7481 2.58984 12.9992 2.58984C7.25027 2.58984 2.58984 7.24924 2.58984 12.9969C2.58984 18.7445 7.25027 23.4039 12.9992 23.4039Z" fill="#E5A31F"/>
<path d="M13.9449 5.93496L15.7212 9.53342L19.6932 10.1105C20.559 10.2362 20.9047 11.3 20.2782 11.9105L17.4041 14.7115L18.0826 18.6666C18.2305 19.5288 17.3254 20.1862 16.551 19.7791L12.9983 17.9118L9.44562 19.7791C8.67122 20.1862 7.76614 19.5288 7.91404 18.6666L8.59254 14.7115L5.71836 11.9105C5.09186 11.3 5.43757 10.2362 6.30337 10.1105L10.2754 9.53342L12.0517 5.93496C12.4389 5.15059 13.5577 5.15059 13.9449 5.93496Z" fill="#FFD039"/>
</g>
<defs>
<clipPath id="clip0_2904_4741">
<rect width="26" height="26" fill="white"/>
</clipPath>
</defs>
</svg>
