<svg width="24" height="24" viewBox="0 0 24 24" fill="none" xmlns="http://www.w3.org/2000/svg">
<path d="M21.5 12C21.5 17.2467 17.2467 21.5 12 21.5C6.75329 21.5 2.5 17.2467 2.5 12C2.5 6.75329 6.75329 2.5 12 2.5C17.2467 2.5 21.5 6.75329 21.5 12Z" stroke="white" stroke-opacity="0.7"/>
<path d="M13.41 12L16.24 9.17001C16.3447 9.08036 16.4297 8.97004 16.4898 8.84598C16.5498 8.72191 16.5835 8.58678 16.5888 8.44906C16.5941 8.31134 16.5709 8.17401 16.5207 8.04568C16.4704 7.91736 16.3941 7.80081 16.2967 7.70335C16.1992 7.6059 16.0827 7.52964 15.9544 7.47937C15.826 7.42909 15.6887 7.40589 15.551 7.41121C15.4133 7.41653 15.2781 7.45026 15.1541 7.51028C15.03 7.5703 14.9197 7.65532 14.83 7.76001L12 10.59L9.17003 7.76001C8.97873 7.59618 8.73265 7.51057 8.48098 7.52029C8.2293 7.53001 7.99056 7.63435 7.81247 7.81244C7.63437 7.99054 7.53004 8.22928 7.52032 8.48095C7.5106 8.73263 7.5962 8.9787 7.76003 9.17001L10.59 12L7.76003 14.83C7.57378 15.0174 7.46924 15.2708 7.46924 15.535C7.46924 15.7992 7.57378 16.0526 7.76003 16.24C7.94739 16.4263 8.20085 16.5308 8.46503 16.5308C8.72922 16.5308 8.98267 16.4263 9.17003 16.24L12 13.41L14.83 16.24C15.0174 16.4263 15.2708 16.5308 15.535 16.5308C15.7992 16.5308 16.0527 16.4263 16.24 16.24C16.4263 16.0526 16.5308 15.7992 16.5308 15.535C16.5308 15.2708 16.4263 15.0174 16.24 14.83L13.41 12Z" fill="white" fill-opacity="0.7"/>
</svg>
