<svg width="263" height="440" viewBox="0 0 263 440" fill="none" xmlns="http://www.w3.org/2000/svg">
<g opacity="0.5">
<g style="mix-blend-mode:screen">
<path d="M129.514 434.923C96.3812 434.923 65.2131 430.388 41.7496 422.154C17.838 413.762 4.66992 402.422 4.66992 390.222C4.66992 378.023 17.838 366.682 41.7496 358.291C65.2131 350.056 96.3812 345.521 129.514 345.521C162.647 345.521 193.815 350.056 217.278 358.291C241.19 366.682 254.358 378.023 254.358 390.222C254.358 402.422 241.19 413.762 217.278 422.154C193.815 430.388 162.647 434.923 129.514 434.923ZM129.514 348.254C96.6818 348.254 65.8338 352.734 42.6541 360.87C20.2508 368.732 7.40207 379.431 7.40207 390.222C7.40207 401.014 20.2508 411.713 42.6541 419.575C65.8339 427.711 96.6818 432.191 129.514 432.191C162.346 432.191 193.194 427.711 216.374 419.575C238.777 411.713 251.626 401.014 251.626 390.222C251.626 379.431 238.777 368.732 216.374 360.87C193.194 352.734 162.346 348.254 129.514 348.254Z" fill="url(#paint0_linear_907_10883)"/>
</g>
<g style="mix-blend-mode:multiply">
<path d="M131.487 434.923C98.3538 434.923 67.1858 430.388 43.7223 422.154C19.8106 413.762 6.64258 402.422 6.64258 390.222C6.64258 378.023 19.8106 366.682 43.7223 358.291C67.1858 350.056 98.3538 345.521 131.487 345.521C164.619 345.521 195.787 350.056 219.251 358.291C243.162 366.682 256.33 378.023 256.33 390.222C256.33 402.422 243.162 413.762 219.251 422.154C195.787 430.388 164.619 434.923 131.487 434.923ZM131.487 348.254C98.6544 348.254 67.8064 352.734 44.6268 360.87C22.2235 368.732 9.37473 379.431 9.37473 390.222C9.37473 401.014 22.2235 411.713 44.6268 419.575C67.8065 427.711 98.6544 432.191 131.487 432.191C164.319 432.191 195.167 427.711 218.346 419.575C240.75 411.713 253.598 401.014 253.598 390.222C253.598 379.431 240.75 368.732 218.346 360.87C195.167 352.734 164.319 348.254 131.487 348.254Z" fill="url(#paint1_linear_907_10883)"/>
</g>
<path d="M130.576 434.923C97.4437 434.923 66.2756 430.388 42.8121 422.154C18.9005 413.762 5.73242 402.422 5.73242 390.222C5.73242 378.023 18.9005 366.682 42.8121 358.291C66.2756 350.056 97.4437 345.521 130.576 345.521C163.709 345.521 194.877 350.056 218.341 358.291C242.252 366.682 255.42 378.023 255.42 390.222C255.42 402.422 242.252 413.762 218.341 422.154C194.877 430.388 163.709 434.923 130.576 434.923ZM130.576 348.254C97.7443 348.254 66.8963 352.734 43.7167 360.87C21.3133 368.732 8.46457 379.431 8.46457 390.222C8.46457 401.014 21.3133 411.713 43.7167 419.575C66.8964 427.711 97.7443 432.191 130.576 432.191C163.408 432.191 194.256 427.711 217.436 419.575C239.839 411.713 252.688 401.014 252.688 390.222C252.688 379.431 239.839 368.732 217.436 360.87C194.256 352.734 163.408 348.254 130.576 348.254Z" fill="url(#paint2_linear_907_10883)"/>
</g>
<g opacity="0.5">
<g style="mix-blend-mode:screen">
<path d="M129.91 416.866C112.179 417.174 94.5163 414.604 77.6086 409.256C63.3589 404.256 55.5117 397.498 55.5117 390.228C55.5117 382.958 63.3589 376.199 77.6086 371.199C94.5163 365.852 112.179 363.282 129.91 363.589C147.64 363.282 165.303 365.852 182.211 371.199C196.461 376.199 204.308 382.958 204.308 390.228C204.308 397.498 196.461 404.256 182.211 409.256C165.303 414.604 147.64 417.174 129.91 416.866ZM129.91 365.217C112.363 364.909 94.8821 367.448 78.1477 372.735C64.797 377.421 57.14 383.797 57.14 390.228C57.14 396.659 64.797 403.035 78.1477 407.72C94.8821 413.007 112.363 415.546 129.91 415.238C147.457 415.546 164.938 413.007 181.672 407.72C195.023 403.034 202.68 396.659 202.68 390.228C202.68 383.797 195.023 377.421 181.672 372.735C164.938 367.448 147.457 364.909 129.91 365.217Z" fill="url(#paint3_linear_907_10883)"/>
</g>
<g style="mix-blend-mode:multiply">
<path d="M131.088 416.866C113.357 417.174 95.6941 414.604 78.7864 409.256C64.5367 404.256 56.6895 397.498 56.6895 390.228C56.6895 382.958 64.5367 376.199 78.7864 371.199C95.6941 365.852 113.357 363.282 131.088 363.589C148.818 363.282 166.481 365.852 183.389 371.199C197.639 376.199 205.486 382.958 205.486 390.228C205.486 397.498 197.639 404.256 183.389 409.256C166.481 414.604 148.818 417.174 131.088 416.866ZM131.088 365.217C113.541 364.909 96.0597 367.448 79.3254 372.735C65.9746 377.421 58.3176 383.797 58.3176 390.228C58.3176 396.659 65.9746 403.035 79.3254 407.72C96.0597 413.007 113.541 415.546 131.088 415.238C148.635 415.546 166.115 413.007 182.85 407.72C196.201 403.034 203.858 396.659 203.858 390.228C203.858 383.797 196.201 377.421 182.85 372.735C166.115 367.448 148.635 364.909 131.088 365.217Z" fill="url(#paint4_linear_907_10883)"/>
</g>
<path d="M130.543 416.866C112.812 417.174 95.1492 414.604 78.2415 409.256C63.9918 404.256 56.1445 397.498 56.1445 390.228C56.1445 382.958 63.9918 376.199 78.2415 371.199C95.1492 365.852 112.812 363.282 130.543 363.589C148.273 363.282 165.936 365.852 182.844 371.199C197.094 376.199 204.941 382.958 204.941 390.228C204.941 397.498 197.094 404.256 182.844 409.256C165.936 414.604 148.273 417.174 130.543 416.866ZM130.543 365.217C112.996 364.909 95.5148 367.448 78.7804 372.735C65.4296 377.421 57.7727 383.797 57.7727 390.228C57.7727 396.659 65.4296 403.035 78.7804 407.72C95.5148 413.007 112.996 415.546 130.543 415.238C148.09 415.546 165.571 413.007 182.305 407.72C195.656 403.034 203.313 396.659 203.313 390.228C203.313 383.797 195.656 377.421 182.305 372.735C165.571 367.448 148.09 364.909 130.543 365.217Z" fill="url(#paint5_linear_907_10883)"/>
</g>
<path d="M130.576 0.00195312C58.4609 0.00195312 0 9.52335 0 21.2686V73.6348H261.152V21.2686C261.152 9.52335 202.691 0.00195312 130.576 0.00195312Z" fill="url(#paint6_linear_907_10883)"/>
<path d="M130.576 94.9024C202.691 94.9024 261.152 85.381 261.152 73.6358C261.152 61.8905 202.691 52.3691 130.576 52.3691C58.4609 52.3691 0 61.8905 0 73.6358C0 85.381 58.4609 94.9024 130.576 94.9024Z" fill="url(#paint7_linear_907_10883)"/>
<path style="mix-blend-mode:screen" d="M130.576 53.473C202.117 53.473 260.21 62.6007 261.13 73.9153C261.138 73.8222 261.152 73.7293 261.152 73.6358C261.152 61.8905 202.691 52.3691 130.576 52.3691C58.4609 52.3691 0 61.8905 0 73.6358C0 73.7293 0.0143512 73.8222 0.0218058 73.9153C0.9421 62.6007 59.0348 53.473 130.576 53.473Z" fill="url(#paint8_linear_907_10883)"/>
<path d="M262.1 388.198C263.391 419.955 208.506 437.168 138.812 439.772C60.0666 442.714 -1.93147 416.86 0.947941 388.198V73.6292C5.65783 60.0692 79.0324 52.8433 136.352 53.4824C188.951 54.0689 257.775 60.5246 262.1 73.6292V388.198Z" fill="url(#paint9_linear_907_10883)"/>
<path d="M75.9217 37.3362C74.3583 37.3419 72.8012 37.1399 71.2911 36.7354C70.0062 36.4206 68.782 35.8958 67.668 35.1822L69.4861 31.0973C70.4341 31.6887 71.4549 32.1543 72.5229 32.4826C73.6304 32.8406 74.7867 33.0247 75.9506 33.0283C76.573 33.0451 77.1948 32.9744 77.7976 32.8184C78.1813 32.7259 78.5336 32.5331 78.8182 32.2596C79.0292 32.0366 79.145 31.7401 79.1409 31.4331C79.1432 31.217 79.0871 31.0042 78.9786 30.8172C78.8701 30.6302 78.7132 30.4759 78.5243 30.3706C78.0296 30.0735 77.4914 29.8557 76.9292 29.7252C76.2759 29.5573 75.5531 29.3894 74.7609 29.2215C73.9568 29.0514 73.1628 28.8368 72.3826 28.5787C71.6193 28.3322 70.8906 27.9893 70.2142 27.5581C69.562 27.1388 69.016 26.5739 68.6191 25.9079C68.1816 25.117 67.9688 24.2215 68.0039 23.3184C67.9922 22.1813 68.3291 21.068 68.9693 20.1281C69.7 19.1066 70.7039 18.3119 71.8658 17.8352C73.3907 17.2107 75.0303 16.9148 76.6774 16.9668C77.9539 16.9655 79.2263 17.1107 80.4697 17.3997C81.6314 17.6592 82.7484 18.0889 83.7846 18.6747L82.0779 22.7858C81.2002 22.3045 80.2708 21.9243 79.3074 21.6525C78.4426 21.4074 77.5486 21.2803 76.6497 21.2747C76.0253 21.2562 75.402 21.3368 74.8028 21.5134C74.4142 21.6238 74.0648 21.8422 73.7953 22.1431C73.5932 22.3971 73.4848 22.7131 73.4883 23.0377C73.4867 23.2466 73.5417 23.4521 73.6475 23.6323C73.7533 23.8124 73.9059 23.9606 74.0891 24.0609C74.5845 24.3498 75.1231 24.5571 75.6843 24.6748C76.3468 24.8349 77.0743 24.9984 77.8671 25.1654C78.6594 25.3333 79.4522 25.5432 80.2454 25.7951C81.0094 26.0338 81.7385 26.3726 82.4137 26.8025C83.0637 27.2198 83.6054 27.7854 83.9943 28.4528C84.421 29.2369 84.629 30.1213 84.5965 31.0134C84.6015 32.1365 84.2647 33.2345 83.631 34.1617C82.9067 35.1871 81.9077 35.9873 80.749 36.4704C79.2187 37.0953 77.5737 37.3903 75.9217 37.3362Z" fill="black"/>
<path d="M92.6272 32.6556H102.868V36.9372H87.1426V17.3496H102.505V21.6313H92.6271L92.6272 32.6556ZM92.2349 24.9344H101.329V29.0744H92.2348L92.2349 24.9344Z" fill="black"/>
<path d="M115.715 37.332C114.25 37.3466 112.795 37.0959 111.419 36.5921C110.15 36.1255 108.989 35.4061 108.006 34.4775C107.044 33.5645 106.278 32.4658 105.753 31.2479C104.671 28.6222 104.671 25.6749 105.753 23.0492C106.278 21.8306 107.044 20.731 108.006 19.817C108.989 18.8892 110.15 18.1707 111.419 17.705C112.794 17.1991 114.25 16.9476 115.715 16.9627C117.382 16.9342 119.036 17.2587 120.569 17.915C121.964 18.5236 123.189 19.4649 124.137 20.6566L120.611 23.8469C120.035 23.1463 119.326 22.5659 118.526 22.139C117.742 21.7409 116.874 21.5392 115.995 21.5513C115.24 21.5431 114.49 21.6757 113.784 21.9422C113.135 22.19 112.547 22.5768 112.063 23.0755C111.576 23.5887 111.196 24.1933 110.944 24.8543C110.402 26.3358 110.402 27.9615 110.944 29.443C111.195 30.1035 111.576 30.7074 112.063 31.2191C112.547 31.7178 113.135 32.1047 113.784 32.3525C114.49 32.6202 115.24 32.7528 115.995 32.7434C116.874 32.7567 117.743 32.555 118.526 32.1557C119.326 31.7289 120.034 31.1495 120.611 30.4504L124.137 33.638C123.181 34.8176 121.958 35.7528 120.569 36.3665C119.039 37.0322 117.383 37.3614 115.715 37.332Z" fill="black"/>
<path d="M136.055 37.3362C134.575 37.3516 133.106 37.0955 131.718 36.5806C130.436 36.1029 129.261 35.3752 128.262 34.4397C127.291 33.5285 126.516 32.4298 125.982 31.2101C125.446 29.9245 125.17 28.5455 125.17 27.1527C125.17 25.7599 125.446 24.3809 125.982 23.0954C126.515 21.8745 127.29 20.7748 128.262 19.8631C129.261 18.9277 130.436 18.2 131.718 17.7224C134.527 16.7149 137.598 16.7149 140.406 17.7224C141.68 18.2006 142.845 18.9285 143.834 19.8632C144.8 20.7798 145.574 21.8783 146.114 23.0955C146.674 24.3735 146.955 25.7562 146.939 27.1515C146.956 28.5177 146.689 29.8725 146.154 31.1299C145.62 32.3873 144.83 33.5198 143.834 34.4555C142.842 35.3818 141.677 36.1039 140.406 36.5806C139.015 37.0977 137.54 37.3538 136.055 37.3362ZM136.055 32.7475C136.769 32.7544 137.477 32.6216 138.14 32.3566C138.773 32.1013 139.345 31.715 139.819 31.2232C140.306 30.7111 140.686 30.1074 140.938 29.447C141.478 27.9598 141.478 26.3299 140.938 24.8427C140.683 24.1879 140.303 23.589 139.819 23.0795C139.345 22.5877 138.773 22.2015 138.14 21.9461C136.799 21.425 135.311 21.425 133.971 21.9461C133.337 22.2015 132.765 22.5877 132.292 23.0795C131.807 23.5886 131.427 24.1876 131.173 24.8427C130.63 26.3296 130.63 27.9601 131.173 29.447C131.424 30.1076 131.804 30.7115 132.292 31.2232C132.765 31.715 133.337 32.1012 133.971 32.3566C134.633 32.6218 135.341 32.7546 136.055 32.7475Z" fill="black"/>
<path d="M149.848 36.9372V17.3496H154.409L165.21 30.3888H163.055V17.3496H168.483V36.9372H163.922L153.122 23.8981H155.276V36.9372H149.848Z" fill="black"/>
<path d="M172.402 36.9401V17.3525H181.665C183.635 17.3107 185.588 17.7228 187.372 18.5567C188.947 19.301 190.281 20.474 191.22 21.9411C192.128 23.5233 192.605 25.3156 192.605 27.1397C192.605 28.9638 192.128 30.7561 191.22 32.3383C190.285 33.8125 188.951 34.9908 187.372 35.7359C185.588 36.5698 183.635 36.9819 181.665 36.9401H172.402ZM177.943 32.5194H181.441C182.451 32.5433 183.453 32.3275 184.365 31.8897C185.182 31.4816 185.859 30.8384 186.309 30.0427C186.769 29.1443 187.009 28.1492 187.009 27.1397C187.009 26.1302 186.769 25.1352 186.309 24.2367C185.856 23.4466 185.18 22.8083 184.365 22.4029C183.453 21.9651 182.451 21.7493 181.441 21.7732H177.943V32.5194Z" fill="black"/>
<defs>
<linearGradient id="paint0_linear_907_10883" x1="63.3975" y1="323.77" x2="195.63" y2="456.675" gradientUnits="userSpaceOnUse">
<stop stop-color="#8C8581"/>
<stop offset="0.00571" stop-color="#89827F"/>
<stop offset="0.08298" stop-color="#6C6563"/>
<stop offset="0.14933" stop-color="#5A5352"/>
<stop offset="0.19668" stop-color="#534C4C"/>
<stop offset="0.31915" stop-color="#ABA69F"/>
<stop offset="0.43981" stop-color="#DAD7D4"/>
<stop offset="0.55437" stop-color="#ABA69F"/>
<stop offset="0.66058" stop-color="#716967"/>
<stop offset="0.80424" stop-color="#393432"/>
<stop offset="0.88389"/>
<stop offset="0.98578" stop-color="#716967"/>
</linearGradient>
<linearGradient id="paint1_linear_907_10883" x1="65.3702" y1="323.77" x2="197.603" y2="456.675" gradientUnits="userSpaceOnUse">
<stop stop-color="#8C8581"/>
<stop offset="0.00571" stop-color="#89827F"/>
<stop offset="0.08298" stop-color="#6C6563"/>
<stop offset="0.14933" stop-color="#5A5352"/>
<stop offset="0.19668" stop-color="#534C4C"/>
<stop offset="0.31915" stop-color="#ABA69F"/>
<stop offset="0.43981" stop-color="#DAD7D4"/>
<stop offset="0.55437" stop-color="#ABA69F"/>
<stop offset="0.66058" stop-color="#716967"/>
<stop offset="0.80424" stop-color="#393432"/>
<stop offset="0.88389"/>
<stop offset="0.98578" stop-color="#716967"/>
</linearGradient>
<linearGradient id="paint2_linear_907_10883" x1="64.46" y1="323.77" x2="196.693" y2="456.675" gradientUnits="userSpaceOnUse">
<stop stop-color="#8C8581"/>
<stop offset="0.00571" stop-color="#89827F"/>
<stop offset="0.08298" stop-color="#6C6563"/>
<stop offset="0.14933" stop-color="#5A5352"/>
<stop offset="0.19668" stop-color="#534C4C"/>
<stop offset="0.31915" stop-color="#ABA69F"/>
<stop offset="0.43981" stop-color="#DAD7D4"/>
<stop offset="0.55437" stop-color="#ABA69F"/>
<stop offset="0.66058" stop-color="#716967"/>
<stop offset="0.80424" stop-color="#393432"/>
<stop offset="0.88389"/>
<stop offset="0.98578" stop-color="#716967"/>
</linearGradient>
<linearGradient id="paint3_linear_907_10883" x1="90.5092" y1="350.626" x2="169.311" y2="429.829" gradientUnits="userSpaceOnUse">
<stop stop-color="#8C8581"/>
<stop offset="0.00571" stop-color="#89827F"/>
<stop offset="0.08298" stop-color="#6C6563"/>
<stop offset="0.14933" stop-color="#5A5352"/>
<stop offset="0.19668" stop-color="#534C4C"/>
<stop offset="0.31915" stop-color="#ABA69F"/>
<stop offset="0.43981" stop-color="#DAD7D4"/>
<stop offset="0.55437" stop-color="#ABA69F"/>
<stop offset="0.66058" stop-color="#716967"/>
<stop offset="0.80424" stop-color="#393432"/>
<stop offset="0.88389"/>
<stop offset="0.98578" stop-color="#716967"/>
</linearGradient>
<linearGradient id="paint4_linear_907_10883" x1="91.687" y1="350.626" x2="170.488" y2="429.829" gradientUnits="userSpaceOnUse">
<stop stop-color="#8C8581"/>
<stop offset="0.00571" stop-color="#89827F"/>
<stop offset="0.08298" stop-color="#6C6563"/>
<stop offset="0.14933" stop-color="#5A5352"/>
<stop offset="0.19668" stop-color="#534C4C"/>
<stop offset="0.31915" stop-color="#ABA69F"/>
<stop offset="0.43981" stop-color="#DAD7D4"/>
<stop offset="0.55437" stop-color="#ABA69F"/>
<stop offset="0.66058" stop-color="#716967"/>
<stop offset="0.80424" stop-color="#393432"/>
<stop offset="0.88389"/>
<stop offset="0.98578" stop-color="#716967"/>
</linearGradient>
<linearGradient id="paint5_linear_907_10883" x1="91.142" y1="350.626" x2="169.943" y2="429.829" gradientUnits="userSpaceOnUse">
<stop stop-color="#8C8581"/>
<stop offset="0.00571" stop-color="#89827F"/>
<stop offset="0.08298" stop-color="#6C6563"/>
<stop offset="0.14933" stop-color="#5A5352"/>
<stop offset="0.19668" stop-color="#534C4C"/>
<stop offset="0.31915" stop-color="#ABA69F"/>
<stop offset="0.43981" stop-color="#DAD7D4"/>
<stop offset="0.55437" stop-color="#ABA69F"/>
<stop offset="0.66058" stop-color="#716967"/>
<stop offset="0.80424" stop-color="#393432"/>
<stop offset="0.88389"/>
<stop offset="0.98578" stop-color="#716967"/>
</linearGradient>
<linearGradient id="paint6_linear_907_10883" x1="0" y1="36.8184" x2="261.152" y2="36.8184" gradientUnits="userSpaceOnUse">
<stop stop-color="#B5B3AC"/>
<stop offset="0.07595" stop-color="#9B9892"/>
<stop offset="0.1464" stop-color="#8A8680"/>
<stop offset="0.19668" stop-color="#847F7A"/>
<stop offset="0.31915" stop-color="#D4D0CB"/>
<stop offset="0.43981" stop-color="#F5F5F0"/>
<stop offset="0.55437" stop-color="#D4D0CB"/>
<stop offset="0.66058" stop-color="#96928A"/>
<stop offset="0.80424" stop-color="#726C67"/>
<stop offset="0.88389" stop-color="#322D2A"/>
<stop offset="0.98578" stop-color="#96928A"/>
</linearGradient>
<linearGradient id="paint7_linear_907_10883" x1="10.7911" y1="-70.86" x2="184.435" y2="138.605" gradientUnits="userSpaceOnUse">
<stop stop-color="#B5B3AC"/>
<stop offset="0.16704" stop-color="#9B9892"/>
<stop offset="0.32199" stop-color="#8A8680"/>
<stop offset="0.43258" stop-color="#847F7A"/>
<stop offset="0.55437" stop-color="#D4D0CB"/>
<stop offset="0.66058" stop-color="#96928A"/>
<stop offset="0.80424" stop-color="#726C67"/>
<stop offset="0.88389" stop-color="#322D2A"/>
<stop offset="0.98578" stop-color="#96928A"/>
</linearGradient>
<linearGradient id="paint8_linear_907_10883" x1="3.09322e-05" y1="63.1422" x2="261.152" y2="63.1422" gradientUnits="userSpaceOnUse">
<stop stop-color="#B5B3AC"/>
<stop offset="0.07595" stop-color="#9B9892"/>
<stop offset="0.1464" stop-color="#8A8680"/>
<stop offset="0.19668" stop-color="#847F7A"/>
<stop offset="0.31915" stop-color="#D4D0CB"/>
<stop offset="0.43981" stop-color="#F5F5F0"/>
<stop offset="0.55437" stop-color="#D4D0CB"/>
<stop offset="0.66058" stop-color="#96928A"/>
<stop offset="0.80424" stop-color="#726C67"/>
<stop offset="0.88389" stop-color="#322D2A"/>
<stop offset="0.98578" stop-color="#96928A"/>
</linearGradient>
<linearGradient id="paint9_linear_907_10883" x1="131.487" y1="53.4434" x2="131.487" y2="440.001" gradientUnits="userSpaceOnUse">
<stop stop-color="#4D6C7F" stop-opacity="0"/>
<stop offset="1" stop-color="#8EC9ED" stop-opacity="0.8"/>
</linearGradient>
</defs>
</svg>
