<svg width="24" height="25" viewBox="0 0 24 25" fill="none" xmlns="http://www.w3.org/2000/svg">
<g id="emoji_events_FILL1_wght400_GRAD0_opsz24 (1) 1">
<path id="Vector" d="M7 11.3V7.5H5V8.5C5 9.13333 5.18333 9.70417 5.55 10.2125C5.91667 10.7208 6.4 11.0833 7 11.3ZM17 11.3C17.6 11.0833 18.0833 10.7208 18.45 10.2125C18.8167 9.70417 19 9.13333 19 8.5V7.5H17V11.3ZM11 19.5V16.4C10.1833 16.2167 9.45417 15.8708 8.8125 15.3625C8.17083 14.8542 7.7 14.2167 7.4 13.45C6.15 13.3 5.10417 12.7542 4.2625 11.8125C3.42083 10.8708 3 9.76667 3 8.5V7.5C3 6.95 3.19583 6.47917 3.5875 6.0875C3.97917 5.69583 4.45 5.5 5 5.5H7C7 4.95 7.19583 4.47917 7.5875 4.0875C7.97917 3.69583 8.45 3.5 9 3.5H15C15.55 3.5 16.0208 3.69583 16.4125 4.0875C16.8042 4.47917 17 4.95 17 5.5H19C19.55 5.5 20.0208 5.69583 20.4125 6.0875C20.8042 6.47917 21 6.95 21 7.5V8.5C21 9.76667 20.5792 10.8708 19.7375 11.8125C18.8958 12.7542 17.85 13.3 16.6 13.45C16.3 14.2167 15.8292 14.8542 15.1875 15.3625C14.5458 15.8708 13.8167 16.2167 13 16.4V19.5H16C16.2833 19.5 16.5208 19.5958 16.7125 19.7875C16.9042 19.9792 17 20.2167 17 20.5C17 20.7833 16.9042 21.0208 16.7125 21.2125C16.5208 21.4042 16.2833 21.5 16 21.5H8C7.71667 21.5 7.47917 21.4042 7.2875 21.2125C7.09583 21.0208 7 20.7833 7 20.5C7 20.2167 7.09583 19.9792 7.2875 19.7875C7.47917 19.5958 7.71667 19.5 8 19.5H11Z" fill="#2A0D32"/>
</g>
</svg>
