<svg width="50" height="50" viewBox="0 0 50 50" fill="none" xmlns="http://www.w3.org/2000/svg">
<rect width="50" height="50" rx="4" fill="#2B1731"/>
<path fill-rule="evenodd" clip-rule="evenodd" d="M20.6662 35H29.3328C32.7231 35 35 32.6219 35 29.0833V20.9167C35 17.3781 32.7231 15 29.3338 15H20.6662C17.2769 15 15 17.3781 15 20.9167V29.0833C15 32.6219 17.2769 35 20.6662 35ZM21.4989 24C20.1202 24 19 22.8783 19 21.5C19 20.1217 20.1202 19 21.4989 19C22.8765 19 23.9977 20.1217 23.9977 21.5C23.9977 22.8783 22.8765 24 21.4989 24ZM32.8208 27.934C33.1557 28.7926 32.9817 29.8246 32.6237 30.6749C32.1994 31.6863 31.3869 32.452 30.3632 32.7864C29.9087 32.935 29.432 33 28.9564 33H20.5286C19.69 33 18.9479 32.7988 18.3395 32.4241C17.9584 32.1889 17.891 31.646 18.1736 31.2941C18.6462 30.7059 19.1128 30.1156 19.5834 29.5201C20.4804 28.3808 21.0847 28.0506 21.7565 28.3406C22.029 28.4603 22.3025 28.6398 22.584 28.8297C23.3342 29.3395 24.377 30.0402 25.7506 29.2797C26.6906 28.7532 27.2358 27.8501 27.7106 27.0637L27.7185 27.0506C27.7522 26.9954 27.7855 26.9402 27.8187 26.8852C27.9783 26.6212 28.1357 26.3607 28.3138 26.1207C28.5371 25.8204 29.3646 24.8813 30.4366 25.5501C31.1194 25.9711 31.6936 26.5408 32.308 27.1507C32.5423 27.3839 32.7092 27.6491 32.8208 27.934Z" fill="#D4CFD6"/>
</svg>
