<svg xmlns="http://www.w3.org/2000/svg" width="24" height="25" viewBox="0 0 24 25" fill="none">
  <path d="M18.175 22.5C17.3833 22.5 16.7104 22.2221 16.1562 21.6663C15.6021 21.1106 15.325 20.4357 15.325 19.6417C15.325 19.5306 15.3375 19.3946 15.3625 19.2339C15.3875 19.0732 15.425 18.9286 15.475 18.8L7.9 14.4C7.65 14.6833 7.34167 14.9125 6.975 15.0875C6.60833 15.2625 6.23333 15.35 5.85 15.35C5.05833 15.35 4.38542 15.0729 3.83125 14.5188C3.27708 13.9646 3 13.2917 3 12.5C3 11.7083 3.27708 11.0354 3.83125 10.4813C4.38542 9.92708 5.05833 9.65 5.85 9.65C6.23333 9.65 6.6 9.725 6.95 9.875C7.3 10.025 7.61667 10.2417 7.9 10.525L15.475 6.175C15.425 6.05715 15.3875 5.92456 15.3625 5.77722C15.3375 5.62991 15.325 5.4875 15.325 5.35C15.325 4.55833 15.6021 3.88542 16.1562 3.33125C16.7104 2.77708 17.3833 2.5 18.175 2.5C18.9667 2.5 19.6396 2.77708 20.1938 3.33125C20.7479 3.88542 21.025 4.55833 21.025 5.35C21.025 6.14167 20.7479 6.81458 20.1938 7.36875C19.6396 7.92292 18.9667 8.2 18.175 8.2C17.7858 8.2 17.4135 8.1375 17.0581 8.0125C16.7027 7.8875 16.4 7.68333 16.15 7.4L8.575 11.6C8.60833 11.7333 8.6375 11.8875 8.6625 12.0625C8.6875 12.2375 8.7 12.3853 8.7 12.506C8.7 12.6267 8.6875 12.7517 8.6625 12.881C8.6375 13.0103 8.60833 13.1417 8.575 13.275L16.15 17.575C16.4 17.3417 16.6917 17.1542 17.025 17.0125C17.3583 16.8708 17.7417 16.8 18.175 16.8C18.9667 16.8 19.6396 17.0771 20.1938 17.6313C20.7479 18.1854 21.025 18.8583 21.025 19.65C21.025 20.4417 20.7479 21.1146 20.1938 21.6688C19.6396 22.2229 18.9667 22.5 18.175 22.5ZM18.1759 6.7C18.5586 6.7 18.8792 6.57054 19.1375 6.31163C19.3958 6.05271 19.525 5.73188 19.525 5.34913C19.525 4.96638 19.3955 4.64583 19.1366 4.3875C18.8777 4.12917 18.5569 4 18.1741 4C17.7914 4 17.4708 4.12946 17.2125 4.38837C16.9542 4.64729 16.825 4.96812 16.825 5.35087C16.825 5.73362 16.9545 6.05417 17.2134 6.3125C17.4723 6.57083 17.7931 6.7 18.1759 6.7ZM5.85088 13.85C6.23363 13.85 6.55417 13.7205 6.8125 13.4616C7.07083 13.2027 7.2 12.8819 7.2 12.4991C7.2 12.1164 7.07054 11.7958 6.81163 11.5375C6.55271 11.2792 6.23187 11.15 5.84912 11.15C5.46637 11.15 5.14583 11.2795 4.8875 11.5384C4.62917 11.7973 4.5 12.1181 4.5 12.5009C4.5 12.8836 4.62946 13.2042 4.88838 13.4625C5.14729 13.7208 5.46813 13.85 5.85088 13.85ZM18.1759 21C18.5586 21 18.8792 20.8705 19.1375 20.6116C19.3958 20.3527 19.525 20.0319 19.525 19.6491C19.525 19.2664 19.3955 18.9458 19.1366 18.6875C18.8777 18.4292 18.5569 18.3 18.1741 18.3C17.7914 18.3 17.4708 18.4295 17.2125 18.6884C16.9542 18.9473 16.825 19.2681 16.825 19.6509C16.825 20.0336 16.9545 20.3542 17.2134 20.6125C17.4723 20.8708 17.7931 21 18.1759 21Z" fill="white"/>
</svg>