<svg width="20" height="20" viewBox="0 0 20 20" fill="none" xmlns="http://www.w3.org/2000/svg">
<path fill-rule="evenodd" clip-rule="evenodd" d="M13.4652 6.86063C13.4652 8.8187 11.9042 10.3888 9.95744 10.3888C8.01069 10.3888 6.4497 8.8187 6.4497 6.86063C6.4497 4.90181 8.01069 3.33325 9.95744 3.33325C11.9042 3.33325 13.4652 4.90181 13.4652 6.86063ZM9.95744 16.6666C7.09812 16.6666 4.65666 16.2133 4.65666 14.4001C4.65666 12.5861 7.08245 12.1163 9.95744 12.1163C12.8168 12.1163 15.2582 12.5696 15.2582 14.3835C15.2582 16.1968 12.8324 16.6666 9.95744 16.6666ZM14.9642 6.92427C14.9642 7.92244 14.6664 8.85232 14.1441 9.62534C14.0904 9.7049 14.1382 9.81222 14.2329 9.82873C14.3635 9.85124 14.4986 9.864 14.6358 9.86775C16.0051 9.90378 17.234 9.01743 17.5735 7.68303C18.0764 5.70095 16.5998 3.9215 14.7194 3.9215C14.515 3.9215 14.3195 3.94326 14.1292 3.98229C14.1031 3.98829 14.0755 4.0003 14.0606 4.02357C14.0426 4.05209 14.0561 4.09036 14.074 4.11513C14.6388 4.91142 14.9642 5.88257 14.9642 6.92427ZM17.2318 11.2604C18.1518 11.4413 18.7569 11.8105 19.0077 12.3471C19.2196 12.7877 19.2196 13.2988 19.0077 13.7386C18.6241 14.5709 17.3877 14.8381 16.9072 14.9071C16.8079 14.9221 16.7281 14.8358 16.7386 14.736C16.984 12.4297 15.0313 11.3362 14.5262 11.0848C14.5045 11.0735 14.5 11.0563 14.5023 11.0457C14.5038 11.0382 14.5127 11.0262 14.5291 11.024C15.6223 11.0037 16.7975 11.1538 17.2318 11.2604ZM5.36418 9.86768C5.50147 9.86393 5.63578 9.85192 5.76711 9.82865C5.86187 9.81214 5.90963 9.70482 5.8559 9.62527C5.33358 8.85225 5.03586 7.92237 5.03586 6.9242C5.03586 5.88249 5.36119 4.91134 5.92604 4.11505C5.94395 4.09029 5.95663 4.05201 5.93947 4.02349C5.92455 4.00098 5.89619 3.98822 5.87083 3.98221C5.67981 3.94319 5.48431 3.92142 5.27986 3.92142C3.39951 3.92142 1.92285 5.70087 2.42651 7.68296C2.76602 9.01736 3.99496 9.9037 5.36418 9.86768ZM5.49737 11.0453C5.49961 11.0566 5.49513 11.0731 5.47424 11.0851C4.96833 11.3365 3.01561 12.43 3.2611 14.7355C3.27155 14.8361 3.19245 14.9217 3.09321 14.9074C2.61268 14.8384 1.37628 14.5712 0.992746 13.7389C0.780087 13.2983 0.780087 12.788 0.992746 12.3474C1.24346 11.8108 1.84786 11.4416 2.76788 11.2599C3.2029 11.1541 4.37737 11.004 5.47125 11.0243C5.48767 11.0265 5.49587 11.0385 5.49737 11.0453Z" fill="#FDEB56"/>
</svg>
