<svg width="22" height="21" viewBox="0 0 22 21" fill="none" xmlns="http://www.w3.org/2000/svg">
<path d="M10.4294 1.25623C10.609 0.703444 11.391 0.703444 11.5706 1.25623L13.5595 7.37721C13.6398 7.62442 13.8702 7.7918 14.1301 7.7918H20.5661C21.1473 7.7918 21.389 8.53557 20.9187 8.87721L15.7119 12.6602C15.5016 12.813 15.4136 13.0838 15.494 13.331L17.4828 19.452C17.6624 20.0048 17.0297 20.4644 16.5595 20.1228L11.3527 16.3398C11.1424 16.187 10.8576 16.187 10.6473 16.3398L5.44052 20.1228C4.97029 20.4644 4.3376 20.0048 4.51721 19.452L6.50604 13.331C6.58636 13.0838 6.49837 12.813 6.28807 12.6602L1.08126 8.87721C0.611033 8.53557 0.852698 7.7918 1.43393 7.7918H7.86991C8.12984 7.7918 8.36022 7.62442 8.44054 7.37721L10.4294 1.25623Z" fill="#FDEB56"/>
</svg>
