<svg width="60" height="60" viewBox="0 0 60 60" fill="none" xmlns="http://www.w3.org/2000/svg">
<circle cx="30" cy="30" r="30" fill="#3D2644"/>
<path d="M30.0008 12.3999C20.8728 12.3999 13.3683 19.3445 12.4883 28.2405L21.4414 32.8233C22.3454 32.0633 23.5208 31.5999 24.8008 31.5999H24.8414C25.1534 31.1199 25.5123 30.5192 25.8883 29.8952C26.6723 28.6072 27.5524 27.1512 28.4164 26.0312C28.6084 22.4552 31.5768 19.5999 35.2008 19.5999C38.9528 19.5999 42.0008 22.6479 42.0008 26.3999C42.0008 30.0239 39.1455 32.9923 35.5695 33.1843C34.4495 34.0483 33.0015 34.9286 31.7055 35.7046C31.0815 36.0886 30.4808 36.4473 30.0008 36.7593V36.7999C30.0008 39.6719 27.6728 41.9999 24.8008 41.9999C21.9288 41.9999 19.6008 39.6719 19.6008 36.7999C19.6008 36.6639 19.6084 36.5359 19.6164 36.3999L12.6242 32.8155C13.9762 41.1995 21.2408 47.5999 30.0008 47.5999C39.7208 47.5999 47.6008 39.7199 47.6008 29.9999C47.6008 20.2799 39.7208 12.3999 30.0008 12.3999ZM35.2008 21.1999C32.3368 21.1999 30.0008 23.5359 30.0008 26.3999C30.0008 29.2639 32.3368 31.5999 35.2008 31.5999C38.0648 31.5999 40.4008 29.2639 40.4008 26.3999C40.4008 23.5359 38.0648 21.1999 35.2008 21.1999ZM35.2008 22.7999C37.1928 22.7999 38.8008 24.4079 38.8008 26.3999C38.8008 28.3919 37.1928 29.9999 35.2008 29.9999C33.2088 29.9999 31.6008 28.3919 31.6008 26.3999C31.6008 24.4079 33.2088 22.7999 35.2008 22.7999ZM24.8008 33.1999C24.1688 33.1999 23.569 33.3602 23.057 33.6562L25.7133 35.0155C26.6973 35.5195 27.0812 36.7284 26.5852 37.7124C26.2252 38.4004 25.5288 38.7999 24.8008 38.7999C24.4888 38.7999 24.1843 38.7283 23.8883 38.5843L21.2242 37.2155C21.4322 39.0075 22.9528 40.3999 24.8008 40.3999C26.7928 40.3999 28.4008 38.7919 28.4008 36.7999C28.4008 34.8079 26.7928 33.1999 24.8008 33.1999Z" fill="white"/>
</svg>
