<svg xmlns="http://www.w3.org/2000/svg" width="28" height="28" viewBox="0 0 28 28" fill="none">
  <path fill-rule="evenodd" clip-rule="evenodd" d="M8.41912 18.6701C8.23246 18.6701 8.04462 18.6106 7.88596 18.4893C7.50329 18.1941 7.43096 17.6446 7.72612 17.262L11.218 12.7236C11.3603 12.5381 11.5715 12.418 11.8025 12.3888C12.0381 12.3585 12.2691 12.4238 12.4523 12.5696L15.7423 15.1538L18.6205 11.4403C18.9168 11.0565 19.4651 10.9853 19.8478 11.284C20.2305 11.5803 20.3005 12.1298 20.0041 12.5113L16.5858 16.9213C16.4435 17.1056 16.2335 17.2258 16.0025 17.2538C15.7691 17.2853 15.5381 17.2176 15.3538 17.0741L12.0661 14.4911L9.11329 18.3283C8.94062 18.5523 8.68162 18.6701 8.41912 18.6701Z" fill="#A99FAC"/>
  <mask id="mask0_218_3884" style="mask-type:luminance" maskUnits="userSpaceOnUse" x="20" y="2" width="7" height="7">
    <path fill-rule="evenodd" clip-rule="evenodd" d="M20.1782 2.3335H26.4129V8.56921H20.1782V2.3335Z" fill="white"/>
  </mask>
  <g mask="url(#mask0_218_3884)">
    <path fill-rule="evenodd" clip-rule="evenodd" d="M23.2956 4.08337C22.5419 4.08337 21.9282 4.69587 21.9282 5.45071C21.9282 6.20437 22.5419 6.81921 23.2956 6.81921C24.0492 6.81921 24.6629 6.20437 24.6629 5.45071C24.6629 4.69587 24.0492 4.08337 23.2956 4.08337ZM23.2956 8.56921C21.5771 8.56921 20.1782 7.17037 20.1782 5.45071C20.1782 3.73104 21.5771 2.33337 23.2956 2.33337C25.0152 2.33337 26.4129 3.73104 26.4129 5.45071C26.4129 7.17037 25.0152 8.56921 23.2956 8.56921Z" fill="#A99FAC"/>
  </g>
  <mask id="mask1_218_3884" style="mask-type:luminance" maskUnits="userSpaceOnUse" x="2" y="3" width="24" height="24">
    <path fill-rule="evenodd" clip-rule="evenodd" d="M2.3335 3.3158H25.5057V26.487H2.3335V3.3158Z" fill="white"/>
  </mask>
  <g mask="url(#mask1_218_3884)">
    <path fill-rule="evenodd" clip-rule="evenodd" d="M18.9387 26.487H8.90066C4.9725 26.487 2.3335 23.7278 2.3335 19.6211V10.1921C2.3335 6.07963 4.9725 3.3158 8.90066 3.3158H17.38C17.863 3.3158 18.255 3.7078 18.255 4.1908C18.255 4.6738 17.863 5.0658 17.38 5.0658H8.90066C5.97466 5.0658 4.0835 7.07713 4.0835 10.1921V19.6211C4.0835 22.777 5.92916 24.737 8.90066 24.737H18.9387C21.8647 24.737 23.7558 22.7291 23.7558 19.6211V11.409C23.7558 10.926 24.1478 10.534 24.6308 10.534C25.1138 10.534 25.5058 10.926 25.5058 11.409V19.6211C25.5058 23.7278 22.8668 26.487 18.9387 26.487Z" fill="#A99FAC"/>
  </g>
</svg>