<svg width="60" height="60" viewBox="0 0 60 60" fill="none" xmlns="http://www.w3.org/2000/svg">
<circle cx="30" cy="30" r="29.5" fill="#3D2644" stroke="#533E59"/>
<g clip-path="url(#clip0_3450_31043)">
<path fill-rule="evenodd" clip-rule="evenodd" d="M29.9721 18.2144C29.0764 18.1982 28.1862 18.3588 27.3525 18.6871C26.5189 19.0153 25.7582 19.5048 25.1139 20.1273C24.4696 20.7499 23.9544 21.4934 23.5978 22.3154C23.2412 23.1373 23.0502 24.0214 23.0357 24.9172V34.2858C23.0357 34.8541 22.8099 35.3992 22.4081 35.801C22.0062 36.2029 21.4612 36.4287 20.8929 36.4287H18.2143C17.3618 36.4287 16.5442 36.09 15.9414 35.4872C15.3386 34.8844 15 34.0669 15 33.2144V28.9287C15 28.0762 15.3386 27.2586 15.9414 26.6558C16.5442 26.053 17.3618 25.7144 18.2143 25.7144H19.8214V24.8787C19.841 23.5617 20.1198 22.2614 20.6419 21.0521C21.164 19.8429 21.9193 18.7483 22.8645 17.831C23.8097 16.9137 24.9263 16.1915 26.1506 15.7058C27.375 15.22 28.683 14.9803 30 15.0001C31.317 14.9803 32.625 15.22 33.8494 15.7058C35.0737 16.1915 36.1903 16.9137 37.1355 17.831C38.0807 18.7483 38.836 19.8429 39.3581 21.0521C39.8802 22.2614 40.159 23.5617 40.1786 24.8787V24.9001V25.7144H41.7857C42.6382 25.7144 43.4558 26.053 44.0586 26.6558C44.6614 27.2586 45 28.0762 45 28.9287V33.2144C45 34.0669 44.6614 34.8844 44.0586 35.4872C43.4558 36.09 42.6382 36.4287 41.7857 36.4287H40.1786V37.5001C40.1788 38.9482 39.6459 40.3456 38.6816 41.4258C37.7172 42.506 36.3888 43.1933 34.95 43.3565C34.6706 43.8554 34.2631 44.2707 33.7697 44.5596C33.2762 44.8485 32.7147 45.0006 32.1429 45.0001H28.9286C28.0761 45.0001 27.2585 44.6615 26.6557 44.0587C26.0529 43.4559 25.7143 42.6383 25.7143 41.7858C25.7143 40.9333 26.0529 40.1158 26.6557 39.513C27.2585 38.9102 28.0761 38.5715 28.9286 38.5715H32.1429C33.3043 38.5715 34.3221 39.1865 34.8857 40.1101C35.4763 39.9743 36.0035 39.6423 36.381 39.1683C36.7586 38.6942 36.9642 38.1061 36.9643 37.5001V24.9151C36.9496 24.0147 36.7566 23.1261 36.3963 22.3007C36.0361 21.4753 35.5159 20.7296 34.8657 20.1065C34.2155 19.4834 33.4483 18.9953 32.6083 18.6706C31.7684 18.3458 30.8724 18.1908 29.9721 18.2144Z" fill="white"/>
</g>
<defs>
<clipPath id="clip0_3450_31043">
<rect width="30" height="30" fill="white" transform="translate(15 15)"/>
</clipPath>
</defs>
</svg>
