<svg width="60" height="40" viewBox="0 0 60 40" fill="none" xmlns="http://www.w3.org/2000/svg">
<g clip-path="url(#clip0_2206_1238)">
<path fill-rule="evenodd" clip-rule="evenodd" d="M13.6985 11.9008L13.6986 14.7203C11.7649 14.152 9.97864 13.168 8.46485 11.8373C7.53575 10.896 7.14294 8.77414 7.36556 7.56976C9.28667 8.29941 11.0749 9.3396 12.6589 10.6488C13.0531 11.0242 13.402 11.4443 13.6985 11.9008Z" fill="url(#paint0_radial_2206_1238)"/>
<path fill-rule="evenodd" clip-rule="evenodd" d="M13.6973 24.9985L13.6974 29.2608C11.1378 28.8636 9.01928 28.397 7.35246 27.2819C6.00592 26.3809 4.54439 23.5304 4.59093 22.0478C7.21072 22.0708 9.7973 22.6366 12.1874 23.7096C12.7477 24.0675 13.2558 24.5013 13.6973 24.9985Z" fill="url(#paint1_radial_2206_1238)"/>
<path fill-rule="evenodd" clip-rule="evenodd" d="M13.6999 20.1502L13.7 24.8627C10.4534 24.0849 7.44152 23.4768 5.33908 21.9286C3.67771 20.7052 2.33649 17.3342 2.49289 15.5666C4.83928 15.6717 9.67384 17.0041 12.019 18.4454C12.6861 18.8975 13.2573 19.4769 13.6999 20.1502Z" fill="url(#paint2_radial_2206_1238)"/>
<path fill-rule="evenodd" clip-rule="evenodd" d="M13.6993 14.908L13.6847 19.9126C10.01 18.9579 6.6009 18.2172 4.22104 16.2628C2.34071 14.7185 0.837111 11.4464 1.01419 9.18341C3.66998 9.28882 9.14222 10.9333 11.7966 12.748C12.567 13.3356 13.2136 14.0696 13.6993 14.908Z" fill="url(#paint3_radial_2206_1238)"/>
<path fill-rule="evenodd" clip-rule="evenodd" d="M13.6993 23.0129L13.6993 26.0334C11.6574 25.8112 9.70647 25.0693 8.0328 23.8786C6.81478 22.7329 6.09827 21.1527 6.03906 19.4816C8.29303 19.8067 10.4588 20.5808 12.4081 21.7583C12.8884 22.1219 13.322 22.5433 13.6993 23.0129Z" fill="url(#paint4_radial_2206_1238)"/>
<path fill-rule="evenodd" clip-rule="evenodd" d="M13.7011 18.1937L13.7011 22.173C11.1328 21.5202 8.74174 20.3044 6.70116 18.6136C5.42308 17.2799 4.71981 15.4977 4.74273 13.6506C6.98936 13.8723 9.67678 14.5013 11.4304 15.7428C12.2786 16.4701 13.0405 17.2925 13.7011 18.1937Z" fill="url(#paint5_radial_2206_1238)"/>
<path fill-rule="evenodd" clip-rule="evenodd" d="M46.336 11.9008L46.3359 14.7203C48.2697 14.152 50.0559 13.168 51.5697 11.8373C52.4988 10.896 52.8916 8.77414 52.669 7.56976C50.7479 8.29941 48.9596 9.3396 47.3756 10.6488C46.9815 11.0242 46.6325 11.4443 46.336 11.9008Z" fill="url(#paint6_radial_2206_1238)"/>
<path fill-rule="evenodd" clip-rule="evenodd" d="M46.336 24.9985L46.3359 29.2608C48.8955 28.8636 51.014 28.397 52.6808 27.2818C54.0274 26.3808 55.4889 23.5303 55.4424 22.0477C52.8226 22.0707 50.236 22.6365 47.8459 23.7095C47.2856 24.0675 46.7774 24.5012 46.336 24.9985Z" fill="url(#paint7_radial_2206_1238)"/>
<path fill-rule="evenodd" clip-rule="evenodd" d="M46.336 20.1502L46.3359 24.8627C49.5825 24.0849 52.5944 23.4768 54.6968 21.9286C56.3582 20.7052 57.6994 17.3342 57.543 15.5666C55.1966 15.6717 50.3621 17.0041 48.0169 18.4454C47.3499 18.8975 46.7786 19.4769 46.336 20.1502Z" fill="url(#paint8_radial_2206_1238)"/>
<path fill-rule="evenodd" clip-rule="evenodd" d="M46.3359 14.9081L46.3505 19.9127C50.0252 18.9579 53.4343 18.2172 55.8142 16.2629C57.6945 14.7185 59.1981 11.4465 59.021 9.18347C56.3652 9.28888 50.893 10.9334 48.2386 12.7481C47.4682 13.3356 46.8216 14.0697 46.3359 14.9081Z" fill="url(#paint9_radial_2206_1238)"/>
<path fill-rule="evenodd" clip-rule="evenodd" d="M46.336 23.0129L46.3359 26.0334C48.3779 25.8112 50.3288 25.0693 52.0025 23.8786C53.2205 22.7329 53.937 21.1527 53.9962 19.4816C51.7422 19.8066 49.5764 20.5808 47.6271 21.7583C47.1469 22.1219 46.7133 22.5433 46.336 23.0129Z" fill="url(#paint10_radial_2206_1238)"/>
<path fill-rule="evenodd" clip-rule="evenodd" d="M46.336 18.1937L46.3359 22.173C48.9043 21.5202 51.2953 20.3044 53.3359 18.6136C54.614 17.2799 55.3173 15.4977 55.2944 13.6506C53.0477 13.8723 50.3603 14.5013 48.6067 15.7428C47.7585 16.4701 46.9965 17.2925 46.336 18.1937Z" fill="url(#paint11_radial_2206_1238)"/>
<path fill-rule="evenodd" clip-rule="evenodd" d="M47.1755 12.9822L46.6555 11.0108C46.3595 9.87289 45.7761 8.83011 44.9613 7.98241C43.662 6.65937 41.0721 5.09513 39.4471 4.11707C37.2903 2.81984 35.0555 1.65699 32.7554 0.635152C31.8411 0.216633 30.8473 0 29.8417 0C28.8361 0 27.8423 0.216633 26.9279 0.635152C24.6278 1.65699 22.393 2.81984 20.2362 4.11707C18.6116 5.09468 16.021 6.65983 14.722 7.98241C13.9072 8.8301 13.3238 9.87288 13.0278 11.0108L12.5078 12.9822H47.1755Z" fill="url(#paint12_linear_2206_1238)"/>
<path fill-rule="evenodd" clip-rule="evenodd" d="M44.3872 8.94952C40.7835 6.33058 36.9149 4.09705 32.845 2.28564C31.902 1.85528 30.8776 1.63257 29.8411 1.63257C28.8046 1.63257 27.7802 1.85528 26.8372 2.28564C22.7673 4.09701 18.8987 6.33054 15.295 8.94952C14.4508 9.55095 13.7458 10.3268 13.2275 11.2244C12.7093 12.122 12.3899 13.1205 12.2912 14.1523C11.8248 18.5827 11.8248 23.0498 12.2912 27.4802C12.3899 28.512 12.7092 29.5105 13.2275 30.4081C13.7458 31.3058 14.4508 32.0816 15.295 32.683C18.8986 35.302 22.7672 37.5356 26.8372 39.3469C27.7802 39.7773 28.8046 40 29.8411 40C30.8776 40 31.902 39.7773 32.8449 39.3469C36.9149 37.5356 40.7835 35.302 44.3872 32.683C45.2314 32.0816 45.9364 31.3058 46.4547 30.4081C46.9729 29.5105 47.2923 28.512 47.391 27.4802C47.8573 23.0498 47.8573 18.5828 47.391 14.1524C47.2923 13.1206 46.9729 12.1221 46.4547 11.2244C45.9364 10.3268 45.2313 9.55097 44.3872 8.94952Z" fill="url(#paint13_radial_2206_1238)"/>
<path fill-rule="evenodd" clip-rule="evenodd" d="M42.0827 12.0827C38.7095 9.63306 35.0894 7.54295 31.2813 5.84651C30.8308 5.63231 30.3383 5.52118 29.8394 5.52118C29.3406 5.52118 28.8481 5.63231 28.3976 5.84651C24.5895 7.54291 20.9693 9.63302 17.5962 12.0827C17.1854 12.3658 16.8429 12.7367 16.5935 13.1687C16.3441 13.6007 16.1941 14.0828 16.1543 14.5801C15.7194 18.7262 15.7194 22.9064 16.1543 27.0524C16.194 27.5497 16.3441 28.0318 16.5935 28.4638C16.8429 28.8958 17.1854 29.2668 17.5962 29.5498C20.9693 31.9995 24.5895 34.0896 28.3976 35.786C28.8481 36.0002 29.3406 36.1114 29.8394 36.1114C30.3383 36.1114 30.8308 36.0002 31.2813 35.786C35.0893 34.0896 38.7095 31.9995 42.0826 29.5499C42.4934 29.2668 42.8359 28.8958 43.0853 28.4639C43.3348 28.0319 43.4848 27.5497 43.5245 27.0525C43.9594 22.9064 43.9594 18.7262 43.5245 14.5801C43.4848 14.0828 43.3348 13.6007 43.0854 13.1687C42.836 12.7368 42.4934 12.3658 42.0827 12.0827Z" fill="url(#paint14_radial_2206_1238)"/>
<path fill-rule="evenodd" clip-rule="evenodd" d="M28.3735 34.7542C24.4957 33.0267 20.8093 30.8983 17.3744 28.4038C16.8139 28.015 16.3817 27.4682 16.1328 26.833C16.1406 26.9062 16.1486 26.9793 16.1566 27.0524C16.1964 27.5496 16.3464 28.0318 16.5958 28.4638C16.8452 28.8958 17.1877 29.2667 17.5985 29.5498C20.9716 31.9995 24.5918 34.0896 28.3999 35.786C28.8504 36.0002 29.3429 36.1113 29.8418 36.1113C30.3406 36.1113 30.8331 36.0002 31.2836 35.786C35.0916 34.0896 38.7118 31.9995 42.085 29.5498C42.4957 29.2668 42.8382 28.8958 43.0877 28.4638C43.3371 28.0318 43.4871 27.5497 43.5269 27.0525C43.5349 26.9794 43.5429 26.9062 43.5506 26.833C43.3018 27.4682 42.8696 28.015 42.309 28.4039C38.8741 30.8984 35.1877 33.0267 31.3099 34.7542C30.8512 34.9723 30.3497 35.0854 29.8417 35.0854C29.3338 35.0854 28.8322 34.9723 28.3735 34.7542Z" fill="url(#paint15_linear_2206_1238)"/>
<g opacity="0.5">
<path fill-rule="evenodd" clip-rule="evenodd" d="M36.8102 26.8175V28.2895C36.8102 28.3165 36.7815 28.3396 36.7193 28.3628C36.1491 28.5754 33.4774 28.7417 30.1945 28.7417C26.9117 28.7417 24.24 28.5754 23.6698 28.3628C23.6075 28.3396 23.5789 28.3165 23.5789 28.2895V26.8175C24.2312 27.3775 36.1579 27.3775 36.8102 26.8175Z" fill="white"/>
<path fill-rule="evenodd" clip-rule="evenodd" d="M34.7187 15.0992C34.4697 15.0992 34.2281 15.1844 34.0334 15.3407C33.8386 15.497 33.7024 15.7152 33.6468 15.9597C33.5913 16.2041 33.6197 16.4603 33.7275 16.6863C33.8353 16.9124 34.0161 17.0949 34.2403 17.204C33.9134 18.3082 33.3839 19.3409 32.6791 20.2486C32.3976 20.6485 32.025 20.9747 31.5926 21.1998C31.1601 21.4249 30.6804 21.5424 30.1936 21.5424C29.7069 21.5424 29.2272 21.4249 28.7947 21.1998C28.3623 20.9747 27.9897 20.6485 27.7082 20.2486C27.0034 19.3409 26.4738 18.3082 26.1469 17.204C26.382 17.0897 26.5691 16.8949 26.6746 16.6544C26.7802 16.414 26.7974 16.1436 26.7231 15.8915C26.6489 15.6395 26.488 15.4222 26.2693 15.2787C26.0506 15.1351 25.7883 15.0746 25.5294 15.1079C25.2704 15.1412 25.0317 15.2662 24.8559 15.4606C24.68 15.6549 24.5786 15.9059 24.5696 16.1686C24.5607 16.4314 24.6448 16.6887 24.807 16.8947C24.9692 17.1007 25.1989 17.2419 25.455 17.293C25.4343 18.5915 24.8089 20.7534 23.7445 21.4051L24.4178 23.903H35.9695L36.6427 21.4051C35.5783 20.7534 34.953 18.5915 34.9323 17.293C35.2002 17.2396 35.4387 17.0877 35.6015 16.8669C35.7643 16.6461 35.8396 16.3722 35.813 16.0986C35.7863 15.8249 35.6595 15.571 35.4573 15.3863C35.255 15.2015 34.9917 15.0992 34.7187 15.0992Z" fill="white"/>
<path d="M30.1936 27.3612C26.5868 27.3612 23.654 27.1197 23.577 26.8194C22.9114 23.4555 22.0509 20.1337 21 16.871C21.4177 16.7657 21.8593 16.819 22.2405 17.0208C22.6216 17.2226 22.9156 17.5587 23.0664 17.9649C23.1732 18.2464 23.1936 18.5537 23.1249 18.847C23.0562 19.1402 22.9017 19.406 22.6812 19.6098C24.6964 23.0777 29.1465 21.3249 29.3519 15.1097H31.0355C31.2408 21.3249 35.691 23.0777 37.7061 19.6098C37.4857 19.406 37.3311 19.1402 37.2625 18.847C37.1938 18.5537 37.2142 18.2464 37.321 17.9649C37.4717 17.5587 37.7657 17.2226 38.1469 17.0208C38.528 16.819 38.9696 16.7657 39.3873 16.871C38.3363 20.1337 37.476 23.4555 36.8106 26.8194C36.7333 27.1197 33.8006 27.3612 30.1936 27.3612Z" fill="white"/>
<path fill-rule="evenodd" clip-rule="evenodd" d="M30.194 12C30.5363 12 30.8709 12.1022 31.1555 12.2937C31.4401 12.4852 31.6619 12.7574 31.7929 13.0759C31.9238 13.3944 31.9581 13.7448 31.8913 14.0829C31.8246 14.421 31.6597 14.7315 31.4177 14.9753C31.1757 15.219 30.8673 15.385 30.5316 15.4523C30.1959 15.5195 29.848 15.485 29.5317 15.3531C29.2155 15.2212 28.9452 14.9978 28.755 14.7112C28.5649 14.4245 28.4634 14.0876 28.4634 13.7429C28.4634 13.514 28.5082 13.2874 28.5951 13.0759C28.6821 12.8644 28.8096 12.6723 28.9703 12.5105C29.131 12.3486 29.3217 12.2202 29.5317 12.1327C29.7417 12.0451 29.9667 12 30.194 12Z" fill="white"/>
</g>
</g>
<defs>
<radialGradient id="paint0_radial_2206_1238" cx="0" cy="0" r="1" gradientUnits="userSpaceOnUse" gradientTransform="translate(10.1912 6.64419) scale(12.6182)">
<stop stop-color="#E600DD"/>
<stop offset="0.78095" stop-color="#5900CC"/>
<stop offset="1" stop-color="#335BCC"/>
</radialGradient>
<radialGradient id="paint1_radial_2206_1238" cx="0" cy="0" r="1" gradientUnits="userSpaceOnUse" gradientTransform="translate(7.28117 18.8214) scale(13.2634 13.2634)">
<stop stop-color="#FFB81F"/>
<stop offset="0.6" stop-color="#DB00D3"/>
<stop offset="1" stop-color="#5900CC"/>
</radialGradient>
<radialGradient id="paint2_radial_2206_1238" cx="0" cy="0" r="1" gradientUnits="userSpaceOnUse" gradientTransform="translate(3.58938 14.7826) scale(14.8229 14.8229)">
<stop stop-color="#FFB81F"/>
<stop offset="0.6" stop-color="#DB00D3"/>
<stop offset="1" stop-color="#5900CC"/>
</radialGradient>
<radialGradient id="paint3_radial_2206_1238" cx="0" cy="0" r="1" gradientUnits="userSpaceOnUse" gradientTransform="translate(2.07277 7.48633) scale(15.5116 15.5116)">
<stop stop-color="#FFB81F"/>
<stop offset="0.6" stop-color="#DB00D3"/>
<stop offset="1" stop-color="#5900CC"/>
</radialGradient>
<radialGradient id="paint4_radial_2206_1238" cx="0" cy="0" r="1" gradientUnits="userSpaceOnUse" gradientTransform="translate(7.07449 17.791) scale(14.9887 14.9888)">
<stop stop-color="#FFE11F"/>
<stop offset="0.6" stop-color="#FF22F7"/>
<stop offset="1" stop-color="#6300E3"/>
</radialGradient>
<radialGradient id="paint5_radial_2206_1238" cx="0" cy="0" r="1" gradientUnits="userSpaceOnUse" gradientTransform="translate(7.82397 13.3333) scale(15.2115 15.2115)">
<stop stop-color="#FFE11F"/>
<stop offset="0.6" stop-color="#FF22F7"/>
<stop offset="1" stop-color="#6300E3"/>
</radialGradient>
<radialGradient id="paint6_radial_2206_1238" cx="0" cy="0" r="1" gradientUnits="userSpaceOnUse" gradientTransform="translate(49.783 1.21943) rotate(180) scale(12.6182 12.6182)">
<stop stop-color="#00FFDD"/>
<stop offset="0.99524" stop-color="#6F27FF"/>
</radialGradient>
<radialGradient id="paint7_radial_2206_1238" cx="0" cy="0" r="1" gradientUnits="userSpaceOnUse" gradientTransform="translate(55.6454 16.9528) rotate(180) scale(13.2634 13.2634)">
<stop stop-color="#00B7FF"/>
<stop offset="0.99524" stop-color="#6F27FF"/>
</radialGradient>
<radialGradient id="paint8_radial_2206_1238" cx="0" cy="0" r="1" gradientUnits="userSpaceOnUse" gradientTransform="translate(57.3507 9.47838) rotate(180) scale(14.8229 14.8229)">
<stop stop-color="#00B7FF"/>
<stop offset="0.99524" stop-color="#6F27FF"/>
</radialGradient>
<radialGradient id="paint9_radial_2206_1238" cx="0" cy="0" r="1" gradientUnits="userSpaceOnUse" gradientTransform="translate(56.8775 5.4973) rotate(180) scale(15.5116 15.5116)">
<stop stop-color="#00B7FF"/>
<stop offset="0.99524" stop-color="#6F27FF"/>
</radialGradient>
<radialGradient id="paint10_radial_2206_1238" cx="0" cy="0" r="1" gradientUnits="userSpaceOnUse" gradientTransform="translate(53.5635 15.5608) rotate(180) scale(11.849 11.849)">
<stop stop-color="#00FFDD"/>
<stop offset="0.99524" stop-color="#6F27FF"/>
</radialGradient>
<radialGradient id="paint11_radial_2206_1238" cx="0" cy="0" r="1" gradientUnits="userSpaceOnUse" gradientTransform="translate(53.3584 12.5497) rotate(180) scale(12.0601 12.0601)">
<stop stop-color="#00FFDD"/>
<stop offset="0.99524" stop-color="#6F27FF"/>
</radialGradient>
<linearGradient id="paint12_linear_2206_1238" x1="12.5078" y1="6.49108" x2="47.1755" y2="6.49108" gradientUnits="userSpaceOnUse">
<stop stop-color="#FFC560"/>
<stop offset="0.00555" stop-color="#FFC661"/>
<stop offset="0.13444" stop-color="#FFD96D"/>
<stop offset="0.22381" stop-color="#FFE071"/>
<stop offset="0.49416" stop-color="#FFFFB3"/>
<stop offset="0.50141" stop-color="#FFF39E"/>
<stop offset="0.51624" stop-color="#FEDE79"/>
<stop offset="0.53177" stop-color="#FECC5A"/>
<stop offset="0.54797" stop-color="#FDBE42"/>
<stop offset="0.56511" stop-color="#FDB531"/>
<stop offset="0.58384" stop-color="#FDAF27"/>
<stop offset="0.60714" stop-color="#FDAD24"/>
<stop offset="0.79234" stop-color="#FD2CB9"/>
<stop offset="0.81905" stop-color="#FD19CF"/>
<stop offset="1" stop-color="#8211AB"/>
</linearGradient>
<radialGradient id="paint13_radial_2206_1238" cx="0" cy="0" r="1" gradientUnits="userSpaceOnUse" gradientTransform="translate(17.9698 0.983927) scale(47.0826 47.0826)">
<stop stop-color="#FFF70E"/>
<stop offset="0.41191" stop-color="#FF36FF"/>
<stop offset="1" stop-color="#0091FF"/>
</radialGradient>
<radialGradient id="paint14_radial_2206_1238" cx="0" cy="0" r="1" gradientUnits="userSpaceOnUse" gradientTransform="translate(18.7931 -1.78541) scale(56.379)">
<stop offset="0.21429" stop-color="#FFBB00"/>
<stop offset="0.46905" stop-color="#F011F0"/>
<stop offset="0.76667" stop-color="#2BA3FF"/>
</radialGradient>
<linearGradient id="paint15_linear_2206_1238" x1="16.1328" y1="31.4722" x2="43.5506" y2="31.4722" gradientUnits="userSpaceOnUse">
<stop stop-color="#BE3AC2"/>
<stop offset="0.2381" stop-color="#9763FF"/>
<stop offset="0.33007" stop-color="#9665FF"/>
<stop offset="0.37359" stop-color="#946DFF"/>
<stop offset="0.40693" stop-color="#907AFF"/>
<stop offset="0.43508" stop-color="#8B8CFF"/>
<stop offset="0.45997" stop-color="#84A4FF"/>
<stop offset="0.48252" stop-color="#7CC1FF"/>
<stop offset="0.50293" stop-color="#72E3FF"/>
<stop offset="0.50584" stop-color="#70E9FF"/>
<stop offset="0.77619" stop-color="#3399FF"/>
<stop offset="0.90312" stop-color="#3992FF"/>
<stop offset="1" stop-color="#4089FF"/>
</linearGradient>
<clipPath id="clip0_2206_1238">
<rect width="60" height="40" fill="white"/>
</clipPath>
</defs>
</svg>
