<svg width="59" height="40" viewBox="0 0 59 40" fill="none" xmlns="http://www.w3.org/2000/svg">
<path fill-rule="evenodd" clip-rule="evenodd" d="M12.6985 11.9008L12.6986 14.7204C10.7649 14.152 8.97864 13.1681 7.46485 11.8374C6.53575 10.8961 6.14294 8.7742 6.36556 7.56982C8.28667 8.29947 10.0749 9.33967 11.6589 10.6489C12.0531 11.0242 12.402 11.4444 12.6985 11.9008Z" fill="url(#paint0_radial_1992_15017)"/>
<path fill-rule="evenodd" clip-rule="evenodd" d="M12.6973 24.9985L12.6974 29.2608C10.1378 28.8636 8.01928 28.397 6.35246 27.2819C5.00592 26.3809 3.54439 23.5304 3.59093 22.0478C6.21072 22.0708 8.7973 22.6366 11.1874 23.7096C11.7477 24.0675 12.2558 24.5013 12.6973 24.9985Z" fill="url(#paint1_radial_1992_15017)"/>
<path fill-rule="evenodd" clip-rule="evenodd" d="M12.6999 20.15L12.7 24.8625C9.45343 24.0847 6.44152 23.4766 4.33908 21.9284C2.67771 20.705 1.33649 17.334 1.49289 15.5664C3.83928 15.6715 8.67384 17.0039 11.019 18.4452C11.6861 18.8973 12.2573 19.4767 12.6999 20.15Z" fill="url(#paint2_radial_1992_15017)"/>
<path fill-rule="evenodd" clip-rule="evenodd" d="M12.6993 14.908L12.6847 19.9126C9.01003 18.9579 5.6009 18.2172 3.22104 16.2628C1.34071 14.7185 -0.162889 11.4464 0.0141897 9.18341C2.66998 9.28882 8.14222 10.9333 10.7966 12.748C11.567 13.3356 12.2136 14.0696 12.6993 14.908Z" fill="url(#paint3_radial_1992_15017)"/>
<path fill-rule="evenodd" clip-rule="evenodd" d="M12.6993 23.0129L12.6993 26.0334C10.6574 25.8112 8.70647 25.0693 7.0328 23.8786C5.81478 22.7329 5.09827 21.1527 5.03906 19.4816C7.29303 19.8067 9.45883 20.5808 11.4081 21.7583C11.8884 22.1219 12.322 22.5433 12.6993 23.0129Z" fill="url(#paint4_radial_1992_15017)"/>
<path fill-rule="evenodd" clip-rule="evenodd" d="M12.7011 18.1937L12.7011 22.173C10.1328 21.5202 7.74174 20.3044 5.70116 18.6136C4.42308 17.2799 3.71981 15.4977 3.74273 13.6506C5.98936 13.8723 8.67678 14.5013 10.4304 15.7428C11.2786 16.4701 12.0405 17.2925 12.7011 18.1937Z" fill="url(#paint5_radial_1992_15017)"/>
<path fill-rule="evenodd" clip-rule="evenodd" d="M45.336 11.9008L45.3359 14.7204C47.2697 14.152 49.0559 13.1681 50.5697 11.8374C51.4988 10.8961 51.8916 8.7742 51.669 7.56982C49.7479 8.29947 47.9596 9.33967 46.3756 10.6489C45.9815 11.0242 45.6325 11.4444 45.336 11.9008Z" fill="url(#paint6_radial_1992_15017)"/>
<path fill-rule="evenodd" clip-rule="evenodd" d="M45.336 24.9986L45.3359 29.2609C47.8955 28.8637 50.014 28.3971 51.6808 27.2819C53.0274 26.381 54.4889 23.5304 54.4424 22.0479C51.8226 22.0708 49.236 22.6366 46.8459 23.7096C46.2856 24.0676 45.7774 24.5014 45.336 24.9986Z" fill="url(#paint7_radial_1992_15017)"/>
<path fill-rule="evenodd" clip-rule="evenodd" d="M45.336 20.15L45.3359 24.8625C48.5825 24.0847 51.5944 23.4766 53.6968 21.9284C55.3582 20.705 56.6994 17.334 56.543 15.5664C54.1966 15.6715 49.3621 17.0039 47.0169 18.4452C46.3499 18.8973 45.7786 19.4767 45.336 20.15Z" fill="url(#paint8_radial_1992_15017)"/>
<path fill-rule="evenodd" clip-rule="evenodd" d="M45.3359 14.9082L45.3505 19.9128C49.0252 18.958 52.4343 18.2174 54.8142 16.263C56.6945 14.7187 58.1981 11.4466 58.021 9.18359C55.3652 9.289 49.893 10.9335 47.2386 12.7482C46.4682 13.3358 45.8216 14.0698 45.3359 14.9082Z" fill="url(#paint9_radial_1992_15017)"/>
<path fill-rule="evenodd" clip-rule="evenodd" d="M45.336 23.0128L45.3359 26.0332C47.3779 25.811 49.3288 25.0692 51.0025 23.8785C52.2205 22.7328 52.937 21.1526 52.9962 19.4814C50.7422 19.8065 48.5764 20.5807 46.6271 21.7581C46.1469 22.1218 45.7133 22.5432 45.336 23.0128Z" fill="url(#paint10_radial_1992_15017)"/>
<path fill-rule="evenodd" clip-rule="evenodd" d="M45.336 18.1935L45.3359 22.1728C47.9043 21.52 50.2953 20.3042 52.3359 18.6134C53.614 17.2797 54.3173 15.4975 54.2944 13.6504C52.0477 13.8721 49.3603 14.5011 47.6067 15.7426C46.7585 16.4699 45.9965 17.2923 45.336 18.1935Z" fill="url(#paint11_radial_1992_15017)"/>
<path fill-rule="evenodd" clip-rule="evenodd" d="M46.1755 12.9822L45.6555 11.0108C45.3595 9.87289 44.7761 8.83011 43.9613 7.98241C42.662 6.65937 40.0721 5.09513 38.4471 4.11707C36.2903 2.81984 34.0555 1.65699 31.7554 0.635152C30.8411 0.216633 29.8473 0 28.8417 0C27.8361 0 26.8423 0.216633 25.9279 0.635152C23.6278 1.65699 21.393 2.81984 19.2362 4.11707C17.6116 5.09468 15.021 6.65983 13.722 7.98241C12.9072 8.8301 12.3238 9.87288 12.0278 11.0108L11.5078 12.9822H46.1755Z" fill="url(#paint12_linear_1992_15017)"/>
<path fill-rule="evenodd" clip-rule="evenodd" d="M43.3872 8.94928C39.7835 6.33034 35.9149 4.09681 31.845 2.28539C30.902 1.85504 29.8776 1.63232 28.8411 1.63232C27.8046 1.63232 26.7802 1.85504 25.8372 2.28539C21.7673 4.09677 17.8987 6.3303 14.295 8.94928C13.4508 9.55071 12.7458 10.3265 12.2275 11.2242C11.7093 12.1218 11.3899 13.1203 11.2912 14.1521C10.8248 18.5825 10.8248 23.0496 11.2912 27.4799C11.3899 28.5117 11.7092 29.5102 12.2275 30.4079C12.7458 31.3055 13.4508 32.0813 14.295 32.6828C17.8986 35.3018 21.7672 37.5353 25.8372 39.3466C26.7802 39.777 27.8046 39.9998 28.8411 39.9998C29.8776 39.9998 30.902 39.777 31.8449 39.3466C35.9149 37.5353 39.7835 35.3018 43.3872 32.6828C44.2314 32.0813 44.9364 31.3055 45.4547 30.4079C45.9729 29.5102 46.2923 28.5117 46.391 27.4799C46.8573 23.0496 46.8573 18.5825 46.391 14.1522C46.2923 13.1204 45.9729 12.1218 45.4547 11.2242C44.9364 10.3265 44.2313 9.55073 43.3872 8.94928Z" fill="url(#paint13_radial_1992_15017)"/>
<path fill-rule="evenodd" clip-rule="evenodd" d="M41.0827 12.0825C37.7095 9.63288 34.0894 7.54276 30.2813 5.84632C29.8308 5.63213 29.3383 5.521 28.8394 5.521C28.3406 5.521 27.8481 5.63213 27.3976 5.84632C23.5895 7.54273 19.9693 9.63284 16.5962 12.0825C16.1854 12.3656 15.8429 12.7366 15.5935 13.1685C15.3441 13.6005 15.1941 14.0827 15.1543 14.5799C14.7194 18.726 14.7194 22.9062 15.1543 27.0523C15.194 27.5495 15.3441 28.0316 15.5935 28.4636C15.8429 28.8956 16.1854 29.2666 16.5962 29.5496C19.9693 31.9993 23.5895 34.0894 27.3976 35.7858C27.8481 36 28.3406 36.1112 28.8394 36.1112C29.3383 36.1112 29.8308 36 30.2813 35.7858C34.0893 34.0894 37.7095 31.9993 41.0826 29.5497C41.4934 29.2666 41.8359 28.8957 42.0853 28.4637C42.3348 28.0317 42.4848 27.5496 42.5245 27.0523C42.9594 22.9062 42.9594 18.726 42.5245 14.5799C42.4848 14.0827 42.3348 13.6005 42.0854 13.1686C41.836 12.7366 41.4934 12.3656 41.0827 12.0825Z" fill="url(#paint14_radial_1992_15017)"/>
<path fill-rule="evenodd" clip-rule="evenodd" d="M27.3735 34.7542C23.4957 33.0267 19.8093 30.8983 16.3744 28.4038C15.8139 28.015 15.3817 27.4682 15.1328 26.833C15.1406 26.9062 15.1486 26.9793 15.1566 27.0524C15.1964 27.5496 15.3464 28.0318 15.5958 28.4638C15.8452 28.8958 16.1877 29.2667 16.5985 29.5498C19.9716 31.9995 23.5918 34.0896 27.3999 35.786C27.8504 36.0002 28.3429 36.1113 28.8418 36.1113C29.3406 36.1113 29.8331 36.0002 30.2836 35.786C34.0916 34.0896 37.7118 31.9995 41.085 29.5498C41.4957 29.2668 41.8382 28.8958 42.0877 28.4638C42.3371 28.0318 42.4871 27.5497 42.5269 27.0525C42.5349 26.9794 42.5429 26.9062 42.5506 26.833C42.3018 27.4682 41.8696 28.015 41.309 28.4039C37.8741 30.8984 34.1877 33.0267 30.3099 34.7542C29.8512 34.9723 29.3497 35.0854 28.8417 35.0854C28.3338 35.0854 27.8322 34.9723 27.3735 34.7542Z" fill="url(#paint15_linear_1992_15017)"/>
<defs>
<radialGradient id="paint0_radial_1992_15017" cx="0" cy="0" r="1" gradientUnits="userSpaceOnUse" gradientTransform="translate(9.19123 6.64425) scale(12.6182)">
<stop stop-color="#E600DD"/>
<stop offset="0.78095" stop-color="#5900CC"/>
<stop offset="1" stop-color="#335BCC"/>
</radialGradient>
<radialGradient id="paint1_radial_1992_15017" cx="0" cy="0" r="1" gradientUnits="userSpaceOnUse" gradientTransform="translate(6.28117 18.8214) scale(13.2634 13.2634)">
<stop stop-color="#FFB81F"/>
<stop offset="0.6" stop-color="#DB00D3"/>
<stop offset="1" stop-color="#5900CC"/>
</radialGradient>
<radialGradient id="paint2_radial_1992_15017" cx="0" cy="0" r="1" gradientUnits="userSpaceOnUse" gradientTransform="translate(2.58938 14.7824) scale(14.8229 14.8229)">
<stop stop-color="#FFB81F"/>
<stop offset="0.6" stop-color="#DB00D3"/>
<stop offset="1" stop-color="#5900CC"/>
</radialGradient>
<radialGradient id="paint3_radial_1992_15017" cx="0" cy="0" r="1" gradientUnits="userSpaceOnUse" gradientTransform="translate(1.07277 7.48633) scale(15.5116 15.5116)">
<stop stop-color="#FFB81F"/>
<stop offset="0.6" stop-color="#DB00D3"/>
<stop offset="1" stop-color="#5900CC"/>
</radialGradient>
<radialGradient id="paint4_radial_1992_15017" cx="0" cy="0" r="1" gradientUnits="userSpaceOnUse" gradientTransform="translate(6.07449 17.791) scale(14.9887 14.9888)">
<stop stop-color="#FFE11F"/>
<stop offset="0.6" stop-color="#FF22F7"/>
<stop offset="1" stop-color="#6300E3"/>
</radialGradient>
<radialGradient id="paint5_radial_1992_15017" cx="0" cy="0" r="1" gradientUnits="userSpaceOnUse" gradientTransform="translate(6.82397 13.3333) scale(15.2115 15.2115)">
<stop stop-color="#FFE11F"/>
<stop offset="0.6" stop-color="#FF22F7"/>
<stop offset="1" stop-color="#6300E3"/>
</radialGradient>
<radialGradient id="paint6_radial_1992_15017" cx="0" cy="0" r="1" gradientUnits="userSpaceOnUse" gradientTransform="translate(48.783 1.21949) rotate(180) scale(12.6182 12.6182)">
<stop stop-color="#00FFDD"/>
<stop offset="0.99524" stop-color="#6F27FF"/>
</radialGradient>
<radialGradient id="paint7_radial_1992_15017" cx="0" cy="0" r="1" gradientUnits="userSpaceOnUse" gradientTransform="translate(54.6454 16.9529) rotate(180) scale(13.2634 13.2634)">
<stop stop-color="#00B7FF"/>
<stop offset="0.99524" stop-color="#6F27FF"/>
</radialGradient>
<radialGradient id="paint8_radial_1992_15017" cx="0" cy="0" r="1" gradientUnits="userSpaceOnUse" gradientTransform="translate(56.3507 9.47819) rotate(180) scale(14.8229 14.8229)">
<stop stop-color="#00B7FF"/>
<stop offset="0.99524" stop-color="#6F27FF"/>
</radialGradient>
<radialGradient id="paint9_radial_1992_15017" cx="0" cy="0" r="1" gradientUnits="userSpaceOnUse" gradientTransform="translate(55.8775 5.49742) rotate(180) scale(15.5116 15.5116)">
<stop stop-color="#00B7FF"/>
<stop offset="0.99524" stop-color="#6F27FF"/>
</radialGradient>
<radialGradient id="paint10_radial_1992_15017" cx="0" cy="0" r="1" gradientUnits="userSpaceOnUse" gradientTransform="translate(52.5635 15.5607) rotate(180) scale(11.849 11.849)">
<stop stop-color="#00FFDD"/>
<stop offset="0.99524" stop-color="#6F27FF"/>
</radialGradient>
<radialGradient id="paint11_radial_1992_15017" cx="0" cy="0" r="1" gradientUnits="userSpaceOnUse" gradientTransform="translate(52.3584 12.5496) rotate(180) scale(12.0601 12.0601)">
<stop stop-color="#00FFDD"/>
<stop offset="0.99524" stop-color="#6F27FF"/>
</radialGradient>
<linearGradient id="paint12_linear_1992_15017" x1="11.5078" y1="6.49108" x2="46.1755" y2="6.49108" gradientUnits="userSpaceOnUse">
<stop stop-color="#FFC560"/>
<stop offset="0.00555" stop-color="#FFC661"/>
<stop offset="0.13444" stop-color="#FFD96D"/>
<stop offset="0.22381" stop-color="#FFE071"/>
<stop offset="0.49416" stop-color="#FFFFB3"/>
<stop offset="0.50141" stop-color="#FFF39E"/>
<stop offset="0.51624" stop-color="#FEDE79"/>
<stop offset="0.53177" stop-color="#FECC5A"/>
<stop offset="0.54797" stop-color="#FDBE42"/>
<stop offset="0.56511" stop-color="#FDB531"/>
<stop offset="0.58384" stop-color="#FDAF27"/>
<stop offset="0.60714" stop-color="#FDAD24"/>
<stop offset="0.79234" stop-color="#FD2CB9"/>
<stop offset="0.81905" stop-color="#FD19CF"/>
<stop offset="1" stop-color="#8211AB"/>
</linearGradient>
<radialGradient id="paint13_radial_1992_15017" cx="0" cy="0" r="1" gradientUnits="userSpaceOnUse" gradientTransform="translate(16.9698 0.983683) scale(47.0826 47.0826)">
<stop stop-color="#FFF70E"/>
<stop offset="0.41191" stop-color="#FF36FF"/>
<stop offset="1" stop-color="#0091FF"/>
</radialGradient>
<radialGradient id="paint14_radial_1992_15017" cx="0" cy="0" r="1" gradientUnits="userSpaceOnUse" gradientTransform="translate(17.7931 -1.78559) scale(56.379)">
<stop offset="0.21429" stop-color="#FFBB00"/>
<stop offset="0.46905" stop-color="#F011F0"/>
<stop offset="0.76667" stop-color="#2BA3FF"/>
</radialGradient>
<linearGradient id="paint15_linear_1992_15017" x1="15.1328" y1="31.4722" x2="42.5506" y2="31.4722" gradientUnits="userSpaceOnUse">
<stop stop-color="#BE3AC2"/>
<stop offset="0.2381" stop-color="#9763FF"/>
<stop offset="0.33007" stop-color="#9665FF"/>
<stop offset="0.37359" stop-color="#946DFF"/>
<stop offset="0.40693" stop-color="#907AFF"/>
<stop offset="0.43508" stop-color="#8B8CFF"/>
<stop offset="0.45997" stop-color="#84A4FF"/>
<stop offset="0.48252" stop-color="#7CC1FF"/>
<stop offset="0.50293" stop-color="#72E3FF"/>
<stop offset="0.50584" stop-color="#70E9FF"/>
<stop offset="0.77619" stop-color="#3399FF"/>
<stop offset="0.90312" stop-color="#3992FF"/>
<stop offset="1" stop-color="#4089FF"/>
</linearGradient>
</defs>
</svg>
