<svg width="29" height="28" viewBox="0 0 29 28" fill="none" xmlns="http://www.w3.org/2000/svg">
<mask id="path-1-outside-1_2113_21377" maskUnits="userSpaceOnUse" x="1.5" y="1" width="26" height="26" fill="black">
<rect fill="white" x="1.5" y="1" width="26" height="26"/>
<path fill-rule="evenodd" clip-rule="evenodd" d="M2.7587 2.05702C2.49494 2.19872 2.48022 2.30905 2.51218 3.9055L2.54191 5.39413L11.1486 14.0111L8.06618 17.0941L7.8865 16.9571C7.29491 16.506 6.58274 16.5372 6.08594 17.036C5.79698 17.3261 5.67894 17.6146 5.681 18.0255C5.68295 18.4101 5.86583 18.7332 6.37959 19.2593L6.84913 19.7402L4.57862 22.012L4.26046 22.0449C3.1453 22.1599 2.3348 23.2382 2.53378 24.342C2.81488 25.9016 4.62312 26.5286 5.83919 25.488C6.13697 25.2332 6.41968 24.6713 6.46344 24.2471L6.49632 23.9291L8.76895 21.6594L9.25 22.1287C9.79675 22.6622 10.0969 22.8252 10.5357 22.8271C11.679 22.8318 12.2669 21.5578 11.553 20.6223L11.416 20.4427L14.5001 17.3613L17.5843 20.4427L17.4522 20.6193C17.2061 20.9484 17.1348 21.1517 17.1348 21.5255C17.1348 22.2655 17.7028 22.8299 18.4444 22.8271C18.9054 22.8253 19.1952 22.6703 19.7503 22.1287L20.2314 21.6594L22.5057 23.9308L22.5309 24.2341C22.5646 24.6407 22.8601 25.2304 23.1577 25.485C23.593 25.8576 23.8522 25.9474 24.4947 25.948C25.0384 25.9487 25.0858 25.9388 25.4274 25.7536C25.8353 25.5325 26.0571 25.3047 26.2846 24.8731C26.426 24.6048 26.4419 24.5166 26.4414 24.0021C26.4409 23.5211 26.4197 23.3871 26.3093 23.1641C26.0017 22.5429 25.3987 22.1129 24.7398 22.0449L24.4217 22.012L22.1512 19.7402L22.6207 19.2593C23.1625 18.7045 23.3175 18.4148 23.3193 17.9539C23.3222 17.2126 22.7575 16.6448 22.0173 16.6448C21.6433 16.6448 21.4399 16.716 21.1107 16.9621L20.9341 17.0941L17.8517 14.0111L26.458 5.39413L26.4887 3.9055C26.5111 2.8208 26.501 2.37816 26.4516 2.27424C26.3236 2.00508 26.2075 1.9894 24.6062 2.0249L23.1201 2.05787L14.5001 10.6606L5.87843 2.04471H5.15813C4.76196 2.04471 4.09224 2.03016 3.66983 2.01236C3.08562 1.98779 2.86763 1.99844 2.7587 2.05702ZM3.39314 5.0506L11.7508 13.4096L13.8985 11.2627L5.53655 2.91309L3.31358 2.83236L3.39314 5.0506ZM24.0365 2.88842L23.4637 2.90657L8.65943 17.7025L9.42916 18.4779L10.4325 17.4811C10.9844 16.9328 11.491 16.468 11.5582 16.4482C11.8304 16.3681 12.1423 16.6799 12.0621 16.9519C12.0423 17.0192 11.5773 17.5255 11.0289 18.0772L10.0317 19.0802L10.8074 19.8497L25.6056 5.0506L25.6855 2.84628L25.1474 2.85824C24.8514 2.86483 24.3515 2.8784 24.0365 2.88842ZM16.161 15.7002L15.1025 16.7595L18.1926 19.85L18.9686 19.0802L17.9714 18.0772C17.423 17.5255 16.958 17.0192 16.9382 16.9519C16.8656 16.7056 17.1184 16.4158 17.4061 16.4158C17.4577 16.4158 17.9664 16.8794 18.5363 17.4461L19.5725 18.4765L20.3412 17.7022L18.8092 16.1715C17.9666 15.3296 17.2643 14.6408 17.2484 14.6408C17.2325 14.6408 16.7432 15.1175 16.161 15.7002ZM21.7985 17.5363C21.7016 17.5838 20.8059 18.4414 19.8081 19.442C18.0316 21.2236 17.9939 21.2661 17.9939 21.491C17.9939 21.794 18.1724 21.9695 18.4806 21.9695C18.6946 21.9695 18.7621 21.9098 20.4717 20.2089C21.445 19.2405 22.2947 18.3745 22.3599 18.2843C22.5145 18.0707 22.5047 17.8058 22.3361 17.6432C22.1515 17.465 22.0036 17.4356 21.7985 17.5363ZM6.66339 17.6361C6.57942 17.7255 6.53887 17.8415 6.53887 17.9921C6.53887 18.2093 6.59254 18.2693 8.41647 20.0926C10.2626 21.9381 10.298 21.9695 10.5257 21.9695C10.8318 21.9695 11.0064 21.7921 11.0064 21.481C11.0064 21.2638 10.9527 21.2038 9.12875 19.3805C7.28259 17.535 7.24725 17.5036 7.01953 17.5036C6.85148 17.5036 6.75377 17.54 6.66339 17.6361ZM6.46292 21.3297L5.50041 22.2932L5.70557 22.4319C5.8184 22.5082 5.9794 22.669 6.06331 22.7891L6.21595 23.0075L8.16921 21.055L7.82837 20.7107C7.64091 20.5213 7.47355 20.3664 7.45642 20.3664C7.43935 20.3664 6.99226 20.7999 6.46292 21.3297ZM21.1719 20.7107L20.8311 21.055L22.7849 23.0081L22.9157 22.8172C22.9876 22.7122 23.1475 22.5504 23.271 22.4575L23.4955 22.2888L22.5352 21.3276C22.0071 20.7989 21.5609 20.3664 21.5439 20.3664C21.5267 20.3664 21.3594 20.5213 21.1719 20.7107ZM3.97276 23.0044C3.28666 23.3528 3.1512 24.2543 3.70225 24.8051C4.45794 25.5605 5.68925 24.9921 5.61193 23.9236C5.58518 23.554 5.45367 23.3246 5.12474 23.0738C4.8406 22.8571 4.32409 22.826 3.97276 23.0044ZM24.0354 22.9654C23.839 23.0509 23.5111 23.4016 23.4313 23.6114C23.2688 24.0384 23.4603 24.6709 23.8278 24.9215C24.3338 25.2665 24.8798 25.2233 25.298 24.8051C26.023 24.0805 25.5233 22.88 24.5 22.8878C24.3396 22.8891 24.1305 22.9239 24.0354 22.9654Z"/>
</mask>
<path fill-rule="evenodd" clip-rule="evenodd" d="M2.7587 2.05702C2.49494 2.19872 2.48022 2.30905 2.51218 3.9055L2.54191 5.39413L11.1486 14.0111L8.06618 17.0941L7.8865 16.9571C7.29491 16.506 6.58274 16.5372 6.08594 17.036C5.79698 17.3261 5.67894 17.6146 5.681 18.0255C5.68295 18.4101 5.86583 18.7332 6.37959 19.2593L6.84913 19.7402L4.57862 22.012L4.26046 22.0449C3.1453 22.1599 2.3348 23.2382 2.53378 24.342C2.81488 25.9016 4.62312 26.5286 5.83919 25.488C6.13697 25.2332 6.41968 24.6713 6.46344 24.2471L6.49632 23.9291L8.76895 21.6594L9.25 22.1287C9.79675 22.6622 10.0969 22.8252 10.5357 22.8271C11.679 22.8318 12.2669 21.5578 11.553 20.6223L11.416 20.4427L14.5001 17.3613L17.5843 20.4427L17.4522 20.6193C17.2061 20.9484 17.1348 21.1517 17.1348 21.5255C17.1348 22.2655 17.7028 22.8299 18.4444 22.8271C18.9054 22.8253 19.1952 22.6703 19.7503 22.1287L20.2314 21.6594L22.5057 23.9308L22.5309 24.2341C22.5646 24.6407 22.8601 25.2304 23.1577 25.485C23.593 25.8576 23.8522 25.9474 24.4947 25.948C25.0384 25.9487 25.0858 25.9388 25.4274 25.7536C25.8353 25.5325 26.0571 25.3047 26.2846 24.8731C26.426 24.6048 26.4419 24.5166 26.4414 24.0021C26.4409 23.5211 26.4197 23.3871 26.3093 23.1641C26.0017 22.5429 25.3987 22.1129 24.7398 22.0449L24.4217 22.012L22.1512 19.7402L22.6207 19.2593C23.1625 18.7045 23.3175 18.4148 23.3193 17.9539C23.3222 17.2126 22.7575 16.6448 22.0173 16.6448C21.6433 16.6448 21.4399 16.716 21.1107 16.9621L20.9341 17.0941L17.8517 14.0111L26.458 5.39413L26.4887 3.9055C26.5111 2.8208 26.501 2.37816 26.4516 2.27424C26.3236 2.00508 26.2075 1.9894 24.6062 2.0249L23.1201 2.05787L14.5001 10.6606L5.87843 2.04471H5.15813C4.76196 2.04471 4.09224 2.03016 3.66983 2.01236C3.08562 1.98779 2.86763 1.99844 2.7587 2.05702ZM3.39314 5.0506L11.7508 13.4096L13.8985 11.2627L5.53655 2.91309L3.31358 2.83236L3.39314 5.0506ZM24.0365 2.88842L23.4637 2.90657L8.65943 17.7025L9.42916 18.4779L10.4325 17.4811C10.9844 16.9328 11.491 16.468 11.5582 16.4482C11.8304 16.3681 12.1423 16.6799 12.0621 16.9519C12.0423 17.0192 11.5773 17.5255 11.0289 18.0772L10.0317 19.0802L10.8074 19.8497L25.6056 5.0506L25.6855 2.84628L25.1474 2.85824C24.8514 2.86483 24.3515 2.8784 24.0365 2.88842ZM16.161 15.7002L15.1025 16.7595L18.1926 19.85L18.9686 19.0802L17.9714 18.0772C17.423 17.5255 16.958 17.0192 16.9382 16.9519C16.8656 16.7056 17.1184 16.4158 17.4061 16.4158C17.4577 16.4158 17.9664 16.8794 18.5363 17.4461L19.5725 18.4765L20.3412 17.7022L18.8092 16.1715C17.9666 15.3296 17.2643 14.6408 17.2484 14.6408C17.2325 14.6408 16.7432 15.1175 16.161 15.7002ZM21.7985 17.5363C21.7016 17.5838 20.8059 18.4414 19.8081 19.442C18.0316 21.2236 17.9939 21.2661 17.9939 21.491C17.9939 21.794 18.1724 21.9695 18.4806 21.9695C18.6946 21.9695 18.7621 21.9098 20.4717 20.2089C21.445 19.2405 22.2947 18.3745 22.3599 18.2843C22.5145 18.0707 22.5047 17.8058 22.3361 17.6432C22.1515 17.465 22.0036 17.4356 21.7985 17.5363ZM6.66339 17.6361C6.57942 17.7255 6.53887 17.8415 6.53887 17.9921C6.53887 18.2093 6.59254 18.2693 8.41647 20.0926C10.2626 21.9381 10.298 21.9695 10.5257 21.9695C10.8318 21.9695 11.0064 21.7921 11.0064 21.481C11.0064 21.2638 10.9527 21.2038 9.12875 19.3805C7.28259 17.535 7.24725 17.5036 7.01953 17.5036C6.85148 17.5036 6.75377 17.54 6.66339 17.6361ZM6.46292 21.3297L5.50041 22.2932L5.70557 22.4319C5.8184 22.5082 5.9794 22.669 6.06331 22.7891L6.21595 23.0075L8.16921 21.055L7.82837 20.7107C7.64091 20.5213 7.47355 20.3664 7.45642 20.3664C7.43935 20.3664 6.99226 20.7999 6.46292 21.3297ZM21.1719 20.7107L20.8311 21.055L22.7849 23.0081L22.9157 22.8172C22.9876 22.7122 23.1475 22.5504 23.271 22.4575L23.4955 22.2888L22.5352 21.3276C22.0071 20.7989 21.5609 20.3664 21.5439 20.3664C21.5267 20.3664 21.3594 20.5213 21.1719 20.7107ZM3.97276 23.0044C3.28666 23.3528 3.1512 24.2543 3.70225 24.8051C4.45794 25.5605 5.68925 24.9921 5.61193 23.9236C5.58518 23.554 5.45367 23.3246 5.12474 23.0738C4.8406 22.8571 4.32409 22.826 3.97276 23.0044ZM24.0354 22.9654C23.839 23.0509 23.5111 23.4016 23.4313 23.6114C23.2688 24.0384 23.4603 24.6709 23.8278 24.9215C24.3338 25.2665 24.8798 25.2233 25.298 24.8051C26.023 24.0805 25.5233 22.88 24.5 22.8878C24.3396 22.8891 24.1305 22.9239 24.0354 22.9654Z" fill="#FDEB56"/>
<path fill-rule="evenodd" clip-rule="evenodd" d="M2.7587 2.05702C2.49494 2.19872 2.48022 2.30905 2.51218 3.9055L2.54191 5.39413L11.1486 14.0111L8.06618 17.0941L7.8865 16.9571C7.29491 16.506 6.58274 16.5372 6.08594 17.036C5.79698 17.3261 5.67894 17.6146 5.681 18.0255C5.68295 18.4101 5.86583 18.7332 6.37959 19.2593L6.84913 19.7402L4.57862 22.012L4.26046 22.0449C3.1453 22.1599 2.3348 23.2382 2.53378 24.342C2.81488 25.9016 4.62312 26.5286 5.83919 25.488C6.13697 25.2332 6.41968 24.6713 6.46344 24.2471L6.49632 23.9291L8.76895 21.6594L9.25 22.1287C9.79675 22.6622 10.0969 22.8252 10.5357 22.8271C11.679 22.8318 12.2669 21.5578 11.553 20.6223L11.416 20.4427L14.5001 17.3613L17.5843 20.4427L17.4522 20.6193C17.2061 20.9484 17.1348 21.1517 17.1348 21.5255C17.1348 22.2655 17.7028 22.8299 18.4444 22.8271C18.9054 22.8253 19.1952 22.6703 19.7503 22.1287L20.2314 21.6594L22.5057 23.9308L22.5309 24.2341C22.5646 24.6407 22.8601 25.2304 23.1577 25.485C23.593 25.8576 23.8522 25.9474 24.4947 25.948C25.0384 25.9487 25.0858 25.9388 25.4274 25.7536C25.8353 25.5325 26.0571 25.3047 26.2846 24.8731C26.426 24.6048 26.4419 24.5166 26.4414 24.0021C26.4409 23.5211 26.4197 23.3871 26.3093 23.1641C26.0017 22.5429 25.3987 22.1129 24.7398 22.0449L24.4217 22.012L22.1512 19.7402L22.6207 19.2593C23.1625 18.7045 23.3175 18.4148 23.3193 17.9539C23.3222 17.2126 22.7575 16.6448 22.0173 16.6448C21.6433 16.6448 21.4399 16.716 21.1107 16.9621L20.9341 17.0941L17.8517 14.0111L26.458 5.39413L26.4887 3.9055C26.5111 2.8208 26.501 2.37816 26.4516 2.27424C26.3236 2.00508 26.2075 1.9894 24.6062 2.0249L23.1201 2.05787L14.5001 10.6606L5.87843 2.04471H5.15813C4.76196 2.04471 4.09224 2.03016 3.66983 2.01236C3.08562 1.98779 2.86763 1.99844 2.7587 2.05702ZM3.39314 5.0506L11.7508 13.4096L13.8985 11.2627L5.53655 2.91309L3.31358 2.83236L3.39314 5.0506ZM24.0365 2.88842L23.4637 2.90657L8.65943 17.7025L9.42916 18.4779L10.4325 17.4811C10.9844 16.9328 11.491 16.468 11.5582 16.4482C11.8304 16.3681 12.1423 16.6799 12.0621 16.9519C12.0423 17.0192 11.5773 17.5255 11.0289 18.0772L10.0317 19.0802L10.8074 19.8497L25.6056 5.0506L25.6855 2.84628L25.1474 2.85824C24.8514 2.86483 24.3515 2.8784 24.0365 2.88842ZM16.161 15.7002L15.1025 16.7595L18.1926 19.85L18.9686 19.0802L17.9714 18.0772C17.423 17.5255 16.958 17.0192 16.9382 16.9519C16.8656 16.7056 17.1184 16.4158 17.4061 16.4158C17.4577 16.4158 17.9664 16.8794 18.5363 17.4461L19.5725 18.4765L20.3412 17.7022L18.8092 16.1715C17.9666 15.3296 17.2643 14.6408 17.2484 14.6408C17.2325 14.6408 16.7432 15.1175 16.161 15.7002ZM21.7985 17.5363C21.7016 17.5838 20.8059 18.4414 19.8081 19.442C18.0316 21.2236 17.9939 21.2661 17.9939 21.491C17.9939 21.794 18.1724 21.9695 18.4806 21.9695C18.6946 21.9695 18.7621 21.9098 20.4717 20.2089C21.445 19.2405 22.2947 18.3745 22.3599 18.2843C22.5145 18.0707 22.5047 17.8058 22.3361 17.6432C22.1515 17.465 22.0036 17.4356 21.7985 17.5363ZM6.66339 17.6361C6.57942 17.7255 6.53887 17.8415 6.53887 17.9921C6.53887 18.2093 6.59254 18.2693 8.41647 20.0926C10.2626 21.9381 10.298 21.9695 10.5257 21.9695C10.8318 21.9695 11.0064 21.7921 11.0064 21.481C11.0064 21.2638 10.9527 21.2038 9.12875 19.3805C7.28259 17.535 7.24725 17.5036 7.01953 17.5036C6.85148 17.5036 6.75377 17.54 6.66339 17.6361ZM6.46292 21.3297L5.50041 22.2932L5.70557 22.4319C5.8184 22.5082 5.9794 22.669 6.06331 22.7891L6.21595 23.0075L8.16921 21.055L7.82837 20.7107C7.64091 20.5213 7.47355 20.3664 7.45642 20.3664C7.43935 20.3664 6.99226 20.7999 6.46292 21.3297ZM21.1719 20.7107L20.8311 21.055L22.7849 23.0081L22.9157 22.8172C22.9876 22.7122 23.1475 22.5504 23.271 22.4575L23.4955 22.2888L22.5352 21.3276C22.0071 20.7989 21.5609 20.3664 21.5439 20.3664C21.5267 20.3664 21.3594 20.5213 21.1719 20.7107ZM3.97276 23.0044C3.28666 23.3528 3.1512 24.2543 3.70225 24.8051C4.45794 25.5605 5.68925 24.9921 5.61193 23.9236C5.58518 23.554 5.45367 23.3246 5.12474 23.0738C4.8406 22.8571 4.32409 22.826 3.97276 23.0044ZM24.0354 22.9654C23.839 23.0509 23.5111 23.4016 23.4313 23.6114C23.2688 24.0384 23.4603 24.6709 23.8278 24.9215C24.3338 25.2665 24.8798 25.2233 25.298 24.8051C26.023 24.0805 25.5233 22.88 24.5 22.8878C24.3396 22.8891 24.1305 22.9239 24.0354 22.9654Z" stroke="#FDEB56" stroke-width="0.6" mask="url(#path-1-outside-1_2113_21377)"/>
</svg>
