<svg width="201" height="201" viewBox="0 0 201 201" fill="none" xmlns="http://www.w3.org/2000/svg">
<path d="M100.501 183.833C88.6957 183.833 77.7235 181.715 67.5846 177.479C57.4457 173.243 48.6263 167.375 41.1263 159.875C33.6263 152.375 27.7582 143.556 23.5221 133.417C19.286 123.278 17.168 112.306 17.168 100.5C17.168 88.8334 19.286 77.9306 23.5221 67.7918C27.7582 57.6529 33.6263 48.8334 41.1263 41.3334C48.6263 33.8334 57.4457 27.9306 67.5846 23.6251C77.7235 19.3195 88.6957 17.1667 100.501 17.1667C108.835 17.1667 116.96 18.382 124.876 20.8126C132.793 23.2431 140.224 26.8195 147.168 31.5417C148.696 32.514 149.633 33.8334 149.98 35.5001C150.328 37.1667 149.946 38.6945 148.835 40.0834C147.724 41.4723 146.335 42.2362 144.668 42.3751C143.001 42.514 141.404 42.0973 139.876 41.1251C134.043 37.3751 127.793 34.5279 121.126 32.5834C114.46 30.639 107.585 29.6667 100.501 29.6667C80.3624 29.6667 63.5221 36.4376 49.9805 49.9792C36.4388 63.5209 29.668 80.3612 29.668 100.5C29.668 120.639 36.4388 137.479 49.9805 151.021C63.5221 164.563 80.3624 171.333 100.501 171.333C120.64 171.333 137.48 164.563 151.022 151.021C164.564 137.479 171.335 120.639 171.335 100.5C171.335 97.8612 171.23 95.2917 171.022 92.7917C170.814 90.2917 170.432 87.8612 169.876 85.5001C169.599 83.6945 169.876 82.0279 170.71 80.5001C171.543 78.9723 172.793 78.0695 174.46 77.7918C176.265 77.3751 177.932 77.6876 179.46 78.7293C180.987 79.7709 181.89 81.1945 182.168 83.0001C182.724 85.7779 183.14 88.6251 183.418 91.5417C183.696 94.4584 183.835 97.4445 183.835 100.5C183.835 112.306 181.682 123.278 177.376 133.417C173.071 143.556 167.168 152.375 159.668 159.875C152.168 167.375 143.349 173.243 133.21 177.479C123.071 181.715 112.168 183.833 100.501 183.833ZM88.2096 119.458L169.876 37.7917C171.126 36.5417 172.654 35.9167 174.46 35.9167C176.265 35.9167 177.862 36.5417 179.251 37.7917C180.64 39.1806 181.335 40.7779 181.335 42.5834C181.335 44.389 180.64 45.9862 179.251 47.3751L92.5846 134.042C91.3346 135.292 89.8763 135.917 88.2096 135.917C86.543 135.917 85.0846 135.292 83.8346 134.042L58.418 108.417C57.168 107.167 56.5777 105.604 56.6471 103.729C56.7166 101.854 57.3763 100.292 58.6263 99.0418C59.8763 97.7918 61.4388 97.1667 63.3138 97.1667C65.1888 97.1667 66.7513 97.7918 68.0013 99.0418L88.2096 119.458Z" fill="#1FD031"/>
</svg>
