<svg width="36" height="36" viewBox="0 0 36 36" fill="none" xmlns="http://www.w3.org/2000/svg">
<circle cx="18" cy="18" r="18" fill="#FDEB56" fill-opacity="0.15"/>
<path d="M16.65 21.75L21.525 18.625C21.7583 18.475 21.875 18.2667 21.875 18C21.875 17.7333 21.7583 17.525 21.525 17.375L16.65 14.25C16.4 14.0833 16.1458 14.0708 15.8875 14.2125C15.6292 14.3542 15.5 14.575 15.5 14.875V21.125C15.5 21.425 15.6292 21.6458 15.8875 21.7875C16.1458 21.9292 16.4 21.9167 16.65 21.75ZM18 28C16.6167 28 15.3167 27.7375 14.1 27.2125C12.8833 26.6875 11.825 25.975 10.925 25.075C10.025 24.175 9.3125 23.1167 8.7875 21.9C8.2625 20.6833 8 19.3833 8 18C8 16.6167 8.2625 15.3167 8.7875 14.1C9.3125 12.8833 10.025 11.825 10.925 10.925C11.825 10.025 12.8833 9.3125 14.1 8.7875C15.3167 8.2625 16.6167 8 18 8C19.3833 8 20.6833 8.2625 21.9 8.7875C23.1167 9.3125 24.175 10.025 25.075 10.925C25.975 11.825 26.6875 12.8833 27.2125 14.1C27.7375 15.3167 28 16.6167 28 18C28 19.3833 27.7375 20.6833 27.2125 21.9C26.6875 23.1167 25.975 24.175 25.075 25.075C24.175 25.975 23.1167 26.6875 21.9 27.2125C20.6833 27.7375 19.3833 28 18 28Z" fill="#FDEB56"/>
</svg>
