<svg width="36" height="36" viewBox="0 0 36 36" fill="none" xmlns="http://www.w3.org/2000/svg">
<circle cx="18" cy="18" r="18" fill="#FDEB56" fill-opacity="0.15"/>
<path d="M10.7258 25.75C9.78348 25.75 8.98221 25.4173 8.32196 24.7519C7.66167 24.0865 7.32128 23.2762 7.30078 22.321C7.30078 22.1801 7.30751 22.041 7.32096 21.9038C7.33442 21.7666 7.35782 21.6263 7.39116 21.4827L9.49116 13.0827C9.71002 12.2399 10.1556 11.5571 10.8278 11.0342C11.5 10.5114 12.266 10.25 13.1258 10.25H22.8758C23.7356 10.25 24.5016 10.5114 25.1738 11.0342C25.846 11.5571 26.2915 12.2399 26.5104 13.0827L28.6104 21.4827C28.6437 21.6263 28.6713 21.7708 28.6931 21.9163C28.7148 22.0618 28.7257 22.2051 28.7257 22.346C28.7257 23.3012 28.3889 24.1073 27.7152 24.7644C27.0415 25.4214 26.2285 25.75 25.2764 25.75C24.6209 25.75 24.0155 25.5778 23.4604 25.2336C22.9053 24.8894 22.4841 24.423 22.1969 23.8346L21.4873 22.375C21.3848 22.1666 21.2309 22.0104 21.0258 21.9062C20.8207 21.802 20.604 21.75 20.3758 21.75H15.6258C15.3992 21.75 15.183 21.8012 14.977 21.9038C14.7711 22.0064 14.6168 22.1634 14.5142 22.375L13.8046 23.8346C13.5238 24.4294 13.1037 24.8974 12.5442 25.2384C11.9847 25.5794 11.3785 25.75 10.7258 25.75ZM10.8034 24.25C11.1632 24.25 11.4931 24.1538 11.7931 23.9615C12.0931 23.7692 12.3194 23.5122 12.472 23.1904L13.172 21.7558C13.4022 21.2843 13.7399 20.9154 14.185 20.6493C14.6301 20.3831 15.1104 20.25 15.6258 20.25H20.3758C20.8951 20.25 21.3762 20.3888 21.8191 20.6663C22.262 20.9439 22.6072 21.3102 22.8546 21.7654L23.5546 23.1904C23.7072 23.5122 23.9335 23.7692 24.2335 23.9615C24.5335 24.1538 24.8656 24.25 25.2299 24.25C25.7667 24.25 26.2268 24.0702 26.6103 23.7106C26.9937 23.3509 27.1905 22.9057 27.2008 22.375C27.2008 22.366 27.1809 22.1884 27.1412 21.8423L25.0412 13.4673C24.9117 12.966 24.6479 12.5545 24.2498 12.2327C23.8517 11.9109 23.3937 11.75 22.8758 11.75H13.1258C12.601 11.75 12.1371 11.9109 11.7341 12.2327C11.3311 12.5545 11.0732 12.966 10.9604 13.4673L8.86038 21.8423C8.83346 21.9295 8.81359 22.0987 8.80076 22.35C8.80076 22.8874 8.99723 23.3384 9.39018 23.703C9.78315 24.0677 10.2542 24.25 10.8034 24.25ZM19.5008 16.8846C19.7456 16.8846 19.9543 16.7984 20.1267 16.6259C20.2992 16.4535 20.3854 16.2448 20.3854 16C20.3854 15.7551 20.2992 15.5465 20.1267 15.374C19.9543 15.2016 19.7456 15.1154 19.5008 15.1154C19.2559 15.1154 19.0473 15.2016 18.8748 15.374C18.7024 15.5465 18.6162 15.7551 18.6162 16C18.6162 16.2448 18.7024 16.4535 18.8748 16.6259C19.0473 16.7984 19.2559 16.8846 19.5008 16.8846ZM21.5008 14.8846C21.7456 14.8846 21.9543 14.7984 22.1267 14.6259C22.2992 14.4535 22.3854 14.2448 22.3854 14C22.3854 13.7551 22.2992 13.5465 22.1267 13.374C21.9543 13.2016 21.7456 13.1154 21.5008 13.1154C21.2559 13.1154 21.0473 13.2016 20.8748 13.374C20.7024 13.5465 20.6162 13.7551 20.6162 14C20.6162 14.2448 20.7024 14.4535 20.8748 14.6259C21.0473 14.7984 21.2559 14.8846 21.5008 14.8846ZM21.5008 18.8846C21.7456 18.8846 21.9543 18.7984 22.1267 18.6259C22.2992 18.4535 22.3854 18.2448 22.3854 18C22.3854 17.7551 22.2992 17.5465 22.1267 17.374C21.9543 17.2016 21.7456 17.1154 21.5008 17.1154C21.2559 17.1154 21.0473 17.2016 20.8748 17.374C20.7024 17.5465 20.6162 17.7551 20.6162 18C20.6162 18.2448 20.7024 18.4535 20.8748 18.6259C21.0473 18.7984 21.2559 18.8846 21.5008 18.8846ZM23.5008 16.8846C23.7456 16.8846 23.9543 16.7984 24.1267 16.6259C24.2992 16.4535 24.3854 16.2448 24.3854 16C24.3854 15.7551 24.2992 15.5465 24.1267 15.374C23.9543 15.2016 23.7456 15.1154 23.5008 15.1154C23.2559 15.1154 23.0473 15.2016 22.8748 15.374C22.7024 15.5465 22.6162 15.7551 22.6162 16C22.6162 16.2448 22.7024 16.4535 22.8748 16.6259C23.0473 16.7984 23.2559 16.8846 23.5008 16.8846ZM14.5003 18.3461C14.6724 18.3461 14.8149 18.2898 14.9277 18.1772C15.0405 18.0646 15.0969 17.9222 15.0969 17.75V16.5961H16.2508C16.423 16.5961 16.5654 16.5399 16.678 16.4273C16.7906 16.3148 16.8469 16.1725 16.8469 16.0004C16.8469 15.8283 16.7906 15.6859 16.678 15.5731C16.5654 15.4602 16.423 15.4038 16.2508 15.4038H15.0969V14.25C15.0969 14.0778 15.0407 13.9354 14.9281 13.8228C14.8156 13.7101 14.6733 13.6538 14.5012 13.6538C14.3291 13.6538 14.1867 13.7101 14.0739 13.8228C13.961 13.9354 13.9046 14.0778 13.9046 14.25V15.4038H12.7508C12.5786 15.4038 12.4362 15.4601 12.3236 15.5726C12.2109 15.6851 12.1546 15.8274 12.1546 15.9995C12.1546 16.1716 12.2109 16.3141 12.3236 16.4269C12.4362 16.5397 12.5786 16.5961 12.7508 16.5961H13.9046V17.75C13.9046 17.9222 13.9609 18.0646 14.0734 18.1772C14.1859 18.2898 14.3282 18.3461 14.5003 18.3461Z" fill="#FDEB56"/>
</svg>
