<svg width="32" height="32" viewBox="0 0 32 32" fill="none" xmlns="http://www.w3.org/2000/svg">
<path d="M15.9974 2.66675C12.4612 2.66675 9.06979 4.07151 6.56931 6.57199C4.06882 9.07248 2.66406 12.4639 2.66406 16.0001C2.66406 19.5363 4.06882 22.9277 6.56931 25.4282C9.06979 27.9287 12.4612 29.3334 15.9974 29.3334C19.5336 29.3334 22.925 27.9287 25.4255 25.4282C27.926 22.9277 29.3307 19.5363 29.3307 16.0001C29.3307 12.4639 27.926 9.07248 25.4255 6.57199C22.925 4.07151 19.5336 2.66675 15.9974 2.66675Z" fill="#29B6F6"/>
<path d="M22.6307 9.99992L20.1334 22.7506C20.1334 22.7506 20.0261 23.3333 19.3034 23.3333C18.9194 23.3333 18.7214 23.1506 18.7214 23.1506L13.3121 18.6619L10.6654 17.3279L7.26873 16.4246C7.26873 16.4246 6.66406 16.2499 6.66406 15.7499C6.66406 15.3333 7.28606 15.1346 7.28606 15.1346L21.4967 9.48925C21.4967 9.48925 21.9307 9.33259 22.2474 9.33325C22.4421 9.33325 22.6641 9.41659 22.6641 9.66659C22.6641 9.83325 22.6307 9.99992 22.6307 9.99992Z" fill="white"/>
<path d="M15.3339 20.3366L13.0499 22.586C13.0499 22.586 12.9505 22.6626 12.8179 22.666C12.7719 22.6673 12.7225 22.66 12.6719 22.6373L13.3145 18.6606L15.3339 20.3366Z" fill="#B0BEC5"/>
<path d="M19.9287 12.1306C19.8161 11.9839 19.6081 11.9573 19.4614 12.0686L10.6641 17.3333C10.6641 17.3333 12.0681 21.2613 12.2821 21.9413C12.4967 22.6219 12.6687 22.6379 12.6687 22.6379L13.3114 18.6613L19.8661 12.5973C20.0127 12.4859 20.0401 12.2773 19.9287 12.1306Z" fill="#CFD8DC"/>
</svg>
