<svg width="20" height="21" viewBox="0 0 20 21" fill="none" xmlns="http://www.w3.org/2000/svg">
<path d="M18.4548 2.73826C18.1548 2.48386 17.6836 2.44746 17.1964 2.64306H17.1956C16.6832 2.84866 2.69123 8.85026 2.12163 9.09546C2.01803 9.13146 1.11323 9.46906 1.20643 10.2211C1.28963 10.8991 2.01683 11.1799 2.10563 11.2123L5.66283 12.4303C5.89883 13.2159 6.76883 16.1143 6.96123 16.7335C7.08123 17.1195 7.27683 17.6267 7.61963 17.7311C7.92043 17.8471 8.21963 17.7411 8.41323 17.5891L10.588 15.5719L14.0988 18.3099L14.1824 18.3599C14.4208 18.4655 14.6492 18.5183 14.8672 18.5183C15.0356 18.5183 15.1972 18.4867 15.3516 18.4235C15.8776 18.2075 16.088 17.7063 16.11 17.6495L18.7324 4.01866C18.8924 3.29066 18.67 2.92026 18.4548 2.73826ZM8.80003 12.9175L7.60003 16.1175L6.40003 12.1175L15.6 5.31746L8.80003 12.9175Z" fill="white" fill-opacity="0.5"/>
</svg>
