<svg width="24" height="24" viewBox="0 0 24 24" fill="none" xmlns="http://www.w3.org/2000/svg">
<path d="M22.1458 3.14496C21.7858 2.83968 21.2203 2.796 20.6357 3.03072H20.6347C20.0198 3.27744 3.22944 10.4794 2.54592 10.7736C2.4216 10.8168 1.33584 11.2219 1.44768 12.1243C1.54752 12.9379 2.42016 13.2749 2.52672 13.3138L6.79536 14.7754C7.07856 15.7181 8.12256 19.1962 8.35344 19.9392C8.49744 20.4024 8.73216 21.011 9.14352 21.1363C9.50448 21.2755 9.86352 21.1483 10.0958 20.9659L12.7056 18.5453L16.9186 21.8309L17.0189 21.8909C17.305 22.0176 17.579 22.081 17.8406 22.081C18.0427 22.081 18.2366 22.043 18.4219 21.9672C19.0531 21.708 19.3056 21.1066 19.332 21.0384L22.4789 4.68144C22.6709 3.80784 22.404 3.36336 22.1458 3.14496ZM10.56 15.36L9.12 19.2L7.68 14.4L18.72 6.24L10.56 15.36Z" fill="#29B6F6"/>
</svg>
