<svg width="262" height="440" viewBox="0 0 262 440" fill="none" xmlns="http://www.w3.org/2000/svg">
<g opacity="0.5">
<g style="mix-blend-mode:screen">
<path d="M129.768 434.923C96.635 434.923 65.467 430.388 42.0036 422.154C18.0919 413.762 4.92383 402.422 4.92383 390.222C4.92383 378.023 18.0919 366.682 42.0036 358.291C65.467 350.056 96.635 345.521 129.768 345.521C162.9 345.521 194.069 350.056 217.532 358.291C241.444 366.682 254.612 378.023 254.612 390.222C254.612 402.422 241.444 413.762 217.532 422.154C194.069 430.388 162.9 434.923 129.768 434.923ZM129.768 348.254C96.9357 348.254 66.0877 352.734 42.9081 360.87C20.5048 368.732 7.65598 379.431 7.65598 390.222C7.65598 401.014 20.5048 411.713 42.9081 419.575C66.0878 427.711 96.9357 432.191 129.768 432.191C162.6 432.191 193.448 427.711 216.628 419.575C239.031 411.713 251.88 401.014 251.88 390.222C251.88 379.431 239.031 368.732 216.628 360.87C193.448 352.734 162.6 348.254 129.768 348.254Z" fill="url(#paint0_linear_907_10966)"/>
</g>
<g style="mix-blend-mode:multiply">
<path d="M131.74 434.923C98.6078 434.923 67.4397 430.388 43.9762 422.154C20.0645 413.762 6.89648 402.422 6.89648 390.222C6.89648 378.023 20.0645 366.682 43.9762 358.291C67.4397 350.056 98.6078 345.521 131.74 345.521C164.873 345.521 196.041 350.056 219.505 358.291C243.416 366.682 256.584 378.023 256.584 390.222C256.584 402.422 243.416 413.762 219.505 422.154C196.041 430.388 164.873 434.923 131.74 434.923ZM131.74 348.254C98.9084 348.254 68.0604 352.734 44.8807 360.87C22.4774 368.732 9.62863 379.431 9.62863 390.222C9.62863 401.014 22.4774 411.713 44.8807 419.575C68.0605 427.711 98.9084 432.191 131.74 432.191C164.573 432.191 195.421 427.711 218.6 419.575C241.003 411.713 253.852 401.014 253.852 390.222C253.852 379.431 241.003 368.732 218.6 360.87C195.42 352.734 164.573 348.254 131.74 348.254Z" fill="url(#paint1_linear_907_10966)"/>
</g>
<path d="M130.83 434.923C97.6976 434.923 66.5295 430.388 43.0661 422.154C19.1544 413.762 5.98633 402.422 5.98633 390.222C5.98633 378.023 19.1544 366.682 43.0661 358.291C66.5295 350.056 97.6976 345.521 130.83 345.521C163.963 345.521 195.131 350.056 218.594 358.291C242.506 366.682 255.674 378.023 255.674 390.222C255.674 402.422 242.506 413.762 218.594 422.154C195.131 430.388 163.963 434.923 130.83 434.923ZM130.83 348.254C97.9982 348.254 67.1501 352.734 43.9705 360.87C21.5672 368.732 8.71848 379.431 8.71848 390.222C8.71848 401.014 21.5672 411.713 43.9705 419.575C67.1502 427.711 97.9982 432.191 130.83 432.191C163.662 432.191 194.51 427.711 217.69 419.575C240.093 411.713 252.942 401.014 252.942 390.222C252.942 379.431 240.093 368.732 217.69 360.87C194.51 352.734 163.662 348.254 130.83 348.254Z" fill="url(#paint2_linear_907_10966)"/>
</g>
<g opacity="0.5">
<g style="mix-blend-mode:screen">
<path d="M130.168 416.865C112.437 417.172 94.7741 414.602 77.8664 409.255C63.6167 404.255 55.7695 397.496 55.7695 390.226C55.7695 382.956 63.6167 376.198 77.8664 371.198C111.996 361.051 148.34 361.051 182.469 371.198C196.719 376.198 204.566 382.956 204.566 390.226C204.566 397.496 196.719 404.255 182.469 409.255C165.561 414.602 147.898 417.172 130.168 416.865ZM130.168 365.216C112.621 364.908 95.1398 367.447 78.4054 372.734C65.0546 377.419 57.3977 383.795 57.3977 390.226C57.3977 396.657 65.0546 403.033 78.4054 407.718C112.186 417.743 148.15 417.743 181.93 407.718C195.281 403.033 202.938 396.657 202.938 390.226C202.938 383.795 195.281 377.419 181.93 372.734C165.196 367.447 147.715 364.908 130.168 365.216Z" fill="url(#paint3_linear_907_10966)"/>
</g>
<g style="mix-blend-mode:multiply">
<path d="M131.345 416.865C113.615 417.172 95.9519 414.602 79.0442 409.255C64.7945 404.255 56.9473 397.496 56.9473 390.226C56.9473 382.956 64.7945 376.198 79.0442 371.198C113.174 361.051 149.517 361.051 183.647 371.198C197.896 376.198 205.744 382.956 205.744 390.226C205.744 397.496 197.896 404.255 183.647 409.255C166.739 414.602 149.076 417.172 131.345 416.865ZM131.345 365.216C113.798 364.908 96.3176 367.447 79.5832 372.734C66.2324 377.419 58.5754 383.795 58.5754 390.226C58.5754 396.657 66.2324 403.033 79.5832 407.718C113.363 417.743 149.328 417.743 183.108 407.718C196.459 403.033 204.115 396.657 204.115 390.226C204.115 383.795 196.459 377.419 183.108 372.734C166.373 367.447 148.892 364.908 131.345 365.216Z" fill="url(#paint4_linear_907_10966)"/>
</g>
<path d="M130.801 416.865C113.07 417.172 95.407 414.602 78.4993 409.255C64.2496 404.255 56.4023 397.496 56.4023 390.226C56.4023 382.956 64.2496 376.198 78.4993 371.198C112.629 361.051 148.972 361.051 183.102 371.198C197.351 376.198 205.199 382.956 205.199 390.226C205.199 397.496 197.351 404.255 183.102 409.255C166.194 414.602 148.531 417.172 130.801 416.865ZM130.801 365.216C113.254 364.908 95.7727 367.447 79.0383 372.734C65.6875 377.419 58.0305 383.795 58.0305 390.226C58.0305 396.657 65.6875 403.033 79.0383 407.718C112.818 417.743 148.783 417.743 182.563 407.718C195.914 403.033 203.571 396.657 203.571 390.226C203.571 383.795 195.914 377.419 182.563 372.734C165.828 367.447 148.348 364.908 130.801 365.216Z" fill="url(#paint5_linear_907_10966)"/>
</g>
<path d="M130.832 0.00195312C58.7168 0.00195312 0.255859 9.52335 0.255859 21.2686V73.6348H261.408V21.2686C261.408 9.52335 202.947 0.00195312 130.832 0.00195312Z" fill="url(#paint6_linear_907_10966)"/>
<path d="M130.832 94.9024C202.947 94.9024 261.408 85.381 261.408 73.6358C261.408 61.8905 202.947 52.3691 130.832 52.3691C58.7167 52.3691 0.255859 61.8905 0.255859 73.6358C0.255859 85.381 58.7167 94.9024 130.832 94.9024Z" fill="url(#paint7_linear_907_10966)"/>
<path style="mix-blend-mode:screen" d="M130.832 53.473C202.373 53.473 260.466 62.6007 261.386 73.9153C261.394 73.8222 261.408 73.7293 261.408 73.6358C261.408 61.8905 202.947 52.3691 130.832 52.3691C58.7168 52.3691 0.255859 61.8905 0.255859 73.6358C0.255859 73.7293 0.27024 73.8222 0.277571 73.9153C1.19802 62.6007 59.2908 53.473 130.832 53.473Z" fill="url(#paint8_linear_907_10966)"/>
<path d="M261.407 388.198C262.698 419.955 207.813 437.168 138.119 439.772C59.3733 442.714 -2.62483 416.86 0.254582 388.198V73.6292C4.9645 60.0692 78.3391 52.8433 135.659 53.4824C188.257 54.0689 257.082 60.5246 261.407 73.6292V388.198Z" fill="url(#paint9_linear_907_10966)"/>
<path d="M98.4358 36.9372V21.7441H92.4199V17.3496H109.965V21.7441H103.977V36.9372H98.4358Z" fill="black"/>
<path d="M117.576 36.9372H112.035V17.3496H117.576L117.576 36.9372ZM125.523 29.2974H117.184V24.7087H125.523V29.2974ZM125.131 17.3496H130.67V36.9372H125.131V17.3496Z" fill="black"/>
<path d="M134.588 36.9372V17.3496H140.129V36.9372H134.588Z" fill="black"/>
<path d="M144.072 36.9405V17.3529H153.027C154.614 17.3144 156.192 17.6103 157.657 18.2213C158.884 18.7417 159.93 19.6123 160.665 20.7242C161.393 21.8841 161.763 23.2328 161.729 24.6019C161.779 25.9406 161.415 27.2622 160.686 28.3863C159.958 29.5104 158.9 30.3822 157.657 30.8827C156.189 31.4844 154.612 31.7747 153.027 31.7354H147.151L149.613 29.4135V36.9405H144.072ZM149.613 30.0012L147.151 27.4537H152.691C153.617 27.5256 154.537 27.2569 155.279 26.6981C155.567 26.4335 155.793 26.1083 155.941 25.7458C156.089 25.3834 156.154 24.9927 156.133 24.6019C156.156 24.2062 156.092 23.8103 155.944 23.4425C155.796 23.0747 155.569 22.744 155.279 22.4741C154.537 21.9153 153.617 21.6466 152.691 21.7186H147.151L149.613 19.1737V30.0012ZM156.188 36.9405L151.32 29.8045H157.224L162.12 36.9405H156.188Z" fill="black"/>
<path d="M164.779 36.9401V17.3525H174.042C176.011 17.3107 177.964 17.7228 179.749 18.5567C181.324 19.301 182.658 20.474 183.597 21.9411C184.504 23.5233 184.982 25.3156 184.982 27.1397C184.982 28.9638 184.504 30.7561 183.597 32.3383C182.662 33.8125 181.328 34.9908 179.749 35.7359C177.964 36.5698 176.011 36.9819 174.042 36.9401H164.779ZM170.32 32.5194H173.817C174.828 32.5432 175.83 32.3275 176.742 31.8897C177.559 31.4816 178.236 30.8384 178.686 30.0427C179.146 29.1443 179.386 28.1492 179.386 27.1397C179.386 26.1302 179.146 25.1352 178.686 24.2367C178.233 23.4466 177.557 22.8083 176.742 22.4029C175.83 21.9651 174.828 21.7493 173.817 21.7732H170.32V32.5194Z" fill="black"/>
<defs>
<linearGradient id="paint0_linear_907_10966" x1="63.6514" y1="323.77" x2="195.884" y2="456.675" gradientUnits="userSpaceOnUse">
<stop stop-color="#793832"/>
<stop offset="0.0744" stop-color="#5F292A"/>
<stop offset="0.14576" stop-color="#4D1E25"/>
<stop offset="0.19668" stop-color="#461A23"/>
<stop offset="0.31915" stop-color="#965546"/>
<stop offset="0.43981" stop-color="#C6937A"/>
<stop offset="0.55437" stop-color="#965546"/>
<stop offset="0.66058" stop-color="#602529"/>
<stop offset="0.80424" stop-color="#310E17"/>
<stop offset="0.88389"/>
<stop offset="0.98578" stop-color="#602529"/>
</linearGradient>
<linearGradient id="paint1_linear_907_10966" x1="65.6241" y1="323.77" x2="197.857" y2="456.675" gradientUnits="userSpaceOnUse">
<stop stop-color="#793832"/>
<stop offset="0.0744" stop-color="#5F292A"/>
<stop offset="0.14576" stop-color="#4D1E25"/>
<stop offset="0.19668" stop-color="#461A23"/>
<stop offset="0.31915" stop-color="#965546"/>
<stop offset="0.43981" stop-color="#C6937A"/>
<stop offset="0.55437" stop-color="#965546"/>
<stop offset="0.66058" stop-color="#602529"/>
<stop offset="0.80424" stop-color="#310E17"/>
<stop offset="0.88389"/>
<stop offset="0.98578" stop-color="#602529"/>
</linearGradient>
<linearGradient id="paint2_linear_907_10966" x1="64.7139" y1="323.77" x2="196.947" y2="456.675" gradientUnits="userSpaceOnUse">
<stop stop-color="#793832"/>
<stop offset="0.0744" stop-color="#5F292A"/>
<stop offset="0.14576" stop-color="#4D1E25"/>
<stop offset="0.19668" stop-color="#461A23"/>
<stop offset="0.31915" stop-color="#965546"/>
<stop offset="0.43981" stop-color="#C6937A"/>
<stop offset="0.55437" stop-color="#965546"/>
<stop offset="0.66058" stop-color="#602529"/>
<stop offset="0.80424" stop-color="#310E17"/>
<stop offset="0.88389"/>
<stop offset="0.98578" stop-color="#602529"/>
</linearGradient>
<linearGradient id="paint3_linear_907_10966" x1="90.767" y1="350.625" x2="169.568" y2="429.828" gradientUnits="userSpaceOnUse">
<stop stop-color="#793832"/>
<stop offset="0.0744" stop-color="#5F292A"/>
<stop offset="0.14576" stop-color="#4D1E25"/>
<stop offset="0.19668" stop-color="#461A23"/>
<stop offset="0.31915" stop-color="#965546"/>
<stop offset="0.43981" stop-color="#C6937A"/>
<stop offset="0.55437" stop-color="#965546"/>
<stop offset="0.66058" stop-color="#602529"/>
<stop offset="0.80424" stop-color="#310E17"/>
<stop offset="0.88389"/>
<stop offset="0.98578" stop-color="#602529"/>
</linearGradient>
<linearGradient id="paint4_linear_907_10966" x1="91.9448" y1="350.625" x2="170.746" y2="429.828" gradientUnits="userSpaceOnUse">
<stop stop-color="#793832"/>
<stop offset="0.0744" stop-color="#5F292A"/>
<stop offset="0.14576" stop-color="#4D1E25"/>
<stop offset="0.19668" stop-color="#461A23"/>
<stop offset="0.31915" stop-color="#965546"/>
<stop offset="0.43981" stop-color="#C6937A"/>
<stop offset="0.55437" stop-color="#965546"/>
<stop offset="0.66058" stop-color="#602529"/>
<stop offset="0.80424" stop-color="#310E17"/>
<stop offset="0.88389"/>
<stop offset="0.98578" stop-color="#602529"/>
</linearGradient>
<linearGradient id="paint5_linear_907_10966" x1="91.3998" y1="350.625" x2="170.201" y2="429.828" gradientUnits="userSpaceOnUse">
<stop stop-color="#793832"/>
<stop offset="0.0744" stop-color="#5F292A"/>
<stop offset="0.14576" stop-color="#4D1E25"/>
<stop offset="0.19668" stop-color="#461A23"/>
<stop offset="0.31915" stop-color="#965546"/>
<stop offset="0.43981" stop-color="#C6937A"/>
<stop offset="0.55437" stop-color="#965546"/>
<stop offset="0.66058" stop-color="#602529"/>
<stop offset="0.80424" stop-color="#310E17"/>
<stop offset="0.88389"/>
<stop offset="0.98578" stop-color="#602529"/>
</linearGradient>
<linearGradient id="paint6_linear_907_10966" x1="0.255859" y1="36.8184" x2="261.408" y2="36.8184" gradientUnits="userSpaceOnUse">
<stop stop-color="#9D6654"/>
<stop offset="0.0744" stop-color="#874C41"/>
<stop offset="0.14576" stop-color="#773A34"/>
<stop offset="0.19668" stop-color="#72332F"/>
<stop offset="0.31915" stop-color="#BA8974"/>
<stop offset="0.43981" stop-color="#DEC0AB"/>
<stop offset="0.55437" stop-color="#BA8974"/>
<stop offset="0.66058" stop-color="#824638"/>
<stop offset="0.80424" stop-color="#602827"/>
<stop offset="0.88389" stop-color="#2B0B14"/>
<stop offset="0.98578" stop-color="#824638"/>
</linearGradient>
<linearGradient id="paint7_linear_907_10966" x1="11.0469" y1="-70.86" x2="184.69" y2="138.605" gradientUnits="userSpaceOnUse">
<stop stop-color="#9D6654"/>
<stop offset="0.16364" stop-color="#874C41"/>
<stop offset="0.32057" stop-color="#773A34"/>
<stop offset="0.43258" stop-color="#72332F"/>
<stop offset="0.55437" stop-color="#BA8974"/>
<stop offset="0.66058" stop-color="#824638"/>
<stop offset="0.80424" stop-color="#602827"/>
<stop offset="0.88389" stop-color="#2B0B14"/>
<stop offset="0.98578" stop-color="#824638"/>
</linearGradient>
<linearGradient id="paint8_linear_907_10966" x1="0.25589" y1="63.1422" x2="261.408" y2="63.1422" gradientUnits="userSpaceOnUse">
<stop stop-color="#9D6654"/>
<stop offset="0.0744" stop-color="#874C41"/>
<stop offset="0.14576" stop-color="#773A34"/>
<stop offset="0.19668" stop-color="#72332F"/>
<stop offset="0.31915" stop-color="#BA8974"/>
<stop offset="0.43981" stop-color="#DEC0AB"/>
<stop offset="0.55437" stop-color="#BA8974"/>
<stop offset="0.66058" stop-color="#824638"/>
<stop offset="0.80424" stop-color="#602827"/>
<stop offset="0.88389" stop-color="#2B0B14"/>
<stop offset="0.98578" stop-color="#824638"/>
</linearGradient>
<linearGradient id="paint9_linear_907_10966" x1="130.794" y1="53.4434" x2="130.794" y2="440.001" gradientUnits="userSpaceOnUse">
<stop stop-color="#773688" stop-opacity="0"/>
<stop offset="1" stop-color="#BC5AD7" stop-opacity="0.8"/>
</linearGradient>
</defs>
</svg>
