<svg width="24" height="24" viewBox="0 0 24 24" fill="none" xmlns="http://www.w3.org/2000/svg">
<g id="thumb_up_FILL1_wght400_GRAD0_opsz48 1">
<path id="Vector" d="M7.85 21C7.43333 21 7.07917 20.8542 6.7875 20.5625C6.49583 20.2708 6.35 19.9167 6.35 19.5V8.8C6.35 8.61666 6.3875 8.43333 6.4625 8.25C6.5375 8.06666 6.64167 7.90833 6.775 7.775L11.95 2.325C12.1833 2.09166 12.4625 1.95 12.7875 1.9C13.1125 1.85 13.4167 1.90833 13.7 2.075C13.9833 2.24166 14.1958 2.475 14.3375 2.775C14.4792 3.075 14.5167 3.38333 14.45 3.7L13.5 8.2H21.5C21.8833 8.2 22.2292 8.35416 22.5375 8.6625C22.8458 8.97083 23 9.31666 23 9.7V11.75C23 11.9333 22.9792 12.1458 22.9375 12.3875C22.8958 12.6292 22.8333 12.8417 22.75 13.025L19.85 19.725C19.7 20.075 19.4542 20.375 19.1125 20.625C18.7708 20.875 18.4083 21 18.025 21H7.85ZM3.425 21C3.04167 21 2.70833 20.8583 2.425 20.575C2.14167 20.2917 2 19.9583 2 19.575V9.625C2 9.24166 2.14167 8.90833 2.425 8.625C2.70833 8.34166 3.04167 8.2 3.425 8.2C3.80833 8.2 4.14167 8.34166 4.425 8.625C4.70833 8.90833 4.85 9.24166 4.85 9.625V19.575C4.85 19.9583 4.70833 20.2917 4.425 20.575C4.14167 20.8583 3.80833 21 3.425 21Z" fill="#BEB6C0"/>
</g>
</svg>
