<svg width="29" height="20" viewBox="0 0 29 20" fill="none" xmlns="http://www.w3.org/2000/svg">
<path fill-rule="evenodd" clip-rule="evenodd" d="M18.1564 8.78258C18.0435 8.89219 17.8904 8.95483 17.7292 8.95483C17.1328 8.95483 16.6493 9.42459 16.6493 9.99613C16.6493 10.5716 17.1272 11.039 17.7179 11.0453C18.0508 11.0484 18.3337 11.2739 18.3337 11.5972V13.6054C18.3337 15.2958 16.9233 16.6667 15.1825 16.6667H12.5551C12.2835 16.6667 12.0635 16.453 12.0635 16.1891V14.498C12.0635 14.1692 11.7976 13.9108 11.4591 13.9108C11.1286 13.9108 10.8546 14.1692 10.8546 14.498V16.1891C10.8546 16.453 10.6346 16.6667 10.3638 16.6667H4.81818C3.08543 16.6667 1.66699 15.2966 1.66699 13.6054V11.5972C1.66699 11.2739 1.94987 11.0484 2.28272 11.0453C2.87428 11.039 3.35139 10.5716 3.35139 9.99613C3.35139 9.44024 2.88395 9.01746 2.27144 9.01746C2.11025 9.01746 1.95713 8.95483 1.8443 8.84522C1.73147 8.73561 1.66699 8.58685 1.66699 8.43026V6.40247C1.66699 4.71447 3.08866 3.33337 4.82624 3.33337H10.3638C10.6346 3.33337 10.8546 3.54711 10.8546 3.81096V5.81527C10.8546 6.13627 11.1286 6.40247 11.4591 6.40247C11.7976 6.40247 12.0635 6.13627 12.0635 5.81527V3.81096C12.0635 3.54711 12.2835 3.33337 12.5551 3.33337H15.1825C16.9233 3.33337 18.3337 4.70351 18.3337 6.39464V8.36763C18.3337 8.52421 18.2692 8.67297 18.1564 8.78258ZM11.4588 12.3919C11.7973 12.3919 12.0633 12.1257 12.0633 11.8047V8.67295C12.0633 8.35194 11.7973 8.08575 11.4588 8.08575C11.1284 8.08575 10.8544 8.35194 10.8544 8.67295V11.8047C10.8544 12.1257 11.1284 12.3919 11.4588 12.3919Z" fill="#BC5AD7"/>
<line x1="28.5" y1="2" x2="28.5" y2="18" stroke="white" stroke-opacity="0.08"/>
</svg>
