<svg width="20" height="20" viewBox="0 0 20 20" fill="none" xmlns="http://www.w3.org/2000/svg">
<path fill-rule="evenodd" clip-rule="evenodd" d="M14.8812 17.0143C16.442 17.0143 17.7078 15.7493 17.7087 14.1885V14.1868V11.9368C16.6778 11.9368 15.8428 11.1018 15.842 10.071C15.842 9.04096 16.677 8.20512 17.7078 8.20512H17.7087V5.95512C17.7103 4.39346 16.4462 3.12679 14.8853 3.12512H14.8803H5.12033C3.55866 3.12512 2.29283 4.39012 2.29199 5.95179V5.95262V8.27762C3.28699 8.24262 4.12116 9.02096 4.15616 10.016C4.15699 10.0343 4.15783 10.0526 4.15783 10.071C4.15866 11.1001 3.32616 11.9351 2.29699 11.9368H2.29199V14.1868C2.29116 15.7476 3.55699 17.0143 5.11783 17.0143H5.11866H14.8812Z" stroke="#FDEB56" stroke-width="1.5" stroke-linecap="round" stroke-linejoin="round"/>
</svg>
