<svg xmlns="http://www.w3.org/2000/svg" width="18" height="18" viewBox="0 0 18 18" fill="none">
  <path d="M7.89375 10.7063L6.05625 8.86875C5.94375 8.75625 5.80625 8.7 5.64375 8.7C5.48125 8.7 5.3375 8.7625 5.2125 8.8875C5.1 9 5.04375 9.1375 5.04375 9.3C5.04375 9.4625 5.1 9.6 5.2125 9.7125L7.5 12.0188C7.6125 12.1313 7.74375 12.1875 7.89375 12.1875C8.04375 12.1875 8.175 12.1313 8.2875 12.0188L12.7688 7.5375C12.8938 7.4125 12.9563 7.26875 12.9563 7.10625C12.9563 6.94375 12.8938 6.8 12.7688 6.675C12.6438 6.5625 12.4969 6.50938 12.3281 6.51562C12.1594 6.52188 12.0188 6.58125 11.9062 6.69375L7.89375 10.7063ZM9 16.5C7.975 16.5 7.00625 16.3031 6.09375 15.9094C5.18125 15.5156 4.38438 14.9781 3.70312 14.2969C3.02188 13.6156 2.48438 12.8188 2.09063 11.9062C1.69688 10.9938 1.5 10.025 1.5 9C1.5 7.9625 1.69688 6.9875 2.09063 6.075C2.48438 5.1625 3.02188 4.36875 3.70312 3.69375C4.38438 3.01875 5.18125 2.48438 6.09375 2.09063C7.00625 1.69688 7.975 1.5 9 1.5C10.0375 1.5 11.0125 1.69688 11.925 2.09063C12.8375 2.48438 13.6313 3.01875 14.3063 3.69375C14.9813 4.36875 15.5156 5.1625 15.9094 6.075C16.3031 6.9875 16.5 7.9625 16.5 9C16.5 10.025 16.3031 10.9938 15.9094 11.9062C15.5156 12.8188 14.9813 13.6156 14.3063 14.2969C13.6313 14.9781 12.8375 15.5156 11.925 15.9094C11.0125 16.3031 10.0375 16.5 9 16.5Z" fill="#FDEB56"/>
</svg>