<svg width="24" height="24" viewBox="0 0 24 24" fill="none" xmlns="http://www.w3.org/2000/svg">
<g id="Iconly/Light/Ticket Star">
<g id="Ticket Star">
<path id="Stroke 1" fill-rule="evenodd" clip-rule="evenodd" d="M17.857 20.417C19.73 20.417 21.249 18.899 21.25 17.026V17.024V14.324C20.013 14.324 19.011 13.322 19.01 12.085C19.01 10.849 20.012 9.846 21.249 9.846H21.25V7.146C21.252 5.272 19.735 3.752 17.862 3.75H17.856H6.144C4.27 3.75 2.751 5.268 2.75 7.142V7.143V9.933C3.944 9.891 4.945 10.825 4.987 12.019C4.988 12.041 4.989 12.063 4.989 12.085C4.99 13.32 3.991 14.322 2.756 14.324H2.75V17.024C2.749 18.897 4.268 20.417 6.141 20.417H6.142H17.857Z" stroke="#A99FAC" stroke-width="1.5" stroke-linecap="round" stroke-linejoin="round"/>
</g>
</g>
</svg>
