<svg width="24" height="24" viewBox="0 0 24 24" fill="none" xmlns="http://www.w3.org/2000/svg">
<g id="Iconly/Light/Ticket Star">
<g id="Ticket Star">
<path id="Stroke 1" fill-rule="evenodd" clip-rule="evenodd" d="M17.8572 20.4171C19.7302 20.4171 21.2492 18.8991 21.2502 17.0261V17.0241V14.3241C20.0132 14.3241 19.0112 13.3221 19.0102 12.0851C19.0102 10.8491 20.0122 9.84612 21.2492 9.84612H21.2502V7.14612C21.2522 5.27212 19.7352 3.75212 17.8622 3.75012H17.8562H6.14418C4.27018 3.75012 2.75118 5.26812 2.75018 7.14212V7.14312V9.93312C3.94418 9.89112 4.94518 10.8251 4.98718 12.0191C4.98818 12.0411 4.98918 12.0631 4.98918 12.0851C4.99018 13.3201 3.99118 14.3221 2.75618 14.3241H2.75018V17.0241C2.74918 18.8971 4.26818 20.4171 6.14118 20.4171H6.14218H17.8572Z" stroke="#BEB6C0" stroke-width="1.5" stroke-linecap="round" stroke-linejoin="round"/>
</g>
</g>
</svg>
