<svg xmlns="http://www.w3.org/2000/svg" width="28" height="28" viewBox="0 0 28 28" fill="none">
  <path d="M14.0007 25.6666C12.3479 25.6666 10.8118 25.3701 9.39232 24.7771C7.97287 24.184 6.73815 23.3625 5.68815 22.3125C4.63815 21.2625 3.81662 20.0278 3.22357 18.6083C2.63051 17.1889 2.33398 15.6528 2.33398 14C2.33398 12.3666 2.63051 10.8403 3.22357 9.42081C3.81662 8.00137 4.63815 6.76665 5.68815 5.71665C6.73815 4.66665 7.97287 3.84026 9.39232 3.23748C10.8118 2.6347 12.3479 2.33331 14.0007 2.33331C15.1673 2.33331 16.3048 2.50345 17.4132 2.84373C18.5215 3.18401 19.5618 3.6847 20.534 4.34581C20.7479 4.48192 20.8791 4.66665 20.9277 4.89998C20.9763 5.13331 20.9229 5.3472 20.7673 5.54165C20.6118 5.73609 20.4173 5.84304 20.184 5.86248C19.9507 5.88192 19.727 5.82359 19.5132 5.68748C18.6965 5.16248 17.8215 4.76387 16.8882 4.49165C15.9548 4.21942 14.9923 4.08331 14.0007 4.08331C11.1812 4.08331 8.82357 5.03123 6.92773 6.92706C5.0319 8.8229 4.08398 11.1805 4.08398 14C4.08398 16.8194 5.0319 19.1771 6.92773 21.0729C8.82357 22.9687 11.1812 23.9166 14.0007 23.9166C16.8201 23.9166 19.1777 22.9687 21.0736 21.0729C22.9694 19.1771 23.9173 16.8194 23.9173 14C23.9173 13.6305 23.9027 13.2708 23.8736 12.9208C23.8444 12.5708 23.7909 12.2305 23.7132 11.9C23.6743 11.6472 23.7132 11.4139 23.8298 11.2C23.9465 10.9861 24.1215 10.8597 24.3548 10.8208C24.6076 10.7625 24.8409 10.8062 25.0548 10.9521C25.2687 11.0979 25.3951 11.2972 25.434 11.55C25.5118 11.9389 25.5701 12.3375 25.609 12.7458C25.6479 13.1541 25.6673 13.5722 25.6673 14C25.6673 15.6528 25.3659 17.1889 24.7632 18.6083C24.1604 20.0278 23.334 21.2625 22.284 22.3125C21.234 23.3625 19.9993 24.184 18.5798 24.7771C17.1604 25.3701 15.634 25.6666 14.0007 25.6666ZM12.2798 16.6541L23.7132 5.22081C23.8882 5.04581 24.102 4.95831 24.3548 4.95831C24.6076 4.95831 24.8312 5.04581 25.0257 5.22081C25.2201 5.41526 25.3173 5.63887 25.3173 5.89165C25.3173 6.14442 25.2201 6.36804 25.0257 6.56248L12.8923 18.6958C12.7173 18.8708 12.5132 18.9583 12.2798 18.9583C12.0465 18.9583 11.8423 18.8708 11.6673 18.6958L8.10898 15.1083C7.93398 14.9333 7.85135 14.7146 7.86107 14.4521C7.87079 14.1896 7.96315 13.9708 8.13815 13.7958C8.31315 13.6208 8.5319 13.5333 8.7944 13.5333C9.0569 13.5333 9.27565 13.6208 9.45065 13.7958L12.2798 16.6541Z" fill="#1FD031"/>
</svg>