<svg width="20" height="20" viewBox="0 0 20 20" fill="none" xmlns="http://www.w3.org/2000/svg">
<path d="M8.33333 2.50004C8.09722 2.50004 7.89931 2.42018 7.73958 2.26046C7.57986 2.10074 7.5 1.90282 7.5 1.66671C7.5 1.4306 7.57986 1.23268 7.73958 1.07296C7.89931 0.913235 8.09722 0.833374 8.33333 0.833374H11.6667C11.9028 0.833374 12.1007 0.913235 12.2604 1.07296C12.4201 1.23268 12.5 1.4306 12.5 1.66671C12.5 1.90282 12.4201 2.10074 12.2604 2.26046C12.1007 2.42018 11.9028 2.50004 11.6667 2.50004H8.33333ZM10 11.6667C10.2361 11.6667 10.434 11.5868 10.5938 11.4271C10.7535 11.2674 10.8333 11.0695 10.8333 10.8334V7.50004C10.8333 7.26393 10.7535 7.06601 10.5938 6.90629C10.434 6.74657 10.2361 6.66671 10 6.66671C9.76389 6.66671 9.56597 6.74657 9.40625 6.90629C9.24653 7.06601 9.16667 7.26393 9.16667 7.50004V10.8334C9.16667 11.0695 9.24653 11.2674 9.40625 11.4271C9.56597 11.5868 9.76389 11.6667 10 11.6667ZM10 18.3334C8.97222 18.3334 8.00347 18.1355 7.09375 17.7396C6.18403 17.3438 5.38889 16.8056 4.70833 16.125C4.02778 15.4445 3.48958 14.6493 3.09375 13.7396C2.69792 12.8299 2.5 11.8612 2.5 10.8334C2.5 9.8056 2.69792 8.83685 3.09375 7.92712C3.48958 7.0174 4.02778 6.22226 4.70833 5.54171C5.38889 4.86115 6.18403 4.32296 7.09375 3.92712C8.00347 3.53129 8.97222 3.33337 10 3.33337C10.8611 3.33337 11.6875 3.47226 12.4792 3.75004C13.2708 4.02782 14.0139 4.4306 14.7083 4.95837L15.2917 4.37504C15.4444 4.22226 15.6389 4.14587 15.875 4.14587C16.1111 4.14587 16.3056 4.22226 16.4583 4.37504C16.6111 4.52782 16.6875 4.72226 16.6875 4.95837C16.6875 5.19449 16.6111 5.38893 16.4583 5.54171L15.875 6.12504C16.4028 6.81949 16.8056 7.56254 17.0833 8.35421C17.3611 9.14587 17.5 9.97226 17.5 10.8334C17.5 11.8612 17.3021 12.8299 16.9062 13.7396C16.5104 14.6493 15.9722 15.4445 15.2917 16.125C14.6111 16.8056 13.816 17.3438 12.9062 17.7396C11.9965 18.1355 11.0278 18.3334 10 18.3334ZM10 16.6667C11.6111 16.6667 12.9861 16.0973 14.125 14.9584C15.2639 13.8195 15.8333 12.4445 15.8333 10.8334C15.8333 9.22226 15.2639 7.84726 14.125 6.70837C12.9861 5.56949 11.6111 5.00004 10 5.00004C8.38889 5.00004 7.01389 5.56949 5.875 6.70837C4.73611 7.84726 4.16667 9.22226 4.16667 10.8334C4.16667 12.4445 4.73611 13.8195 5.875 14.9584C7.01389 16.0973 8.38889 16.6667 10 16.6667Z" fill="#948798"/>
</svg>
