<svg width="52" height="40" viewBox="0 0 52 40" fill="none" xmlns="http://www.w3.org/2000/svg">
<g clip-path="url(#clip0_457_22341)">
<path d="M8.81266 16.4666H4.60363C3.38267 16.4666 2.21173 15.9877 1.34838 15.1353C0.485034 14.2828 0 13.1267 0 11.9211H8.81266V16.4666Z" fill="#FF7B34"/>
<path d="M8.81313 21.012H5.65636C4.4354 21.012 3.26446 20.5331 2.40112 19.6807C1.53777 18.8282 1.05273 17.6721 1.05273 16.4666H8.81313V21.012Z" fill="#FF9700"/>
<path d="M8.81263 25.5575H7.23424C6.01328 25.5575 4.84234 25.0787 3.979 24.2262C3.11565 23.3738 2.63062 22.2176 2.63062 21.0121H8.81263V25.5575Z" fill="#F5C05B"/>
<path d="M8.28737 25.5575H8.8135V11.9211H6.70898L8.28737 25.5575Z" fill="#433959"/>
<path d="M42.2344 16.4666H46.4434C47.6644 16.4666 48.8353 15.9877 49.6986 15.1353C50.562 14.2828 51.047 13.1267 51.047 11.9211H42.2344V16.4666Z" fill="#FF7B34"/>
<path d="M42.2344 21.012H45.3911C46.6121 21.012 47.783 20.5331 48.6464 19.6807C49.5097 18.8282 49.9948 17.6721 49.9948 16.4666H42.2344V21.012Z" fill="#FF9700"/>
<path d="M42.2344 25.5574H43.8128C45.0337 25.5574 46.2047 25.0785 47.068 24.2261C47.9314 23.3737 48.4164 22.2175 48.4164 21.012H42.2344V25.5574Z" fill="#F5C05B"/>
<path d="M42.7605 25.5575H42.2344V11.9211H44.3389L42.7605 25.5575Z" fill="#433959"/>
<path d="M40.8492 28.487V11.0161L25.5252 2.28052L10.2012 11.0161V28.487L25.5252 37.2226L40.8492 28.487Z" fill="#F4AF3E"/>
<path d="M25.5249 39.4045L8.28711 29.5781V9.92518L25.5249 0.0986328L42.7628 9.92518V29.5781L25.5249 39.4045ZM12.1148 27.3961L25.5249 35.0406L38.9351 27.3961V12.1071L25.5249 4.46258L12.1148 12.1071V27.3961Z" fill="#FF9700"/>
<path d="M25.5249 0.0986328V4.46253L12.1147 12.1072L8.28711 9.92513L25.5249 0.0986328Z" fill="#FF7B34"/>
<path d="M42.7632 29.5783L38.9356 27.3962L25.5254 35.0407V39.4046L42.7632 29.5783Z" fill="#FF7B34"/>
<path d="M8.28711 29.5783L12.1147 27.3962L25.5249 35.0407V39.4046L8.28711 29.5783Z" fill="#F5C05B"/>
<path d="M25.5254 0.0986328V4.46253L38.9356 12.1072L42.7632 9.92513L25.5254 0.0986328Z" fill="#F5C05B"/>
</g>
<defs>
<clipPath id="clip0_457_22341">
<rect width="51.0345" height="40" fill="white"/>
</clipPath>
</defs>
</svg>
