<svg width="34" height="34" viewBox="0 0 34 34" fill="none" xmlns="http://www.w3.org/2000/svg">
<circle cx="17" cy="17" r="17" fill="#1FD031"/>
<path d="M23.8711 15.7128C25.4986 15.4842 26.7516 14.0888 26.7551 12.3983C26.7551 10.7323 25.5406 9.35099 23.9481 9.08966" stroke="#3D2644" stroke-width="2" stroke-linecap="round" stroke-linejoin="round"/>
<path d="M26.0195 19.6254C27.5957 19.861 28.6959 20.4129 28.6959 21.5504C28.6959 22.3332 28.1779 22.8419 27.3402 23.1615" stroke="#3D2644" stroke-width="2" stroke-linecap="round" stroke-linejoin="round"/>
<path fill-rule="evenodd" clip-rule="evenodd" d="M16.8701 20.1078C13.1205 20.1078 9.91797 20.6759 9.91797 22.9451C9.91797 25.2131 13.1006 25.7976 16.8701 25.7976C20.6198 25.7976 23.8211 25.2353 23.8211 22.9649C23.8211 20.6946 20.6396 20.1078 16.8701 20.1078Z" stroke="#3D2644" stroke-width="2" stroke-linecap="round" stroke-linejoin="round"/>
<path fill-rule="evenodd" clip-rule="evenodd" d="M16.8696 16.8692C19.3301 16.8692 21.3251 14.8754 21.3251 12.4137C21.3251 9.95322 19.3301 7.95822 16.8696 7.95822C14.4091 7.95822 12.4141 9.95322 12.4141 12.4137C12.4048 14.8661 14.3846 16.8611 16.8369 16.8692H16.8696Z" stroke="#3D2644" stroke-width="2" stroke-linecap="round" stroke-linejoin="round"/>
<path d="M9.86837 15.7128C8.23971 15.4842 6.98787 14.0888 6.98438 12.3983C6.98438 10.7323 8.19887 9.35099 9.79137 9.08966" stroke="#3D2644" stroke-width="2" stroke-linecap="round" stroke-linejoin="round"/>
<path d="M7.7193 19.6254C6.14314 19.861 5.04297 20.4129 5.04297 21.5504C5.04297 22.3332 5.56097 22.8419 6.39864 23.1615" stroke="#3D2644" stroke-width="2" stroke-linecap="round" stroke-linejoin="round"/>
</svg>
