<svg width="201" height="200" viewBox="0 0 201 200" fill="none" xmlns="http://www.w3.org/2000/svg">
<g id="task_alt_FILL1_wght400_GRAD0_opsz48 1">
<path id="Vector" d="M100.501 183.333C88.6957 183.333 77.7235 181.215 67.5846 176.979C57.4457 172.743 48.6263 166.875 41.1263 159.375C33.6263 151.875 27.7582 143.056 23.5221 132.917C19.286 122.778 17.168 111.806 17.168 100C17.168 88.3333 19.286 77.4305 23.5221 67.2916C27.7582 57.1527 33.6263 48.3333 41.1263 40.8333C48.6263 33.3333 57.4457 27.4305 67.5846 23.125C77.7235 18.8194 88.6957 16.6666 100.501 16.6666C108.835 16.6666 116.96 17.8819 124.876 20.3125C132.793 22.743 140.224 26.3194 147.168 31.0416C148.696 32.0138 149.633 33.3333 149.98 35C150.328 36.6666 149.946 38.1944 148.835 39.5833C147.724 40.9722 146.335 41.7361 144.668 41.875C143.001 42.0138 141.404 41.5972 139.876 40.625C134.043 36.875 127.793 34.0277 121.126 32.0833C114.46 30.1388 107.585 29.1666 100.501 29.1666C80.3624 29.1666 63.5221 35.9375 49.9805 49.4791C36.4388 63.0208 29.668 79.8611 29.668 100C29.668 120.139 36.4388 136.979 49.9805 150.521C63.5221 164.062 80.3624 170.833 100.501 170.833C120.64 170.833 137.48 164.062 151.022 150.521C164.564 136.979 171.335 120.139 171.335 100C171.335 97.3611 171.23 94.7916 171.022 92.2916C170.814 89.7916 170.432 87.3611 169.876 85C169.599 83.1944 169.876 81.5277 170.71 80C171.543 78.4722 172.793 77.5694 174.46 77.2916C176.265 76.875 177.932 77.1875 179.46 78.2291C180.987 79.2708 181.89 80.6944 182.168 82.5C182.724 85.2777 183.14 88.125 183.418 91.0416C183.696 93.9583 183.835 96.9444 183.835 100C183.835 111.806 181.682 122.778 177.376 132.917C173.071 143.056 167.168 151.875 159.668 159.375C152.168 166.875 143.349 172.743 133.21 176.979C123.071 181.215 112.168 183.333 100.501 183.333ZM88.2096 118.958L169.876 37.2916C171.126 36.0416 172.654 35.4166 174.46 35.4166C176.265 35.4166 177.862 36.0416 179.251 37.2916C180.64 38.6805 181.335 40.2777 181.335 42.0833C181.335 43.8888 180.64 45.4861 179.251 46.875L92.5846 133.542C91.3346 134.792 89.8763 135.417 88.2096 135.417C86.543 135.417 85.0846 134.792 83.8346 133.542L58.418 107.917C57.168 106.667 56.5777 105.104 56.6471 103.229C56.7166 101.354 57.3763 99.7916 58.6263 98.5416C59.8763 97.2916 61.4388 96.6666 63.3138 96.6666C65.1888 96.6666 66.7513 97.2916 68.0013 98.5416L88.2096 118.958Z" fill="#1FD031"/>
</g>
</svg>
