<svg width="20" height="20" viewBox="0 0 20 20" fill="none" xmlns="http://www.w3.org/2000/svg">
<g id="Iconly/Bold/Ticket">
<g id="Ticket">
<path id="Ticket_2" fill-rule="evenodd" clip-rule="evenodd" d="M18.1534 8.78222C18.0406 8.89183 17.8875 8.95446 17.7263 8.95446C17.1299 8.95446 16.6463 9.42422 16.6463 9.99576C16.6463 10.5712 17.1242 11.0386 17.715 11.0449C18.0478 11.048 18.3307 11.2735 18.3307 11.5969V13.6051C18.3307 15.2954 16.9203 16.6663 15.1795 16.6663H12.5522C12.2806 16.6663 12.0606 16.4526 12.0606 16.1888V14.4976C12.0606 14.1688 11.7946 13.9104 11.4561 13.9104C11.1257 13.9104 10.8517 14.1688 10.8517 14.4976V16.1888C10.8517 16.4526 10.6317 16.6663 10.3609 16.6663H4.81526C3.0825 16.6663 1.66406 15.2962 1.66406 13.6051V11.5969C1.66406 11.2735 1.94694 11.048 2.27979 11.0449C2.87135 11.0386 3.34846 10.5712 3.34846 9.99576C3.34846 9.43988 2.88102 9.01709 2.26851 9.01709C2.10732 9.01709 1.9542 8.95446 1.84137 8.84485C1.72854 8.73524 1.66406 8.58648 1.66406 8.4299V6.4021C1.66406 4.7141 3.08573 3.33301 4.82331 3.33301H10.3609C10.6317 3.33301 10.8517 3.54675 10.8517 3.8106V5.8149C10.8517 6.1359 11.1257 6.4021 11.4561 6.4021C11.7946 6.4021 12.0606 6.1359 12.0606 5.8149V3.8106C12.0606 3.54675 12.2806 3.33301 12.5522 3.33301H15.1795C16.9203 3.33301 18.3307 4.70314 18.3307 6.39427V8.36726C18.3307 8.52385 18.2663 8.6726 18.1534 8.78222ZM11.4561 12.3915C11.7946 12.3915 12.0606 12.1253 12.0606 11.8043V8.6726C12.0606 8.3516 11.7946 8.08541 11.4561 8.08541C11.1257 8.08541 10.8517 8.3516 10.8517 8.6726V11.8043C10.8517 12.1253 11.1257 12.3915 11.4561 12.3915Z" fill="#948798"/>
</g>
</g>
</svg>
