<svg width="20" height="14" viewBox="0 0 20 14" fill="none" xmlns="http://www.w3.org/2000/svg">
<g id="3 User">
<path id="3 Friends" fill-rule="evenodd" clip-rule="evenodd" d="M13.4649 3.86087C13.4649 5.81894 11.904 7.389 9.9572 7.389C8.01044 7.389 6.44946 5.81894 6.44946 3.86087C6.44946 1.90205 8.01044 0.333496 9.9572 0.333496C11.904 0.333496 13.4649 1.90205 13.4649 3.86087ZM9.9572 13.6668C7.09788 13.6668 4.65641 13.2135 4.65641 11.4003C4.65641 9.58633 7.08221 9.11651 9.9572 9.11651C12.8165 9.11651 15.258 9.56982 15.258 11.3838C15.258 13.197 12.8322 13.6668 9.9572 13.6668ZM14.9639 3.92452C14.9639 4.92269 14.6662 5.85256 14.1439 6.62559C14.0902 6.70514 14.1379 6.81246 14.2327 6.82897C14.3633 6.85149 14.4983 6.86425 14.6356 6.868C16.0048 6.90402 17.2338 6.01768 17.5733 4.68328C18.0762 2.70119 16.5995 0.921742 14.7192 0.921742C14.5147 0.921742 14.3192 0.943507 14.129 0.982533C14.1028 0.988537 14.0752 1.00055 14.0603 1.02381C14.0424 1.05233 14.0558 1.09061 14.0737 1.11537C14.6386 1.91166 14.9639 2.88281 14.9639 3.92452ZM17.2315 8.26064C18.1516 8.44151 18.7567 8.81076 19.0074 9.34737C19.2193 9.78792 19.2193 10.299 19.0074 10.7388C18.6239 11.5711 17.3875 11.8383 16.9069 11.9073C16.8077 11.9224 16.7279 11.836 16.7383 11.7362C16.9838 9.42992 15.0311 8.33644 14.5259 8.08502C14.5043 8.07376 14.4998 8.0565 14.502 8.04599C14.5035 8.03849 14.5125 8.02648 14.5289 8.02423C15.622 8.00396 16.7973 8.15406 17.2315 8.26064ZM5.36393 6.86792C5.50123 6.86417 5.63554 6.85216 5.76686 6.8289C5.86163 6.81239 5.90938 6.70506 5.85566 6.62551C5.33334 5.85249 5.03562 4.92261 5.03562 3.92444C5.03562 2.88274 5.36095 1.91158 5.9258 1.1153C5.94371 1.09053 5.95639 1.05226 5.93923 1.02374C5.92431 1.00122 5.89595 0.988462 5.87058 0.982458C5.67956 0.943432 5.48407 0.921667 5.27962 0.921667C3.39927 0.921667 1.9226 2.70112 2.42627 4.6832C2.76577 6.0176 3.99471 6.90395 5.36393 6.86792ZM5.49712 8.04554C5.49936 8.0568 5.49488 8.07331 5.47399 8.08532C4.96809 8.33674 3.01537 9.43023 3.26085 11.7358C3.2713 11.8363 3.19221 11.9219 3.09297 11.9076C2.61243 11.8386 1.37603 11.5714 0.992501 10.7391C0.779843 10.2986 0.779843 9.78822 0.992501 9.34767C1.24321 8.81106 1.84761 8.44181 2.76764 8.26019C3.20265 8.15437 4.37712 8.00426 5.47101 8.02453C5.48742 8.02678 5.49563 8.03879 5.49712 8.04554Z" fill="#BC5AD7"/>
</g>
</svg>
