<svg width="60" height="60" viewBox="0 0 60 60" fill="none" xmlns="http://www.w3.org/2000/svg">
<rect width="60" height="60" rx="4" fill="#3D2644"/>
<path d="M38.3434 28.437C40.3196 28.1593 41.8411 26.465 41.8454 24.4123C41.8454 22.3893 40.3706 20.7119 38.4369 20.3946" stroke="#A99FAC" stroke-width="2" stroke-linecap="round" stroke-linejoin="round"/>
<path d="M40.9523 33.1879C42.8662 33.4741 44.2021 34.1442 44.2021 35.5254C44.2021 36.476 43.5731 37.0937 42.5559 37.4818" stroke="#A99FAC" stroke-width="2" stroke-linecap="round" stroke-linejoin="round"/>
<path fill-rule="evenodd" clip-rule="evenodd" d="M29.8423 33.7737C25.2891 33.7737 21.4004 34.4637 21.4004 37.2191C21.4004 39.9731 25.2651 40.6828 29.8423 40.6828C34.3955 40.6828 38.2828 40 38.2828 37.2432C38.2828 34.4863 34.4196 33.7737 29.8423 33.7737Z" stroke="#A99FAC" stroke-width="2" stroke-linecap="round" stroke-linejoin="round"/>
<path fill-rule="evenodd" clip-rule="evenodd" d="M29.8416 29.8412C32.8293 29.8412 35.2518 27.4201 35.2518 24.4309C35.2518 21.4432 32.8293 19.0207 29.8416 19.0207C26.8538 19.0207 24.4313 21.4432 24.4313 24.4309C24.42 27.4088 26.8241 29.8313 29.8019 29.8412H29.8416Z" stroke="#A99FAC" stroke-width="2" stroke-linecap="round" stroke-linejoin="round"/>
<path d="M21.3401 28.437C19.3625 28.1593 17.8424 26.465 17.8381 24.4123C17.8381 22.3893 19.3129 20.7119 21.2466 20.3946" stroke="#A99FAC" stroke-width="2" stroke-linecap="round" stroke-linejoin="round"/>
<path d="M18.7305 33.1879C16.8166 33.4741 15.4807 34.1442 15.4807 35.5254C15.4807 36.476 16.1097 37.0937 17.1269 37.4818" stroke="#A99FAC" stroke-width="2" stroke-linecap="round" stroke-linejoin="round"/>
</svg>
