<svg width="29" height="28" viewBox="0 0 29 28" fill="none" xmlns="http://www.w3.org/2000/svg">
<mask id="path-1-outside-1_2113_21359" maskUnits="userSpaceOnUse" x="1.5" y="1" width="26" height="26" fill="black">
<rect fill="white" x="1.5" y="1" width="26" height="26"/>
<path fill-rule="evenodd" clip-rule="evenodd" d="M2.75849 2.05728C2.49473 2.19898 2.48001 2.30932 2.51197 3.90576L2.5417 5.3944L11.1484 14.0114L8.06596 17.0943L7.88629 16.9574C7.29469 16.5062 6.58253 16.5374 6.08573 17.0363C5.79677 17.3263 5.67873 17.6148 5.68079 18.0258C5.68274 18.4104 5.86562 18.7334 6.37938 19.2596L6.84892 19.7405L4.57841 22.0123L4.26025 22.0452C3.14509 22.1602 2.33459 23.2385 2.53357 24.3423C2.81467 25.9019 4.62291 26.5288 5.83898 25.4883C6.13676 25.2334 6.41947 24.6716 6.46323 24.2474L6.4961 23.9293L8.76873 21.6596L9.24979 22.129C9.79654 22.6625 10.0967 22.8255 10.5354 22.8273C11.6788 22.8321 12.2667 21.5581 11.5528 20.6226L11.4158 20.443L14.4999 17.3615L17.584 20.443L17.452 20.6195C17.2059 20.9486 17.1346 21.1519 17.1346 21.5258C17.1346 22.2657 17.7026 22.8302 18.4441 22.8273C18.9052 22.8256 19.195 22.6706 19.7501 22.129L20.2311 21.6596L22.5055 23.931L22.5307 24.2344C22.5644 24.641 22.8598 25.2307 23.1574 25.4853C23.5928 25.8578 23.852 25.9476 24.4945 25.9483C25.0381 25.9489 25.0856 25.9391 25.4272 25.7539C25.8351 25.5328 26.0568 25.3049 26.2844 24.8733C26.4258 24.6051 26.4417 24.5169 26.4412 24.0023C26.4406 23.5213 26.4195 23.3873 26.3091 23.1643C26.0015 22.5431 25.3985 22.1131 24.7396 22.0452L24.4215 22.0123L22.1509 19.7405L22.6205 19.2596C23.1623 18.7047 23.3173 18.415 23.3191 17.9541C23.3219 17.2128 22.7573 16.645 22.017 16.645C21.6431 16.645 21.4397 16.7163 21.1105 16.9623L20.9339 17.0943L17.8515 14.0114L26.4578 5.3944L26.4885 3.90576C26.5109 2.82107 26.5008 2.37842 26.4514 2.2745C26.3233 2.00535 26.2072 1.98966 24.6059 2.02516L23.1199 2.05814L14.4999 10.6608L5.87822 2.04497H5.15792C4.76175 2.04497 4.09203 2.03043 3.66962 2.01262C3.08541 1.98806 2.86742 1.99871 2.75849 2.05728ZM12.2157 12.9449L11.7506 13.4099L13.8983 11.2629V11.6496L13.3458 12.8049L12.2157 12.9449ZM24.0363 2.88868L23.4635 2.90683L8.65922 17.7028L9.42895 18.4782L9.24979 17.4464C9.80169 16.8981 23.7957 2.04806 23.8629 2.02825C24.2029 2.5795 26.4886 4.29379 25.3458 6.00807C25.3259 6.07529 11.5546 18.5288 11.0061 19.0805H10.0315L10.8072 19.8499L25.6054 5.05087L25.6853 2.84654L25.1472 2.85851C24.8512 2.86509 24.3513 2.87866 24.0363 2.88868ZM16.1608 15.7004L15.1023 16.7597L18.1924 19.8503L18.9684 19.0805H16.938C16.3895 18.5288 15.0799 16.8722 15.0601 16.8049C14.9874 16.5586 17.0581 14.6411 17.3458 14.6411C17.3974 14.6411 19.0024 15.8493 19.5723 16.416V18.4767L20.341 17.7024L18.809 16.1718C17.9664 15.3299 17.264 14.6411 17.2482 14.6411C17.2323 14.6411 16.743 15.1178 16.1608 15.7004ZM21.9172 18.3514C21.8203 18.399 20.8057 18.4417 19.8079 19.4423C18.0314 21.2238 17.9937 21.2664 17.9937 21.4912C17.9937 21.7943 18.1721 21.9698 18.4804 21.9698C18.6944 21.9698 17.8627 20.9605 19.5723 19.2596C20.5455 18.2912 22.2945 18.3748 22.3597 18.2846C22.5142 18.0709 22.5045 17.806 22.3359 17.6434C22.1513 17.4653 22.1223 18.2507 21.9172 18.3514ZM6.66318 17.6363C6.57921 17.7257 6.53866 17.8417 6.53866 17.9924C6.53866 18.2095 7.60501 17.5575 9.42895 19.3808C11.2751 21.2264 10.2978 21.9698 10.5255 21.9698C10.8316 21.9698 11.0061 21.7923 11.0061 21.4813C11.0061 21.2641 10.9525 21.2041 9.12854 19.3808C7.28238 17.5352 7.24704 17.5039 7.01931 17.5039C6.85127 17.5039 6.75356 17.5402 6.66318 17.6363ZM7.19237 22.0315L5.5002 22.2934L5.70536 22.4322C5.81819 22.5085 5.97919 22.6692 6.0631 22.7894L6.21574 23.0078L8.169 21.0553L7.82816 20.711C7.6407 20.5216 7.47334 20.3666 7.45621 20.3666C7.43914 20.3666 7.72171 21.5017 7.19237 22.0315ZM21.1717 20.711L20.8309 21.0553L22.7846 23.0083L22.9155 22.8175C22.9874 22.7125 23.1473 22.5506 23.2708 22.4578L23.4953 22.289L21.9172 22.1412C21.3891 21.6126 21.5607 20.3666 21.5437 20.3666C21.5265 20.3666 21.3592 20.5216 21.1717 20.711ZM3.97255 23.0047C3.28645 23.353 3.15099 24.2545 3.70204 24.8054C4.45773 25.5608 5.68904 24.9924 5.61172 23.9238C5.58497 23.5542 4.30148 25.2621 3.97255 25.0112C3.68841 24.7946 4.32388 22.8263 3.97255 23.0047ZM25.8253 25.4853C25.6289 25.5708 23.5108 23.4019 23.4311 23.6116C23.2686 24.0386 24.6312 23.6732 24.9987 23.9238C25.5046 24.2688 24.8796 25.2235 25.2978 24.8054C26.0228 24.0808 25.523 22.8802 24.4998 22.8881C24.3394 22.8893 25.9205 25.4438 25.8253 25.4853Z"/>
</mask>
<path fill-rule="evenodd" clip-rule="evenodd" d="M2.75849 2.05728C2.49473 2.19898 2.48001 2.30932 2.51197 3.90576L2.5417 5.3944L11.1484 14.0114L8.06596 17.0943L7.88629 16.9574C7.29469 16.5062 6.58253 16.5374 6.08573 17.0363C5.79677 17.3263 5.67873 17.6148 5.68079 18.0258C5.68274 18.4104 5.86562 18.7334 6.37938 19.2596L6.84892 19.7405L4.57841 22.0123L4.26025 22.0452C3.14509 22.1602 2.33459 23.2385 2.53357 24.3423C2.81467 25.9019 4.62291 26.5288 5.83898 25.4883C6.13676 25.2334 6.41947 24.6716 6.46323 24.2474L6.4961 23.9293L8.76873 21.6596L9.24979 22.129C9.79654 22.6625 10.0967 22.8255 10.5354 22.8273C11.6788 22.8321 12.2667 21.5581 11.5528 20.6226L11.4158 20.443L14.4999 17.3615L17.584 20.443L17.452 20.6195C17.2059 20.9486 17.1346 21.1519 17.1346 21.5258C17.1346 22.2657 17.7026 22.8302 18.4441 22.8273C18.9052 22.8256 19.195 22.6706 19.7501 22.129L20.2311 21.6596L22.5055 23.931L22.5307 24.2344C22.5644 24.641 22.8598 25.2307 23.1574 25.4853C23.5928 25.8578 23.852 25.9476 24.4945 25.9483C25.0381 25.9489 25.0856 25.9391 25.4272 25.7539C25.8351 25.5328 26.0568 25.3049 26.2844 24.8733C26.4258 24.6051 26.4417 24.5169 26.4412 24.0023C26.4406 23.5213 26.4195 23.3873 26.3091 23.1643C26.0015 22.5431 25.3985 22.1131 24.7396 22.0452L24.4215 22.0123L22.1509 19.7405L22.6205 19.2596C23.1623 18.7047 23.3173 18.415 23.3191 17.9541C23.3219 17.2128 22.7573 16.645 22.017 16.645C21.6431 16.645 21.4397 16.7163 21.1105 16.9623L20.9339 17.0943L17.8515 14.0114L26.4578 5.3944L26.4885 3.90576C26.5109 2.82107 26.5008 2.37842 26.4514 2.2745C26.3233 2.00535 26.2072 1.98966 24.6059 2.02516L23.1199 2.05814L14.4999 10.6608L5.87822 2.04497H5.15792C4.76175 2.04497 4.09203 2.03043 3.66962 2.01262C3.08541 1.98806 2.86742 1.99871 2.75849 2.05728ZM12.2157 12.9449L11.7506 13.4099L13.8983 11.2629V11.6496L13.3458 12.8049L12.2157 12.9449ZM24.0363 2.88868L23.4635 2.90683L8.65922 17.7028L9.42895 18.4782L9.24979 17.4464C9.80169 16.8981 23.7957 2.04806 23.8629 2.02825C24.2029 2.5795 26.4886 4.29379 25.3458 6.00807C25.3259 6.07529 11.5546 18.5288 11.0061 19.0805H10.0315L10.8072 19.8499L25.6054 5.05087L25.6853 2.84654L25.1472 2.85851C24.8512 2.86509 24.3513 2.87866 24.0363 2.88868ZM16.1608 15.7004L15.1023 16.7597L18.1924 19.8503L18.9684 19.0805H16.938C16.3895 18.5288 15.0799 16.8722 15.0601 16.8049C14.9874 16.5586 17.0581 14.6411 17.3458 14.6411C17.3974 14.6411 19.0024 15.8493 19.5723 16.416V18.4767L20.341 17.7024L18.809 16.1718C17.9664 15.3299 17.264 14.6411 17.2482 14.6411C17.2323 14.6411 16.743 15.1178 16.1608 15.7004ZM21.9172 18.3514C21.8203 18.399 20.8057 18.4417 19.8079 19.4423C18.0314 21.2238 17.9937 21.2664 17.9937 21.4912C17.9937 21.7943 18.1721 21.9698 18.4804 21.9698C18.6944 21.9698 17.8627 20.9605 19.5723 19.2596C20.5455 18.2912 22.2945 18.3748 22.3597 18.2846C22.5142 18.0709 22.5045 17.806 22.3359 17.6434C22.1513 17.4653 22.1223 18.2507 21.9172 18.3514ZM6.66318 17.6363C6.57921 17.7257 6.53866 17.8417 6.53866 17.9924C6.53866 18.2095 7.60501 17.5575 9.42895 19.3808C11.2751 21.2264 10.2978 21.9698 10.5255 21.9698C10.8316 21.9698 11.0061 21.7923 11.0061 21.4813C11.0061 21.2641 10.9525 21.2041 9.12854 19.3808C7.28238 17.5352 7.24704 17.5039 7.01931 17.5039C6.85127 17.5039 6.75356 17.5402 6.66318 17.6363ZM7.19237 22.0315L5.5002 22.2934L5.70536 22.4322C5.81819 22.5085 5.97919 22.6692 6.0631 22.7894L6.21574 23.0078L8.169 21.0553L7.82816 20.711C7.6407 20.5216 7.47334 20.3666 7.45621 20.3666C7.43914 20.3666 7.72171 21.5017 7.19237 22.0315ZM21.1717 20.711L20.8309 21.0553L22.7846 23.0083L22.9155 22.8175C22.9874 22.7125 23.1473 22.5506 23.2708 22.4578L23.4953 22.289L21.9172 22.1412C21.3891 21.6126 21.5607 20.3666 21.5437 20.3666C21.5265 20.3666 21.3592 20.5216 21.1717 20.711ZM3.97255 23.0047C3.28645 23.353 3.15099 24.2545 3.70204 24.8054C4.45773 25.5608 5.68904 24.9924 5.61172 23.9238C5.58497 23.5542 4.30148 25.2621 3.97255 25.0112C3.68841 24.7946 4.32388 22.8263 3.97255 23.0047ZM25.8253 25.4853C25.6289 25.5708 23.5108 23.4019 23.4311 23.6116C23.2686 24.0386 24.6312 23.6732 24.9987 23.9238C25.5046 24.2688 24.8796 25.2235 25.2978 24.8054C26.0228 24.0808 25.523 22.8802 24.4998 22.8881C24.3394 22.8893 25.9205 25.4438 25.8253 25.4853Z" fill="url(#paint0_linear_2113_21359)"/>
<path fill-rule="evenodd" clip-rule="evenodd" d="M2.75849 2.05728C2.49473 2.19898 2.48001 2.30932 2.51197 3.90576L2.5417 5.3944L11.1484 14.0114L8.06596 17.0943L7.88629 16.9574C7.29469 16.5062 6.58253 16.5374 6.08573 17.0363C5.79677 17.3263 5.67873 17.6148 5.68079 18.0258C5.68274 18.4104 5.86562 18.7334 6.37938 19.2596L6.84892 19.7405L4.57841 22.0123L4.26025 22.0452C3.14509 22.1602 2.33459 23.2385 2.53357 24.3423C2.81467 25.9019 4.62291 26.5288 5.83898 25.4883C6.13676 25.2334 6.41947 24.6716 6.46323 24.2474L6.4961 23.9293L8.76873 21.6596L9.24979 22.129C9.79654 22.6625 10.0967 22.8255 10.5354 22.8273C11.6788 22.8321 12.2667 21.5581 11.5528 20.6226L11.4158 20.443L14.4999 17.3615L17.584 20.443L17.452 20.6195C17.2059 20.9486 17.1346 21.1519 17.1346 21.5258C17.1346 22.2657 17.7026 22.8302 18.4441 22.8273C18.9052 22.8256 19.195 22.6706 19.7501 22.129L20.2311 21.6596L22.5055 23.931L22.5307 24.2344C22.5644 24.641 22.8598 25.2307 23.1574 25.4853C23.5928 25.8578 23.852 25.9476 24.4945 25.9483C25.0381 25.9489 25.0856 25.9391 25.4272 25.7539C25.8351 25.5328 26.0568 25.3049 26.2844 24.8733C26.4258 24.6051 26.4417 24.5169 26.4412 24.0023C26.4406 23.5213 26.4195 23.3873 26.3091 23.1643C26.0015 22.5431 25.3985 22.1131 24.7396 22.0452L24.4215 22.0123L22.1509 19.7405L22.6205 19.2596C23.1623 18.7047 23.3173 18.415 23.3191 17.9541C23.3219 17.2128 22.7573 16.645 22.017 16.645C21.6431 16.645 21.4397 16.7163 21.1105 16.9623L20.9339 17.0943L17.8515 14.0114L26.4578 5.3944L26.4885 3.90576C26.5109 2.82107 26.5008 2.37842 26.4514 2.2745C26.3233 2.00535 26.2072 1.98966 24.6059 2.02516L23.1199 2.05814L14.4999 10.6608L5.87822 2.04497H5.15792C4.76175 2.04497 4.09203 2.03043 3.66962 2.01262C3.08541 1.98806 2.86742 1.99871 2.75849 2.05728ZM12.2157 12.9449L11.7506 13.4099L13.8983 11.2629V11.6496L13.3458 12.8049L12.2157 12.9449ZM24.0363 2.88868L23.4635 2.90683L8.65922 17.7028L9.42895 18.4782L9.24979 17.4464C9.80169 16.8981 23.7957 2.04806 23.8629 2.02825C24.2029 2.5795 26.4886 4.29379 25.3458 6.00807C25.3259 6.07529 11.5546 18.5288 11.0061 19.0805H10.0315L10.8072 19.8499L25.6054 5.05087L25.6853 2.84654L25.1472 2.85851C24.8512 2.86509 24.3513 2.87866 24.0363 2.88868ZM16.1608 15.7004L15.1023 16.7597L18.1924 19.8503L18.9684 19.0805H16.938C16.3895 18.5288 15.0799 16.8722 15.0601 16.8049C14.9874 16.5586 17.0581 14.6411 17.3458 14.6411C17.3974 14.6411 19.0024 15.8493 19.5723 16.416V18.4767L20.341 17.7024L18.809 16.1718C17.9664 15.3299 17.264 14.6411 17.2482 14.6411C17.2323 14.6411 16.743 15.1178 16.1608 15.7004ZM21.9172 18.3514C21.8203 18.399 20.8057 18.4417 19.8079 19.4423C18.0314 21.2238 17.9937 21.2664 17.9937 21.4912C17.9937 21.7943 18.1721 21.9698 18.4804 21.9698C18.6944 21.9698 17.8627 20.9605 19.5723 19.2596C20.5455 18.2912 22.2945 18.3748 22.3597 18.2846C22.5142 18.0709 22.5045 17.806 22.3359 17.6434C22.1513 17.4653 22.1223 18.2507 21.9172 18.3514ZM6.66318 17.6363C6.57921 17.7257 6.53866 17.8417 6.53866 17.9924C6.53866 18.2095 7.60501 17.5575 9.42895 19.3808C11.2751 21.2264 10.2978 21.9698 10.5255 21.9698C10.8316 21.9698 11.0061 21.7923 11.0061 21.4813C11.0061 21.2641 10.9525 21.2041 9.12854 19.3808C7.28238 17.5352 7.24704 17.5039 7.01931 17.5039C6.85127 17.5039 6.75356 17.5402 6.66318 17.6363ZM7.19237 22.0315L5.5002 22.2934L5.70536 22.4322C5.81819 22.5085 5.97919 22.6692 6.0631 22.7894L6.21574 23.0078L8.169 21.0553L7.82816 20.711C7.6407 20.5216 7.47334 20.3666 7.45621 20.3666C7.43914 20.3666 7.72171 21.5017 7.19237 22.0315ZM21.1717 20.711L20.8309 21.0553L22.7846 23.0083L22.9155 22.8175C22.9874 22.7125 23.1473 22.5506 23.2708 22.4578L23.4953 22.289L21.9172 22.1412C21.3891 21.6126 21.5607 20.3666 21.5437 20.3666C21.5265 20.3666 21.3592 20.5216 21.1717 20.711ZM3.97255 23.0047C3.28645 23.353 3.15099 24.2545 3.70204 24.8054C4.45773 25.5608 5.68904 24.9924 5.61172 23.9238C5.58497 23.5542 4.30148 25.2621 3.97255 25.0112C3.68841 24.7946 4.32388 22.8263 3.97255 23.0047ZM25.8253 25.4853C25.6289 25.5708 23.5108 23.4019 23.4311 23.6116C23.2686 24.0386 24.6312 23.6732 24.9987 23.9238C25.5046 24.2688 24.8796 25.2235 25.2978 24.8054C26.0228 24.0808 25.523 22.8802 24.4998 22.8881C24.3394 22.8893 25.9205 25.4438 25.8253 25.4853Z" stroke="url(#paint1_linear_2113_21359)" stroke-width="0.6" mask="url(#path-1-outside-1_2113_21359)"/>
<defs>
<linearGradient id="paint0_linear_2113_21359" x1="2.5" y1="2" x2="28.428" y2="4.3041" gradientUnits="userSpaceOnUse">
<stop stop-color="#F71756"/>
<stop offset="1" stop-color="#FDEB56"/>
</linearGradient>
<linearGradient id="paint1_linear_2113_21359" x1="2.5" y1="2" x2="28.428" y2="4.3041" gradientUnits="userSpaceOnUse">
<stop stop-color="#F71756"/>
<stop offset="1" stop-color="#FDEB56"/>
</linearGradient>
</defs>
</svg>
