<svg width="24" height="25" viewBox="0 0 24 25" fill="none" xmlns="http://www.w3.org/2000/svg">
<circle cx="12" cy="12.5" r="12" fill="#FDEB56"/>
<path d="M11.166 13.3334H6.99935C6.76324 13.3334 6.56532 13.2535 6.4056 13.0938C6.24588 12.934 6.16602 12.7361 6.16602 12.5C6.16602 12.2639 6.24588 12.066 6.4056 11.9063C6.56532 11.7465 6.76324 11.6667 6.99935 11.6667H11.166V7.50002C11.166 7.26391 11.2459 7.06599 11.4056 6.90627C11.5653 6.74655 11.7632 6.66669 11.9993 6.66669C12.2355 6.66669 12.4334 6.74655 12.5931 6.90627C12.7528 7.06599 12.8327 7.26391 12.8327 7.50002V11.6667H16.9993C17.2355 11.6667 17.4334 11.7465 17.5931 11.9063C17.7528 12.066 17.8327 12.2639 17.8327 12.5C17.8327 12.7361 17.7528 12.934 17.5931 13.0938C17.4334 13.2535 17.2355 13.3334 16.9993 13.3334H12.8327V17.5C12.8327 17.7361 12.7528 17.934 12.5931 18.0938C12.4334 18.2535 12.2355 18.3334 11.9993 18.3334C11.7632 18.3334 11.5653 18.2535 11.4056 18.0938C11.2459 17.934 11.166 17.7361 11.166 17.5V13.3334Z" fill="#3D2644"/>
</svg>
