<svg width="24" height="25" viewBox="0 0 24 25" fill="none" xmlns="http://www.w3.org/2000/svg">
<g id="check_circle_FILL1_wght400_GRAD0_opsz24 (4) 1">
<path id="Vector" d="M10.6 14.3L8.45 12.15C8.26667 11.9667 8.03333 11.875 7.75 11.875C7.46667 11.875 7.23333 11.9667 7.05 12.15C6.86667 12.3333 6.775 12.5667 6.775 12.85C6.775 13.1333 6.86667 13.3667 7.05 13.55L9.9 16.4C10.1 16.6 10.3333 16.7 10.6 16.7C10.8667 16.7 11.1 16.6 11.3 16.4L16.95 10.75C17.1333 10.5667 17.225 10.3333 17.225 10.05C17.225 9.76667 17.1333 9.53333 16.95 9.35C16.7667 9.16667 16.5333 9.075 16.25 9.075C15.9667 9.075 15.7333 9.16667 15.55 9.35L10.6 14.3ZM12 22.5C10.6167 22.5 9.31667 22.2375 8.1 21.7125C6.88333 21.1875 5.825 20.475 4.925 19.575C4.025 18.675 3.3125 17.6167 2.7875 16.4C2.2625 15.1833 2 13.8833 2 12.5C2 11.1167 2.2625 9.81667 2.7875 8.6C3.3125 7.38333 4.025 6.325 4.925 5.425C5.825 4.525 6.88333 3.8125 8.1 3.2875C9.31667 2.7625 10.6167 2.5 12 2.5C13.3833 2.5 14.6833 2.7625 15.9 3.2875C17.1167 3.8125 18.175 4.525 19.075 5.425C19.975 6.325 20.6875 7.38333 21.2125 8.6C21.7375 9.81667 22 11.1167 22 12.5C22 13.8833 21.7375 15.1833 21.2125 16.4C20.6875 17.6167 19.975 18.675 19.075 19.575C18.175 20.475 17.1167 21.1875 15.9 21.7125C14.6833 22.2375 13.3833 22.5 12 22.5Z" fill="#F71756"/>
</g>
</svg>
