<svg width="34" height="34" viewBox="0 0 34 34" fill="none" xmlns="http://www.w3.org/2000/svg">
<circle cx="17" cy="17" r="17" fill="#1FD031"/>
<path fill-rule="evenodd" clip-rule="evenodd" d="M23.8319 26.82C26.017 26.82 27.7892 25.049 27.7904 22.8638V22.8615V19.7115C26.3472 19.7115 25.1782 18.5425 25.177 17.0993C25.177 15.6573 26.346 14.4871 27.7892 14.4871H27.7904V11.3371C27.7927 9.15079 26.0229 7.37746 23.8377 7.37512H23.8307H10.1667C7.98037 7.37512 6.2082 9.14612 6.20703 11.3325V11.3336V14.5886C7.60003 14.5396 8.76787 15.6293 8.81687 17.0223C8.81803 17.048 8.8192 17.0736 8.8192 17.0993C8.82037 18.5401 7.65487 19.7091 6.21403 19.7115H6.20703V22.8615C6.20587 25.0466 7.97803 26.82 10.1632 26.82H10.1644H23.8319Z" stroke="#3D2644" stroke-width="2" stroke-linecap="round" stroke-linejoin="round"/>
<path fill-rule="evenodd" clip-rule="evenodd" d="M17.4309 13.5736L18.1496 15.0285C18.2196 15.1708 18.3549 15.27 18.5124 15.2933L20.1189 15.5278C20.5167 15.5861 20.6742 16.0738 20.3872 16.3526L19.2252 17.4843C19.1109 17.5951 19.0596 17.755 19.0852 17.9125L19.3594 19.5108C19.4271 19.9063 19.0129 20.2073 18.6582 20.0206L17.2221 19.2658C17.0809 19.1911 16.9129 19.1911 16.7717 19.2658L15.3367 20.0206C14.9809 20.2073 14.5667 19.9063 14.6344 19.5108L14.9086 17.9125C14.9354 17.755 14.8829 17.5951 14.7686 17.4843L13.6077 16.3526C13.3207 16.0738 13.4782 15.5861 13.8749 15.5278L15.4814 15.2933C15.6389 15.27 15.7754 15.1708 15.8454 15.0285L16.5629 13.5736C16.7402 13.2143 17.2536 13.2143 17.4309 13.5736Z" stroke="#3D2644" stroke-width="2" stroke-linecap="round" stroke-linejoin="round"/>
</svg>
