<svg width="118" height="36" viewBox="0 0 118 36" fill="none" xmlns="http://www.w3.org/2000/svg">
<rect width="118" height="36" rx="18" fill="#35310C"/>
<path fill-rule="evenodd" clip-rule="evenodd" d="M25.6766 10.9319L25.6757 10.3072C25.6749 9.9407 25.3952 9.66584 25.0414 9.66667C24.6794 9.6675 24.4078 9.94237 24.4087 10.3088L24.4095 10.8919L19.5222 10.8986L19.5214 10.3155C19.5206 9.94903 19.2491 9.67417 18.887 9.675C18.525 9.675 18.2535 9.95069 18.2543 10.3172L18.2551 10.9419C15.9596 11.1526 14.4967 12.7126 14.5 15.1273L14.5064 20H20.34C20.7045 20 21 20.2955 21 20.66V26.3305L25.2265 26.325C27.8602 26.3208 29.5033 24.7116 29.5 22.0963L29.4909 15.0748C29.4885 12.676 27.9721 11.1118 25.6766 10.9319ZM28.2247 15.368L15.7679 15.3846L15.7671 15.1256C15.7646 13.319 16.6524 12.3761 18.2568 12.2154L18.2576 12.8567C18.2576 13.2157 18.5299 13.4981 18.892 13.4973C19.254 13.4973 19.5247 13.2141 19.5247 12.8551L19.5239 12.1812L24.4111 12.1746L24.412 12.8492C24.412 13.2074 24.6843 13.4906 25.0463 13.4898C25.4001 13.4898 25.679 13.2057 25.679 12.8476L25.6782 12.2062C27.2908 12.3462 28.1893 13.2857 28.2247 15.0765V15.368ZM24.6999 19.1794V19.1702C24.6991 18.7871 24.9953 18.4789 25.3738 18.4706C25.7432 18.4698 26.0402 18.7688 26.0575 19.1353C26.0657 19.5184 25.7704 19.8357 25.4001 19.8449C25.0208 19.8532 24.7082 19.5625 24.6999 19.1794ZM24.695 22.2029C24.6958 22.586 25.0011 22.9017 25.3795 22.91C25.7654 22.9092 26.0781 22.5919 26.0772 22.2004C26.0772 21.8089 25.7638 21.4932 25.3771 21.4932H25.3688C24.9904 21.5024 24.6868 21.8197 24.695 22.2029ZM22.0185 19.8491C21.64 19.8657 21.3266 19.5667 21.3101 19.1836C21.3093 18.8004 21.6055 18.4831 21.9839 18.4664C22.3542 18.4656 22.6586 18.7571 22.6677 19.1319C22.6841 19.5151 22.3888 19.8316 22.0185 19.8491ZM21.3134 22.2071C21.3307 22.5902 21.6433 22.8892 22.0218 22.8726C22.392 22.8551 22.6882 22.5386 22.671 22.1546C22.6627 21.7806 22.3575 21.4891 21.9872 21.4899C21.6088 21.5074 21.3134 21.8239 21.3134 22.2071ZM18.6287 19.8782C18.2502 19.8957 17.9367 19.5959 17.9203 19.2127C17.9195 18.8296 18.2148 18.5122 18.5933 18.4956C18.9644 18.4947 19.2688 18.7863 19.277 19.1611C19.2943 19.5442 18.9989 19.8616 18.6287 19.8782Z" fill="#FDEB56"/>
<path d="M15 23.6133L16.9998 22M16.9998 22L19 23.6133M16.9998 22L17 26" stroke="#FDEB56" stroke-linecap="round" stroke-linejoin="round"/>
<path d="M47.266 20.758C46.5753 21.374 45.684 21.682 44.592 21.682C43.5 21.682 42.6087 21.374 41.918 20.758C41.2273 20.1327 40.882 19.2973 40.882 18.252V11.7H42.492V18.154C42.492 18.7513 42.6647 19.2273 43.01 19.582C43.3647 19.9367 43.892 20.114 44.592 20.114C45.292 20.114 45.8147 19.9367 46.16 19.582C46.5147 19.2273 46.692 18.7513 46.692 18.154V11.7H48.302V18.252C48.302 19.2973 47.9567 20.1327 47.266 20.758ZM54.0178 14.318C54.9792 14.318 55.8005 14.6773 56.4818 15.396C57.1632 16.1053 57.5038 16.9733 57.5038 18C57.5038 19.036 57.1632 19.9087 56.4818 20.618C55.8005 21.3273 54.9792 21.682 54.0178 21.682C52.9538 21.682 52.1372 21.29 51.5678 20.506V24.3H50.0558V14.5H51.5678V15.508C52.1372 14.7147 52.9538 14.318 54.0178 14.318ZM52.1978 19.61C52.6178 20.03 53.1452 20.24 53.7798 20.24C54.4145 20.24 54.9418 20.03 55.3618 19.61C55.7818 19.1807 55.9918 18.644 55.9918 18C55.9918 17.356 55.7818 16.824 55.3618 16.404C54.9418 15.9747 54.4145 15.76 53.7798 15.76C53.1452 15.76 52.6178 15.9747 52.1978 16.404C51.7778 16.824 51.5678 17.356 51.5678 18C51.5678 18.644 51.7778 19.1807 52.1978 19.61ZM62.1782 21.682C61.1235 21.682 60.2415 21.3273 59.5322 20.618C58.8322 19.9087 58.4822 19.036 58.4822 18C58.4822 16.9547 58.8322 16.082 59.5322 15.382C60.2415 14.6727 61.1235 14.318 62.1782 14.318C62.8595 14.318 63.4802 14.4813 64.0402 14.808C64.6002 15.1347 65.0202 15.5733 65.3002 16.124L63.9982 16.88C63.8395 16.544 63.5969 16.2827 63.2702 16.096C62.9529 15.9 62.5842 15.802 62.1642 15.802C61.5482 15.802 61.0302 16.012 60.6102 16.432C60.1995 16.852 59.9942 17.3747 59.9942 18C59.9942 18.6253 60.1995 19.148 60.6102 19.568C61.0302 19.988 61.5482 20.198 62.1642 20.198C62.5749 20.198 62.9435 20.1 63.2702 19.904C63.6062 19.708 63.8582 19.4467 64.0262 19.12L65.3282 19.862C65.0295 20.422 64.6002 20.8653 64.0402 21.192C63.4802 21.5187 62.8595 21.682 62.1782 21.682ZM69.6157 21.682C68.589 21.682 67.7164 21.3273 66.9977 20.618C66.279 19.9087 65.9197 19.036 65.9197 18C65.9197 16.964 66.279 16.0913 66.9977 15.382C67.7164 14.6727 68.589 14.318 69.6157 14.318C70.6517 14.318 71.5244 14.6727 72.2337 15.382C72.9524 16.0913 73.3117 16.964 73.3117 18C73.3117 19.036 72.9524 19.9087 72.2337 20.618C71.5244 21.3273 70.6517 21.682 69.6157 21.682ZM68.0617 19.582C68.4817 20.002 68.9997 20.212 69.6157 20.212C70.2317 20.212 70.7497 20.002 71.1697 19.582C71.5897 19.162 71.7997 18.6347 71.7997 18C71.7997 17.3653 71.5897 16.838 71.1697 16.418C70.7497 15.998 70.2317 15.788 69.6157 15.788C68.9997 15.788 68.4817 15.998 68.0617 16.418C67.6417 16.838 67.4317 17.3653 67.4317 18C67.4317 18.6347 67.6417 19.162 68.0617 19.582ZM82.3229 14.318C83.1162 14.318 83.7555 14.5747 84.2409 15.088C84.7262 15.6013 84.9689 16.292 84.9689 17.16V21.5H83.4569V17.258C83.4569 16.7727 83.3355 16.3993 83.0929 16.138C82.8502 15.8673 82.5189 15.732 82.0989 15.732C81.6322 15.732 81.2589 15.886 80.9789 16.194C80.7082 16.502 80.5729 16.964 80.5729 17.58V21.5H79.0609V17.258C79.0609 16.7727 78.9442 16.3993 78.7109 16.138C78.4869 15.8673 78.1649 15.732 77.7449 15.732C77.2875 15.732 76.9142 15.8907 76.6249 16.208C76.3355 16.516 76.1909 16.9733 76.1909 17.58V21.5H74.6789V14.5H76.1909V15.34C76.6389 14.6587 77.3062 14.318 78.1929 14.318C79.0889 14.318 79.7515 14.6867 80.1809 15.424C80.6475 14.6867 81.3615 14.318 82.3229 14.318ZM88.0151 13.17C87.8284 13.3567 87.6044 13.45 87.3431 13.45C87.0817 13.45 86.8531 13.3567 86.6571 13.17C86.4704 12.974 86.3771 12.7453 86.3771 12.484C86.3771 12.2227 86.4704 11.9987 86.6571 11.812C86.8437 11.616 87.0724 11.518 87.3431 11.518C87.6137 11.518 87.8424 11.616 88.0291 11.812C88.2157 11.9987 88.3091 12.2227 88.3091 12.484C88.3091 12.7453 88.2111 12.974 88.0151 13.17ZM86.5871 21.5V14.5H88.0991V21.5H86.5871ZM93.5367 14.318C94.3393 14.318 94.988 14.5747 95.4827 15.088C95.9773 15.6013 96.2247 16.306 96.2247 17.202V21.5H94.7127V17.356C94.7127 16.8333 94.5727 16.432 94.2927 16.152C94.0127 15.872 93.63 15.732 93.1447 15.732C92.6127 15.732 92.1833 15.9 91.8567 16.236C91.53 16.5627 91.3667 17.0667 91.3667 17.748V21.5H89.8547V14.5H91.3667V15.396C91.824 14.6773 92.5473 14.318 93.5367 14.318ZM103.425 14.5H104.909V21.178C104.909 22.242 104.559 23.0587 103.859 23.628C103.159 24.1973 102.309 24.482 101.311 24.482C99.696 24.482 98.59 23.9173 97.9927 22.788L99.2947 22.032C99.6587 22.7507 100.34 23.11 101.339 23.11C101.992 23.11 102.501 22.9373 102.865 22.592C103.238 22.256 103.425 21.7847 103.425 21.178V20.324C102.855 21.136 102.043 21.542 100.989 21.542C99.9994 21.542 99.164 21.192 98.4827 20.492C97.8014 19.7827 97.4607 18.9287 97.4607 17.93C97.4607 16.9313 97.8014 16.082 98.4827 15.382C99.164 14.6727 99.9994 14.318 100.989 14.318C102.043 14.318 102.855 14.724 103.425 15.536V14.5ZM99.6027 19.498C100.032 19.918 100.564 20.128 101.199 20.128C101.833 20.128 102.361 19.918 102.781 19.498C103.21 19.078 103.425 18.5553 103.425 17.93C103.425 17.3047 103.21 16.782 102.781 16.362C102.361 15.942 101.833 15.732 101.199 15.732C100.564 15.732 100.032 15.942 99.6027 16.362C99.1827 16.782 98.9727 17.3047 98.9727 17.93C98.9727 18.5553 99.1827 19.078 99.6027 19.498Z" fill="#FDEB56"/>
</svg>
