<svg width="60" height="60" viewBox="0 0 60 60" fill="none" xmlns="http://www.w3.org/2000/svg">
<rect width="60" height="60" rx="4" fill="#3D2644"/>
<path d="M23.3527 44.875C22.6371 44.875 22.0313 44.627 21.5355 44.1312C21.0397 43.6354 20.7917 43.0297 20.7917 42.3141V17.686C20.7917 16.9704 21.0397 16.3646 21.5355 15.8688C22.0313 15.373 22.6371 15.1251 23.3527 15.1251H36.6474C37.363 15.1251 37.9688 15.373 38.4646 15.8688C38.9604 16.3646 39.2083 16.9704 39.2083 17.686V42.3141C39.2083 43.0297 38.9604 43.6354 38.4646 44.1312C37.9688 44.6271 37.363 44.875 36.6474 44.875H23.3527V44.875ZM22.9167 40.9792V42.3141C22.9167 42.4231 22.9621 42.523 23.0529 42.6139C23.1438 42.7047 23.2437 42.7501 23.3527 42.7501H36.6474C36.7564 42.7501 36.8563 42.7047 36.9472 42.6139C37.038 42.523 37.0834 42.4231 37.0834 42.3141V40.9792H22.9167ZM22.9167 38.8543H37.0834V21.1459H22.9167V38.8543ZM22.9167 19.0209H37.0834V17.686C37.0834 17.577 37.038 17.4771 36.9472 17.3863C36.8563 17.2955 36.7564 17.2501 36.6474 17.2501H23.3527C23.2437 17.2501 23.1438 17.2955 23.0529 17.3863C22.9621 17.4771 22.9167 17.577 22.9167 17.686V19.0209ZM22.9167 19.0209V17.25V19.0209V19.0209Z" fill="#A99FAC"/>
</svg>
