<svg width="32" height="32" viewBox="0 0 32 32" fill="none" xmlns="http://www.w3.org/2000/svg">
<circle cx="16" cy="16" r="15.3158" fill="#68566E" stroke="#FDEB56" stroke-width="1.36842"/>
<path d="M25.7096 17.9828C26.8047 12.6204 23.3454 7.38559 17.983 6.29051C12.6206 5.19542 7.38578 8.65476 6.29069 14.0172C5.1956 19.3796 8.65494 24.6144 14.0173 25.7095C19.3797 26.8046 24.6146 23.3452 25.7096 17.9828Z" fill="#FFDF34"/>
<path fill-rule="evenodd" clip-rule="evenodd" d="M6.53335 16.1301C6.53037 15.8962 6.53597 15.6604 6.55045 15.4233C6.56492 15.1861 6.58801 14.9515 6.61942 14.7196L7.5395 14.8442C7.51115 15.0535 7.49028 15.2655 7.4772 15.4798C7.46412 15.6942 7.45907 15.9071 7.46176 16.1183L6.53335 16.1301ZM7.20252 12.4958C7.37815 12.0546 7.58577 11.6304 7.82233 11.2258L8.62385 11.6945C8.41057 12.0592 8.22345 12.4416 8.06517 12.8392L7.20252 12.4958ZM7.30254 19.7443C7.11692 19.3139 6.96243 18.8676 6.84175 18.4083L7.73975 18.1724C7.8485 18.5863 7.98775 18.9886 8.15509 19.3765L7.30254 19.7443ZM9.21487 9.39703C9.54375 9.0593 9.89736 8.74636 10.2726 8.46099L10.8346 9.20001C10.496 9.45756 10.1769 9.73999 9.88007 10.0448L9.21487 9.39703ZM9.39843 22.7865C9.06071 22.4576 8.74777 22.104 8.4624 21.7288L9.20142 21.1667C9.45896 21.5054 9.7414 21.8245 10.0462 22.1213L9.39843 22.7865ZM12.2571 7.30113C12.6874 7.11552 13.1338 6.96102 13.5931 6.84034L13.829 7.73834C13.4151 7.8471 13.0128 7.98634 12.6248 8.15369L12.2571 7.30113ZM12.4973 24.7989C12.056 24.6232 11.6318 24.4156 11.2272 24.1791L11.6959 23.3775C12.0606 23.5908 12.443 23.7779 12.8406 23.9362L12.4973 24.7989ZM15.8712 6.53194C16.1052 6.52896 16.3409 6.53457 16.5781 6.54904C16.8152 6.56351 17.0499 6.5866 17.2818 6.61801L17.1571 7.53809C16.9478 7.50974 16.7359 7.48888 16.5215 7.4758C16.3072 7.46272 16.0943 7.45766 15.8831 7.46035L15.8712 6.53194ZM15.4247 25.4509C15.1875 25.4365 14.9529 25.4134 14.721 25.382L14.8456 24.4619C15.0549 24.4902 15.2669 24.5111 15.4813 24.5242C15.6956 24.5373 15.9085 24.5423 16.1197 24.5396L16.1315 25.468C15.8976 25.471 15.6619 25.4654 15.4247 25.4509ZM19.5055 7.20111C19.9468 7.37675 20.371 7.58436 20.7756 7.82092L20.3069 8.62244C19.9421 8.40916 19.5598 8.22204 19.1621 8.06376L19.5055 7.20111ZM19.7457 24.6988C19.3154 24.8845 18.869 25.0389 18.4097 25.1596L18.1738 24.2616C18.5877 24.1529 18.99 24.0136 19.3779 23.8463L19.7457 24.6988ZM22.6044 9.21347C22.9421 9.54234 23.255 9.89595 23.5404 10.2712L22.8014 10.8332C22.5438 10.4946 22.2614 10.1755 21.9566 9.87867L22.6044 9.21347ZM22.7879 22.6029C22.459 22.9407 22.1054 23.2536 21.7302 23.539L21.1681 22.8C21.5068 22.5424 21.8259 22.26 22.1227 21.9552L22.7879 22.6029ZM24.7002 12.2557C24.8859 12.686 25.0404 13.1324 25.161 13.5917L24.263 13.8276C24.1543 13.4137 24.015 13.0114 23.8477 12.6234L24.7002 12.2557ZM24.8003 19.5041C24.6246 19.9454 24.417 20.3696 24.1805 20.7742L23.3789 20.3055C23.5922 19.9407 23.7793 19.5584 23.9376 19.1607L24.8003 19.5041ZM25.4523 16.5767C25.4379 16.8138 25.4148 17.0485 25.3834 17.2804L24.4633 17.1557C24.4916 16.9464 24.5125 16.7345 24.5256 16.5201C24.5387 16.3058 24.5437 16.0928 24.541 15.8817L25.4694 15.8698C25.4724 16.1038 25.4668 16.3395 25.4523 16.5767Z" fill="#FFBC06"/>
<path d="M15.9996 23.9276C14.1656 23.9276 12.3882 23.2916 10.9705 22.128C9.55277 20.9645 8.58235 19.3453 8.22457 17.5465C7.8668 15.7477 8.14382 13.8804 9.00842 12.2629C9.87303 10.6454 11.2717 9.37779 12.9662 8.67595C14.6607 7.97412 16.5461 7.88153 18.3012 8.41397C20.0563 8.9464 21.5724 10.0709 22.5914 11.5959C23.6103 13.1209 24.0689 14.952 23.8891 16.7773C23.7093 18.6025 22.9022 20.3089 21.6053 21.6058C20.8708 22.3442 19.9972 22.9296 19.035 23.3282C18.0728 23.7267 17.0411 23.9304 15.9996 23.9276Z" fill="#FFBC06"/>
<path d="M15.7514 21.693V10.2814H16.4824V21.693H15.7514ZM18.212 13.7049C18.1585 13.2532 17.9415 12.9025 17.5612 12.6529C17.1808 12.4032 16.7142 12.2784 16.1615 12.2784C15.7573 12.2784 15.4037 12.3438 15.1005 12.4746C14.8004 12.6053 14.5656 12.7851 14.3962 13.0139C14.2298 13.2428 14.1466 13.5028 14.1466 13.794C14.1466 14.0377 14.2046 14.2472 14.3205 14.4225C14.4393 14.5949 14.5909 14.739 14.7751 14.8549C14.9594 14.9679 15.1525 15.0615 15.3546 15.1358C15.5567 15.2071 15.7424 15.265 15.9118 15.3096L16.839 15.5592C17.0768 15.6217 17.3412 15.7078 17.6325 15.8178C17.9267 15.9277 18.2075 16.0778 18.475 16.268C18.7454 16.4552 18.9683 16.6959 19.1436 16.9901C19.319 17.2843 19.4066 17.6454 19.4066 18.0734C19.4066 18.5667 19.2774 19.0124 19.0188 19.4106C18.7632 19.8089 18.3888 20.1254 17.8955 20.3601C17.4051 20.5949 16.8093 20.7123 16.108 20.7123C15.4542 20.7123 14.8881 20.6068 14.4096 20.3958C13.9341 20.1848 13.5597 19.8906 13.2863 19.5132C13.0159 19.1358 12.8628 18.6974 12.8271 18.1982H13.9683C13.998 18.5429 14.1139 18.8282 14.316 19.054C14.5211 19.2769 14.7796 19.4433 15.0916 19.5533C15.4066 19.6603 15.7454 19.7138 16.108 19.7138C16.53 19.7138 16.9089 19.6454 17.2447 19.5087C17.5805 19.369 17.8464 19.1759 18.0426 18.9292C18.2387 18.6796 18.3368 18.3884 18.3368 18.0555C18.3368 17.7524 18.2521 17.5057 18.0827 17.3156C17.9133 17.1254 17.6904 16.9708 17.4141 16.852C17.1377 16.7331 16.839 16.6291 16.5181 16.5399L15.3947 16.219C14.6815 16.0139 14.1169 15.7212 13.7008 15.3408C13.2848 14.9604 13.0768 14.4627 13.0768 13.8475C13.0768 13.3364 13.215 12.8906 13.4913 12.5102C13.7707 12.1269 14.1451 11.8297 14.6147 11.6187C15.0872 11.4047 15.6147 11.2977 16.1971 11.2977C16.7855 11.2977 17.3086 11.4032 17.7662 11.6142C18.2239 11.8223 18.5864 12.1075 18.8539 12.4701C19.1243 12.8327 19.267 13.2442 19.2818 13.7049H18.212Z" fill="#FAFCFB"/>
</svg>
