<svg width="32" height="32" viewBox="0 0 32 32" fill="none" xmlns="http://www.w3.org/2000/svg">
<circle cx="16" cy="16" r="15.3158" fill="#68566E" stroke="#FDEB56" stroke-width="1.36842"/>
<g style="mix-blend-mode:multiply" opacity="0.95">
<path d="M18.1373 22.8422C17.0683 21.085 17.3201 13.9655 17.8444 12.5323C17.9953 12.0543 18.2802 11.6296 18.6652 11.3086C19.0502 10.9876 19.5193 10.7838 20.0167 10.7214C20.8343 10.6744 21.6531 10.5892 22.4713 10.6212C25.0358 10.7213 26.0163 13.826 25.845 15.8614C25.7884 16.7037 25.4793 17.5094 24.9579 18.1734C24.4364 18.8373 23.727 19.3287 22.9221 19.5834C22.3294 19.6927 21.7239 19.7152 21.1247 19.6503C21.1323 20.4692 21.1886 21.2868 21.2933 22.099C21.3087 22.2651 21.2859 22.4324 21.2267 22.5883C21.1676 22.7442 21.0736 22.8845 20.9519 22.9985C20.7185 23.1933 18.4355 23.3324 18.1373 22.8422ZM22.4016 14.7527C22.3906 14.3947 22.2512 14.0526 22.0089 13.7888C21.8669 13.6937 21.7024 13.6377 21.5319 13.6265C21.3615 13.6152 21.191 13.6491 21.0378 13.7247C20.8026 13.8277 20.8009 14.1797 20.7845 14.4266C20.7646 14.7354 20.7208 17.2038 20.9708 17.2489C22.4969 17.5239 22.5238 15.7466 22.4016 14.7527ZM6.64214 22.8825C6.75778 21.8599 7.06062 20.8674 7.53554 19.9545C8.10253 18.9314 8.76989 17.9672 9.52776 17.0763C8.87776 16.2057 8.29471 15.2871 7.78364 14.3284C7.27947 13.431 6.92883 12.4557 6.74621 11.4428C6.73625 11.3013 6.77463 11.1607 6.85505 11.044C7.04152 10.7364 8.03688 10.5156 10.0898 10.6592C10.1995 10.6704 10.3043 10.7105 10.3936 10.7752C10.4829 10.8399 10.5535 10.9269 10.5984 11.0277C10.7539 11.4713 10.9643 12.1701 11.2172 12.8694C11.3448 13.2108 11.4956 13.543 11.6685 13.8638C12.0097 12.9973 12.2197 12.0848 12.2917 11.1564C12.3139 10.9287 12.398 10.6094 13.0607 10.6142C14.0374 10.5474 15.0179 10.6706 15.9477 10.9771C16.0397 11.4696 16.032 11.9756 15.9251 12.4652C15.3763 14.0501 14.5874 15.5413 13.5859 16.8868C14.5306 18.1193 15.3145 19.4671 15.9187 20.8976C16.0662 21.5259 16.0718 22.1791 15.9352 22.8098C15.8064 23.3231 12.5579 23.2716 12.4426 22.7705C12.2164 21.7446 11.8534 20.7537 11.3634 19.8244C11.0578 20.3136 10.8055 20.8341 10.6109 21.3771C10.4277 21.898 10.2873 22.4155 10.0878 22.9781C9.98227 23.2744 6.60589 23.238 6.64214 22.8825Z" fill="#776537"/>
</g>
<path d="M17.9536 21.9294C16.8279 20.0797 17.093 12.5855 17.645 11.0768C17.8038 10.5736 18.1038 10.1266 18.5091 9.7887C18.9145 9.45084 19.4082 9.23636 19.9318 9.1707C20.7922 9.12106 21.6541 9.03156 22.5157 9.06512C25.2147 9.17047 26.247 12.4387 26.0667 14.5812C26.0072 15.4678 25.6818 16.3159 25.133 17.0148C24.5842 17.7137 23.8375 18.231 22.9903 18.4991C22.3663 18.6141 21.7288 18.6378 21.098 18.5693C21.1058 19.4313 21.1651 20.2921 21.2757 21.147C21.2918 21.3218 21.2678 21.498 21.2055 21.6621C21.1432 21.8261 21.0442 21.9738 20.9161 22.0939C20.6701 22.2989 18.2673 22.4451 17.9536 21.9294ZM22.4419 13.4139C22.4303 13.0371 22.2836 12.677 22.0286 12.3993C21.8791 12.2993 21.706 12.2405 21.5265 12.2286C21.3471 12.2168 21.1677 12.2524 21.0064 12.3318C20.7588 12.4402 20.7568 12.8107 20.7401 13.0708C20.719 13.3957 20.6731 15.9942 20.936 16.0416C22.5424 16.3311 22.5705 14.4602 22.4419 13.4139ZM6.39459 21.9717C6.5166 20.8954 6.83547 19.8507 7.3353 18.8897C7.93211 17.8128 8.63452 16.7978 9.43219 15.8598C8.748 14.9436 8.13434 13.9767 7.59647 12.9676C7.06562 12.0229 6.69642 10.9961 6.50414 9.92972C6.49362 9.78097 6.53411 9.63307 6.61894 9.51042C6.8153 9.18656 7.86322 8.95394 10.024 9.10498C10.1394 9.11694 10.2496 9.1591 10.3435 9.22723C10.4374 9.29537 10.5117 9.38706 10.5589 9.49306C10.7229 9.9598 10.9442 10.6956 11.2107 11.4318C11.3451 11.791 11.5038 12.1407 11.6856 12.4784C12.0447 11.5664 12.2658 10.6058 12.3415 9.62847C12.3649 9.38875 12.4535 9.05288 13.151 9.05778C14.1792 8.9873 15.2113 9.11704 16.1901 9.4398C16.2869 9.95819 16.2788 10.4907 16.1665 11.006C15.5889 12.6745 14.7583 14.2443 13.7038 15.6604C14.6981 16.9578 15.5232 18.3765 16.1592 19.8823C16.3145 20.5437 16.3205 21.2313 16.1768 21.8953C16.0416 22.4357 12.6222 22.3815 12.5003 21.8539C12.2623 20.774 11.8803 19.7309 11.3646 18.7526C11.0428 19.2674 10.7772 19.8154 10.5727 20.387C10.3793 20.9356 10.2319 21.4803 10.0218 22.0722C9.91082 22.3844 6.35648 22.3458 6.39459 21.9717Z" fill="#FFBC06"/>
<path style="mix-blend-mode:screen" fill-rule="evenodd" clip-rule="evenodd" d="M19.9493 9.46918C19.4842 9.53192 19.0466 9.72624 18.6881 10.0293C18.3297 10.3323 18.0653 10.7314 17.926 11.1796C17.8413 11.4405 17.7803 11.7085 17.7437 11.9804C17.6758 12.404 17.6298 12.834 17.5927 13.2616C17.5167 14.1359 17.4789 15.0211 17.4708 15.9019C17.4628 16.7713 20.4548 15.7264 20.4301 14.5381C20.4234 14.2299 20.4229 13.9213 20.4268 13.6133C20.429 13.4281 20.4303 13.2362 20.4423 13.0517C20.4665 12.6791 20.4887 12.2327 20.8868 12.0582C21.1416 11.9442 21.424 11.9066 21.6999 11.9497C21.8954 11.9759 22.0798 12.0556 22.2328 12.1801C22.4762 12.4197 22.6363 12.731 22.6896 13.0683C22.8921 14.0486 25.6389 11.8536 24.7739 10.6551C24.5238 10.2766 24.1879 9.96238 23.7935 9.73803C23.3991 9.51367 22.9574 9.38547 22.5042 9.36383C21.6527 9.33062 20.7991 9.42024 19.9493 9.46918ZM15.0671 9.47046C14.4305 9.39668 13.7903 9.3587 13.1494 9.35672C12.9941 9.34256 12.8385 9.37952 12.7062 9.46195C12.6631 9.51801 12.6397 9.5867 12.6396 9.65739C12.5609 10.6653 12.3322 11.6557 11.9609 12.596L11.7143 13.1721L11.422 12.618C11.2333 12.2682 11.0689 11.9058 10.9301 11.5333C10.6973 10.8899 10.5037 10.2362 10.2775 9.5919C10.2494 9.54153 10.2101 9.49831 10.1626 9.46561C10.1151 9.43291 10.0607 9.41159 10.0036 9.40333C9.54691 9.37129 9.08658 9.35206 8.62835 9.35765C8.30085 9.3589 7.97375 9.38054 7.64895 9.42245C7.44772 9.44582 7.24978 9.49187 7.05891 9.55973C6.99152 9.58305 6.92913 9.61887 6.87502 9.66532C6.82927 9.73079 6.8034 9.80809 6.80054 9.88791C6.98853 10.9203 7.34717 11.9141 7.86174 12.8287C8.39512 13.8238 9.00106 14.7784 9.67463 15.6846L9.80784 15.868L9.66706 16.0457C9.44482 16.326 9.21896 16.6093 8.99754 16.8975C8.16137 17.9854 14.765 17.7598 14.0737 16.7344C13.8698 16.4314 13.6632 16.1301 13.4575 15.829L13.3358 15.6512L13.4664 15.4796C13.6821 15.1952 13.8825 14.8913 14.0741 14.59C14.3158 14.2091 14.5474 13.8215 14.7688 13.4274C15.033 12.9587 15.2875 12.4772 15.5099 11.987C15.6723 11.6624 15.7935 11.3188 15.8708 10.9641C15.9498 10.5245 15.9731 10.0766 15.9401 9.63106C15.6539 9.55424 15.362 9.50053 15.0671 9.47046Z" fill="#FF6057"/>
<path style="mix-blend-mode:multiply" fill-rule="evenodd" clip-rule="evenodd" d="M10.0218 22.0722C10.2319 21.4803 10.3793 20.9356 10.5727 20.387C10.7772 19.8154 11.0428 19.2674 11.3646 18.7526C10.8549 19.4926 10.0141 21.3921 9.69756 21.6713C8.78165 22.1285 7.73119 22.2387 6.74036 21.9814L6.68245 21.9681C6.63002 21.9555 6.5842 21.9237 6.55391 21.8791C6.52141 21.82 6.50433 21.7536 6.50426 21.6861C6.4961 21.5129 6.51487 21.3393 6.51999 21.1659C6.46401 21.4321 6.42215 21.7011 6.39459 21.9717C6.38738 22.0424 6.50833 22.1011 6.70995 22.1477C7.8061 22.3654 8.93668 22.3396 10.0218 22.0722ZM12.5003 21.8539C12.6083 22.3219 15.3135 22.4175 16.0156 22.0554C16.0521 22.0414 16.0853 22.0199 16.1131 21.9923C16.1408 21.9648 16.1625 21.9317 16.1768 21.8953C16.3205 21.2313 16.3145 20.5437 16.1592 19.8823C15.6033 18.5249 14.8733 17.2454 13.9876 16.0761C13.8933 15.9379 13.7987 15.7994 13.7038 15.6604C14.6161 14.3923 15.3859 13.0275 15.9991 11.5906C16.0748 11.402 16.1309 11.2061 16.1665 11.006C16.175 10.9465 16.1834 10.8841 16.1921 10.8197C15.586 12.4735 14.6629 13.993 13.4746 15.2931C13.1068 15.7268 13.1364 15.7165 13.5401 16.1605C14.739 17.4649 15.5543 19.0752 15.8959 20.8137C15.9588 21.0945 15.9239 21.3883 15.797 21.6466C15.4088 21.8965 14.9677 22.0525 14.5087 22.1023C14.0497 22.152 13.5854 22.0941 13.1527 21.9332C12.7829 21.6946 12.4795 21.3662 12.2709 20.9787C12.3527 21.2551 12.4292 21.5461 12.5003 21.8539Z" fill="#C1BAA0"/>
<path style="mix-blend-mode:multiply" fill-rule="evenodd" clip-rule="evenodd" d="M20.7184 21.55C20.328 21.8179 19.8687 21.9678 19.3954 21.9818C18.9221 21.9958 18.4547 21.8733 18.0491 21.629C17.9049 21.5019 17.7807 21.3538 17.6806 21.1897C17.66 21.1571 17.6401 21.1235 17.6202 21.0901C17.6554 21.2186 17.6933 21.3393 17.7332 21.4509C17.7906 21.6174 17.8645 21.7777 17.9538 21.9294C18.2675 22.4451 20.6703 22.2988 20.9163 22.0939C21.12 21.9115 21.245 21.6573 21.265 21.3847C21.2739 21.3058 21.2776 21.2264 21.276 21.147C21.2635 20.5431 21.1665 20.1011 21.115 19.5911C21.0792 19.2516 21.0736 18.9097 21.0982 18.5692C21.7291 18.6377 22.3665 18.6141 22.9905 18.4991C23.6724 18.3043 24.293 17.9378 24.7928 17.4346C25.2925 16.9315 25.6548 16.3084 25.845 15.6252C25.9215 15.3978 25.9809 15.1639 26.0223 14.9276C25.974 15.0578 25.9206 15.1862 25.862 15.3128C24.9896 17.2001 23.0287 18.6273 21.2767 18.1838C21.138 18.1489 21.1056 17.1288 21.0345 17.635C20.9751 18.1006 20.952 18.57 20.9654 19.0391C20.9766 19.7239 21.1625 21.009 20.7184 21.55ZM22.434 14.8545C22.3027 15.6004 21.9087 16.2169 20.9362 16.0416C20.8544 16.0268 20.8026 15.7669 20.7708 15.4055C20.7757 15.568 20.7864 15.7302 20.7853 15.8927C20.7797 15.9799 20.796 16.067 20.8329 16.1462C20.8699 16.2254 20.9261 16.294 20.9965 16.3457C21.067 16.3974 21.1493 16.4306 21.2358 16.4421C21.3224 16.4536 21.4106 16.4431 21.492 16.4116C21.7091 16.3753 21.9119 16.2794 22.0777 16.1346C22.2435 15.9898 22.3658 15.8018 22.431 15.5915C22.5757 15.0162 22.5925 14.4162 22.4802 13.8337C22.5029 14.1746 22.4874 14.517 22.434 14.8545Z" fill="#C1BAA0"/>
<path style="mix-blend-mode:screen" fill-rule="evenodd" clip-rule="evenodd" d="M17.8193 12.1722C17.7522 12.6276 17.984 12.9989 18.3507 12.6645C18.8649 12.1953 19.1979 11.5498 19.7146 11.0829C20.1241 10.7679 20.5609 10.49 21.0198 10.2525C21.6954 9.83298 20.9112 9.59838 20.4857 9.58032C19.8786 9.53935 19.2785 9.72999 18.8064 10.1138C18.2479 10.6642 17.8988 11.3921 17.8193 12.1722Z" fill="#FFD9B7"/>
<path style="mix-blend-mode:screen" fill-rule="evenodd" clip-rule="evenodd" d="M8.44452 9.47147C8.16676 9.47443 7.88943 9.49424 7.61406 9.5308C6.65517 9.6379 6.80388 9.87389 7.07064 10.727C7.22644 11.2933 7.45226 11.8379 7.74284 12.3484C7.89842 12.5817 8.10399 12.4685 8.10329 12.1604C8.03508 11.5566 8.01381 10.9484 8.03967 10.3413C8.06142 10.1951 8.11756 10.0562 8.20349 9.93587C8.28941 9.81559 8.40266 9.71742 8.53392 9.64943C8.54926 9.63639 8.56029 9.61902 8.56557 9.59959C8.57086 9.58016 8.57013 9.5596 8.5635 9.54059C8.55121 9.51987 8.53383 9.50264 8.513 9.49055C8.49217 9.47845 8.4686 9.47189 8.44452 9.47147Z" fill="#FFD9B7"/>
<path style="mix-blend-mode:screen" fill-rule="evenodd" clip-rule="evenodd" d="M13.102 9.43675C13.0107 9.43543 12.9199 9.45222 12.8351 9.48616C12.7914 9.51299 12.7595 9.55539 12.7458 9.6048C12.7198 9.67776 12.602 10.3888 12.5428 10.7922C12.4893 11.1579 12.5857 11.3088 12.924 10.9592C13.2108 10.6232 13.4794 10.2721 13.7284 9.90722C14.052 9.42125 13.8098 9.40738 13.102 9.43675Z" fill="#FFD9B7"/>
</svg>
