<svg width="16" height="16" viewBox="0 0 16 16" fill="none" xmlns="http://www.w3.org/2000/svg">
<g id="calendar-download-02">
<path id="Vector" d="M12 1.33325V2.66659M4 1.33325V2.66659" stroke="#1FD031" stroke-linecap="round" stroke-linejoin="round"/>
<path id="Vector_2" d="M2 5.33325H14" stroke="#1FD031" stroke-linecap="round" stroke-linejoin="round"/>
<path id="Vector_3" d="M1.66699 8.16213C1.66699 5.25729 1.66699 3.80485 2.50174 2.90243C3.33649 2 4.67999 2 7.36699 2H8.63366C11.3207 2 12.6642 2 13.4989 2.90243C14.3337 3.80485 14.3337 5.25729 14.3337 8.16213V8.50453C14.3337 11.4094 14.3337 12.8618 13.4989 13.7643C12.6642 14.6667 11.3207 14.6667 8.63366 14.6667H7.36699C4.67999 14.6667 3.33649 14.6667 2.50174 13.7643C1.66699 12.8618 1.66699 11.4094 1.66699 8.50453V8.16213Z" stroke="#1FD031" stroke-linecap="round" stroke-linejoin="round"/>
<path id="Vector_4" d="M6.33301 10.3333C6.66069 10.6705 7.53287 12 7.99967 12M7.99967 12C8.46647 12 9.33867 10.6705 9.66634 10.3333M7.99967 12V8" stroke="#1FD031" stroke-linecap="round" stroke-linejoin="round"/>
</g>
</svg>
