<svg width="21" height="21" viewBox="0 0 21 21" fill="none" xmlns="http://www.w3.org/2000/svg">
<g id="Iconly/Light/Video">
<g id="Video">
<path id="Stroke 1" fill-rule="evenodd" clip-rule="evenodd" d="M13.892 13.2365C13.9602 14.781 12.7136 16.0871 11.108 16.1528C10.9897 16.1577 5.22399 16.1461 5.22399 16.1461C3.6261 16.2674 2.22761 15.1192 2.10158 13.5805C2.09208 13.4658 2.09467 7.27932 2.09467 7.27932C2.02388 5.73312 3.26871 4.4237 4.87523 4.35557C4.99523 4.34976 10.7532 4.36056 10.7532 4.36056C12.3588 4.24091 13.7616 5.39745 13.8859 6.94366C13.8946 7.05499 13.892 13.2365 13.892 13.2365Z" stroke="#FDEB56" stroke-width="1.44525" stroke-linecap="round" stroke-linejoin="round"/>
<path id="Stroke 3" d="M13.8936 8.55015L16.6698 6.2781C17.3577 5.71493 18.3896 6.2056 18.3888 7.09334L18.3786 13.289C18.3778 14.1767 17.345 14.6632 16.6588 14.1L13.8936 11.828" stroke="#FDEB56" stroke-width="1.44525" stroke-linecap="round" stroke-linejoin="round"/>
</g>
</g>
</svg>
