<?xml version="1.0" encoding="utf-8"?>
<!-- Generator: Adobe Illustrator 28.0.0, SVG Export Plug-In . SVG Version: 6.00 Build 0)  -->
<svg version="1.1" id="Layer_1" xmlns="http://www.w3.org/2000/svg" xmlns:xlink="http://www.w3.org/1999/xlink" x="0px" y="0px"
	 viewBox="0 0 24 24" style="enable-background:new 0 0 24 24;" xml:space="preserve">
<style type="text/css">
	.st0{fill:#FFFFFF;}
</style>
<path d="M5.3,1.9c-1.9,0-3.4,1.5-3.4,3.4v13.4c0,1.9,1.5,3.4,3.4,3.4h13.4c1.9,0,3.4-1.5,3.4-3.4V5.3c0-1.9-1.5-3.4-3.4-3.4H5.3z"/>
<polygon class="st0" points="6.3,6.2 10.1,6.2 12.8,10.1 16.1,6.2 17.3,6.2 13.3,10.9 18.2,17.8 14.4,17.8 11.2,13.3 7.4,17.8 
	6.2,17.8 10.7,12.5 "/>
<polygon points="8.1,7.2 14.9,16.8 16.4,16.8 9.6,7.2 "/>
</svg>
