<svg xmlns="http://www.w3.org/2000/svg" width="30" height="30" viewBox="0 0 30 30" fill="none">
  <path d="M26.2499 7.76813C25.423 8.13437 24.5337 8.37875 23.5955 8.49437C24.5493 7.92812 25.283 7.025 25.6274 5.95812C24.7349 6.48125 23.7462 6.86563 22.6943 7.06813C21.8543 6.1775 20.6562 5.625 19.3287 5.625C16.7787 5.625 14.7118 7.67375 14.7118 10.2C14.7118 10.5575 14.7537 10.9056 14.8324 11.2437C10.9962 11.0512 7.59367 9.2275 5.31742 6.46C4.91742 7.13625 4.69242 7.92813 4.69242 8.76375C4.69242 10.3519 5.50555 11.75 6.74555 12.5738C5.98867 12.5506 5.27617 12.34 4.65242 12.0025C4.65242 12.0163 4.65242 12.0369 4.65242 12.0563C4.65242 14.2756 6.2443 16.1238 8.3543 16.5444C7.96867 16.65 7.56117 16.7087 7.14117 16.7087C6.84305 16.7087 6.55242 16.675 6.27117 16.6244C6.85867 18.4381 8.56305 19.7638 10.5824 19.8031C9.00242 21.0281 7.01242 21.7619 4.84867 21.7619C4.47492 21.7619 4.1093 21.7406 3.74805 21.6969C5.79242 22.9913 8.21992 23.75 10.8255 23.75C19.3162 23.75 23.9612 16.7775 23.9612 10.7288C23.9612 10.5306 23.9549 10.3331 23.9455 10.1381C24.8518 9.49813 25.633 8.69062 26.2499 7.76813Z" fill="#03A9F4"/>
</svg>