<svg width="60" height="60" viewBox="0 0 60 60" fill="none" xmlns="http://www.w3.org/2000/svg">
<circle cx="30" cy="30" r="30" fill="#3D2644"/>
<path d="M41.6667 45H18.3333C16.4925 45 15 43.5075 15 41.6667V18.3333C15 16.4925 16.4925 15 18.3333 15H41.6667C43.5075 15 45 16.4925 45 18.3333V41.6667C45 43.5075 43.5075 45 41.6667 45Z" fill="white"/>
<path d="M38.5468 38.3334H33.1826L21.5234 21.6667H26.8876L38.5468 38.3334ZM33.8218 36.9201H35.9576L26.2484 23.0801H24.1126L33.8218 36.9201Z" fill="#3D2644"/>
<path d="M23.222 38.3333L29.2245 31.3799L28.4395 30.3391L21.5195 38.3333H23.222Z" fill="#3D2644"/>
<path d="M30.375 28.1009L31.1292 29.175L37.6133 21.6667H35.9467L30.375 28.1009Z" fill="#3D2644"/>
</svg>
