<svg width="60" height="60" viewBox="0 0 60 60" fill="none" xmlns="http://www.w3.org/2000/svg">
<circle cx="30" cy="30" r="30" fill="#3D2644"/>
<path d="M44.795 33.2983L37.7492 41.3808C37.5908 41.5625 37.3617 41.6666 37.1208 41.6666H31.975C31.7758 41.6666 31.5833 41.7375 31.4325 41.8675L26.0675 46.4666C25.9167 46.5958 25.7242 46.6666 25.525 46.6666H24.1667C23.7067 46.6666 23.3333 46.2933 23.3333 45.8333V42.5C23.3333 42.04 22.96 41.6666 22.5 41.6666H15.8333C15.3733 41.6666 15 41.2933 15 40.8333V23.2858C15 23.1558 15.03 23.0283 15.0883 22.9125L18.4058 16.2933C18.5475 16.0116 18.8358 15.8333 19.1508 15.8333H44.1667C44.6267 15.8333 45 16.2066 45 16.6666V32.7508C45 32.9525 44.9275 33.1466 44.795 33.2983Z" fill="#8343C8"/>
<path d="M42.5 31.9741C41.1108 33.5383 39.7225 35.1025 38.3333 36.6666C36.3892 36.6666 34.4442 36.6666 32.5 36.6666C30.5558 38.3333 28.6108 40 26.6667 41.6666C26.6667 40 26.6667 38.3333 26.6667 36.6666C24.4442 36.66 22.2225 36.6533 20 36.6466C20 30.5416 20 24.4375 20 18.3333C27.5 18.3333 35 18.3333 42.5 18.3333C42.5 22.88 42.5 27.4266 42.5 31.9741Z" fill="#FAFAFA"/>
<path d="M30 23.3333H27.5V31.6666H30V23.3333Z" fill="#8343C8"/>
<path d="M37.5 23.3333H35V31.6666H37.5V23.3333Z" fill="#8343C8"/>
</svg>
