<svg width="60" height="60" viewBox="0 0 60 60" fill="none" xmlns="http://www.w3.org/2000/svg">
<circle cx="30" cy="30" r="30" fill="#380A24"/>
<path d="M22.5 42.5C21.8125 42.5 21.224 42.2552 20.7344 41.7656C20.2448 41.276 20 40.6875 20 40V27.5C20 26.8125 20.2448 26.224 20.7344 25.7344C21.224 25.2448 21.8125 25 22.5 25H23.75V22.5C23.75 20.7708 24.3594 19.2969 25.5781 18.0781C26.7969 16.8594 28.2708 16.25 30 16.25C31.7292 16.25 33.2031 16.8594 34.4219 18.0781C35.6406 19.2969 36.25 20.7708 36.25 22.5V25H37.5C38.1875 25 38.776 25.2448 39.2656 25.7344C39.7552 26.224 40 26.8125 40 27.5V40C40 40.6875 39.7552 41.276 39.2656 41.7656C38.776 42.2552 38.1875 42.5 37.5 42.5H22.5ZM30 36.25C30.6875 36.25 31.276 36.0052 31.7656 35.5156C32.2552 35.026 32.5 34.4375 32.5 33.75C32.5 33.0625 32.2552 32.474 31.7656 31.9844C31.276 31.4948 30.6875 31.25 30 31.25C29.3125 31.25 28.724 31.4948 28.2344 31.9844C27.7448 32.474 27.5 33.0625 27.5 33.75C27.5 34.4375 27.7448 35.026 28.2344 35.5156C28.724 36.0052 29.3125 36.25 30 36.25ZM26.25 25H33.75V22.5C33.75 21.4583 33.3854 20.5729 32.6562 19.8438C31.9271 19.1146 31.0417 18.75 30 18.75C28.9583 18.75 28.0729 19.1146 27.3438 19.8438C26.6146 20.5729 26.25 21.4583 26.25 22.5V25Z" fill="#F71756"/>
</svg>
