<svg width="20" height="21" viewBox="0 0 20 21" fill="none" xmlns="http://www.w3.org/2000/svg">
<path d="M4.4001 1.71753C2.8537 1.71753 1.6001 2.97113 1.6001 4.51753V15.7175C1.6001 17.2639 2.8537 18.5175 4.4001 18.5175H15.6001C17.1465 18.5175 18.4001 17.2639 18.4001 15.7175V4.51753C18.4001 2.97113 17.1465 1.71753 15.6001 1.71753H4.4001ZM5.23447 5.31753H8.40947L10.6642 8.52144L13.4001 5.31753H14.4001L11.1157 9.16284L15.1657 14.9175H11.9915L9.3751 11.2003L6.2001 14.9175H5.2001L8.92354 10.5589L5.23447 5.31753ZM6.76572 6.11753L12.4087 14.1175H13.6345L7.9915 6.11753H6.76572Z" fill="white" fill-opacity="0.5"/>
</svg>
