<svg xmlns="http://www.w3.org/2000/svg" width="24" height="24" viewBox="0 0 24 24" fill="none">
  <path d="M4.14688 11.95L8.54688 16.35C8.69688 16.5 8.76771 16.675 8.75938 16.875C8.75104 17.075 8.67188 17.25 8.52187 17.4C8.37188 17.55 8.19271 17.625 7.98438 17.625C7.77604 17.625 7.59688 17.55 7.44688 17.4L2.52188 12.475C2.43854 12.3917 2.38021 12.3083 2.34688 12.225C2.31354 12.1417 2.29688 12.05 2.29688 11.95C2.29688 11.85 2.31354 11.7583 2.34688 11.675C2.38021 11.5917 2.43854 11.5083 2.52188 11.425L7.52187 6.42501C7.67188 6.27501 7.85104 6.20001 8.05938 6.20001C8.26771 6.20001 8.44688 6.27501 8.59688 6.42501C8.74688 6.57501 8.82188 6.75418 8.82188 6.96251C8.82188 7.17085 8.74688 7.35001 8.59688 7.50001L4.14688 11.95ZM19.8469 11.95L15.4469 7.55001C15.2969 7.40001 15.226 7.22501 15.2344 7.02501C15.2427 6.82501 15.3219 6.65001 15.4719 6.50001C15.6219 6.35001 15.801 6.27501 16.0094 6.27501C16.2177 6.27501 16.3969 6.35001 16.5469 6.50001L21.4719 11.425C21.5552 11.5083 21.6135 11.5917 21.6469 11.675C21.6802 11.7583 21.6969 11.85 21.6969 11.95C21.6969 12.05 21.6802 12.1417 21.6469 12.225C21.6135 12.3083 21.5552 12.3917 21.4719 12.475L16.4719 17.475C16.3219 17.625 16.1469 17.6958 15.9469 17.6875C15.7469 17.6792 15.5719 17.6 15.4219 17.45C15.2719 17.3 15.1969 17.1208 15.1969 16.9125C15.1969 16.7042 15.2719 16.525 15.4219 16.375L19.8469 11.95Z" fill="#948798"/>
</svg>