<svg width="20" height="20" viewBox="0 0 20 20" fill="none" xmlns="http://www.w3.org/2000/svg">
<path fill-rule="evenodd" clip-rule="evenodd" d="M13.6766 2.93195L13.6757 2.30726C13.6749 1.94078 13.3952 1.66592 13.0414 1.66675C12.6794 1.66758 12.4078 1.94245 12.4087 2.30893L12.4095 2.89197L7.52221 2.89863L7.52139 2.31559C7.52057 1.94911 7.24905 1.67425 6.88703 1.67508C6.52501 1.67508 6.2535 1.95077 6.25432 2.31726L6.25514 2.94194C3.95961 3.15267 2.49671 4.71272 2.50001 7.12735L2.50636 12.0001H8.34C8.70451 12.0001 9 12.2956 9 12.6601V18.3305L13.2265 18.3251C15.8602 18.3209 17.5033 16.7117 17.5 14.0964L17.4909 7.07487C17.4885 4.67608 15.9721 3.11186 13.6766 2.93195ZM16.2247 7.36806L3.7679 7.38472L3.76708 7.12568C3.76461 5.31909 4.65238 4.37623 6.25679 4.21547L6.25761 4.85682C6.25761 5.21581 6.52995 5.49816 6.89197 5.49733C7.25399 5.49733 7.52468 5.21414 7.52468 4.85515L7.52386 4.18132L12.4111 4.17466L12.412 4.84932C12.412 5.20748 12.6843 5.49067 13.0463 5.48984C13.4001 5.48984 13.679 5.20581 13.679 4.84766L13.6782 4.20631C15.2908 4.34624 16.1893 5.28577 16.2247 7.07654V7.36806ZM12.6999 11.1795V11.1703C12.6991 10.7872 12.9953 10.479 13.3738 10.4707C13.7432 10.4698 14.0402 10.7689 14.0575 11.1353C14.0657 11.5185 13.7704 11.8358 13.4001 11.845C13.0208 11.8533 12.7082 11.5626 12.6999 11.1795ZM12.695 14.203C12.6958 14.5861 13.0011 14.9018 13.3795 14.9101C13.7654 14.9093 14.0781 14.5919 14.0772 14.2005C14.0772 13.809 13.7638 13.4933 13.3771 13.4933H13.3688C12.9904 13.5025 12.6868 13.8198 12.695 14.203ZM10.0185 11.8491C9.64003 11.8658 9.32655 11.5668 9.3101 11.1837C9.30928 10.8005 9.60547 10.4832 9.98395 10.4665C10.3542 10.4657 10.6586 10.7572 10.6677 11.132C10.6841 11.5152 10.3888 11.8317 10.0185 11.8491ZM9.31339 14.2071C9.33067 14.5903 9.64332 14.8893 10.0218 14.8726C10.392 14.8551 10.6882 14.5386 10.671 14.1547C10.6627 13.7807 10.3575 13.4892 9.98724 13.49C9.60877 13.5075 9.31339 13.824 9.31339 14.2071ZM6.62868 11.8783C6.25021 11.8958 5.93673 11.5959 5.92027 11.2128C5.91945 10.8297 6.21483 10.5123 6.5933 10.4957C6.96437 10.4948 7.2688 10.7863 7.27703 11.1612C7.2943 11.5443 6.99893 11.8616 6.62868 11.8783Z" fill="#FDEB56"/>
<path d="M3 15.6133L4.99983 14M4.99983 14L7 15.6133M4.99983 14L4.99997 18" stroke="#FDEB56" stroke-linecap="round" stroke-linejoin="round"/>
</svg>
