<svg width="94" height="20" viewBox="0 0 94 20" fill="none" xmlns="http://www.w3.org/2000/svg">
<path fill-rule="evenodd" clip-rule="evenodd" d="M13.6766 2.93195L13.6757 2.30726C13.6749 1.94078 13.3952 1.66592 13.0414 1.66675C12.6794 1.66758 12.4078 1.94245 12.4087 2.30893L12.4095 2.89197L7.52221 2.89863L7.52139 2.31559C7.52057 1.94911 7.24905 1.67425 6.88703 1.67508C6.52501 1.67508 6.2535 1.95078 6.25432 2.31726L6.25514 2.94195C3.95961 3.15267 2.49671 4.71273 2.50001 7.12735L2.50636 12.0001H8.34C8.70451 12.0001 9 12.2956 9 12.6601V18.3305L13.2265 18.3251C15.8602 18.3209 17.5033 16.7117 17.5 14.0964L17.4909 7.07488C17.4885 4.67608 15.9721 3.11186 13.6766 2.93195ZM16.2247 7.36806L3.7679 7.38472L3.76708 7.12568C3.76461 5.31909 4.65238 4.37623 6.25679 4.21548L6.25761 4.85682C6.25761 5.21581 6.52995 5.49817 6.89197 5.49733C7.25399 5.49733 7.52468 5.21414 7.52468 4.85515L7.52386 4.18133L12.4111 4.17466L12.412 4.84932C12.412 5.20748 12.6843 5.49067 13.0463 5.48984C13.4001 5.48984 13.679 5.20581 13.679 4.84766L13.6782 4.20631C15.2908 4.34624 16.1893 5.28577 16.2247 7.07654V7.36806ZM12.6999 11.1795V11.1703C12.6991 10.7872 12.9953 10.479 13.3738 10.4707C13.7432 10.4698 14.0402 10.7689 14.0575 11.1353C14.0657 11.5185 13.7704 11.8358 13.4001 11.845C13.0208 11.8533 12.7082 11.5626 12.6999 11.1795ZM12.695 14.203C12.6958 14.5861 13.0011 14.9018 13.3795 14.9101C13.7654 14.9093 14.0781 14.5919 14.0772 14.2005C14.0772 13.809 13.7638 13.4933 13.3771 13.4933H13.3688C12.9904 13.5025 12.6868 13.8198 12.695 14.203ZM10.0185 11.8492C9.64003 11.8658 9.32655 11.5668 9.3101 11.1837C9.30928 10.8005 9.60547 10.4832 9.98395 10.4665C10.3542 10.4657 10.6586 10.7572 10.6677 11.132C10.6841 11.5152 10.3888 11.8317 10.0185 11.8492ZM9.31339 14.2071C9.33067 14.5903 9.64332 14.8893 10.0218 14.8726C10.392 14.8551 10.6882 14.5386 10.671 14.1547C10.6627 13.7807 10.3575 13.4892 9.98724 13.49C9.60877 13.5075 9.31339 13.824 9.31339 14.2071ZM6.62868 11.8783C6.25021 11.8958 5.93673 11.5959 5.92027 11.2128C5.91945 10.8297 6.21483 10.5123 6.5933 10.4957C6.96437 10.4948 7.2688 10.7864 7.27703 11.1612C7.2943 11.5443 6.99893 11.8616 6.62868 11.8783Z" fill="#FDEB56"/>
<path d="M3 15.6133L4.99983 14M4.99983 14L7 15.6133M4.99983 14L4.99997 18" stroke="#FDEB56" stroke-linecap="round" stroke-linejoin="round"/>
<path d="M35.266 12.758C34.5753 13.374 33.684 13.682 32.592 13.682C31.5 13.682 30.6087 13.374 29.918 12.758C29.2273 12.1327 28.882 11.2973 28.882 10.252V3.7H30.492V10.154C30.492 10.7513 30.6647 11.2273 31.01 11.582C31.3647 11.9367 31.892 12.114 32.592 12.114C33.292 12.114 33.8147 11.9367 34.16 11.582C34.5147 11.2273 34.692 10.7513 34.692 10.154V3.7H36.302V10.252C36.302 11.2973 35.9567 12.1327 35.266 12.758ZM42.0178 6.318C42.9792 6.318 43.8005 6.67733 44.4818 7.396C45.1632 8.10533 45.5038 8.97333 45.5038 10C45.5038 11.036 45.1632 11.9087 44.4818 12.618C43.8005 13.3273 42.9792 13.682 42.0178 13.682C40.9538 13.682 40.1372 13.29 39.5678 12.506V16.3H38.0558V6.5H39.5678V7.508C40.1372 6.71467 40.9538 6.318 42.0178 6.318ZM40.1978 11.61C40.6178 12.03 41.1452 12.24 41.7798 12.24C42.4145 12.24 42.9418 12.03 43.3618 11.61C43.7818 11.1807 43.9918 10.644 43.9918 10C43.9918 9.356 43.7818 8.824 43.3618 8.404C42.9418 7.97467 42.4145 7.76 41.7798 7.76C41.1452 7.76 40.6178 7.97467 40.1978 8.404C39.7778 8.824 39.5678 9.356 39.5678 10C39.5678 10.644 39.7778 11.1807 40.1978 11.61ZM50.1782 13.682C49.1235 13.682 48.2415 13.3273 47.5322 12.618C46.8322 11.9087 46.4822 11.036 46.4822 10C46.4822 8.95467 46.8322 8.082 47.5322 7.382C48.2415 6.67267 49.1235 6.318 50.1782 6.318C50.8595 6.318 51.4802 6.48133 52.0402 6.808C52.6002 7.13467 53.0202 7.57333 53.3002 8.124L51.9982 8.88C51.8395 8.544 51.5969 8.28267 51.2702 8.096C50.9529 7.9 50.5842 7.802 50.1642 7.802C49.5482 7.802 49.0302 8.012 48.6102 8.432C48.1995 8.852 47.9942 9.37467 47.9942 10C47.9942 10.6253 48.1995 11.148 48.6102 11.568C49.0302 11.988 49.5482 12.198 50.1642 12.198C50.5749 12.198 50.9435 12.1 51.2702 11.904C51.6062 11.708 51.8582 11.4467 52.0262 11.12L53.3282 11.862C53.0295 12.422 52.6002 12.8653 52.0402 13.192C51.4802 13.5187 50.8595 13.682 50.1782 13.682ZM57.6157 13.682C56.589 13.682 55.7164 13.3273 54.9977 12.618C54.279 11.9087 53.9197 11.036 53.9197 10C53.9197 8.964 54.279 8.09133 54.9977 7.382C55.7164 6.67267 56.589 6.318 57.6157 6.318C58.6517 6.318 59.5244 6.67267 60.2337 7.382C60.9524 8.09133 61.3117 8.964 61.3117 10C61.3117 11.036 60.9524 11.9087 60.2337 12.618C59.5244 13.3273 58.6517 13.682 57.6157 13.682ZM56.0617 11.582C56.4817 12.002 56.9997 12.212 57.6157 12.212C58.2317 12.212 58.7497 12.002 59.1697 11.582C59.5897 11.162 59.7997 10.6347 59.7997 10C59.7997 9.36533 59.5897 8.838 59.1697 8.418C58.7497 7.998 58.2317 7.788 57.6157 7.788C56.9997 7.788 56.4817 7.998 56.0617 8.418C55.6417 8.838 55.4317 9.36533 55.4317 10C55.4317 10.6347 55.6417 11.162 56.0617 11.582ZM70.3229 6.318C71.1162 6.318 71.7555 6.57467 72.2409 7.088C72.7262 7.60133 72.9689 8.292 72.9689 9.16V13.5H71.4569V9.258C71.4569 8.77267 71.3355 8.39933 71.0929 8.138C70.8502 7.86733 70.5189 7.732 70.0989 7.732C69.6322 7.732 69.2589 7.886 68.9789 8.194C68.7082 8.502 68.5729 8.964 68.5729 9.58V13.5H67.0609V9.258C67.0609 8.77267 66.9442 8.39933 66.7109 8.138C66.4869 7.86733 66.1649 7.732 65.7449 7.732C65.2875 7.732 64.9142 7.89067 64.6249 8.208C64.3355 8.516 64.1909 8.97333 64.1909 9.58V13.5H62.6789V6.5H64.1909V7.34C64.6389 6.65867 65.3062 6.318 66.1929 6.318C67.0889 6.318 67.7515 6.68667 68.1809 7.424C68.6475 6.68667 69.3615 6.318 70.3229 6.318ZM76.0151 5.17C75.8284 5.35667 75.6044 5.45 75.3431 5.45C75.0817 5.45 74.8531 5.35667 74.6571 5.17C74.4704 4.974 74.3771 4.74533 74.3771 4.484C74.3771 4.22267 74.4704 3.99867 74.6571 3.812C74.8437 3.616 75.0724 3.518 75.3431 3.518C75.6137 3.518 75.8424 3.616 76.0291 3.812C76.2157 3.99867 76.3091 4.22267 76.3091 4.484C76.3091 4.74533 76.2111 4.974 76.0151 5.17ZM74.5871 13.5V6.5H76.0991V13.5H74.5871ZM81.5367 6.318C82.3393 6.318 82.988 6.57467 83.4827 7.088C83.9773 7.60133 84.2247 8.306 84.2247 9.202V13.5H82.7127V9.356C82.7127 8.83333 82.5727 8.432 82.2927 8.152C82.0127 7.872 81.63 7.732 81.1447 7.732C80.6127 7.732 80.1833 7.9 79.8567 8.236C79.53 8.56267 79.3667 9.06667 79.3667 9.748V13.5H77.8547V6.5H79.3667V7.396C79.824 6.67733 80.5473 6.318 81.5367 6.318ZM91.4247 6.5H92.9087V13.178C92.9087 14.242 92.5587 15.0587 91.8587 15.628C91.1587 16.1973 90.3094 16.482 89.3107 16.482C87.696 16.482 86.59 15.9173 85.9927 14.788L87.2947 14.032C87.6587 14.7507 88.34 15.11 89.3387 15.11C89.992 15.11 90.5007 14.9373 90.8647 14.592C91.238 14.256 91.4247 13.7847 91.4247 13.178V12.324C90.8554 13.136 90.0434 13.542 88.9887 13.542C87.9994 13.542 87.164 13.192 86.4827 12.492C85.8014 11.7827 85.4607 10.9287 85.4607 9.93C85.4607 8.93133 85.8014 8.082 86.4827 7.382C87.164 6.67267 87.9994 6.318 88.9887 6.318C90.0434 6.318 90.8554 6.724 91.4247 7.536V6.5ZM87.6027 11.498C88.032 11.918 88.564 12.128 89.1987 12.128C89.8334 12.128 90.3607 11.918 90.7807 11.498C91.21 11.078 91.4247 10.5553 91.4247 9.93C91.4247 9.30467 91.21 8.782 90.7807 8.362C90.3607 7.942 89.8334 7.732 89.1987 7.732C88.564 7.732 88.032 7.942 87.6027 8.362C87.1827 8.782 86.9727 9.30467 86.9727 9.93C86.9727 10.5553 87.1827 11.078 87.6027 11.498Z" fill="#FDEB56"/>
</svg>
