<svg width="24" height="24" viewBox="0 0 24 24" fill="none" xmlns="http://www.w3.org/2000/svg">
<path d="M5.82505 16L7.70005 17.875C7.88338 18.0583 7.97505 18.2875 7.97505 18.5625C7.97505 18.8375 7.88338 19.075 7.70005 19.275C7.50005 19.475 7.26255 19.575 6.98755 19.575C6.71255 19.575 6.47505 19.475 6.27505 19.275L2.70005 15.7C2.60005 15.6 2.52922 15.4917 2.48755 15.375C2.44588 15.2583 2.42505 15.1333 2.42505 15C2.42505 14.8667 2.44588 14.7417 2.48755 14.625C2.52922 14.5083 2.60005 14.4 2.70005 14.3L6.30005 10.7C6.50005 10.5 6.73338 10.4042 7.00005 10.4125C7.26672 10.4208 7.50005 10.525 7.70005 10.725C7.88338 10.925 7.97922 11.1583 7.98755 11.425C7.99588 11.6917 7.90005 11.925 7.70005 12.125L5.82505 14H12C12.2834 14 12.5209 14.0958 12.7125 14.2875C12.9042 14.4792 13 14.7167 13 15C13 15.2833 12.9042 15.5208 12.7125 15.7125C12.5209 15.9042 12.2834 16 12 16H5.82505ZM18.175 9.99999H12C11.7167 9.99999 11.4792 9.90415 11.2875 9.71249C11.0959 9.52082 11 9.28332 11 8.99999C11 8.71665 11.0959 8.47915 11.2875 8.28749C11.4792 8.09582 11.7167 7.99999 12 7.99999H18.175L16.3 6.12499C16.1167 5.94165 16.025 5.71249 16.025 5.43749C16.025 5.16249 16.1167 4.92499 16.3 4.72499C16.5 4.52499 16.7375 4.42499 17.0125 4.42499C17.2875 4.42499 17.525 4.52499 17.725 4.72499L21.3 8.29999C21.4 8.39999 21.4709 8.50832 21.5125 8.62499C21.5542 8.74165 21.575 8.86665 21.575 8.99999C21.575 9.13332 21.5542 9.25832 21.5125 9.37499C21.4709 9.49165 21.4 9.59999 21.3 9.69999L17.7 13.3C17.5 13.5 17.2667 13.5958 17 13.5875C16.7334 13.5792 16.5 13.475 16.3 13.275C16.1167 13.075 16.0209 12.8417 16.0125 12.575C16.0042 12.3083 16.1 12.075 16.3 11.875L18.175 9.99999Z" fill="#FDEB56"/>
</svg>
