<svg xmlns="http://www.w3.org/2000/svg" width="35" height="34" viewBox="0 0 35 34" fill="none">
  <path d="M8.28906 28.3332C7.7224 28.3332 7.22656 28.1207 6.80156 27.6957C6.37656 27.2707 6.16406 26.7749 6.16406 26.2082V22.2061C6.16406 21.9051 6.26648 21.6528 6.4713 21.4491C6.67615 21.2455 6.92997 21.1436 7.23276 21.1436C7.53557 21.1436 7.78733 21.2455 7.98802 21.4491C8.18872 21.6528 8.28906 21.9051 8.28906 22.2061V26.2082H26.7057V22.2061C26.7057 21.9051 26.8081 21.6528 27.013 21.4491C27.2178 21.2455 27.4716 21.1436 27.7744 21.1436C28.0772 21.1436 28.329 21.2455 28.5297 21.4491C28.7304 21.6528 28.8307 21.9051 28.8307 22.2061V26.2082C28.8307 26.7749 28.6182 27.2707 28.1932 27.6957C27.7682 28.1207 27.2724 28.3332 26.7057 28.3332H8.28906ZM16.4349 9.77489L12.9286 13.2811C12.7209 13.4936 12.4741 13.594 12.1884 13.5822C11.9027 13.5704 11.649 13.4582 11.4273 13.2457C11.224 13.0332 11.1224 12.7794 11.1224 12.4843C11.1224 12.1891 11.2286 11.9353 11.4411 11.7228L16.7536 6.4103C16.8717 6.29225 16.9913 6.20961 17.1125 6.16239C17.2337 6.11516 17.3636 6.09155 17.5021 6.09155C17.6406 6.09155 17.7689 6.11516 17.887 6.16239C18.005 6.20961 18.1231 6.29225 18.2411 6.4103L23.5891 11.7582C23.8016 11.9707 23.9078 12.2186 23.9078 12.502C23.9078 12.7853 23.8062 13.0332 23.6029 13.2457C23.3812 13.4582 23.1227 13.5645 22.8276 13.5645C22.5325 13.5645 22.2786 13.4582 22.0661 13.2457L18.5599 9.77489V21.852C18.5599 22.153 18.4575 22.4054 18.2527 22.609C18.0478 22.8126 17.794 22.9145 17.4912 22.9145C17.1884 22.9145 16.9366 22.8126 16.7359 22.609C16.5352 22.4054 16.4349 22.153 16.4349 21.852V9.77489Z" fill="#68566E"/>
</svg>