<svg width="18" height="19" viewBox="0 0 18 19" fill="none" xmlns="http://www.w3.org/2000/svg">
<g id="upload_FILL0_wght400_GRAD0_opsz24 (1) 1">
<path id="Vector" d="M4.5 15.5C4.0875 15.5 3.73438 15.3531 3.44063 15.0594C3.14687 14.7656 3 14.4125 3 14V12.5C3 12.2875 3.07188 12.1094 3.21563 11.9656C3.35938 11.8218 3.5375 11.75 3.75 11.75C3.9625 11.75 4.14062 11.8218 4.28438 11.9656C4.42813 12.1094 4.5 12.2875 4.5 12.5V14H13.5V12.5C13.5 12.2875 13.5719 12.1094 13.7156 11.9656C13.8594 11.8218 14.0375 11.75 14.25 11.75C14.4625 11.75 14.6406 11.8218 14.7844 11.9656C14.9281 12.1094 15 12.2875 15 12.5V14C15 14.4125 14.8531 14.7656 14.5594 15.0594C14.2656 15.3531 13.9125 15.5 13.5 15.5H4.5ZM8.25 6.38748L6.84375 7.79373C6.69375 7.94373 6.51563 8.0156 6.30938 8.00935C6.10313 8.0031 5.925 7.92498 5.775 7.77498C5.6375 7.62498 5.56563 7.44998 5.55938 7.24998C5.55313 7.04998 5.625 6.87498 5.775 6.72498L8.475 4.02498C8.55 3.94998 8.63125 3.89685 8.71875 3.8656C8.80625 3.83435 8.9 3.81873 9 3.81873C9.1 3.81873 9.19375 3.83435 9.28125 3.8656C9.36875 3.89685 9.45 3.94998 9.525 4.02498L12.225 6.72498C12.375 6.87498 12.4469 7.04998 12.4406 7.24998C12.4344 7.44998 12.3625 7.62498 12.225 7.77498C12.075 7.92498 11.8969 8.0031 11.6906 8.00935C11.4844 8.0156 11.3063 7.94373 11.1562 7.79373L9.75 6.38748V11.75C9.75 11.9625 9.67813 12.1406 9.53438 12.2844C9.39063 12.4281 9.2125 12.5 9 12.5C8.7875 12.5 8.60938 12.4281 8.46563 12.2844C8.32188 12.1406 8.25 11.9625 8.25 11.75V6.38748Z" fill="#D4CFD6"/>
</g>
</svg>
