<svg width="25" height="24" viewBox="0 0 25 24" fill="none" xmlns="http://www.w3.org/2000/svg">
<g id="upload_FILL0_wght400_GRAD0_opsz24 (1) 1">
<path id="Vector" d="M6.5 20C5.95 20 5.47917 19.8042 5.0875 19.4125C4.69583 19.0208 4.5 18.55 4.5 18V16C4.5 15.7167 4.59583 15.4792 4.7875 15.2875C4.97917 15.0958 5.21667 15 5.5 15C5.78333 15 6.02083 15.0958 6.2125 15.2875C6.40417 15.4792 6.5 15.7167 6.5 16V18H18.5V16C18.5 15.7167 18.5958 15.4792 18.7875 15.2875C18.9792 15.0958 19.2167 15 19.5 15C19.7833 15 20.0208 15.0958 20.2125 15.2875C20.4042 15.4792 20.5 15.7167 20.5 16V18C20.5 18.55 20.3042 19.0208 19.9125 19.4125C19.5208 19.8042 19.05 20 18.5 20H6.5ZM11.5 7.84999L9.625 9.72499C9.425 9.92499 9.1875 10.0208 8.9125 10.0125C8.6375 10.0042 8.4 9.89999 8.2 9.69999C8.01667 9.49999 7.92083 9.26665 7.9125 8.99999C7.90417 8.73332 8 8.49999 8.2 8.29999L11.8 4.69999C11.9 4.59999 12.0083 4.52915 12.125 4.48749C12.2417 4.44582 12.3667 4.42499 12.5 4.42499C12.6333 4.42499 12.7583 4.44582 12.875 4.48749C12.9917 4.52915 13.1 4.59999 13.2 4.69999L16.8 8.29999C17 8.49999 17.0958 8.73332 17.0875 8.99999C17.0792 9.26665 16.9833 9.49999 16.8 9.69999C16.6 9.89999 16.3625 10.0042 16.0875 10.0125C15.8125 10.0208 15.575 9.92499 15.375 9.72499L13.5 7.84999V15C13.5 15.2833 13.4042 15.5208 13.2125 15.7125C13.0208 15.9042 12.7833 16 12.5 16C12.2167 16 11.9792 15.9042 11.7875 15.7125C11.5958 15.5208 11.5 15.2833 11.5 15V7.84999Z" fill="#1FD031"/>
</g>
</svg>
