<svg width="60" height="60" viewBox="0 0 60 60" fill="none" xmlns="http://www.w3.org/2000/svg">
<circle opacity="0.4" cx="30" cy="30" r="30" fill="#FDEB56"/>
<path fill-rule="evenodd" clip-rule="evenodd" d="M36.1742 18.75C37.8505 18.75 39.463 19.4125 40.6492 20.6012C41.8367 21.7875 42.5005 23.3875 42.5005 25.0625V34.9375C42.5005 38.425 39.663 41.25 36.1742 41.25H23.8255C20.3367 41.25 17.5005 38.425 17.5005 34.9375V25.0625C17.5005 21.575 20.3242 18.75 23.8255 18.75H36.1742ZM38.163 26.925L38.263 26.825C38.5617 26.4625 38.5617 25.9375 38.2492 25.575C38.0755 25.3887 37.8367 25.275 37.588 25.25C37.3255 25.2362 37.0755 25.325 36.8867 25.5L31.2505 30C30.5255 30.6013 29.4867 30.6013 28.7505 30L23.1255 25.5C22.7367 25.2125 22.1992 25.25 21.8755 25.5875C21.538 25.925 21.5005 26.4625 21.7867 26.8375L21.9505 27L27.638 31.4375C28.338 31.9875 29.1867 32.2875 30.0755 32.2875C30.9617 32.2875 31.8255 31.9875 32.5242 31.4375L38.163 26.925Z" fill="#FDEB56"/>
</svg>
