<svg xmlns="http://www.w3.org/2000/svg" width="18" height="18" viewBox="0 0 18 18" fill="none">
  <path d="M6.14447 16.5102L4.99093 14.5361L2.68386 14.0674C2.52543 14.0394 2.39411 13.9554 2.2899 13.8155C2.18569 13.6755 2.14608 13.5263 2.17108 13.3679L2.43358 11.1358L0.965795 9.4243C0.853833 9.30937 0.797852 9.16793 0.797852 8.99999C0.797852 8.83206 0.853833 8.69062 0.965795 8.57568L2.43358 6.88287L2.17108 4.6508C2.14608 4.49239 2.18569 4.3432 2.2899 4.20325C2.39411 4.0633 2.52543 3.97784 2.68386 3.94687L4.99093 3.4826L6.14447 1.48979C6.22843 1.34985 6.34888 1.25115 6.5058 1.19367C6.66274 1.1362 6.81893 1.14319 6.97436 1.21465L9.00017 2.16194L11.026 1.21465C11.1814 1.14618 11.3376 1.1368 11.4945 1.18653C11.6515 1.23627 11.7719 1.3311 11.8559 1.47104L13.0282 3.4826L15.3165 3.94687C15.4749 3.97784 15.6062 4.0633 15.7104 4.20325C15.8147 4.3432 15.8543 4.49239 15.8293 4.6508L15.5668 6.88287L17.0345 8.57568C17.1465 8.69062 17.2025 8.83206 17.2025 8.99999C17.2025 9.16793 17.1465 9.30937 17.0345 9.4243L15.5668 11.1359L15.8293 13.3679C15.8543 13.5263 15.8147 13.6755 15.7104 13.8155C15.6062 13.9554 15.4749 14.0394 15.3165 14.0674L13.0282 14.5361L11.8559 16.5289C11.7719 16.6689 11.6515 16.7637 11.4945 16.8135C11.3376 16.8632 11.1814 16.8538 11.026 16.7853L9.00017 15.838L6.97436 16.7853C6.81893 16.8538 6.66274 16.8601 6.5058 16.8041C6.34888 16.7481 6.22843 16.6501 6.14447 16.5102ZM8.19392 9.84537L6.8476 8.4383C6.72911 8.30732 6.58488 8.24184 6.41492 8.24184C6.24495 8.24184 6.09446 8.29958 5.96348 8.41507C5.8325 8.54904 5.76701 8.70027 5.76701 8.86874C5.76701 9.03722 5.8325 9.18695 5.96348 9.31794L7.74188 11.0776C7.86933 11.208 8.02001 11.2732 8.19392 11.2732C8.36783 11.2732 8.51851 11.208 8.64596 11.0776L12.0369 7.70544C12.1553 7.58994 12.2146 7.44646 12.2146 7.27499C12.2146 7.10353 12.1491 6.95856 12.0181 6.84007C11.8996 6.73708 11.7585 6.68871 11.5948 6.69496C11.4311 6.70121 11.2977 6.75732 11.1947 6.8633L8.19392 9.84537Z" fill="url(#paint0_linear_330_4399)"/>
  <defs>
    <linearGradient id="paint0_linear_330_4399" x1="0.797852" y1="1.15515" x2="18.5074" y2="2.80063" gradientUnits="userSpaceOnUse">
      <stop stop-color="#F71756"/>
      <stop offset="1" stop-color="#FDEB56"/>
    </linearGradient>
  </defs>
</svg>