<svg width="37" height="40" viewBox="0 0 37 40" fill="none" xmlns="http://www.w3.org/2000/svg">
<g id="Frame" clip-path="url(#clip0_2206_1332)">
<g id="Group">
<g id="Layer 1">
<path id="Vector" fill-rule="evenodd" clip-rule="evenodd" d="M35.7877 12.9822L35.2595 11.0109C34.9589 9.87292 34.3663 8.83011 33.5387 7.98241C32.2188 6.65937 29.5882 5.0952 27.9377 4.11706C25.7469 2.81986 23.4769 1.65701 21.1406 0.635149C20.2118 0.21663 19.2024 0 18.181 0C17.1595 0 16.1501 0.21663 15.2214 0.635149C12.885 1.65699 10.615 2.81984 8.42429 4.11706C6.77409 5.09467 4.14269 6.65983 2.82322 7.98241C1.9956 8.83011 1.40306 9.87293 1.10242 11.0109L0.574219 12.9822H35.7877Z" fill="url(#paint0_linear_2206_1332)"/>
<path id="Vector_2" fill-rule="evenodd" clip-rule="evenodd" d="M32.9565 8.94958C29.2961 6.33057 25.3667 4.09702 21.2327 2.28564C20.2749 1.85528 19.2343 1.63257 18.1815 1.63257C17.1287 1.63257 16.0881 1.85528 15.1303 2.28564C10.9963 4.097 7.06678 6.33055 3.40639 8.94958C2.54892 9.551 1.83273 10.3268 1.30632 11.2244C0.779908 12.1221 0.455568 13.1206 0.35526 14.1524C-0.11842 18.5828 -0.11842 23.0498 0.35526 27.4802C0.455562 28.512 0.779898 29.5105 1.30631 30.4081C1.83272 31.3058 2.54891 32.0816 3.40639 32.683C5.23256 33.9956 7.13016 35.209 9.09072 36.3178C11.0464 37.435 13.0626 38.4462 15.1303 39.3469C16.0881 39.7773 17.1286 40 18.1815 40C19.2343 40 20.2748 39.7773 21.2326 39.3469C23.3003 38.4462 25.3165 37.435 27.2722 36.3178C29.2328 35.209 31.1304 33.9956 32.9565 32.683C33.814 32.0816 34.5302 31.3058 35.0566 30.4081C35.583 29.5105 35.9074 28.512 36.0077 27.4802C36.4814 23.0498 36.4814 18.5828 36.0077 14.1524C35.9074 13.1206 35.583 12.1221 35.0566 11.2244C34.5302 10.3268 33.814 9.551 32.9565 8.94958Z" fill="url(#paint1_radial_2206_1332)"/>
<path id="Vector_3" fill-rule="evenodd" clip-rule="evenodd" d="M30.6679 12.0827C27.2416 9.63305 23.5645 7.54296 19.6965 5.84659C19.2389 5.63238 18.7386 5.52124 18.2319 5.52124C17.7252 5.52124 17.2249 5.63238 16.7673 5.84659C12.8993 7.54294 9.22211 9.63303 5.79587 12.0827C5.37865 12.3658 5.03073 12.7368 4.77738 13.1687C4.52404 13.6007 4.37164 14.0829 4.33127 14.5801C3.88958 18.7262 3.88958 22.9064 4.33127 27.0525C4.37165 27.5497 4.52405 28.0318 4.77739 28.4638C5.03074 28.8958 5.37865 29.2668 5.79587 29.5499C7.50455 30.7785 9.28059 31.9138 11.1159 32.9504C12.9455 33.9969 14.8321 34.9436 16.7673 35.786C17.2249 36.0002 17.7252 36.1114 18.2318 36.1114C18.7385 36.1114 19.2388 36.0002 19.6964 35.786C21.6316 34.9436 23.5183 33.9969 25.3478 32.9504C27.1831 31.9138 28.9592 30.7786 30.6679 29.5499C31.0851 29.2668 31.433 28.8959 31.6863 28.4639C31.9397 28.0319 32.0921 27.5498 32.1325 27.0525C32.5742 22.9064 32.5742 18.7262 32.1325 14.5802C32.0921 14.0829 31.9397 13.6008 31.6864 13.1688C31.433 12.7368 31.0851 12.3658 30.6679 12.0827Z" fill="url(#paint2_radial_2206_1332)"/>
<path id="Vector_4" fill-rule="evenodd" clip-rule="evenodd" d="M16.6911 34.7542C14.7206 33.8963 12.7994 32.9323 10.9363 31.8667C9.06741 30.8111 7.25887 29.6551 5.51894 28.4039C4.94959 28.0151 4.5106 27.4683 4.25781 26.8331C4.26575 26.9062 4.2738 26.9794 4.28194 27.0525C4.32232 27.5497 4.47473 28.0319 4.72807 28.4638C4.98141 28.8958 5.32933 29.2668 5.74654 29.5499C7.45523 30.7786 9.23127 31.9138 11.0666 32.9504C12.8961 33.9969 14.7828 34.9436 16.7179 35.786C17.1755 36.0003 17.6758 36.1114 18.1825 36.1114C18.6892 36.1114 19.1895 36.0003 19.6471 35.786C21.5823 34.9436 23.4689 33.997 25.2985 32.9504C27.1338 31.9138 28.9099 30.7786 30.6185 29.5499C31.0358 29.2669 31.3837 28.8959 31.637 28.4639C31.8904 28.0319 32.0428 27.5498 32.0831 27.0525C32.0913 26.9794 32.0994 26.9063 32.1073 26.8331C31.8545 27.4683 31.4155 28.0151 30.8461 28.4039C29.1062 29.6551 27.2977 30.8111 25.4288 31.8667C23.5657 32.9323 21.6445 33.8963 19.6739 34.7542C19.2079 34.9724 18.6985 35.0855 18.1825 35.0855C17.6666 35.0855 17.1571 34.9724 16.6911 34.7542Z" fill="url(#paint3_linear_2206_1332)"/>
</g>
<path id="Star 22" opacity="0.5" d="M18 12L19.7961 17.5279H25.6085L20.9062 20.9443L22.7023 26.4721L18 23.0557L13.2977 26.4721L15.0938 20.9443L10.3915 17.5279H16.2039L18 12Z" fill="white"/>
</g>
</g>
<defs>
<linearGradient id="paint0_linear_2206_1332" x1="0.574219" y1="6.49111" x2="35.7877" y2="6.49111" gradientUnits="userSpaceOnUse">
<stop stop-color="#AB430F"/>
<stop offset="0.22381" stop-color="#DB924C"/>
<stop offset="0.49416" stop-color="#F4C566"/>
<stop offset="0.49532" stop-color="#F3C365"/>
<stop offset="0.51591" stop-color="#DBA151"/>
<stop offset="0.53831" stop-color="#C78440"/>
<stop offset="0.56337" stop-color="#B76C32"/>
<stop offset="0.59175" stop-color="#AA5A27"/>
<stop offset="0.62535" stop-color="#A24D20"/>
<stop offset="0.66921" stop-color="#9C451B"/>
<stop offset="0.76191" stop-color="#9B431A"/>
<stop offset="1" stop-color="#63120D"/>
</linearGradient>
<radialGradient id="paint1_radial_2206_1332" cx="0" cy="0" r="1" gradientUnits="userSpaceOnUse" gradientTransform="translate(6.12333 0.983933) scale(47.8239 47.0826)">
<stop stop-color="#E0852F"/>
<stop offset="1" stop-color="#782E0E"/>
</radialGradient>
<radialGradient id="paint2_radial_2206_1332" cx="0" cy="0" r="1" gradientUnits="userSpaceOnUse" gradientTransform="translate(9.53713 4.64749) scale(36.5167 35.9507)">
<stop stop-color="#BD6026"/>
<stop offset="1" stop-color="#782E10"/>
</radialGradient>
<linearGradient id="paint3_linear_2206_1332" x1="4.25781" y1="31.4723" x2="32.1073" y2="31.4723" gradientUnits="userSpaceOnUse">
<stop stop-color="#9B431A"/>
<stop offset="0.2381" stop-color="#AD572D"/>
<stop offset="0.33489" stop-color="#AE592E"/>
<stop offset="0.38068" stop-color="#B36132"/>
<stop offset="0.41576" stop-color="#BC6E39"/>
<stop offset="0.44538" stop-color="#C78042"/>
<stop offset="0.47156" stop-color="#D7984F"/>
<stop offset="0.49495" stop-color="#E9B55E"/>
<stop offset="0.50584" stop-color="#F4C566"/>
<stop offset="0.77619" stop-color="#A4542C"/>
<stop offset="1" stop-color="#8A3906"/>
</linearGradient>
<clipPath id="clip0_2206_1332">
<rect width="36.3629" height="40" fill="white"/>
</clipPath>
</defs>
</svg>
