<svg width="73" height="24" viewBox="0 0 73 24" fill="none" xmlns="http://www.w3.org/2000/svg">
<path d="M57.5 18C56.95 18 56.4792 17.8042 56.0875 17.4125C55.6958 17.0208 55.5 16.55 55.5 16V4C55.5 3.45 55.6958 2.97917 56.0875 2.5875C56.4792 2.19583 56.95 2 57.5 2H66.5C67.05 2 67.5208 2.19583 67.9125 2.5875C68.3042 2.97917 68.5 3.45 68.5 4V16C68.5 16.55 68.3042 17.0208 67.9125 17.4125C67.5208 17.8042 67.05 18 66.5 18H57.5ZM53.5 22C52.95 22 52.4792 21.8042 52.0875 21.4125C51.6958 21.0208 51.5 20.55 51.5 20V7C51.5 6.71667 51.5958 6.47917 51.7875 6.2875C51.9792 6.09583 52.2167 6 52.5 6C52.7833 6 53.0208 6.09583 53.2125 6.2875C53.4042 6.47917 53.5 6.71667 53.5 7V20H63.5C63.7833 20 64.0208 20.0958 64.2125 20.2875C64.4042 20.4792 64.5 20.7167 64.5 21C64.5 21.2833 64.4042 21.5208 64.2125 21.7125C64.0208 21.9042 63.7833 22 63.5 22H53.5Z" fill="#7E6E83"/>
</svg>
