<svg width="36" height="36" viewBox="0 0 36 36" fill="none" xmlns="http://www.w3.org/2000/svg">
<circle cx="18" cy="18" r="18" fill="#FDEB56" fill-opacity="0.15"/>
<path d="M18 28C16.6333 28 15.3417 27.7375 14.125 27.2125C12.9083 26.6875 11.8458 25.9708 10.9375 25.0625C10.0292 24.1542 9.3125 23.0917 8.7875 21.875C8.2625 20.6583 8 19.3667 8 18C8 16.6167 8.2625 15.3208 8.7875 14.1125C9.3125 12.9042 10.0292 11.8458 10.9375 10.9375C11.8458 10.0292 12.9083 9.3125 14.125 8.7875C15.3417 8.2625 16.6333 8 18 8C19.3833 8 20.6792 8.2625 21.8875 8.7875C23.0958 9.3125 24.1542 10.0292 25.0625 10.9375C25.9708 11.8458 26.6875 12.9042 27.2125 14.1125C27.7375 15.3208 28 16.6167 28 18C28 19.3667 27.7375 20.6583 27.2125 21.875C26.6875 23.0917 25.9708 24.1542 25.0625 25.0625C24.1542 25.9708 23.0958 26.6875 21.8875 27.2125C20.6792 27.7375 19.3833 28 18 28ZM18 25.95C18.4333 25.35 18.8083 24.725 19.125 24.075C19.4417 23.425 19.7 22.7333 19.9 22H16.1C16.3 22.7333 16.5583 23.425 16.875 24.075C17.1917 24.725 17.5667 25.35 18 25.95ZM15.4 25.55C15.1 25 14.8375 24.4292 14.6125 23.8375C14.3875 23.2458 14.2 22.6333 14.05 22H11.1C11.5833 22.8333 12.1875 23.5583 12.9125 24.175C13.6375 24.7917 14.4667 25.25 15.4 25.55ZM20.6 25.55C21.5333 25.25 22.3625 24.7917 23.0875 24.175C23.8125 23.5583 24.4167 22.8333 24.9 22H21.95C21.8 22.6333 21.6125 23.2458 21.3875 23.8375C21.1625 24.4292 20.9 25 20.6 25.55ZM10.25 20H13.65C13.6 19.6667 13.5625 19.3375 13.5375 19.0125C13.5125 18.6875 13.5 18.35 13.5 18C13.5 17.65 13.5125 17.3125 13.5375 16.9875C13.5625 16.6625 13.6 16.3333 13.65 16H10.25C10.1667 16.3333 10.1042 16.6625 10.0625 16.9875C10.0208 17.3125 10 17.65 10 18C10 18.35 10.0208 18.6875 10.0625 19.0125C10.1042 19.3375 10.1667 19.6667 10.25 20ZM15.65 20H20.35C20.4 19.6667 20.4375 19.3375 20.4625 19.0125C20.4875 18.6875 20.5 18.35 20.5 18C20.5 17.65 20.4875 17.3125 20.4625 16.9875C20.4375 16.6625 20.4 16.3333 20.35 16H15.65C15.6 16.3333 15.5625 16.6625 15.5375 16.9875C15.5125 17.3125 15.5 17.65 15.5 18C15.5 18.35 15.5125 18.6875 15.5375 19.0125C15.5625 19.3375 15.6 19.6667 15.65 20ZM22.35 20H25.75C25.8333 19.6667 25.8958 19.3375 25.9375 19.0125C25.9792 18.6875 26 18.35 26 18C26 17.65 25.9792 17.3125 25.9375 16.9875C25.8958 16.6625 25.8333 16.3333 25.75 16H22.35C22.4 16.3333 22.4375 16.6625 22.4625 16.9875C22.4875 17.3125 22.5 17.65 22.5 18C22.5 18.35 22.4875 18.6875 22.4625 19.0125C22.4375 19.3375 22.4 19.6667 22.35 20ZM21.95 14H24.9C24.4167 13.1667 23.8125 12.4417 23.0875 11.825C22.3625 11.2083 21.5333 10.75 20.6 10.45C20.9 11 21.1625 11.5708 21.3875 12.1625C21.6125 12.7542 21.8 13.3667 21.95 14ZM16.1 14H19.9C19.7 13.2667 19.4417 12.575 19.125 11.925C18.8083 11.275 18.4333 10.65 18 10.05C17.5667 10.65 17.1917 11.275 16.875 11.925C16.5583 12.575 16.3 13.2667 16.1 14ZM11.1 14H14.05C14.2 13.3667 14.3875 12.7542 14.6125 12.1625C14.8375 11.5708 15.1 11 15.4 10.45C14.4667 10.75 13.6375 11.2083 12.9125 11.825C12.1875 12.4417 11.5833 13.1667 11.1 14Z" fill="#FDEB56"/>
</svg>
