<svg width="32" height="32" viewBox="0 0 32 32" fill="none" xmlns="http://www.w3.org/2000/svg">
<path d="M3.24609 28.8686L5.04209 22.3119C3.93409 20.3933 3.35143 18.2159 3.35209 15.9859C3.35543 9.00925 9.03276 3.33325 16.0101 3.33325C19.3961 3.33459 22.5734 4.65259 24.9634 7.04392C27.3528 9.43592 28.6688 12.6146 28.6674 15.9959C28.6648 22.9726 22.9861 28.6493 16.0101 28.6493H16.0048C13.8868 28.6486 11.8048 28.1173 9.95609 27.1086L3.24609 28.8686Z" fill="white"/>
<path d="M3.2471 29.202C3.1591 29.202 3.07377 29.1673 3.01044 29.1033C2.9271 29.0187 2.89444 28.8953 2.92577 28.7813L4.6851 22.3573C3.59444 20.42 3.0191 18.22 3.02044 15.9867C3.0231 8.82533 8.85044 3 16.0111 3C19.4844 3.00133 22.7478 4.354 25.2004 6.80867C27.6531 9.264 29.0031 12.5267 29.0018 15.996C28.9991 23.1567 23.1711 28.9827 16.0111 28.9827C13.8851 28.982 11.7818 28.4573 9.9151 27.4647L3.33177 29.1907C3.30377 29.1987 3.27577 29.202 3.2471 29.202Z" fill="white"/>
<path d="M16.0091 3.33341C19.3951 3.33475 22.5724 4.65275 24.9624 7.04408C27.3517 9.43608 28.6677 12.6147 28.6664 15.9961C28.6637 22.9727 22.9851 28.6494 16.0091 28.6494H16.0037C13.8857 28.6487 11.8037 28.1174 9.95506 27.1087L3.24507 28.8687L5.04107 22.3121C3.93307 20.3934 3.3504 18.2161 3.35107 15.9861C3.3544 9.00941 9.03173 3.33341 16.0091 3.33341ZM16.0091 2.66675C8.66507 2.66675 2.68773 8.64141 2.6844 15.9861C2.68373 18.2307 3.2504 20.4427 4.32507 22.4007L2.60173 28.6934C2.53907 28.9234 2.60307 29.1687 2.77107 29.3381C2.89773 29.4661 3.06907 29.5361 3.24507 29.5361C3.30173 29.5361 3.3584 29.5287 3.4144 29.5141L9.8724 27.8207C11.7577 28.7994 13.8711 29.3161 16.0037 29.3167C23.3531 29.3167 29.3304 23.3414 29.3337 15.9967C29.3351 12.4374 27.9504 9.09075 25.4351 6.57341C22.9184 4.05541 19.5711 2.66808 16.0091 2.66675Z" fill="#CFD8DC"/>
<path d="M23.4509 8.5547C21.4643 6.5667 18.8236 5.47137 16.0129 5.4707C10.2103 5.4707 5.49095 10.188 5.48828 15.9867C5.48762 17.974 6.04362 19.9087 7.09695 21.584L7.34762 21.982L6.28428 25.8627L10.2663 24.8187L10.6509 25.0467C12.2656 26.0054 14.1176 26.512 16.0056 26.5127H16.0096C21.8083 26.5127 26.5276 21.7947 26.5296 15.9954C26.5303 13.1854 25.4376 10.5427 23.4509 8.5547Z" fill="#40C351"/>
<path fill-rule="evenodd" clip-rule="evenodd" d="M12.8468 10.6966C12.6101 10.1699 12.3608 10.1593 12.1348 10.1499C11.9501 10.1419 11.7395 10.1426 11.5288 10.1426C11.3181 10.1426 10.9755 10.2219 10.6855 10.5386C10.3955 10.8553 9.57812 11.6199 9.57812 13.1759C9.57812 14.7319 10.7115 16.2359 10.8695 16.4466C11.0275 16.6573 13.0575 19.9526 16.2721 21.2206C18.9435 22.2739 19.4875 22.0646 20.0675 22.0119C20.6475 21.9593 21.9388 21.2473 22.2021 20.5086C22.4655 19.7699 22.4655 19.1373 22.3868 19.0053C22.3075 18.8733 22.0968 18.7946 21.7808 18.6359C21.4648 18.4773 19.9095 17.7126 19.6195 17.6073C19.3295 17.5019 19.1188 17.4493 18.9075 17.7659C18.6968 18.0819 18.0908 18.7946 17.9061 19.0053C17.7215 19.2166 17.5368 19.2433 17.2208 19.0846C16.9048 18.9259 15.8861 18.5926 14.6775 17.5153C13.7375 16.6773 13.1028 15.6419 12.9181 15.3253C12.7335 15.0093 12.8981 14.8379 13.0568 14.6799C13.1988 14.5379 13.3728 14.3106 13.5315 14.1259C13.6895 13.9413 13.7421 13.8093 13.8475 13.5986C13.9528 13.3873 13.9001 13.2026 13.8208 13.0446C13.7428 12.8859 13.1281 11.3219 12.8468 10.6966Z" fill="white"/>
</svg>
