<svg xmlns="http://www.w3.org/2000/svg" width="24" height="24" viewBox="0 0 24 24" fill="none">
  <path d="M5.02387 14.3C4.8072 14.0833 4.6947 13.8208 4.68637 13.5125C4.67804 13.2042 4.79054 12.95 5.02387 12.75C6.07387 11.8333 7.17387 11.1458 8.32387 10.6875C9.47387 10.2292 10.6989 10 11.9989 10C13.2989 10 14.5239 10.2292 15.6739 10.6875C16.8239 11.1458 17.9239 11.8333 18.9739 12.75C19.2072 12.95 19.3239 13.2 19.3239 13.5C19.3239 13.8 19.2072 14.0667 18.9739 14.3C18.7572 14.5167 18.4989 14.625 18.1989 14.625C17.8989 14.625 17.6322 14.525 17.3989 14.325C16.4989 13.575 15.603 13.0417 14.7114 12.725C13.8197 12.4083 12.9155 12.25 11.9989 12.25C11.0822 12.25 10.178 12.4083 9.28637 12.725C8.3947 13.0417 7.49887 13.575 6.59887 14.325C6.36554 14.525 6.09887 14.625 5.79887 14.625C5.49887 14.625 5.24054 14.5167 5.02387 14.3ZM0.798869 10.075C0.582202 9.85833 0.469702 9.59167 0.461369 9.275C0.453035 8.95833 0.565535 8.7 0.798869 8.5C2.31554 7.13333 4.02804 6.04167 5.93637 5.225C7.8447 4.40833 9.86554 4 11.9989 4C14.1322 4 16.153 4.40833 18.0614 5.225C19.9697 6.04167 21.6822 7.13333 23.1989 8.5C23.4322 8.7 23.5489 8.95417 23.5489 9.2625C23.5489 9.57083 23.4322 9.84167 23.1989 10.075C22.9822 10.2917 22.7197 10.4 22.4114 10.4C22.103 10.4 21.8322 10.3 21.5989 10.1C20.2155 8.91667 18.7239 7.97917 17.1239 7.2875C15.5239 6.59583 13.8155 6.25 11.9989 6.25C10.1822 6.25 8.47387 6.59583 6.87387 7.2875C5.27387 7.97917 3.7822 8.91667 2.39887 10.1C2.16554 10.3 1.8947 10.4 1.58637 10.4C1.27804 10.4 1.01554 10.2917 0.798869 10.075ZM11.9989 20.825C11.3989 20.825 10.8739 20.6 10.4239 20.15C9.97387 19.7 9.74887 19.175 9.74887 18.575C9.74887 17.975 9.97387 17.45 10.4239 17C10.8739 16.55 11.3989 16.325 11.9989 16.325C12.5989 16.325 13.1239 16.55 13.5739 17C14.0239 17.45 14.2489 17.975 14.2489 18.575C14.2489 19.175 14.0239 19.7 13.5739 20.15C13.1239 20.6 12.5989 20.825 11.9989 20.825Z" fill="#948798"/>
</svg>