<svg xmlns="http://www.w3.org/2000/svg" width="25" height="24" viewBox="0 0 25 24" fill="none">
  <path d="M10.0308 3.72529L2.83084 4.80529C2.59564 4.84081 2.42188 5.04241 2.42188 5.28001V11.04C2.42188 11.3054 2.63691 11.52 2.90187 11.52H10.1019C10.3668 11.52 10.5819 11.3054 10.5819 11.04V4.20001C10.5819 4.06033 10.5209 3.92785 10.4148 3.83617C10.3092 3.74545 10.1686 3.70609 10.0308 3.72529ZM22.4148 2.03617C22.3092 1.94545 22.1691 1.90609 22.0304 1.92529L11.9504 3.43729C11.7156 3.47281 11.5419 3.67441 11.5419 3.91201V11.04C11.5419 11.3054 11.7569 11.52 12.0219 11.52H22.1019C22.3668 11.52 22.5819 11.3054 22.5819 11.04V2.40001C22.5819 2.26033 22.5209 2.12785 22.4148 2.03617ZM10.1019 12.48H2.90187C2.63691 12.48 2.42188 12.6946 2.42188 12.96V18.72C2.42188 18.9576 2.59564 19.1592 2.83084 19.1947L10.0308 20.2747C10.0548 20.2781 10.0784 20.28 10.1019 20.28C10.2161 20.28 10.3275 20.2392 10.4148 20.1638C10.5209 20.0722 10.5819 19.9397 10.5819 19.8V12.96C10.5819 12.6946 10.3668 12.48 10.1019 12.48ZM22.1019 12.48H12.0219C11.7569 12.48 11.5419 12.6946 11.5419 12.96V20.088C11.5419 20.3256 11.7156 20.5272 11.9508 20.5627L22.0308 22.0747C22.0544 22.0781 22.0784 22.08 22.1019 22.08C22.2161 22.08 22.3275 22.0392 22.4148 21.9638C22.5209 21.8722 22.5819 21.7397 22.5819 21.6V12.96C22.5819 12.6946 22.3668 12.48 22.1019 12.48Z" fill="#948798"/>
</svg>