<svg width="30" height="30" viewBox="0 0 30 30" fill="none" xmlns="http://www.w3.org/2000/svg">
<circle cx="15" cy="15" r="15" fill="#CD2335"/>
<path d="M9.99902 22.5C11.4482 20.2361 15.377 17.0667 19.499 22.5" stroke="#3D2644" stroke-width="2" stroke-linecap="round"/>
<path d="M22.0984 10.851C20.8086 11.1574 20.4035 11.7446 20.3622 11.9999L18.748 11.25C19.7402 10.3564 23.7105 10.468 22.0984 10.851Z" fill="#3D2644"/>
<path d="M21.498 13C21.498 14.1045 20.6026 15 19.498 15C18.3935 15 17.498 14.1045 17.498 13C17.498 11.8954 18.3935 11 19.498 11C20.6026 11 21.498 11.8954 21.498 13Z" fill="#3D2644"/>
<path d="M7.87819 10.7854C9.16792 11.0918 9.57303 11.679 9.61437 11.9344L11.2285 11.1844C10.2364 10.2908 6.26602 10.4024 7.87819 10.7854Z" fill="#3D2644"/>
<path d="M8.47852 12.9344C8.47852 14.039 9.37395 14.9344 10.4785 14.9344C11.5831 14.9344 12.4785 14.039 12.4785 12.9344C12.4785 11.8299 11.5831 10.9344 10.4785 10.9344C9.37395 10.9344 8.47852 11.8299 8.47852 12.9344Z" fill="#3D2644"/>
</svg>
