<svg width="30" height="30" viewBox="0 0 30 30" fill="none" xmlns="http://www.w3.org/2000/svg">
<circle cx="15" cy="15" r="14" stroke="#948798" stroke-width="2"/>
<path d="M9.99927 22.5C11.4484 20.2361 15.3772 17.0667 19.4993 22.5" stroke="#948798" stroke-width="2" stroke-linecap="round"/>
<path d="M22.0991 10.851C20.8094 11.1574 20.4043 11.7446 20.3629 11.9999L18.7488 11.25C19.7409 10.3564 23.7113 10.468 22.0991 10.851Z" fill="#948798"/>
<path d="M21.4988 13C21.4988 14.1045 20.6033 15 19.4988 15C18.3942 15 17.4988 14.1045 17.4988 13C17.4988 11.8954 18.3942 11 19.4988 11C20.6033 11 21.4988 11.8954 21.4988 13Z" fill="#948798"/>
<path d="M7.87892 10.7854C9.16866 11.0918 9.57377 11.679 9.6151 11.9344L11.2292 11.1844C10.2371 10.2908 6.26675 10.4024 7.87892 10.7854Z" fill="#948798"/>
<path d="M8.47925 12.9344C8.47925 14.039 9.37468 14.9344 10.4792 14.9344C11.5838 14.9344 12.4792 14.039 12.4792 12.9344C12.4792 11.8299 11.5838 10.9344 10.4792 10.9344C9.37468 10.9344 8.47925 11.8299 8.47925 12.9344Z" fill="#948798"/>
</svg>
