<svg width="29" height="20" viewBox="0 0 29 20" fill="none" xmlns="http://www.w3.org/2000/svg">
<path d="M3.25532 16.4289C3.14871 16.5839 2.97266 16.6765 2.78456 16.6765H1.12631C0.658507 16.6765 0.388904 16.1451 0.665181 15.7676L4.69326 10.2636C4.72389 10.2217 4.74039 10.1712 4.74039 10.1194C4.74039 10.0654 4.72252 10.013 4.68956 9.97025L2.27756 6.84323C1.98778 6.46755 2.25558 5.9228 2.73003 5.9228H4.3661C4.54641 5.9228 4.71614 6.0079 4.824 6.15238L6.63661 8.58038C6.66656 8.6205 6.71369 8.64413 6.76376 8.64413C6.81601 8.64413 6.86492 8.6184 6.89452 8.57534L10.1633 3.81918C10.2699 3.66408 10.446 3.57141 10.6342 3.57141H12.2978C12.7646 3.57141 13.0345 4.1007 12.7603 4.47846L8.73733 10.0221C8.70703 10.0638 8.69072 10.1141 8.69072 10.1657C8.69072 10.2199 8.70876 10.2726 8.74199 10.3155L11.1364 13.4035C11.4275 13.779 11.1599 14.3251 10.6848 14.3251H9.05432C8.87297 14.3251 8.70239 14.239 8.59466 14.0931L6.79434 11.6554C6.76451 11.615 6.71728 11.5912 6.66707 11.5912C6.61499 11.5912 6.56624 11.6168 6.53672 11.6597L3.25532 16.4289Z" fill="#FDEB56"/>
<path d="M14.457 13.7536C14.457 14.0692 14.2012 14.3251 13.8856 14.3251H12.6708C12.3552 14.3251 12.0993 14.0692 12.0993 13.7536V6.49423C12.0993 6.17863 12.3552 5.9228 12.6708 5.9228H16.752C18.7459 5.9228 20 7.064 20 9.05798C20 11.0519 18.7459 12.2057 16.752 12.2057H15.0284C14.7128 12.2057 14.457 12.4615 14.457 12.7771V13.7536ZM16.4886 8.04218H15.0284C14.7128 8.04218 14.457 8.29801 14.457 8.61361V9.51489C14.457 9.83048 14.7128 10.0863 15.0284 10.0863H16.4886C17.3163 10.0863 17.6549 9.92329 17.6549 9.05798C17.6549 8.20521 17.3163 8.04218 16.4886 8.04218Z" fill="#FDEB56"/>
<line x1="28.5" y1="2" x2="28.5" y2="18" stroke="white" stroke-opacity="0.08"/>
</svg>
