<svg width="26" height="26" viewBox="0 0 26 26" fill="none" xmlns="http://www.w3.org/2000/svg">
<circle cx="13" cy="13" r="12.6579" fill="#68566E" stroke="#FDEB56" stroke-width="0.684211"/>
<g style="mix-blend-mode:multiply" opacity="0.95">
<path d="M14.7385 18.5593C13.87 17.1316 14.0745 11.347 14.5005 10.1825C14.6231 9.79409 14.8546 9.44903 15.1674 9.18823C15.4803 8.92743 15.8614 8.76185 16.2655 8.71112C16.9298 8.67296 17.5951 8.60375 18.2599 8.62969C20.3435 8.71103 21.1402 11.2336 21.001 12.8873C20.9551 13.5717 20.7038 14.2264 20.2802 14.7659C19.8565 15.3053 19.2801 15.7046 18.6261 15.9115C18.1446 16.0003 17.6526 16.0186 17.1658 15.9659C17.1719 16.6312 17.2177 17.2956 17.3028 17.9554C17.3153 18.0903 17.2968 18.2263 17.2487 18.353C17.2006 18.4796 17.1242 18.5936 17.0253 18.6862C16.8357 18.8446 14.9808 18.9575 14.7385 18.5593ZM18.2033 11.9866C18.1943 11.6957 18.0811 11.4177 17.8842 11.2034C17.7688 11.1261 17.6352 11.0806 17.4966 11.0715C17.3581 11.0624 17.2196 11.0899 17.0951 11.1513C16.904 11.235 16.9026 11.521 16.8894 11.7216C16.8732 11.9725 16.8376 13.9781 17.0407 14.0147C18.2806 14.2382 18.3025 12.7941 18.2033 11.9866ZM5.39867 18.592C5.49263 17.7612 5.73869 16.9548 6.12456 16.213C6.58524 15.3817 7.12747 14.5984 7.74325 13.8745C7.21512 13.1671 6.74139 12.4208 6.32614 11.6418C5.91651 10.9127 5.63161 10.1203 5.48323 9.29724C5.47514 9.18233 5.50632 9.06808 5.57167 8.97322C5.72317 8.72333 6.5319 8.5439 8.19993 8.66055C8.28905 8.66973 8.37417 8.70224 8.44672 8.75481C8.51927 8.80737 8.57667 8.87813 8.61315 8.95996C8.73946 9.32044 8.91047 9.88819 9.11594 10.4564C9.21959 10.7338 9.34208 11.0037 9.48257 11.2643C9.75979 10.5603 9.93047 9.81893 9.98897 9.06459C10.007 8.87957 10.0753 8.62013 10.6137 8.62401C11.4073 8.56976 12.2039 8.66989 12.9594 8.91887C13.0342 9.31907 13.028 9.7302 12.9411 10.1279C12.4952 11.4157 11.8542 12.6273 11.0405 13.7205C11.8081 14.7219 12.445 15.817 12.9359 16.9793C13.0557 17.4898 13.0603 18.0205 12.9493 18.5329C12.8447 18.95 10.2052 18.9082 10.1116 18.501C9.92776 17.6675 9.63283 16.8624 9.23468 16.1073C8.9864 16.5048 8.78142 16.9277 8.62328 17.3688C8.47443 17.7921 8.36033 18.2126 8.19824 18.6697C8.11253 18.9105 5.36922 18.8808 5.39867 18.592Z" fill="#776537"/>
</g>
<path d="M14.5872 17.8177C13.6726 16.3148 13.888 10.2258 14.3365 8.99993C14.4656 8.59108 14.7093 8.22784 15.0386 7.95333C15.3679 7.67881 15.7691 7.50455 16.1946 7.4512C16.8936 7.41087 17.5939 7.33815 18.294 7.36542C20.4869 7.45102 21.3256 10.1065 21.1791 11.8472C21.1308 12.5676 20.8664 13.2567 20.4205 13.8245C19.9746 14.3924 19.3679 14.8127 18.6795 15.0305C18.1725 15.124 17.6546 15.1432 17.1421 15.0875C17.1484 15.7879 17.1966 16.4873 17.2865 17.1819C17.2996 17.324 17.28 17.4671 17.2294 17.6004C17.1788 17.7338 17.0983 17.8538 16.9943 17.9513C16.7944 18.1178 14.8421 18.2367 14.5872 17.8177ZM18.234 10.8988C18.2246 10.5926 18.1054 10.3001 17.8982 10.0744C17.7767 9.99322 17.6361 9.94539 17.4903 9.93577C17.3445 9.92614 17.1987 9.95507 17.0677 10.0196C16.8665 10.1077 16.8648 10.4087 16.8513 10.62C16.8342 10.884 16.7969 12.9953 17.0105 13.0338C18.3157 13.269 18.3385 11.7489 18.234 10.8988ZM5.19556 17.852C5.29469 16.9775 5.55378 16.1287 5.95989 15.3479C6.44479 14.4729 7.0155 13.6482 7.66361 12.8861C7.10771 12.1417 6.6091 11.3561 6.17208 10.5362C5.74077 9.76861 5.4408 8.93436 5.28457 8.06791C5.27602 7.94704 5.30892 7.82688 5.37784 7.72722C5.53739 7.46409 6.38882 7.27509 8.14444 7.3978C8.23821 7.40752 8.32776 7.44178 8.40406 7.49714C8.48036 7.55249 8.54072 7.62699 8.57906 7.71312C8.71228 8.09234 8.89209 8.6902 9.10864 9.28835C9.21785 9.58023 9.34676 9.86435 9.4945 10.1387C9.78631 9.39768 9.96593 8.61721 10.0274 7.82314C10.0464 7.62837 10.1184 7.35547 10.6851 7.35945C11.5205 7.30218 12.3591 7.4076 13.1544 7.66984C13.233 8.09104 13.2265 8.52371 13.1353 8.94235C12.666 10.298 11.9911 11.5735 11.1343 12.7241C11.9422 13.7782 12.6126 14.9309 13.1293 16.1544C13.2555 16.6917 13.2603 17.2505 13.1436 17.7899C13.0338 18.229 10.2555 18.185 10.1565 17.7563C9.96305 16.8789 9.6527 16.0313 9.23373 15.2365C8.9722 15.6548 8.75646 16.1 8.59023 16.5645C8.43315 17.0102 8.31336 17.4528 8.14264 17.9337C8.0525 18.1873 5.1646 18.156 5.19556 17.852Z" fill="#FFBC06"/>
<path style="mix-blend-mode:screen" fill-rule="evenodd" clip-rule="evenodd" d="M16.2068 7.69369C15.8289 7.74467 15.4734 7.90255 15.1821 8.14876C14.8909 8.39496 14.676 8.71924 14.5629 9.08343C14.494 9.29541 14.4445 9.51316 14.4148 9.73404C14.3596 10.0782 14.3223 10.4276 14.292 10.775C14.2303 11.4854 14.1996 12.2046 14.193 12.9203C14.1866 13.6267 16.6175 12.7777 16.5974 11.8122C16.592 11.5618 16.5916 11.3111 16.5948 11.0608C16.5966 10.9104 16.5976 10.7544 16.6074 10.6045C16.6271 10.3018 16.645 9.93903 16.9685 9.79729C17.1756 9.70467 17.405 9.67406 17.6291 9.70914C17.788 9.73039 17.9378 9.79518 18.0622 9.89634C18.2599 10.091 18.39 10.3439 18.4333 10.618C18.5978 11.4145 20.8296 9.63102 20.1268 8.65724C19.9236 8.3497 19.6506 8.09442 19.3302 7.91213C19.0098 7.72984 18.6509 7.62568 18.2827 7.6081C17.5908 7.58111 16.8973 7.65393 16.2068 7.69369ZM12.2401 7.69473C11.7228 7.63478 11.2026 7.60393 10.6819 7.60232C10.5557 7.59081 10.4293 7.62084 10.3218 7.68782C10.2868 7.73337 10.2678 7.78918 10.2677 7.84662C10.2038 8.66552 10.0179 9.47027 9.71623 10.2343L9.51587 10.7023L9.27839 10.2521C9.12502 9.96788 8.99148 9.67343 8.87872 9.37082C8.68953 8.84804 8.53226 8.31693 8.34847 7.7934C8.32565 7.75248 8.2937 7.71736 8.25511 7.69079C8.21652 7.66422 8.17232 7.6469 8.12595 7.64019C7.75486 7.61415 7.38085 7.59853 7.00853 7.60307C6.74244 7.60409 6.47668 7.62167 6.21277 7.65572C6.04928 7.67471 5.88845 7.71213 5.73336 7.76727C5.67861 7.78621 5.62792 7.81532 5.58395 7.85305C5.54678 7.90625 5.52577 7.96905 5.52344 8.03391C5.67618 8.87271 5.96758 9.68022 6.38567 10.4233C6.81904 11.2319 7.31136 12.0074 7.85864 12.7437L7.96687 12.8927L7.85249 13.0371C7.67192 13.2649 7.48841 13.4951 7.3085 13.7292C6.62911 14.6131 11.9945 14.4298 11.4328 13.5967C11.2672 13.3505 11.0993 13.1057 10.9322 12.861L10.8334 12.7166L10.9394 12.5772C11.1147 12.3461 11.2776 12.0992 11.4332 11.8544C11.6296 11.5449 11.8177 11.23 11.9977 10.9098C12.2123 10.5289 12.4191 10.1377 12.5998 9.73943C12.7317 9.47569 12.8302 9.1965 12.893 8.90835C12.9572 8.5511 12.9761 8.1872 12.9494 7.82522C12.7168 7.7628 12.4796 7.71916 12.2401 7.69473Z" fill="#FF6057"/>
<path style="mix-blend-mode:multiply" fill-rule="evenodd" clip-rule="evenodd" d="M8.14264 17.9336C8.31336 17.4527 8.43315 17.0102 8.59023 16.5645C8.75646 16.1 8.9722 15.6547 9.23373 15.2364C8.81957 15.8377 8.1364 17.381 7.87922 17.6079C7.13505 17.9794 6.28155 18.0689 5.4765 17.8599L5.42944 17.8491C5.38685 17.8388 5.34961 17.813 5.325 17.7767C5.2986 17.7287 5.28472 17.6748 5.28466 17.6199C5.27804 17.4792 5.29328 17.3381 5.29745 17.1973C5.25196 17.4136 5.21795 17.6321 5.19556 17.852C5.1897 17.9094 5.28798 17.9571 5.45179 17.995C6.34241 18.1718 7.26101 18.1509 8.14264 17.9336ZM10.1565 17.7563C10.2442 18.1366 12.4421 18.2142 13.0126 17.92C13.0423 17.9086 13.0693 17.8911 13.0918 17.8687C13.1144 17.8463 13.132 17.8195 13.1436 17.7899C13.2604 17.2504 13.2555 16.6917 13.1293 16.1544C12.6776 15.0514 12.0845 14.0119 11.3649 13.0618C11.2883 12.9495 11.2114 12.837 11.1343 12.7241C11.8756 11.6937 12.501 10.5848 12.9992 9.41738C13.0607 9.26411 13.1063 9.10492 13.1353 8.94233C13.1422 8.89403 13.149 8.84328 13.156 8.79102C12.6636 10.1347 11.9136 11.3693 10.9481 12.4256C10.6492 12.778 10.6733 12.7696 11.0013 13.1304C11.9754 14.1902 12.6378 15.4986 12.9154 16.9111C12.9665 17.1393 12.9381 17.378 12.835 17.5878C12.5196 17.7909 12.1612 17.9176 11.7883 17.9581C11.4153 17.9985 11.0381 17.9514 10.6865 17.8207C10.3861 17.6268 10.1396 17.36 9.97003 17.0452C10.0365 17.2698 10.0987 17.5062 10.1565 17.7563Z" fill="#C1BAA0"/>
<path style="mix-blend-mode:multiply" fill-rule="evenodd" clip-rule="evenodd" d="M16.8337 17.5094C16.5165 17.7271 16.1433 17.8489 15.7587 17.8603C15.3741 17.8716 14.9944 17.7721 14.6649 17.5736C14.5477 17.4703 14.4468 17.35 14.3655 17.2167C14.3487 17.1902 14.3325 17.1629 14.3164 17.1357C14.345 17.2402 14.3758 17.3382 14.4082 17.4289C14.4548 17.5641 14.5148 17.6944 14.5874 17.8177C14.8423 18.2367 16.7946 18.1178 16.9945 17.9513C17.1599 17.8031 17.2615 17.5966 17.2778 17.3751C17.285 17.311 17.288 17.2464 17.2867 17.1819C17.2766 16.6913 17.1978 16.3322 17.1559 15.9178C17.1268 15.642 17.1223 15.3641 17.1423 15.0875C17.6548 15.1432 18.1727 15.124 18.6797 15.0305C19.2338 14.8723 19.738 14.5745 20.1441 14.1657C20.5502 13.7568 20.8445 13.2506 20.999 12.6955C21.0611 12.5107 21.1094 12.3207 21.1431 12.1287C21.1039 12.2345 21.0604 12.3388 21.0129 12.4416C20.304 13.9751 18.7108 15.1347 17.2873 14.7744C17.1746 14.746 17.1482 13.9172 17.0905 14.3285C17.0422 14.7067 17.0235 15.0882 17.0343 15.4693C17.0434 16.0257 17.1945 17.0698 16.8337 17.5094ZM18.2276 12.0693C18.1209 12.6753 17.8007 13.1762 17.0107 13.0338C16.9442 13.0218 16.9021 12.8107 16.8762 12.517C16.8802 12.649 16.8889 12.7808 16.888 12.9128C16.8834 12.9837 16.8967 13.0545 16.9267 13.1188C16.9567 13.1832 17.0024 13.2389 17.0597 13.2809C17.1169 13.3229 17.1837 13.3499 17.2541 13.3592C17.3244 13.3686 17.396 13.3601 17.4622 13.3345C17.6386 13.305 17.8034 13.2271 17.9381 13.1094C18.0728 12.9917 18.1722 12.839 18.2251 12.6681C18.3427 12.2007 18.3564 11.7132 18.2651 11.2399C18.2835 11.5169 18.271 11.7951 18.2276 12.0693Z" fill="#C1BAA0"/>
<path style="mix-blend-mode:screen" fill-rule="evenodd" clip-rule="evenodd" d="M14.4781 9.88991C14.4236 10.2599 14.6119 10.5616 14.9099 10.29C15.3277 9.90875 15.5983 9.38427 16.018 9.00486C16.3508 8.74893 16.7057 8.52316 17.0786 8.3302C17.6275 7.98932 16.9903 7.79872 16.6446 7.78404C16.1513 7.75075 15.6638 7.90565 15.2801 8.21753C14.8264 8.6647 14.5428 9.25612 14.4781 9.88991Z" fill="#FFD9B7"/>
<path style="mix-blend-mode:screen" fill-rule="evenodd" clip-rule="evenodd" d="M6.86113 7.69556C6.63545 7.69796 6.41012 7.71406 6.18639 7.74376C5.40729 7.83077 5.52811 8.02252 5.74485 8.71563C5.87145 9.17576 6.05492 9.6183 6.29102 10.033C6.41743 10.2226 6.58445 10.1307 6.58389 9.8803C6.52846 9.38971 6.51118 8.89557 6.53219 8.40231C6.54987 8.28351 6.59548 8.17061 6.6653 8.07288C6.73511 7.97515 6.82713 7.89539 6.93377 7.84015C6.94624 7.82955 6.9552 7.81543 6.95949 7.79965C6.96378 7.78386 6.96319 7.76716 6.95781 7.75171C6.94782 7.73488 6.9337 7.72088 6.91678 7.71105C6.89985 7.70122 6.8807 7.69589 6.86113 7.69556Z" fill="#FFD9B7"/>
<path style="mix-blend-mode:screen" fill-rule="evenodd" clip-rule="evenodd" d="M10.6453 7.66735C10.5711 7.66628 10.4974 7.67992 10.4284 7.7075C10.3929 7.7293 10.367 7.76375 10.3559 7.80389C10.3348 7.86317 10.239 8.44086 10.1909 8.76867C10.1475 9.0658 10.2258 9.18843 10.5007 8.90436C10.7337 8.63138 10.9519 8.34605 11.1543 8.04961C11.4171 7.65476 11.2204 7.64349 10.6453 7.66735Z" fill="#FFD9B7"/>
</svg>
