<svg xmlns="http://www.w3.org/2000/svg" width="38" height="38" viewBox="0 0 38 38" fill="none">
  <g style="mix-blend-mode:multiply" opacity="0.95">
    <path d="M22.4732 30.1185C20.736 27.2631 21.1451 15.6939 21.9971 13.365C22.2423 12.5882 22.7053 11.8981 23.3309 11.3765C23.9566 10.8549 24.7188 10.5237 25.527 10.4222C26.8557 10.3459 28.1863 10.2075 29.5159 10.2594C33.6831 10.4221 35.2765 15.4672 34.9982 18.7747C34.9062 20.1435 34.4038 21.4528 33.5565 22.5317C32.7092 23.6107 31.5563 24.4092 30.2484 24.823C29.2852 25.0006 28.3013 25.0373 27.3276 24.9317C27.3399 26.2624 27.4314 27.5911 27.6017 28.9109C27.6266 29.1807 27.5896 29.4526 27.4934 29.7059C27.3973 29.9592 27.2445 30.1872 27.0468 30.3725C26.6675 30.6891 22.9576 30.9151 22.4732 30.1185ZM29.4026 16.9732C29.3847 16.3914 29.1582 15.8354 28.7644 15.4068C28.5338 15.2523 28.2664 15.1613 27.9894 15.143C27.7123 15.1247 27.4354 15.1798 27.1864 15.3027C26.8042 15.4701 26.8014 16.042 26.7748 16.4433C26.7425 16.9449 26.6713 20.9561 27.0775 21.0294C29.5574 21.4763 29.6011 18.5882 29.4026 16.9732ZM3.79344 30.1841C3.98136 28.5224 4.47348 26.9095 5.24522 25.426C6.16658 23.7635 7.25104 22.1967 8.48259 20.7489C7.42633 19.3343 6.47888 17.8416 5.64838 16.2836C4.82911 14.8254 4.25932 13.2405 3.96256 11.5945C3.94637 11.3647 4.00874 11.1362 4.13943 10.9464C4.44243 10.4467 6.05989 10.0878 9.39595 10.3211C9.57418 10.3395 9.74444 10.4045 9.88953 10.5096C10.0346 10.6147 10.1494 10.7563 10.2224 10.9199C10.475 11.6409 10.817 12.7764 11.228 13.9128C11.4353 14.4675 11.6803 15.0074 11.9612 15.5286C12.5157 14.1206 12.857 12.6379 12.974 11.1292C13.01 10.7591 13.1467 10.2403 14.2236 10.248C15.8108 10.1395 17.404 10.3398 18.915 10.8377C19.0645 11.6381 19.052 12.4604 18.8782 13.2559C17.9864 15.8314 16.7044 18.2547 15.0771 20.441C16.6122 22.4438 17.886 24.634 18.8678 26.9586C19.1075 27.9795 19.1167 29.041 18.8947 30.0659C18.6854 30.9001 13.4066 30.8164 13.2193 30.0021C12.8516 28.3349 12.2618 26.7247 11.4655 25.2146C10.9689 26.0096 10.5589 26.8554 10.2426 27.7377C9.94495 28.5842 9.71676 29.4252 9.39257 30.3394C9.22116 30.8209 3.73454 30.7617 3.79344 30.1841Z" fill="#776537"/>
  </g>
  <path d="M22.1725 28.6354C20.3433 25.6296 20.7741 13.4515 21.671 10.9999C21.9292 10.1822 22.4166 9.45568 23.0752 8.90665C23.7339 8.35762 24.5363 8.00909 25.3871 7.90241C26.7853 7.82173 28.1859 7.67629 29.586 7.73083C33.9718 7.90203 35.6493 13.2129 35.3563 16.6944C35.2596 18.1352 34.7308 19.5133 33.839 20.6491C32.9473 21.7848 31.7338 22.6253 30.3571 23.0611C29.3431 23.248 28.3073 23.2864 27.2822 23.1751C27.2948 24.5759 27.3913 25.9746 27.571 27.3639C27.5972 27.6479 27.5581 27.9342 27.4569 28.2008C27.3556 28.4675 27.1947 28.7075 26.9866 28.9026C26.5868 29.2357 22.6823 29.4734 22.1725 28.6354ZM29.4661 14.7976C29.4472 14.1853 29.2088 13.6001 28.7944 13.1489C28.5515 12.9864 28.2702 12.8908 27.9786 12.8715C27.687 12.8523 27.3955 12.9101 27.1334 13.0393C26.731 13.2154 26.7277 13.8174 26.7007 14.2401C26.6664 14.7681 26.5918 18.9906 27.019 19.0677C29.6294 19.5381 29.675 16.4978 29.4661 14.7976ZM3.38917 28.7041C3.58743 26.9551 4.1056 25.2575 4.91782 23.6958C5.88763 21.9458 7.02905 20.2964 8.32526 18.7722C7.21346 17.2833 6.21625 15.7122 5.34221 14.0723C4.47959 12.5372 3.87964 10.8687 3.56718 9.13581C3.55008 8.89409 3.61588 8.65376 3.75373 8.45445C4.07282 7.92817 5.7757 7.55017 9.28692 7.79561C9.47446 7.81504 9.65356 7.88355 9.80617 7.99427C9.95877 8.10499 10.0795 8.25398 10.1562 8.42623C10.4226 9.18468 10.7822 10.3804 11.2153 11.5767C11.4337 12.1605 11.6916 12.7287 11.987 13.2775C12.5707 11.7954 12.9299 10.2344 13.0529 8.64628C13.0909 8.25673 13.2348 7.71095 14.3683 7.7189C16.0391 7.60437 17.7163 7.8152 19.3068 8.33969C19.4641 9.18208 19.4511 10.0474 19.2686 10.8847C18.33 13.596 16.9802 16.147 15.2667 18.4482C16.8824 20.5565 18.2232 22.8619 19.2567 25.3088C19.509 26.3835 19.5187 27.5009 19.2852 28.5799C19.0656 29.458 13.5091 29.3699 13.311 28.5126C12.9241 26.7577 12.3034 25.0627 11.4655 23.4729C10.9424 24.3095 10.511 25.2 10.1785 26.129C9.86434 27.0204 9.62477 27.9055 9.28333 28.8673C9.10304 29.3747 3.32724 29.312 3.38917 28.7041Z" fill="#FFBC06"/>
  <path style="mix-blend-mode:screen" fill-rule="evenodd" clip-rule="evenodd" d="M25.4137 8.38739C24.6578 8.48934 23.9467 8.8051 23.3642 9.29752C22.7817 9.78993 22.352 10.4385 22.1257 11.1669C21.9881 11.5908 21.8889 12.0263 21.8295 12.4681C21.7191 13.1565 21.6445 13.8553 21.5841 14.5501C21.4606 15.9708 21.3993 17.4093 21.386 18.8406C21.3731 20.2533 26.235 18.5554 26.1948 16.6243C26.184 16.1236 26.1833 15.6221 26.1895 15.1216C26.1931 14.8207 26.1952 14.5088 26.2147 14.209C26.2541 13.6036 26.2901 12.8781 26.937 12.5946C27.3511 12.4093 27.8101 12.3481 28.2583 12.4183C28.576 12.4608 28.8757 12.5904 29.1243 12.7927C29.5198 13.1819 29.78 13.6878 29.8667 14.2359C30.1956 15.8289 34.6592 12.262 33.2537 10.3145C32.8471 9.6994 32.3013 9.18884 31.6604 8.82426C31.0196 8.45968 30.3018 8.25135 29.5654 8.21619C28.1816 8.16222 26.7946 8.30785 25.4137 8.38739ZM17.4801 8.38947C16.4456 8.26957 15.4052 8.20785 14.3637 8.20463C14.1114 8.18163 13.8586 8.24168 13.6435 8.37564C13.5735 8.46673 13.5355 8.57836 13.5354 8.69323C13.4075 10.331 13.0358 11.9405 12.4325 13.4685L12.0317 14.4046L11.5568 13.5041C11.25 12.9358 10.983 12.3469 10.7574 11.7416C10.3791 10.6961 10.0645 9.63387 9.69693 8.5868C9.6513 8.50495 9.5874 8.43472 9.51022 8.38158C9.43303 8.32844 9.34464 8.29381 9.2519 8.28039C8.50973 8.22831 7.76169 8.19706 7.01707 8.20615C6.48489 8.20817 5.95335 8.24335 5.42554 8.31145C5.09855 8.34943 4.7769 8.42426 4.46673 8.53453C4.35722 8.57242 4.25584 8.63063 4.16791 8.7061C4.09356 8.8125 4.05153 8.93811 4.04688 9.06782C4.35236 10.7454 4.93516 12.3604 5.77133 13.8465C6.63807 15.4637 7.62272 17.0149 8.71728 18.4874L8.93375 18.7855L8.70497 19.0743C8.34383 19.5297 7.97682 19.9901 7.617 20.4584C6.25823 22.2263 16.9891 21.8596 15.8657 20.1933C15.5345 19.7009 15.1987 19.2114 14.8644 18.722L14.6667 18.4332L14.8788 18.1543C15.2294 17.6922 15.5551 17.1983 15.8664 16.7088C16.2592 16.0897 16.6355 15.46 16.9953 14.8196C17.4246 14.0579 17.8382 13.2754 18.1996 12.4789C18.4634 11.9514 18.6605 11.393 18.7861 10.8167C18.9144 10.1022 18.9522 9.37439 18.8987 8.65043C18.4336 8.5256 17.9592 8.43833 17.4801 8.38947Z" fill="#FF6057"/>
  <path style="mix-blend-mode:multiply" fill-rule="evenodd" clip-rule="evenodd" d="M9.28333 28.8673C9.62478 27.9054 9.86434 27.0203 10.1785 26.1289C10.511 25.2 10.9424 24.3095 11.4655 23.4729C10.6372 24.6754 9.27085 27.7621 8.75649 28.2158C7.26814 28.9588 5.56114 29.1378 3.95105 28.7198L3.85693 28.6982C3.77174 28.6776 3.69728 28.626 3.64805 28.5535C3.59524 28.4574 3.56749 28.3495 3.56737 28.2399C3.55412 27.9585 3.58461 27.6763 3.59295 27.3945C3.50197 27.8271 3.43394 28.2642 3.38917 28.704C3.37745 28.8188 3.574 28.9142 3.90162 28.99C5.68286 29.3437 7.52006 29.3018 9.28333 28.8673ZM13.311 28.5126C13.4864 29.2731 17.8823 29.4284 19.0233 28.84C19.0827 28.8172 19.1366 28.7823 19.1817 28.7375C19.2268 28.6927 19.262 28.639 19.2853 28.5798C19.5187 27.5009 19.509 26.3834 19.2567 25.3087C18.3533 23.1029 17.1671 21.0238 15.7278 19.1237C15.5746 18.8991 15.4209 18.6739 15.2667 18.4482C16.7492 16.3874 18 14.1696 18.9964 11.8348C19.1195 11.5282 19.2107 11.2098 19.2686 10.8847C19.2824 10.7881 19.296 10.6866 19.3101 10.582C18.3252 13.2694 16.8252 15.7386 14.8942 17.8513C14.2965 18.5559 14.3446 18.5393 15.0006 19.2608C16.9489 21.3805 18.2737 23.9972 18.8288 26.8222C18.931 27.2785 18.8743 27.756 18.6681 28.1757C18.0372 28.5818 17.3205 28.8353 16.5746 28.9161C15.8287 28.9969 15.0743 28.9029 14.3711 28.6414C13.7702 28.2536 13.2772 27.7201 12.9381 27.0904C13.0711 27.5396 13.1955 28.0124 13.311 28.5126Z" fill="#C1BAA0"/>
  <path style="mix-blend-mode:multiply" fill-rule="evenodd" clip-rule="evenodd" d="M26.6674 28.0187C26.0329 28.4541 25.2866 28.6978 24.5174 28.7205C23.7483 28.7433 22.9888 28.5442 22.3297 28.1471C22.0954 27.9406 21.8936 27.7 21.7309 27.4334C21.6974 27.3803 21.665 27.3258 21.6328 27.2715C21.69 27.4803 21.7516 27.6763 21.8163 27.8578C21.9096 28.1282 22.0297 28.3887 22.1748 28.6353C22.6846 29.4733 26.5892 29.2357 26.9889 28.9026C27.3199 28.6063 27.523 28.1932 27.5556 27.7502C27.5701 27.622 27.576 27.4929 27.5734 27.3639C27.5531 26.3825 27.3955 25.6644 27.3118 24.8355C27.2537 24.2839 27.2445 23.7283 27.2846 23.1751C28.3096 23.2864 29.3455 23.248 30.3595 23.061C31.4676 22.7445 32.476 22.149 33.2882 21.3313C34.1003 20.5137 34.6891 19.5013 34.9981 18.391C35.1223 18.0215 35.2188 17.6414 35.2861 17.2574C35.2077 17.4689 35.1209 17.6776 35.0257 17.8833C33.608 20.9502 30.4216 23.2694 27.5745 22.5488C27.3492 22.492 27.2965 20.8343 27.181 21.657C27.0845 22.4135 27.0469 23.1763 27.0687 23.9386C27.0869 25.0514 27.3889 27.1397 26.6674 28.0187ZM29.4552 17.1387C29.2418 18.3507 28.6015 19.3525 27.0213 19.0677C26.8884 19.0436 26.8041 18.6213 26.7524 18.034C26.7604 18.298 26.7778 18.5617 26.7761 18.8256C26.7669 18.9673 26.7935 19.109 26.8535 19.2377C26.9134 19.3663 27.0049 19.4778 27.1193 19.5618C27.2337 19.6459 27.3675 19.6997 27.5082 19.7184C27.6489 19.7371 27.7921 19.7201 27.9245 19.6689C28.2773 19.6099 28.6068 19.4541 28.8762 19.2188C29.1456 18.9835 29.3444 18.678 29.4503 18.3363C29.6855 17.4014 29.7128 16.4263 29.5302 15.4797C29.5671 16.0338 29.5419 16.5902 29.4552 17.1387Z" fill="#C1BAA0"/>
  <path style="mix-blend-mode:screen" fill-rule="evenodd" clip-rule="evenodd" d="M21.9563 12.7798C21.8472 13.5199 22.2239 14.1233 22.8198 13.5799C23.6554 12.8175 24.1966 11.7685 25.0361 11.0097C25.7016 10.4979 26.4115 10.0463 27.1571 9.6604C28.2549 8.97865 26.9806 8.59744 26.2892 8.56808C25.3027 8.5015 24.3275 8.8113 23.5603 9.43505C22.6528 10.3294 22.0855 11.5122 21.9563 12.7798Z" fill="#FFD9B7"/>
  <path style="mix-blend-mode:screen" fill-rule="evenodd" clip-rule="evenodd" d="M6.72032 8.39111C6.26895 8.39591 5.81829 8.42811 5.37082 8.48751C3.81263 8.66155 4.05427 9.04503 4.48775 10.4313C4.74094 11.3515 5.10789 12.2366 5.58009 13.0661C5.8329 13.4452 6.16696 13.2613 6.16582 12.7606C6.05497 11.7794 6.02041 10.7911 6.06243 9.80462C6.09778 9.56702 6.18901 9.34122 6.32864 9.14576C6.46826 8.9503 6.6523 8.79077 6.86559 8.6803C6.89052 8.65911 6.90845 8.63087 6.91703 8.5993C6.92561 8.56773 6.92444 8.53431 6.91366 8.50342C6.89369 8.46976 6.86544 8.44176 6.8316 8.4221C6.79775 8.40245 6.75945 8.39178 6.72032 8.39111Z" fill="#FFD9B7"/>
  <path style="mix-blend-mode:screen" fill-rule="evenodd" clip-rule="evenodd" d="M14.2868 8.3347C14.1383 8.33256 13.9908 8.35984 13.8529 8.41499C13.7819 8.4586 13.7301 8.5275 13.7078 8.60779C13.6656 8.72634 13.4742 9.88172 13.3779 10.5373C13.291 11.1316 13.4477 11.3769 13.9974 10.8087C14.4635 10.2628 14.8999 9.69209 15.3047 9.09922C15.8304 8.30952 15.4369 8.28698 14.2868 8.3347Z" fill="#FFD9B7"/>
</svg>