<svg width="20" height="21" viewBox="0 0 20 21" fill="none" xmlns="http://www.w3.org/2000/svg">
<path fill-rule="evenodd" clip-rule="evenodd" d="M16.2498 15.9091C17.1248 15.7841 17.8332 15.1174 17.9998 14.2424C18.1665 13.2841 18.3332 11.8674 18.3748 10.1174C18.3748 8.36743 18.1665 6.95077 17.9998 5.99243C17.8332 5.11743 17.1248 4.45077 16.2498 4.32577C14.8332 4.11743 12.5832 3.86743 9.99984 3.86743C7.4165 3.86743 5.12484 4.11743 3.74984 4.32577C2.87484 4.45077 2.1665 5.11743 1.99984 5.99243C1.83317 6.95077 1.6665 8.36743 1.6665 10.1174C1.6665 11.8674 1.83317 13.2841 1.99984 14.2424C2.1665 15.1174 2.87484 15.7841 3.74984 15.9091C5.1665 16.1174 7.45817 16.3674 9.99984 16.3674C12.5832 16.3674 14.8748 16.1174 16.2498 15.9091ZM13.3332 10.1174L8.33319 7.20077V13.0341L13.3332 10.1174Z" fill="white" fill-opacity="0.5"/>
</svg>
