<svg xmlns="http://www.w3.org/2000/svg" width="160" height="160" viewBox="0 0 160 160" fill="none">
  <path d="M143.999 113C142.665 120 136.999 125.333 129.999 126.333C118.999 128 100.665 130 79.9987 130C59.6654 130 41.332 128 29.9987 126.333C22.9987 125.333 17.332 120 15.9987 113C14.6654 105.333 13.332 94 13.332 80C13.332 66 14.6654 54.6667 15.9987 47C17.332 40 22.9987 34.6667 29.9987 33.6667C40.9987 32 59.332 30 79.9987 30C100.665 30 118.665 32 129.999 33.6667C136.999 34.6667 142.665 40 143.999 47C145.332 54.6667 146.999 66 146.999 80C146.665 94 145.332 105.333 143.999 113Z" fill="#FF3D00"/>
  <path d="M66.668 103.333V56.6666L106.668 80L66.668 103.333Z" fill="white"/>
</svg>