<svg width="25" height="24" viewBox="0 0 25 24" fill="none" xmlns="http://www.w3.org/2000/svg">
<path d="M22.1 16.95C21.9 18 21.05 18.8 20 18.95C18.35 19.2 15.6 19.5 12.5 19.5C9.45 19.5 6.7 19.2 5 18.95C3.95 18.8 3.1 18 2.9 16.95C2.7 15.8 2.5 14.1 2.5 12C2.5 9.9 2.7 8.2 2.9 7.05C3.1 6 3.95 5.2 5 5.05C6.65 4.8 9.4 4.5 12.5 4.5C15.6 4.5 18.3 4.8 20 5.05C21.05 5.2 21.9 6 22.1 7.05C22.3 8.2 22.55 9.9 22.55 12C22.5 14.1 22.3 15.8 22.1 16.95Z" fill="#FF3D00"/>
<path d="M10.5 15.5V8.5L16.5 12L10.5 15.5Z" fill="white"/>
</svg>
