<svg width="60" height="60" viewBox="0 0 60 60" fill="none" xmlns="http://www.w3.org/2000/svg">
<circle cx="30" cy="30" r="30" fill="#3D2644"/>
<path d="M47.5113 38.8001C47.1455 40.6667 45.5913 42.0892 43.6713 42.3559C40.6538 42.8001 35.6246 43.3334 29.9555 43.3334C24.378 43.3334 19.3488 42.8001 16.2396 42.3559C14.3196 42.0892 12.7646 40.6667 12.3996 38.8001C12.0338 36.7559 11.668 33.7334 11.668 30.0001C11.668 26.2667 12.0338 23.2442 12.3996 21.2001C12.7655 19.3334 14.3196 17.9109 16.2396 17.6442C19.2571 17.2001 24.2863 16.6667 29.9555 16.6667C35.6246 16.6667 40.5621 17.2001 43.6713 17.6442C45.5913 17.9109 47.1463 19.3334 47.5113 21.2001C47.8771 23.2442 48.3346 26.2667 48.3346 30.0001C48.243 33.7334 47.8771 36.7559 47.5113 38.8001Z" fill="url(#paint0_linear_167_29011)"/>
<path opacity="0.05" d="M36.96 28.7L27.43 22.3466C26.9492 22.0258 26.335 21.9958 25.8258 22.2691C25.3167 22.5416 25 23.0691 25 23.6466V36.3533C25 36.9308 25.3167 37.4591 25.8258 37.7316C26.0575 37.8558 26.31 37.9166 26.5625 37.9166C26.8658 37.9166 27.1675 37.8283 27.4292 37.6541L36.9592 31.3008C37.395 31.01 37.655 30.5241 37.655 30.0008C37.6558 29.4766 37.395 28.9908 36.96 28.7Z" fill="black"/>
<path opacity="0.07" d="M27.2355 22.6975L36.2271 28.6925C36.8013 29.105 37.188 29.4742 37.188 29.9533C37.188 30.4325 37.0013 30.7667 36.5921 31.065C36.283 31.29 27.388 37.2017 27.388 37.2017C26.6371 37.705 25.418 37.5983 25.418 35.9525V23.9533C25.418 22.2825 26.738 22.3658 27.2355 22.6975Z" fill="black"/>
<path d="M25.832 36.3065V23.694C25.832 23.0749 26.522 22.7049 27.0379 23.049L36.4979 29.3557C36.9587 29.6624 36.9587 30.339 36.4979 30.6465L27.0379 36.9532C26.522 37.2957 25.832 36.9265 25.832 36.3065Z" fill="white"/>
<defs>
<linearGradient id="paint0_linear_167_29011" x1="18.1813" y1="18.2259" x2="44.373" y2="44.4176" gradientUnits="userSpaceOnUse">
<stop stop-color="#F44F5A"/>
<stop offset="0.443" stop-color="#EE3D4A"/>
<stop offset="1" stop-color="#E52030"/>
</linearGradient>
</defs>
</svg>
