<svg width="14" height="15" viewBox="0 0 14 15" fill="none" xmlns="http://www.w3.org/2000/svg">
<g id="copy-01">
<path id="Vector" d="M5.25 9.25C5.25 7.6001 5.25 6.77515 5.76256 6.26256C6.27515 5.75 7.1001 5.75 8.75 5.75H9.33333C10.9832 5.75 11.8082 5.75 12.3208 6.26256C12.8333 6.77515 12.8333 7.6001 12.8333 9.25V9.83333C12.8333 11.4832 12.8333 12.3082 12.3208 12.8208C11.8082 13.3333 10.9832 13.3333 9.33333 13.3333H8.75C7.1001 13.3333 6.27515 13.3333 5.76256 12.8208C5.25 12.3082 5.25 11.4832 5.25 9.83333V9.25Z" stroke="white" stroke-opacity="0.6" stroke-width="1.2" stroke-linecap="round" stroke-linejoin="round"/>
<path id="Vector_2" d="M9.91791 5.74984C9.91651 4.02487 9.89044 3.13138 9.3883 2.51959C9.29135 2.40144 9.18303 2.29311 9.0649 2.19615C8.4195 1.6665 7.46068 1.6665 5.54297 1.6665C3.62527 1.6665 2.66642 1.6665 2.02105 2.19615C1.9029 2.2931 1.79457 2.40144 1.69761 2.51959C1.16797 3.16496 1.16797 4.12381 1.16797 6.0415C1.16797 7.95921 1.16797 8.91804 1.69761 9.56344C1.79457 9.68156 1.9029 9.78989 2.02105 9.88684C2.63284 10.389 3.52633 10.415 5.2513 10.4164" stroke="white" stroke-opacity="0.6" stroke-width="1.2" stroke-linecap="round" stroke-linejoin="round"/>
</g>
</svg>
