<svg width="180" height="181" viewBox="0 0 180 181" fill="none" xmlns="http://www.w3.org/2000/svg">
<g id="qrcode 1" clip-path="url(#clip0_7869_59181)">
<g id="elements">
<path id="Vector" d="M8.57143 0.5H0V9.07143H8.57143V0.5Z" fill="white" fill-opacity="0.7"/>
<path id="Vector_2" d="M17.1437 0.5H8.57227V9.07143H17.1437V0.5Z" fill="white" fill-opacity="0.7"/>
<path id="Vector_3" d="M25.714 0.5H17.1426V9.07143H25.714V0.5Z" fill="white" fill-opacity="0.7"/>
<path id="Vector_4" d="M34.2863 0.5H25.7148V9.07143H34.2863V0.5Z" fill="white" fill-opacity="0.7"/>
<path id="Vector_5" d="M42.8566 0.5H34.2852V9.07143H42.8566V0.5Z" fill="white" fill-opacity="0.7"/>
<path id="Vector_6" d="M51.4289 0.5H42.8574V9.07143H51.4289V0.5Z" fill="white" fill-opacity="0.7"/>
<path id="Vector_7" d="M59.9992 0.5H51.4277V9.07143H59.9992V0.5Z" fill="white" fill-opacity="0.7"/>
<path id="Vector_8" d="M77.1437 0.5H68.5723V9.07143H77.1437V0.5Z" fill="white" fill-opacity="0.7"/>
<path id="Vector_9" d="M85.714 0.5H77.1426V9.07143H85.714V0.5Z" fill="white" fill-opacity="0.7"/>
<path id="Vector_10" d="M94.2863 0.5H85.7148V9.07143H94.2863V0.5Z" fill="white" fill-opacity="0.7"/>
<path id="Vector_11" d="M102.857 0.5H94.2852V9.07143H102.857V0.5Z" fill="white" fill-opacity="0.7"/>
<path id="Vector_12" d="M111.429 0.5H102.857V9.07143H111.429V0.5Z" fill="white" fill-opacity="0.7"/>
<path id="Vector_13" d="M128.571 0.5H120V9.07143H128.571V0.5Z" fill="white" fill-opacity="0.7"/>
<path id="Vector_14" d="M137.144 0.5H128.572V9.07143H137.144V0.5Z" fill="white" fill-opacity="0.7"/>
<path id="Vector_15" d="M145.714 0.5H137.143V9.07143H145.714V0.5Z" fill="white" fill-opacity="0.7"/>
<path id="Vector_16" d="M154.286 0.5H145.715V9.07143H154.286V0.5Z" fill="white" fill-opacity="0.7"/>
<path id="Vector_17" d="M162.857 0.5H154.285V9.07143H162.857V0.5Z" fill="white" fill-opacity="0.7"/>
<path id="Vector_18" d="M171.429 0.5H162.857V9.07143H171.429V0.5Z" fill="white" fill-opacity="0.7"/>
<path id="Vector_19" d="M179.999 0.5H171.428V9.07143H179.999V0.5Z" fill="white" fill-opacity="0.7"/>
<path id="Vector_20" d="M8.57143 9.07129H0V17.6427H8.57143V9.07129Z" fill="white" fill-opacity="0.7"/>
<path id="Vector_21" d="M59.9992 9.07129H51.4277V17.6427H59.9992V9.07129Z" fill="white" fill-opacity="0.7"/>
<path id="Vector_22" d="M77.1437 9.07129H68.5723V17.6427H77.1437V9.07129Z" fill="white" fill-opacity="0.7"/>
<path id="Vector_23" d="M85.714 9.07129H77.1426V17.6427H85.714V9.07129Z" fill="white" fill-opacity="0.7"/>
<path id="Vector_24" d="M102.857 9.07129H94.2852V17.6427H102.857V9.07129Z" fill="white" fill-opacity="0.7"/>
<path id="Vector_25" d="M111.429 9.07129H102.857V17.6427H111.429V9.07129Z" fill="white" fill-opacity="0.7"/>
<path id="Vector_26" d="M128.571 9.07129H120V17.6427H128.571V9.07129Z" fill="white" fill-opacity="0.7"/>
<path id="Vector_27" d="M179.999 9.07129H171.428V17.6427H179.999V9.07129Z" fill="white" fill-opacity="0.7"/>
<path id="Vector_28" d="M8.57143 17.6426H0V26.214H8.57143V17.6426Z" fill="white" fill-opacity="0.7"/>
<path id="Vector_29" d="M25.714 17.6426H17.1426V26.214H25.714V17.6426Z" fill="white" fill-opacity="0.7"/>
<path id="Vector_30" d="M34.2863 17.6426H25.7148V26.214H34.2863V17.6426Z" fill="white" fill-opacity="0.7"/>
<path id="Vector_31" d="M42.8566 17.6426H34.2852V26.214H42.8566V17.6426Z" fill="white" fill-opacity="0.7"/>
<path id="Vector_32" d="M59.9992 17.6426H51.4277V26.214H59.9992V17.6426Z" fill="white" fill-opacity="0.7"/>
<path id="Vector_33" d="M85.714 17.6426H77.1426V26.214H85.714V17.6426Z" fill="white" fill-opacity="0.7"/>
<path id="Vector_34" d="M94.2863 17.6426H85.7148V26.214H94.2863V17.6426Z" fill="white" fill-opacity="0.7"/>
<path id="Vector_35" d="M102.857 17.6426H94.2852V26.214H102.857V17.6426Z" fill="white" fill-opacity="0.7"/>
<path id="Vector_36" d="M128.571 17.6426H120V26.214H128.571V17.6426Z" fill="white" fill-opacity="0.7"/>
<path id="Vector_37" d="M145.714 17.6426H137.143V26.214H145.714V17.6426Z" fill="white" fill-opacity="0.7"/>
<path id="Vector_38" d="M154.286 17.6426H145.715V26.214H154.286V17.6426Z" fill="white" fill-opacity="0.7"/>
<path id="Vector_39" d="M162.857 17.6426H154.285V26.214H162.857V17.6426Z" fill="white" fill-opacity="0.7"/>
<path id="Vector_40" d="M179.999 17.6426H171.428V26.214H179.999V17.6426Z" fill="white" fill-opacity="0.7"/>
<path id="Vector_41" d="M8.57143 26.2139H0V34.7853H8.57143V26.2139Z" fill="white" fill-opacity="0.7"/>
<path id="Vector_42" d="M25.714 26.2148H17.1426V34.7863H25.714V26.2148Z" fill="white" fill-opacity="0.7"/>
<path id="Vector_43" d="M34.2863 26.2148H25.7148V34.7863H34.2863V26.2148Z" fill="white" fill-opacity="0.7"/>
<path id="Vector_44" d="M42.8566 26.2148H34.2852V34.7863H42.8566V26.2148Z" fill="white" fill-opacity="0.7"/>
<path id="Vector_45" d="M59.9992 26.2148H51.4277V34.7863H59.9992V26.2148Z" fill="white" fill-opacity="0.7"/>
<path id="Vector_46" d="M85.714 26.2148H77.1426V34.7863H85.714V26.2148Z" fill="white" fill-opacity="0.7"/>
<path id="Vector_47" d="M102.857 26.2148H94.2852V34.7863H102.857V26.2148Z" fill="white" fill-opacity="0.7"/>
<path id="Vector_48" d="M111.429 26.2148H102.857V34.7863H111.429V26.2148Z" fill="white" fill-opacity="0.7"/>
<path id="Vector_49" d="M128.571 26.2139H120V34.7853H128.571V26.2139Z" fill="white" fill-opacity="0.7"/>
<path id="Vector_50" d="M145.714 26.2148H137.143V34.7863H145.714V26.2148Z" fill="white" fill-opacity="0.7"/>
<path id="Vector_51" d="M154.286 26.2148H145.715V34.7863H154.286V26.2148Z" fill="white" fill-opacity="0.7"/>
<path id="Vector_52" d="M162.857 26.2148H154.285V34.7863H162.857V26.2148Z" fill="white" fill-opacity="0.7"/>
<path id="Vector_53" d="M179.999 26.2148H171.428V34.7863H179.999V26.2148Z" fill="white" fill-opacity="0.7"/>
<path id="Vector_54" d="M8.57143 34.7861H0V43.3576H8.57143V34.7861Z" fill="white" fill-opacity="0.7"/>
<path id="Vector_55" d="M25.714 34.7852H17.1426V43.3566H25.714V34.7852Z" fill="white" fill-opacity="0.7"/>
<path id="Vector_56" d="M34.2863 34.7852H25.7148V43.3566H34.2863V34.7852Z" fill="white" fill-opacity="0.7"/>
<path id="Vector_57" d="M42.8566 34.7852H34.2852V43.3566H42.8566V34.7852Z" fill="white" fill-opacity="0.7"/>
<path id="Vector_58" d="M59.9992 34.7852H51.4277V43.3566H59.9992V34.7852Z" fill="white" fill-opacity="0.7"/>
<path id="Vector_59" d="M77.1437 34.7852H68.5723V43.3566H77.1437V34.7852Z" fill="white" fill-opacity="0.7"/>
<path id="Vector_60" d="M111.429 34.7852H102.857V43.3566H111.429V34.7852Z" fill="white" fill-opacity="0.7"/>
<path id="Vector_61" d="M128.571 34.7861H120V43.3576H128.571V34.7861Z" fill="white" fill-opacity="0.7"/>
<path id="Vector_62" d="M145.714 34.7852H137.143V43.3566H145.714V34.7852Z" fill="white" fill-opacity="0.7"/>
<path id="Vector_63" d="M154.286 34.7852H145.715V43.3566H154.286V34.7852Z" fill="white" fill-opacity="0.7"/>
<path id="Vector_64" d="M162.857 34.7852H154.285V43.3566H162.857V34.7852Z" fill="white" fill-opacity="0.7"/>
<path id="Vector_65" d="M179.999 34.7852H171.428V43.3566H179.999V34.7852Z" fill="white" fill-opacity="0.7"/>
<path id="Vector_66" d="M8.57143 43.3574H0V51.9289H8.57143V43.3574Z" fill="white" fill-opacity="0.7"/>
<path id="Vector_67" d="M59.9992 43.3574H51.4277V51.9289H59.9992V43.3574Z" fill="white" fill-opacity="0.7"/>
<path id="Vector_68" d="M77.1437 43.3574H68.5723V51.9289H77.1437V43.3574Z" fill="white" fill-opacity="0.7"/>
<path id="Vector_69" d="M94.2863 43.3574H85.7148V51.9289H94.2863V43.3574Z" fill="white" fill-opacity="0.7"/>
<path id="Vector_70" d="M128.571 43.3574H120V51.9289H128.571V43.3574Z" fill="white" fill-opacity="0.7"/>
<path id="Vector_71" d="M179.999 43.3574H171.428V51.9289H179.999V43.3574Z" fill="white" fill-opacity="0.7"/>
<path id="Vector_72" d="M8.57143 51.9287H0V60.5001H8.57143V51.9287Z" fill="white" fill-opacity="0.7"/>
<path id="Vector_73" d="M17.1437 51.9287H8.57227V60.5001H17.1437V51.9287Z" fill="white" fill-opacity="0.7"/>
<path id="Vector_74" d="M25.714 51.9287H17.1426V60.5001H25.714V51.9287Z" fill="white" fill-opacity="0.7"/>
<path id="Vector_75" d="M34.2863 51.9287H25.7148V60.5001H34.2863V51.9287Z" fill="white" fill-opacity="0.7"/>
<path id="Vector_76" d="M42.8566 51.9287H34.2852V60.5001H42.8566V51.9287Z" fill="white" fill-opacity="0.7"/>
<path id="Vector_77" d="M51.4289 51.9287H42.8574V60.5001H51.4289V51.9287Z" fill="white" fill-opacity="0.7"/>
<path id="Vector_78" d="M59.9992 51.9287H51.4277V60.5001H59.9992V51.9287Z" fill="white" fill-opacity="0.7"/>
<path id="Vector_79" d="M77.1437 51.9287H68.5723V60.5001H77.1437V51.9287Z" fill="white" fill-opacity="0.7"/>
<path id="Vector_80" d="M94.2863 51.9287H85.7148V60.5001H94.2863V51.9287Z" fill="white" fill-opacity="0.7"/>
<path id="Vector_81" d="M111.429 51.9287H102.857V60.5001H111.429V51.9287Z" fill="white" fill-opacity="0.7"/>
<path id="Vector_82" d="M128.571 51.9287H120V60.5001H128.571V51.9287Z" fill="white" fill-opacity="0.7"/>
<path id="Vector_83" d="M137.144 51.9287H128.572V60.5001H137.144V51.9287Z" fill="white" fill-opacity="0.7"/>
<path id="Vector_84" d="M145.714 51.9287H137.143V60.5001H145.714V51.9287Z" fill="white" fill-opacity="0.7"/>
<path id="Vector_85" d="M154.286 51.9287H145.715V60.5001H154.286V51.9287Z" fill="white" fill-opacity="0.7"/>
<path id="Vector_86" d="M162.857 51.9287H154.285V60.5001H162.857V51.9287Z" fill="white" fill-opacity="0.7"/>
<path id="Vector_87" d="M171.429 51.9287H162.857V60.5001H171.429V51.9287Z" fill="white" fill-opacity="0.7"/>
<path id="Vector_88" d="M179.999 51.9287H171.428V60.5001H179.999V51.9287Z" fill="white" fill-opacity="0.7"/>
<path id="Vector_89" d="M77.1437 60.5H68.5723V69.0714H77.1437V60.5Z" fill="white" fill-opacity="0.7"/>
<path id="Vector_90" d="M85.714 60.5H77.1426V69.0714H85.714V60.5Z" fill="white" fill-opacity="0.7"/>
<path id="Vector_91" d="M94.2863 60.5H85.7148V69.0714H94.2863V60.5Z" fill="white" fill-opacity="0.7"/>
<path id="Vector_92" d="M102.857 60.5H94.2852V69.0714H102.857V60.5Z" fill="white" fill-opacity="0.7"/>
<path id="Vector_93" d="M8.57143 69.0713H0V77.6427H8.57143V69.0713Z" fill="white" fill-opacity="0.7"/>
<path id="Vector_94" d="M17.1437 69.0713H8.57227V77.6427H17.1437V69.0713Z" fill="white" fill-opacity="0.7"/>
<path id="Vector_95" d="M25.714 69.0713H17.1426V77.6427H25.714V69.0713Z" fill="white" fill-opacity="0.7"/>
<path id="Vector_96" d="M51.4289 69.0713H42.8574V77.6427H51.4289V69.0713Z" fill="white" fill-opacity="0.7"/>
<path id="Vector_97" d="M59.9992 69.0713H51.4277V77.6427H59.9992V69.0713Z" fill="white" fill-opacity="0.7"/>
<path id="Vector_98" d="M77.1437 69.0713H68.5723V77.6427H77.1437V69.0713Z" fill="white" fill-opacity="0.7"/>
<path id="Vector_99" d="M85.714 69.0713H77.1426V77.6427H85.714V69.0713Z" fill="white" fill-opacity="0.7"/>
<path id="Vector_100" d="M94.2863 69.0713H85.7148V77.6427H94.2863V69.0713Z" fill="white" fill-opacity="0.7"/>
<path id="Vector_101" d="M102.857 69.0713H94.2852V77.6427H102.857V69.0713Z" fill="white" fill-opacity="0.7"/>
<path id="Vector_102" d="M111.429 69.0713H102.857V77.6427H111.429V69.0713Z" fill="white" fill-opacity="0.7"/>
<path id="Vector_103" d="M119.999 69.0713H111.428V77.6427H119.999V69.0713Z" fill="white" fill-opacity="0.7"/>
<path id="Vector_104" d="M128.571 69.0713H120V77.6427H128.571V69.0713Z" fill="white" fill-opacity="0.7"/>
<path id="Vector_105" d="M137.144 69.0713H128.572V77.6427H137.144V69.0713Z" fill="white" fill-opacity="0.7"/>
<path id="Vector_106" d="M145.714 69.0713H137.143V77.6427H145.714V69.0713Z" fill="white" fill-opacity="0.7"/>
<path id="Vector_107" d="M171.429 69.0713H162.857V77.6427H171.429V69.0713Z" fill="white" fill-opacity="0.7"/>
<path id="Vector_108" d="M179.999 69.0713H171.428V77.6427H179.999V69.0713Z" fill="white" fill-opacity="0.7"/>
<path id="Vector_109" d="M8.57143 77.6426H0V86.214H8.57143V77.6426Z" fill="white" fill-opacity="0.7"/>
<path id="Vector_110" d="M17.1437 77.6426H8.57227V86.214H17.1437V77.6426Z" fill="white" fill-opacity="0.7"/>
<path id="Vector_111" d="M42.8566 77.6426H34.2852V86.214H42.8566V77.6426Z" fill="white" fill-opacity="0.7"/>
<path id="Vector_112" d="M51.4289 77.6426H42.8574V86.214H51.4289V77.6426Z" fill="white" fill-opacity="0.7"/>
<path id="Vector_113" d="M85.714 77.6426H77.1426V86.214H85.714V77.6426Z" fill="white" fill-opacity="0.7"/>
<path id="Vector_114" d="M94.2863 77.6426H85.7148V86.214H94.2863V77.6426Z" fill="white" fill-opacity="0.7"/>
<path id="Vector_115" d="M119.999 77.6426H111.428V86.214H119.999V77.6426Z" fill="white" fill-opacity="0.7"/>
<path id="Vector_116" d="M128.571 77.6426H120V86.214H128.571V77.6426Z" fill="white" fill-opacity="0.7"/>
<path id="Vector_117" d="M145.714 77.6426H137.143V86.214H145.714V77.6426Z" fill="white" fill-opacity="0.7"/>
<path id="Vector_118" d="M154.286 77.6426H145.715V86.214H154.286V77.6426Z" fill="white" fill-opacity="0.7"/>
<path id="Vector_119" d="M171.429 77.6426H162.857V86.214H171.429V77.6426Z" fill="white" fill-opacity="0.7"/>
<path id="Vector_120" d="M179.999 77.6426H171.428V86.214H179.999V77.6426Z" fill="white" fill-opacity="0.7"/>
<path id="Vector_121" d="M34.2863 86.2148H25.7148V94.7863H34.2863V86.2148Z" fill="white" fill-opacity="0.7"/>
<path id="Vector_122" d="M42.8566 86.2148H34.2852V94.7863H42.8566V86.2148Z" fill="white" fill-opacity="0.7"/>
<path id="Vector_123" d="M51.4289 86.2148H42.8574V94.7863H51.4289V86.2148Z" fill="white" fill-opacity="0.7"/>
<path id="Vector_124" d="M59.9992 86.2148H51.4277V94.7863H59.9992V86.2148Z" fill="white" fill-opacity="0.7"/>
<path id="Vector_125" d="M68.5714 86.2139H60V94.7853H68.5714V86.2139Z" fill="white" fill-opacity="0.7"/>
<path id="Vector_126" d="M137.144 86.2148H128.572V94.7863H137.144V86.2148Z" fill="white" fill-opacity="0.7"/>
<path id="Vector_127" d="M145.714 86.2148H137.143V94.7863H145.714V86.2148Z" fill="white" fill-opacity="0.7"/>
<path id="Vector_128" d="M154.286 86.2148H145.715V94.7863H154.286V86.2148Z" fill="white" fill-opacity="0.7"/>
<path id="Vector_129" d="M162.857 86.2148H154.285V94.7863H162.857V86.2148Z" fill="white" fill-opacity="0.7"/>
<path id="Vector_130" d="M179.999 86.2148H171.428V94.7863H179.999V86.2148Z" fill="white" fill-opacity="0.7"/>
<path id="Vector_131" d="M34.2863 94.7852H25.7148V103.357H34.2863V94.7852Z" fill="white" fill-opacity="0.7"/>
<path id="Vector_132" d="M42.8566 94.7852H34.2852V103.357H42.8566V94.7852Z" fill="white" fill-opacity="0.7"/>
<path id="Vector_133" d="M51.4289 94.7852H42.8574V103.357H51.4289V94.7852Z" fill="white" fill-opacity="0.7"/>
<path id="Vector_134" d="M77.1437 94.7852H68.5723V103.357H77.1437V94.7852Z" fill="white" fill-opacity="0.7"/>
<path id="Vector_135" d="M111.429 94.7852H102.857V103.357H111.429V94.7852Z" fill="white" fill-opacity="0.7"/>
<path id="Vector_136" d="M137.144 94.7852H128.572V103.357H137.144V94.7852Z" fill="white" fill-opacity="0.7"/>
<path id="Vector_137" d="M145.714 94.7852H137.143V103.357H145.714V94.7852Z" fill="white" fill-opacity="0.7"/>
<path id="Vector_138" d="M154.286 94.7852H145.715V103.357H154.286V94.7852Z" fill="white" fill-opacity="0.7"/>
<path id="Vector_139" d="M17.1437 103.357H8.57227V111.929H17.1437V103.357Z" fill="white" fill-opacity="0.7"/>
<path id="Vector_140" d="M25.714 103.357H17.1426V111.929H25.714V103.357Z" fill="white" fill-opacity="0.7"/>
<path id="Vector_141" d="M59.9992 103.357H51.4277V111.929H59.9992V103.357Z" fill="white" fill-opacity="0.7"/>
<path id="Vector_142" d="M119.999 103.357H111.428V111.929H119.999V103.357Z" fill="white" fill-opacity="0.7"/>
<path id="Vector_143" d="M128.571 103.357H120V111.929H128.571V103.357Z" fill="white" fill-opacity="0.7"/>
<path id="Vector_144" d="M171.429 103.357H162.857V111.929H171.429V103.357Z" fill="white" fill-opacity="0.7"/>
<path id="Vector_145" d="M77.1437 111.929H68.5723V120.5H77.1437V111.929Z" fill="white" fill-opacity="0.7"/>
<path id="Vector_146" d="M102.857 111.929H94.2852V120.5H102.857V111.929Z" fill="white" fill-opacity="0.7"/>
<path id="Vector_147" d="M119.999 111.929H111.428V120.5H119.999V111.929Z" fill="white" fill-opacity="0.7"/>
<path id="Vector_148" d="M128.571 111.929H120V120.5H128.571V111.929Z" fill="white" fill-opacity="0.7"/>
<path id="Vector_149" d="M145.714 111.929H137.143V120.5H145.714V111.929Z" fill="white" fill-opacity="0.7"/>
<path id="Vector_150" d="M154.286 111.929H145.715V120.5H154.286V111.929Z" fill="white" fill-opacity="0.7"/>
<path id="Vector_151" d="M179.999 111.929H171.428V120.5H179.999V111.929Z" fill="white" fill-opacity="0.7"/>
<path id="Vector_152" d="M8.57143 120.5H0V129.071H8.57143V120.5Z" fill="white" fill-opacity="0.7"/>
<path id="Vector_153" d="M17.1437 120.5H8.57227V129.071H17.1437V120.5Z" fill="white" fill-opacity="0.7"/>
<path id="Vector_154" d="M25.714 120.5H17.1426V129.071H25.714V120.5Z" fill="white" fill-opacity="0.7"/>
<path id="Vector_155" d="M34.2863 120.5H25.7148V129.071H34.2863V120.5Z" fill="white" fill-opacity="0.7"/>
<path id="Vector_156" d="M42.8566 120.5H34.2852V129.071H42.8566V120.5Z" fill="white" fill-opacity="0.7"/>
<path id="Vector_157" d="M51.4289 120.5H42.8574V129.071H51.4289V120.5Z" fill="white" fill-opacity="0.7"/>
<path id="Vector_158" d="M59.9992 120.5H51.4277V129.071H59.9992V120.5Z" fill="white" fill-opacity="0.7"/>
<path id="Vector_159" d="M94.2863 120.5H85.7148V129.071H94.2863V120.5Z" fill="white" fill-opacity="0.7"/>
<path id="Vector_160" d="M102.857 120.5H94.2852V129.071H102.857V120.5Z" fill="white" fill-opacity="0.7"/>
<path id="Vector_161" d="M111.429 120.5H102.857V129.071H111.429V120.5Z" fill="white" fill-opacity="0.7"/>
<path id="Vector_162" d="M119.999 120.5H111.428V129.071H119.999V120.5Z" fill="white" fill-opacity="0.7"/>
<path id="Vector_163" d="M137.144 120.5H128.572V129.071H137.144V120.5Z" fill="white" fill-opacity="0.7"/>
<path id="Vector_164" d="M145.714 120.5H137.143V129.071H145.714V120.5Z" fill="white" fill-opacity="0.7"/>
<path id="Vector_165" d="M154.286 120.5H145.715V129.071H154.286V120.5Z" fill="white" fill-opacity="0.7"/>
<path id="Vector_166" d="M162.857 120.5H154.285V129.071H162.857V120.5Z" fill="white" fill-opacity="0.7"/>
<path id="Vector_167" d="M179.999 120.5H171.428V129.071H179.999V120.5Z" fill="white" fill-opacity="0.7"/>
<path id="Vector_168" d="M8.57143 129.071H0V137.643H8.57143V129.071Z" fill="white" fill-opacity="0.7"/>
<path id="Vector_169" d="M59.9992 129.071H51.4277V137.643H59.9992V129.071Z" fill="white" fill-opacity="0.7"/>
<path id="Vector_170" d="M77.1437 129.071H68.5723V137.643H77.1437V129.071Z" fill="white" fill-opacity="0.7"/>
<path id="Vector_171" d="M102.857 129.071H94.2852V137.643H102.857V129.071Z" fill="white" fill-opacity="0.7"/>
<path id="Vector_172" d="M119.999 129.071H111.428V137.643H119.999V129.071Z" fill="white" fill-opacity="0.7"/>
<path id="Vector_173" d="M128.571 129.071H120V137.643H128.571V129.071Z" fill="white" fill-opacity="0.7"/>
<path id="Vector_174" d="M145.714 129.071H137.143V137.643H145.714V129.071Z" fill="white" fill-opacity="0.7"/>
<path id="Vector_175" d="M154.286 129.071H145.715V137.643H154.286V129.071Z" fill="white" fill-opacity="0.7"/>
<path id="Vector_176" d="M8.57143 137.643H0V146.214H8.57143V137.643Z" fill="white" fill-opacity="0.7"/>
<path id="Vector_177" d="M25.714 137.643H17.1426V146.214H25.714V137.643Z" fill="white" fill-opacity="0.7"/>
<path id="Vector_178" d="M34.2863 137.643H25.7148V146.214H34.2863V137.643Z" fill="white" fill-opacity="0.7"/>
<path id="Vector_179" d="M42.8566 137.643H34.2852V146.214H42.8566V137.643Z" fill="white" fill-opacity="0.7"/>
<path id="Vector_180" d="M59.9992 137.643H51.4277V146.214H59.9992V137.643Z" fill="white" fill-opacity="0.7"/>
<path id="Vector_181" d="M85.714 137.643H77.1426V146.214H85.714V137.643Z" fill="white" fill-opacity="0.7"/>
<path id="Vector_182" d="M94.2863 137.643H85.7148V146.214H94.2863V137.643Z" fill="white" fill-opacity="0.7"/>
<path id="Vector_183" d="M102.857 137.643H94.2852V146.214H102.857V137.643Z" fill="white" fill-opacity="0.7"/>
<path id="Vector_184" d="M111.429 137.643H102.857V146.214H111.429V137.643Z" fill="white" fill-opacity="0.7"/>
<path id="Vector_185" d="M119.999 137.643H111.428V146.214H119.999V137.643Z" fill="white" fill-opacity="0.7"/>
<path id="Vector_186" d="M128.571 137.643H120V146.214H128.571V137.643Z" fill="white" fill-opacity="0.7"/>
<path id="Vector_187" d="M137.144 137.643H128.572V146.214H137.144V137.643Z" fill="white" fill-opacity="0.7"/>
<path id="Vector_188" d="M171.429 137.643H162.857V146.214H171.429V137.643Z" fill="white" fill-opacity="0.7"/>
<path id="Vector_189" d="M8.57143 146.214H0V154.785H8.57143V146.214Z" fill="white" fill-opacity="0.7"/>
<path id="Vector_190" d="M25.714 146.215H17.1426V154.786H25.714V146.215Z" fill="white" fill-opacity="0.7"/>
<path id="Vector_191" d="M34.2863 146.215H25.7148V154.786H34.2863V146.215Z" fill="white" fill-opacity="0.7"/>
<path id="Vector_192" d="M42.8566 146.215H34.2852V154.786H42.8566V146.215Z" fill="white" fill-opacity="0.7"/>
<path id="Vector_193" d="M59.9992 146.215H51.4277V154.786H59.9992V146.215Z" fill="white" fill-opacity="0.7"/>
<path id="Vector_194" d="M94.2863 146.215H85.7148V154.786H94.2863V146.215Z" fill="white" fill-opacity="0.7"/>
<path id="Vector_195" d="M137.144 146.215H128.572V154.786H137.144V146.215Z" fill="white" fill-opacity="0.7"/>
<path id="Vector_196" d="M145.714 146.215H137.143V154.786H145.714V146.215Z" fill="white" fill-opacity="0.7"/>
<path id="Vector_197" d="M8.57143 154.786H0V163.358H8.57143V154.786Z" fill="white" fill-opacity="0.7"/>
<path id="Vector_198" d="M25.714 154.785H17.1426V163.357H25.714V154.785Z" fill="white" fill-opacity="0.7"/>
<path id="Vector_199" d="M34.2863 154.785H25.7148V163.357H34.2863V154.785Z" fill="white" fill-opacity="0.7"/>
<path id="Vector_200" d="M42.8566 154.785H34.2852V163.357H42.8566V154.785Z" fill="white" fill-opacity="0.7"/>
<path id="Vector_201" d="M59.9992 154.785H51.4277V163.357H59.9992V154.785Z" fill="white" fill-opacity="0.7"/>
<path id="Vector_202" d="M77.1437 154.785H68.5723V163.357H77.1437V154.785Z" fill="white" fill-opacity="0.7"/>
<path id="Vector_203" d="M85.714 154.785H77.1426V163.357H85.714V154.785Z" fill="white" fill-opacity="0.7"/>
<path id="Vector_204" d="M128.571 154.786H120V163.358H128.571V154.786Z" fill="white" fill-opacity="0.7"/>
<path id="Vector_205" d="M137.144 154.785H128.572V163.357H137.144V154.785Z" fill="white" fill-opacity="0.7"/>
<path id="Vector_206" d="M145.714 154.785H137.143V163.357H145.714V154.785Z" fill="white" fill-opacity="0.7"/>
<path id="Vector_207" d="M154.286 154.785H145.715V163.357H154.286V154.785Z" fill="white" fill-opacity="0.7"/>
<path id="Vector_208" d="M162.857 154.785H154.285V163.357H162.857V154.785Z" fill="white" fill-opacity="0.7"/>
<path id="Vector_209" d="M171.429 154.785H162.857V163.357H171.429V154.785Z" fill="white" fill-opacity="0.7"/>
<path id="Vector_210" d="M179.999 154.785H171.428V163.357H179.999V154.785Z" fill="white" fill-opacity="0.7"/>
<path id="Vector_211" d="M8.57143 163.357H0V171.929H8.57143V163.357Z" fill="white" fill-opacity="0.7"/>
<path id="Vector_212" d="M59.9992 163.357H51.4277V171.929H59.9992V163.357Z" fill="white" fill-opacity="0.7"/>
<path id="Vector_213" d="M77.1437 163.357H68.5723V171.929H77.1437V163.357Z" fill="white" fill-opacity="0.7"/>
<path id="Vector_214" d="M94.2863 163.357H85.7148V171.929H94.2863V163.357Z" fill="white" fill-opacity="0.7"/>
<path id="Vector_215" d="M111.429 163.357H102.857V171.929H111.429V163.357Z" fill="white" fill-opacity="0.7"/>
<path id="Vector_216" d="M137.144 163.357H128.572V171.929H137.144V163.357Z" fill="white" fill-opacity="0.7"/>
<path id="Vector_217" d="M145.714 163.357H137.143V171.929H145.714V163.357Z" fill="white" fill-opacity="0.7"/>
<path id="Vector_218" d="M154.286 163.357H145.715V171.929H154.286V163.357Z" fill="white" fill-opacity="0.7"/>
<path id="Vector_219" d="M8.57143 171.929H0V180.5H8.57143V171.929Z" fill="white" fill-opacity="0.7"/>
<path id="Vector_220" d="M17.1437 171.929H8.57227V180.5H17.1437V171.929Z" fill="white" fill-opacity="0.7"/>
<path id="Vector_221" d="M25.714 171.929H17.1426V180.5H25.714V171.929Z" fill="white" fill-opacity="0.7"/>
<path id="Vector_222" d="M34.2863 171.929H25.7148V180.5H34.2863V171.929Z" fill="white" fill-opacity="0.7"/>
<path id="Vector_223" d="M42.8566 171.929H34.2852V180.5H42.8566V171.929Z" fill="white" fill-opacity="0.7"/>
<path id="Vector_224" d="M51.4289 171.929H42.8574V180.5H51.4289V171.929Z" fill="white" fill-opacity="0.7"/>
<path id="Vector_225" d="M59.9992 171.929H51.4277V180.5H59.9992V171.929Z" fill="white" fill-opacity="0.7"/>
<path id="Vector_226" d="M77.1437 171.929H68.5723V180.5H77.1437V171.929Z" fill="white" fill-opacity="0.7"/>
<path id="Vector_227" d="M85.714 171.929H77.1426V180.5H85.714V171.929Z" fill="white" fill-opacity="0.7"/>
<path id="Vector_228" d="M94.2863 171.929H85.7148V180.5H94.2863V171.929Z" fill="white" fill-opacity="0.7"/>
<path id="Vector_229" d="M128.571 171.929H120V180.5H128.571V171.929Z" fill="white" fill-opacity="0.7"/>
<path id="Vector_230" d="M137.144 171.929H128.572V180.5H137.144V171.929Z" fill="white" fill-opacity="0.7"/>
<path id="Vector_231" d="M145.714 171.929H137.143V180.5H145.714V171.929Z" fill="white" fill-opacity="0.7"/>
<path id="Vector_232" d="M179.999 171.929H171.428V180.5H179.999V171.929Z" fill="white" fill-opacity="0.7"/>
</g>
</g>
<defs>
<clipPath id="clip0_7869_59181">
<rect width="180" height="180" fill="white" transform="translate(0 0.5)"/>
</clipPath>
</defs>
</svg>
