<svg width="30" height="30" viewBox="0 0 30 30" fill="none" xmlns="http://www.w3.org/2000/svg">
<path d="M23.3892 8.82814C23.3553 8.77502 23.3168 8.73335 23.2663 8.69533C22.8657 8.39429 20.8334 6.95627 18.2324 6.6771C18.2272 6.67658 18.2074 6.67554 18.2027 6.67554C18.1517 6.67554 18.1074 6.70522 18.086 6.74845L17.9459 7.02866C17.9371 7.04585 17.9319 7.06564 17.9319 7.08647C17.9319 7.14325 17.9683 7.19168 18.0194 7.20939C18.0225 7.21043 18.0444 7.21512 18.0522 7.21668C20.2746 7.7521 21.6267 8.72189 22.8173 9.7922C20.7095 8.71616 18.6277 7.70835 15.0001 7.70835C11.3725 7.70835 9.29126 8.71668 7.18292 9.7922C8.37355 8.72189 9.72563 7.7521 11.948 7.21668C11.9558 7.2146 11.9777 7.21043 11.9808 7.20939C12.0319 7.19168 12.0683 7.14325 12.0683 7.08647C12.0683 7.06564 12.0637 7.04585 12.0548 7.02866L11.9142 6.74845C11.8928 6.70522 11.8491 6.67554 11.7975 6.67554C11.7928 6.67554 11.7725 6.67658 11.7678 6.6771C9.16678 6.95627 7.13448 8.39429 6.73396 8.69533C6.68344 8.73335 6.64542 8.77502 6.61105 8.82814C6.2423 9.4047 3.98136 13.1969 3.5423 20.0948C3.53761 20.1688 3.56313 20.2453 3.61261 20.3005C6.00428 22.9797 9.43657 23.2964 10.1689 23.3333C10.2558 23.3375 10.3392 23.2995 10.3913 23.2297L11.059 22.3396C11.111 22.2698 11.0829 22.1719 11.0012 22.1422C9.5923 21.6287 8.02355 20.736 6.66157 19.1703C8.34959 20.4464 10.8959 21.7708 15.0001 21.7708C19.1043 21.7708 21.6506 20.4464 23.3381 19.1703C21.9756 20.736 20.4074 21.6281 18.9985 22.1422C18.9168 22.1719 18.8887 22.2698 18.9407 22.3396L19.6084 23.2297C19.661 23.2995 19.7439 23.338 19.8308 23.3333C20.5637 23.2958 23.9954 22.9797 26.3871 20.3005C26.4366 20.2453 26.4621 20.1688 26.4574 20.0948C26.0189 13.1969 23.7579 9.4047 23.3892 8.82814Z" fill="url(#paint0_radial_4503_7458)"/>
<path opacity="0.05" d="M18.3855 18.6458C19.6799 18.6458 20.7292 17.4799 20.7292 16.0417C20.7292 14.6034 19.6799 13.4375 18.3855 13.4375C17.0911 13.4375 16.0417 14.6034 16.0417 16.0417C16.0417 17.4799 17.0911 18.6458 18.3855 18.6458Z" fill="black"/>
<path opacity="0.05" d="M18.3853 18.3854C19.5359 18.3854 20.4687 17.336 20.4687 16.0416C20.4687 14.7472 19.5359 13.6979 18.3853 13.6979C17.2347 13.6979 16.302 14.7472 16.302 16.0416C16.302 17.336 17.2347 18.3854 18.3853 18.3854Z" fill="black"/>
<path d="M18.3854 18.125C19.3922 18.125 20.2083 17.1923 20.2083 16.0417C20.2083 14.8911 19.3922 13.9584 18.3854 13.9584C17.3786 13.9584 16.5625 14.8911 16.5625 16.0417C16.5625 17.1923 17.3786 18.125 18.3854 18.125Z" fill="white"/>
<path opacity="0.05" d="M11.6145 18.6458C12.9089 18.6458 13.9583 17.4799 13.9583 16.0417C13.9583 14.6034 12.9089 13.4375 11.6145 13.4375C10.3201 13.4375 9.27075 14.6034 9.27075 16.0417C9.27075 17.4799 10.3201 18.6458 11.6145 18.6458Z" fill="black"/>
<path opacity="0.05" d="M11.6146 18.3854C12.7652 18.3854 13.6979 17.336 13.6979 16.0416C13.6979 14.7472 12.7652 13.6979 11.6146 13.6979C10.464 13.6979 9.53125 14.7472 9.53125 16.0416C9.53125 17.336 10.464 18.3854 11.6146 18.3854Z" fill="black"/>
<path d="M11.6147 18.125C12.6214 18.125 13.4376 17.1923 13.4376 16.0417C13.4376 14.8911 12.6214 13.9584 11.6147 13.9584C10.6079 13.9584 9.79175 14.8911 9.79175 16.0417C9.79175 17.1923 10.6079 18.125 11.6147 18.125Z" fill="white"/>
<defs>
<radialGradient id="paint0_radial_4503_7458" cx="0" cy="0" r="1" gradientUnits="userSpaceOnUse" gradientTransform="translate(15.0001 7.71304) scale(16.7979 16.7979)">
<stop stop-color="#8C9EFF"/>
<stop offset="0.368" stop-color="#889AF8"/>
<stop offset="0.889" stop-color="#7E8FE6"/>
<stop offset="1" stop-color="#7B8CE1"/>
</radialGradient>
</defs>
</svg>
