<svg width="50" height="50" viewBox="0 0 50 50" fill="none" xmlns="http://www.w3.org/2000/svg">
<rect width="50" height="50" rx="4" fill="#2B1731"/>
<g clip-path="url(#clip0_4285_7835)">
<path d="M25 13C18.3726 13 13 18.3726 13 25C13 31.6274 18.3726 37 25 37C31.6274 37 37 31.6274 37 25C37 18.3726 31.6274 13 25 13ZM25 35.5C19.201 35.5 14.5 30.799 14.5 25C14.5 19.201 19.201 14.5 25 14.5C30.799 14.5 35.5 19.201 35.5 25C35.5 30.799 30.799 35.5 25 35.5Z" fill="#FDEB56"/>
<path d="M21.25 22.75C22.0784 22.75 22.75 22.0784 22.75 21.25C22.75 20.4216 22.0784 19.75 21.25 19.75C20.4216 19.75 19.75 20.4216 19.75 21.25C19.75 22.0784 20.4216 22.75 21.25 22.75Z" fill="#FDEB56"/>
<path d="M28.75 22.75C29.5784 22.75 30.25 22.0784 30.25 21.25C30.25 20.4216 29.5784 19.75 28.75 19.75C27.9216 19.75 27.25 20.4216 27.25 21.25C27.25 22.0784 27.9216 22.75 28.75 22.75Z" fill="#FDEB56"/>
<path d="M30.25 25C30.25 27.8995 27.8995 30.25 25 30.25C22.1005 30.25 19.75 27.8995 19.75 25H18.25C18.25 28.7279 21.2721 31.75 25 31.75C28.7279 31.75 31.75 28.7279 31.75 25H30.25Z" fill="#FDEB56"/>
</g>
<defs>
<clipPath id="clip0_4285_7835">
<rect width="24" height="24" fill="white" transform="translate(13 13)"/>
</clipPath>
</defs>
</svg>
