<svg width="30" height="30" viewBox="0 0 30 30" fill="none" xmlns="http://www.w3.org/2000/svg">
<path d="M20.217 24.3698L9.80036 24.3796C7.50869 24.3817 5.63213 22.5088 5.62953 20.2171L5.61963 9.80048C5.61755 7.50882 7.49046 5.63225 9.78213 5.62965L20.1988 5.61975C22.4905 5.61767 24.367 7.49059 24.3696 9.78225L24.3795 20.1989C24.3821 22.4911 22.5087 24.3677 20.217 24.3698Z" fill="url(#paint0_radial_4503_7457)"/>
<path d="M20.217 24.3698L9.80036 24.3796C7.50869 24.3817 5.63213 22.5088 5.62953 20.2171L5.61963 9.80048C5.61755 7.50882 7.49046 5.63225 9.78213 5.62965L20.1988 5.61975C22.4905 5.61767 24.367 7.49059 24.3696 9.78225L24.3795 20.1989C24.3821 22.4911 22.5087 24.3677 20.217 24.3698Z" fill="url(#paint1_radial_4503_7457)"/>
<path d="M15.0001 18.6458C12.9902 18.6458 11.3542 17.0104 11.3542 15C11.3542 12.9895 12.9902 11.3541 15.0001 11.3541C17.01 11.3541 18.6459 12.9895 18.6459 15C18.6459 17.0104 17.01 18.6458 15.0001 18.6458ZM15.0001 12.3958C13.5641 12.3958 12.3959 13.564 12.3959 15C12.3959 16.4359 13.5641 17.6041 15.0001 17.6041C16.436 17.6041 17.6042 16.4359 17.6042 15C17.6042 13.564 16.436 12.3958 15.0001 12.3958Z" fill="white"/>
<path d="M18.9062 11.875C19.3377 11.875 19.6875 11.5252 19.6875 11.0938C19.6875 10.6623 19.3377 10.3125 18.9062 10.3125C18.4748 10.3125 18.125 10.6623 18.125 11.0938C18.125 11.5252 18.4748 11.875 18.9062 11.875Z" fill="white"/>
<path d="M18.1251 21.7708H11.8751C9.86519 21.7708 8.22925 20.1354 8.22925 18.125V11.875C8.22925 9.86454 9.86519 8.22913 11.8751 8.22913H18.1251C20.135 8.22913 21.7709 9.86454 21.7709 11.875V18.125C21.7709 20.1354 20.135 21.7708 18.1251 21.7708ZM11.8751 9.27079C10.4391 9.27079 9.27091 10.439 9.27091 11.875V18.125C9.27091 19.5609 10.4391 20.7291 11.8751 20.7291H18.1251C19.561 20.7291 20.7292 19.5609 20.7292 18.125V11.875C20.7292 10.439 19.561 9.27079 18.1251 9.27079H11.8751Z" fill="white"/>
<defs>
<radialGradient id="paint0_radial_4503_7457" cx="0" cy="0" r="1" gradientUnits="userSpaceOnUse" gradientTransform="translate(12.5936 24.3932) scale(23.3849)">
<stop stop-color="#FFDD55"/>
<stop offset="0.328" stop-color="#FF543F"/>
<stop offset="0.348" stop-color="#FC5245"/>
<stop offset="0.504" stop-color="#E64771"/>
<stop offset="0.643" stop-color="#D53E91"/>
<stop offset="0.761" stop-color="#CC39A4"/>
<stop offset="0.841" stop-color="#C837AB"/>
</radialGradient>
<radialGradient id="paint1_radial_4503_7457" cx="0" cy="0" r="1" gradientUnits="userSpaceOnUse" gradientTransform="translate(8.63838 5.38554) scale(15.5276 10.346)">
<stop stop-color="#4168C9"/>
<stop offset="0.999" stop-color="#4168C9" stop-opacity="0"/>
</radialGradient>
</defs>
</svg>
