<svg width="14" height="15" viewBox="0 0 14 15" fill="none" xmlns="http://www.w3.org/2000/svg">
<path d="M10.4346 6.85638C11.2483 6.74205 11.8748 6.04438 11.8766 5.19913C11.8766 4.36613 11.2693 3.67547 10.4731 3.5448" stroke="#8EC9ED" stroke-linecap="round" stroke-linejoin="round"/>
<path d="M11.5083 8.81274C12.2964 8.93058 12.8465 9.20649 12.8465 9.77524C12.8465 10.1667 12.5875 10.421 12.1686 10.5808" stroke="#8EC9ED" stroke-linecap="round" stroke-linejoin="round"/>
<path fill-rule="evenodd" clip-rule="evenodd" d="M6.93385 9.05396C5.05901 9.05396 3.45776 9.33804 3.45776 10.4726C3.45776 11.6066 5.0491 11.8989 6.93385 11.8989C8.80868 11.8989 10.4093 11.6177 10.4093 10.4825C10.4093 9.34737 8.8186 9.05396 6.93385 9.05396Z" stroke="#8EC9ED" stroke-linecap="round" stroke-linejoin="round"/>
<path fill-rule="evenodd" clip-rule="evenodd" d="M6.93382 7.43463C8.16407 7.43463 9.16157 6.43771 9.16157 5.20688C9.16157 3.97663 8.16407 2.97913 6.93382 2.97913C5.70357 2.97913 4.70607 3.97663 4.70607 5.20688C4.7014 6.43304 5.69132 7.43054 6.91749 7.43463H6.93382Z" stroke="#8EC9ED" stroke-linecap="round" stroke-linejoin="round"/>
<path d="M3.43272 6.85638C2.61839 6.74205 1.99247 6.04438 1.99072 5.19913C1.99072 4.36613 2.59797 3.67547 3.39422 3.5448" stroke="#8EC9ED" stroke-linecap="round" stroke-linejoin="round"/>
<path d="M2.35892 8.81274C1.57084 8.93058 1.02075 9.20649 1.02075 9.77524C1.02075 10.1667 1.27975 10.421 1.69859 10.5808" stroke="#8EC9ED" stroke-linecap="round" stroke-linejoin="round"/>
</svg>
