<svg width="41" height="41" viewBox="0 0 41 41" fill="none" xmlns="http://www.w3.org/2000/svg">
<g id="metaverse 1">
<g id="Group">
<path id="Vector" d="M37.4866 11.1459C37.4806 10.6182 37.3182 10.1043 37.0198 9.66904C36.7215 9.23382 36.3006 8.89697 35.8107 8.70116C35.3207 8.50534 34.7836 8.45939 34.2675 8.56912C33.7513 8.67885 33.2794 8.93933 32.9114 9.31754L21.862 2.93727C21.4365 2.69257 20.9543 2.56378 20.4634 2.56378C19.9726 2.56378 19.4904 2.69257 19.0649 2.93727L8.06723 9.29157C7.78152 8.99767 7.43159 8.774 7.04489 8.6381C6.65819 8.5022 6.24526 8.45779 5.83851 8.50834C5.43176 8.55889 5.04226 8.70303 4.70059 8.92944C4.35892 9.15586 4.07437 9.45839 3.8693 9.81328C3.66423 10.1682 3.5442 10.5658 3.51865 10.9748C3.49309 11.3839 3.56271 11.7934 3.72202 12.171C3.88134 12.5487 4.12602 12.8843 4.43686 13.1514C4.7477 13.4186 5.11623 13.6101 5.51353 13.7109V26.4151C5.51445 26.9056 5.64392 27.3873 5.88904 27.8121C6.13416 28.2369 6.48636 28.59 6.91052 28.8363L17.8826 35.176C17.7906 35.5654 17.7879 35.9705 17.8748 36.3611C17.9616 36.7516 18.1356 37.1175 18.3839 37.4312C18.6322 37.7449 18.9482 37.9984 19.3084 38.1727C19.6685 38.347 20.0634 38.4375 20.4635 38.4375C20.8635 38.4375 21.2584 38.3469 21.6186 38.1727C21.9787 37.9984 22.2947 37.7449 22.543 37.4312C22.7912 37.1174 22.9653 36.7516 23.0521 36.361C23.1389 35.9705 23.1362 35.5653 23.0442 35.176L34.0163 28.8356C34.4404 28.5895 34.7926 28.2365 35.0377 27.8118C35.2827 27.3871 35.4122 26.9055 35.413 26.4151V13.7337C36.0008 13.6012 36.5261 13.273 36.9028 12.8028C37.2796 12.3326 37.4854 11.7484 37.4866 11.1459ZM4.7947 11.1459C4.79869 10.7837 4.94536 10.4378 5.20287 10.1831C5.46038 9.92839 5.80795 9.78554 6.17013 9.78555C6.53231 9.78555 6.87987 9.92841 7.13737 10.1831C7.39487 10.4378 7.54153 10.7838 7.54551 11.1459C7.54152 11.5081 7.39485 11.854 7.13734 12.1087C6.87983 12.3634 6.53227 12.5063 6.17009 12.5062C5.80791 12.5062 5.46034 12.3634 5.20284 12.1087C4.94534 11.854 4.79868 11.508 4.7947 11.1459ZM20.4634 37.1563C20.1013 37.1523 19.7553 37.0056 19.5006 36.7481C19.2459 36.4906 19.1031 36.143 19.1031 35.7808C19.1031 35.4187 19.246 35.0711 19.5006 34.8136C19.7553 34.5561 20.1013 34.4094 20.4635 34.4054C20.8256 34.4094 21.1716 34.5561 21.4263 34.8136C21.681 35.0711 21.8238 35.4187 21.8238 35.7809C21.8238 36.1431 21.6809 36.4906 21.4262 36.7481C21.1716 37.0056 20.8256 37.1523 20.4634 37.1563ZM33.3751 27.7264L22.4522 34.0378C22.2061 33.7512 21.901 33.5212 21.5577 33.3635C21.2145 33.2058 20.8412 33.1242 20.4634 33.1242C20.0857 33.1242 19.7124 33.2058 19.3691 33.3635C19.0259 33.5212 18.7207 33.7512 18.4746 34.0378L7.55177 27.7271C7.32196 27.5936 7.13114 27.4022 6.99832 27.1721C6.8655 26.9419 6.79532 26.6809 6.79478 26.4151V13.7208C7.37286 13.581 7.88732 13.2513 8.25575 12.7845C8.62417 12.3176 8.82525 11.7406 8.82676 11.1459C8.82308 10.8934 8.78295 10.6429 8.7076 10.4019L19.7061 4.04708C19.9365 3.91428 20.1977 3.84438 20.4636 3.84438C20.7295 3.84438 20.9907 3.91428 21.221 4.04708L32.2825 10.434C32.1878 10.7697 32.1606 11.1209 32.2025 11.4672C32.2444 11.8135 32.3545 12.1481 32.5264 12.4516C32.6984 12.7551 32.9288 13.0215 33.2044 13.2355C33.4799 13.4494 33.7951 13.6066 34.1318 13.6979V26.4151C34.1314 26.6808 34.0613 26.9417 33.9285 27.1718C33.7957 27.4019 33.6049 27.5931 33.3751 27.7264ZM34.8299 12.5216C34.4678 12.5175 34.1219 12.3707 33.8673 12.1131C33.6127 11.8556 33.4699 11.508 33.4699 11.1459C33.4699 10.7837 33.6127 10.4361 33.8673 10.1786C34.1219 9.92105 34.4678 9.77429 34.83 9.77016C35.1921 9.7743 35.538 9.92107 35.7927 10.1786C36.0473 10.4362 36.1901 10.7837 36.1901 11.1459C36.1901 11.5081 36.0472 11.8556 35.7926 12.1132C35.538 12.3707 35.1921 12.5175 34.8299 12.5216Z" fill="#FDEB56"/>
<path id="Vector_2" d="M28.2404 16.0049C28.1915 15.8685 28.0975 15.7528 27.9739 15.6772L20.8607 11.4118C20.7615 11.3523 20.6482 11.3208 20.5326 11.3206C20.417 11.3203 20.3035 11.3514 20.2041 11.4105L13.0283 15.6759C12.9345 15.7344 12.8566 15.8154 12.8019 15.9115C12.7472 16.0076 12.7173 16.1159 12.7149 16.2264V24.589C12.7149 24.6978 12.7426 24.8048 12.7954 24.8999C12.8482 24.995 12.9244 25.0751 13.0168 25.1326L20.1612 29.5826C20.2905 29.6569 20.4402 29.688 20.5884 29.6714C20.7366 29.6549 20.8757 29.5914 20.9854 29.4904L27.9848 25.1001C28.0767 25.0425 28.1524 24.9625 28.205 24.8676C28.2575 24.7728 28.285 24.6661 28.2851 24.5577V16.2264C28.2836 16.1505 28.2684 16.0755 28.2404 16.0049ZM20.5297 12.7074L26.4014 16.2277L20.5297 19.7687L14.6068 16.2277L20.5297 12.7074ZM13.9962 17.3558L19.8907 20.8791V27.9044L13.9962 24.233V17.3558ZM21.1719 27.861V20.8776L27.0038 17.3609V24.2036L21.1719 27.861Z" fill="#FDEB56"/>
</g>
</g>
</svg>
