<svg width="36" height="36" viewBox="0 0 36 36" fill="none" xmlns="http://www.w3.org/2000/svg">
<rect width="36" height="36" rx="18" fill="white" fill-opacity="0.08"/>
<path d="M27.9433 12.5244C27.9398 12.2156 27.8448 11.9147 27.6701 11.6599C27.4955 11.4052 27.2491 11.208 26.9623 11.0934C26.6755 10.9787 26.3611 10.9518 26.059 11.0161C25.7568 11.0803 25.4806 11.2328 25.2652 11.4542L18.7972 7.71937C18.5482 7.57613 18.2659 7.50075 17.9786 7.50075C17.6912 7.50075 17.409 7.57613 17.1599 7.71937L10.7222 11.439C10.555 11.2669 10.3502 11.136 10.1238 11.0564C9.89744 10.9769 9.65573 10.9509 9.41763 10.9805C9.17953 11.0101 8.95153 11.0945 8.75153 11.227C8.55152 11.3595 8.38496 11.5366 8.26492 11.7444C8.14488 11.9521 8.07462 12.1848 8.05966 12.4243C8.0447 12.6638 8.08545 12.9034 8.17871 13.1245C8.27197 13.3456 8.4152 13.542 8.59715 13.6984C8.7791 13.8548 8.99483 13.9669 9.2274 14.0259V21.4625C9.22793 21.7496 9.30372 22.0316 9.44721 22.2802C9.59069 22.5289 9.79686 22.7356 10.0451 22.8798L16.4678 26.5909C16.414 26.8188 16.4124 27.0559 16.4632 27.2845C16.5141 27.5131 16.616 27.7273 16.7613 27.9109C16.9066 28.0946 17.0916 28.243 17.3024 28.345C17.5132 28.447 17.7444 28.5 17.9786 28.5C18.2128 28.5 18.4439 28.447 18.6547 28.345C18.8655 28.243 19.0505 28.0946 19.1959 27.9109C19.3412 27.7273 19.4431 27.5131 19.4939 27.2845C19.5447 27.0559 19.5431 26.8187 19.4893 26.5908L25.912 22.8794C26.1602 22.7353 26.3664 22.5287 26.5098 22.2801C26.6533 22.0314 26.729 21.7496 26.7295 21.4625V14.0392C27.0736 13.9617 27.3811 13.7695 27.6016 13.4943C27.8221 13.2191 27.9426 12.8771 27.9433 12.5244ZM8.80662 12.5244C8.80896 12.3124 8.89481 12.1099 9.04555 11.9608C9.19628 11.8117 9.39974 11.7281 9.61174 11.7281C9.82375 11.7281 10.0272 11.8117 10.1779 11.9608C10.3287 12.1099 10.4145 12.3124 10.4168 12.5244C10.4145 12.7364 10.3287 12.939 10.1779 13.088C10.0272 13.2371 9.82373 13.3207 9.61172 13.3207C9.39971 13.3207 9.19626 13.2371 9.04553 13.088C8.8948 12.9389 8.80895 12.7364 8.80662 12.5244ZM17.9786 27.75C17.7666 27.7477 17.564 27.6618 17.415 27.5111C17.2659 27.3603 17.1823 27.1569 17.1823 26.9449C17.1823 26.7329 17.2659 26.5294 17.415 26.3787C17.5641 26.2279 17.7666 26.1421 17.9786 26.1398C18.1906 26.1421 18.3931 26.228 18.5422 26.3787C18.6913 26.5294 18.7749 26.7329 18.7749 26.9449C18.7749 27.1569 18.6912 27.3604 18.5422 27.5111C18.3931 27.6618 18.1905 27.7477 17.9786 27.75ZM25.5366 22.2301L19.1427 25.9246C18.9987 25.7568 18.82 25.6222 18.6191 25.5299C18.4182 25.4375 18.1997 25.3898 17.9786 25.3898C17.7574 25.3898 17.5389 25.4375 17.338 25.5299C17.1371 25.6222 16.9584 25.7568 16.8144 25.9246L10.4205 22.2305C10.286 22.1523 10.1743 22.0403 10.0965 21.9056C10.0188 21.7708 9.97771 21.6181 9.9774 21.4625V14.0317C10.3158 13.9499 10.6169 13.7569 10.8326 13.4836C11.0483 13.2103 11.166 12.8725 11.1668 12.5244C11.1647 12.3766 11.1412 12.23 11.0971 12.0889L17.5353 8.36902C17.6701 8.29128 17.823 8.25037 17.9786 8.25037C18.1343 8.25037 18.2872 8.29128 18.422 8.36902L24.897 12.1077C24.8416 12.3042 24.8257 12.5098 24.8502 12.7125C24.8747 12.9152 24.9392 13.1111 25.0398 13.2887C25.1405 13.4664 25.2754 13.6224 25.4367 13.7476C25.598 13.8728 25.7825 13.9648 25.9795 14.0183V21.4625C25.9793 21.618 25.9383 21.7708 25.8605 21.9054C25.7828 22.0401 25.6711 22.1521 25.5366 22.2301ZM26.3882 13.3297C26.1762 13.3273 25.9738 13.2414 25.8247 13.0906C25.6757 12.9399 25.5921 12.7364 25.5921 12.5244C25.5921 12.3124 25.6757 12.109 25.8247 11.9582C25.9738 11.8074 26.1763 11.7215 26.3882 11.7191C26.6002 11.7215 26.8027 11.8075 26.9518 11.9582C27.1008 12.109 27.1844 12.3124 27.1844 12.5244C27.1844 12.7364 27.1008 12.9399 26.9517 13.0906C26.8027 13.2414 26.6002 13.3273 26.3882 13.3297Z" fill="#FDEB56"/>
<path d="M22.5309 15.3687C22.5024 15.2889 22.4473 15.2212 22.3749 15.1769L18.2111 12.6801C18.1531 12.6453 18.0867 12.6268 18.0191 12.6267C17.9514 12.6265 17.885 12.6447 17.8268 12.6793L13.6263 15.1761C13.5714 15.2104 13.5258 15.2578 13.4938 15.3141C13.4618 15.3703 13.4443 15.4337 13.4429 15.4984V20.3936C13.4429 20.4572 13.4591 20.5199 13.49 20.5756C13.5209 20.6312 13.5655 20.6781 13.6196 20.7118L17.8017 23.3167C17.8774 23.3601 17.965 23.3784 18.0518 23.3687C18.1385 23.3589 18.2199 23.3218 18.2841 23.2626L22.3813 20.6927C22.4351 20.659 22.4795 20.6122 22.5102 20.5567C22.541 20.5011 22.5571 20.4387 22.5571 20.3752V15.4984C22.5562 15.454 22.5474 15.41 22.5309 15.3687ZM18.0174 13.4385L21.4545 15.4991L18.0174 17.5719L14.5503 15.4991L18.0174 13.4385ZM14.1929 16.1595L17.6433 18.2219V22.3343L14.1929 20.1852V16.1595ZM18.3933 22.3089V18.221L21.8071 16.1625V20.168L18.3933 22.3089Z" fill="#FDEB56"/>
</svg>
