<svg width="30" height="30" viewBox="0 0 30 30" fill="none" xmlns="http://www.w3.org/2000/svg">
<path d="M14.9999 4.58337C12.2372 4.58337 9.58773 5.68084 7.63422 7.63435C5.68072 9.58785 4.58325 12.2374 4.58325 15C4.58325 17.7627 5.68072 20.4122 7.63422 22.3657C9.58773 24.3192 12.2372 25.4167 14.9999 25.4167C17.7626 25.4167 20.4121 24.3192 22.3656 22.3657C24.3191 20.4122 25.4166 17.7627 25.4166 15C25.4166 12.2374 24.3191 9.58785 22.3656 7.63435C20.4121 5.68084 17.7626 4.58337 14.9999 4.58337Z" fill="#29B6F6"/>
<path d="M20.1822 10.3125L18.2312 20.2739C18.2312 20.2739 18.1473 20.7291 17.5827 20.7291C17.2827 20.7291 17.128 20.5864 17.128 20.5864L12.902 17.0796L10.8343 16.0375L8.18065 15.3317C8.18065 15.3317 7.70825 15.1953 7.70825 14.8046C7.70825 14.4791 8.19419 14.3239 8.19419 14.3239L19.2963 9.9135C19.2963 9.9135 19.6353 9.79111 19.8827 9.79163C20.0348 9.79163 20.2083 9.85673 20.2083 10.052C20.2083 10.1823 20.1822 10.3125 20.1822 10.3125Z" fill="white"/>
<path d="M14.4791 18.388L12.6947 20.1453C12.6947 20.1453 12.6171 20.2052 12.5135 20.2078C12.4775 20.2088 12.439 20.2031 12.3994 20.1854L12.9015 17.0786L14.4791 18.388Z" fill="#B0BEC5"/>
<path d="M18.0713 11.9771C17.9833 11.8626 17.8208 11.8417 17.7062 11.9287L10.8333 16.0417C10.8333 16.0417 11.9301 19.1105 12.0973 19.6417C12.265 20.1735 12.3994 20.186 12.3994 20.186L12.9015 17.0792L18.0223 12.3417C18.1369 12.2548 18.1583 12.0917 18.0713 11.9771Z" fill="#CFD8DC"/>
</svg>
