<svg width="30" height="30" viewBox="0 0 30 30" fill="none" xmlns="http://www.w3.org/2000/svg">
<path d="M24.375 16.9146C22.8125 18.7068 21.25 20.499 19.6875 22.2917C18.4724 22.2917 17.2568 22.2917 16.0417 22.2917C14.8266 23.3334 13.6109 24.375 12.3958 25.4167C11.875 25.4167 11.3542 25.4167 10.8333 25.4167C10.8333 24.375 10.8333 23.3334 10.8333 22.2917C9.0974 22.2917 7.36094 22.2917 5.625 22.2917C5.625 18.4214 5.625 14.5506 5.625 10.6802C6.38281 9.16879 7.1401 7.65733 7.89792 6.14587C13.3901 6.14587 18.8828 6.14587 24.375 6.14587C24.375 9.73546 24.375 13.325 24.375 16.9146Z" fill="#6C19FF"/>
<path d="M22.8125 16.2339C21.9443 17.2115 21.0766 18.1891 20.2083 19.1667C18.9932 19.1667 17.7776 19.1667 16.5625 19.1667C15.3474 20.2084 14.1318 21.25 12.9167 22.2917C12.9167 21.25 12.9167 20.2084 12.9167 19.1667C11.5276 19.1625 10.1391 19.1584 8.75 19.1542C8.75 15.3386 8.75 11.5235 8.75 7.70837C13.4375 7.70837 18.125 7.70837 22.8125 7.70837C22.8125 10.55 22.8125 13.3917 22.8125 16.2339Z" fill="#DDBAFF"/>
<path d="M13.9584 18.1281L9.79175 18.1156V8.75H21.7709V15.838L19.7402 18.125H16.1772L13.9584 20.0266V18.1281Z" fill="#DDBAFF"/>
<path d="M15 10.8334H13.4375V16.0417H15V10.8334Z" fill="#6C19FF"/>
<path d="M19.6875 10.8334H18.125V16.0417H19.6875V10.8334Z" fill="#6C19FF"/>
</svg>
